<?xml version="1.0" encoding="utf-8"?>
<!-- Generator: Adobe Illustrator 16.0.3, SVG Export Plug-In . SVG Version: 6.00 Build 0)  -->
<!DOCTYPE svg PUBLIC "-//W3C//DTD SVG 1.1//EN" "http://www.w3.org/Graphics/SVG/1.1/DTD/svg11.dtd">
<svg version="1.1" id="Layer_2" xmlns="http://www.w3.org/2000/svg" xmlns:xlink="http://www.w3.org/1999/xlink" x="0px" y="0px"
	 width="50px" height="50px" viewBox="0 0 50 50" enable-background="new 0 0 50 50" xml:space="preserve">
<g id="Heath_10_">
	<g>
		
			<rect x="22.153" y="4.238" transform="matrix(0.2071 0.9783 -0.9783 0.2071 21.9729 -18.5488)" fill="#99AA99" width="0.554" height="0.087"/>
	</g>
	<g>
		
			<rect x="22.401" y="3.863" transform="matrix(0.122 0.9925 -0.9925 0.122 23.994 -19.313)" fill="#99AA99" width="1.024" height="0.087"/>
	</g>
	<g>
		
			<rect x="22.828" y="3.683" transform="matrix(0.0418 0.9991 -0.9991 0.0418 26.1915 -19.8564)" fill="#99AA99" width="1.239" height="0.087"/>
	</g>
	<g>
		<rect x="23.928" y="3.07" fill="#99AA99" width="0.087" height="1.267"/>
	</g>
	<g>
		<rect x="24.453" y="3.106" fill="#99AA99" width="0.087" height="1.239"/>
	</g>
	<g>
		
			<rect x="24.986" y="3.392" transform="matrix(0.9917 0.1289 -0.1289 0.9917 0.7118 -3.1928)" fill="#99AA99" width="0.087" height="1.024"/>
	</g>
	<g>
		<line fill="none" x1="25.572" y1="4.009" x2="25.458" y2="4.55"/>
	</g>
</g>
<g id="Heath_9_" enable-background="new    ">
	<g>
		
			<rect x="39.113" y="4.198" transform="matrix(0.2081 0.9781 -0.9781 0.2081 35.3408 -35.168)" fill="#99AA99" width="0.554" height="0.089"/>
	</g>
	<g>
		
			<rect x="39.367" y="3.824" transform="matrix(0.1221 0.9925 -0.9925 0.1221 38.8483 -36.1853)" fill="#99AA99" width="1.024" height="0.087"/>
	</g>
	<g>
		
			<rect x="39.792" y="3.644" transform="matrix(0.0418 0.9991 -0.9991 0.0418 42.4073 -36.8431)" fill="#99AA99" width="1.239" height="0.086"/>
	</g>
	<g>
		<rect x="40.893" y="3.031" fill="#99AA99" width="0.088" height="1.267"/>
	</g>
	<g>
		<rect x="41.416" y="3.068" fill="#99AA99" width="0.086" height="1.239"/>
	</g>
	<g>
		
			<rect x="41.948" y="3.356" transform="matrix(0.9919 0.1267 -0.1267 0.9919 0.829 -5.2912)" fill="#99AA99" width="0.089" height="1.024"/>
	</g>
	<g>
		<line fill="none" x1="42.536" y1="3.97" x2="42.421" y2="4.512"/>
	</g>
</g>
<g id="Heath_8_" enable-background="new    ">
	<g>
		
			<rect x="33.113" y="12.198" transform="matrix(0.208 0.9781 -0.9781 0.208 38.4196 -22.964)" fill="#99AA99" width="0.554" height="0.088"/>
	</g>
	<g>
		
			<rect x="33.365" y="11.824" transform="matrix(0.1221 0.9925 -0.9925 0.1221 41.5188 -23.2055)" fill="#99AA99" width="1.024" height="0.087"/>
	</g>
	<g>
		
			<rect x="33.793" y="11.644" transform="matrix(0.041 0.9992 -0.9992 0.041 44.6789 -23.175)" fill="#99AA99" width="1.239" height="0.086"/>
	</g>
	<g>
		<rect x="34.893" y="11.031" fill="#99AA99" width="0.088" height="1.267"/>
	</g>
	<g>
		<rect x="35.416" y="11.068" fill="#99AA99" width="0.086" height="1.239"/>
	</g>
	<g>
		
			<rect x="35.95" y="11.356" transform="matrix(0.9923 0.124 -0.124 0.9923 1.75 -4.3728)" fill="#99AA99" width="0.087" height="1.024"/>
	</g>
	<g>
		<line fill="none" x1="36.536" y1="11.97" x2="36.421" y2="12.512"/>
	</g>
</g>
<g id="Heath_7_" enable-background="new    ">
	<g>
		
			<rect x="7.115" y="14.227" transform="matrix(0.2073 0.9783 -0.9783 0.2073 19.8198 4.0808)" fill="#99AA99" width="0.554" height="0.087"/>
	</g>
	<g>
		
			<rect x="7.366" y="13.853" transform="matrix(0.122 0.9925 -0.9925 0.122 20.7089 4.3818)" fill="#99AA99" width="1.024" height="0.087"/>
	</g>
	<g>
		
			<rect x="7.792" y="13.672" transform="matrix(0.0418 0.9991 -0.9991 0.0418 21.7633 4.7378)" fill="#99AA99" width="1.239" height="0.087"/>
	</g>
	<g>
		<rect x="8.891" y="13.06" fill="#99AA99" width="0.087" height="1.267"/>
	</g>
	<g>
		<rect x="9.415" y="13.096" fill="#99AA99" width="0.087" height="1.239"/>
	</g>
	<g>
		
			<rect x="9.949" y="13.384" transform="matrix(0.9923 0.124 -0.124 0.9923 1.8007 -1.1321)" fill="#99AA99" width="0.087" height="1.024"/>
	</g>
	<g>
		<line fill="none" x1="10.535" y1="13.999" x2="10.42" y2="14.54"/>
	</g>
</g>
<g id="Heath_6_" enable-background="new    ">
	<g>
		
			<rect x="2.115" y="24.1" transform="matrix(0.2071 0.9783 -0.9783 0.2071 25.5167 16.8031)" fill="#99AA99" width="0.554" height="0.087"/>
	</g>
	<g>
		
			<rect x="2.366" y="23.725" transform="matrix(0.1221 0.9925 -0.9925 0.1221 26.117 18.0099)" fill="#99AA99" width="1.024" height="0.087"/>
	</g>
	<g>
		
			<rect x="2.792" y="23.545" transform="matrix(0.0418 0.9991 -0.9991 0.0418 26.8366 19.194)" fill="#99AA99" width="1.239" height="0.087"/>
	</g>
	<g>
		<rect x="3.891" y="22.933" fill="#99AA99" width="0.087" height="1.267"/>
	</g>
	<g>
		<rect x="4.415" y="22.969" fill="#99AA99" width="0.087" height="1.239"/>
	</g>
	<g>
		
			<rect x="4.949" y="23.257" transform="matrix(0.9924 0.1233 -0.1233 0.9924 2.9699 -0.4343)" fill="#99AA99" width="0.087" height="1.024"/>
	</g>
	<g>
		<line fill="none" x1="5.535" y1="23.872" x2="5.42" y2="24.413"/>
	</g>
</g>
<g id="Heath_5_" enable-background="new    ">
	<g>
		
			<rect x="7.115" y="37.23" transform="matrix(0.2075 0.9782 -0.9782 0.2075 42.3205 22.309)" fill="#99AA99" width="0.553" height="0.087"/>
	</g>
	<g>
		
			<rect x="7.366" y="36.857" transform="matrix(0.1219 0.9925 -0.9925 0.1219 43.5422 24.5815)" fill="#99AA99" width="1.025" height="0.086"/>
	</g>
	<g>
		
			<rect x="7.793" y="36.678" transform="matrix(0.0418 0.9991 -0.9991 0.0418 44.7498 26.781)" fill="#99AA99" width="1.237" height="0.087"/>
	</g>
	<g>
		<rect x="8.891" y="36.064" fill="#99AA99" width="0.087" height="1.267"/>
	</g>
	<g>
		<rect x="9.415" y="36.102" fill="#99AA99" width="0.087" height="1.238"/>
	</g>
	<g>
		
			<rect x="9.948" y="36.39" transform="matrix(0.9935 0.1135 -0.1135 0.9935 4.2548 -0.8958)" fill="#99AA99" width="0.086" height="1.024"/>
	</g>
	<g>
		<line fill="none" x1="10.535" y1="37.003" x2="10.42" y2="37.544"/>
	</g>
</g>
<g id="Heath_4_" enable-background="new    ">
	<g>
		
			<rect x="24.121" y="35.197" transform="matrix(0.2082 0.9781 -0.9781 0.2082 53.7859 4.0416)" fill="#99AA99" width="0.551" height="0.087"/>
	</g>
	<g>
		
			<rect x="24.366" y="34.821" transform="matrix(0.1215 0.9926 -0.9926 0.1215 56.4625 5.9352)" fill="#99AA99" width="1.025" height="0.086"/>
	</g>
	<g>
		
			<rect x="24.793" y="34.645" transform="matrix(0.0418 0.9991 -0.9991 0.0418 59.0087 7.8492)" fill="#99AA99" width="1.238" height="0.087"/>
	</g>
	<g>
		<rect x="25.893" y="34.031" fill="#99AA99" width="0.088" height="1.267"/>
	</g>
	<g>
		<rect x="26.416" y="34.068" fill="#99AA99" width="0.086" height="1.238"/>
	</g>
	<g>
		
			<rect x="26.95" y="34.356" transform="matrix(0.9936 0.1129 -0.1129 0.9936 4.1095 -2.8248)" fill="#99AA99" width="0.086" height="1.023"/>
	</g>
	<g>
		<line fill="none" x1="27.536" y1="34.971" x2="27.421" y2="35.512"/>
	</g>
</g>
<g id="Heath_3_" enable-background="new    ">
	<g>
		
			<rect x="39.117" y="34.196" transform="matrix(0.2083 0.9781 -0.9781 0.2083 64.676 -11.4221)" fill="#99AA99" width="0.553" height="0.088"/>
	</g>
	<g>
		
			<rect x="39.365" y="33.824" transform="matrix(0.1202 0.9928 -0.9928 0.1202 68.7071 -9.7912)" fill="#99AA99" width="1.024" height="0.086"/>
	</g>
	<g>
		
			<rect x="39.792" y="33.644" transform="matrix(0.0418 0.9991 -0.9991 0.0418 72.3821 -8.0957)" fill="#99AA99" width="1.239" height="0.086"/>
	</g>
	<g>
		<rect x="40.893" y="33.031" fill="#99AA99" width="0.088" height="1.267"/>
	</g>
	<g>
		<rect x="41.416" y="33.068" fill="#99AA99" width="0.086" height="1.238"/>
	</g>
	<g>
		
			<rect x="41.95" y="33.357" transform="matrix(0.9958 0.0916 -0.0916 0.9958 3.2777 -3.7028)" fill="#99AA99" width="0.085" height="1.025"/>
	</g>
	<g>
		<line fill="none" x1="42.536" y1="33.971" x2="42.421" y2="34.512"/>
	</g>
</g>
<g id="Heath_2_" enable-background="new    ">
	<g>
		
			<rect x="36.115" y="46.196" transform="matrix(0.2083 0.9781 -0.9781 0.2083 74.0361 1.0141)" fill="#99AA99" width="0.553" height="0.088"/>
	</g>
	<g>
		
			<rect x="36.365" y="45.823" transform="matrix(0.1219 0.9925 -0.9925 0.1219 77.9057 3.6721)" fill="#99AA99" width="1.025" height="0.088"/>
	</g>
	<g>
		
			<rect x="36.796" y="45.644" transform="matrix(0.0426 0.9991 -0.9991 0.0426 81.4656 6.3585)" fill="#99AA99" width="1.237" height="0.086"/>
	</g>
	<g>
		<rect x="37.893" y="45.031" fill="#99AA99" width="0.088" height="1.267"/>
	</g>
	<g>
		<rect x="38.416" y="45.068" fill="#99AA99" width="0.086" height="1.238"/>
	</g>
	<g>
		
			<rect x="38.949" y="45.357" transform="matrix(0.9959 0.0905 -0.0905 0.9959 4.3129 -3.3418)" fill="#99AA99" width="0.086" height="1.025"/>
	</g>
	<g>
		<line fill="none" x1="39.536" y1="45.971" x2="39.421" y2="46.512"/>
	</g>
</g>
<g id="Heath_1_" enable-background="new    ">
	<g>
		
			<rect x="2.115" y="46.176" transform="matrix(0.2075 0.9782 -0.9782 0.2075 47.1091 34.2899)" fill="#99AA99" width="0.553" height="0.087"/>
	</g>
	<g>
		
			<rect x="2.367" y="45.801" transform="matrix(0.122 0.9925 -0.9925 0.122 48.0289 37.3923)" fill="#99AA99" width="1.024" height="0.086"/>
	</g>
	<g>
		
			<rect x="2.793" y="45.623" transform="matrix(0.0414 0.9991 -0.9991 0.0414 48.8978 40.3664)" fill="#99AA99" width="1.237" height="0.087"/>
	</g>
	<g>
		<rect x="3.891" y="45.01" fill="#99AA99" width="0.087" height="1.268"/>
	</g>
	<g>
		<rect x="4.415" y="45.046" fill="#99AA99" width="0.087" height="1.239"/>
	</g>
	<g>
		
			<rect x="4.947" y="45.334" transform="matrix(0.9935 0.1135 -0.1135 0.9935 5.238 -0.2701)" fill="#99AA99" width="0.086" height="1.026"/>
	</g>
	<g>
		<line fill="none" x1="5.535" y1="45.947" x2="5.42" y2="46.488"/>
	</g>
</g>
<g id="Heath" enable-background="new    ">
	<g>
		
			<rect x="34.113" y="22.197" transform="matrix(0.208 0.9781 -0.9781 0.208 48.9921 -16.0225)" fill="#99AA99" width="0.554" height="0.088"/>
	</g>
	<g>
		
			<rect x="34.365" y="21.823" transform="matrix(0.1221 0.9925 -0.9925 0.1221 52.3214 -15.4194)" fill="#99AA99" width="1.024" height="0.087"/>
	</g>
	<g>
		
			<rect x="34.794" y="21.642" transform="matrix(0.041 0.9992 -0.9992 0.041 55.6301 -14.5876)" fill="#99AA99" width="1.239" height="0.086"/>
	</g>
	<g>
		<rect x="35.893" y="21.031" fill="#99AA99" width="0.088" height="1.267"/>
	</g>
	<g>
		<rect x="36.416" y="21.068" fill="#99AA99" width="0.086" height="1.239"/>
	</g>
	<g>
		
			<rect x="36.95" y="21.357" transform="matrix(0.9923 0.124 -0.124 0.9923 2.9981 -4.4196)" fill="#99AA99" width="0.087" height="1.024"/>
	</g>
	<g>
		<line fill="none" x1="37.536" y1="21.97" x2="37.421" y2="22.512"/>
	</g>
</g>
</svg>
