<?xml version="1.0" encoding="UTF-8"?>
<svg id="Layer_2" xmlns="http://www.w3.org/2000/svg" viewBox="0 0 40.2 43.99">
  <g id="Scree">
    <g isolation="isolate">
      <path d="M20.11,1.43l.21.12.09-.15.27.15.14.24-.29.25-.2-.08-.25-.16-.05-.24.08-.12ZM20.19,1.78s.05.01.08.03.06.02.06.02c0,0,.02,0,.04.02.03.01.05.03.07.04.02.01.03.02.04.02l.19-.12-.07-.14s-.02-.02-.03-.03c-.01-.02-.03-.03-.04-.04-.01-.02-.02-.03-.03-.03,0,0-.01,0-.02,0,0,.02-.02.04-.03.07-.01.03-.03.04-.05.04-.01,0-.03,0-.07-.01-.03,0-.07-.02-.09-.02-.03,0-.04,0-.05,0l-.04.04.03.13ZM20.87,1.32l-.18-.03-.02.13-.23-.04-.15-.14.15-.25.16.02.21.06.09.16-.02.1ZM20.74,1.09s-.04,0-.07,0-.04,0-.05,0c0,0-.01,0-.04,0-.02,0-.04,0-.06,0s-.03,0-.03,0l-.1.12.08.09s.02,0,.03.02.02.02.03.02c.01,0,.02.01.03.02s.01,0,.01,0c0-.01,0-.03,0-.05s.01-.04.03-.04c0,0,.02,0,.05,0,.03,0,.05,0,.07,0,.02,0,.03,0,.04,0l.02-.04-.05-.08ZM20.62.65l.14.08.06-.1.18.1.09.15-.19.16-.13-.05-.16-.1-.03-.16.05-.08ZM20.67.88s.03.01.05.02c.02,0,.03.01.04.01,0,0,.01,0,.03.01.02,0,.03.02.05.03.01,0,.02.01.02.01l.12-.07-.04-.1s-.03-.03-.05-.05-.03-.03-.03-.02c0,.01-.01.03-.02.04,0,.02-.02.02-.03.02,0,0-.02,0-.05,0-.02,0-.04,0-.06-.01s-.03,0-.03,0l-.03.02.02.08ZM21.11.59l-.12-.02-.02.08-.14-.03-.1-.09.1-.16h.1s.14.05.14.05l.06.1v.06ZM21.03.44s-.03,0-.05,0-.03,0-.03,0c0,0-.03,0-.08,0l-.07.08.05.06s.02.01.04.02c.02.01.03.01.03,0,0,0,0-.02,0-.03,0-.01,0-.02.02-.03,0,0,.01,0,.03,0,.02,0,.03,0,.05,0,.01,0,.02,0,.02,0v-.02s-.02-.06-.02-.06ZM20.85,1.58l.24.05.04-.17.3.06.2.18-.2.33h-.21s-.28-.09-.28-.09l-.12-.22.04-.14ZM21.42,1.44l-.16-.09-.07.11-.2-.11-.1-.18.22-.19.15.06.18.12.04.18-.05.09ZM21.03,1.89s.05,0,.09,0c.04,0,.06,0,.06,0,0,0,.02,0,.05,0,.03,0,.06,0,.08.01s.04,0,.04,0l.14-.17-.11-.11s-.02,0-.04-.02c-.02-.01-.03-.02-.05-.03s-.03-.02-.04-.02c-.01,0-.02,0-.02,0,0,.02,0,.04,0,.07,0,.03-.02.05-.03.05-.01,0-.03,0-.07.01-.04,0-.07,0-.1.01-.03,0-.04,0-.05,0l-.02.06.06.11ZM21,.19l.08.04.03-.05.1.05.04.08-.1.08-.06-.03-.09-.05-.02-.08.02-.04ZM21.37,1.18s-.03-.01-.06-.02c-.02,0-.04-.01-.05-.01,0,0-.01,0-.03-.01-.02,0-.04-.02-.05-.03-.02,0-.02-.01-.03-.02l-.14.08.05.1s.02.01.03.03c0,.01.02.02.03.03s.02.02.02.02c0,0,.01,0,.01,0,0-.02,0-.03.02-.05s.02-.03.04-.03c0,0,.03,0,.05,0,.03,0,.05.01.07.02s.03,0,.04,0l.02-.03-.02-.1ZM21.03.31s.01,0,.03.01.02,0,.03,0c0,0,.02,0,.05.03l.06-.04-.02-.05s-.01-.01-.02-.03c0-.01-.01-.02-.02,0,0,0,0,.01-.01.02s-.01.01-.02.01-.03,0-.07-.02v.02s0,.04,0,.04ZM21.26.16l-.06-.02v.04s-.08-.02-.08-.02l-.05-.04.05-.09h.05s.07.03.07.03l.03.06v.04ZM21.09.75l.15.02.03-.11.2.04.13.12-.13.21h-.14l-.18-.06-.08-.14.02-.08ZM21.22.08h-.04s-.02,0-.04,0l-.04.04.03.03s.01,0,.02.01.02,0,.02,0v-.02s0-.01,0-.01c0,0,.02,0,.06-.01h0s-.01-.04-.01-.04ZM21.46.66l-.1-.06-.05.07-.13-.07-.06-.11.14-.12.1.04.12.08.02.11-.04.06ZM21.21.95h.09s.01,0,.04,0,.04,0,.06,0c.02,0,.02,0,.03,0l.08-.11-.06-.07s-.03-.02-.06-.03c-.02-.02-.04-.02-.04,0,0,0,0,.03,0,.04,0,.02-.01.03-.02.03,0,0-.02,0-.05,0-.02,0-.04,0-.06,0-.02,0-.03,0-.03,0l-.02.04.04.08ZM21.42.5s-.02-.01-.04-.02c-.01,0-.02,0-.03,0s-.03-.01-.07-.04l-.09.05.03.07s.02.02.03.03c.01.02.02.02.03.01,0,0,0-.02,0-.03,0-.01.01-.02.02-.02.01,0,.05,0,.11.02v-.02s0-.06,0-.06ZM21.25.24l.08.02v-.06s.12.02.12.02l.07.06-.07.11h-.08s-.1-.03-.1-.03l-.04-.07.02-.05ZM21.45.19l-.05-.03-.03.04-.07-.04-.03-.06.08-.06.11.06v.06s0,.03,0,.03ZM21.31.35h.12s.04-.05.04-.05l-.04-.04s-.01-.01-.03-.02c-.01,0-.02,0-.02,0s0,.01,0,.02c0,.01,0,.02-.01.02,0,0-.03,0-.07.01v.02s.01.04.01.04ZM21.43.11s-.01,0-.02,0c-.01,0-.02,0-.02,0,0,0-.01,0-.04-.02l-.05.03.02.04s.01.01.02.02.01,0,.01,0c0,0,0,0,0-.01,0,0,0,0,0,0,0,0,.02,0,.06.01h0s0-.04,0-.04ZM21.66.16h-.06s-.01.03-.01.03l-.08-.02-.05-.04.05-.09h.06s.07.03.07.03l.03.06v.03ZM22.06,1.33l-.17-.04-.03.13-.22-.05-.15-.13.15-.25h.16s.21.07.21.07l.1.16-.03.1ZM21.87.59l-.11-.02-.02.08-.15-.03-.1-.08.1-.16h.1s.14.05.14.05l.06.1-.02.06ZM21.62.08h-.08s-.04.03-.04.03l.03.03s.01,0,.02.01c0,0,.01,0,.01,0,0,0,0-.01,0-.02s0-.01,0-.01c0,0,.03,0,.06,0h0s-.02-.04-.02-.04ZM21.55.19l.07.04.03-.05.1.05.04.08-.1.08-.06-.03-.08-.05-.02-.08.03-.04ZM21.57.31s.01,0,.03.01.02,0,.03,0c0,0,.02,0,.05.02l.07-.04-.02-.05s-.01-.01-.02-.03c0-.01-.01-.02-.02,0,0,0,0,.01-.01.02s-.01.01-.02.01-.03,0-.07-.01h-.01s0,.06,0,.06ZM21.79.44s-.03,0-.07,0c0,0-.03,0-.08,0l-.07.08.06.06s.02,0,.04.02.02.01.02,0c0,0,0-.02,0-.03,0-.01.01-.02.02-.03,0,0,.01,0,.03,0,.02,0,.03,0,.05,0s.02,0,.03,0v-.02s-.02-.06-.02-.06ZM21.92,1.1s-.04,0-.06,0c-.03,0-.04,0-.04,0,0,0-.01,0-.04,0s-.04,0-.06,0-.03,0-.03,0l-.11.12.08.08s.02,0,.03.02c.01,0,.02.02.03.02.01,0,.02.01.03.01s.01,0,.01,0c0-.01,0-.03,0-.05s.01-.04.02-.04c0,0,.03,0,.06,0,.03,0,.06,0,.08,0,.02,0,.03,0,.04,0l.02-.04-.05-.08ZM21.64.65l.14.08.06-.09.18.09.09.15-.19.16-.12-.05-.16-.1-.04-.16.05-.08ZM21.71,1.43l.21.12.09-.15.27.15.14.24-.3.25-.2-.08-.24-.16-.05-.25.07-.12ZM21.85.2l-.05-.03-.02.04-.07-.04-.04-.06.08-.06.05.02.06.04.02.06-.02.03ZM21.69.88s.03.01.05.02c.02,0,.04.01.04.01,0,0,.01,0,.03.01.02,0,.03.02.04.02s.02.01.02.01l.12-.07-.04-.1s-.03-.02-.05-.05c-.02-.02-.03-.03-.03-.02,0,.01-.01.03-.02.04-.01.02-.02.02-.03.02,0,0-.02,0-.04,0s-.04,0-.06,0c-.02,0-.03,0-.03,0l-.03.02.02.09ZM21.83.11s-.02,0-.04-.02c0,0-.02,0-.04-.02l-.05.03.02.04s.01.01.02.02.01,0,.01,0c0,0,0,0,0-.01,0,0,0,0,.01,0,0,0,.02,0,.06.02h0s0-.04,0-.04ZM21.79,1.78s.05.01.08.03c.03.01.06.02.06.02,0,0,.02,0,.04.02.03.01.05.03.07.04.02.01.03.02.04.02l.19-.11-.07-.14s-.02-.02-.03-.03c-.01-.01-.02-.03-.04-.04-.01-.02-.02-.03-.03-.03,0,0-.01,0-.02,0,0,.02-.02.04-.03.07-.02.03-.03.04-.05.04-.01,0-.03,0-.07-.01-.04,0-.07-.02-.1-.02-.03,0-.04,0-.05,0l-.04.04.02.13ZM21.8.24l.08.02v-.06s.12.02.12.02l.07.06-.07.11h-.07s-.1-.03-.1-.03l-.04-.07.02-.05ZM21.85.35s.03,0,.06,0c0,0,.02,0,.06,0l.05-.06-.04-.04s-.01-.01-.03-.02-.02,0-.02,0,0,.01,0,.02c0,.01,0,.02-.01.02,0,0-.03,0-.08,0v.02s.01.04.01.04ZM22.22.66l-.1-.06-.04.07-.13-.07-.07-.11.14-.12.1.04.12.07.02.12-.03.06ZM22.19.5s-.02-.01-.04-.02c-.02,0-.03,0-.03,0,0,0-.03-.01-.08-.04l-.09.06.03.06s.02.02.03.04c.01.02.02.02.02.01,0,0,0-.02.02-.03,0-.01.02-.02.02-.02s.04,0,.1.02l.02-.02v-.06ZM22.61,1.45l-.16-.09-.07.1-.2-.11-.1-.18.22-.18.15.06.18.12.04.18-.06.09ZM22.12.75l.16.02.02-.1.2.04.13.12-.13.21h-.14l-.18-.06-.08-.14.02-.09ZM22.56,1.18s-.04-.01-.06-.02c-.02,0-.04-.01-.04-.01,0,0-.01,0-.03-.01s-.04-.02-.06-.03c-.02,0-.03-.01-.03-.02l-.14.08.06.1s.03.03.05.06c.02.03.03.03.03.02,0-.01.01-.03.02-.05s.02-.03.04-.03c0,0,.02,0,.05,0,.03,0,.05.01.07.02.02,0,.03,0,.04,0l.03-.03-.02-.1ZM22.24.95s.03,0,.06,0c.02,0,.04,0,.04,0,0,0,.01,0,.03,0s.04,0,.05,0c.02,0,.02,0,.03,0l.09-.11-.07-.07s-.03-.02-.05-.03c-.02-.02-.03-.02-.03,0,0,.01,0,.03,0,.05s-.01.03-.02.03c0,0-.02,0-.05,0-.02,0-.05,0-.06,0s-.03,0-.03,0l-.02.04.04.07ZM22.45,1.58l.24.05.04-.17.31.06.2.18-.2.33h-.21s-.28-.09-.28-.09l-.12-.22.04-.14ZM22.63,1.89h.04s.03,0,.05,0,.03,0,.04,0h.02s.02,0,.05,0c.03,0,.06,0,.08.01s.04,0,.04,0l.14-.17-.1-.11s-.02-.01-.04-.02c-.02-.01-.03-.02-.05-.03s-.03-.02-.04-.02c-.01,0-.02,0-.02,0,0,.02,0,.04,0,.07,0,.03-.02.05-.04.05-.01,0-.03,0-.07.01s-.07,0-.1.01c-.03,0-.05,0-.05,0l-.02.06.06.11Z" fill="#6c6967"/>
    </g>
  </g>
  <g id="Scree-2" data-name="Scree" isolation="isolate">
    <g isolation="isolate">
      <path d="M37.08,1.39l.21.12.09-.15.27.15.14.24-.29.25-.2-.08-.25-.16-.05-.24.08-.12ZM37.15,1.74s.05.01.08.03c.03.01.05.02.06.02,0,0,.02,0,.04.02.03.01.05.03.07.04.02.01.03.02.03.02l.19-.12-.07-.14s-.02-.02-.03-.03c-.01-.02-.03-.03-.04-.04-.01-.02-.02-.03-.03-.03,0,0-.01,0-.02,0,0,.02-.02.04-.03.07-.01.03-.03.04-.05.04-.01,0-.03,0-.07-.01-.04,0-.07-.02-.1-.02-.03,0-.04,0-.05,0l-.04.04.03.13ZM37.84,1.28l-.18-.03-.02.13-.23-.04-.15-.14.15-.25.15.02.21.06.09.16-.02.1ZM37.7,1.06s-.04,0-.07,0-.04,0-.05,0c0,0-.02,0-.04,0-.02,0-.04,0-.06,0-.02,0-.03,0-.03,0l-.1.12.08.09s.02,0,.03.02c.01,0,.02.02.03.02.01,0,.02.01.03.02,0,0,.01,0,.01,0,0-.01,0-.03,0-.05,0-.02.01-.04.02-.04,0,0,.02,0,.05,0,.03,0,.05,0,.07,0,.02,0,.03,0,.03,0l.02-.04-.05-.08ZM37.58.62l.14.08.06-.1.18.1.09.15-.19.16-.13-.05-.16-.1-.03-.16.04-.08ZM37.63.84s.03.01.05.02c.02,0,.03.01.04.01,0,0,.01,0,.03.01.02,0,.03.02.05.03.01,0,.02.01.02.01l.12-.07-.04-.1s-.03-.03-.04-.05c-.02-.02-.03-.03-.03-.02,0,.01-.01.03-.02.04,0,.02-.02.02-.03.02,0,0-.02,0-.04,0-.02,0-.04,0-.06-.01s-.03,0-.03,0l-.03.02.02.08ZM38.07.55l-.12-.02-.02.08-.15-.03-.1-.09.1-.16h.1s.14.05.14.05l.06.1v.06ZM37.99.4s-.03,0-.04,0c-.02,0-.03,0-.03,0,0,0-.03,0-.08,0l-.07.08.05.06s.02.01.04.02c.02.01.03.01.03,0,0,0,0-.02,0-.03,0-.01,0-.02.02-.03,0,0,.01,0,.03,0,.02,0,.03,0,.05,0s.02,0,.02,0v-.02s-.02-.06-.02-.06ZM37.81,1.54l.24.05.03-.17.31.06.21.18-.21.33h-.21s-.28-.09-.28-.09l-.12-.22.03-.14ZM38.39,1.4l-.16-.09-.07.11-.2-.11-.1-.18.22-.19.15.06.18.12.03.18-.05.09ZM37.99,1.86s.06,0,.09,0c.03,0,.06,0,.06,0,0,0,.02,0,.05,0,.03,0,.06,0,.08.01.02,0,.04,0,.04,0l.15-.17-.11-.11s-.02,0-.04-.02c-.02-.01-.03-.02-.05-.03-.02,0-.03-.02-.04-.02s-.02,0-.02,0c0,.02,0,.04,0,.07,0,.03-.02.05-.03.05-.01,0-.03,0-.07.01s-.07,0-.1.01-.04,0-.05,0l-.03.06.06.11ZM37.96.15l.08.04.03-.05.1.05.04.08-.1.08-.06-.03-.09-.05-.02-.08.02-.04ZM38.33,1.14s-.03-.01-.06-.02c-.03,0-.04-.01-.05-.01,0,0-.01,0-.03-.01-.02,0-.04-.02-.06-.03s-.02-.01-.03-.02l-.14.08.05.1s.02.01.03.03c0,.01.02.02.02.03,0,.01.02.02.02.02,0,0,.01,0,.02,0,0-.02,0-.03.02-.05,0-.02.02-.03.03-.03,0,0,.03,0,.06,0,.03,0,.05.01.07.02.02,0,.03,0,.03,0l.03-.03-.02-.09ZM37.99.27s.02,0,.03.01c.01,0,.02,0,.02,0,0,0,.02,0,.05.03l.06-.04-.02-.05s-.01-.01-.02-.03c0-.01-.02-.02-.02,0,0,0,0,.01-.01.02,0,0-.01.01-.02.01,0,0-.03,0-.07-.02v.02s0,.04,0,.04ZM38.22.12l-.06-.02v.04s-.08-.02-.08-.02l-.05-.04.05-.09h.05s.07.03.07.03l.03.06v.04ZM38.06.72l.15.02.03-.11.2.04.13.12-.13.21h-.14l-.19-.06-.07-.14.02-.08ZM38.18.04h-.04s-.02,0-.04,0l-.04.04.03.03s.01,0,.02.01c.01,0,.02,0,.02,0v-.02s0-.01,0-.01c0,0,.02,0,.06-.01h0s-.01-.04-.01-.04ZM38.42.62l-.1-.06-.05.07-.13-.07-.06-.11.14-.12.1.04.12.08.02.11-.03.06ZM38.17.92h.09s.02,0,.04,0,.04,0,.06,0c.02,0,.03,0,.03,0l.08-.11-.06-.07s-.03-.02-.06-.03c-.02-.02-.03-.02-.03,0,0,0,0,.03,0,.04,0,.02-.01.03-.02.03,0,0-.02,0-.05,0-.02,0-.04,0-.06,0-.02,0-.03,0-.03,0l-.02.04.04.08ZM38.39.46s-.02-.01-.04-.02c-.01,0-.02,0-.03,0,0,0-.03-.01-.07-.04l-.09.06.03.07s.02.02.03.03c.01.02.02.02.03.01,0,0,0-.02,0-.03,0-.01.01-.02.02-.02.01,0,.05,0,.11.02v-.02s0-.06,0-.06ZM38.22.2l.08.02v-.06s.12.02.12.02l.07.06-.07.11h-.08s-.1-.03-.1-.03l-.04-.07.02-.05ZM38.41.16l-.05-.03-.03.04-.07-.04-.03-.06.08-.06.11.06v.06s0,.03,0,.03ZM38.27.31h.12s.04-.05.04-.05l-.04-.04s-.02-.01-.03-.02c-.01,0-.02,0-.02,0s0,.01,0,.02c0,.01,0,.02-.02.02,0,0-.03,0-.07.01v.02s.01.04.01.04ZM38.39.07s-.01,0-.02,0c0,0-.02,0-.02,0,0,0-.01,0-.03-.02l-.05.03.02.04s.01.01.02.02c0,0,.01,0,.01,0,0,0,0,0,0-.01,0,0,0,0,0,0,0,0,.02,0,.06.01h0s0-.04,0-.04ZM38.62.12h-.06s-.01.03-.01.03l-.08-.02-.05-.04.05-.09h.06s.07.03.07.03l.03.06v.03ZM39.02,1.29l-.17-.04-.03.13-.22-.05-.15-.13.15-.25h.15s.21.07.21.07l.1.16-.03.1ZM38.83.55l-.11-.02-.02.08-.15-.03-.1-.08.1-.16h.1s.14.05.14.05l.06.1-.02.06ZM38.58.04h-.08s-.03.03-.03.03l.03.03s.01,0,.02.01c0,0,.01,0,.01,0,0,0,0-.01,0-.02,0,0,0-.01,0-.01,0,0,.03,0,.06,0h0s-.02-.04-.02-.04ZM38.51.15l.07.04.03-.05.1.05.04.08-.1.08-.06-.03-.08-.05-.02-.08.03-.04ZM38.53.27s.01,0,.03.01c.01,0,.02,0,.02,0s.02,0,.05.02l.07-.04-.02-.05s-.01-.01-.02-.03c0-.01-.02-.02-.02,0,0,0,0,.01-.01.02,0,0-.01.01-.02.01s-.03,0-.07-.01h-.01s.01.06.01.06ZM38.75.4s-.03,0-.07,0c0,0-.03,0-.08,0l-.07.08.06.06s.02,0,.04.02c.01.01.02.01.02,0,0,0,0-.02,0-.03,0-.01,0-.02.02-.03,0,0,.01,0,.03,0,.02,0,.03,0,.05,0,.01,0,.02,0,.02,0v-.02s-.02-.06-.02-.06ZM38.89,1.06s-.04,0-.06,0c-.03,0-.05,0-.05,0,0,0-.02,0-.04,0-.02,0-.04,0-.06,0-.02,0-.03,0-.03,0l-.11.12.08.08s.02,0,.03.02c.01,0,.02.02.03.02,0,0,.02.01.03.01,0,0,.01,0,.01,0,0-.01,0-.03,0-.05,0-.02.01-.04.02-.04.01,0,.03,0,.06,0,.03,0,.06,0,.08,0,.02,0,.03,0,.03,0l.02-.04-.05-.08ZM38.61.61l.14.08.06-.09.18.09.09.15-.19.16-.12-.05-.15-.1-.04-.16.05-.08ZM38.67,1.39l.21.12.09-.15.27.15.14.24-.3.25-.2-.08-.24-.16-.05-.25.07-.12ZM38.81.16l-.05-.03-.02.04-.07-.04-.04-.06.08-.06.05.02.06.04.02.06-.02.03ZM38.65.84s.03.01.06.02c.02,0,.04.01.04.01,0,0,.01,0,.03.01.02,0,.03.02.04.02.01,0,.02.01.03.01l.12-.07-.04-.1s-.03-.02-.05-.05c-.02-.02-.03-.03-.03-.02,0,.01-.01.03-.02.04,0,.02-.02.02-.03.02s-.02,0-.04,0c-.02,0-.04,0-.06,0s-.03,0-.03,0l-.03.02v.09ZM38.79.07s-.02,0-.03-.02c0,0-.02,0-.04-.02l-.05.03.02.04s.01.01.02.02,0,0,0,0c0,0,0,0,0-.01,0,0,0,0,.01,0,0,0,.03,0,.06.02h0s-.02-.04-.02-.04ZM38.75,1.74s.05.01.08.03c.03.01.06.02.06.02,0,0,.02,0,.04.02.03.01.05.03.07.04.02.01.04.02.04.02l.19-.11-.07-.14s-.02-.02-.03-.03c-.01-.01-.02-.03-.03-.04-.01-.02-.02-.03-.03-.03s-.01,0-.02,0c0,.02-.02.04-.03.07-.02.03-.03.04-.05.04-.01,0-.03,0-.07-.01-.04,0-.07-.02-.1-.02s-.04,0-.05,0l-.03.04.02.13ZM38.76.2l.08.02v-.06s.12.02.12.02l.07.06-.07.11h-.07s-.1-.03-.1-.03l-.04-.07.02-.05ZM38.81.31s.03,0,.06,0c0,0,.02,0,.06,0l.05-.06-.04-.04s-.01-.01-.02-.02c-.01,0-.02,0-.02,0s0,.01,0,.02c0,.01,0,.02-.01.02,0,0-.03,0-.07,0v.02s0,.04,0,.04ZM39.19.62l-.1-.06-.04.07-.13-.07-.07-.11.15-.12.1.04.12.07.02.12-.03.06ZM39.15.46s-.02-.01-.04-.02c-.02,0-.03,0-.03,0,0,0-.03-.01-.08-.04l-.09.06.03.06s.02.02.03.04c.01.02.02.02.02.01,0,0,0-.02.02-.03,0-.01.02-.02.02-.02s.04,0,.1.02l.02-.02v-.06ZM39.57,1.41l-.15-.09-.07.1-.2-.11-.1-.18.22-.18.15.06.18.12.04.18-.06.09ZM39.08.71l.15.02.02-.1.2.04.13.12-.12.21h-.14l-.19-.06-.08-.14.02-.09ZM39.52,1.14s-.04-.01-.06-.02c-.02,0-.04-.01-.04-.01,0,0-.01,0-.03-.01-.02,0-.04-.02-.06-.03-.02,0-.03-.01-.03-.02l-.14.08.06.1s.03.03.05.06c.02.03.03.03.03.02s0-.03.02-.05c.01-.02.02-.03.04-.03,0,0,.02,0,.05,0,.02,0,.05.01.07.02.02,0,.03,0,.03,0l.03-.03-.02-.1ZM39.2.91s.03,0,.06,0c.02,0,.04,0,.04,0s.01,0,.03,0,.04,0,.05,0c.02,0,.03,0,.03,0l.09-.11-.07-.07s-.03-.02-.06-.03c-.02-.02-.03-.02-.03,0,0,.01,0,.03,0,.05s-.01.03-.02.03c0,0-.02,0-.05,0-.02,0-.04,0-.06,0s-.03,0-.03,0l-.02.04.04.07ZM39.42,1.54l.24.05.03-.17.31.06.2.18-.2.33h-.21s-.28-.09-.28-.09l-.12-.22.04-.14ZM39.59,1.85h.04s.03,0,.05,0c.02,0,.03,0,.04,0h.02s.02,0,.05,0c.03,0,.06,0,.08.01s.04,0,.04,0l.14-.17-.1-.11s-.02,0-.04-.02c-.02-.01-.03-.02-.05-.03-.02,0-.03-.02-.04-.02s-.02,0-.02,0c0,.02,0,.04,0,.07,0,.03-.02.05-.04.05-.01,0-.03,0-.07.01-.04,0-.07,0-.1.01-.03,0-.04,0-.05,0l-.02.06.06.11Z" fill="#6c6967"/>
    </g>
  </g>
  <g id="Scree-3" data-name="Scree" isolation="isolate">
    <g isolation="isolate">
      <path d="M31.08,9.39l.21.12.09-.15.27.15.14.24-.29.25-.2-.08-.25-.16-.05-.24.07-.12ZM31.15,9.74s.05.02.08.03c.03.01.05.02.06.02,0,0,.02,0,.04.02.03.01.05.02.07.04.02.01.03.02.03.02l.19-.12-.07-.14s-.02-.02-.03-.03c-.01-.02-.03-.03-.04-.04-.01-.02-.02-.02-.03-.03,0,0-.01,0-.02,0,0,.02-.02.04-.03.07-.01.03-.03.04-.05.04-.01,0-.03,0-.07-.01-.04,0-.07-.02-.1-.02-.03,0-.04-.01-.05-.01l-.04.04.03.13ZM31.84,9.28l-.18-.03-.02.13-.23-.04-.15-.14.15-.25.15.02.21.06.09.16-.02.1ZM31.7,9.06s-.04,0-.07,0-.04,0-.05,0c0,0-.02,0-.04,0-.02,0-.04,0-.06-.01-.02,0-.03,0-.03,0l-.1.12.08.09s.02,0,.03.02c.01,0,.02.02.03.02.01,0,.02.01.03.02,0,0,.01,0,.01,0,0-.01,0-.03,0-.05s.01-.03.02-.04c0,0,.02,0,.05,0,.03,0,.05,0,.07,0,.02,0,.03,0,.03,0l.02-.04-.05-.08ZM31.58,8.62l.14.08.06-.1.18.1.09.15-.19.16-.13-.05-.16-.1-.03-.16.04-.08ZM31.63,8.84s.03.01.05.02c.02,0,.03.01.04.01,0,0,.01,0,.03.01.02,0,.03.02.05.03.01,0,.02.01.02.01l.12-.07-.04-.1s-.03-.03-.04-.05c-.02-.02-.03-.03-.03-.02,0,.01-.01.03-.02.04,0,.02-.02.02-.03.02,0,0-.02,0-.04,0-.02,0-.04,0-.06-.01s-.03,0-.03,0l-.03.02.02.08ZM32.07,8.55l-.12-.02-.02.08-.15-.03-.1-.09.1-.16h.1s.14.05.14.05l.06.1v.06ZM31.99,8.4s-.03,0-.04,0c-.02,0-.03,0-.03,0,0,0-.03,0-.08,0l-.07.08.05.06s.02.01.04.02c.02.01.03.01.03,0,0,0,0-.02,0-.03,0-.01,0-.02.02-.03,0,0,.01,0,.03,0,.02,0,.03,0,.05,0s.02,0,.02,0v-.02s-.02-.06-.02-.06ZM31.81,9.54l.24.05.03-.17.31.06.21.18-.21.33h-.21s-.28-.09-.28-.09l-.12-.22.03-.14ZM32.39,9.4l-.16-.09-.07.11-.2-.11-.1-.18.22-.19.15.06.18.12.03.18-.05.09ZM31.99,9.86s.06,0,.09,0c.03,0,.06,0,.06,0,0,0,.02,0,.05,0,.03,0,.06,0,.08.01.02,0,.04,0,.04,0l.15-.17-.11-.11s-.02,0-.04-.02c-.02-.01-.03-.02-.05-.03-.02,0-.03-.02-.04-.02-.01,0-.02,0-.02,0,0,.02,0,.04,0,.07,0,.03-.02.05-.03.05-.01,0-.03,0-.07.01s-.07,0-.1.01c-.03,0-.04,0-.05,0l-.02.06.06.11ZM31.96,8.15l.08.04.03-.05.1.05.04.08-.1.08-.06-.03-.09-.05-.02-.08.02-.04ZM32.33,9.14s-.03-.01-.06-.02c-.03,0-.04-.01-.05-.01,0,0-.01,0-.03-.01-.02,0-.04-.02-.06-.03s-.02-.01-.03-.02l-.14.08.05.1s.02.01.02.03c0,.01.02.02.02.03s.02.02.02.02.01,0,.01,0c0-.02,0-.03.02-.05,0-.02.02-.03.03-.03,0,0,.03,0,.06,0,.03,0,.05.01.07.02.02,0,.03,0,.04,0l.02-.03v-.1ZM31.99,8.27s.02.01.03.01c.01,0,.02,0,.02,0,0,0,.02,0,.05.03l.06-.04-.02-.05s-.01-.01-.02-.03c0-.01-.02-.02-.02-.01,0,0,0,.01-.01.02,0,0-.01.01-.02.01,0,0-.03,0-.07-.02v.02s0,.04,0,.04ZM32.22,8.12l-.06-.02v.04s-.08-.02-.08-.02l-.05-.04.05-.09h.05s.07.03.07.03l.03.06v.04ZM32.06,8.72l.15.02.03-.11.2.04.13.12-.13.21h-.14l-.19-.06-.07-.14.02-.08ZM32.18,8.04h-.04s-.02,0-.04,0l-.04.04.03.03s.01,0,.02.01c.01,0,.02,0,.02,0v-.02s0-.01,0-.01c0,0,.02,0,.06-.01h0s-.01-.04-.01-.04ZM32.42,8.62l-.1-.06-.05.07-.13-.07-.06-.11.14-.12.1.04.12.08.02.11-.03.06ZM32.17,8.92h.09s.02,0,.04,0,.04,0,.06,0c.02,0,.03,0,.03,0l.08-.11-.06-.07s-.03-.02-.06-.03c-.02-.02-.03-.02-.03,0,0,.01,0,.02,0,.04,0,.02-.01.03-.02.03,0,0-.02,0-.05,0-.02,0-.04,0-.06,0-.02,0-.03,0-.03,0l-.02.04.04.08ZM32.39,8.46s-.02-.01-.04-.02c-.01,0-.02-.01-.03-.01,0,0-.03-.01-.07-.04l-.09.06.03.07s.02.02.03.03c.01.02.02.02.03.01,0,0,0-.02,0-.03s.01-.02.02-.02c.01,0,.05,0,.11.02v-.02s0-.06,0-.06ZM32.22,8.2l.08.02v-.06s.12.02.12.02l.07.06-.07.11h-.08s-.1-.03-.1-.03l-.04-.07.02-.05ZM32.41,8.16l-.05-.03-.03.04-.07-.04-.03-.06.08-.06.11.06v.06s0,.03,0,.03ZM32.27,8.31h.12s.04-.05.04-.05l-.04-.04s-.02-.01-.03-.02c-.01,0-.02,0-.02,0s0,.01,0,.02c0,.01,0,.02-.02.02,0,0-.03,0-.07.01v.02s0,.04,0,.04ZM32.39,8.07s-.01,0-.02-.01c0,0-.02,0-.02,0,0,0-.01,0-.03-.02l-.05.03.02.04s.01.01.02.02c0,0,.01,0,.01,0,0,0,0,0,0-.01,0,0,0-.01,0-.01,0,0,.02,0,.06.01h0s0-.04,0-.04ZM32.62,8.12h-.06s-.01.03-.01.03l-.08-.02-.05-.04.05-.09h.06s.07.03.07.03l.03.06v.03ZM33.02,9.29l-.17-.04-.03.13-.22-.05-.15-.13.15-.25h.15s.21.07.21.07l.1.16-.03.1ZM32.83,8.55l-.11-.02-.02.08-.15-.03-.1-.08.1-.16h.1s.14.05.14.05l.06.1-.02.06ZM32.58,8.04h-.08s-.03.03-.03.03l.03.03s.01,0,.02.01c0,0,.01,0,.01,0,0,0,0-.01,0-.02,0,0,0-.01,0-.01,0,0,.03,0,.06,0h0s-.02-.04-.02-.04ZM32.51,8.15l.07.04.03-.05.1.05.04.08-.1.08-.06-.03-.08-.05-.02-.08.03-.04ZM32.53,8.27s.01,0,.03.01c.01,0,.02,0,.02,0s.02,0,.05.02l.07-.04-.02-.05s-.01-.01-.02-.03c0-.01-.02-.02-.02-.01,0,0,0,.01-.01.02,0,0-.01.01-.02.01s-.03,0-.07-.01h-.01s.01.06.01.06ZM32.75,8.4s-.03,0-.07,0c0,0-.03,0-.08,0l-.07.08.06.06s.02,0,.04.02c.01.01.02.01.02,0,0,0,0-.02,0-.03,0-.01,0-.02.02-.03,0,0,.01,0,.03,0,.02,0,.03,0,.05,0,.01,0,.02,0,.02,0v-.02s-.02-.06-.02-.06ZM32.89,9.06s-.04,0-.06,0c-.03,0-.04,0-.05,0,0,0-.01,0-.03,0-.02,0-.04,0-.06-.01-.02,0-.03,0-.03,0l-.11.12.08.08s.02,0,.03.02c.01,0,.02.02.03.02.01,0,.02.01.03.01,0,0,.01,0,.01,0,0-.01,0-.03,0-.05,0-.02.01-.03.02-.04,0,0,.03,0,.06,0,.03,0,.06,0,.08,0,.02,0,.03,0,.03,0l.02-.04-.05-.08ZM32.61,8.61l.14.08.06-.09.18.09.09.15-.19.16-.12-.05-.15-.1-.04-.16.04-.08ZM32.67,9.39l.21.12.09-.15.27.15.14.24-.3.25-.2-.08-.24-.16-.05-.25.07-.12ZM32.81,8.16l-.05-.03-.02.04-.07-.04-.04-.06.08-.06.05.02.06.04.02.06-.02.03ZM32.65,8.84s.03.01.06.02c.02,0,.04.01.04.01,0,0,.01,0,.03.01.02,0,.03.02.04.02.01,0,.02.01.03.01l.12-.07-.04-.1s-.03-.02-.05-.05c-.02-.02-.03-.03-.03-.02,0,.01-.01.03-.02.04,0,.02-.02.02-.03.02s-.02,0-.04,0c-.02,0-.04,0-.06-.01s-.03,0-.03,0l-.03.02v.09ZM32.79,8.07s-.02,0-.03-.02c0,0-.02,0-.04-.02l-.05.03.02.04s.01.01.02.02,0,0,0,0c0,0,0,0,0-.01,0,0,0-.01.01-.01,0,0,.03,0,.06.02h0s-.02-.04-.02-.04ZM32.75,9.74s.05.02.08.03c.03.01.06.02.06.02,0,0,.02,0,.04.02.03.01.05.02.07.04.02.01.04.02.04.02l.19-.11-.07-.14s-.02-.02-.03-.03c-.01-.01-.02-.03-.03-.04-.01-.02-.02-.02-.03-.03s-.01,0-.02,0c0,.02-.02.04-.03.07-.02.03-.03.04-.05.04-.01,0-.03,0-.07-.01s-.07-.02-.1-.02c-.03,0-.04-.01-.05-.01l-.03.04.02.13ZM32.76,8.2l.08.02v-.06s.12.02.12.02l.07.06-.07.11h-.07s-.1-.03-.1-.03l-.04-.07.02-.05ZM32.81,8.31s.03,0,.06,0c0,0,.02,0,.06,0l.05-.06-.04-.04s-.01-.01-.02-.02c-.01,0-.02,0-.02,0s0,.01,0,.02c0,.01,0,.02-.01.02,0,0-.03,0-.07,0v.02s0,.04,0,.04ZM33.19,8.62l-.1-.06-.04.07-.13-.07-.07-.11.15-.12.1.04.12.07.02.12-.04.06ZM33.15,8.46s-.02-.01-.04-.02c-.02,0-.03-.01-.03-.01,0,0-.03-.01-.08-.04l-.09.06.03.06s.02.02.03.04c.01.02.02.02.02.01,0,0,0-.02.02-.03,0-.01.02-.02.02-.02s.04,0,.1.02l.02-.02v-.06ZM33.57,9.41l-.15-.09-.07.1-.2-.11-.1-.18.22-.18.15.06.18.12.04.18-.06.09ZM33.08,8.71l.15.02.02-.1.2.04.13.12-.13.21h-.14l-.19-.06-.08-.14.02-.09ZM33.52,9.14s-.04-.01-.06-.02c-.02,0-.04-.01-.04-.01,0,0-.01,0-.03-.01-.02,0-.04-.02-.06-.03-.02,0-.03-.01-.03-.02l-.14.08.06.1s.03.03.05.06c.02.03.03.03.03.02s0-.03.02-.05c.01-.02.02-.03.04-.03,0,0,.02,0,.05.01.02,0,.05.01.07.02.02,0,.03,0,.03,0l.03-.03-.02-.1ZM33.2,8.91s.03,0,.06,0c.02,0,.04,0,.04,0s.01,0,.03,0,.04,0,.05,0c.02,0,.03,0,.03,0l.09-.11-.07-.07s-.03-.02-.06-.03c-.02-.02-.03-.02-.03,0,0,.01,0,.03,0,.05s-.01.03-.02.03c0,0-.02,0-.05,0-.02,0-.04,0-.06,0s-.03,0-.03,0l-.02.04.04.07ZM33.42,9.54l.24.05.03-.17.31.06.2.18-.2.33h-.21s-.28-.09-.28-.09l-.12-.22.04-.14ZM33.59,9.85h.04s.03,0,.05,0c.02,0,.03,0,.04,0h.02s.02,0,.05,0c.03,0,.06,0,.08.01s.04,0,.04,0l.14-.17-.1-.11s-.02-.01-.04-.02c-.02-.01-.03-.02-.05-.03-.02,0-.03-.02-.04-.02-.01,0-.02,0-.02,0,0,.02,0,.04,0,.07,0,.03-.02.05-.04.05-.01,0-.03,0-.07.01-.04,0-.07,0-.1.01-.03,0-.04,0-.05,0l-.02.06.06.11Z" fill="#6c6967"/>
    </g>
  </g>
  <g id="Scree-4" data-name="Scree" isolation="isolate">
    <g isolation="isolate">
      <path d="M5.08,11.42l.21.12.09-.15.27.15.14.24-.29.25-.2-.08-.25-.16-.05-.24.08-.12ZM5.15,11.77s.05.02.08.03c.03.01.05.02.06.02,0,0,.02,0,.04.02.03.01.05.02.07.04s.03.02.04.02l.19-.12-.07-.14s-.02-.02-.03-.03-.03-.03-.04-.04-.02-.02-.03-.03c0,0-.01,0-.02,0,0,.02-.02.04-.03.07-.01.03-.03.04-.05.04-.01,0-.03,0-.07-.01-.04,0-.07-.02-.09-.02-.03,0-.04-.01-.05-.01l-.04.04.03.13ZM5.84,11.31l-.18-.03-.02.13-.23-.04-.15-.14.15-.25.16.02.21.06.09.16-.02.1ZM5.7,11.08s-.04,0-.07,0-.04,0-.05,0c0,0-.01,0-.04,0-.02,0-.04,0-.06-.01-.02,0-.03,0-.03,0l-.1.12.08.09s.02,0,.03.02c.01,0,.02.02.03.02.01,0,.02.01.03.02,0,0,.01,0,.01,0,0-.01,0-.03,0-.05s.01-.03.03-.04c0,0,.03,0,.05,0,.03,0,.05,0,.07,0,.02,0,.03,0,.04,0l.02-.04-.05-.08ZM5.58,10.64l.14.08.06-.1.18.1.09.15-.19.16-.13-.05-.16-.1-.03-.16.05-.08ZM5.63,10.87s.03.01.05.02c.02,0,.03.01.04.01,0,0,.01,0,.03.01.02,0,.03.02.05.03s.02.01.02.01l.12-.07-.04-.1s-.03-.03-.05-.05-.03-.03-.03-.02c0,.01-.01.03-.02.04,0,.02-.02.02-.03.02,0,0-.02,0-.05,0-.02,0-.04,0-.06-.01-.02,0-.03,0-.03,0l-.03.02.02.08ZM6.07,10.58l-.12-.02-.02.08-.14-.03-.1-.09.1-.16h.1s.14.05.14.05l.06.1v.06ZM5.99,10.42s-.03,0-.05,0-.03,0-.03,0c0,0-.03,0-.08,0l-.07.08.05.06s.02.01.04.02c.02.01.03.01.03,0,0,0,0-.02,0-.03,0-.01,0-.02.02-.03,0,0,.01,0,.03,0,.02,0,.03,0,.05,0s.02,0,.02,0v-.02s-.02-.06-.02-.06ZM5.82,11.57l.24.05.04-.17.3.06.2.18-.2.33h-.21s-.28-.09-.28-.09l-.12-.22.04-.14ZM6.39,11.43l-.16-.09-.07.11-.2-.11-.1-.18.22-.19.15.06.18.12.04.18-.05.09ZM5.99,11.88s.05,0,.09,0c.04,0,.06,0,.06,0,0,0,.02,0,.05,0,.03,0,.06,0,.08.01s.04,0,.04,0l.14-.17-.11-.11s-.02,0-.04-.02c-.02-.01-.03-.02-.05-.03s-.03-.02-.04-.02c-.01,0-.02,0-.02,0,0,.02,0,.04,0,.07,0,.03-.02.05-.03.05-.01,0-.03,0-.07.01-.04,0-.07,0-.1.01s-.04,0-.05,0l-.02.06.06.11ZM5.96,10.18l.08.04.03-.05.1.05.04.08-.1.08-.06-.03-.09-.05-.02-.08.02-.04ZM6.33,11.17s-.03-.01-.06-.02c-.02,0-.04-.01-.05-.01,0,0-.01,0-.03-.01-.02,0-.04-.02-.05-.03s-.02-.01-.03-.02l-.14.08.05.1s.02.01.03.03.02.02.03.03c0,.01.02.02.02.02,0,0,.01,0,.01,0,0-.02,0-.03.02-.05.01-.02.02-.03.04-.03,0,0,.03,0,.05,0s.05.01.07.02.03,0,.04,0l.02-.03-.02-.1ZM5.99,10.3s.01.01.03.01.02,0,.03,0c0,0,.02,0,.05.03l.06-.04-.02-.05s-.01-.01-.02-.03c0-.01-.02-.02-.02-.01,0,0,0,.01-.01.02,0,0-.01.01-.02.01s-.03,0-.07-.02v.02s0,.04,0,.04ZM6.22,10.15l-.06-.02v.04s-.08-.02-.08-.02l-.05-.04.05-.09h.05s.07.03.07.03l.03.06v.04ZM6.06,10.74l.15.02.03-.11.2.04.13.12-.13.21h-.14l-.18-.06-.08-.14.02-.08ZM6.18,10.06h-.04s-.02,0-.04,0l-.04.04.03.03s.01,0,.02.01c.01,0,.02,0,.02,0v-.02s0-.01,0-.01c0,0,.02,0,.06-.01h0s-.01-.04-.01-.04ZM6.42,10.65l-.1-.06-.05.07-.13-.07-.06-.11.14-.12.1.04.12.08.02.11-.04.06ZM6.17,10.94h.09s.02,0,.04,0c.02,0,.04,0,.06,0,.02,0,.02,0,.03,0l.08-.11-.06-.07s-.03-.02-.06-.03c-.02-.02-.04-.02-.04,0,0,.01,0,.02,0,.04,0,.02-.01.03-.02.03,0,0-.02,0-.05,0-.02,0-.04,0-.06,0-.02,0-.03,0-.03,0l-.02.04.04.08ZM6.39,10.48s-.02-.01-.04-.02c-.02,0-.02-.01-.03-.01s-.03-.01-.07-.04l-.09.06.03.07s.02.02.03.03c.01.02.02.02.03.01,0,0,0-.02,0-.03,0-.01.01-.02.02-.02.01,0,.05,0,.11.02v-.02s0-.06,0-.06ZM6.22,10.23l.08.02v-.06s.12.02.12.02l.07.06-.07.11h-.08s-.1-.03-.1-.03l-.04-.07.02-.05ZM6.41,10.18l-.05-.03-.03.04-.07-.04-.03-.06.08-.06.11.06v.06s0,.03,0,.03ZM6.27,10.34h.12s.04-.05.04-.05l-.04-.04s-.02-.01-.03-.02c-.01,0-.02,0-.02,0s0,.01,0,.02c0,.01,0,.02-.01.02,0,0-.03,0-.07.01v.02s.01.04.01.04ZM6.39,10.1s-.01,0-.02-.01c-.01,0-.02,0-.02,0,0,0-.02,0-.04-.02l-.05.03.02.04s.01.01.02.02.01,0,.01,0c0,0,0,0,0-.01,0,0,0-.01,0-.01,0,0,.02,0,.06.01h0s0-.04,0-.04ZM6.62,10.15h-.06s-.01.03-.01.03l-.08-.02-.05-.04.05-.09h.06s.07.03.07.03l.03.06v.03ZM7.02,11.32l-.17-.04-.03.13-.22-.05-.15-.13.15-.25h.16s.21.07.21.07l.1.16-.03.1ZM6.83,10.58l-.11-.02-.02.08-.15-.03-.1-.08.1-.16h.1s.14.05.14.05l.06.1-.02.06ZM6.58,10.07h-.08s-.04.03-.04.03l.03.03s.01,0,.02.01c0,0,.01,0,.01,0,0,0,0-.01,0-.02s0-.01,0-.01c0,0,.03,0,.06,0h0s-.02-.04-.02-.04ZM6.51,10.18l.07.04.03-.05.1.05.04.08-.1.08-.06-.03-.08-.05-.02-.08.03-.04ZM6.53,10.3s.01,0,.03.01.02,0,.03,0c0,0,.02,0,.05.02l.07-.04-.02-.05s-.01-.01-.02-.03c0-.01-.02-.02-.02-.01,0,0,0,.01-.01.02,0,0-.01.01-.02.01s-.03,0-.07-.01h-.01s0,.06,0,.06ZM6.75,10.43s-.03,0-.07,0c0,0-.03,0-.08,0l-.07.08.06.06s.02,0,.04.02c.02.01.02.01.02,0,0,0,0-.02,0-.03,0-.01.01-.02.02-.03,0,0,.01,0,.03,0,.02,0,.03,0,.05,0s.02,0,.03,0v-.02s-.02-.06-.02-.06ZM6.89,11.09s-.04,0-.06,0-.04,0-.04,0c0,0-.02,0-.04,0s-.04,0-.06-.01c-.02,0-.03,0-.03,0l-.11.12.08.08s.02,0,.03.02c.01,0,.02.02.03.02.01,0,.02.01.03.01,0,0,.01,0,.01,0,0-.01,0-.03,0-.05s.01-.03.02-.04c0,0,.03,0,.06,0,.03,0,.06,0,.08,0,.02,0,.03,0,.04,0l.02-.04-.05-.08ZM6.61,10.64l.14.08.06-.09.18.09.09.15-.19.16-.12-.05-.16-.1-.04-.16.05-.08ZM6.67,11.42l.21.12.09-.15.27.15.14.24-.3.25-.2-.08-.24-.16-.05-.25.07-.12ZM6.81,10.19l-.05-.03-.02.04-.07-.04-.04-.06.08-.06.05.02.06.04.02.06-.02.03ZM6.66,10.87s.03.01.05.02c.02,0,.04.01.04.01,0,0,.01,0,.03.01s.03.02.04.02.02.01.02.01l.12-.07-.04-.1s-.03-.02-.05-.05c-.02-.02-.03-.03-.03-.02,0,.01-.01.03-.02.04-.01.02-.02.02-.03.02,0,0-.02,0-.04,0-.02,0-.04,0-.06-.01-.02,0-.03,0-.03,0l-.03.02.02.09ZM6.8,10.1s-.02,0-.04-.02c0,0-.02,0-.04-.02l-.05.03.02.04s.01.01.02.02.01,0,.01,0c0,0,0,0,0-.01,0,0,0-.01.01-.01,0,0,.02,0,.06.02h0s0-.04,0-.04ZM6.75,11.77s.05.02.08.03c.03.01.06.02.06.02,0,0,.02,0,.04.02.03.01.05.02.07.04.02.01.03.02.04.02l.19-.11-.07-.14s-.02-.02-.03-.03c-.01-.01-.02-.03-.04-.04-.01-.02-.02-.02-.03-.03,0,0-.01,0-.02,0,0,.02-.02.04-.03.07s-.03.04-.05.04c-.01,0-.03,0-.07-.01-.04,0-.07-.02-.1-.02-.03,0-.04-.01-.05-.01l-.04.04.02.13ZM6.76,10.23l.08.02v-.06s.12.02.12.02l.07.06-.07.11h-.07s-.1-.03-.1-.03l-.04-.07.02-.05ZM6.82,10.34s.03,0,.06,0c0,0,.02,0,.06,0l.05-.06-.04-.04s-.01-.01-.03-.02-.02,0-.02,0,0,.01,0,.02c0,.01,0,.02-.01.02,0,0-.03,0-.08,0v.02s.01.04.01.04ZM7.19,10.65l-.1-.06-.04.07-.13-.07-.07-.11.14-.12.1.04.12.07.02.12-.03.06ZM7.15,10.49s-.02-.01-.04-.02c-.02,0-.03-.01-.03-.01,0,0-.03-.01-.08-.04l-.09.06.03.06s.02.02.03.04c.01.02.02.02.02.01,0,0,0-.02.02-.03s.02-.02.02-.02.04,0,.1.02l.02-.02v-.06ZM7.57,11.44l-.16-.09-.07.1-.2-.11-.1-.18.22-.18.15.06.18.12.04.18-.06.09ZM7.08,10.74l.16.02.02-.1.2.04.13.12-.13.21h-.14l-.18-.06-.08-.14.02-.09ZM7.52,11.17s-.04-.01-.06-.02c-.02,0-.04-.01-.04-.01,0,0-.01,0-.03-.01s-.04-.02-.06-.03c-.02,0-.03-.01-.03-.02l-.14.08.06.1s.03.03.05.06c.02.03.03.03.03.02,0-.01.01-.03.02-.05s.02-.03.04-.03c0,0,.02,0,.05.01.03,0,.05.01.07.02s.03,0,.04,0l.03-.03-.02-.1ZM7.2,10.94s.03,0,.06,0c.02,0,.04,0,.04,0,0,0,.01,0,.03,0s.04,0,.05,0c.02,0,.02,0,.03,0l.09-.11-.07-.07s-.03-.02-.05-.03-.03-.02-.03,0c0,.01,0,.03,0,.05,0,.02-.01.03-.02.03,0,0-.02,0-.05,0-.02,0-.05,0-.06,0s-.03,0-.03,0l-.02.04.04.07ZM7.42,11.57l.24.05.04-.17.31.06.2.18-.2.33h-.21s-.28-.09-.28-.09l-.12-.22.04-.14ZM7.59,11.88h.04s.03,0,.05,0c.02,0,.03,0,.04,0h.02s.02,0,.05,0,.06,0,.08.01.04,0,.04,0l.14-.17-.1-.11s-.02-.01-.04-.02c-.02-.01-.03-.02-.05-.03-.02,0-.03-.02-.04-.02-.01,0-.02,0-.02,0,0,.02,0,.04,0,.07,0,.03-.02.05-.04.05-.01,0-.03,0-.07.01-.04,0-.07,0-.1.01s-.05,0-.05,0l-.02.06.06.11Z" fill="#6c6967"/>
    </g>
  </g>
  <g id="Scree-5" data-name="Scree" isolation="isolate">
    <g isolation="isolate">
      <path d="M.08,21.29l.21.12.09-.15.27.15.14.24-.29.25-.2-.08-.25-.16-.05-.24.08-.12ZM.15,21.64s.05.01.08.03.06.02.06.02c0,0,.02,0,.04.02.03.01.05.02.07.04s.03.02.04.02l.19-.12-.07-.14s-.02-.02-.03-.03c-.01-.01-.03-.03-.04-.04s-.02-.02-.03-.03c0,0-.01,0-.02,0,0,.02-.02.04-.03.07-.02.03-.03.04-.05.04-.01,0-.03,0-.07-.01s-.07-.02-.09-.02c-.03,0-.04-.01-.05-.01l-.04.04.03.13ZM.84,21.19l-.18-.03-.02.13-.23-.04-.15-.14.15-.25.16.02.21.06.09.16-.02.1ZM.7,20.96s-.04,0-.07,0c-.03,0-.04,0-.05,0,0,0-.02,0-.04,0-.02,0-.04,0-.06-.01s-.03,0-.03,0l-.1.12.08.09s.02,0,.03.02c.01,0,.02.02.03.02.01,0,.02.01.03.02,0,0,.01,0,.01,0,0-.01,0-.03,0-.05s.01-.03.03-.04c0,0,.03,0,.05,0,.03,0,.05,0,.07,0,.02,0,.03,0,.04,0l.02-.04-.05-.08ZM.58,20.52l.14.08.06-.1.18.1.09.15-.19.16-.13-.05-.16-.1-.03-.16.05-.08ZM.63,20.74s.03.01.05.02c.02,0,.04.01.04.01,0,0,.01,0,.03.01.02,0,.03.02.05.03.01,0,.02.01.02.01l.12-.07-.04-.1s-.03-.03-.05-.05-.03-.03-.03-.02c0,.01-.01.03-.02.04s-.02.02-.03.02c0,0-.02,0-.05,0-.02,0-.04,0-.06-.01s-.03,0-.03,0l-.03.02.02.08ZM1.07,20.45l-.12-.02-.02.08-.14-.03-.1-.09.1-.16h.1s.14.05.14.05l.06.1v.06ZM.99,20.3s-.03,0-.05,0-.03,0-.03,0c0,0-.03,0-.08,0l-.07.08.05.06s.03.01.04.02c.02.01.03.01.03,0,0,0,0-.01,0-.03,0-.01,0-.02.02-.03,0,0,.01,0,.03,0,.02,0,.03,0,.05,0s.02,0,.02,0v-.02s-.02-.06-.02-.06ZM.82,21.45l.24.05.04-.17.3.06.2.18-.2.33h-.21s-.28-.09-.28-.09l-.12-.22.04-.14ZM1.39,21.31l-.16-.09-.07.11-.2-.11-.1-.18.22-.19.15.06.18.12.04.18-.05.09ZM.99,21.76s.05,0,.09,0c.04,0,.06,0,.06,0,0,0,.02,0,.05,0,.03,0,.06,0,.08.01s.04,0,.04,0l.14-.17-.11-.11s-.02,0-.04-.02-.03-.02-.05-.03-.03-.02-.04-.02-.02,0-.02,0c0,.02,0,.04,0,.07,0,.03-.02.05-.03.05-.01,0-.04,0-.07.01-.04,0-.07,0-.1.01s-.04,0-.05,0l-.02.06.06.11ZM.96,20.05l.08.04.03-.05.1.05.04.08-.1.08-.06-.03-.09-.05-.02-.08.02-.04ZM1.33,21.04s-.03-.01-.06-.02c-.03,0-.04-.01-.05-.01,0,0-.01,0-.03-.01-.02,0-.04-.02-.05-.03-.02,0-.03-.01-.03-.02l-.14.08.05.1s.02.01.03.03.02.02.03.03c0,.01.02.02.02.02,0,0,.01,0,.01,0,0-.02,0-.03.02-.05s.02-.03.04-.03c0,0,.03,0,.05,0,.03,0,.05.01.07.02s.03,0,.04,0l.02-.03-.02-.1ZM.99,20.17s.01.01.03.01.02,0,.03,0c0,0,.02,0,.05.03l.06-.04-.02-.05s-.01-.01-.02-.03-.02-.02-.02-.01c0,0,0,.01-.01.02,0,0-.01.01-.02.01s-.03,0-.07-.02v.02s0,.04,0,.04ZM1.22,20.02l-.06-.02v.04s-.08-.02-.08-.02l-.05-.04.05-.09h.05s.07.03.07.03l.03.06v.04ZM1.06,20.62l.15.02.03-.11.2.04.13.12-.13.21h-.14l-.18-.06-.08-.14.02-.08ZM1.18,19.94h-.04s-.02,0-.04,0l-.04.04.03.03s.01,0,.02.01.02,0,.02,0v-.02s0-.01,0-.01c0,0,.02,0,.06-.01h0s-.01-.04-.01-.04ZM1.42,20.52l-.1-.06-.05.07-.13-.07-.06-.11.14-.12.1.04.12.08.02.11-.04.06ZM1.17,20.82h.09s.02,0,.04,0,.04,0,.06,0c.02,0,.03,0,.03,0l.08-.11-.06-.07s-.03-.02-.06-.03c-.02-.01-.04-.02-.04,0,0,.01,0,.02,0,.04,0,.02-.01.03-.02.03,0,0-.02,0-.05,0-.02,0-.04,0-.06,0-.02,0-.03,0-.03,0l-.02.04.04.08ZM1.39,20.36s-.02-.01-.04-.02c-.02,0-.03-.01-.03-.01s-.03-.01-.07-.04l-.09.06.03.07s.02.02.03.03c.01.02.02.02.03.01,0,0,0-.02,0-.03,0-.01.01-.02.02-.02.01,0,.05,0,.11.02v-.02s0-.06,0-.06ZM1.22,20.11l.08.02v-.06s.12.02.12.02l.07.06-.07.11h-.08s-.1-.03-.1-.03l-.04-.07.02-.05ZM1.41,20.06l-.05-.03-.03.04-.07-.04-.03-.06.08-.06.11.06v.06s0,.03,0,.03ZM1.27,20.21h.12s.04-.05.04-.05l-.04-.04s-.02-.01-.03-.02c-.01,0-.02,0-.02,0s0,.01,0,.02c0,.01,0,.02-.01.02,0,0-.03,0-.07.01v.02s.01.04.01.04ZM1.39,19.97s-.01,0-.02-.01c0,0-.02,0-.02,0,0,0-.02,0-.04-.02l-.05.03.02.04s.01.01.02.02c0,0,.01,0,.01,0,0,0,0,0,0-.01,0,0,0-.01,0-.01,0,0,.03,0,.06.01h0s0-.04,0-.04ZM1.62,20.02h-.06s-.01.03-.01.03l-.08-.02-.05-.04.05-.09h.06s.07.03.07.03l.03.06v.03ZM2.02,21.19l-.17-.04-.03.13-.22-.05-.15-.13.15-.25h.16s.21.07.21.07l.1.16-.03.1ZM1.83,20.45l-.11-.02-.02.08-.15-.03-.1-.08.1-.16h.1s.14.05.14.05l.06.1-.02.06ZM1.58,19.94h-.08s-.04.03-.04.03l.03.03s.01,0,.02.01c0,0,.01,0,.01,0,0,0,0-.01,0-.02s0-.01,0-.01c0,0,.03,0,.06,0h0s-.02-.04-.02-.04ZM1.51,20.05l.07.04.03-.05.1.05.04.08-.1.08-.06-.03-.08-.05-.02-.08.03-.04ZM1.53,20.17s.01,0,.03.01.02,0,.03,0c0,0,.02,0,.05.02l.07-.04-.02-.05s-.01-.01-.02-.03-.02-.02-.02-.01c0,0,0,.01-.01.02,0,0-.01.01-.02.01s-.03,0-.07-.01h-.01s0,.06,0,.06ZM1.75,20.3s-.03,0-.07,0c0,0-.03,0-.08,0l-.07.08.06.06s.02,0,.04.02.02.01.02,0c0,0,0-.01,0-.03,0-.01,0-.02.02-.03,0,0,.01,0,.03,0,.02,0,.03,0,.05,0,.01,0,.02,0,.03,0v-.02s-.02-.06-.02-.06ZM1.89,20.96s-.04,0-.06,0-.04,0-.04,0c0,0-.01,0-.04,0s-.04,0-.06-.01-.03,0-.03,0l-.11.12.08.08s.02,0,.03.02c.01,0,.02.02.03.02.01,0,.02.01.03.01s.01,0,.01,0c0-.01,0-.03,0-.05s.01-.03.02-.04c0,0,.03,0,.06,0,.03,0,.05,0,.08,0,.02,0,.03,0,.04,0l.02-.04-.05-.08ZM1.61,20.51l.14.08.06-.09.18.09.09.15-.19.16-.12-.05-.16-.1-.04-.16.05-.08ZM1.67,21.29l.21.12.09-.15.27.15.14.24-.3.25-.2-.08-.24-.16-.05-.25.07-.12ZM1.81,20.06l-.05-.03-.02.04-.07-.04-.04-.06.08-.06.05.02.06.04.02.06-.02.03ZM1.66,20.74s.03.01.05.02c.02,0,.04.01.04.01,0,0,.01,0,.03.01s.03.02.04.02.02.01.02.01l.12-.07-.04-.1s-.03-.02-.05-.05c-.02-.02-.03-.03-.03-.02,0,.01-.01.03-.02.04-.01.01-.02.02-.03.02,0,0-.02,0-.04,0s-.04,0-.06-.01c-.02,0-.03,0-.03,0l-.03.02.02.09ZM1.8,19.97s-.02,0-.04-.02c0,0-.02,0-.04-.02l-.05.03.02.04s.01.01.02.02c0,0,.01,0,.01,0,0,0,0,0,0-.01,0,0,0-.01.01-.01,0,0,.03,0,.06.02h0s0-.04,0-.04ZM1.75,21.64s.05.01.08.03c.03.01.05.02.06.02,0,0,.02,0,.04.02.03.01.05.02.07.04.02.01.03.02.04.02l.19-.11-.07-.14s-.02-.02-.03-.03c-.01-.01-.02-.03-.04-.04-.01-.01-.02-.02-.03-.03,0,0-.01,0-.02,0,0,.02-.02.04-.03.07-.02.03-.03.04-.05.04-.01,0-.03,0-.07-.01-.04,0-.07-.02-.1-.02-.03,0-.04-.01-.05-.01l-.04.04.02.13ZM1.76,20.11l.08.02v-.06s.12.02.12.02l.07.06-.07.11h-.07s-.1-.03-.1-.03l-.04-.07.02-.05ZM1.82,20.21s.03,0,.06,0c0,0,.02,0,.06,0l.05-.06-.04-.04s-.01-.01-.03-.02c-.01,0-.02,0-.02,0s0,.01,0,.02c0,.01,0,.02-.01.02,0,0-.03,0-.08,0v.02s.01.04.01.04ZM2.19,20.53l-.1-.06-.04.07-.13-.07-.07-.11.14-.12.1.04.12.07.02.12-.03.06ZM2.15,20.36s-.02-.01-.04-.02c-.02,0-.03-.01-.03-.01,0,0-.03-.01-.08-.04l-.09.06.03.06s.02.02.03.04c.01.02.02.02.02.01,0,0,0-.01.02-.03s.02-.02.02-.02.04,0,.1.02l.02-.02v-.06ZM2.57,21.31l-.16-.09-.07.1-.2-.11-.1-.18.22-.18.15.06.18.12.04.18-.06.09ZM2.08,20.61l.16.02.02-.1.2.04.13.12-.13.21h-.14l-.18-.06-.08-.14.02-.09ZM2.52,21.05s-.04-.01-.06-.02c-.02,0-.04-.01-.04-.01,0,0-.01,0-.03-.01s-.04-.02-.06-.03c-.02,0-.03-.01-.03-.02l-.14.08.06.1s.03.03.05.06c.02.03.03.03.03.02,0-.01.01-.03.02-.05.01-.02.02-.03.04-.03,0,0,.03,0,.05.01.03,0,.05.01.07.02s.03,0,.04,0l.03-.03-.02-.1ZM2.2,20.81s.03,0,.06,0c.02,0,.04,0,.04,0,0,0,.01,0,.03,0s.04,0,.05,0c.02,0,.03,0,.03,0l.09-.11-.07-.07s-.03-.02-.05-.03c-.02-.02-.03-.02-.03,0,0,.01,0,.03,0,.05s-.01.03-.02.03c0,0-.02,0-.05,0-.02,0-.05,0-.06,0s-.03,0-.03,0l-.02.04.04.07ZM2.42,21.44l.24.05.04-.17.31.06.2.18-.2.33h-.21s-.28-.09-.28-.09l-.12-.22.04-.14ZM2.59,21.75h.04s.03,0,.05,0c.02,0,.03,0,.04,0h.02s.02,0,.05,0,.06,0,.08.01.04,0,.04,0l.14-.17-.1-.11s-.02-.01-.04-.02c-.02-.01-.03-.02-.05-.03s-.03-.02-.04-.02c-.01,0-.02,0-.02,0,0,.02,0,.04,0,.07,0,.03-.02.05-.04.05-.01,0-.03,0-.07.01-.04,0-.07,0-.1.01-.03,0-.05,0-.05,0l-.02.06.06.11Z" fill="#6c6967"/>
    </g>
  </g>
  <g id="Scree-6" data-name="Scree" isolation="isolate">
    <g isolation="isolate">
      <path d="M5.08,34.42l.21.12.09-.15.27.15.14.23-.29.25-.2-.08-.25-.16-.05-.24.08-.12ZM5.15,34.77s.05.02.08.03c.03.01.05.02.06.02,0,0,.02,0,.04.02.03.01.05.03.07.04.02.01.03.02.04.02l.19-.11-.07-.14s-.02-.02-.03-.03c-.01-.02-.03-.03-.04-.05-.01-.01-.02-.02-.03-.03,0,0-.01,0-.02,0,0,.02-.02.04-.03.07-.01.03-.03.04-.05.04-.01,0-.03,0-.07-.01-.04,0-.07-.02-.09-.02s-.04-.01-.05-.01l-.04.04.03.13ZM5.84,34.31l-.18-.03-.02.13-.23-.04-.15-.14.15-.25.16.02.21.06.09.16-.02.1ZM5.7,34.09s-.04,0-.07,0-.04,0-.05,0c0,0-.01,0-.04,0-.02,0-.04,0-.06-.01-.02,0-.03,0-.03,0l-.1.12.08.09s.02,0,.03.02c.01,0,.02.02.03.02.01,0,.02.01.03.02,0,0,.01,0,.01,0,0,0,0-.03,0-.05,0-.02.01-.03.03-.04,0,0,.03,0,.05,0,.03,0,.05,0,.07,0s.03,0,.04,0l.02-.04-.05-.08ZM5.58,33.65l.14.08.06-.1.18.1.09.15-.19.17-.13-.05-.16-.1-.03-.16.05-.08ZM5.63,33.87s.03.01.05.02.03.01.04.01c0,0,.01,0,.03.01.02.01.03.02.05.02.01,0,.02.01.02.01l.12-.07-.04-.1s-.03-.03-.05-.05-.03-.03-.03-.02c0,.01-.01.03-.02.04,0,.01-.02.02-.03.02,0,0-.02,0-.05,0-.02,0-.04,0-.06-.01-.02,0-.03,0-.03,0l-.03.03.02.09ZM6.07,33.58l-.12-.02-.02.08-.14-.03-.1-.09.1-.16h.1s.14.05.14.05l.06.1v.06ZM5.99,33.43s-.03,0-.05,0c-.02,0-.03,0-.03,0,0,0-.03,0-.08,0l-.07.08.05.06s.02.01.04.02c.02.01.03.01.03,0,0,0,0-.02,0-.03,0-.01,0-.02.02-.03,0,0,.01,0,.03,0s.03,0,.05,0c.01,0,.02,0,.02,0v-.02s-.02-.06-.02-.06ZM5.82,34.58l.24.05.04-.17.3.06.2.18-.2.33h-.21s-.28-.09-.28-.09l-.12-.22.04-.14ZM6.39,34.44l-.16-.09-.07.11-.2-.11-.1-.18.22-.19.15.06.18.12.04.18-.05.08ZM5.99,34.89s.05,0,.09,0,.06,0,.06,0c0,0,.02,0,.05,0,.03,0,.06,0,.08.01.02,0,.04,0,.04,0l.14-.17-.11-.11s-.02,0-.04-.02-.03-.02-.05-.03c-.02,0-.03-.02-.04-.02-.01,0-.02,0-.02,0,0,.02,0,.04,0,.07,0,.03-.02.05-.03.05-.01,0-.03,0-.07.01-.04,0-.07,0-.1.01-.03,0-.04,0-.05,0l-.02.05.06.11ZM5.96,33.18l.08.04.03-.05.1.05.04.08-.1.08-.06-.03-.09-.05-.02-.08.02-.04ZM6.33,34.17s-.03-.01-.06-.02c-.02,0-.04-.01-.05-.01,0,0-.01,0-.03-.01-.02,0-.04-.02-.05-.03-.02,0-.02-.01-.03-.02l-.14.08.05.1s.02.01.03.03.02.02.03.03c0,.01.02.02.02.02,0,0,.01,0,.01,0,0-.02,0-.03.02-.05.01-.02.02-.03.04-.03,0,0,.03,0,.05,0,.03,0,.05.01.07.02.02,0,.03,0,.04,0l.02-.03-.02-.1ZM5.99,33.3s.01.01.03.02c.01,0,.02,0,.03,0,0,0,.02,0,.05.03l.06-.04-.02-.05s-.01-.01-.02-.02c0-.01-.02-.02-.02,0,0,0,0,.01-.01.02s-.01.01-.02.01-.03,0-.07-.02v.02s0,.04,0,.04ZM6.22,33.15l-.06-.02v.04s-.08-.02-.08-.02l-.05-.04.05-.09h.05s.07.03.07.03l.03.06v.03ZM6.06,33.75l.15.02.03-.11.2.04.13.12-.13.21h-.14l-.18-.06-.08-.14.02-.08ZM6.18,33.07h-.04s-.02,0-.04,0l-.04.04.03.03s.01,0,.02.02c.01,0,.02,0,.02,0v-.02s0-.01,0-.01c0,0,.02,0,.06-.01h0s-.01-.04-.01-.04ZM6.42,33.65l-.1-.06-.05.07-.13-.07-.06-.11.14-.12.1.04.12.08.02.11-.04.06ZM6.17,33.95h.09s.02,0,.04,0c.02,0,.04,0,.06,0s.02,0,.03,0l.08-.11-.06-.07s-.03-.02-.06-.03c-.02-.02-.04-.02-.04,0,0,.01,0,.02,0,.04s-.01.03-.02.03c0,0-.02,0-.05,0s-.04,0-.06,0c-.02,0-.03,0-.03,0l-.02.03.04.08ZM6.39,33.49s-.02-.01-.04-.02c-.02,0-.02,0-.03,0s-.03-.01-.07-.04l-.09.06.03.07s.02.02.03.03c.01.02.02.02.03.01,0,0,0-.02,0-.03,0-.01.01-.02.02-.02.01,0,.05,0,.11.02v-.02s0-.06,0-.06ZM6.22,33.24l.08.02v-.06s.12.02.12.02l.07.06-.07.11h-.08s-.1-.03-.1-.03l-.04-.07.02-.05ZM6.41,33.19l-.05-.03-.03.04-.07-.04-.03-.06.08-.06.11.06v.06s0,.03,0,.03ZM6.27,33.34h.12s.04-.05.04-.05l-.04-.04s-.02-.01-.03-.02c-.01,0-.02,0-.02,0s0,.01,0,.02c0,.01,0,.02-.01.02,0,0-.03,0-.07.01v.02s.01.04.01.04ZM6.39,33.1s-.01,0-.02-.01c-.01,0-.02,0-.02,0,0,0-.02,0-.04-.02l-.05.03.02.03s.01.01.02.02c0,0,.01,0,.01,0,0,0,0,0,0-.01,0,0,0-.01,0-.01,0,0,.02,0,.06.01h0s0-.04,0-.04ZM6.62,33.15h-.06s-.01.03-.01.03l-.08-.02-.05-.04.05-.09h.06s.07.03.07.03l.03.06v.03ZM7.02,34.32l-.17-.03-.03.13-.22-.05-.15-.13.15-.25h.16s.21.07.21.07l.1.16-.03.1ZM6.83,33.58l-.11-.02-.02.08-.15-.03-.1-.08.1-.16h.1s.14.05.14.05l.06.1-.02.06ZM6.58,33.07h-.08s-.04.03-.04.03l.03.03s.01,0,.02.01.01,0,.01,0c0,0,0-.01,0-.02,0,0,0-.01,0-.01,0,0,.03,0,.06,0h0s-.02-.04-.02-.04ZM6.51,33.18l.07.04.03-.05.1.05.04.08-.1.08-.06-.03-.08-.05-.02-.08.03-.04ZM6.53,33.3s.01,0,.03.01c.01,0,.02,0,.03,0,0,0,.02,0,.05.02l.07-.04-.02-.05s-.01-.01-.02-.02c0-.01-.02-.02-.02,0,0,0,0,.01-.01.02s-.01.01-.02.01-.03,0-.07-.01h-.01s0,.06,0,.06ZM6.75,33.43s-.03,0-.07,0c0,0-.03,0-.08,0l-.07.08.06.06s.02,0,.04.02.02.01.02,0c0,0,0-.02,0-.03s.01-.02.02-.02c0,0,.01,0,.03,0,.02,0,.03,0,.05,0,.02,0,.02,0,.03,0v-.02s-.02-.06-.02-.06ZM6.89,34.09s-.04,0-.06,0-.04,0-.04,0c0,0-.02,0-.04,0s-.04,0-.06-.01c-.02,0-.03,0-.03,0l-.11.12.08.08s.02,0,.03.02c.01,0,.02.02.03.02.01,0,.02.01.03.01,0,0,.01,0,.01,0,0,0,0-.03,0-.05,0-.02.01-.03.02-.04,0,0,.03,0,.06,0,.03,0,.06,0,.08,0s.03,0,.04,0l.02-.04-.05-.08ZM6.61,33.64l.14.08.06-.09.18.09.09.15-.19.16-.12-.05-.16-.1-.04-.16.05-.07ZM6.67,34.42l.21.12.09-.15.27.15.14.24-.3.25-.2-.08-.24-.16-.05-.25.07-.12ZM6.81,33.19l-.05-.03-.02.04-.07-.04-.04-.06.08-.06.05.02.06.04.02.06-.02.03ZM6.66,33.87s.03.01.05.02c.02,0,.04.01.04.01,0,0,.01,0,.03.01s.03.02.04.02c.01,0,.02.01.02.01l.12-.07-.04-.1s-.03-.02-.05-.05c-.02-.02-.03-.03-.03-.02,0,.01-.01.03-.02.04-.01.01-.02.02-.03.02,0,0-.02,0-.04,0-.02,0-.04,0-.06-.01-.02,0-.03,0-.03,0l-.03.02.02.09ZM6.8,33.11s-.02,0-.04-.02c0,0-.02,0-.04-.02l-.05.03.02.03s.01.01.02.02c0,0,.01,0,.01,0,0,0,0,0,0-.01,0,0,0-.01.01-.01,0,0,.02,0,.06.02h0s0-.04,0-.04ZM6.75,34.77s.05.01.08.03c.03.01.06.02.06.02,0,0,.02,0,.04.02.03.01.05.03.07.04.02.01.03.02.04.02l.19-.11-.07-.14s-.02-.02-.03-.03c-.01-.02-.02-.03-.04-.04-.01-.01-.02-.02-.03-.03,0,0-.01,0-.02,0,0,.02-.02.04-.03.07s-.03.04-.05.04c-.01,0-.03,0-.07-.01-.04,0-.07-.02-.1-.02-.03,0-.04,0-.05,0l-.04.04.02.13ZM6.76,33.24l.08.02v-.06s.12.02.12.02l.07.06-.07.11h-.07s-.1-.03-.1-.03l-.04-.07.02-.05ZM6.82,33.34s.03,0,.06,0c0,0,.02,0,.06,0l.05-.06-.04-.04s-.01-.01-.03-.02c-.01,0-.02,0-.02,0s0,.01,0,.02c0,.01,0,.02-.01.02,0,0-.03,0-.08,0v.02s.01.04.01.04ZM7.19,33.65l-.1-.06-.04.07-.13-.07-.07-.11.14-.12.1.04.12.07.02.12-.03.05ZM7.15,33.49s-.02-.01-.04-.02c-.02,0-.03-.01-.03-.01,0,0-.03-.01-.08-.04l-.09.06.03.06s.02.02.03.04c.01.02.02.02.02.01,0,0,0-.01.02-.03,0-.01.02-.02.02-.02s.04,0,.1.02l.02-.02v-.06ZM7.57,34.44l-.16-.09-.07.11-.2-.11-.1-.18.22-.19.15.06.18.12.04.19-.06.09ZM7.08,33.74l.16.02.02-.1.2.03.13.12-.13.21h-.14l-.18-.06-.08-.14.02-.09ZM7.52,34.18s-.04-.01-.06-.02c-.02,0-.04-.01-.04-.01,0,0-.01,0-.03-.01-.02,0-.04-.02-.06-.03-.02,0-.03-.01-.03-.02l-.14.08.06.1s.03.03.05.06c.02.02.03.03.03.02,0-.01.01-.03.02-.05.01-.02.02-.03.04-.03,0,0,.02,0,.05,0,.03,0,.05.01.07.02s.03,0,.04,0l.03-.03-.02-.1ZM7.2,33.94s.03,0,.06,0c.02,0,.04,0,.04,0,0,0,.01,0,.03,0,.02,0,.04,0,.05,0,.02,0,.02,0,.03,0l.09-.11-.07-.07s-.03-.02-.05-.03c-.02-.02-.03-.02-.03,0s0,.03,0,.05-.01.03-.02.03c0,0-.02,0-.05,0s-.05,0-.06,0-.03,0-.03,0l-.02.04.05.07ZM7.42,34.57l.24.05.04-.17.31.06.2.18-.2.33h-.21s-.28-.09-.28-.09l-.12-.22.04-.14ZM7.59,34.88h.04s.03,0,.05,0c.02,0,.03,0,.04,0h.02s.02,0,.05,0,.06,0,.08.01.04,0,.04,0l.14-.17-.1-.11s-.02,0-.04-.02-.03-.02-.05-.03c-.02,0-.03-.02-.04-.02-.01,0-.02,0-.02,0,0,.02,0,.04,0,.07s-.02.05-.04.06c-.01,0-.03,0-.07,0-.04,0-.07,0-.1.01-.03,0-.05,0-.05,0l-.02.06.06.11Z" fill="#6c6967"/>
    </g>
  </g>
  <g id="Scree-7" data-name="Scree" isolation="isolate">
    <g isolation="isolate">
      <path d="M22.08,32.39l.21.12.09-.15.27.15.14.24-.29.25-.2-.08-.25-.16-.05-.24.08-.12ZM22.15,32.74s.05.01.08.03c.03.01.06.02.06.02,0,0,.02,0,.04.02.03.01.05.03.07.04.02,0,.03.02.04.02l.19-.12-.07-.14s-.02-.02-.03-.03c-.01-.01-.03-.03-.04-.04s-.02-.02-.03-.03c0,0-.01,0-.02,0,0,.02-.02.04-.03.07-.01.03-.03.04-.05.04-.01,0-.03,0-.07-.01s-.07-.02-.09-.02-.04-.01-.05-.01l-.04.05.03.12ZM22.84,32.28l-.18-.03-.02.13-.23-.04-.15-.14.15-.25.16.02.21.06.09.16-.02.09ZM22.7,32.06s-.04,0-.07,0c-.03,0-.04,0-.05,0,0,0-.01,0-.04,0-.02,0-.04,0-.06-.01-.02,0-.03,0-.03,0l-.1.12.08.09s.02,0,.03.02.02.01.03.02c.01,0,.02.01.03.02,0,0,.01,0,.01,0,0-.01,0-.03,0-.05s.01-.03.03-.04c0,0,.02,0,.05,0,.03,0,.05,0,.07,0,.02,0,.03,0,.04,0l.02-.04-.05-.08ZM22.58,31.62l.14.07.06-.1.18.1.09.15-.19.16-.13-.05-.16-.1-.03-.16.05-.07ZM22.63,31.84s.03.01.05.02c.02,0,.03.01.04.01,0,0,.01,0,.03.02.02,0,.03.02.05.02.01,0,.02.01.02.01l.12-.07-.04-.1s-.03-.02-.05-.05c-.02-.02-.03-.03-.03-.02,0,.01-.01.03-.02.04,0,.02-.02.02-.03.02,0,0-.02,0-.05,0-.02,0-.04,0-.06-.01-.02,0-.03,0-.03,0l-.03.02.02.09ZM23.07,31.55l-.12-.02-.02.08-.14-.03-.1-.09.1-.16h.1s.14.05.14.05l.06.1v.06ZM22.99,31.4s-.03,0-.05,0c-.02,0-.03,0-.03,0,0,0-.03,0-.08,0l-.07.08.05.06s.02.01.04.02c.02.01.03.01.03,0,0,0,0-.02,0-.03,0-.02,0-.02.02-.02,0,0,.01,0,.03,0,.02,0,.03,0,.05-.01.01,0,.02,0,.02,0v-.02s-.02-.06-.02-.06ZM22.82,32.54l.24.05.04-.17.31.06.2.18-.2.33h-.21s-.28-.09-.28-.09l-.12-.22.04-.14ZM23.39,32.4l-.16-.09-.07.11-.2-.11-.1-.18.22-.19.15.06.18.12.03.18-.05.09ZM22.99,32.86s.05,0,.09,0,.06,0,.06,0c0,0,.02,0,.05,0,.03,0,.06,0,.08.01.02,0,.04,0,.05,0l.14-.17-.11-.11s-.02-.01-.04-.02c-.02,0-.03-.02-.05-.03-.02,0-.03-.02-.04-.02-.01,0-.02,0-.02,0,0,.02,0,.04,0,.07,0,.03-.02.05-.03.06-.01,0-.03,0-.07,0-.04,0-.07,0-.1.01-.03,0-.04,0-.05,0l-.02.06.06.1ZM22.96,31.15l.08.04.03-.05.1.05.04.08-.1.08-.06-.03-.09-.05-.02-.08.02-.04ZM23.33,32.14s-.03-.01-.06-.02c-.02-.01-.04-.01-.05-.01,0,0-.02,0-.03-.01-.02,0-.04-.02-.06-.03-.02,0-.02-.01-.03-.02l-.14.08.05.1s.02.02.03.03c0,.01.02.02.03.03s.02.02.02.02c0,0,.01,0,.01,0,0-.02,0-.03.02-.05.01-.02.02-.03.04-.03,0,0,.02,0,.05,0s.06.01.07.02c.02,0,.03,0,.03,0l.02-.03-.02-.09ZM22.99,31.27s.01,0,.03.01.02,0,.03,0c0,0,.02,0,.05.03l.06-.04-.02-.05s-.01-.01-.02-.02c0-.01-.01-.02-.02-.01,0,0,0,.01-.01.02,0,0-.01.01-.02.01s-.03,0-.07-.02v.02s0,.04,0,.04ZM23.22,31.12l-.06-.02v.04s-.08-.02-.08-.02l-.05-.04.05-.09h.05s.07.03.07.03l.03.06v.04ZM23.06,31.72l.15.02.03-.11.2.04.13.12-.13.21h-.14l-.18-.06-.08-.14.02-.08ZM23.18,31.04h-.04s-.02,0-.04,0l-.04.04.03.03s.01,0,.02.02c.01,0,.02,0,.02,0v-.02s0-.01,0-.01c0,0,.02,0,.06-.01h0s-.02-.04-.02-.04ZM23.42,31.62l-.1-.06-.05.07-.13-.07-.06-.11.14-.12.1.04.11.08.02.11-.04.06ZM23.17,31.92h.09s.02,0,.04,0c.02,0,.04,0,.06,0,.02,0,.02,0,.03,0l.08-.11-.06-.07s-.03-.02-.06-.03c-.02-.02-.03-.02-.03,0,0,.01,0,.02,0,.04,0,.02-.01.03-.02.03-.01,0-.02,0-.05,0-.02,0-.05,0-.06,0-.02,0-.03,0-.03,0l-.02.03.04.07ZM23.39,31.46s-.02-.01-.04-.02c-.01,0-.02-.01-.03-.01,0,0-.03-.01-.07-.03l-.09.06.03.07s.02.02.03.03c.01.02.02.02.03.02,0,0,0-.02,0-.03,0-.01.01-.02.02-.02.01,0,.05,0,.11.02v-.02s0-.06,0-.06ZM23.22,31.2l.08.02v-.06s.12.02.12.02l.07.06-.07.11h-.08s-.1-.03-.1-.03l-.04-.07.02-.05ZM23.41,31.15l-.05-.03-.03.04-.07-.04-.03-.06.08-.06.11.06v.06s0,.03,0,.03ZM23.27,31.31h.12s.05-.05.05-.05l-.03-.04s-.02-.01-.03-.02c-.01,0-.02,0-.02,0,0,0,0,.01,0,.02,0,0,0,.02-.02.02,0,0-.03,0-.07.01v.02s0,.04,0,.04ZM23.39,31.07s-.01,0-.02,0c-.01,0-.02,0-.02,0,0,0-.01,0-.03-.02l-.05.03.02.03s.01.01.02.02c0,0,.01,0,.02,0,0,0,0,0,0-.02,0,0,0,0,0,0,0,0,.02,0,.06.01h0s0-.04,0-.04ZM23.62,31.12h-.06s-.01.03-.01.03l-.08-.02-.05-.04.05-.09h.06s.07.03.07.03l.03.06v.04ZM24.02,32.29l-.17-.03-.03.13-.23-.05-.15-.13.15-.25h.16s.21.07.21.07l.1.16-.03.1ZM23.83,31.55l-.11-.02-.02.08-.15-.03-.1-.08.1-.16h.1s.14.05.14.05l.06.1-.02.06ZM23.58,31.04h-.08s-.04.03-.04.03l.03.03s.01,0,.02.01c0,0,.01,0,.01,0,0,0,0-.01,0-.02,0,0,0-.01,0-.01,0,0,.03,0,.06,0h0s-.02-.04-.02-.04ZM23.51,31.15l.07.04.03-.05.1.05.05.08-.1.08-.06-.03-.08-.05-.02-.08.03-.04ZM23.53,31.27s.01,0,.03.01c.01,0,.02,0,.02,0,0,0,.02,0,.05.02l.07-.04-.02-.05s-.01-.01-.02-.02c-.01-.01-.02-.02-.02-.01,0,0,0,.01-.01.02,0,.01-.01.01-.02.01,0,0-.03,0-.07-.01h-.01s.01.06.01.06ZM23.75,31.4s-.03,0-.07,0c0,0-.03,0-.08,0l-.07.08.06.06s.02,0,.04.02c.02.01.02.01.02,0,0,0,0-.02,0-.03,0-.02.01-.02.02-.03,0,0,.02,0,.03,0,.02,0,.03,0,.05,0,.01,0,.02,0,.02,0v-.02s-.02-.06-.02-.06ZM23.89,32.06s-.04,0-.06,0c-.03,0-.04,0-.05,0,0,0-.01,0-.03,0-.02,0-.04,0-.06,0-.02,0-.03,0-.03,0l-.11.12.08.08s.02,0,.03.02c.01,0,.02.01.03.02.01,0,.02.01.03.02,0,0,.01,0,.01,0,0-.01,0-.03,0-.05s.01-.03.02-.04c0,0,.02,0,.06,0,.03,0,.06,0,.08,0,.02,0,.03,0,.03,0l.02-.04-.05-.08ZM23.61,31.61l.14.08.06-.09.18.09.09.15-.19.16-.12-.05-.15-.1-.03-.16.04-.07ZM23.67,32.39l.21.12.09-.15.27.15.14.24-.3.25-.2-.08-.24-.16-.05-.25.07-.12ZM23.81,31.16l-.05-.03-.02.04-.07-.04-.04-.06.08-.06.05.02.06.04.02.06-.02.03ZM23.66,31.84s.03.01.05.02c.02,0,.04.01.04.01,0,0,.01,0,.03.01.02,0,.03.02.05.02.01,0,.02.01.02.01l.12-.07-.04-.1s-.03-.02-.05-.05c-.02-.02-.03-.03-.03-.02,0,.01-.01.03-.02.04,0,.02-.02.02-.03.02,0,0-.02,0-.05,0-.02,0-.05,0-.06-.01s-.03,0-.03,0l-.03.02.02.09ZM23.8,31.07s-.02,0-.04-.02c0,0-.02,0-.04-.02l-.05.03.02.03s.01.01.02.02c0,0,.01,0,.01,0,0,0,0,0,0-.01,0,0,.01-.01.01-.01,0,0,.02,0,.06.02h0s-.02-.05-.02-.05ZM23.75,32.74s.05.01.08.03c.03.01.06.02.06.02,0,0,.02,0,.04.02.03.01.05.03.07.04s.03.02.04.02l.19-.11-.07-.14s-.02-.02-.03-.03c-.01-.02-.02-.03-.03-.04-.01-.02-.02-.03-.03-.03,0,0-.01,0-.02,0,0,.02-.02.04-.03.07-.01.03-.03.04-.05.04-.01,0-.03,0-.07-.01-.04,0-.07-.02-.1-.02-.03,0-.04-.01-.05-.01l-.03.04.02.13ZM23.76,31.2l.08.02v-.06s.12.02.12.02l.07.06-.07.11h-.07s-.1-.03-.1-.03l-.04-.07v-.05ZM23.82,31.31s.03,0,.06,0c0,0,.02,0,.06,0l.05-.06-.04-.04s-.01-.01-.02-.02-.02,0-.02,0c0,0,0,.01,0,.02,0,0,0,.02-.01.02s-.03,0-.08,0v.02s.01.04.01.04ZM24.19,31.62l-.1-.06-.05.07-.13-.07-.07-.11.15-.12.1.04.11.07.02.12-.03.06ZM24.15,31.46s-.02-.01-.04-.02c-.02,0-.03,0-.03,0,0,0-.03-.01-.08-.04l-.09.06.03.06s.02.02.03.04c.01.02.02.02.02.01,0,0,0-.02.02-.03,0-.01.02-.02.02-.02s.04,0,.1.02l.02-.02v-.06ZM24.57,32.41l-.16-.09-.07.1-.2-.11-.1-.18.23-.19.15.06.18.12.03.19-.06.09ZM24.08,31.71l.16.02.02-.1.2.04.13.12-.13.21h-.13l-.18-.06-.08-.14.02-.08ZM24.52,32.14s-.04-.01-.06-.02c-.02-.01-.04-.01-.04-.01s-.02,0-.03-.01c-.02-.01-.04-.02-.06-.03s-.02-.01-.03-.02l-.14.08.06.1s.02.03.05.06c.02.03.03.03.03.02,0-.01.01-.03.02-.05.01-.02.02-.03.04-.03,0,0,.02,0,.05,0,.02,0,.05.01.07.02.02,0,.03,0,.04,0l.03-.03-.02-.1ZM24.2,31.91s.03,0,.06,0c.02,0,.04,0,.04,0,0,0,.01,0,.03,0,.02,0,.04,0,.05,0,.02,0,.02,0,.03,0l.09-.11-.07-.07s-.03-.02-.06-.03c-.02-.02-.03-.02-.03,0,0,.01,0,.03,0,.05s-.01.03-.02.03c-.01,0-.02,0-.05,0-.02,0-.05,0-.06,0-.02,0-.03,0-.03,0l-.02.03.04.07ZM24.42,32.54l.24.05.03-.17.31.06.2.18-.2.33h-.21s-.28-.09-.28-.09l-.12-.22.04-.14ZM24.59,32.85h.04s.03,0,.05,0c.02,0,.03,0,.04,0h.02s.02,0,.05,0c.03,0,.06,0,.08.01s.04,0,.04,0l.14-.17-.1-.11s-.02-.01-.04-.02c-.02-.01-.03-.02-.05-.03-.02,0-.03-.02-.04-.02-.01,0-.02,0-.02,0,0,.02,0,.04,0,.07s-.02.05-.04.06c-.01,0-.03,0-.07,0s-.07,0-.1.01c-.03,0-.05,0-.05,0l-.02.06.07.11Z" fill="#6c6967"/>
    </g>
  </g>
  <g id="Scree-8" data-name="Scree" isolation="isolate">
    <g isolation="isolate">
      <path d="M37.08,31.39l.21.12.09-.15.27.15.14.24-.29.25-.2-.08-.25-.16-.05-.24.07-.12ZM37.15,31.74s.05.01.08.03c.03.01.05.02.06.02,0,0,.02,0,.04.02.03.01.05.03.07.04.02,0,.03.02.03.02l.19-.12-.07-.14s-.02-.02-.03-.03c-.01-.02-.03-.03-.04-.04s-.02-.02-.03-.03c0,0-.01,0-.02,0,0,.02-.02.04-.03.07-.01.03-.03.04-.05.04-.01,0-.03,0-.07-.01-.04,0-.07-.02-.1-.02s-.04-.01-.05-.01l-.04.05.03.12ZM37.84,31.28l-.18-.03-.02.13-.23-.04-.15-.14.15-.25.15.02.21.06.09.16-.02.09ZM37.7,31.06s-.04,0-.07,0c-.03,0-.04,0-.05,0,0,0-.02,0-.04,0-.02,0-.04,0-.06-.01-.02,0-.03,0-.03,0l-.1.12.08.09s.02,0,.03.02c.01,0,.02.01.03.02.01,0,.02.01.03.02,0,0,.01,0,.01,0,0-.01,0-.03,0-.05s.01-.03.02-.04c0,0,.02,0,.05,0,.03,0,.05,0,.07,0,.02,0,.03,0,.03,0l.02-.04-.05-.08ZM37.58,30.62l.14.07.06-.1.18.1.09.15-.19.16-.13-.05-.16-.1-.03-.16.04-.07ZM37.63,30.84s.03.01.05.02c.02,0,.03.01.04.01,0,0,.01,0,.03.02.02,0,.03.02.05.02.01,0,.02.01.02.01l.12-.07-.04-.1s-.03-.02-.04-.05c-.02-.02-.03-.03-.03-.02,0,.01-.01.03-.02.04,0,.02-.02.02-.03.02,0,0-.02,0-.04,0-.02,0-.04,0-.06-.01-.02,0-.03,0-.03,0l-.03.02.02.09ZM38.07,30.55l-.12-.02-.02.08-.15-.03-.1-.09.1-.16h.1s.14.05.14.05l.06.1v.06ZM37.99,30.4s-.03,0-.04,0c-.02,0-.03,0-.03,0,0,0-.03,0-.08,0l-.07.08.05.06s.02.01.04.02c.02,0,.03.01.03,0,0,0,0-.02,0-.03,0-.01,0-.02.02-.02,0,0,.01,0,.03,0,.02,0,.03,0,.05-.01.01,0,.02,0,.02,0v-.02s-.02-.06-.02-.06ZM37.81,31.54l.24.05.03-.17.31.06.21.18-.21.33h-.21s-.28-.09-.28-.09l-.12-.22.03-.14ZM38.39,31.4l-.16-.09-.07.11-.2-.11-.1-.18.22-.19.15.06.18.12.03.18-.05.09ZM37.99,31.86s.06,0,.09,0c.03,0,.06,0,.06,0,0,0,.02,0,.05,0,.03,0,.06,0,.08.01.02,0,.04,0,.04,0l.15-.17-.11-.11s-.02-.01-.04-.02c-.02,0-.03-.02-.05-.03-.02,0-.03-.02-.04-.02-.01,0-.02,0-.02,0,0,.02,0,.04,0,.07,0,.03-.02.05-.03.06-.01,0-.03,0-.07,0-.04,0-.07,0-.1.01-.03,0-.04,0-.05,0l-.02.06.06.1ZM37.96,30.15l.08.04.03-.05.1.05.04.08-.1.08-.06-.03-.09-.05-.02-.08.02-.04ZM38.33,31.14s-.03-.01-.06-.02c-.03-.01-.04-.01-.05-.01,0,0-.01,0-.03-.01-.02,0-.04-.02-.06-.03s-.02-.01-.03-.02l-.14.08.05.1s.02.02.02.03c0,.01.02.02.02.03,0,.01.02.02.02.02,0,0,.01,0,.01,0,0-.02,0-.03.02-.05,0-.02.02-.03.03-.03,0,0,.03,0,.06,0,.03,0,.05.01.07.02.02,0,.03,0,.04,0l.02-.03v-.09ZM37.99,30.27s.02,0,.03.01c0,0,.02,0,.02,0,0,0,.02,0,.05.03l.06-.04-.02-.05s-.01-.01-.02-.02c0-.01-.02-.02-.02-.01,0,0,0,.01-.01.02,0,0-.01.01-.02.01,0,0-.03,0-.07-.02v.02s0,.04,0,.04ZM38.22,30.12l-.06-.02v.04s-.08-.02-.08-.02l-.05-.04.05-.09h.05s.07.03.07.03l.03.06v.04ZM38.06,30.72l.15.02.03-.11.2.04.13.12-.13.21h-.14l-.19-.06-.07-.14.02-.08ZM38.18,30.04h-.04s-.02,0-.04,0l-.04.04.03.03s.01,0,.02.02c0,0,.02,0,.02,0v-.02s0-.01,0-.01c0,0,.02,0,.06-.01h0s-.01-.04-.01-.04ZM38.42,30.62l-.1-.06-.05.07-.13-.07-.06-.11.14-.12.1.04.12.08.02.11-.03.06ZM38.17,30.92h.09s.02,0,.04,0c.02,0,.04,0,.06,0,.02,0,.03,0,.03,0l.08-.11-.06-.07s-.03-.02-.06-.03c-.02-.02-.03-.02-.03,0,0,.01,0,.02,0,.04,0,.02-.01.03-.02.03,0,0-.02,0-.05,0-.02,0-.04,0-.06,0-.02,0-.03,0-.03,0l-.02.03.04.07ZM38.39,30.46s-.02-.01-.04-.02c-.01,0-.02-.01-.03-.01,0,0-.03-.01-.07-.03l-.09.06.03.07s.02.02.03.03c.01.02.02.02.03.02,0,0,0-.02,0-.03,0-.01.01-.02.02-.02.01,0,.05,0,.11.02v-.02s0-.06,0-.06ZM38.22,30.2l.08.02v-.06s.12.02.12.02l.07.06-.07.11h-.08s-.1-.03-.1-.03l-.04-.07.02-.05ZM38.41,30.15l-.05-.03-.03.04-.07-.04-.03-.06.08-.06.11.06v.06s0,.03,0,.03ZM38.27,30.31h.12s.04-.05.04-.05l-.04-.04s-.02-.01-.03-.02c-.01,0-.02,0-.02,0,0,0,0,.01,0,.02,0,0,0,.02-.02.02,0,0-.03,0-.07.01v.02s0,.04,0,.04ZM38.39,30.07s-.01,0-.02,0c0,0-.02,0-.02,0,0,0-.01,0-.03-.02l-.05.03.02.03s.01.01.02.02c0,0,.01,0,.01,0,0,0,0,0,0-.02,0,0,0,0,0,0,0,0,.02,0,.06.01h0s0-.04,0-.04ZM38.62,30.12h-.06s-.01.03-.01.03l-.08-.02-.05-.04.05-.09h.06s.07.03.07.03l.03.06v.04ZM39.02,31.29l-.17-.03-.03.13-.22-.05-.15-.13.15-.25h.15s.21.07.21.07l.1.16-.03.1ZM38.83,30.55l-.11-.02-.02.08-.15-.03-.1-.08.1-.16h.1s.14.05.14.05l.06.1-.02.06ZM38.58,30.04h-.08s-.03.03-.03.03l.03.03s.01,0,.02.01c0,0,.01,0,.01,0,0,0,0-.01,0-.02,0,0,0-.01,0-.01,0,0,.03,0,.06,0h0s-.02-.04-.02-.04ZM38.51,30.15l.07.04.03-.05.1.05.04.08-.1.08-.06-.03-.08-.05-.02-.08.03-.04ZM38.53,30.27s.01,0,.03.01c.01,0,.02,0,.02,0s.02,0,.05.02l.07-.04-.02-.05s-.01-.01-.02-.02c0-.01-.02-.02-.02-.01,0,0,0,.01-.01.02,0,.01-.01.01-.02.01s-.03,0-.07-.01h-.01s.01.06.01.06ZM38.75,30.4s-.03,0-.07,0c0,0-.03,0-.08,0l-.07.08.06.06s.02,0,.04.02c.01.01.02.01.02,0,0,0,0-.02,0-.03,0-.02,0-.02.02-.03,0,0,.01,0,.03,0,.02,0,.03,0,.05,0,.01,0,.02,0,.02,0v-.02s-.02-.06-.02-.06ZM38.89,31.06s-.04,0-.06,0c-.03,0-.04,0-.05,0,0,0-.01,0-.03,0-.02,0-.04,0-.06,0-.02,0-.03,0-.03,0l-.11.12.08.08s.02,0,.03.02c.01,0,.02.01.03.02.01,0,.02.01.03.02,0,0,.01,0,.01,0,0-.01,0-.03,0-.05,0-.02.01-.03.02-.04,0,0,.03,0,.06,0,.03,0,.06,0,.08,0,.02,0,.03,0,.03,0l.02-.04-.05-.08ZM38.61,30.61l.14.08.06-.09.18.09.09.15-.19.16-.12-.05-.15-.1-.04-.16.04-.07ZM38.67,31.39l.21.12.09-.15.27.15.14.24-.3.25-.2-.08-.24-.16-.05-.25.07-.12ZM38.81,30.16l-.05-.03-.02.04-.07-.04-.04-.06.08-.06.05.02.06.04.02.06-.02.03ZM38.65,30.84s.03.01.06.02c.02,0,.04.01.04.01,0,0,.01,0,.03.01.01,0,.03.02.04.02.01,0,.02.01.03.01l.12-.07-.04-.1s-.03-.02-.05-.05c-.02-.02-.03-.03-.03-.02,0,.01-.01.03-.02.04,0,.02-.02.02-.03.02s-.02,0-.04,0c-.02,0-.04,0-.06-.01s-.03,0-.03,0l-.03.02v.09ZM38.79,30.07s-.02,0-.03-.02c0,0-.02,0-.04-.02l-.05.03.02.03s.01.01.02.02c0,0,0,0,0,0,0,0,0,0,0-.02,0,0,0,0,.01,0,0,0,.03,0,.06.02h0s-.02-.04-.02-.04ZM38.75,31.74s.05.01.08.03c.03.01.06.02.06.02,0,0,.02,0,.04.02.03.01.05.03.07.04s.04.02.04.02l.19-.11-.07-.14s-.02-.02-.03-.03c-.01-.02-.02-.03-.03-.04-.01-.02-.02-.03-.03-.03,0,0-.01,0-.02,0,0,.02-.02.04-.03.07-.02.03-.03.04-.05.04-.01,0-.03,0-.07-.01-.04,0-.07-.02-.1-.02-.03,0-.04-.01-.05-.01l-.03.04.02.13ZM38.76,30.2l.08.02v-.06s.12.02.12.02l.07.06-.07.11h-.07s-.1-.03-.1-.03l-.04-.07.02-.05ZM38.81,30.31s.03,0,.06,0c0,0,.02,0,.06,0l.05-.06-.04-.04s-.01-.01-.02-.02c-.01,0-.02,0-.02,0,0,0,0,.01,0,.02,0,0,0,.02-.01.02,0,0-.03,0-.07,0v.02s0,.04,0,.04ZM39.19,30.62l-.1-.06-.04.07-.13-.07-.07-.11.15-.12.1.04.12.07.02.12-.04.06ZM39.15,30.46s-.02-.01-.04-.02c-.02,0-.03,0-.03,0,0,0-.03-.01-.08-.04l-.09.06.03.06s.02.02.03.04c.01.02.02.02.02.01,0,0,0-.02.02-.03,0-.01.02-.02.02-.02s.04,0,.1.02l.02-.02v-.06ZM39.57,31.41l-.15-.09-.07.1-.2-.11-.1-.18.22-.19.15.06.18.12.04.19-.06.09ZM39.08,30.71l.15.02.02-.1.2.04.13.12-.13.21h-.14l-.19-.06-.08-.14.02-.08ZM39.52,31.14s-.04-.01-.06-.02c-.02-.01-.04-.01-.04-.01,0,0-.01,0-.03-.01-.02-.01-.04-.02-.06-.03s-.03-.01-.03-.02l-.14.08.06.1s.03.03.05.06c.02.03.03.03.03.02,0-.01,0-.03.02-.05.01-.02.02-.03.04-.03,0,0,.02,0,.05,0,.02,0,.05.01.07.02.02,0,.03,0,.03,0l.03-.03-.02-.1ZM39.2,30.91s.03,0,.06,0c.02,0,.04,0,.04,0s.01,0,.03,0c.02,0,.04,0,.05,0,.02,0,.03,0,.03,0l.09-.11-.07-.07s-.03-.02-.06-.03-.03-.02-.03,0c0,.01,0,.03,0,.05s-.01.03-.02.03c0,0-.02,0-.05,0-.02,0-.04,0-.06,0-.02,0-.03,0-.03,0l-.02.03.04.07ZM39.42,31.54l.24.05.03-.17.31.06.2.18-.2.33h-.21s-.28-.09-.28-.09l-.12-.22.04-.14ZM39.59,31.85h.04s.03,0,.05,0c.02,0,.03,0,.04,0h.02s.02,0,.05,0c.03,0,.06,0,.08.01s.04,0,.04,0l.14-.17-.1-.11s-.02-.01-.04-.02c-.02-.01-.03-.02-.05-.03-.02,0-.03-.02-.04-.02-.01,0-.02,0-.02,0,0,.02,0,.04,0,.07,0,.03-.02.05-.04.06-.01,0-.03,0-.07,0-.04,0-.07,0-.1.01-.03,0-.04,0-.05,0l-.02.06.06.11Z" fill="#6c6967"/>
    </g>
  </g>
  <g id="Scree-9" data-name="Scree" isolation="isolate">
    <g isolation="isolate">
      <path d="M34.08,43.39l.21.12.09-.15.27.15.14.24-.29.25-.2-.08-.25-.16-.05-.24.07-.12ZM34.15,43.74s.05.01.08.03c.03.01.05.02.06.02,0,0,.02,0,.04.02.03.01.05.03.07.04.02,0,.03.02.03.02l.19-.12-.07-.14s-.02-.02-.03-.03c-.01-.02-.03-.03-.04-.04s-.02-.02-.03-.03c0,0-.01,0-.02,0,0,.02-.02.04-.03.07-.01.03-.03.04-.05.04-.01,0-.03,0-.07-.01-.04,0-.07-.02-.1-.02s-.04-.01-.05-.01l-.04.05.03.12ZM34.84,43.28l-.18-.03-.02.13-.23-.04-.15-.14.15-.25.15.02.21.06.09.16-.02.09ZM34.7,43.06s-.04,0-.07,0c-.03,0-.04,0-.05,0,0,0-.02,0-.04,0-.02,0-.04,0-.06-.01-.02,0-.03,0-.03,0l-.1.12.08.09s.02,0,.03.02c.01,0,.02.01.03.02.01,0,.02.01.03.02,0,0,.01,0,.01,0,0-.01,0-.03,0-.05s.01-.03.02-.04c0,0,.02,0,.05,0,.03,0,.05,0,.07,0,.02,0,.03,0,.03,0l.02-.04-.05-.08ZM34.58,42.62l.14.07.06-.1.18.1.09.15-.19.16-.13-.05-.16-.1-.03-.16.04-.07ZM34.63,42.84s.03.01.05.02c.02,0,.03.01.04.01,0,0,.01,0,.03.02.02,0,.03.02.05.02.01,0,.02.01.02.01l.12-.07-.04-.1s-.03-.02-.04-.05c-.02-.02-.03-.03-.03-.02,0,.01-.01.03-.02.04,0,.02-.02.02-.03.02,0,0-.02,0-.04,0-.02,0-.04,0-.06-.01-.02,0-.03,0-.03,0l-.03.02.02.09ZM35.07,42.55l-.12-.02-.02.08-.15-.03-.1-.09.1-.16h.1s.14.05.14.05l.06.1v.06ZM34.99,42.4s-.03,0-.04,0c-.02,0-.03,0-.03,0,0,0-.03,0-.08,0l-.07.08.05.06s.02.01.04.02c.02,0,.03.01.03,0,0,0,0-.02,0-.03,0-.01,0-.02.02-.02,0,0,.01,0,.03,0,.02,0,.03,0,.05-.01.01,0,.02,0,.02,0v-.02s-.02-.06-.02-.06ZM34.81,43.54l.24.05.03-.17.31.06.21.18-.21.33h-.21s-.28-.09-.28-.09l-.12-.22.03-.14ZM35.39,43.4l-.16-.09-.07.11-.2-.11-.1-.18.22-.19.15.06.18.12.03.18-.05.09ZM34.99,43.86s.06,0,.09,0c.03,0,.06,0,.06,0,0,0,.02,0,.05,0,.03,0,.06,0,.08.01.02,0,.04,0,.04,0l.15-.17-.11-.11s-.02-.01-.04-.02c-.02,0-.03-.02-.05-.03-.02,0-.03-.02-.04-.02-.01,0-.02,0-.02,0,0,.02,0,.04,0,.07,0,.03-.02.05-.03.06-.01,0-.03,0-.07,0-.04,0-.07,0-.1.01-.03,0-.04,0-.05,0l-.02.06.06.1ZM34.96,42.15l.08.04.03-.05.1.05.04.08-.1.08-.06-.03-.09-.05-.02-.08.02-.04ZM35.33,43.14s-.03-.01-.06-.02c-.03-.01-.04-.01-.05-.01,0,0-.01,0-.03-.01-.02,0-.04-.02-.06-.03s-.02-.01-.03-.02l-.14.08.05.1s.02.02.02.03c0,.01.02.02.02.03,0,.01.02.02.02.02,0,0,.01,0,.01,0,0-.02,0-.03.02-.05,0-.02.02-.03.03-.03,0,0,.03,0,.06,0,.03,0,.05.01.07.02.02,0,.03,0,.04,0l.02-.03v-.09ZM34.99,42.27s.02,0,.03.01c0,0,.02,0,.02,0,0,0,.02,0,.05.03l.06-.04-.02-.05s-.01-.01-.02-.02c0-.01-.02-.02-.02-.01,0,0,0,.01-.01.02,0,0-.01.01-.02.01,0,0-.03,0-.07-.02v.02s0,.04,0,.04ZM35.22,42.12l-.06-.02v.04s-.08-.02-.08-.02l-.05-.04.05-.09h.05s.07.03.07.03l.03.06v.04ZM35.06,42.72l.15.02.03-.11.2.04.13.12-.13.21h-.14l-.19-.06-.07-.14.02-.08ZM35.18,42.04h-.04s-.02,0-.04,0l-.04.04.03.03s.01,0,.02.02c0,0,.02,0,.02,0v-.02s0-.01,0-.01c0,0,.02,0,.06-.01h0s-.01-.04-.01-.04ZM35.42,42.62l-.1-.06-.05.07-.13-.07-.06-.11.14-.12.1.04.12.08.02.11-.03.06ZM35.17,42.92h.09s.02,0,.04,0c.02,0,.04,0,.06,0,.02,0,.03,0,.03,0l.08-.11-.06-.07s-.03-.02-.06-.03c-.02-.02-.03-.02-.03,0,0,.01,0,.02,0,.04,0,.02-.01.03-.02.03,0,0-.02,0-.05,0-.02,0-.04,0-.06,0-.02,0-.03,0-.03,0l-.02.03.04.07ZM35.39,42.46s-.02-.01-.04-.02c-.01,0-.02-.01-.03-.01,0,0-.03-.01-.07-.03l-.09.06.03.07s.02.02.03.03c.01.02.02.02.03.02,0,0,0-.02,0-.03,0-.01.01-.02.02-.02.01,0,.05,0,.11.02v-.02s0-.06,0-.06ZM35.22,42.2l.08.02v-.06s.12.02.12.02l.07.06-.07.11h-.08s-.1-.03-.1-.03l-.04-.07.02-.05ZM35.41,42.15l-.05-.03-.03.04-.07-.04-.03-.06.08-.06.11.06v.06s0,.03,0,.03ZM35.27,42.31h.12s.04-.05.04-.05l-.04-.04s-.02-.01-.03-.02c-.01,0-.02,0-.02,0,0,0,0,.01,0,.02,0,0,0,.02-.02.02,0,0-.03,0-.07.01v.02s0,.04,0,.04ZM35.39,42.07s-.01,0-.02,0c0,0-.02,0-.02,0,0,0-.01,0-.03-.02l-.05.03.02.03s.01.01.02.02c0,0,.01,0,.01,0,0,0,0,0,0-.02,0,0,0,0,0,0,0,0,.02,0,.06.01h0s0-.04,0-.04ZM35.62,42.12h-.06s-.01.03-.01.03l-.08-.02-.05-.04.05-.09h.06s.07.03.07.03l.03.06v.04ZM36.02,43.29l-.17-.03-.03.13-.22-.05-.15-.13.15-.25h.15s.21.07.21.07l.1.16-.03.1ZM35.83,42.55l-.11-.02-.02.08-.15-.03-.1-.08.1-.16h.1s.14.05.14.05l.06.1-.02.06ZM35.58,42.04h-.08s-.03.03-.03.03l.03.03s.01,0,.02.01c0,0,.01,0,.01,0,0,0,0-.01,0-.02,0,0,0-.01,0-.01,0,0,.03,0,.06,0h0s-.02-.04-.02-.04ZM35.51,42.15l.07.04.03-.05.1.05.04.08-.1.08-.06-.03-.08-.05-.02-.08.03-.04ZM35.53,42.27s.01,0,.03.01c.01,0,.02,0,.02,0s.02,0,.05.02l.07-.04-.02-.05s-.01-.01-.02-.02c0-.01-.02-.02-.02-.01,0,0,0,.01-.01.02,0,.01-.01.01-.02.01s-.03,0-.07-.01h-.01s.01.06.01.06ZM35.75,42.4s-.03,0-.07,0c0,0-.03,0-.08,0l-.07.08.06.06s.02,0,.04.02c.01.01.02.01.02,0,0,0,0-.02,0-.03,0-.02,0-.02.02-.03,0,0,.01,0,.03,0,.02,0,.03,0,.05,0,.01,0,.02,0,.02,0v-.02s-.02-.06-.02-.06ZM35.89,43.06s-.04,0-.06,0c-.03,0-.04,0-.05,0,0,0-.01,0-.03,0-.02,0-.04,0-.06,0-.02,0-.03,0-.03,0l-.11.12.08.08s.02,0,.03.02c.01,0,.02.01.03.02.01,0,.02.01.03.02,0,0,.01,0,.01,0,0-.01,0-.03,0-.05,0-.02.01-.03.02-.04,0,0,.03,0,.06,0,.03,0,.06,0,.08,0,.02,0,.03,0,.03,0l.02-.04-.05-.08ZM35.61,42.61l.14.08.06-.09.18.09.09.15-.19.16-.12-.05-.15-.1-.04-.16.04-.07ZM35.67,43.39l.21.12.09-.15.27.15.14.24-.3.25-.2-.08-.24-.16-.05-.25.07-.12ZM35.81,42.16l-.05-.03-.02.04-.07-.04-.04-.06.08-.06.05.02.06.04.02.06-.02.03ZM35.65,42.84s.03.01.06.02c.02,0,.04.01.04.01,0,0,.01,0,.03.01.01,0,.03.02.04.02.01,0,.02.01.03.01l.12-.07-.04-.1s-.03-.02-.05-.05c-.02-.02-.03-.03-.03-.02,0,.01-.01.03-.02.04,0,.02-.02.02-.03.02s-.02,0-.04,0c-.02,0-.04,0-.06-.01s-.03,0-.03,0l-.03.02v.09ZM35.79,42.07s-.02,0-.03-.02c0,0-.02,0-.04-.02l-.05.03.02.03s.01.01.02.02c0,0,0,0,0,0,0,0,0,0,0-.02,0,0,0,0,.01,0,0,0,.03,0,.06.02h0s-.02-.04-.02-.04ZM35.75,43.74s.05.01.08.03c.03.01.06.02.06.02,0,0,.02,0,.04.02.03.01.05.03.07.04s.04.02.04.02l.19-.11-.07-.14s-.02-.02-.03-.03c-.01-.02-.02-.03-.03-.04-.01-.02-.02-.03-.03-.03,0,0-.01,0-.02,0,0,.02-.02.04-.03.07-.02.03-.03.04-.05.04-.01,0-.03,0-.07-.01-.04,0-.07-.02-.1-.02-.03,0-.04-.01-.05-.01l-.03.04.02.13ZM35.76,42.2l.08.02v-.06s.12.02.12.02l.07.06-.07.11h-.07s-.1-.03-.1-.03l-.04-.07.02-.05ZM35.81,42.31s.03,0,.06,0c0,0,.02,0,.06,0l.05-.06-.04-.04s-.01-.01-.02-.02c-.01,0-.02,0-.02,0,0,0,0,.01,0,.02,0,0,0,.02-.01.02,0,0-.03,0-.07,0v.02s0,.04,0,.04ZM36.19,42.62l-.1-.06-.04.07-.13-.07-.07-.11.15-.12.1.04.12.07.02.12-.04.06ZM36.15,42.46s-.02-.01-.04-.02c-.02,0-.03,0-.03,0,0,0-.03-.01-.08-.04l-.09.06.03.06s.02.02.03.04c.01.02.02.02.02.01,0,0,0-.02.02-.03,0-.01.02-.02.02-.02s.04,0,.1.02l.02-.02v-.06ZM36.57,43.41l-.15-.09-.07.1-.2-.11-.1-.18.22-.19.15.06.18.12.04.19-.06.09ZM36.08,42.71l.15.02.02-.1.2.04.13.12-.13.21h-.14l-.19-.06-.08-.14.02-.08ZM36.52,43.14s-.04-.01-.06-.02c-.02-.01-.04-.01-.04-.01,0,0-.01,0-.03-.01-.02-.01-.04-.02-.06-.03s-.03-.01-.03-.02l-.14.08.06.1s.03.03.05.06c.02.03.03.03.03.02,0-.01,0-.03.02-.05.01-.02.02-.03.04-.03,0,0,.02,0,.05,0,.02,0,.05.01.07.02.02,0,.03,0,.03,0l.03-.03-.02-.1ZM36.2,42.91s.03,0,.06,0c.02,0,.04,0,.04,0s.01,0,.03,0c.02,0,.04,0,.05,0,.02,0,.03,0,.03,0l.09-.11-.07-.07s-.03-.02-.06-.03-.03-.02-.03,0c0,.01,0,.03,0,.05s-.01.03-.02.03c0,0-.02,0-.05,0-.02,0-.04,0-.06,0-.02,0-.03,0-.03,0l-.02.03.04.07ZM36.42,43.54l.24.05.03-.17.31.06.2.18-.2.33h-.21s-.28-.09-.28-.09l-.12-.22.04-.14ZM36.59,43.85h.04s.03,0,.05,0c.02,0,.03,0,.04,0h.02s.02,0,.05,0c.03,0,.06,0,.08.01s.04,0,.04,0l.14-.17-.1-.11s-.02-.01-.04-.02c-.02-.01-.03-.02-.05-.03-.02,0-.03-.02-.04-.02-.01,0-.02,0-.02,0,0,.02,0,.04,0,.07,0,.03-.02.05-.04.06-.01,0-.03,0-.07,0-.04,0-.07,0-.1.01-.03,0-.04,0-.05,0l-.02.06.06.11Z" fill="#6c6967"/>
    </g>
  </g>
  <g id="Scree-10" data-name="Scree" isolation="isolate">
    <g isolation="isolate">
      <path d="M.08,43.37l.21.12.09-.15.27.15.14.23-.29.25-.2-.08-.25-.16-.05-.24.08-.12ZM.15,43.72s.05.01.08.03c.04.01.06.02.06.02,0,0,.02,0,.04.02.03.01.05.03.07.04s.03.02.04.02l.19-.12-.07-.14s-.02-.02-.03-.03c-.01-.01-.03-.03-.04-.04-.01-.02-.02-.02-.03-.03,0,0-.01,0-.02,0,0,.02-.02.04-.03.07-.02.03-.03.04-.05.04-.01,0-.03,0-.07-.01-.04,0-.07-.02-.09-.02-.03,0-.04,0-.05,0l-.04.04.03.13ZM.84,43.26l-.18-.03-.02.13-.23-.04-.15-.14.15-.25.16.02.21.06.09.16-.02.09ZM.7,43.03s-.04,0-.07,0c-.03,0-.04,0-.05,0,0,0-.02,0-.04,0s-.04,0-.06,0c-.02,0-.03,0-.03,0l-.1.12.08.09s.02,0,.03.02c.01,0,.02.01.03.02.01,0,.02.01.03.02,0,0,.01,0,.01,0,0-.01,0-.03,0-.05s.01-.03.03-.04c0,0,.03,0,.05,0s.05,0,.07,0,.03,0,.04,0l.02-.04-.05-.08ZM.58,42.59l.14.08.06-.1.18.1.09.15-.19.16-.13-.05-.16-.1-.03-.16.05-.07ZM.63,42.82s.03.01.05.02.04.01.04.01c0,0,.01,0,.03.01.02,0,.03.02.05.02.01,0,.02.01.02.01l.12-.07-.04-.1s-.03-.02-.05-.05c-.02-.02-.03-.03-.03-.02,0,.01-.01.03-.02.04s-.02.02-.03.02c0,0-.02,0-.05,0-.02,0-.04,0-.06-.01-.02,0-.03,0-.03,0l-.03.02.02.09ZM1.07,42.52l-.12-.02-.02.08-.14-.03-.1-.09.1-.16h.1s.14.05.14.05l.06.1v.06ZM.99,42.37s-.03,0-.05,0c-.02,0-.03,0-.03,0,0,0-.03,0-.08,0l-.07.08.05.06s.03.01.04.02c.02.01.03.01.03,0,0,0,0-.02,0-.03,0-.02,0-.02.02-.03,0,0,.01,0,.03,0,.02,0,.03,0,.05,0,.01,0,.02,0,.02,0v-.02s-.02-.06-.02-.06ZM.82,43.52l.24.05.04-.17.3.06.2.18-.2.33h-.21s-.28-.09-.28-.09l-.12-.22.04-.14ZM1.39,43.38l-.16-.09-.07.11-.2-.11-.1-.18.22-.19.15.06.18.12.04.18-.05.08ZM.99,43.83s.05,0,.09,0c.04,0,.06,0,.06,0,0,0,.02,0,.05,0,.03,0,.06,0,.08.01s.04,0,.04,0l.14-.17-.11-.11s-.02-.01-.04-.02c-.02-.01-.03-.02-.05-.03-.02-.01-.03-.02-.04-.02-.01,0-.02,0-.02,0,0,.02,0,.04,0,.07,0,.03-.02.05-.03.06-.01,0-.04,0-.07,0-.04,0-.07,0-.1.01-.03,0-.04,0-.05,0l-.02.05.06.11ZM.96,42.13l.08.04.03-.05.1.05.04.08-.1.08-.06-.03-.09-.05-.02-.08.02-.04ZM1.33,43.12s-.03-.01-.06-.02-.04-.01-.05-.01c0,0-.01,0-.03-.01-.02,0-.04-.02-.05-.03-.02,0-.03-.01-.03-.02l-.14.08.05.1s.02.01.03.03.02.02.03.03c0,0,.02.02.02.02,0,0,.01,0,.01,0,0-.02,0-.03.02-.05.01-.02.02-.03.04-.03,0,0,.03,0,.05,0,.03,0,.05.01.07.02.02,0,.03,0,.04,0l.02-.03-.02-.1ZM.99,42.24s.01.01.03.01c.01,0,.02,0,.03,0,0,0,.02,0,.05.03l.06-.04-.02-.05s-.01-.01-.02-.02c0-.01-.02-.02-.02-.01,0,0,0,.01-.01.02,0,.01-.01.02-.02.02s-.03,0-.07-.02v.02s0,.04,0,.04ZM1.22,42.1l-.06-.02v.05s-.08-.02-.08-.02l-.05-.04.05-.09h.05s.07.03.07.03l.03.06v.04ZM1.06,42.69l.15.02.03-.11.2.04.13.12-.13.21h-.14l-.18-.06-.08-.14.02-.08ZM1.18,42.02h-.04s-.02,0-.04,0l-.04.04.03.03s.01,0,.02.01.02,0,.02,0v-.02s0-.01,0-.01c0,0,.02,0,.06-.01h0s-.01-.04-.01-.04ZM1.42,42.6l-.1-.06-.05.07-.13-.07-.06-.11.14-.12.1.04.12.08.02.11-.04.06ZM1.17,42.89h.09s.02,0,.04,0,.04,0,.06,0c.02,0,.03,0,.03,0l.08-.11-.06-.07s-.03-.02-.06-.03c-.02-.02-.04-.02-.04,0s0,.02,0,.04c0,.02-.01.03-.02.03,0,0-.02,0-.05,0-.02,0-.04,0-.06,0-.02,0-.03,0-.03,0l-.02.03.04.08ZM1.39,42.43s-.02-.01-.04-.02c-.02,0-.03,0-.03,0s-.03-.01-.07-.04l-.09.06.03.07s.02.02.03.03c.01.02.02.02.03.01,0,0,0-.02,0-.03,0-.01.01-.02.02-.02.01,0,.05,0,.11.02v-.02s0-.06,0-.06ZM1.22,42.18l.08.02v-.06s.12.02.12.02l.07.06-.07.11h-.08s-.1-.03-.1-.03l-.04-.07.02-.05ZM1.41,42.13l-.05-.03-.03.04-.07-.04-.03-.06.08-.06.11.06v.06s0,.03,0,.03ZM1.27,42.29h.12s.04-.05.04-.05l-.04-.04s-.02-.01-.03-.02c-.01,0-.02-.01-.02,0,0,0,0,.01,0,.02,0,.01,0,.02-.01.02,0,0-.03,0-.07.01v.02s.01.04.01.04ZM1.39,42.05s-.01,0-.02-.01c0,0-.02,0-.02,0,0,0-.02,0-.04-.02l-.05.03.02.03s.01.01.02.02c0,0,.01.01.01,0,0,0,0,0,0-.01,0,0,0-.01,0-.01,0,0,.03,0,.06.01h0s0-.04,0-.04ZM1.62,42.1h-.06s-.01.03-.01.03l-.08-.02-.05-.04.05-.09h.06s.07.03.07.03l.03.06v.03ZM2.02,43.27l-.17-.04-.03.13-.22-.05-.15-.13.15-.25h.16s.21.07.21.07l.1.16-.03.1ZM1.83,42.53l-.11-.02-.02.08-.15-.03-.1-.08.1-.16h.1s.14.05.14.05l.06.1-.02.06ZM1.58,42.02h-.08s-.04.03-.04.03l.03.03s.01,0,.02.01c0,0,.01,0,.01,0,0,0,0-.01,0-.02,0,0,0-.01,0-.01,0,0,.03,0,.06,0h0s-.02-.04-.02-.04ZM1.51,42.13l.07.04.03-.05.1.05.04.08-.1.08-.06-.03-.08-.05-.02-.08.03-.04ZM1.53,42.25s.01,0,.03.01c.01,0,.02,0,.03,0,0,0,.02,0,.05.02l.07-.04-.02-.05s-.01-.01-.02-.02c0-.01-.02-.02-.02-.01,0,0,0,.01-.01.02,0,.01-.01.02-.02.02s-.03,0-.07-.01h-.01s0,.06,0,.06ZM1.75,42.38s-.03,0-.07,0c0,0-.03,0-.08,0l-.07.08.06.06s.02,0,.04.02.02.01.02,0c0,0,0-.02,0-.03,0-.01,0-.02.02-.02,0,0,.01,0,.03,0s.03,0,.05,0c.01,0,.02,0,.03,0v-.02s-.02-.06-.02-.06ZM1.89,43.04s-.04,0-.06,0-.04,0-.04,0c0,0-.01,0-.04,0-.02,0-.04,0-.06,0s-.03,0-.03,0l-.11.12.08.08s.02,0,.03.02c.01,0,.02.02.03.02.01,0,.02.01.03.02s.01,0,.01,0c0-.01,0-.03,0-.05s.01-.03.02-.04c0,0,.03,0,.06,0,.03,0,.05,0,.08,0s.03,0,.04,0l.02-.04-.05-.08ZM1.61,42.59l.14.08.06-.09.18.09.09.15-.19.16-.12-.06-.16-.1-.04-.16.05-.07ZM1.67,43.36l.21.12.09-.15.27.15.14.24-.3.25-.2-.08-.24-.16-.05-.25.07-.12ZM1.81,42.14l-.05-.03-.02.03-.07-.04-.04-.06.08-.06.05.02.06.04.02.06-.02.03ZM1.66,42.82s.03.01.05.02c.02,0,.04.01.04.01,0,0,.01,0,.03.01.02,0,.03.02.04.02.01,0,.02.01.02.01l.12-.07-.04-.1s-.03-.02-.05-.04c-.02-.02-.03-.03-.03-.02,0,.01-.01.03-.02.04-.01.01-.02.02-.03.02,0,0-.02,0-.04,0-.02,0-.05,0-.06-.01-.02,0-.03,0-.03,0l-.03.02.02.09ZM1.8,42.05s-.02,0-.04-.02c0,0-.02,0-.04-.02l-.05.03.02.03s.01.01.02.02.01,0,.01,0,0,0,0-.02c0,0,0-.01.01-.01,0,0,.03,0,.06.02h0s0-.04,0-.04ZM1.75,43.72s.05.01.08.03c.03.01.05.02.06.02,0,0,.02,0,.04.02.03.01.05.03.07.03.02.01.03.02.04.02l.19-.11-.07-.14s-.02-.02-.03-.03c-.01-.02-.02-.03-.04-.04-.01-.01-.02-.03-.03-.03,0,0-.01,0-.02,0,0,.02-.02.04-.03.07s-.03.04-.05.04c-.01,0-.03,0-.07-.01-.04,0-.07-.02-.1-.02-.03,0-.04-.01-.05-.01l-.04.04.02.13ZM1.76,42.18l.08.02v-.06s.12.02.12.02l.07.06-.07.11h-.07s-.1-.03-.1-.03l-.04-.07.02-.05ZM1.82,42.29s.03,0,.06,0c0,0,.02,0,.06,0l.05-.06-.04-.04s-.01-.01-.03-.02c-.01,0-.02-.01-.02,0,0,0,0,.01,0,.02,0,.01,0,.02-.01.02,0,0-.03,0-.08,0v.02s.01.04.01.04ZM2.19,42.6l-.1-.06-.04.07-.13-.07-.07-.11.14-.12.1.04.12.07.02.11-.03.06ZM2.15,42.44s-.02-.01-.04-.02c-.02,0-.03,0-.03,0,0,0-.03-.01-.08-.04l-.09.06.03.06s.02.02.03.03c.01.02.02.02.02.01,0,0,0-.02.02-.03,0-.02.02-.02.02-.02s.04,0,.1.02l.02-.02v-.06ZM2.57,43.38l-.16-.09-.07.1-.2-.11-.1-.18.22-.19.15.06.18.12.04.19-.06.09ZM2.08,42.69l.16.02.02-.1.2.03.13.12-.13.21h-.14l-.18-.06-.08-.14.02-.08ZM2.52,43.12s-.04-.01-.06-.02-.04-.01-.04-.01c0,0-.01,0-.03-.01-.02,0-.04-.02-.06-.03-.02,0-.03-.01-.03-.02l-.14.08.06.1s.03.03.05.06c.02.03.03.03.03.02,0-.01.01-.03.02-.05.01-.02.02-.03.04-.03,0,0,.03,0,.05.01.03,0,.05.01.07.02.02,0,.03,0,.04,0l.03-.03-.02-.1ZM2.2,42.89s.03,0,.06,0,.04,0,.04,0c0,0,.01,0,.03,0s.04,0,.05,0c.02,0,.03,0,.03,0l.09-.11-.07-.07s-.03-.02-.05-.03c-.02-.02-.03-.02-.03,0,0,.01,0,.03,0,.04,0,.02-.01.03-.02.03,0,0-.02,0-.05,0-.02,0-.05,0-.06,0-.02,0-.03,0-.03,0l-.02.04.04.07ZM2.42,43.52l.24.05.04-.17.31.06.2.18-.2.33h-.21s-.28-.09-.28-.09l-.12-.22.04-.14ZM2.59,43.83h.04s.03,0,.05,0c.02,0,.03,0,.04,0h.02s.02,0,.05,0,.06,0,.08.01.04,0,.04,0l.14-.17-.1-.11s-.02-.01-.04-.02c-.02-.01-.03-.02-.05-.03-.02,0-.03-.02-.04-.02-.01,0-.02,0-.02,0,0,.02,0,.04,0,.07s-.02.05-.04.06c-.01,0-.03,0-.07,0-.04,0-.07,0-.1.01-.03,0-.05,0-.05,0l-.02.06.06.11Z" fill="#6c6967"/>
    </g>
  </g>
  <g id="Scree-11" data-name="Scree" isolation="isolate">
    <g isolation="isolate">
      <path d="M32.08,19.39l.21.12.09-.15.27.15.14.24-.29.25-.2-.08-.25-.16-.05-.24.08-.12ZM32.15,19.74s.05.01.08.03c.03.01.06.02.06.02,0,0,.02,0,.04.02.03.01.05.02.07.04.02.01.03.02.04.02l.19-.12-.07-.14s-.02-.02-.03-.03c-.01-.01-.03-.03-.04-.04-.01-.01-.02-.02-.03-.03,0,0-.01,0-.02,0,0,.02-.02.04-.03.07-.01.03-.03.04-.05.04-.01,0-.03,0-.07-.01-.03,0-.06-.02-.09-.02-.03,0-.04-.01-.05-.01l-.04.04.03.13ZM32.84,19.28l-.18-.03-.02.13-.23-.04-.15-.14.15-.25.16.02.21.06.09.16-.02.1ZM32.7,19.06s-.04,0-.07,0c-.03,0-.04,0-.05,0,0,0-.01,0-.04,0-.02,0-.04,0-.06-.01-.02,0-.03,0-.03,0l-.1.12.08.09s.02,0,.03.02c.01,0,.02.02.03.02.01,0,.02.01.03.02.01,0,.01,0,.01,0,0-.01,0-.03,0-.05s.01-.03.02-.04c0,0,.03,0,.05,0,.02,0,.05,0,.07,0,.02,0,.03,0,.04,0l.02-.04-.04-.08ZM32.58,18.62l.14.08.06-.1.18.1.09.15-.19.16-.13-.05-.16-.1-.03-.16.04-.08ZM32.63,18.84s.03.01.06.02c.02,0,.03.01.04.01,0,0,.01,0,.03.01.02,0,.03.02.05.03s.02.01.02.01l.12-.07-.03-.1s-.03-.03-.05-.05-.03-.03-.03-.02c0,.01-.01.03-.02.04s-.02.02-.03.02c0,0-.02,0-.05,0-.02,0-.04,0-.06-.01s-.03,0-.03,0l-.03.02.02.08ZM33.07,18.55l-.12-.02-.02.08-.15-.03-.1-.09.1-.16h.1s.13.05.13.05l.06.1v.06ZM32.99,18.4s-.03,0-.05,0-.03,0-.03,0c0,0-.03,0-.08,0l-.07.08.05.06s.02.01.04.02.03.01.03,0c0,0,0-.01,0-.03,0-.01,0-.02.02-.03,0,0,.01,0,.03,0,.02,0,.03,0,.04,0,.02,0,.02,0,.02,0v-.02s-.02-.06-.02-.06ZM32.82,19.54l.24.05.03-.17.31.06.2.18-.2.33h-.21s-.28-.09-.28-.09l-.12-.22.04-.14ZM33.39,19.4l-.16-.09-.07.11-.2-.11-.1-.18.22-.19.15.06.18.12.04.18-.05.09ZM32.99,19.86s.06,0,.09,0c.03,0,.06,0,.06,0,0,0,.02,0,.05,0,.03,0,.06,0,.08.01.02,0,.04,0,.04,0l.15-.17-.11-.11s-.02,0-.04-.02c-.02-.01-.03-.02-.05-.03s-.03-.02-.04-.02c-.01,0-.02,0-.02,0,0,.02,0,.04,0,.07,0,.03-.02.05-.03.05-.01,0-.03,0-.07.01s-.07,0-.1.01-.04,0-.05,0l-.02.06.06.11ZM32.96,18.15l.08.04.03-.05.1.05.04.08-.1.08-.06-.03-.09-.05-.02-.08.03-.04ZM33.33,19.14s-.03-.01-.06-.02c-.03,0-.04-.01-.04-.01s-.02,0-.03-.01c-.02,0-.04-.02-.06-.03-.02,0-.02-.01-.03-.02l-.14.08.05.1s.02.01.03.03c0,.01.02.02.02.03,0,.01.02.02.02.02,0,0,.01,0,.01,0,0-.02,0-.03.02-.05,0-.02.02-.03.03-.03,0,0,.03,0,.06,0,.03,0,.06.01.07.02.02,0,.03,0,.03,0l.03-.03-.02-.1ZM32.99,18.27s.01.01.03.01c.01,0,.02,0,.03,0,0,0,.02,0,.05.03l.06-.04-.02-.05s-.01-.01-.02-.03c0-.01-.02-.02-.02-.01,0,0,0,.01-.01.02,0,0-.01.01-.02.01s-.03,0-.07-.02v.02s0,.04,0,.04ZM33.22,18.12l-.06-.02v.04s-.08-.02-.08-.02l-.05-.04.05-.09h.05s.07.03.07.03l.03.06v.04ZM33.06,18.72l.15.02.03-.11.2.04.13.12-.13.21h-.14l-.19-.06-.08-.14.02-.08ZM33.18,18.04h-.04s-.02,0-.04,0l-.04.04.03.03s.01,0,.02.01c.01,0,.02,0,.02,0v-.02s0-.01,0-.01c0,0,.02,0,.06-.01h0s-.01-.04-.01-.04ZM33.42,18.62l-.1-.06-.05.07-.13-.07-.06-.11.14-.12.1.04.12.08.02.11-.03.06ZM33.17,18.92h.09s.01,0,.03,0,.04,0,.06,0c.02,0,.02,0,.03,0l.08-.11-.06-.07s-.03-.02-.06-.03c-.02-.01-.04-.02-.04,0,0,.01,0,.02,0,.04,0,.02-.01.03-.02.03,0,0-.02,0-.05,0-.02,0-.04,0-.06,0-.02,0-.03,0-.03,0l-.02.04.04.08ZM33.39,18.46s-.02-.01-.04-.02c-.02,0-.02-.01-.03-.01,0,0-.03-.01-.07-.04l-.09.06.03.07s.02.02.03.03c.01.02.02.02.03.01,0,0,0-.02,0-.03,0-.01.01-.02.02-.02.01,0,.05,0,.11.02v-.02s0-.06,0-.06ZM33.22,18.2l.08.02v-.06s.12.02.12.02l.07.06-.07.11h-.08s-.1-.03-.1-.03l-.04-.07.02-.05ZM33.41,18.16l-.05-.03-.03.04-.07-.04-.03-.06.08-.06.11.06v.06s0,.03,0,.03ZM33.27,18.31h.12s.04-.05.04-.05l-.04-.04s-.02-.01-.03-.02c-.01,0-.02,0-.02,0s0,.01,0,.02c0,.01,0,.02-.02.02,0,0-.03,0-.07.01v.02s0,.04,0,.04ZM33.39,18.07s-.01,0-.02-.01c-.01,0-.02,0-.02,0,0,0-.02,0-.04-.02l-.05.03.02.04s.01.01.02.02c0,0,0,0,.01,0,0,0,0,0,0-.01,0,0,0-.01,0-.01,0,0,.03,0,.06.01h0s0-.04,0-.04ZM33.62,18.12h-.06s-.01.03-.01.03l-.08-.02-.05-.04.05-.09h.06s.07.03.07.03l.03.06v.03ZM34.02,19.29l-.17-.04-.03.13-.22-.05-.15-.13.15-.25h.15s.21.07.21.07l.1.16-.03.1ZM33.83,18.55l-.11-.02-.02.08-.15-.03-.1-.08.1-.16h.1s.14.05.14.05l.06.1-.02.06ZM33.58,18.04h-.08s-.03.03-.03.03l.03.03s.01,0,.02.01c0,0,.01,0,.01,0,0,0,0-.01,0-.02,0,0,0-.01,0-.01,0,0,.03,0,.06,0h0s-.02-.04-.02-.04ZM33.51,18.15l.07.04.03-.05.1.05.04.08-.1.08-.06-.03-.08-.05-.02-.08.03-.04ZM33.53,18.27s.01,0,.03.01.02,0,.02,0,.02,0,.05.02l.07-.04-.02-.05s-.01-.01-.02-.03c0-.01-.02-.02-.02-.01,0,0,0,.01-.01.02,0,0-.01.01-.02.01,0,0-.03,0-.07-.01h-.01s.01.06.01.06ZM33.75,18.4s-.03,0-.07,0c0,0-.03,0-.08,0l-.07.08.06.06s.02,0,.04.02c.01.01.02.01.02,0,0,0,0-.01,0-.03,0-.01,0-.02.02-.03,0,0,.02,0,.03,0,.02,0,.03,0,.05,0s.02,0,.03,0v-.02s-.03-.06-.03-.06ZM33.89,19.06s-.04,0-.06,0-.04,0-.04,0-.02,0-.03,0c-.02,0-.04,0-.06-.01s-.03,0-.03,0l-.11.12.08.08s.02,0,.03.02c.01,0,.02.02.03.02.01,0,.02.01.03.01,0,0,.01,0,.01,0,0-.01,0-.03,0-.05s.01-.03.02-.04c0,0,.03,0,.06,0,.03,0,.06,0,.08,0,.02,0,.03,0,.03,0l.02-.04-.05-.08ZM33.61,18.61l.14.08.06-.09.18.09.09.15-.19.16-.12-.05-.15-.1-.03-.16.04-.08ZM33.67,19.39l.21.12.09-.15.27.15.14.24-.3.25-.2-.08-.24-.16-.05-.25.07-.12ZM33.81,18.16l-.05-.03-.02.04-.07-.04-.04-.06.08-.06.05.02.06.04.02.06-.02.03ZM33.66,18.84s.03.01.05.02c.02,0,.04.01.04.01,0,0,.01,0,.03.01.02,0,.03.02.04.02s.02.01.02.01l.12-.07-.04-.1s-.03-.02-.05-.05c-.02-.02-.03-.03-.03-.02,0,.01-.01.03-.02.04,0,.01-.02.02-.03.02,0,0-.02,0-.04,0-.02,0-.04,0-.06-.01s-.03,0-.03,0l-.03.02v.09ZM33.8,18.07s-.02,0-.03-.02c0,0-.02,0-.04-.02l-.05.03.02.04s.01.01.02.02c0,0,0,0,0,0,0,0,0,0,0-.01,0,0,0-.01.01-.01,0,0,.03,0,.06.02h0s-.01-.04-.01-.04ZM33.75,19.74s.05.01.08.03c.03.01.06.02.06.02,0,0,.02,0,.04.02.03.01.05.02.07.04.02.01.04.02.04.02l.19-.11-.07-.14s-.02-.02-.03-.03c-.01-.01-.02-.03-.03-.04-.01-.01-.02-.02-.03-.03,0,0-.01,0-.02,0,0,.02-.02.04-.03.07-.02.03-.03.04-.05.04-.01,0-.03,0-.07-.01-.03,0-.07-.02-.1-.02-.03,0-.04-.01-.05-.01l-.04.04.02.13ZM33.76,18.2l.08.02v-.06s.12.02.12.02l.07.06-.07.11h-.07s-.1-.03-.1-.03l-.04-.07v-.05ZM33.82,18.31s.03,0,.06,0c0,0,.02,0,.06,0l.05-.06-.04-.04s-.02-.01-.03-.02c-.01,0-.02,0-.02,0s0,.01,0,.02c0,.01,0,.02-.01.02,0,0-.03,0-.08,0v.02s.01.04.01.04ZM34.19,18.62l-.1-.06-.04.07-.13-.07-.07-.11.15-.12.1.04.12.07.02.12-.03.06ZM34.15,18.46s-.02-.01-.04-.02c-.02,0-.03-.01-.03-.01,0,0-.03-.01-.08-.04l-.09.06.03.06s.02.02.03.04c.01.02.02.02.02.01,0,0,0-.01.02-.03,0-.01.02-.02.02-.02s.04,0,.1.02l.02-.02v-.06ZM34.57,19.41l-.16-.09-.07.1-.2-.11-.1-.18.22-.18.15.06.18.12.04.18-.06.09ZM34.08,18.71l.16.02.02-.1.2.04.13.12-.13.21h-.13l-.18-.06-.08-.14.02-.09ZM34.52,19.14s-.04-.01-.06-.02c-.02,0-.04-.01-.04-.01,0,0-.01,0-.03-.01-.02,0-.04-.02-.06-.03-.02,0-.03-.01-.03-.02l-.14.08.06.1s.03.03.05.06c.02.03.03.03.03.02s0-.03.02-.05c0-.02.02-.03.04-.03,0,0,.02,0,.05.01.03,0,.05.01.07.02s.03,0,.03,0l.03-.03-.02-.1ZM34.2,18.91s.03,0,.06,0c.02,0,.04,0,.04,0s.01,0,.03,0,.04,0,.05,0c.02,0,.03,0,.03,0l.09-.11-.07-.07s-.03-.02-.05-.03c-.02-.02-.03-.02-.03,0,0,.01,0,.03,0,.05s-.01.03-.02.03c0,0-.02,0-.05,0-.02,0-.04,0-.06,0s-.03,0-.03,0l-.02.04.04.07ZM34.42,19.54l.24.05.03-.17.31.06.2.18-.2.33h-.21s-.28-.09-.28-.09l-.12-.22.04-.14ZM34.59,19.85h.04s.03,0,.05,0c.02,0,.03,0,.04,0h.02s.02,0,.05,0,.06,0,.08.01c.02,0,.04,0,.04,0l.15-.17-.1-.11s-.02-.01-.04-.02c-.02-.01-.03-.02-.05-.03-.02,0-.03-.02-.04-.02-.01,0-.02,0-.02,0,0,.02,0,.04,0,.07,0,.03-.02.05-.04.05-.01,0-.03,0-.07.01-.03,0-.07,0-.1.01-.03,0-.04,0-.05,0l-.02.06.06.11Z" fill="#6c6967"/>
    </g>
  </g>
</svg>