<?xml version="1.0" encoding="UTF-8"?>
<svg id="Layer_2" xmlns="http://www.w3.org/2000/svg" viewBox="0 0 40.4 45.5">
  <g id="Temporary_x5F_coppicepair">
    <g isolation="isolate">
      <path d="M20.25,2.76l-.09.04-.12-.39.09-.03.12.38ZM21.84,1.45l-.1.15-.17.41v.21s-.17.63-.17.63h-.01l-.2-.56-.25-.14-.02.61h-.09s.03-.64.03-.64v-.02s-.34-.2-.34-.2h-.17s-.12-.09-.12-.09l.05-.08.09.07v-.15s-.06-.49-.06-.49v-.58s.09,0,.09,0v.57s.07.49.07.49v.16s.1,0,.1,0l.31.19.06-.38v-.1s-.11-.18-.11-.18V.04h.09v1.08l.32-.27v-.1s.22-.6.22-.6l.08.05-.21.57v.13s-.41.34-.41.34v.08l.12.19v.13s-.08.42-.08.42l.31.18.12.35.1-.38v-.21s.19-.44.19-.44l.11-.15.07.06ZM20.42,2.51v.24h-.1v-.23s.1,0,.1,0h0Z" fill="#6c6967"/>
    </g>
    <g isolation="isolate">
      <path d="M22.61,3.48l-.04.02-.06-.19.04-.02.06.19ZM23.41,2.82l-.05.08-.08.2v.1s-.09.32-.09.32h0l-.1-.28-.12-.07v.31s-.06,0-.06,0v-.32s.01-.01.01-.01l-.17-.1h-.08s-.06-.04-.06-.04l.03-.04.05.03v-.07s-.03-.24-.03-.24v-.29s.05,0,.05,0v.29s.04.24.04.24v.08s.05,0,.05,0l.15.09.03-.19v-.05s-.06-.09-.06-.09v-.66h.05v.54l.16-.13v-.05s.11-.3.11-.3l.04.02-.1.29v.06s-.2.17-.2.17v.04l.06.09v.06s-.04.21-.04.21l.16.09.06.17.05-.19v-.11s.09-.22.09-.22l.06-.08.04.03ZM22.7,3.35v.12h-.05v-.12h.05Z" fill="#6c6967"/>
    </g>
    <g isolation="isolate">
      <path d="M22.61,3.48l-.04.02-.06-.19.04-.02.06.19ZM23.41,2.82l-.05.08-.08.2v.1s-.09.32-.09.32h0l-.1-.28-.12-.07v.31s-.06,0-.06,0v-.32s.01-.01.01-.01l-.17-.1h-.08s-.06-.04-.06-.04l.03-.04.05.03v-.07s-.03-.24-.03-.24v-.29s.05,0,.05,0v.29s.04.24.04.24v.08s.05,0,.05,0l.15.09.03-.19v-.05s-.06-.09-.06-.09v-.66h.05v.54l.16-.13v-.05s.11-.3.11-.3l.04.02-.1.29v.06s-.2.17-.2.17v.04l.06.09v.06s-.04.21-.04.21l.16.09.06.17.05-.19v-.11s.09-.22.09-.22l.06-.08.04.03ZM22.7,3.35v.12h-.05v-.12h.05Z" fill="#6c6967" stroke="#fff" stroke-width=".04"/>
    </g>
  </g>
  <g id="Temporary_x5F_coppicepair-2" data-name="Temporary_x5F_coppicepair" isolation="isolate">
    <g isolation="isolate">
      <path d="M37.21,2.73l-.09.04-.12-.38.09-.03.12.38ZM38.8,1.41l-.1.15-.17.41v.21s-.17.63-.17.63h-.01l-.2-.56-.25-.13-.02.61h-.09s.03-.64.03-.64v-.02s-.34-.2-.34-.2h-.17s-.12-.09-.12-.09l.05-.08.09.07v-.15s-.06-.49-.06-.49v-.58s.09,0,.09,0v.57s.07.49.07.49v.16s.09,0,.09,0l.31.19.06-.38v-.1s-.11-.18-.11-.18V0h.09v1.08l.32-.27v-.1s.21-.6.21-.6l.08.05-.21.57v.13s-.41.34-.41.34v.08l.12.19v.13s-.08.42-.08.42l.31.18.12.35.1-.38v-.21s.18-.44.18-.44l.11-.16.07.06ZM37.38,2.47v.23h-.1v-.23h.1Z" fill="#6c6967"/>
    </g>
    <g isolation="isolate">
      <path d="M39.58,3.44l-.04.02-.06-.19.04-.02.06.19ZM40.37,2.78l-.05.08-.09.2v.1s-.08.32-.08.32h0l-.1-.28-.12-.07v.31s-.06,0-.06,0v-.32s.01-.01.01-.01l-.17-.1h-.08s-.06-.04-.06-.04l.03-.04.05.03v-.07s-.03-.24-.03-.24v-.29s.04,0,.04,0v.29s.04.24.04.24v.08s.05,0,.05,0l.15.09.03-.19v-.05s-.05-.09-.05-.09v-.65h.04v.54l.16-.13v-.05s.11-.3.11-.3l.04.02-.1.29v.06s-.2.17-.2.17v.04l.06.09v.06s-.04.21-.04.21l.15.09.06.17.05-.19v-.11s.09-.22.09-.22l.06-.08.03.03ZM39.66,3.32v.12h-.05v-.12h.05Z" fill="#6c6967"/>
    </g>
    <g isolation="isolate">
      <path d="M39.58,3.44l-.04.02-.06-.19.04-.02.06.19ZM40.37,2.78l-.05.08-.09.2v.1s-.08.32-.08.32h0l-.1-.28-.12-.07v.31s-.06,0-.06,0v-.32s.01-.01.01-.01l-.17-.1h-.08s-.06-.04-.06-.04l.03-.04.05.03v-.07s-.03-.24-.03-.24v-.29s.04,0,.04,0v.29s.04.24.04.24v.08s.05,0,.05,0l.15.09.03-.19v-.05s-.05-.09-.05-.09v-.65h.04v.54l.16-.13v-.05s.11-.3.11-.3l.04.02-.1.29v.06s-.2.17-.2.17v.04l.06.09v.06s-.04.21-.04.21l.15.09.06.17.05-.19v-.11s.09-.22.09-.22l.06-.08.03.03ZM39.66,3.32v.12h-.05v-.12h.05Z" fill="#6c6967" stroke="#fff" stroke-width=".04"/>
    </g>
  </g>
  <g id="Temporary_x5F_coppicepair-3" data-name="Temporary_x5F_coppicepair" isolation="isolate">
    <g isolation="isolate">
      <path d="M31.21,10.73l-.09.04-.12-.39.09-.03.12.38ZM32.8,9.41l-.1.15-.17.41v.21s-.17.63-.17.63h-.01l-.2-.56-.25-.14-.02.61h-.09s.03-.64.03-.64v-.02s-.34-.2-.34-.2h-.17s-.12-.09-.12-.09l.05-.07.1.07v-.15s-.06-.49-.06-.49v-.58s.09,0,.09,0v.57s.07.49.07.49v.16s.1,0,.1,0l.31.19.06-.38v-.1s-.11-.18-.11-.18v-1.31h.09v1.08l.32-.27v-.1s.22-.6.22-.6l.08.05-.21.57v.13s-.41.34-.41.34v.08l.12.19v.13s-.08.42-.08.42l.31.18.12.35.1-.38v-.21s.19-.44.19-.44l.11-.15.07.06ZM31.38,10.47v.23h-.1v-.23h.1Z" fill="#6c6967"/>
    </g>
    <g isolation="isolate">
      <path d="M33.58,11.44l-.04.02-.06-.19.04-.02.06.19ZM34.37,10.78l-.05.08-.09.2v.1s-.09.32-.09.32h0l-.1-.28-.12-.07v.31s-.06,0-.06,0v-.32s.02-.01.02-.01l-.17-.1h-.08s-.06-.05-.06-.05l.03-.04.05.03v-.07s-.03-.24-.03-.24v-.29s.04,0,.04,0v.29s.04.24.04.24v.08s.05,0,.05,0l.15.09.03-.19v-.05s-.06-.09-.06-.09v-.65h.05v.54l.16-.13v-.05s.11-.3.11-.3l.04.02-.1.29v.06s-.2.17-.2.17v.04l.06.09v.06s-.04.21-.04.21l.15.09.06.17.05-.19v-.11s.09-.22.09-.22l.05-.08.03.03ZM33.66,11.32v.12h-.05v-.12h.05Z" fill="#6c6967"/>
    </g>
    <g isolation="isolate">
      <path d="M33.58,11.44l-.04.02-.06-.19.04-.02.06.19ZM34.37,10.78l-.05.08-.09.2v.1s-.09.32-.09.32h0l-.1-.28-.12-.07v.31s-.06,0-.06,0v-.32s.02-.01.02-.01l-.17-.1h-.08s-.06-.05-.06-.05l.03-.04.05.03v-.07s-.03-.24-.03-.24v-.29s.04,0,.04,0v.29s.04.24.04.24v.08s.05,0,.05,0l.15.09.03-.19v-.05s-.06-.09-.06-.09v-.65h.05v.54l.16-.13v-.05s.11-.3.11-.3l.04.02-.1.29v.06s-.2.17-.2.17v.04l.06.09v.06s-.04.21-.04.21l.15.09.06.17.05-.19v-.11s.09-.22.09-.22l.05-.08.03.03ZM33.66,11.32v.12h-.05v-.12h.05Z" fill="#6c6967" stroke="#fff" stroke-width=".04"/>
    </g>
  </g>
  <g id="Temporary_x5F_coppicepair-4" data-name="Temporary_x5F_coppicepair" isolation="isolate">
    <g isolation="isolate">
      <path d="M5.21,12.75l-.09.04-.12-.39.09-.03.12.38ZM6.8,11.44l-.1.15-.17.41v.21s-.17.63-.17.63h-.02l-.2-.56-.25-.14-.02.61h-.09s.03-.64.03-.64v-.02s-.34-.2-.34-.2h-.17s-.12-.09-.12-.09l.05-.07.09.07v-.15s-.06-.49-.06-.49v-.58s.09,0,.09,0v.57s.07.49.07.49v.16s.1,0,.1,0l.31.19.06-.38v-.1s-.11-.18-.11-.18v-1.31h.09v1.08l.32-.27v-.1s.22-.6.22-.6l.08.05-.21.57v.13s-.41.34-.41.34v.08l.12.19v.13s-.08.42-.08.42l.31.18.12.35.1-.38v-.21s.19-.44.19-.44l.11-.15.07.06ZM5.38,12.5v.23h-.1v-.23h.1Z" fill="#6c6967"/>
    </g>
    <g isolation="isolate">
      <path d="M7.58,13.47l-.04.02-.06-.19.04-.02.06.19ZM8.37,12.81l-.05.08-.09.2v.1s-.09.32-.09.32h0l-.1-.28-.12-.07v.31s-.06,0-.06,0v-.32s.02-.01.02-.01l-.17-.1h-.08s-.06-.05-.06-.05l.03-.04.05.03v-.07s-.03-.24-.03-.24v-.29s.05,0,.05,0v.29s.04.24.04.24v.08s.05,0,.05,0l.15.09.03-.19v-.05s-.06-.09-.06-.09v-.65h.05v.54l.16-.13v-.05s.11-.3.11-.3l.04.02-.1.29v.06s-.2.17-.2.17v.04l.06.09v.06s-.04.21-.04.21l.16.09.06.17.05-.19v-.11s.09-.22.09-.22l.05-.08.04.03ZM7.66,13.34v.12h-.05v-.12h.05Z" fill="#6c6967"/>
    </g>
    <g isolation="isolate">
      <path d="M7.58,13.47l-.04.02-.06-.19.04-.02.06.19ZM8.37,12.81l-.05.08-.09.2v.1s-.09.32-.09.32h0l-.1-.28-.12-.07v.31s-.06,0-.06,0v-.32s.02-.01.02-.01l-.17-.1h-.08s-.06-.05-.06-.05l.03-.04.05.03v-.07s-.03-.24-.03-.24v-.29s.05,0,.05,0v.29s.04.24.04.24v.08s.05,0,.05,0l.15.09.03-.19v-.05s-.06-.09-.06-.09v-.65h.05v.54l.16-.13v-.05s.11-.3.11-.3l.04.02-.1.29v.06s-.2.17-.2.17v.04l.06.09v.06s-.04.21-.04.21l.16.09.06.17.05-.19v-.11s.09-.22.09-.22l.05-.08.04.03ZM7.66,13.34v.12h-.05v-.12h.05Z" fill="#6c6967" stroke="#fff" stroke-width=".04"/>
    </g>
  </g>
  <g id="Temporary_x5F_coppicepair-5" data-name="Temporary_x5F_coppicepair" isolation="isolate">
    <g isolation="isolate">
      <path d="M.21,22.63l-.09.04-.12-.39.09-.03.12.38ZM1.8,21.31l-.1.15-.17.41v.21s-.17.63-.17.63h-.01l-.2-.56-.25-.14-.02.61h-.09s.03-.64.03-.64v-.02s-.34-.2-.34-.2h-.17s-.12-.09-.12-.09l.05-.08.09.07v-.15s-.06-.49-.06-.49v-.58s.09,0,.09,0v.57s.07.49.07.49v.16s.1,0,.1,0l.31.19.06-.38v-.1s-.11-.18-.11-.18v-1.31h.09v1.08l.32-.27v-.1s.22-.6.22-.6l.08.05-.21.57v.13s-.41.34-.41.34v.08l.12.19v.13s-.08.42-.08.42l.31.18.12.35.1-.38v-.21s.19-.44.19-.44l.11-.16.07.06ZM.38,22.37v.23h-.1v-.23h.1Z" fill="#6c6967"/>
    </g>
    <g isolation="isolate">
      <path d="M2.58,23.35l-.04.02-.06-.19.04-.02.06.19ZM3.37,22.69l-.05.08-.09.2v.1s-.09.32-.09.32h0l-.1-.28-.12-.07v.31s-.06,0-.06,0v-.32s.01-.01.01-.01l-.17-.1h-.08s-.06-.05-.06-.05l.03-.04.05.03v-.08s-.03-.24-.03-.24v-.29s.05,0,.05,0v.29s.04.25.04.25v.08s.05,0,.05,0l.15.09.03-.19v-.05s-.06-.09-.06-.09v-.66h.05v.54l.16-.13v-.05s.11-.3.11-.3l.04.02-.1.29v.06s-.2.17-.2.17v.04l.06.09v.06s-.04.21-.04.21l.16.09.06.17.05-.19v-.11s.09-.22.09-.22l.05-.08.04.03ZM2.66,23.22v.12h-.05v-.12h.05Z" fill="#6c6967"/>
    </g>
    <g isolation="isolate">
      <path d="M2.58,23.35l-.04.02-.06-.19.04-.02.06.19ZM3.37,22.69l-.05.08-.09.2v.1s-.09.32-.09.32h0l-.1-.28-.12-.07v.31s-.06,0-.06,0v-.32s.01-.01.01-.01l-.17-.1h-.08s-.06-.05-.06-.05l.03-.04.05.03v-.08s-.03-.24-.03-.24v-.29s.05,0,.05,0v.29s.04.25.04.25v.08s.05,0,.05,0l.15.09.03-.19v-.05s-.06-.09-.06-.09v-.66h.05v.54l.16-.13v-.05s.11-.3.11-.3l.04.02-.1.29v.06s-.2.17-.2.17v.04l.06.09v.06s-.04.21-.04.21l.16.09.06.17.05-.19v-.11s.09-.22.09-.22l.05-.08.04.03ZM2.66,23.22v.12h-.05v-.12h.05Z" fill="#6c6967" stroke="#fff" stroke-width=".04"/>
    </g>
  </g>
  <g id="Temporary_x5F_coppicepair-6" data-name="Temporary_x5F_coppicepair" isolation="isolate">
    <g isolation="isolate">
      <path d="M5.21,35.76l-.09.04-.12-.39.09-.03.12.38ZM6.8,34.44l-.1.15-.17.41v.21s-.17.63-.17.63h-.02l-.2-.56-.25-.13-.02.61h-.09s.03-.64.03-.64v-.02s-.34-.2-.34-.2h-.17s-.12-.09-.12-.09l.05-.07.09.06v-.15s-.06-.49-.06-.49v-.58s.09,0,.09,0v.57s.07.49.07.49v.16s.1,0,.1,0l.31.19.06-.38v-.1s-.11-.18-.11-.18v-1.31h.09v1.08l.32-.27v-.1s.22-.6.22-.6l.08.05-.21.57v.13s-.41.34-.41.34v.08l.12.19v.13s-.08.42-.08.42l.31.18.12.35.1-.38v-.21s.19-.44.19-.44l.11-.15.07.06ZM5.38,35.5v.23h-.1v-.23h.1Z" fill="#6c6967"/>
    </g>
    <g isolation="isolate">
      <path d="M7.58,36.48l-.04.02-.06-.19.04-.02.06.19ZM8.37,35.82l-.05.08-.09.2v.1s-.09.31-.09.31h0l-.1-.28-.12-.07v.31s-.06,0-.06,0v-.32s.02,0,.02,0l-.17-.1h-.08s-.06-.04-.06-.04l.03-.04.05.03v-.08s-.03-.24-.03-.24v-.29s.05,0,.05,0v.29s.04.24.04.24v.08s.05,0,.05,0l.15.09.03-.19v-.05s-.06-.09-.06-.09v-.65h.05v.54l.16-.13v-.05s.11-.3.11-.3l.04.02-.1.28v.06s-.2.17-.2.17v.04l.06.09v.06s-.04.21-.04.21l.16.09.06.17.05-.19v-.1s.09-.22.09-.22l.05-.08.04.04ZM7.66,36.35v.12h-.05v-.12h.05Z" fill="#6c6967"/>
    </g>
    <g isolation="isolate">
      <path d="M7.58,36.48l-.04.02-.06-.19.04-.02.06.19ZM8.37,35.82l-.05.08-.09.2v.1s-.09.31-.09.31h0l-.1-.28-.12-.07v.31s-.06,0-.06,0v-.32s.02,0,.02,0l-.17-.1h-.08s-.06-.04-.06-.04l.03-.04.05.03v-.08s-.03-.24-.03-.24v-.29s.05,0,.05,0v.29s.04.24.04.24v.08s.05,0,.05,0l.15.09.03-.19v-.05s-.06-.09-.06-.09v-.65h.05v.54l.16-.13v-.05s.11-.3.11-.3l.04.02-.1.28v.06s-.2.17-.2.17v.04l.06.09v.06s-.04.21-.04.21l.16.09.06.17.05-.19v-.1s.09-.22.09-.22l.05-.08.04.04ZM7.66,36.35v.12h-.05v-.12h.05Z" fill="#6c6967" stroke="#fff" stroke-width=".04"/>
    </g>
  </g>
  <g id="Temporary_x5F_coppicepair-7" data-name="Temporary_x5F_coppicepair" isolation="isolate">
    <g isolation="isolate">
      <path d="M22.21,33.73l-.09.04-.12-.39.09-.03.12.39ZM23.8,32.41l-.1.15-.17.41v.21s-.17.63-.17.63h-.01l-.2-.56-.25-.14-.02.61h-.09s.03-.64.03-.64v-.02s-.34-.2-.34-.2h-.17s-.12-.09-.12-.09l.05-.07.09.06v-.15s-.06-.49-.06-.49v-.58s.09,0,.09,0v.57s.07.49.07.49v.16s.1,0,.1,0l.31.19.06-.38v-.1s-.11-.18-.11-.18v-1.31h.09v1.08l.32-.27v-.1s.22-.6.22-.6l.08.05-.21.57v.13s-.41.34-.41.34v.08l.12.19v.13s-.08.42-.08.42l.31.18.12.35.1-.38v-.21s.19-.44.19-.44l.11-.15.07.06ZM22.38,33.47v.23h-.1v-.23h.1Z" fill="#6c6967"/>
    </g>
    <g isolation="isolate">
      <path d="M24.58,34.44l-.04.02-.06-.19.04-.02.06.19ZM25.37,33.78l-.05.08-.09.2v.1s-.09.31-.09.31h0l-.1-.28-.12-.07v.31s-.06,0-.06,0v-.31s.02-.01.02-.01l-.17-.1h-.08s-.06-.04-.06-.04l.02-.04.05.03v-.08s-.03-.24-.03-.24v-.29s.04,0,.04,0v.28s.04.24.04.24v.08s.05,0,.05,0l.15.1.03-.19v-.05s-.06-.09-.06-.09v-.66h.05v.54l.16-.13v-.05s.11-.3.11-.3l.04.02-.1.29v.06s-.2.17-.2.17v.04l.06.09v.06s-.04.21-.04.21l.16.09.06.17.05-.19v-.1s.09-.22.09-.22l.06-.08.04.03ZM24.67,34.32v.12h-.05v-.12h.05Z" fill="#6c6967"/>
    </g>
    <g isolation="isolate">
      <path d="M24.58,34.44l-.04.02-.06-.19.04-.02.06.19ZM25.37,33.78l-.05.08-.09.2v.1s-.09.31-.09.31h0l-.1-.28-.12-.07v.31s-.06,0-.06,0v-.31s.02-.01.02-.01l-.17-.1h-.08s-.06-.04-.06-.04l.02-.04.05.03v-.08s-.03-.24-.03-.24v-.29s.04,0,.04,0v.28s.04.24.04.24v.08s.05,0,.05,0l.15.1.03-.19v-.05s-.06-.09-.06-.09v-.66h.05v.54l.16-.13v-.05s.11-.3.11-.3l.04.02-.1.29v.06s-.2.17-.2.17v.04l.06.09v.06s-.04.21-.04.21l.16.09.06.17.05-.19v-.1s.09-.22.09-.22l.06-.08.04.03ZM24.67,34.32v.12h-.05v-.12h.05Z" fill="#6c6967" stroke="#fff" stroke-width=".04"/>
    </g>
  </g>
  <g id="Temporary_x5F_coppicepair-8" data-name="Temporary_x5F_coppicepair" isolation="isolate">
    <g isolation="isolate">
      <path d="M37.21,32.73l-.09.04-.12-.39.09-.03.12.39ZM38.8,31.41l-.1.15-.17.41v.21s-.17.63-.17.63h-.01l-.2-.56-.25-.14-.02.61h-.09s.03-.64.03-.64v-.02s-.34-.2-.34-.2h-.17s-.12-.09-.12-.09l.05-.07.1.06v-.15s-.06-.49-.06-.49v-.58s.09,0,.09,0v.57s.07.49.07.49v.16s.1,0,.1,0l.31.19.06-.38v-.1s-.11-.18-.11-.18v-1.31h.09v1.08l.32-.27v-.1s.22-.6.22-.6l.08.05-.21.57v.13s-.41.34-.41.34v.08l.12.19v.13s-.08.42-.08.42l.31.18.12.35.1-.38v-.21s.19-.44.19-.44l.11-.15.07.06ZM37.38,32.47v.23h-.1v-.23h.1Z" fill="#6c6967"/>
    </g>
    <g isolation="isolate">
      <path d="M39.58,33.44l-.04.02-.06-.19.04-.02.06.19ZM40.37,32.78l-.05.08-.09.2v.1s-.09.31-.09.31h0l-.1-.28-.12-.07v.31s-.06,0-.06,0v-.31s.02-.01.02-.01l-.17-.1h-.08s-.06-.04-.06-.04l.03-.04.05.03v-.08s-.03-.24-.03-.24v-.29s.04,0,.04,0v.28s.04.24.04.24v.08s.05,0,.05,0l.15.1.03-.19v-.05s-.06-.09-.06-.09v-.66h.05v.54l.16-.13v-.05s.11-.3.11-.3l.04.02-.1.29v.06s-.2.17-.2.17v.04l.06.09v.06s-.04.21-.04.21l.15.09.06.17.05-.19v-.1s.09-.22.09-.22l.06-.08.04.03ZM39.66,33.32v.12h-.05v-.12h.05Z" fill="#6c6967"/>
    </g>
    <g isolation="isolate">
      <path d="M39.58,33.44l-.04.02-.06-.19.04-.02.06.19ZM40.37,32.78l-.05.08-.09.2v.1s-.09.31-.09.31h0l-.1-.28-.12-.07v.31s-.06,0-.06,0v-.31s.02-.01.02-.01l-.17-.1h-.08s-.06-.04-.06-.04l.03-.04.05.03v-.08s-.03-.24-.03-.24v-.29s.04,0,.04,0v.28s.04.24.04.24v.08s.05,0,.05,0l.15.1.03-.19v-.05s-.06-.09-.06-.09v-.66h.05v.54l.16-.13v-.05s.11-.3.11-.3l.04.02-.1.29v.06s-.2.17-.2.17v.04l.06.09v.06s-.04.21-.04.21l.15.09.06.17.05-.19v-.1s.09-.22.09-.22l.06-.08.04.03ZM39.66,33.32v.12h-.05v-.12h.05Z" fill="#6c6967" stroke="#fff" stroke-width=".04"/>
    </g>
  </g>
  <g id="Temporary_x5F_coppicepair-9" data-name="Temporary_x5F_coppicepair" isolation="isolate">
    <g isolation="isolate">
      <path d="M34.21,44.73l-.09.04-.12-.39.09-.03.12.39ZM35.8,43.41l-.1.15-.17.41v.21s-.17.63-.17.63h-.01l-.2-.56-.25-.14-.02.61h-.09s.03-.64.03-.64v-.02s-.34-.2-.34-.2h-.17s-.12-.09-.12-.09l.05-.07.1.06v-.15s-.06-.49-.06-.49v-.58s.09,0,.09,0v.57s.07.49.07.49v.16s.1,0,.1,0l.31.19.06-.38v-.1s-.11-.18-.11-.18v-1.31h.09v1.08l.32-.27v-.1s.22-.6.22-.6l.08.05-.21.57v.13s-.41.34-.41.34v.08l.12.19v.13s-.08.42-.08.42l.31.18.12.35.1-.38v-.21s.19-.44.19-.44l.11-.15.07.06ZM34.38,44.47v.23h-.1v-.23h.1Z" fill="#6c6967"/>
    </g>
    <g isolation="isolate">
      <path d="M36.58,45.44l-.04.02-.06-.19.04-.02.06.19ZM37.37,44.78l-.05.08-.09.2v.1s-.09.31-.09.31h0l-.1-.28-.12-.07v.31s-.06,0-.06,0v-.31s.02-.01.02-.01l-.17-.1h-.08s-.06-.04-.06-.04l.03-.04.05.03v-.08s-.03-.24-.03-.24v-.29s.04,0,.04,0v.28s.04.24.04.24v.08s.05,0,.05,0l.15.1.03-.19v-.05s-.06-.09-.06-.09v-.66h.05v.54l.16-.13v-.05s.11-.3.11-.3l.04.02-.1.29v.06s-.2.17-.2.17v.04l.06.09v.06s-.04.21-.04.21l.15.09.06.17.05-.19v-.1s.09-.22.09-.22l.06-.08.04.03ZM36.66,45.32v.12h-.05v-.12h.05Z" fill="#6c6967"/>
    </g>
    <g isolation="isolate">
      <path d="M36.58,45.44l-.04.02-.06-.19.04-.02.06.19ZM37.37,44.78l-.05.08-.09.2v.1s-.09.31-.09.31h0l-.1-.28-.12-.07v.31s-.06,0-.06,0v-.31s.02-.01.02-.01l-.17-.1h-.08s-.06-.04-.06-.04l.03-.04.05.03v-.08s-.03-.24-.03-.24v-.29s.04,0,.04,0v.28s.04.24.04.24v.08s.05,0,.05,0l.15.1.03-.19v-.05s-.06-.09-.06-.09v-.66h.05v.54l.16-.13v-.05s.11-.3.11-.3l.04.02-.1.29v.06s-.2.17-.2.17v.04l.06.09v.06s-.04.21-.04.21l.15.09.06.17.05-.19v-.1s.09-.22.09-.22l.06-.08.04.03ZM36.66,45.32v.12h-.05v-.12h.05Z" fill="#6c6967" stroke="#fff" stroke-width=".04"/>
    </g>
  </g>
  <g id="Temporary_x5F_coppicepair-10" data-name="Temporary_x5F_coppicepair" isolation="isolate">
    <g isolation="isolate">
      <path d="M.21,44.7l-.09.04-.12-.38.09-.03.12.38ZM1.8,43.39l-.1.15-.17.41v.21s-.17.63-.17.63h-.01l-.2-.56-.25-.14-.02.61h-.09s.03-.64.03-.64v-.02s-.34-.2-.34-.2h-.17s-.12-.09-.12-.09l.05-.07.09.06v-.15s-.06-.49-.06-.49v-.58s.09,0,.09,0v.57s.07.49.07.49v.16s.1,0,.1,0l.31.19.06-.38v-.1s-.11-.18-.11-.18v-1.31h.09v1.08l.32-.27v-.1s.22-.6.22-.6l.08.05-.21.57v.13s-.41.34-.41.34v.08l.12.19v.13s-.08.42-.08.42l.31.18.12.35.1-.38v-.21s.19-.44.19-.44l.11-.16.07.06ZM.38,44.45v.23h-.1v-.23h.1Z" fill="#6c6967"/>
    </g>
    <g isolation="isolate">
      <path d="M2.58,45.42l-.04.02-.06-.19.04-.02.06.19ZM3.37,44.76l-.05.08-.09.2v.1s-.09.31-.09.31h0l-.1-.28-.12-.06v.31s-.06,0-.06,0v-.31s.01-.01.01-.01l-.17-.1h-.08s-.06-.04-.06-.04l.03-.04.05.03v-.08s-.03-.24-.03-.24v-.29s.05,0,.05,0v.28s.04.25.04.25v.08s.05,0,.05,0l.15.09.03-.19v-.05s-.06-.09-.06-.09v-.65h.05v.54l.16-.13v-.05s.11-.3.11-.3l.04.02-.1.29v.06s-.2.18-.2.18v.04l.06.09v.06s-.04.21-.04.21l.16.09.06.17.05-.19v-.1s.09-.22.09-.22l.05-.08.04.03ZM2.66,45.29v.12h-.05v-.12h.05Z" fill="#6c6967"/>
    </g>
    <g isolation="isolate">
      <path d="M2.58,45.42l-.04.02-.06-.19.04-.02.06.19ZM3.37,44.76l-.05.08-.09.2v.1s-.09.31-.09.31h0l-.1-.28-.12-.06v.31s-.06,0-.06,0v-.31s.01-.01.01-.01l-.17-.1h-.08s-.06-.04-.06-.04l.03-.04.05.03v-.08s-.03-.24-.03-.24v-.29s.05,0,.05,0v.28s.04.25.04.25v.08s.05,0,.05,0l.15.09.03-.19v-.05s-.06-.09-.06-.09v-.65h.05v.54l.16-.13v-.05s.11-.3.11-.3l.04.02-.1.29v.06s-.2.18-.2.18v.04l.06.09v.06s-.04.21-.04.21l.16.09.06.17.05-.19v-.1s.09-.22.09-.22l.05-.08.04.03ZM2.66,45.29v.12h-.05v-.12h.05Z" fill="#6c6967" stroke="#fff" stroke-width=".04"/>
    </g>
  </g>
  <g id="Temporary_x5F_coppicepair-11" data-name="Temporary_x5F_coppicepair" isolation="isolate">
    <g isolation="isolate">
      <path d="M32.21,20.73l-.09.04-.12-.39.09-.03.12.38ZM33.8,19.41l-.1.15-.17.41v.21s-.17.63-.17.63h-.01l-.2-.56-.25-.14-.02.61h-.09s.03-.64.03-.64v-.02s-.34-.2-.34-.2h-.17s-.12-.09-.12-.09l.05-.08.1.07v-.15s-.06-.49-.06-.49v-.58s.09,0,.09,0v.57s.07.49.07.49v.16s.1,0,.1,0l.31.19.06-.38v-.1s-.11-.18-.11-.18v-1.31h.09v1.08l.32-.27v-.1s.22-.6.22-.6l.08.05-.21.57v.13s-.41.34-.41.34v.08l.12.19v.13s-.08.42-.08.42l.31.18.12.35.1-.38v-.21s.19-.44.19-.44l.11-.16.07.06ZM32.38,20.47v.23h-.1v-.23h.1Z" fill="#6c6967"/>
    </g>
    <g isolation="isolate">
      <path d="M34.57,21.44l-.04.02-.06-.19.04-.02.06.19ZM35.37,20.79l-.05.08-.09.2v.1s-.09.32-.09.32h0l-.1-.28-.12-.07v.31s-.06,0-.06,0v-.32s.02-.01.02-.01l-.17-.1h-.08s-.06-.05-.06-.05l.03-.04.05.03v-.08s-.03-.24-.03-.24v-.29s.04,0,.04,0v.29s.04.25.04.25v.08s.05,0,.05,0l.15.09.03-.19v-.05s-.06-.09-.06-.09v-.66h.05v.54l.16-.13v-.05s.11-.3.11-.3l.04.02-.1.29v.06s-.2.17-.2.17v.04l.06.09v.06s-.04.21-.04.21l.15.09.06.17.05-.19v-.11s.1-.22.1-.22l.05-.08.04.03ZM34.66,21.32v.12h-.05v-.12h.05Z" fill="#6c6967"/>
    </g>
    <g isolation="isolate">
      <path d="M34.57,21.44l-.04.02-.06-.19.04-.02.06.19ZM35.37,20.79l-.05.08-.09.2v.1s-.09.32-.09.32h0l-.1-.28-.12-.07v.31s-.06,0-.06,0v-.32s.02-.01.02-.01l-.17-.1h-.08s-.06-.05-.06-.05l.03-.04.05.03v-.08s-.03-.24-.03-.24v-.29s.04,0,.04,0v.29s.04.25.04.25v.08s.05,0,.05,0l.15.09.03-.19v-.05s-.06-.09-.06-.09v-.66h.05v.54l.16-.13v-.05s.11-.3.11-.3l.04.02-.1.29v.06s-.2.17-.2.17v.04l.06.09v.06s-.04.21-.04.21l.15.09.06.17.05-.19v-.11s.1-.22.1-.22l.05-.08.04.03ZM34.66,21.32v.12h-.05v-.12h.05Z" fill="#6c6967" stroke="#fff" stroke-width=".04"/>
    </g>
  </g>
</svg>