<?xml version="1.0" encoding="utf-8"?>
<!-- Generator: Adobe Illustrator 16.0.3, SVG Export Plug-In . SVG Version: 6.00 Build 0)  -->
<!DOCTYPE svg PUBLIC "-//W3C//DTD SVG 1.1//EN" "http://www.w3.org/Graphics/SVG/1.1/DTD/svg11.dtd">
<svg version="1.1"
	 id="svg2" xmlns:rdf="http://www.w3.org/1999/02/22-rdf-syntax-ns#" xmlns:inkscape="http://www.inkscape.org/namespaces/inkscape" xmlns:svg="http://www.w3.org/2000/svg" xmlns:dc="http://purl.org/dc/elements/1.1/" xmlns:cc="http://creativecommons.org/ns#" xmlns:sodipodi="http://sodipodi.sourceforge.net/DTD/sodipodi-0.dtd" inkscape:output_extension="org.inkscape.output.svg.inkscape" sodipodi:version="0.32" sodipodi:docname="positionedNonconiferousTreeSymbol.svg" inkscape:version="0.46"
	 xmlns="http://www.w3.org/2000/svg" xmlns:xlink="http://www.w3.org/1999/xlink" x="0px" y="0px" width="2.705px" height="6.2px"
	 viewBox="0 0 2.705 6.2" enable-background="new 0 0 2.705 6.2" xml:space="preserve">
<g id="positionedNonconiferousTreeSymbol" transform="matrix(1,0,0,-1,1.3524953,1.4671435)">
	<g id="path4">
		<path fill="#8C8C8C" d="M0.042-1.61h-0.084l-0.179,0.716C-0.374-1.057-0.613-1.13-0.836-1.08c-0.256,0.06-0.449,0.267-0.49,0.526
			C-1.364-0.31-1.261-0.069-1.062,0.071c-0.117,0.177-0.132,0.406-0.035,0.597c0.099,0.196,0.294,0.32,0.513,0.326
			C-0.518,1.259-0.277,1.448,0,1.448s0.518-0.189,0.585-0.455c0.22-0.006,0.414-0.13,0.513-0.326C1.195,0.476,1.18,0.247,1.063,0.07
			c0.198-0.14,0.303-0.381,0.266-0.625c-0.042-0.26-0.234-0.466-0.49-0.526C0.613-1.132,0.375-1.057,0.221-0.895L0.042-1.61z
			 M-0.181-0.697L0-1.421l0.181,0.723l0.055-0.078C0.364-0.958,0.6-1.05,0.816-0.997c0.222,0.052,0.389,0.23,0.424,0.455
			S1.173-0.096,0.979,0.021L0.936,0.048l0.03,0.039C1.088,0.241,1.107,0.453,1.02,0.629C0.936,0.798,0.758,0.907,0.566,0.907
			L0.514,0.906L0.507,0.942C0.461,1.185,0.248,1.361,0,1.361s-0.461-0.176-0.507-0.419l-0.007-0.036l-0.053,0.001
			c-0.193,0-0.366-0.106-0.452-0.278c-0.089-0.175-0.068-0.388,0.054-0.542l0.03-0.039l-0.042-0.025
			C-1.172-0.095-1.275-0.316-1.24-0.541c0.035-0.225,0.202-0.403,0.423-0.455c0.221-0.052,0.452,0.039,0.581,0.221L-0.181-0.697z"/>
	</g>
</g>
</svg>
