<?xml version="1.0" encoding="utf-8"?>
<!-- Generator: Adobe Illustrator 16.0.3, SVG Export Plug-In . SVG Version: 6.00 Build 0)  -->
<!DOCTYPE svg PUBLIC "-//W3C//DTD SVG 1.1//EN" "http://www.w3.org/Graphics/SVG/1.1/DTD/svg11.dtd">
<svg version="1.1"
	 id="svg2" xmlns:svg="http://www.w3.org/2000/svg" xmlns:inkscape="http://www.inkscape.org/namespaces/inkscape" xmlns:cc="http://creativecommons.org/ns#" xmlns:sodipodi="http://sodipodi.sourceforge.net/DTD/sodipodi-0.dtd" xmlns:dc="http://purl.org/dc/elements/1.1/" xmlns:rdf="http://www.w3.org/1999/02/22-rdf-syntax-ns#" inkscape:output_extension="org.inkscape.output.svg.inkscape" sodipodi:version="0.32" sodipodi:docname="positionedBoulderSymbol.svg" inkscape:version="0.46"
	 xmlns="http://www.w3.org/2000/svg" xmlns:xlink="http://www.w3.org/1999/xlink" x="0px" y="0px" width="3.492px" height="3.6px"
	 viewBox="0 0 3.492 3.6" enable-background="new 0 0 3.492 3.6" xml:space="preserve">
<g id="positionedBoulderSymbol" transform="matrix(1,0,0,-1,1.6745,0.9625)">
	<g id="polyline4">
		<polygon fill="#BABABA" points="-1.189,-0.799 -1.366,-0.594 -1.5,-0.35 -1.579,-0.083 -1.601,0.195 -1.558,0.49 -1.444,0.663 
			-1.283,0.806 -1.092,0.9 -0.888,0.944 -0.883,0.943 -0.668,0.931 -0.476,0.867 -0.233,0.754 -0.125,0.632 -0.072,0.503 
			-0.067,0.358 -0.112,0.222 -0.195,0.249 -0.155,0.369 -0.159,0.492 -0.207,0.603 -0.289,0.688 -0.508,0.785 -0.69,0.846 
			-0.882,0.856 -1.069,0.816 -1.239,0.731 -1.382,0.603 -1.479,0.451 -1.515,0.193 -1.494,-0.068 -1.421,-0.317 -1.295,-0.545 
			-1.123,-0.743 		"/>
	</g>
	<g id="polyline6">
		<polygon fill="#BABABA" points="0.833,-0.901 0.127,-0.867 -0.454,-0.813 -1.032,-0.811 -1.608,-0.862 -1.616,-0.776 
			-1.036,-0.724 -0.45,-0.726 0.133,-0.78 0.833,-0.814 1.533,-0.761 1.758,-0.776 1.751,-0.862 1.533,-0.848 		"/>
	</g>
	<g id="polyline8">
		<polygon fill="#BABABA" points="1.597,-0.808 1.577,-0.61 1.365,-0.423 1.102,-0.286 1.143,-0.209 1.411,-0.35 1.661,-0.567 
			1.663,-0.585 1.683,-0.8 		"/>
	</g>
	<g id="polyline10">
		<polygon fill="#BABABA" points="0.517,-0.617 0.302,-0.569 0.32,-0.484 0.523,-0.529 0.721,-0.511 0.908,-0.435 1.065,-0.299 
			1.076,-0.272 1.072,-0.241 1.109,-0.216 1.066,-0.228 1.093,-0.192 1.057,-0.218 1.056,-0.216 1.027,-0.194 0.609,0.165 
			0.366,0.354 0.098,0.491 -0.191,0.577 -0.165,0.66 0.131,0.571 0.413,0.427 0.663,0.232 1.152,-0.204 1.161,-0.269 1.145,-0.335 
			1.12,-0.368 0.947,-0.512 0.736,-0.598 		"/>
	</g>
</g>
</svg>
