<?xml version="1.0" encoding="utf-8"?>
<!-- Generator: Adobe Illustrator 16.0.3, SVG Export Plug-In . SVG Version: 6.00 Build 0)  -->
<!DOCTYPE svg PUBLIC "-//W3C//DTD SVG 1.1//EN" "http://www.w3.org/Graphics/SVG/1.1/DTD/svg11.dtd">
<svg version="1.1" id="Layer_2" xmlns="http://www.w3.org/2000/svg" xmlns:xlink="http://www.w3.org/1999/xlink" x="0px" y="0px"
	 width="50px" height="50px" viewBox="0 0 50 50" enable-background="new 0 0 50 50" xml:space="preserve">
<g id="NonConTrees_10_">
	<g id="roughGrassAndNonconiferousTreesFillSymbol_12_">
		<g id="nonconiferousTreesFillSymbol_12_">
			<g id="nonconiferousTreeFillSymbol_12_">
				<g>
					<g id="nonconiferousTreeGeometry_12_">
						<g>
							<path fill="#FFFFFF" d="M23.337,4.643h-0.084l-0.179-0.716c-0.12,0.128-0.29,0.203-0.468,0.203
								c-0.133,0-0.262-0.041-0.371-0.118c-0.141-0.099-0.234-0.247-0.263-0.417c-0.029-0.17,0.009-0.339,0.108-0.479
								c0.042-0.06,0.093-0.111,0.154-0.154c-0.079-0.117-0.112-0.257-0.095-0.398c0.019-0.157,0.098-0.298,0.223-0.396
								c0.102-0.08,0.222-0.124,0.35-0.127c0.067-0.265,0.307-0.454,0.582-0.454c0.039,0,0.078,0.004,0.116,0.012
								c0.232,0.044,0.413,0.216,0.47,0.442c0.315,0.009,0.566,0.257,0.577,0.574c0.004,0.123-0.031,0.245-0.1,0.349
								c0.272,0.193,0.354,0.568,0.179,0.857c-0.116,0.191-0.327,0.311-0.55,0.311c-0.117,0-0.232-0.033-0.333-0.094
								c-0.049-0.029-0.096-0.066-0.136-0.109L23.337,4.643z M23.114,3.729l0.181,0.724l0.181-0.723l0.055,0.078
								c0.044,0.063,0.102,0.117,0.166,0.154c0.087,0.053,0.187,0.082,0.288,0.082c0.193,0,0.376-0.103,0.476-0.269
								c0.158-0.262,0.073-0.605-0.189-0.764L24.23,2.985l0.03-0.039c0.074-0.094,0.112-0.212,0.109-0.33
								c-0.009-0.27-0.236-0.49-0.506-0.49l-0.054,0.001l-0.007-0.036c-0.04-0.208-0.2-0.369-0.409-0.409
								c-0.033-0.006-0.066-0.009-0.1-0.009c-0.246,0-0.458,0.176-0.505,0.418l-0.007,0.036l-0.052-0.001
								c-0.114,0-0.223,0.038-0.314,0.109c-0.106,0.083-0.174,0.203-0.19,0.337c-0.016,0.134,0.021,0.267,0.104,0.373l0.03,0.039
								L22.318,3.01c-0.067,0.042-0.124,0.094-0.167,0.156c-0.086,0.122-0.119,0.269-0.094,0.415s0.106,0.274,0.227,0.36
								c0.095,0.066,0.206,0.102,0.321,0.102c0.181,0,0.351-0.088,0.454-0.236L23.114,3.729z"/>
						</g>
					</g>
				</g>
			</g>
			<g>
				<g id="smallNonconiferousTreeFillSymbol_12_">
					<g>
						<path fill="#FFFFFF" d="M25.253,6.042L25.172,5.72c-0.115,0.098-0.295,0.109-0.421,0.018
							c-0.075-0.052-0.125-0.131-0.141-0.222c-0.016-0.09,0.004-0.181,0.057-0.256c0.021-0.027,0.042-0.05,0.066-0.07
							c-0.077-0.134-0.046-0.31,0.079-0.41c0.05-0.039,0.11-0.063,0.172-0.067c0.046-0.152,0.203-0.252,0.369-0.225
							c0.121,0.025,0.215,0.112,0.25,0.225c0.16,0.017,0.285,0.147,0.291,0.306c0.002,0.061-0.014,0.119-0.041,0.17
							c0.131,0.105,0.168,0.296,0.078,0.445c-0.063,0.104-0.174,0.167-0.293,0.167c-0.063,0-0.125-0.017-0.179-0.05
							c-0.016-0.01-0.031-0.021-0.045-0.032l-0.08,0.322L25.253,6.042z M25.215,5.53l0.08,0.322l0.081-0.325l0.055,0.079
							c0.019,0.027,0.046,0.053,0.078,0.072c0.04,0.024,0.085,0.037,0.132,0.037c0.09,0,0.174-0.047,0.221-0.125
							c0.072-0.122,0.033-0.279-0.088-0.352L25.73,5.213l0.031-0.039c0.032-0.044,0.051-0.096,0.051-0.151
							c-0.006-0.123-0.109-0.224-0.233-0.224h-0.035l-0.015-0.035c-0.018-0.095-0.092-0.169-0.189-0.189
							c-0.013-0.002-0.026-0.003-0.04-0.003c-0.116,0-0.215,0.082-0.235,0.193l-0.007,0.037L25.019,4.8l0,0
							c-0.058,0-0.11,0.018-0.151,0.05c-0.099,0.079-0.117,0.225-0.039,0.325l0.03,0.039l-0.042,0.025
							c-0.028,0.017-0.055,0.042-0.078,0.072c-0.039,0.055-0.054,0.123-0.042,0.19c0.012,0.067,0.049,0.126,0.105,0.166
							c0.111,0.08,0.278,0.05,0.358-0.061L25.215,5.53z"/>
					</g>
				</g>
			</g>
		</g>
	</g>
</g>
<g id="NonConTrees_9_" enable-background="new    ">
	<g id="roughGrassAndNonconiferousTreesFillSymbol_11_">
		<g id="nonconiferousTreesFillSymbol_11_">
			<g id="nonconiferousTreeFillSymbol_11_">
				<g>
					<g id="nonconiferousTreeGeometry_11_">
						<g>
							<path fill="#FFFFFF" d="M40.3,4.604h-0.084l-0.18-0.716c-0.119,0.128-0.289,0.203-0.468,0.203
								c-0.133,0-0.262-0.041-0.371-0.118c-0.289-0.205-0.358-0.607-0.154-0.896c0.04-0.058,0.094-0.111,0.152-0.154
								c-0.168-0.255-0.115-0.602,0.13-0.794c0.1-0.079,0.223-0.124,0.349-0.127c0.078-0.302,0.379-0.506,0.699-0.442
								c0.23,0.044,0.412,0.216,0.47,0.442c0.314,0.009,0.565,0.257,0.575,0.574c0.004,0.123-0.031,0.245-0.1,0.349
								c0.271,0.193,0.354,0.567,0.18,0.857c-0.116,0.191-0.327,0.311-0.551,0.311c-0.116,0-0.231-0.033-0.332-0.094
								C40.564,3.97,40.52,3.933,40.479,3.89L40.3,4.604z M40.076,3.689l0.182,0.724l0.182-0.722l0.056,0.077
								c0.046,0.065,0.104,0.117,0.167,0.155c0.087,0.053,0.188,0.082,0.286,0.082c0.192,0,0.377-0.103,0.478-0.269
								c0.158-0.262,0.073-0.605-0.188-0.764l-0.043-0.025l0.031-0.039c0.072-0.094,0.11-0.212,0.106-0.33
								c-0.01-0.275-0.229-0.49-0.506-0.49l-0.056,0.001l-0.006-0.036c-0.039-0.208-0.201-0.369-0.408-0.409
								c-0.279-0.053-0.553,0.133-0.604,0.409l-0.007,0.036l-0.054-0.001c-0.112,0-0.226,0.039-0.313,0.109
								c-0.22,0.172-0.259,0.491-0.087,0.71l0.028,0.038l-0.043,0.026c-0.064,0.041-0.122,0.095-0.166,0.156
								c-0.176,0.25-0.115,0.598,0.136,0.775c0.094,0.067,0.205,0.102,0.319,0.102c0.182,0,0.352-0.088,0.453-0.236L40.076,3.689z"
								/>
						</g>
					</g>
				</g>
			</g>
			<g>
				<g id="smallNonconiferousTreeFillSymbol_11_">
					<g>
						<path fill="#FFFFFF" d="M42.216,6.003l-0.079-0.322C42.02,5.779,41.841,5.79,41.715,5.7c-0.154-0.109-0.191-0.323-0.083-0.478
							c0.021-0.027,0.042-0.05,0.065-0.069c-0.077-0.135-0.047-0.311,0.078-0.41c0.052-0.039,0.111-0.062,0.172-0.067
							c0.047-0.153,0.195-0.254,0.369-0.225c0.121,0.025,0.217,0.111,0.25,0.225c0.162,0.017,0.287,0.147,0.293,0.306
							c0.002,0.061-0.014,0.119-0.043,0.17c0.131,0.105,0.168,0.296,0.08,0.445c-0.063,0.104-0.174,0.167-0.295,0.167
							c-0.063,0-0.123-0.017-0.178-0.05c-0.017-0.01-0.029-0.021-0.046-0.033L42.3,6.003H42.216z M42.178,5.492l0.08,0.321
							l0.08-0.323l0.055,0.078c0.021,0.027,0.049,0.053,0.078,0.072c0.041,0.024,0.086,0.037,0.133,0.037
							c0.09,0,0.172-0.047,0.22-0.125c0.071-0.122,0.032-0.279-0.089-0.352l-0.041-0.025l0.029-0.039
							c0.034-0.044,0.053-0.096,0.051-0.151C42.77,4.861,42.664,4.76,42.54,4.76h-0.035L42.49,4.725
							c-0.018-0.095-0.094-0.169-0.189-0.189c-0.013-0.002-0.025-0.003-0.039-0.003c-0.115,0-0.216,0.082-0.236,0.193L42.02,4.763
							l-0.037-0.001c-0.002,0-0.002,0-0.002,0c-0.058,0-0.106,0.018-0.148,0.05c-0.102,0.079-0.117,0.225-0.039,0.325l0.03,0.039
							L41.779,5.2c-0.027,0.017-0.055,0.042-0.078,0.073c-0.08,0.114-0.053,0.274,0.064,0.356c0.107,0.08,0.275,0.049,0.355-0.061
							L42.178,5.492z"/>
					</g>
				</g>
			</g>
		</g>
	</g>
</g>
<g id="NonConTrees_8_" enable-background="new    ">
	<g id="roughGrassAndNonconiferousTreesFillSymbol_10_">
		<g id="nonconiferousTreesFillSymbol_10_">
			<g id="nonconiferousTreeFillSymbol_10_">
				<g>
					<g id="nonconiferousTreeGeometry_10_">
						<g>
							<path fill="#FFFFFF" d="M34.3,12.604h-0.084l-0.18-0.716c-0.119,0.128-0.289,0.203-0.468,0.203
								c-0.133,0-0.262-0.041-0.371-0.118c-0.289-0.205-0.358-0.607-0.154-0.896c0.04-0.058,0.094-0.111,0.152-0.154
								c-0.168-0.255-0.115-0.602,0.13-0.794c0.1-0.079,0.223-0.124,0.349-0.127c0.078-0.302,0.379-0.509,0.699-0.442
								c0.23,0.044,0.412,0.216,0.47,0.442c0.314,0.009,0.565,0.257,0.575,0.574c0.004,0.123-0.031,0.245-0.1,0.349
								c0.271,0.193,0.354,0.567,0.18,0.857c-0.116,0.191-0.327,0.311-0.551,0.311c-0.116,0-0.231-0.033-0.332-0.094
								c-0.051-0.029-0.096-0.066-0.137-0.109L34.3,12.604z M34.076,11.689l0.182,0.724l0.182-0.722l0.056,0.077
								c0.046,0.065,0.104,0.117,0.167,0.155c0.087,0.053,0.188,0.082,0.286,0.082c0.192,0,0.377-0.103,0.478-0.269
								c0.158-0.262,0.073-0.605-0.188-0.764l-0.043-0.025l0.031-0.039c0.072-0.094,0.11-0.212,0.106-0.33
								c-0.01-0.275-0.229-0.49-0.506-0.49l-0.056,0.001l-0.006-0.036c-0.039-0.208-0.201-0.369-0.408-0.409
								c-0.28-0.056-0.551,0.134-0.604,0.409l-0.007,0.036l-0.054-0.001c-0.112,0-0.226,0.039-0.313,0.109
								c-0.22,0.172-0.259,0.491-0.087,0.71l0.028,0.038l-0.04,0.026c-0.066,0.041-0.124,0.095-0.169,0.156
								c-0.176,0.25-0.114,0.598,0.137,0.775c0.094,0.067,0.205,0.102,0.318,0.102c0.183,0,0.353-0.088,0.453-0.236L34.076,11.689z"
								/>
						</g>
					</g>
				</g>
			</g>
			<g>
				<g id="smallNonconiferousTreeFillSymbol_10_">
					<g>
						<path fill="#FFFFFF" d="M36.216,14.003l-0.079-0.322c-0.117,0.098-0.296,0.108-0.422,0.018
							c-0.154-0.109-0.191-0.323-0.083-0.478c0.021-0.027,0.042-0.05,0.065-0.069c-0.077-0.135-0.047-0.311,0.078-0.41
							c0.052-0.039,0.111-0.062,0.172-0.067c0.047-0.153,0.197-0.254,0.369-0.225c0.121,0.025,0.217,0.111,0.25,0.225
							c0.162,0.017,0.287,0.147,0.293,0.306c0.002,0.061-0.014,0.119-0.043,0.17c0.131,0.105,0.168,0.296,0.08,0.445
							c-0.063,0.104-0.174,0.167-0.295,0.167c-0.063,0-0.123-0.017-0.178-0.05c-0.017-0.01-0.029-0.021-0.046-0.033l-0.08,0.322
							L36.216,14.003z M36.178,13.492l0.08,0.321l0.08-0.323l0.055,0.078c0.021,0.027,0.049,0.053,0.078,0.072
							c0.041,0.024,0.086,0.037,0.133,0.037c0.09,0,0.172-0.047,0.22-0.125c0.071-0.122,0.032-0.279-0.089-0.352l-0.041-0.025
							l0.029-0.039c0.034-0.044,0.053-0.096,0.051-0.151c-0.004-0.123-0.107-0.224-0.231-0.224h-0.035l-0.015-0.035
							c-0.02-0.095-0.094-0.169-0.188-0.189c-0.015-0.002-0.027-0.003-0.041-0.003c-0.115,0-0.216,0.082-0.234,0.193l-0.008,0.037
							l-0.037-0.001l0,0c-0.06,0-0.108,0.018-0.15,0.05c-0.1,0.079-0.117,0.225-0.039,0.325l0.029,0.039L35.779,13.2
							c-0.027,0.017-0.055,0.042-0.078,0.073c-0.08,0.114-0.053,0.274,0.064,0.356c0.108,0.08,0.274,0.049,0.355-0.061
							L36.178,13.492z"/>
					</g>
				</g>
			</g>
		</g>
	</g>
</g>
<g id="NonConTrees_7_" enable-background="new    ">
	<g id="roughGrassAndNonconiferousTreesFillSymbol_9_">
		<g id="nonconiferousTreesFillSymbol_9_">
			<g id="nonconiferousTreeFillSymbol_9_">
				<g>
					<g id="nonconiferousTreeGeometry_9_">
						<g>
							<path fill="#FFFFFF" d="M8.3,14.632H8.216l-0.179-0.716c-0.12,0.128-0.29,0.203-0.468,0.203
								c-0.133,0-0.262-0.041-0.371-0.118c-0.141-0.099-0.234-0.247-0.263-0.417c-0.029-0.17,0.009-0.339,0.108-0.479
								c0.042-0.06,0.093-0.111,0.154-0.154c-0.079-0.117-0.112-0.257-0.095-0.398c0.019-0.157,0.098-0.298,0.223-0.396
								c0.102-0.08,0.222-0.124,0.35-0.127c0.067-0.265,0.307-0.454,0.582-0.454c0.039,0,0.078,0.004,0.116,0.012
								c0.232,0.044,0.413,0.216,0.47,0.442c0.315,0.009,0.566,0.257,0.577,0.574c0.004,0.123-0.031,0.245-0.1,0.349
								c0.272,0.193,0.354,0.568,0.179,0.857C9.382,14,9.171,14.12,8.948,14.12c-0.117,0-0.232-0.033-0.333-0.094
								c-0.049-0.029-0.096-0.066-0.136-0.109L8.3,14.632z M8.077,13.718l0.181,0.724l0.181-0.723l0.055,0.078
								c0.044,0.063,0.102,0.117,0.166,0.154c0.087,0.053,0.187,0.082,0.288,0.082c0.193,0,0.376-0.103,0.476-0.269
								C9.582,13.502,9.497,13.159,9.235,13l-0.042-0.025l0.03-0.039c0.074-0.094,0.112-0.212,0.109-0.33
								c-0.009-0.27-0.236-0.49-0.506-0.49l-0.054,0.001l-0.007-0.036c-0.04-0.208-0.2-0.369-0.409-0.409
								c-0.033-0.006-0.066-0.009-0.1-0.009c-0.246,0-0.458,0.176-0.505,0.418l-0.007,0.036l-0.052-0.001
								c-0.114,0-0.223,0.038-0.314,0.109c-0.106,0.083-0.174,0.203-0.19,0.337c-0.016,0.134,0.021,0.267,0.104,0.373l0.03,0.039
								L7.28,12.999c-0.067,0.042-0.124,0.094-0.167,0.156c-0.086,0.122-0.119,0.269-0.094,0.415s0.106,0.274,0.227,0.36
								c0.095,0.066,0.206,0.102,0.321,0.102c0.181,0,0.351-0.088,0.454-0.236L8.077,13.718z"/>
						</g>
					</g>
				</g>
			</g>
			<g>
				<g id="smallNonconiferousTreeFillSymbol_9_">
					<g>
						<path fill="#FFFFFF" d="M10.216,16.032l-0.081-0.322c-0.116,0.098-0.295,0.109-0.421,0.018
							c-0.075-0.052-0.125-0.131-0.141-0.222c-0.016-0.09,0.004-0.181,0.057-0.256c0.021-0.027,0.042-0.05,0.066-0.07
							c-0.077-0.134-0.046-0.31,0.079-0.41c0.05-0.039,0.11-0.062,0.172-0.067c0.046-0.153,0.205-0.25,0.369-0.225
							c0.122,0.025,0.216,0.112,0.25,0.225c0.164,0.016,0.286,0.145,0.292,0.306c0.002,0.061-0.013,0.118-0.043,0.17
							c0.132,0.105,0.169,0.295,0.08,0.445c-0.063,0.104-0.173,0.167-0.294,0.167c-0.062,0-0.124-0.017-0.177-0.05
							c-0.016-0.01-0.031-0.021-0.045-0.032l-0.08,0.322L10.216,16.032z M10.178,15.52l0.08,0.322l0.081-0.325l0.055,0.079
							c0.019,0.027,0.046,0.053,0.077,0.072c0.04,0.024,0.085,0.037,0.132,0.037c0.091,0,0.173-0.047,0.22-0.125
							c0.072-0.122,0.033-0.279-0.088-0.352l-0.042-0.025l0.031-0.039c0.035-0.044,0.052-0.097,0.051-0.151
							c-0.005-0.123-0.109-0.224-0.233-0.224h-0.036l-0.014-0.036c-0.018-0.095-0.092-0.169-0.188-0.189
							c-0.013-0.002-0.026-0.003-0.04-0.003c-0.116,0-0.215,0.082-0.235,0.193l-0.007,0.037L9.981,14.79l0,0
							c-0.058,0-0.11,0.018-0.151,0.05c-0.099,0.079-0.117,0.225-0.039,0.325l0.03,0.039l-0.042,0.025
							c-0.028,0.017-0.055,0.042-0.078,0.072c-0.039,0.055-0.054,0.123-0.042,0.19c0.012,0.067,0.049,0.126,0.105,0.166
							c0.111,0.08,0.278,0.05,0.358-0.061L10.178,15.52z"/>
					</g>
				</g>
			</g>
		</g>
	</g>
</g>
<g id="NonConTrees_6_" enable-background="new    ">
	<g id="roughGrassAndNonconiferousTreesFillSymbol_8_">
		<g id="nonconiferousTreesFillSymbol_8_">
			<g id="nonconiferousTreeFillSymbol_8_">
				<g>
					<g id="nonconiferousTreeGeometry_8_">
						<g>
							<path fill="#FFFFFF" d="M3.3,24.505H3.216l-0.179-0.716c-0.12,0.128-0.29,0.203-0.468,0.203
								c-0.133,0-0.262-0.041-0.371-0.118c-0.141-0.099-0.234-0.247-0.263-0.417c-0.029-0.169,0.009-0.339,0.108-0.479
								c0.042-0.06,0.093-0.111,0.154-0.154c-0.079-0.117-0.112-0.257-0.095-0.398c0.019-0.157,0.098-0.298,0.223-0.396
								c0.102-0.08,0.222-0.124,0.35-0.127c0.067-0.265,0.307-0.454,0.582-0.454c0.039,0,0.078,0.004,0.116,0.012
								c0.232,0.044,0.413,0.216,0.47,0.442c0.31,0.009,0.567,0.263,0.577,0.574c0.004,0.123-0.031,0.245-0.1,0.349
								c0.272,0.193,0.354,0.568,0.179,0.857c-0.116,0.191-0.327,0.311-0.55,0.311c-0.117,0-0.232-0.033-0.333-0.094
								c-0.05-0.03-0.096-0.067-0.137-0.11L3.3,24.505z M3.077,23.591l0.181,0.724l0.181-0.723l0.055,0.078
								c0.044,0.063,0.102,0.117,0.166,0.154c0.087,0.053,0.187,0.082,0.288,0.082c0.193,0,0.376-0.104,0.476-0.269
								c0.158-0.262,0.073-0.605-0.189-0.764l-0.042-0.025l0.03-0.039c0.074-0.094,0.112-0.212,0.109-0.33
								c-0.009-0.27-0.236-0.49-0.506-0.49L3.772,21.99l-0.007-0.036c-0.04-0.208-0.2-0.369-0.409-0.409
								c-0.033-0.006-0.066-0.009-0.1-0.009c-0.246,0-0.458,0.176-0.505,0.418L2.744,21.99H2.692c-0.114,0-0.223,0.038-0.314,0.109
								c-0.106,0.083-0.174,0.203-0.19,0.337c-0.016,0.134,0.021,0.267,0.104,0.373l0.03,0.039L2.28,22.873
								c-0.067,0.042-0.124,0.094-0.167,0.156c-0.086,0.122-0.119,0.269-0.094,0.415s0.106,0.274,0.227,0.36
								c0.095,0.066,0.206,0.102,0.321,0.102c0.181,0,0.351-0.088,0.454-0.236L3.077,23.591z"/>
						</g>
					</g>
				</g>
			</g>
			<g>
				<g id="smallNonconiferousTreeFillSymbol_8_">
					<g>
						<path fill="#FFFFFF" d="M5.216,25.904l-0.081-0.321c-0.115,0.099-0.295,0.108-0.421,0.019c-0.074-0.053-0.124-0.13-0.14-0.223
							c-0.016-0.09,0.004-0.181,0.057-0.256c0.021-0.027,0.042-0.05,0.066-0.07c-0.077-0.134-0.046-0.31,0.079-0.41
							c0.05-0.039,0.11-0.062,0.172-0.067c0.046-0.153,0.203-0.253,0.369-0.225c0.122,0.025,0.216,0.112,0.25,0.225
							c0.164,0.016,0.286,0.145,0.292,0.306c0.002,0.061-0.013,0.118-0.043,0.17c0.132,0.105,0.169,0.295,0.08,0.445
							c-0.063,0.104-0.173,0.167-0.294,0.167c-0.062,0-0.124-0.018-0.177-0.051c-0.016-0.01-0.031-0.021-0.045-0.031L5.3,25.904
							H5.216z M5.178,25.393l0.08,0.322l0.081-0.325l0.055,0.079c0.019,0.027,0.046,0.053,0.077,0.072
							c0.04,0.023,0.085,0.037,0.132,0.037c0.091,0,0.173-0.047,0.22-0.125c0.072-0.122,0.033-0.279-0.088-0.352l-0.042-0.025
							l0.031-0.039c0.035-0.044,0.052-0.097,0.051-0.151c-0.005-0.123-0.109-0.224-0.233-0.224H5.504L5.49,24.626
							c-0.018-0.095-0.092-0.169-0.188-0.189c-0.013-0.002-0.026-0.003-0.04-0.003c-0.116,0-0.215,0.082-0.235,0.193L5.02,24.664
							l-0.038-0.001l0,0c-0.058,0-0.11,0.018-0.151,0.05c-0.099,0.079-0.117,0.225-0.039,0.325l0.03,0.039L4.78,25.102
							c-0.028,0.017-0.055,0.042-0.078,0.072c-0.039,0.055-0.054,0.123-0.042,0.19c0.012,0.067,0.049,0.126,0.105,0.167
							c0.111,0.08,0.278,0.05,0.358-0.063L5.178,25.393z"/>
					</g>
				</g>
			</g>
		</g>
	</g>
</g>
<g id="NonConTrees_5_" enable-background="new    ">
	<g id="roughGrassAndNonconiferousTreesFillSymbol_7_">
		<g id="nonconiferousTreesFillSymbol_7_">
			<g id="nonconiferousTreeFillSymbol_7_">
				<g>
					<g id="nonconiferousTreeGeometry_7_">
						<g>
							<path fill="#FFFFFF" d="M8.3,37.637H8.216l-0.179-0.718c-0.12,0.129-0.29,0.203-0.468,0.203
								c-0.133,0-0.262-0.041-0.371-0.118c-0.29-0.204-0.359-0.605-0.155-0.896c0.042-0.059,0.093-0.108,0.153-0.151
								c-0.078-0.117-0.111-0.258-0.094-0.397c0.019-0.158,0.098-0.3,0.223-0.397c0.102-0.08,0.222-0.124,0.35-0.128
								c0.067-0.266,0.307-0.453,0.582-0.453c0.039,0,0.078,0.004,0.116,0.011c0.232,0.046,0.413,0.218,0.47,0.442
								c0.315,0.009,0.566,0.258,0.577,0.574c0.004,0.123-0.031,0.246-0.1,0.348c0.272,0.193,0.354,0.568,0.179,0.857
								c-0.115,0.19-0.327,0.312-0.55,0.312c-0.117,0-0.232-0.032-0.333-0.095C8.566,37,8.52,36.963,8.479,36.92L8.3,37.637z
								 M8.077,36.721l0.181,0.725l0.181-0.723L8.494,36.8c0.044,0.063,0.102,0.117,0.166,0.155
								c0.087,0.053,0.187,0.081,0.288,0.081c0.193,0,0.376-0.104,0.476-0.269c0.158-0.265,0.074-0.605-0.189-0.767l-0.042-0.024
								l0.03-0.039c0.074-0.093,0.112-0.209,0.109-0.328c-0.009-0.271-0.236-0.49-0.506-0.49l-0.054,0.002l-0.007-0.037
								c-0.04-0.208-0.2-0.368-0.409-0.408c-0.033-0.007-0.066-0.01-0.1-0.01c-0.246,0-0.458,0.176-0.505,0.418l-0.007,0.037
								l-0.052-0.002c-0.114,0-0.223,0.037-0.314,0.109c-0.106,0.084-0.174,0.203-0.19,0.338c-0.016,0.134,0.021,0.266,0.104,0.371
								l0.03,0.039L7.28,36.001c-0.067,0.041-0.124,0.095-0.167,0.155c-0.177,0.25-0.117,0.599,0.133,0.775
								C7.342,37,7.454,37.035,7.569,37.035c0.181,0,0.351-0.088,0.454-0.236L8.077,36.721z"/>
						</g>
					</g>
				</g>
			</g>
			<g>
				<g id="smallNonconiferousTreeFillSymbol_7_">
					<g>
						<path fill="#FFFFFF" d="M10.216,39.035l-0.081-0.322c-0.116,0.1-0.295,0.109-0.421,0.02C9.64,38.68,9.59,38.6,9.574,38.51
							c-0.016-0.091,0.004-0.182,0.057-0.257c0.021-0.026,0.042-0.05,0.066-0.069c-0.077-0.135-0.046-0.311,0.079-0.41
							c0.05-0.037,0.11-0.062,0.172-0.065c0.046-0.149,0.205-0.249,0.369-0.226c0.121,0.025,0.216,0.111,0.25,0.226
							c0.164,0.019,0.286,0.146,0.292,0.308c0.002,0.061-0.013,0.117-0.043,0.17c0.132,0.104,0.169,0.297,0.08,0.444
							c-0.063,0.104-0.173,0.167-0.294,0.167c-0.062,0-0.124-0.02-0.177-0.05c-0.016-0.011-0.031-0.021-0.045-0.032l-0.08,0.322
							L10.216,39.035L10.216,39.035z M10.178,38.523l0.08,0.319l0.081-0.323l0.055,0.08c0.019,0.025,0.046,0.053,0.077,0.069
							c0.04,0.022,0.085,0.037,0.132,0.037c0.091,0,0.173-0.047,0.22-0.125c0.072-0.121,0.033-0.279-0.088-0.354l-0.042-0.023
							l0.031-0.039c0.035-0.044,0.052-0.098,0.051-0.15c-0.005-0.123-0.109-0.225-0.233-0.225h-0.036l-0.014-0.035
							c-0.018-0.094-0.092-0.168-0.189-0.188c-0.013-0.002-0.026-0.004-0.04-0.004c-0.115,0-0.215,0.082-0.235,0.191l-0.007,0.037
							L9.984,37.79l0,0c-0.058,0-0.11,0.019-0.151,0.05c-0.099,0.079-0.117,0.227-0.039,0.326l0.03,0.038L9.78,38.23
							c-0.029,0.019-0.055,0.043-0.078,0.074c-0.039,0.055-0.054,0.12-0.042,0.188c0.012,0.066,0.049,0.127,0.105,0.167
							c0.111,0.077,0.278,0.05,0.358-0.063L10.178,38.523z"/>
					</g>
				</g>
			</g>
		</g>
	</g>
</g>
<g id="NonConTrees_4_" enable-background="new    ">
	<g id="roughGrassAndNonconiferousTreesFillSymbol_6_">
		<g id="nonconiferousTreesFillSymbol_6_">
			<g id="nonconiferousTreeFillSymbol_6_">
				<g>
					<g id="nonconiferousTreeGeometry_6_">
						<g>
							<path fill="#FFFFFF" d="M25.3,35.604h-0.084l-0.179-0.717c-0.12,0.129-0.29,0.203-0.468,0.203
								c-0.133,0-0.262-0.041-0.371-0.117c-0.29-0.205-0.359-0.605-0.155-0.896c0.042-0.06,0.093-0.11,0.153-0.153
								c-0.078-0.115-0.111-0.257-0.094-0.396c0.019-0.157,0.098-0.299,0.223-0.396c0.102-0.08,0.222-0.124,0.35-0.128
								c0.067-0.265,0.307-0.453,0.582-0.453c0.039,0,0.078,0.005,0.116,0.011c0.232,0.045,0.413,0.217,0.47,0.442
								c0.313,0.009,0.565,0.258,0.575,0.575c0.004,0.123-0.031,0.244-0.1,0.347c0.271,0.193,0.354,0.568,0.18,0.858
								c-0.116,0.191-0.327,0.311-0.551,0.311c-0.116,0-0.231-0.031-0.332-0.094c-0.051-0.029-0.096-0.066-0.136-0.109L25.3,35.604z
								 M25.077,34.689l0.181,0.725l0.181-0.723l0.055,0.076c0.045,0.064,0.102,0.116,0.167,0.154
								c0.087,0.055,0.187,0.081,0.286,0.081c0.193,0,0.377-0.104,0.478-0.271c0.158-0.262,0.073-0.604-0.188-0.764l-0.043-0.025
								l0.031-0.039c0.073-0.094,0.111-0.211,0.107-0.328c-0.01-0.274-0.23-0.49-0.506-0.49l-0.055,0.002l-0.006-0.036
								c-0.039-0.209-0.201-0.368-0.411-0.407c-0.033-0.009-0.066-0.012-0.1-0.012c-0.246,0-0.458,0.178-0.505,0.419l-0.007,0.036
								l-0.052-0.002c-0.114,0-0.223,0.038-0.314,0.107c-0.106,0.084-0.174,0.203-0.19,0.34c-0.016,0.134,0.021,0.266,0.104,0.369
								l0.03,0.039l-0.042,0.025c-0.067,0.041-0.124,0.094-0.167,0.156c-0.177,0.25-0.117,0.598,0.133,0.775
								C24.34,34.963,24.451,35,24.566,35c0.181,0,0.351-0.088,0.454-0.236L25.077,34.689z"/>
						</g>
					</g>
				</g>
			</g>
			<g>
				<g id="smallNonconiferousTreeFillSymbol_6_">
					<g>
						<path fill="#FFFFFF" d="M27.216,37.004l-0.079-0.322c-0.117,0.101-0.296,0.108-0.422,0.021
							c-0.154-0.106-0.191-0.323-0.083-0.479c0.021-0.027,0.042-0.051,0.065-0.07c-0.077-0.135-0.047-0.311,0.078-0.408
							c0.052-0.038,0.111-0.063,0.172-0.067c0.047-0.149,0.195-0.25,0.369-0.224c0.121,0.023,0.217,0.109,0.25,0.224
							c0.162,0.019,0.287,0.146,0.293,0.308c0.002,0.062-0.014,0.119-0.043,0.17c0.131,0.104,0.168,0.297,0.08,0.445
							c-0.063,0.104-0.174,0.168-0.295,0.168c-0.063,0-0.123-0.02-0.178-0.052c-0.017-0.01-0.029-0.021-0.046-0.032l-0.08,0.322
							L27.216,37.004L27.216,37.004z M27.178,36.492l0.08,0.32l0.08-0.322l0.055,0.076c0.021,0.028,0.049,0.055,0.078,0.072
							c0.041,0.023,0.086,0.036,0.133,0.036c0.09,0,0.172-0.047,0.22-0.125c0.071-0.12,0.032-0.278-0.089-0.354l-0.041-0.023
							l0.029-0.039c0.034-0.043,0.053-0.096,0.051-0.15c-0.004-0.123-0.107-0.225-0.231-0.225h-0.035l-0.015-0.033
							c-0.02-0.096-0.094-0.168-0.188-0.188c-0.015-0.003-0.027-0.005-0.041-0.005c-0.115,0-0.216,0.082-0.234,0.193l-0.008,0.036
							l-0.037-0.003l0,0c-0.06,0-0.108,0.02-0.15,0.051c-0.1,0.08-0.117,0.227-0.039,0.325l0.029,0.038L26.779,36.2
							c-0.027,0.019-0.055,0.042-0.078,0.073c-0.08,0.112-0.053,0.272,0.064,0.354c0.108,0.079,0.275,0.052,0.355-0.063
							L27.178,36.492z"/>
					</g>
				</g>
			</g>
		</g>
	</g>
</g>
<g id="NonConTrees_3_" enable-background="new    ">
	<g id="roughGrassAndNonconiferousTreesFillSymbol_5_">
		<g id="nonconiferousTreesFillSymbol_5_">
			<g id="nonconiferousTreeFillSymbol_5_">
				<g>
					<g id="nonconiferousTreeGeometry_5_">
						<g>
							<path fill="#FFFFFF" d="M40.3,34.604h-0.084l-0.18-0.717c-0.119,0.129-0.289,0.203-0.468,0.203
								c-0.133,0-0.262-0.041-0.371-0.117c-0.289-0.205-0.358-0.605-0.154-0.896c0.04-0.06,0.094-0.11,0.152-0.153
								c-0.077-0.115-0.11-0.257-0.094-0.396c0.02-0.157,0.099-0.299,0.224-0.396c0.1-0.078,0.223-0.123,0.349-0.127
								c0.078-0.303,0.379-0.498,0.699-0.443c0.23,0.045,0.412,0.217,0.47,0.442c0.314,0.009,0.565,0.258,0.575,0.575
								c0.004,0.123-0.031,0.244-0.1,0.347c0.271,0.193,0.354,0.568,0.18,0.858c-0.116,0.191-0.327,0.311-0.551,0.311
								c-0.116,0-0.231-0.031-0.332-0.094c-0.051-0.029-0.096-0.066-0.137-0.109L40.3,34.604z M40.076,33.689l0.182,0.726
								l0.182-0.724l0.056,0.076c0.046,0.064,0.104,0.116,0.167,0.154c0.087,0.055,0.188,0.081,0.286,0.081
								c0.192,0,0.377-0.104,0.478-0.271c0.158-0.262,0.073-0.604-0.188-0.764l-0.043-0.025l0.031-0.038
								c0.072-0.095,0.11-0.212,0.106-0.329c-0.01-0.274-0.229-0.49-0.506-0.49l-0.056,0.002l-0.006-0.036
								c-0.039-0.209-0.201-0.368-0.408-0.407c-0.279-0.061-0.553,0.133-0.604,0.407l-0.007,0.036l-0.054-0.002
								c-0.112,0-0.226,0.039-0.313,0.107c-0.105,0.084-0.175,0.203-0.189,0.34c-0.018,0.134,0.021,0.266,0.104,0.369l0.03,0.039
								l-0.042,0.025c-0.066,0.041-0.124,0.096-0.167,0.156c-0.177,0.25-0.116,0.598,0.135,0.775C39.346,33.963,39.456,34,39.57,34
								c0.182,0,0.352-0.088,0.453-0.234L40.076,33.689z"/>
						</g>
					</g>
				</g>
			</g>
			<g>
				<g id="smallNonconiferousTreeFillSymbol_5_">
					<g>
						<path fill="#FFFFFF" d="M42.216,36.004l-0.079-0.322c-0.117,0.101-0.296,0.108-0.422,0.021
							c-0.154-0.106-0.191-0.323-0.083-0.479c0.021-0.027,0.042-0.051,0.065-0.07c-0.077-0.135-0.047-0.311,0.078-0.408
							c0.052-0.038,0.111-0.063,0.172-0.067c0.047-0.149,0.195-0.252,0.369-0.224c0.121,0.023,0.217,0.109,0.25,0.224
							c0.162,0.019,0.287,0.146,0.293,0.308c0.002,0.062-0.014,0.119-0.043,0.17c0.131,0.104,0.168,0.297,0.08,0.445
							c-0.063,0.104-0.174,0.168-0.295,0.168c-0.063,0-0.123-0.02-0.178-0.052c-0.017-0.01-0.029-0.021-0.046-0.032l-0.08,0.322
							L42.216,36.004L42.216,36.004z M42.178,35.492l0.08,0.32l0.08-0.322l0.055,0.076c0.021,0.028,0.049,0.055,0.078,0.072
							c0.119,0.071,0.281,0.028,0.353-0.089c0.071-0.12,0.032-0.278-0.089-0.354l-0.041-0.023l0.029-0.039
							c0.034-0.043,0.053-0.096,0.051-0.15c-0.004-0.123-0.107-0.225-0.231-0.225h-0.035l-0.015-0.033
							c-0.02-0.096-0.094-0.168-0.188-0.188c-0.015-0.003-0.027-0.005-0.041-0.005c-0.115,0-0.216,0.082-0.234,0.193l-0.008,0.036
							l-0.037-0.003l0,0c-0.06,0-0.108,0.02-0.15,0.051c-0.1,0.08-0.117,0.227-0.039,0.325l0.029,0.038L41.779,35.2
							c-0.027,0.019-0.055,0.042-0.078,0.073c-0.08,0.112-0.053,0.272,0.064,0.354c0.107,0.08,0.275,0.052,0.355-0.063
							L42.178,35.492z"/>
					</g>
				</g>
			</g>
		</g>
	</g>
</g>
<g id="NonConTrees_2_" enable-background="new    ">
	<g id="roughGrassAndNonconiferousTreesFillSymbol_4_">
		<g id="nonconiferousTreesFillSymbol_4_">
			<g id="nonconiferousTreeFillSymbol_4_">
				<g>
					<g id="nonconiferousTreeGeometry_4_">
						<g>
							<path fill="#FFFFFF" d="M37.3,46.604h-0.084l-0.18-0.717c-0.119,0.129-0.289,0.203-0.468,0.203
								c-0.133,0-0.262-0.041-0.371-0.117c-0.289-0.205-0.358-0.605-0.154-0.896c0.04-0.06,0.094-0.11,0.152-0.153
								c-0.077-0.115-0.11-0.257-0.094-0.396c0.02-0.157,0.099-0.299,0.224-0.396c0.1-0.078,0.223-0.123,0.349-0.127
								c0.078-0.303,0.376-0.502,0.699-0.443c0.23,0.045,0.412,0.217,0.47,0.442c0.314,0.009,0.565,0.258,0.575,0.575
								c0.004,0.123-0.031,0.244-0.1,0.347c0.271,0.193,0.354,0.568,0.18,0.858c-0.116,0.191-0.327,0.311-0.551,0.311
								c-0.116,0-0.231-0.031-0.332-0.094c-0.051-0.029-0.096-0.066-0.137-0.109L37.3,46.604z M37.076,45.689l0.182,0.726
								l0.182-0.724l0.056,0.076c0.046,0.064,0.104,0.116,0.167,0.154c0.087,0.055,0.188,0.081,0.286,0.081
								c0.192,0,0.377-0.104,0.478-0.271c0.158-0.262,0.073-0.604-0.188-0.764l-0.043-0.025l0.031-0.038
								c0.072-0.095,0.11-0.212,0.106-0.329c-0.01-0.274-0.229-0.49-0.506-0.49l-0.056,0.002l-0.006-0.036
								c-0.039-0.209-0.201-0.368-0.408-0.407c-0.278-0.059-0.553,0.133-0.604,0.407l-0.007,0.036l-0.054-0.002
								c-0.112,0-0.226,0.039-0.313,0.107c-0.105,0.084-0.175,0.203-0.189,0.34c-0.018,0.134,0.021,0.266,0.104,0.369l0.03,0.039
								l-0.042,0.025c-0.066,0.041-0.124,0.096-0.167,0.156c-0.177,0.25-0.116,0.598,0.135,0.775C36.346,45.963,36.456,46,36.57,46
								c0.182,0,0.352-0.088,0.453-0.234L37.076,45.689z"/>
						</g>
					</g>
				</g>
			</g>
			<g>
				<g id="smallNonconiferousTreeFillSymbol_4_">
					<g>
						<path fill="#FFFFFF" d="M39.216,48.004l-0.079-0.322c-0.117,0.101-0.296,0.108-0.422,0.021
							c-0.154-0.106-0.191-0.323-0.083-0.479c0.021-0.027,0.042-0.051,0.065-0.07c-0.077-0.135-0.047-0.311,0.078-0.408
							c0.052-0.038,0.111-0.063,0.172-0.067c0.041-0.134,0.168-0.229,0.314-0.229c0.018,0,0.035,0.002,0.057,0.005
							c0.121,0.023,0.216,0.109,0.25,0.224c0.16,0.019,0.285,0.146,0.291,0.308c0.002,0.062-0.012,0.119-0.043,0.17
							c0.133,0.104,0.17,0.297,0.08,0.445c-0.063,0.104-0.172,0.168-0.293,0.168c-0.063,0-0.123-0.02-0.179-0.052
							c-0.017-0.01-0.03-0.021-0.046-0.032l-0.08,0.322L39.216,48.004L39.216,48.004z M39.178,47.492l0.08,0.32l0.08-0.322
							l0.055,0.076c0.021,0.028,0.049,0.055,0.078,0.072c0.041,0.023,0.086,0.036,0.133,0.036c0.09,0,0.172-0.047,0.22-0.125
							c0.071-0.12,0.032-0.278-0.089-0.354l-0.041-0.023l0.029-0.039c0.034-0.043,0.053-0.096,0.051-0.15
							c-0.004-0.123-0.107-0.225-0.231-0.225h-0.035l-0.015-0.033c-0.02-0.096-0.094-0.168-0.188-0.188
							c-0.015-0.003-0.027-0.005-0.041-0.005c-0.115,0-0.216,0.082-0.234,0.193l-0.008,0.036l-0.037-0.003l0,0
							c-0.06,0-0.108,0.02-0.15,0.051c-0.1,0.08-0.117,0.227-0.039,0.325l0.029,0.038L38.779,47.2
							c-0.027,0.019-0.055,0.042-0.078,0.073c-0.08,0.112-0.053,0.272,0.064,0.354c0.107,0.08,0.275,0.052,0.355-0.063
							L39.178,47.492z"/>
					</g>
				</g>
			</g>
		</g>
	</g>
</g>
<g id="NonConTrees_1_" enable-background="new    ">
	<g id="roughGrassAndNonconiferousTreesFillSymbol_3_">
		<g id="nonconiferousTreesFillSymbol_3_">
			<g id="nonconiferousTreeFillSymbol_3_">
				<g>
					<g id="nonconiferousTreeGeometry_3_">
						<g>
							<path fill="#FFFFFF" d="M3.3,46.581H3.216l-0.179-0.718c-0.12,0.13-0.29,0.203-0.468,0.203c-0.133,0-0.262-0.041-0.371-0.117
								c-0.29-0.204-0.359-0.605-0.155-0.896c0.042-0.059,0.093-0.109,0.153-0.152c-0.078-0.116-0.111-0.258-0.094-0.397
								c0.019-0.155,0.098-0.298,0.223-0.396c0.102-0.08,0.222-0.123,0.35-0.127c0.067-0.267,0.307-0.453,0.582-0.453
								c0.039,0,0.078,0.004,0.116,0.011c0.232,0.045,0.413,0.217,0.47,0.442c0.315,0.008,0.566,0.258,0.577,0.574
								c0.004,0.122-0.031,0.244-0.1,0.348c0.272,0.193,0.354,0.568,0.179,0.856c-0.115,0.191-0.327,0.312-0.55,0.312
								c-0.117,0-0.232-0.031-0.333-0.094c-0.049-0.029-0.096-0.065-0.136-0.108L3.3,46.581z M3.077,45.666l0.181,0.725l0.181-0.723
								l0.055,0.077c0.044,0.063,0.102,0.116,0.166,0.155c0.087,0.053,0.187,0.08,0.288,0.08c0.193,0,0.376-0.104,0.476-0.27
								c0.158-0.263,0.074-0.604-0.189-0.766l-0.042-0.024l0.03-0.039c0.074-0.093,0.112-0.21,0.109-0.327
								c-0.009-0.271-0.236-0.49-0.506-0.49l-0.054,0.002l-0.007-0.037c-0.04-0.209-0.2-0.368-0.409-0.408
								c-0.033-0.008-0.066-0.01-0.1-0.01c-0.246,0-0.458,0.176-0.505,0.418l-0.007,0.037l-0.052-0.002
								c-0.114,0-0.223,0.037-0.314,0.107c-0.106,0.084-0.174,0.203-0.19,0.339c-0.016,0.134,0.021,0.267,0.104,0.37l0.03,0.039
								L2.28,44.945c-0.067,0.041-0.124,0.095-0.167,0.156c-0.177,0.25-0.117,0.599,0.133,0.774
								c0.095,0.065,0.206,0.103,0.321,0.103c0.181,0,0.351-0.088,0.454-0.235L3.077,45.666z"/>
						</g>
					</g>
				</g>
			</g>
			<g>
				<g id="smallNonconiferousTreeFillSymbol_3_">
					<g>
						<path fill="#FFFFFF" d="M5.216,47.98l-0.081-0.322c-0.115,0.099-0.295,0.109-0.421,0.02c-0.075-0.054-0.125-0.133-0.141-0.223
							c-0.016-0.092,0.004-0.182,0.057-0.258c0.021-0.025,0.042-0.049,0.066-0.068c-0.077-0.135-0.046-0.311,0.079-0.41
							c0.05-0.037,0.11-0.062,0.172-0.066c0.046-0.15,0.203-0.25,0.369-0.225c0.121,0.025,0.216,0.111,0.25,0.225
							c0.164,0.018,0.286,0.146,0.292,0.307c0.002,0.063-0.013,0.119-0.043,0.171c0.132,0.104,0.169,0.296,0.08,0.445
							c-0.063,0.104-0.173,0.167-0.294,0.167c-0.062,0-0.124-0.02-0.177-0.051c-0.016-0.01-0.031-0.021-0.045-0.031L5.3,47.98H5.216
							z M5.178,47.469l0.08,0.321l0.081-0.325l0.055,0.08c0.019,0.027,0.046,0.053,0.077,0.071c0.04,0.024,0.085,0.036,0.132,0.036
							c0.091,0,0.173-0.047,0.22-0.125c0.072-0.12,0.033-0.278-0.088-0.354L5.691,47.15l0.031-0.039
							c0.035-0.045,0.052-0.096,0.051-0.151c-0.005-0.123-0.109-0.224-0.233-0.224H5.504L5.49,46.701
							c-0.018-0.094-0.092-0.168-0.189-0.188c-0.013-0.005-0.026-0.006-0.04-0.006c-0.115,0-0.215,0.081-0.235,0.192l-0.007,0.036
							l-0.037-0.002l0,0c-0.058,0-0.11,0.02-0.151,0.051c-0.099,0.079-0.117,0.226-0.039,0.324l0.03,0.039L4.78,47.178
							c-0.029,0.018-0.055,0.041-0.078,0.072c-0.039,0.055-0.054,0.122-0.042,0.189c0.012,0.066,0.049,0.127,0.105,0.166
							c0.111,0.08,0.278,0.051,0.358-0.063L5.178,47.469z"/>
					</g>
				</g>
			</g>
		</g>
	</g>
</g>
<g id="NonConTrees" enable-background="new    ">
	<g id="roughGrassAndNonconiferousTreesFillSymbol_2_">
		<g id="nonconiferousTreesFillSymbol_2_">
			<g id="nonconiferousTreeFillSymbol_2_">
				<g>
					<g id="nonconiferousTreeGeometry_2_">
						<g>
							<path fill="#FFFFFF" d="M35.3,22.604h-0.084l-0.18-0.716c-0.119,0.128-0.289,0.203-0.468,0.203
								c-0.133,0-0.262-0.041-0.371-0.118c-0.289-0.205-0.358-0.607-0.154-0.896c0.04-0.058,0.094-0.111,0.152-0.154
								c-0.168-0.255-0.115-0.602,0.13-0.794c0.1-0.079,0.223-0.124,0.349-0.127c0.077-0.302,0.379-0.506,0.699-0.442
								c0.23,0.044,0.412,0.216,0.47,0.442c0.314,0.009,0.565,0.257,0.575,0.574c0.004,0.123-0.031,0.245-0.1,0.349
								c0.271,0.193,0.354,0.567,0.18,0.857c-0.116,0.191-0.327,0.311-0.551,0.311c-0.116,0-0.231-0.033-0.332-0.094
								c-0.051-0.029-0.096-0.066-0.137-0.109L35.3,22.604z M35.076,21.689l0.182,0.724l0.182-0.722l0.056,0.077
								c0.046,0.065,0.104,0.117,0.167,0.155c0.087,0.053,0.188,0.082,0.286,0.082c0.192,0,0.377-0.103,0.478-0.269
								c0.158-0.262,0.073-0.605-0.188-0.764l-0.043-0.025l0.031-0.039c0.072-0.094,0.11-0.212,0.106-0.33
								c-0.01-0.275-0.229-0.49-0.506-0.49l-0.056,0.001l-0.006-0.036c-0.039-0.208-0.201-0.369-0.408-0.409
								c-0.278-0.055-0.553,0.134-0.604,0.409l-0.007,0.036l-0.054-0.001c-0.112,0-0.226,0.039-0.313,0.109
								c-0.22,0.172-0.259,0.491-0.087,0.71l0.028,0.038l-0.04,0.026c-0.066,0.041-0.124,0.095-0.169,0.156
								c-0.176,0.25-0.114,0.598,0.137,0.775c0.094,0.067,0.205,0.102,0.318,0.102c0.183,0,0.353-0.088,0.453-0.236L35.076,21.689z"
								/>
						</g>
					</g>
				</g>
			</g>
			<g>
				<g id="smallNonconiferousTreeFillSymbol_2_">
					<g>
						<path fill="#FFFFFF" d="M37.216,24.003l-0.079-0.322c-0.117,0.098-0.296,0.109-0.422,0.018
							c-0.154-0.109-0.191-0.323-0.083-0.478c0.021-0.027,0.042-0.05,0.065-0.069c-0.077-0.135-0.047-0.311,0.078-0.41
							c0.052-0.039,0.111-0.062,0.172-0.067c0.041-0.135,0.168-0.23,0.314-0.23c0.018,0,0.035,0.002,0.057,0.005
							c0.121,0.025,0.216,0.111,0.25,0.225c0.16,0.017,0.285,0.147,0.291,0.306c0.002,0.061-0.012,0.119-0.041,0.17
							c0.131,0.105,0.168,0.296,0.078,0.445c-0.063,0.104-0.172,0.167-0.293,0.167c-0.063,0-0.123-0.017-0.179-0.05
							c-0.017-0.01-0.03-0.021-0.046-0.033l-0.08,0.322L37.216,24.003z M37.178,23.492l0.08,0.321l0.08-0.323l0.055,0.078
							c0.021,0.027,0.049,0.053,0.078,0.072c0.119,0.072,0.281,0.03,0.353-0.088c0.071-0.122,0.032-0.279-0.089-0.352l-0.041-0.025
							l0.029-0.039c0.034-0.044,0.053-0.096,0.051-0.151c-0.004-0.123-0.107-0.224-0.231-0.224h-0.035l-0.015-0.035
							c-0.02-0.095-0.094-0.169-0.188-0.189c-0.015-0.002-0.027-0.003-0.041-0.003c-0.115,0-0.216,0.082-0.234,0.193l-0.008,0.037
							l-0.037-0.001l0,0c-0.06,0-0.108,0.018-0.15,0.05c-0.1,0.079-0.117,0.225-0.039,0.325l0.029,0.039L36.779,23.2
							c-0.027,0.017-0.055,0.042-0.078,0.073c-0.08,0.114-0.053,0.274,0.064,0.356c0.107,0.08,0.275,0.05,0.355-0.061L37.178,23.492
							z"/>
					</g>
				</g>
			</g>
		</g>
	</g>
</g>
</svg>
