<?xml version="1.0" encoding="utf-8"?>
<!-- Generator: Adobe Illustrator 16.0.3, SVG Export Plug-In . SVG Version: 6.00 Build 0)  -->
<!DOCTYPE svg PUBLIC "-//W3C//DTD SVG 1.1//EN" "http://www.w3.org/Graphics/SVG/1.1/DTD/svg11.dtd">
<svg version="1.1"
	 id="svg2" xmlns:cc="http://creativecommons.org/ns#" xmlns:rdf="http://www.w3.org/1999/02/22-rdf-syntax-ns#" xmlns:svg="http://www.w3.org/2000/svg" xmlns:dc="http://purl.org/dc/elements/1.1/" xmlns:inkscape="http://www.inkscape.org/namespaces/inkscape" xmlns:sodipodi="http://sodipodi.sourceforge.net/DTD/sodipodi-0.dtd" sodipodi:docname="positionedConiferousTreeSymbol.svg" inkscape:output_extension="org.inkscape.output.svg.inkscape" sodipodi:version="0.32" inkscape:version="0.46"
	 xmlns="http://www.w3.org/2000/svg" xmlns:xlink="http://www.w3.org/1999/xlink" x="0px" y="0px" width="2.725px" height="6.2px"
	 viewBox="0 0 2.725 6.2" enable-background="new 0 0 2.725 6.2" xml:space="preserve">
<g id="positionedConiferousTreeSymbol" transform="matrix(1,0,0,-1,1.3625,1.5125)">
	<g id="polyline4">
		<rect x="-0.043" y="-1.55" fill="#666666" width="0.087" height="3"/>
	</g>
	<g id="path6">
		<path fill="#666666" d="M1.289-0.992C0.737-0.852,0.272-0.49,0,0.006C-0.272-0.49-0.738-0.852-1.289-0.992L-1.31-0.908
			c0.554,0.141,1.017,0.515,1.271,1.027L0,0.198l0.039-0.079c0.253-0.512,0.717-0.886,1.271-1.027L1.289-0.992z"/>
	</g>
	<g id="path8">
		<path fill="#666666" d="M0.882,0.261C0.512,0.435,0.208,0.712,0,1.062c-0.208-0.351-0.511-0.627-0.882-0.802L-0.919,0.34
			c0.377,0.178,0.682,0.465,0.881,0.832L0,1.241l0.038-0.07C0.237,0.805,0.542,0.517,0.919,0.34L0.882,0.261z"/>
	</g>
</g>
</svg>
