<?xml version="1.0" encoding="UTF-8"?>
<svg id="Layer_2" xmlns="http://www.w3.org/2000/svg" viewBox="0 0 40.24 43.49">
  <g id="Heath">
    <rect x="20.09" y=".97" width=".09" height=".55" transform="translate(.18 4.2) rotate(-11.95)" fill="#acbaab"/>
    <rect x="20.58" y=".36" width=".09" height="1.02" transform="translate(.05 2.52) rotate(-7.01)" fill="#acbaab"/>
    <rect x="21.11" y=".08" width=".09" height="1.24" transform="translate(-.01 .88) rotate(-2.4)" fill="#acbaab"/>
    <rect x="21.64" y=".04" width=".09" height="1.27" fill="#acbaab"/>
    <rect x="22.16" y=".08" width=".09" height="1.24" fill="#acbaab"/>
    <rect x="22.23" y=".83" width="1.02" height=".09" transform="translate(18.94 23.31) rotate(-82.59)" fill="#acbaab"/>
    <line x1="23.28" y1=".98" x2="23.17" y2="1.52" fill="#acbaab"/>
  </g>
  <g id="Heath-2" data-name="Heath" isolation="isolate">
    <rect x="37.05" y=".93" width=".09" height=".55" transform="translate(.56 7.75) rotate(-12.01)" fill="#acbaab"/>
    <rect x="37.54" y=".32" width=".09" height="1.02" transform="translate(.18 4.6) rotate(-7.01)" fill="#acbaab"/>
    <rect x="38.08" y=".04" width=".09" height="1.24" transform="translate(0 1.59) rotate(-2.4)" fill="#acbaab"/>
    <rect x="38.6" width=".09" height="1.27" fill="#acbaab"/>
    <rect x="39.12" y=".04" width=".09" height="1.24" fill="#acbaab"/>
    <rect x="39.19" y=".79" width="1.02" height=".09" transform="translate(33.84 40.11) rotate(-82.72)" fill="#acbaab"/>
    <line x1="40.24" y1=".94" x2="40.13" y2="1.48" fill="#acbaab"/>
  </g>
  <g id="Heath-3" data-name="Heath" isolation="isolate">
    <rect x="31.05" y="8.93" width=".09" height=".55" transform="translate(-1.24 6.67) rotate(-12.01)" fill="#acbaab"/>
    <rect x="31.54" y="8.32" width=".09" height="1.02" transform="translate(-.84 3.92) rotate(-7.01)" fill="#acbaab"/>
    <rect x="32.08" y="8.04" width=".09" height="1.24" transform="translate(-.33 1.32) rotate(-2.35)" fill="#acbaab"/>
    <rect x="32.6" y="8" width=".09" height="1.27" fill="#acbaab"/>
    <rect x="33.12" y="8.04" width=".09" height="1.24" fill="#acbaab"/>
    <rect x="33.19" y="8.79" width="1.02" height=".09" transform="translate(20.76 41.18) rotate(-82.88)" fill="#acbaab"/>
    <line x1="34.24" y1="8.94" x2="34.13" y2="9.48" fill="#acbaab"/>
  </g>
  <g id="Heath-4" data-name="Heath" isolation="isolate">
    <rect x="5.06" y="10.96" width=".09" height=".55" transform="translate(-2.22 1.3) rotate(-11.96)" fill="#acbaab"/>
    <rect x="5.54" y="10.35" width=".09" height="1.02" transform="translate(-1.28 .76) rotate(-7.01)" fill="#acbaab"/>
    <rect x="6.08" y="10.06" width=".09" height="1.24" transform="translate(-.44 .27) rotate(-2.4)" fill="#acbaab"/>
    <rect x="6.6" y="10.03" width=".09" height="1.27" fill="#acbaab"/>
    <rect x="7.12" y="10.06" width=".09" height="1.24" fill="#acbaab"/>
    <rect x="7.19" y="10.82" width="1.02" height=".09" transform="translate(-4.04 17.16) rotate(-82.88)" fill="#acbaab"/>
    <line x1="8.24" y1="10.97" x2="8.13" y2="11.51" fill="#acbaab"/>
  </g>
  <g id="Heath-5" data-name="Heath" isolation="isolate">
    <rect x=".06" y="20.84" width=".09" height=".55" transform="translate(-4.37 .48) rotate(-11.95)" fill="#acbaab"/>
    <rect x=".54" y="20.23" width=".09" height="1.02" transform="translate(-2.53 .23) rotate(-7.01)" fill="#acbaab"/>
    <rect x="1.08" y="19.94" width=".09" height="1.24" transform="translate(-.86 .06) rotate(-2.4)" fill="#acbaab"/>
    <rect x="1.6" y="19.9" width=".09" height="1.27" fill="#acbaab"/>
    <rect x="2.12" y="19.94" width=".09" height="1.24" fill="#acbaab"/>
    <rect x="2.19" y="20.7" width="1.02" height=".09" transform="translate(-18.21 20.86) rotate(-82.92)" fill="#acbaab"/>
    <line x1="3.24" y1="20.84" x2="3.13" y2="21.38" fill="#acbaab"/>
  </g>
  <g id="Heath-6" data-name="Heath" isolation="isolate">
    <rect x="5.06" y="33.97" width=".09" height=".55" transform="translate(-6.99 1.8) rotate(-11.98)" fill="#acbaab"/>
    <rect x="5.54" y="33.36" width=".09" height="1.02" transform="translate(-4.09 .93) rotate(-7)" fill="#acbaab"/>
    <rect x="6.08" y="33.07" width=".09" height="1.24" transform="translate(-1.4 .29) rotate(-2.4)" fill="#acbaab"/>
    <rect x="6.6" y="33.03" width=".09" height="1.27" fill="#acbaab"/>
    <rect x="7.12" y="33.07" width=".09" height="1.24" fill="#acbaab"/>
    <rect x="7.19" y="33.83" width="1.02" height=".09" transform="translate(-26.82 37.68) rotate(-83.48)" fill="#acbaab"/>
    <line x1="8.24" y1="33.97" x2="8.13" y2="34.51" fill="#acbaab"/>
  </g>
  <g id="Heath-7" data-name="Heath" isolation="isolate">
    <rect x="22.06" y="31.93" width=".09" height=".55" transform="translate(-6.22 5.31) rotate(-12.02)" fill="#acbaab"/>
    <rect x="22.54" y="31.32" width=".09" height="1.03" transform="translate(-3.7 2.98) rotate(-6.98)" fill="#acbaab"/>
    <rect x="23.08" y="31.04" width=".09" height="1.24" transform="translate(-1.3 .99) rotate(-2.4)" fill="#acbaab"/>
    <rect x="23.6" y="31" width=".09" height="1.27" fill="#acbaab"/>
    <rect x="24.12" y="31.04" width=".09" height="1.24" fill="#acbaab"/>
    <rect x="24.19" y="31.79" width="1.02" height=".09" transform="translate(-9.72 52.78) rotate(-83.52)" fill="#acbaab"/>
    <line x1="25.24" y1="31.94" x2="25.13" y2="32.48" fill="#acbaab"/>
  </g>
  <g id="Heath-8" data-name="Heath" isolation="isolate">
    <rect x="37.05" y="30.93" width=".09" height=".55" transform="translate(-5.69 8.41) rotate(-12.02)" fill="#acbaab"/>
    <rect x="37.54" y="30.33" width=".09" height="1.02" transform="translate(-3.43 4.74) rotate(-6.9)" fill="#acbaab"/>
    <rect x="38.08" y="30.04" width=".09" height="1.24" transform="translate(-1.25 1.62) rotate(-2.4)" fill="#acbaab"/>
    <rect x="38.6" y="30" width=".09" height="1.27" fill="#acbaab"/>
    <rect x="39.12" y="30.04" width=".09" height="1.24" fill="#acbaab"/>
    <rect x="39.19" y="30.8" width="1.03" height=".08" transform="translate(5.35 67.55) rotate(-84.74)" fill="#acbaab"/>
    <line x1="40.24" y1="30.94" x2="40.13" y2="31.48" fill="#acbaab"/>
  </g>
  <g id="Heath-9" data-name="Heath" isolation="isolate">
    <rect x="34.05" y="42.93" width=".09" height=".55" transform="translate(-8.25 8.05) rotate(-12.02)" fill="#acbaab"/>
    <rect x="34.54" y="42.32" width=".09" height="1.02" transform="translate(-4.96 4.54) rotate(-7)" fill="#acbaab"/>
    <rect x="35.08" y="42.04" width=".09" height="1.24" transform="translate(-1.79 1.53) rotate(-2.44)" fill="#acbaab"/>
    <rect x="35.6" y="42" width=".09" height="1.27" fill="#acbaab"/>
    <rect x="36.12" y="42.04" width=".09" height="1.24" fill="#acbaab"/>
    <rect x="36.19" y="42.79" width="1.03" height=".09" transform="translate(-9.28 75.51) rotate(-84.81)" fill="#acbaab"/>
    <line x1="37.24" y1="42.94" x2="37.13" y2="43.48" fill="#acbaab"/>
  </g>
  <g id="Heath-10" data-name="Heath" isolation="isolate">
    <rect x=".06" y="42.91" width=".09" height=".55" transform="translate(-8.96 .96) rotate(-11.98)" fill="#acbaab"/>
    <rect x=".54" y="42.3" width=".09" height="1.02" transform="translate(-5.22 .39) rotate(-7.01)" fill="#acbaab"/>
    <rect x="1.08" y="42.02" width=".09" height="1.24" transform="translate(-1.76 .08) rotate(-2.37)" fill="#acbaab"/>
    <rect x="1.6" y="41.98" width=".09" height="1.27" fill="#acbaab"/>
    <rect x="2.12" y="42.02" width=".09" height="1.24" fill="#acbaab"/>
    <rect x="2.19" y="42.77" width="1.03" height=".09" transform="translate(-40.14 40.64) rotate(-83.48)" fill="#acbaab"/>
    <line x1="3.24" y1="42.92" x2="3.13" y2="43.46" fill="#acbaab"/>
  </g>
  <g id="Heath-11" data-name="Heath" isolation="isolate">
    <rect x="32.05" y="18.93" width=".09" height=".55" transform="translate(-3.29 7.1) rotate(-12.01)" fill="#acbaab"/>
    <rect x="32.54" y="18.32" width=".09" height="1.02" transform="translate(-2.06 4.12) rotate(-7.01)" fill="#acbaab"/>
    <rect x="33.08" y="18.04" width=".09" height="1.24" transform="translate(-.74 1.37) rotate(-2.35)" fill="#acbaab"/>
    <rect x="33.6" y="18" width=".09" height="1.27" fill="#acbaab"/>
    <rect x="34.12" y="18.04" width=".09" height="1.24" fill="#acbaab"/>
    <rect x="34.19" y="18.79" width="1.02" height=".09" transform="translate(11.71 50.94) rotate(-82.88)" fill="#acbaab"/>
    <line x1="35.24" y1="18.94" x2="35.13" y2="19.48" fill="#acbaab"/>
  </g>
</svg>