<?xml version="1.0" encoding="utf-8"?>
<!-- Generator: Adobe Illustrator 16.0.3, SVG Export Plug-In . SVG Version: 6.00 Build 0)  -->
<!DOCTYPE svg PUBLIC "-//W3C//DTD SVG 1.1//EN" "http://www.w3.org/Graphics/SVG/1.1/DTD/svg11.dtd">
<svg version="1.1" id="Layer_2" xmlns="http://www.w3.org/2000/svg" xmlns:xlink="http://www.w3.org/1999/xlink" x="0px" y="0px"
	 width="50px" height="50px" viewBox="0 0 50 50" enable-background="new 0 0 50 50" xml:space="preserve">
<g id="Rock_10_">
	<g id="rocksFillSymbol_12_">
		<g>
			<g id="rockFillSymbol_12_">
				<g>
					<polygon fill="#BABABA" points="22.259,4.276 21.216,4.276 21.216,4.189 22.247,4.189 22.451,4.127 22.63,3.881 22.7,3.932 
						22.503,4.201 					"/>
				</g>
				<g>
					<polygon fill="#BABABA" points="24.884,4.276 24.332,4.221 23.82,4.073 23.744,4.08 23.704,4.098 23.527,4.219 23.478,4.148 
						23.669,4.016 24.174,3.796 24.595,3.615 24.646,3.55 24.671,3.471 24.671,3.46 24.673,3.438 24.656,3.318 24.595,3.18 
						24.578,3.153 24.346,2.896 24.238,2.868 24.151,2.883 24.135,2.889 23.067,3.302 23.034,3.222 23.267,3.123 23.672,2.932 
						23.719,2.857 23.701,2.724 23.695,2.718 23.553,2.564 23.561,2.52 23.542,2.56 23.519,2.556 23.502,2.512 23.505,2.556 
						23.487,2.561 23.471,2.52 23.474,2.564 23.276,2.628 22.702,2.839 22.289,3.03 22.014,3.138 21.962,3.203 21.94,3.279 
						21.96,3.368 22.001,3.442 22.085,3.538 22.162,3.586 22.121,3.664 22.03,3.605 21.966,3.54 21.896,3.437 21.868,3.37 
						21.854,3.27 21.875,3.184 21.928,3.098 22,3.043 22.256,2.95 22.669,2.759 23.248,2.545 23.468,2.476 23.488,2.516 
						23.483,2.472 23.536,2.469 23.542,2.47 23.544,2.516 23.554,2.474 23.609,2.494 23.651,2.528 23.806,2.754 23.812,2.833 
						23.793,2.909 23.783,2.932 24.174,2.786 24.252,2.781 24.308,2.79 24.403,2.828 24.463,2.88 24.669,3.136 24.717,3.232 
						24.74,3.297 24.76,3.441 24.757,3.465 24.758,3.476 24.739,3.562 24.686,3.647 24.599,3.719 24.561,3.735 24.208,3.876 
						23.924,4.001 23.99,4.024 24.349,4.136 24.893,4.189 					"/>
				</g>
			</g>
		</g>
		<g>
			<g id="smallRockFillSymbol_12_">
				<g>
					<polygon fill="#BABABA" points="25.416,5.158 24.889,5.158 24.889,5.071 25.402,5.071 25.493,5.042 25.58,4.925 25.65,4.977 
						25.546,5.117 					"/>
				</g>
				<g>
					<polygon fill="#BABABA" points="26.723,5.158 26.445,5.131 26.207,5.058 26.202,5.041 26.193,5.044 26.193,5.057 26.182,5.057 
						26.18,5.051 26.168,5.055 26.169,5.058 26.145,5.065 26.059,5.126 26.009,5.055 26.016,5.051 26.13,4.977 26.359,4.876 
						26.538,4.806 26.568,4.839 26.551,4.799 26.581,4.832 26.563,4.791 26.607,4.809 26.574,4.781 26.617,4.796 26.581,4.771 
						26.624,4.783 26.586,4.76 26.592,4.75 26.637,4.752 26.596,4.731 26.584,4.653 26.553,4.587 26.464,4.48 26.486,4.441 
						26.455,4.473 26.473,4.431 26.443,4.465 26.456,4.423 26.432,4.46 26.441,4.417 26.434,4.432 26.428,4.458 26.415,4.457 
						26.408,4.41 26.396,4.455 26.37,4.459 26.342,4.422 26.357,4.463 25.822,4.67 25.789,4.589 26.107,4.442 26.118,4.427 
						26.122,4.413 26.166,4.396 26.123,4.402 26.164,4.383 26.121,4.391 26.117,4.378 26.048,4.3 26.037,4.299 26.023,4.302 
						25.926,4.333 25.641,4.439 25.435,4.533 25.307,4.581 25.267,4.556 25.293,4.592 25.249,4.578 25.283,4.606 25.279,4.617 
						25.233,4.619 25.275,4.634 25.292,4.693 25.373,4.773 25.331,4.849 25.261,4.798 25.21,4.729 25.187,4.642 25.197,4.587 
						25.243,4.591 25.203,4.573 25.242,4.521 25.28,4.546 25.254,4.511 25.276,4.498 25.402,4.453 25.605,4.359 26.039,4.211 
						26.1,4.228 26.117,4.243 26.195,4.34 26.21,4.412 26.208,4.427 26.339,4.377 26.359,4.417 26.352,4.374 26.396,4.367 
						26.419,4.368 26.425,4.414 26.434,4.371 26.459,4.377 26.525,4.419 26.652,4.586 26.682,4.698 26.684,4.722 26.645,4.833 
						26.586,4.879 26.568,4.887 26.303,4.996 26.463,5.046 26.729,5.071 					"/>
				</g>
			</g>
		</g>
	</g>
</g>
<g id="Rock_9_" enable-background="new    ">
	<g id="rocksFillSymbol_11_">
		<g>
			<g id="rockFillSymbol_11_">
				<g>
					<polygon fill="#BABABA" points="39.223,4.237 38.18,4.237 38.18,4.15 39.209,4.15 39.414,4.088 39.593,3.842 39.663,3.893 
						39.467,4.163 					"/>
				</g>
				<g>
					<polygon fill="#BABABA" points="41.848,4.237 41.295,4.183 40.783,4.034 40.706,4.042 40.667,4.059 40.49,4.181 40.441,4.109 
						40.443,4.107 40.675,3.96 41.137,3.757 41.559,3.576 41.609,3.511 41.635,3.432 41.634,3.421 41.637,3.4 41.619,3.279 
						41.572,3.168 41.541,3.115 41.309,2.857 41.2,2.83 41.113,2.845 41.098,2.851 40.029,3.264 39.997,3.183 40.23,3.084 
						40.635,2.894 40.68,2.83 40.688,2.756 40.659,2.68 40.525,2.53 40.523,2.481 40.514,2.523 40.48,2.517 40.466,2.474 
						40.469,2.518 40.45,2.522 40.434,2.481 40.438,2.525 40.238,2.589 39.665,2.801 39.253,2.992 38.977,3.1 38.925,3.165 
						38.906,3.223 38.902,3.24 38.922,3.329 38.979,3.424 39.048,3.5 39.125,3.548 39.084,3.625 38.992,3.566 38.93,3.502 
						38.857,3.397 38.83,3.332 38.816,3.231 38.837,3.145 38.891,3.06 38.963,3.005 39.221,2.911 39.632,2.72 40.211,2.507 
						40.432,2.438 40.451,2.478 40.445,2.434 40.499,2.43 40.505,2.432 40.508,2.478 40.52,2.436 40.572,2.455 40.613,2.49 
						40.755,2.676 40.775,2.794 40.757,2.869 40.746,2.893 41.139,2.748 41.215,2.743 41.271,2.751 41.365,2.79 41.426,2.841 
						41.633,3.097 41.691,3.226 41.703,3.259 41.723,3.402 41.721,3.426 41.723,3.437 41.702,3.523 41.648,3.608 41.561,3.681 
						41.523,3.697 41.17,3.838 40.889,3.962 41.313,4.098 41.855,4.15 					"/>
				</g>
			</g>
		</g>
		<g>
			<g id="smallRockFillSymbol_11_">
				<g>
					<polygon fill="#BABABA" points="42.379,5.12 41.854,5.12 41.854,5.033 42.365,5.033 42.456,5.004 42.543,4.886 42.613,4.938 
						42.509,5.078 					"/>
				</g>
				<g>
					<polygon fill="#BABABA" points="43.686,5.12 43.409,5.092 43.17,5.02 43.165,5.002 43.157,5.005 43.157,5.018 43.145,5.018 
						43.143,5.012 43.131,5.017 43.132,5.019 43.107,5.027 43.021,5.087 42.973,5.016 43.093,4.938 43.322,4.838 43.501,4.767 
						43.532,4.801 43.514,4.761 43.544,4.793 43.525,4.752 43.57,4.771 43.537,4.743 43.58,4.758 43.544,4.732 43.587,4.744 
						43.549,4.721 43.555,4.711 43.6,4.714 43.559,4.693 43.547,4.615 43.516,4.549 43.428,4.442 43.449,4.402 43.418,4.435 
						43.436,4.393 43.406,4.426 43.419,4.385 43.395,4.422 43.404,4.378 43.396,4.394 43.391,4.419 43.378,4.418 43.371,4.372 
						43.357,4.417 43.333,4.42 43.305,4.384 43.32,4.424 42.785,4.631 42.752,4.551 43.07,4.403 43.081,4.388 43.085,4.374 
						43.129,4.357 43.086,4.363 43.127,4.344 43.084,4.352 43.08,4.34 43.012,4.261 43,4.26 42.986,4.263 42.889,4.295 
						42.604,4.401 42.398,4.495 42.27,4.543 42.229,4.518 42.255,4.553 42.212,4.539 42.246,4.567 42.238,4.591 42.191,4.595 
						42.236,4.603 42.27,4.677 42.335,4.734 42.294,4.811 42.225,4.758 42.173,4.689 42.156,4.644 42.195,4.623 42.152,4.631 
						42.148,4.604 42.15,4.583 42.195,4.58 42.154,4.569 42.16,4.548 42.206,4.553 42.166,4.534 42.204,4.482 42.243,4.508 
						42.218,4.472 42.238,4.459 42.365,4.414 42.568,4.32 43.002,4.173 43.063,4.189 43.08,4.204 43.158,4.302 43.173,4.373 
						43.171,4.389 43.303,4.339 43.322,4.378 43.314,4.335 43.357,4.328 43.382,4.33 43.389,4.375 43.396,4.332 43.422,4.339 
						43.488,4.38 43.615,4.548 43.645,4.659 43.646,4.683 43.607,4.794 43.549,4.841 43.532,4.848 43.266,4.958 43.426,5.007 
						43.691,5.033 					"/>
				</g>
			</g>
		</g>
	</g>
</g>
<g id="Rock_8_" enable-background="new    ">
	<g id="rocksFillSymbol_10_">
		<g>
			<g id="rockFillSymbol_10_">
				<g>
					<polygon fill="#BABABA" points="33.223,12.237 32.18,12.237 32.18,12.15 33.209,12.15 33.414,12.088 33.593,11.842 
						33.663,11.893 33.467,12.163 					"/>
				</g>
				<g>
					<polygon fill="#BABABA" points="35.848,12.237 35.295,12.183 34.783,12.034 34.706,12.042 34.667,12.059 34.49,12.181 
						34.441,12.109 34.443,12.107 34.675,11.96 35.137,11.757 35.559,11.576 35.609,11.511 35.635,11.432 35.634,11.421 
						35.637,11.4 35.619,11.279 35.572,11.168 35.541,11.115 35.309,10.857 35.2,10.83 35.113,10.845 35.098,10.851 34.029,11.264 
						33.997,11.183 34.23,11.084 34.635,10.894 34.68,10.83 34.688,10.756 34.659,10.68 34.525,10.53 34.523,10.481 34.514,10.523 
						34.48,10.517 34.466,10.474 34.469,10.518 34.45,10.522 34.434,10.481 34.438,10.525 34.238,10.589 33.665,10.801 
						33.253,10.992 32.977,11.1 32.925,11.165 32.906,11.223 32.902,11.24 32.922,11.329 32.979,11.424 33.048,11.5 33.125,11.548 
						33.084,11.625 32.992,11.566 32.93,11.502 32.857,11.397 32.83,11.332 32.816,11.231 32.837,11.145 32.891,11.06 
						32.963,11.005 33.221,10.911 33.632,10.72 34.211,10.507 34.432,10.438 34.451,10.478 34.445,10.434 34.499,10.43 
						34.505,10.432 34.508,10.478 34.52,10.436 34.572,10.455 34.613,10.49 34.755,10.676 34.775,10.794 34.757,10.869 
						34.746,10.893 35.139,10.748 35.215,10.743 35.271,10.751 35.365,10.79 35.426,10.841 35.633,11.097 35.691,11.226 
						35.703,11.259 35.723,11.402 35.721,11.426 35.723,11.437 35.702,11.523 35.648,11.608 35.561,11.681 35.523,11.697 
						35.17,11.838 34.889,11.962 35.313,12.098 35.855,12.15 					"/>
				</g>
			</g>
		</g>
		<g>
			<g id="smallRockFillSymbol_10_">
				<g>
					<polygon fill="#BABABA" points="36.379,13.12 35.854,13.12 35.854,13.033 36.365,13.033 36.456,13.004 36.543,12.886 
						36.613,12.938 36.509,13.078 					"/>
				</g>
				<g>
					<polygon fill="#BABABA" points="37.686,13.12 37.409,13.092 37.17,13.02 37.165,13.002 37.157,13.005 37.157,13.018 
						37.145,13.018 37.143,13.012 37.131,13.017 37.132,13.019 37.107,13.027 37.021,13.087 36.973,13.016 37.093,12.938 
						37.322,12.838 37.501,12.767 37.532,12.801 37.514,12.761 37.544,12.793 37.525,12.752 37.57,12.771 37.537,12.743 
						37.58,12.758 37.544,12.732 37.587,12.744 37.549,12.721 37.555,12.711 37.6,12.714 37.559,12.693 37.547,12.615 
						37.516,12.549 37.428,12.442 37.449,12.402 37.418,12.435 37.436,12.393 37.406,12.426 37.419,12.385 37.395,12.422 
						37.404,12.378 37.396,12.394 37.391,12.419 37.378,12.418 37.371,12.372 37.357,12.417 37.333,12.42 37.305,12.384 
						37.32,12.424 36.785,12.631 36.752,12.551 37.07,12.403 37.081,12.388 37.085,12.374 37.129,12.357 37.086,12.363 
						37.127,12.344 37.084,12.352 37.08,12.34 37.012,12.261 37,12.26 36.986,12.263 36.889,12.295 36.604,12.401 36.398,12.495 
						36.27,12.543 36.229,12.518 36.255,12.553 36.212,12.539 36.246,12.567 36.238,12.591 36.191,12.595 36.236,12.603 
						36.27,12.677 36.335,12.734 36.294,12.811 36.225,12.758 36.173,12.689 36.156,12.644 36.195,12.623 36.152,12.631 
						36.148,12.604 36.15,12.583 36.195,12.58 36.154,12.569 36.16,12.548 36.206,12.553 36.166,12.534 36.204,12.482 
						36.243,12.508 36.218,12.472 36.238,12.459 36.365,12.414 36.568,12.32 37.002,12.173 37.063,12.189 37.08,12.204 
						37.158,12.302 37.173,12.373 37.171,12.389 37.303,12.339 37.322,12.378 37.314,12.335 37.357,12.328 37.382,12.33 
						37.389,12.375 37.396,12.332 37.422,12.339 37.488,12.38 37.615,12.548 37.645,12.659 37.646,12.683 37.607,12.794 
						37.549,12.841 37.532,12.848 37.266,12.958 37.426,13.007 37.691,13.033 					"/>
				</g>
			</g>
		</g>
	</g>
</g>
<g id="Rock_7_" enable-background="new    ">
	<g id="rocksFillSymbol_9_">
		<g>
			<g id="rockFillSymbol_9_">
				<g>
					<polygon fill="#BABABA" points="7.222,14.266 6.178,14.266 6.178,14.179 7.209,14.179 7.413,14.117 7.592,13.871 7.663,13.921 
						7.466,14.191 					"/>
				</g>
				<g>
					<polygon fill="#BABABA" points="9.846,14.266 9.294,14.211 8.782,14.063 8.707,14.07 8.667,14.087 8.489,14.209 8.44,14.138 
						8.441,14.137 8.631,14.006 9.137,13.786 9.558,13.604 9.609,13.54 9.634,13.46 9.633,13.45 9.636,13.428 9.619,13.308 
						9.557,13.17 9.541,13.143 9.308,12.885 9.2,12.858 9.113,12.873 9.098,12.879 8.029,13.292 7.997,13.211 8.229,13.112 
						8.634,12.922 8.682,12.847 8.664,12.714 8.657,12.708 8.515,12.554 8.523,12.51 8.504,12.55 8.481,12.545 8.465,12.502 
						8.468,12.546 8.45,12.55 8.433,12.51 8.436,12.554 8.239,12.618 7.665,12.829 7.251,13.02 6.977,13.128 6.924,13.193 
						6.902,13.269 6.922,13.357 6.964,13.432 7.047,13.528 7.125,13.576 7.083,13.653 6.992,13.595 6.929,13.53 6.858,13.426 
						6.83,13.36 6.816,13.259 6.837,13.173 6.89,13.088 6.962,13.033 7.218,12.939 7.631,12.749 8.21,12.535 8.43,12.466 
						8.45,12.506 8.445,12.462 8.498,12.458 8.504,12.46 8.507,12.506 8.517,12.463 8.572,12.483 8.614,12.518 8.768,12.744 
						8.774,12.822 8.755,12.899 8.745,12.921 9.137,12.776 9.215,12.771 9.271,12.779 9.365,12.818 9.426,12.87 9.632,13.126 
						9.679,13.222 9.703,13.287 9.722,13.431 9.72,13.455 9.72,13.465 9.701,13.551 9.648,13.637 9.561,13.708 9.523,13.725 
						9.17,13.866 8.887,13.991 8.953,14.014 9.312,14.126 9.855,14.179 					"/>
				</g>
			</g>
		</g>
		<g>
			<g id="smallRockFillSymbol_9_">
				<g>
					<polygon fill="#BABABA" points="10.378,15.148 9.852,15.148 9.852,15.061 10.365,15.061 10.456,15.032 10.542,14.915 
						10.613,14.966 10.509,15.106 					"/>
				</g>
				<g>
					<polygon fill="#BABABA" points="11.684,15.148 11.409,15.121 11.144,15.046 11.126,15.048 11.125,15.047 11.106,15.056 
						11.021,15.116 10.971,15.044 11.092,14.967 11.321,14.866 11.5,14.795 11.532,14.829 11.514,14.789 11.544,14.821 
						11.524,14.781 11.533,14.774 11.57,14.799 11.542,14.765 11.587,14.772 11.549,14.75 11.594,14.758 11.554,14.739 
						11.598,14.742 11.558,14.721 11.558,14.712 11.531,14.604 11.515,14.577 11.416,14.461 11.434,14.421 11.406,14.455 
						11.419,14.413 11.395,14.45 11.404,14.407 11.395,14.423 11.39,14.447 11.377,14.446 11.371,14.4 11.358,14.445 11.333,14.449 
						11.304,14.412 11.32,14.453 10.785,14.66 10.752,14.579 11.069,14.433 11.079,14.422 11.124,14.423 11.082,14.41 11.127,14.41 
						11.085,14.397 11.128,14.385 11.083,14.381 11.079,14.368 11.008,14.29 10.984,14.293 10.888,14.323 10.603,14.429 
						10.397,14.523 10.269,14.571 10.229,14.546 10.255,14.582 10.211,14.567 10.245,14.596 10.242,14.606 10.196,14.608 
						10.237,14.624 10.254,14.683 10.335,14.763 10.293,14.839 10.224,14.788 10.173,14.718 10.149,14.632 10.16,14.577 
						10.206,14.581 10.166,14.563 10.204,14.511 10.243,14.536 10.217,14.5 10.239,14.487 10.365,14.442 10.569,14.349 
						11.001,14.201 11.061,14.218 11.084,14.237 11.157,14.33 11.171,14.401 11.169,14.417 11.301,14.367 11.321,14.407 
						11.314,14.363 11.358,14.356 11.382,14.358 11.387,14.404 11.395,14.36 11.422,14.367 11.488,14.409 11.615,14.575 
						11.644,14.688 11.646,14.711 11.625,14.795 11.597,14.833 11.549,14.869 11.532,14.876 11.265,14.986 11.426,15.036 
						11.692,15.061 					"/>
				</g>
			</g>
		</g>
	</g>
</g>
<g id="Rock_6_" enable-background="new    ">
	<g id="rocksFillSymbol_8_">
		<g>
			<g id="rockFillSymbol_8_">
				<g>
					<polygon fill="#BABABA" points="2.222,24.139 1.178,24.139 1.178,24.052 2.209,24.052 2.413,23.99 2.592,23.744 2.663,23.794 
						2.466,24.064 					"/>
				</g>
				<g>
					<polygon fill="#BABABA" points="4.846,24.139 4.294,24.084 3.782,23.936 3.707,23.943 3.667,23.96 3.489,24.082 3.44,24.011 
						3.441,24.01 3.631,23.879 4.137,23.659 4.558,23.478 4.609,23.413 4.634,23.333 4.633,23.323 4.636,23.301 4.619,23.181 
						4.557,23.043 4.541,23.016 4.308,22.758 4.2,22.731 4.113,22.746 4.098,22.752 3.029,23.165 2.997,23.084 3.229,22.985 
						3.634,22.795 3.682,22.72 3.664,22.587 3.657,22.581 3.515,22.427 3.523,22.383 3.504,22.423 3.481,22.418 3.465,22.375 
						3.468,22.419 3.45,22.423 3.433,22.383 3.436,22.427 3.239,22.491 2.665,22.702 2.251,22.893 1.977,23.001 1.924,23.066 
						1.902,23.142 1.922,23.23 1.964,23.305 2.047,23.401 2.125,23.449 2.083,23.526 1.992,23.468 1.929,23.403 1.858,23.299 
						1.83,23.233 1.816,23.132 1.837,23.046 1.89,22.961 1.962,22.906 2.218,22.813 2.631,22.622 3.21,22.408 3.43,22.339 
						3.45,22.379 3.445,22.335 3.498,22.332 3.504,22.333 3.507,22.379 3.517,22.336 3.572,22.356 3.614,22.391 3.768,22.617 
						3.774,22.695 3.755,22.772 3.745,22.794 4.137,22.649 4.215,22.644 4.271,22.652 4.365,22.691 4.426,22.743 4.632,22.999 
						4.679,23.095 4.703,23.16 4.722,23.304 4.72,23.328 4.72,23.338 4.701,23.424 4.648,23.51 4.561,23.582 4.523,23.598 
						4.17,23.739 3.887,23.864 3.953,23.887 4.312,23.999 4.855,24.052 					"/>
				</g>
			</g>
		</g>
		<g>
			<g id="smallRockFillSymbol_8_">
				<g>
					<polygon fill="#BABABA" points="5.378,25.021 4.852,25.021 4.852,24.934 5.365,24.934 5.456,24.905 5.542,24.788 5.613,24.839 
						5.509,24.979 					"/>
				</g>
				<g>
					<polygon fill="#BABABA" points="6.684,25.021 6.409,24.994 6.144,24.919 6.126,24.921 6.125,24.92 6.106,24.929 6.021,24.989 
						5.971,24.917 6.092,24.84 6.321,24.739 6.5,24.668 6.532,24.702 6.514,24.662 6.544,24.694 6.524,24.654 6.533,24.647 
						6.57,24.672 6.542,24.638 6.587,24.646 6.549,24.623 6.594,24.631 6.554,24.612 6.598,24.615 6.558,24.594 6.558,24.585 
						6.531,24.477 6.515,24.45 6.416,24.334 6.434,24.294 6.406,24.328 6.419,24.286 6.395,24.323 6.404,24.28 6.395,24.296 
						6.39,24.32 6.377,24.319 6.371,24.273 6.358,24.318 6.333,24.322 6.304,24.285 6.32,24.326 5.785,24.533 5.752,24.452 
						6.069,24.306 6.079,24.295 6.124,24.296 6.082,24.283 6.127,24.283 6.085,24.27 6.128,24.258 6.083,24.254 6.079,24.241 
						6.008,24.163 5.984,24.166 5.888,24.196 5.603,24.302 5.397,24.396 5.269,24.444 5.229,24.419 5.255,24.455 5.211,24.44 
						5.245,24.469 5.242,24.479 5.196,24.481 5.237,24.497 5.254,24.556 5.335,24.636 5.293,24.712 5.224,24.661 5.173,24.591 
						5.149,24.505 5.16,24.45 5.206,24.454 5.166,24.436 5.204,24.384 5.243,24.409 5.217,24.374 5.239,24.36 5.365,24.315 
						5.569,24.222 6.001,24.074 6.061,24.091 6.084,24.11 6.157,24.203 6.171,24.274 6.169,24.29 6.301,24.24 6.321,24.28 
						6.314,24.236 6.358,24.229 6.382,24.231 6.387,24.277 6.395,24.233 6.422,24.24 6.488,24.282 6.615,24.448 6.644,24.561 
						6.646,24.584 6.625,24.668 6.597,24.706 6.549,24.742 6.532,24.75 6.265,24.859 6.426,24.909 6.692,24.934 					"/>
				</g>
			</g>
		</g>
	</g>
</g>
<g id="Rock_5_" enable-background="new    ">
	<g id="rocksFillSymbol_7_">
		<g>
			<g id="rockFillSymbol_7_">
				<g>
					<polygon fill="#BABABA" points="7.222,37.27 6.178,37.27 6.178,37.182 7.209,37.182 7.413,37.12 7.592,36.874 7.663,36.925 
						7.466,37.193 7.452,37.199 					"/>
				</g>
				<g>
					<polygon fill="#BABABA" points="9.846,37.27 9.294,37.214 8.782,37.064 8.707,37.072 8.667,37.091 8.489,37.213 8.44,37.141 
						8.631,37.009 9.137,36.789 9.558,36.607 9.609,36.543 9.634,36.464 9.633,36.453 9.636,36.432 9.619,36.313 9.557,36.173 
						9.541,36.146 9.308,35.889 9.21,35.859 9.098,35.882 8.029,36.295 7.997,36.215 8.229,36.115 8.634,35.925 8.682,35.85 
						8.664,35.717 8.657,35.711 8.515,35.559 8.523,35.514 8.504,35.555 8.481,35.55 8.465,35.506 8.468,35.55 8.45,35.555 
						8.433,35.514 8.436,35.559 8.239,35.621 7.665,35.832 7.251,36.021 6.977,36.131 6.944,36.164 6.907,36.244 6.902,36.271 
						6.922,36.359 6.964,36.436 7.047,36.531 7.125,36.58 7.083,36.656 6.992,36.6 6.929,36.533 6.858,36.43 6.83,36.363 
						6.816,36.264 6.837,36.178 6.89,36.091 6.962,36.036 7.218,35.941 7.631,35.752 8.21,35.539 8.43,35.471 8.45,35.51 
						8.445,35.466 8.498,35.462 8.504,35.464 8.507,35.51 8.517,35.468 8.572,35.486 8.613,35.521 8.768,35.747 8.774,35.825 
						8.755,35.902 8.745,35.924 9.137,35.779 9.215,35.773 9.328,35.803 9.397,35.844 9.426,35.873 9.632,36.129 9.679,36.225 
						9.703,36.29 9.722,36.434 9.72,36.458 9.72,36.469 9.701,36.555 9.648,36.641 9.561,36.712 9.523,36.729 9.17,36.869 
						8.887,36.994 8.953,37.018 9.312,37.129 9.855,37.184 					"/>
				</g>
			</g>
		</g>
		<g>
			<g id="smallRockFillSymbol_7_">
				<g>
					<polygon fill="#BABABA" points="10.378,38.15 9.852,38.15 9.852,38.063 10.365,38.063 10.456,38.035 10.543,37.918 
						10.612,37.971 10.509,38.109 					"/>
				</g>
				<g>
					<polygon fill="#BABABA" points="11.684,38.15 11.409,38.123 11.144,38.051 11.126,38.053 11.125,38.051 11.125,38.053 
						11.103,38.061 11.021,38.119 10.971,38.048 11.093,37.971 11.321,37.87 11.5,37.8 11.532,37.833 11.514,37.793 11.544,37.825 
						11.524,37.785 11.524,37.785 11.533,37.777 11.57,37.803 11.542,37.77 11.587,37.775 11.549,37.753 11.594,37.762 
						11.554,37.743 11.598,37.746 11.558,37.727 11.558,37.716 11.531,37.607 11.515,37.581 11.416,37.465 11.434,37.425 
						11.406,37.459 11.419,37.417 11.395,37.454 11.404,37.41 11.395,37.426 11.39,37.451 11.377,37.449 11.371,37.402 
						11.358,37.447 11.334,37.451 11.304,37.416 11.32,37.457 10.785,37.663 10.752,37.583 11.069,37.438 11.079,37.426 
						11.124,37.428 11.082,37.414 11.127,37.414 11.085,37.4 11.128,37.389 11.083,37.385 11.079,37.371 11.008,37.293 
						10.984,37.296 10.888,37.326 10.603,37.434 10.397,37.525 10.269,37.574 10.229,37.55 10.255,37.585 10.211,37.57 10.245,37.6 
						10.242,37.609 10.196,37.611 10.237,37.628 10.254,37.688 10.335,37.768 10.293,37.843 10.224,37.791 10.173,37.723 
						10.149,37.637 10.16,37.58 10.206,37.585 10.166,37.566 10.191,37.525 10.204,37.516 10.243,37.54 10.217,37.505 
						10.239,37.491 10.365,37.445 10.569,37.354 10.86,37.244 11.001,37.204 11.061,37.221 11.084,37.24 11.157,37.333 
						11.171,37.404 11.169,37.421 11.299,37.372 11.321,37.41 11.314,37.366 11.358,37.359 11.382,37.361 11.387,37.407 
						11.395,37.363 11.424,37.371 11.419,37.417 11.439,37.378 11.488,37.412 11.615,37.579 11.644,37.691 11.646,37.716 
						11.625,37.799 11.597,37.837 11.549,37.873 11.267,37.988 11.426,38.038 11.692,38.064 					"/>
				</g>
			</g>
		</g>
	</g>
</g>
<g id="Rock_4_" enable-background="new    ">
	<g id="rocksFillSymbol_6_">
		<g>
			<g id="rockFillSymbol_6_">
				<g>
					<polygon fill="#BABABA" points="24.222,35.238 23.179,35.238 23.179,35.15 24.209,35.15 24.414,35.089 24.593,34.843 
						24.663,34.895 24.466,35.163 24.453,35.168 					"/>
				</g>
				<g>
					<polygon fill="#BABABA" points="26.848,35.236 26.295,35.184 25.783,35.034 25.706,35.042 25.667,35.061 25.49,35.182 
						25.441,35.109 25.674,34.961 26.137,34.758 26.559,34.577 26.609,34.512 26.635,34.434 26.634,34.422 26.637,34.4 
						26.619,34.279 26.572,34.168 26.541,34.113 26.309,33.857 26.21,33.829 26.098,33.852 25.03,34.264 24.997,34.184 
						25.23,34.084 25.635,33.895 25.68,33.83 25.688,33.756 25.659,33.68 25.525,33.531 25.523,33.482 25.514,33.523 25.508,33.479 
						25.498,33.521 25.481,33.52 25.465,33.475 25.468,33.52 25.45,33.523 25.434,33.482 25.437,33.525 25.239,33.59 24.665,33.801 
						24.252,33.991 23.977,34.1 23.945,34.133 23.908,34.213 23.903,34.24 23.923,34.329 23.964,34.404 24.048,34.5 24.125,34.549 
						24.084,34.625 23.993,34.566 23.929,34.502 23.858,34.398 23.831,34.332 23.817,34.23 23.837,34.146 23.891,34.061 
						23.963,34.005 24.219,33.911 24.632,33.721 25.211,33.508 25.431,33.438 25.451,33.479 25.446,33.436 25.499,33.432 
						25.505,33.434 25.508,33.479 25.52,33.438 25.572,33.456 25.613,33.491 25.755,33.676 25.775,33.794 25.757,33.869 
						25.746,33.893 26.178,33.743 26.215,33.742 26.328,33.771 26.396,33.813 26.426,33.842 26.633,34.098 26.691,34.227 
						26.716,34.329 26.723,34.402 26.721,34.428 26.723,34.438 26.702,34.523 26.648,34.609 26.561,34.682 26.523,34.697 
						26.17,34.838 25.889,34.963 25.953,34.986 26.313,35.098 26.855,35.15 					"/>
				</g>
			</g>
		</g>
		<g>
			<g id="smallRockFillSymbol_6_">
				<g>
					<polygon fill="#BABABA" points="27.379,36.12 26.854,36.12 26.854,36.032 27.365,36.032 27.456,36.004 27.543,35.887 
						27.613,35.939 27.509,36.078 					"/>
				</g>
				<g>
					<polygon fill="#BABABA" points="28.686,36.119 28.409,36.092 28.17,36.021 28.165,36.003 28.157,36.006 28.157,36.02 
						28.145,36.02 28.143,36.014 28.131,36.018 28.132,36.021 28.12,36.021 28.021,36.088 27.973,36.018 28.091,35.939 
						28.322,35.839 28.501,35.77 28.532,35.803 28.514,35.762 28.544,35.794 28.525,35.753 28.57,35.771 28.537,35.743 
						28.58,35.759 28.544,35.732 28.587,35.745 28.549,35.723 28.555,35.712 28.6,35.715 28.559,35.693 28.547,35.616 28.516,35.55 
						28.428,35.441 28.449,35.402 28.418,35.436 28.436,35.395 28.406,35.428 28.419,35.387 28.395,35.423 28.404,35.379 
						28.396,35.395 28.391,35.42 28.378,35.418 28.371,35.372 28.357,35.417 28.335,35.421 28.305,35.385 28.32,35.426 
						27.785,35.632 27.752,35.553 28.07,35.404 28.081,35.391 28.085,35.375 28.129,35.357 28.086,35.363 28.127,35.346 
						28.084,35.354 28.08,35.34 28.012,35.262 28,35.262 27.986,35.264 27.889,35.295 27.604,35.4 27.398,35.495 27.27,35.544 
						27.229,35.52 27.255,35.555 27.212,35.54 27.246,35.568 27.238,35.592 27.191,35.596 27.236,35.604 27.27,35.678 
						27.335,35.734 27.294,35.813 27.225,35.759 27.173,35.689 27.156,35.645 27.195,35.624 27.152,35.632 27.148,35.604 
						27.15,35.584 27.195,35.581 27.154,35.57 27.16,35.549 27.206,35.555 27.166,35.535 27.191,35.495 27.204,35.482 
						27.243,35.509 27.218,35.475 27.238,35.46 27.365,35.415 27.568,35.32 27.861,35.213 28.002,35.173 28.063,35.189 
						28.08,35.205 28.158,35.303 28.173,35.373 28.171,35.391 28.3,35.34 28.322,35.379 28.314,35.335 28.357,35.328 28.382,35.33 
						28.389,35.376 28.396,35.332 28.424,35.34 28.419,35.387 28.438,35.346 28.488,35.381 28.615,35.549 28.645,35.66 
						28.646,35.686 28.607,35.795 28.549,35.842 28.268,35.958 28.426,36.007 28.691,36.033 					"/>
				</g>
			</g>
		</g>
	</g>
</g>
<g id="Rock_3_" enable-background="new    ">
	<g id="rocksFillSymbol_5_">
		<g>
			<g id="rockFillSymbol_5_">
				<g>
					<polygon fill="#BABABA" points="39.223,34.238 38.18,34.238 38.18,34.15 39.209,34.15 39.414,34.089 39.593,33.843 
						39.663,33.895 39.467,34.163 39.453,34.168 					"/>
				</g>
				<g>
					<polygon fill="#BABABA" points="41.848,34.236 41.295,34.184 40.783,34.034 40.706,34.042 40.667,34.061 40.49,34.182 
						40.441,34.109 40.674,33.961 41.137,33.758 41.559,33.577 41.609,33.512 41.635,33.434 41.634,33.422 41.637,33.4 
						41.619,33.279 41.572,33.168 41.541,33.113 41.309,32.857 41.21,32.829 41.098,32.852 40.029,33.264 39.997,33.184 
						40.23,33.084 40.635,32.895 40.68,32.83 40.688,32.756 40.659,32.68 40.525,32.531 40.523,32.482 40.514,32.523 40.48,32.52 
						40.466,32.475 40.469,32.52 40.45,32.523 40.434,32.482 40.438,32.525 40.238,32.59 39.665,32.801 39.253,32.991 38.977,33.1 
						38.943,33.133 38.906,33.225 38.902,33.24 38.922,33.329 38.979,33.425 39.064,33.514 39.125,33.549 39.084,33.625 
						39.016,33.585 38.951,33.527 38.893,33.451 38.83,33.332 38.816,33.23 38.837,33.146 38.891,33.061 38.963,33.005 
						39.221,32.911 39.632,32.721 40.211,32.508 40.432,32.438 40.451,32.479 40.445,32.436 40.499,32.432 40.505,32.434 
						40.508,32.479 40.52,32.438 40.572,32.456 40.613,32.491 40.755,32.676 40.775,32.794 40.757,32.869 40.746,32.893 
						41.178,32.743 41.215,32.742 41.328,32.771 41.396,32.813 41.426,32.842 41.633,33.098 41.691,33.227 41.716,33.329 
						41.723,33.402 41.721,33.428 41.723,33.438 41.702,33.523 41.648,33.609 41.561,33.682 41.523,33.697 41.17,33.838 
						40.889,33.963 40.953,33.986 41.313,34.098 41.855,34.15 					"/>
				</g>
			</g>
		</g>
		<g>
			<g id="smallRockFillSymbol_5_">
				<g>
					<polygon fill="#BABABA" points="42.379,35.12 41.854,35.12 41.854,35.032 42.365,35.032 42.456,35.004 42.543,34.887 
						42.613,34.939 42.509,35.078 					"/>
				</g>
				<g>
					<polygon fill="#BABABA" points="43.686,35.119 43.409,35.092 43.17,35.021 43.165,35.003 43.157,35.006 43.157,35.02 
						43.145,35.02 43.143,35.014 43.131,35.018 43.132,35.021 43.12,35.021 43.021,35.088 42.973,35.018 43.091,34.939 
						43.322,34.839 43.501,34.77 43.532,34.803 43.514,34.762 43.544,34.794 43.525,34.753 43.57,34.771 43.537,34.743 
						43.58,34.759 43.544,34.732 43.587,34.745 43.549,34.723 43.555,34.712 43.6,34.715 43.559,34.693 43.547,34.616 43.516,34.55 
						43.428,34.441 43.449,34.402 43.418,34.436 43.436,34.395 43.406,34.428 43.419,34.387 43.395,34.423 43.404,34.379 
						43.396,34.395 43.391,34.42 43.378,34.418 43.371,34.372 43.357,34.417 43.335,34.421 43.305,34.385 43.32,34.426 
						42.785,34.632 42.752,34.553 43.07,34.404 43.081,34.391 43.085,34.375 43.129,34.357 43.086,34.363 43.127,34.346 
						43.084,34.354 43.08,34.34 43.012,34.262 43,34.262 42.986,34.264 42.889,34.295 42.604,34.4 42.398,34.495 42.27,34.544 
						42.229,34.52 42.255,34.555 42.212,34.54 42.246,34.568 42.238,34.592 42.191,34.596 42.236,34.604 42.27,34.678 
						42.335,34.734 42.294,34.813 42.225,34.759 42.173,34.689 42.156,34.645 42.195,34.624 42.152,34.632 42.148,34.604 
						42.15,34.584 42.195,34.581 42.154,34.57 42.16,34.549 42.206,34.555 42.166,34.535 42.191,34.495 42.204,34.482 
						42.243,34.509 42.218,34.475 42.238,34.46 42.365,34.415 42.568,34.32 42.861,34.213 43.002,34.173 43.063,34.189 
						43.08,34.205 43.158,34.303 43.173,34.373 43.171,34.391 43.3,34.34 43.322,34.379 43.314,34.335 43.357,34.328 43.382,34.33 
						43.389,34.376 43.396,34.332 43.424,34.34 43.419,34.387 43.438,34.346 43.488,34.381 43.615,34.549 43.645,34.66 
						43.646,34.686 43.607,34.795 43.549,34.842 43.268,34.958 43.426,35.007 43.691,35.033 					"/>
				</g>
			</g>
		</g>
	</g>
</g>
<g id="Rock_2_" enable-background="new    ">
	<g id="rocksFillSymbol_4_">
		<g>
			<g id="rockFillSymbol_4_">
				<g>
					<polygon fill="#BABABA" points="36.223,46.238 35.18,46.238 35.18,46.15 36.209,46.15 36.414,46.089 36.593,45.843 
						36.663,45.895 36.467,46.163 36.453,46.168 					"/>
				</g>
				<g>
					<polygon fill="#BABABA" points="38.848,46.236 38.295,46.184 37.783,46.034 37.706,46.042 37.667,46.061 37.49,46.182 
						37.441,46.109 37.674,45.961 38.137,45.758 38.559,45.577 38.609,45.512 38.635,45.434 38.634,45.422 38.637,45.4 
						38.619,45.279 38.572,45.168 38.541,45.113 38.309,44.857 38.21,44.829 38.098,44.852 37.029,45.264 36.997,45.184 
						37.23,45.084 37.635,44.895 37.68,44.83 37.688,44.756 37.659,44.68 37.525,44.531 37.523,44.482 37.514,44.523 37.48,44.52 
						37.466,44.475 37.469,44.52 37.45,44.523 37.434,44.482 37.438,44.525 37.238,44.59 36.665,44.801 36.253,44.991 35.977,45.1 
						35.943,45.133 35.906,45.225 35.902,45.24 35.922,45.329 35.979,45.425 36.064,45.514 36.125,45.549 36.084,45.625 
						36.016,45.585 35.951,45.527 35.893,45.451 35.83,45.332 35.816,45.23 35.837,45.146 35.891,45.061 35.963,45.005 
						36.221,44.911 36.632,44.721 37.211,44.508 37.432,44.438 37.451,44.479 37.445,44.436 37.499,44.432 37.505,44.434 
						37.508,44.479 37.52,44.438 37.572,44.456 37.613,44.491 37.755,44.676 37.775,44.794 37.757,44.869 37.746,44.893 
						38.178,44.743 38.215,44.742 38.328,44.771 38.396,44.813 38.426,44.842 38.633,45.098 38.691,45.227 38.716,45.329 
						38.723,45.402 38.721,45.428 38.723,45.438 38.702,45.523 38.648,45.609 38.561,45.682 38.523,45.697 38.17,45.838 
						37.889,45.963 37.953,45.986 38.313,46.098 38.855,46.15 					"/>
				</g>
			</g>
		</g>
		<g>
			<g id="smallRockFillSymbol_4_">
				<g>
					<polygon fill="#BABABA" points="39.379,47.12 38.854,47.12 38.854,47.032 39.365,47.032 39.456,47.004 39.543,46.887 
						39.613,46.939 39.509,47.078 					"/>
				</g>
				<g>
					<polygon fill="#BABABA" points="40.686,47.119 40.409,47.092 40.17,47.021 40.165,47.003 40.157,47.006 40.157,47.02 
						40.145,47.02 40.143,47.014 40.131,47.018 40.132,47.021 40.12,47.021 40.021,47.088 39.973,47.018 40.091,46.939 
						40.322,46.839 40.501,46.77 40.532,46.803 40.514,46.762 40.544,46.794 40.525,46.753 40.57,46.771 40.537,46.743 
						40.58,46.759 40.544,46.732 40.587,46.745 40.549,46.723 40.555,46.712 40.6,46.715 40.559,46.693 40.547,46.616 40.516,46.55 
						40.428,46.441 40.449,46.402 40.418,46.436 40.436,46.395 40.406,46.428 40.419,46.387 40.395,46.423 40.404,46.379 
						40.396,46.395 40.391,46.42 40.378,46.418 40.371,46.372 40.357,46.417 40.335,46.421 40.305,46.385 40.32,46.426 
						39.785,46.632 39.752,46.553 40.07,46.404 40.081,46.391 40.085,46.375 40.129,46.357 40.086,46.363 40.127,46.346 
						40.084,46.354 40.08,46.34 40.012,46.262 40,46.262 39.986,46.264 39.889,46.295 39.604,46.4 39.398,46.495 39.27,46.544 
						39.229,46.52 39.255,46.555 39.212,46.54 39.246,46.568 39.238,46.592 39.191,46.596 39.236,46.604 39.27,46.678 
						39.335,46.734 39.294,46.813 39.225,46.759 39.173,46.689 39.156,46.645 39.195,46.624 39.152,46.632 39.148,46.604 
						39.15,46.584 39.195,46.581 39.154,46.57 39.16,46.549 39.206,46.555 39.166,46.535 39.191,46.495 39.204,46.482 
						39.243,46.509 39.218,46.475 39.238,46.46 39.365,46.415 39.568,46.32 39.861,46.213 40.002,46.173 40.063,46.189 
						40.08,46.205 40.158,46.303 40.173,46.373 40.171,46.391 40.3,46.34 40.322,46.379 40.314,46.335 40.357,46.328 40.382,46.33 
						40.389,46.376 40.396,46.332 40.424,46.34 40.419,46.387 40.438,46.346 40.488,46.381 40.615,46.549 40.645,46.66 
						40.646,46.686 40.607,46.795 40.549,46.842 40.268,46.958 40.426,47.007 40.691,47.033 					"/>
				</g>
			</g>
		</g>
	</g>
</g>
<g id="Rock_1_" enable-background="new    ">
	<g id="rocksFillSymbol_3_">
		<g>
			<g id="rockFillSymbol_3_">
				<g>
					<polygon fill="#BABABA" points="2.222,46.215 1.178,46.215 1.178,46.127 2.209,46.127 2.413,46.064 2.592,45.818 2.663,45.87 
						2.466,46.141 2.452,46.145 					"/>
				</g>
				<g>
					<polygon fill="#BABABA" points="4.846,46.214 4.294,46.159 3.782,46.012 3.707,46.02 3.667,46.036 3.489,46.158 3.44,46.086 
						3.631,45.954 4.137,45.734 4.558,45.555 4.609,45.488 4.634,45.409 4.633,45.398 4.636,45.377 4.619,45.257 4.557,45.118 
						4.541,45.091 4.308,44.833 4.21,44.807 4.098,44.827 3.029,45.24 2.997,45.16 3.229,45.061 3.634,44.87 3.682,44.795 
						3.664,44.662 3.657,44.656 3.515,44.503 3.523,44.459 3.504,44.499 3.481,44.495 3.465,44.451 3.468,44.495 3.45,44.5 
						3.433,44.459 3.436,44.503 3.239,44.566 2.665,44.777 2.251,44.968 1.977,45.076 1.944,45.109 1.907,45.189 1.902,45.217 
						1.922,45.307 1.964,45.381 2.047,45.477 2.125,45.525 2.083,45.602 1.992,45.544 1.929,45.479 1.858,45.375 1.83,45.309 
						1.816,45.208 1.837,45.122 1.89,45.036 1.962,44.98 2.218,44.889 2.631,44.697 3.21,44.484 3.43,44.415 3.45,44.455 
						3.445,44.411 3.498,44.407 3.504,44.409 3.507,44.455 3.517,44.413 3.572,44.434 3.613,44.468 3.768,44.691 3.774,44.771 
						3.755,44.848 3.745,44.869 4.137,44.725 4.215,44.719 4.328,44.747 4.397,44.789 4.426,44.818 4.632,45.074 4.679,45.17 
						4.703,45.234 4.722,45.379 4.72,45.402 4.72,45.414 4.701,45.5 4.648,45.586 4.561,45.657 4.523,45.674 4.17,45.814 
						3.887,45.939 3.953,45.963 4.312,46.074 4.855,46.128 					"/>
				</g>
			</g>
		</g>
		<g>
			<g id="smallRockFillSymbol_3_">
				<g>
					<polygon fill="#BABABA" points="5.378,47.098 4.852,47.098 4.852,47.009 5.365,47.009 5.456,46.98 5.543,46.863 5.612,46.916 
						5.509,47.055 					"/>
				</g>
				<g>
					<polygon fill="#BABABA" points="6.684,47.096 6.409,47.068 6.144,46.996 6.126,46.997 6.125,46.996 6.125,46.997 6.103,47.005 
						6.021,47.064 5.971,46.993 6.093,46.916 6.321,46.814 6.5,46.745 6.532,46.777 6.514,46.738 6.544,46.771 6.524,46.73 
						6.524,46.73 6.533,46.723 6.57,46.748 6.542,46.714 6.587,46.723 6.549,46.697 6.594,46.707 6.554,46.688 6.598,46.691 
						6.558,46.671 6.558,46.661 6.531,46.553 6.515,46.525 6.416,46.41 6.434,46.37 6.406,46.404 6.419,46.361 6.395,46.398 
						6.404,46.355 6.395,46.371 6.39,46.396 6.377,46.395 6.371,46.35 6.358,46.395 6.334,46.396 6.304,46.361 6.32,46.402 
						5.785,46.607 5.752,46.527 6.069,46.382 6.079,46.371 6.124,46.372 6.082,46.359 6.127,46.359 6.085,46.348 6.128,46.334 
						6.083,46.33 6.079,46.316 6.008,46.238 5.984,46.241 5.888,46.271 5.603,46.378 5.397,46.473 5.269,46.52 5.229,46.495 
						5.255,46.529 5.211,46.518 5.245,46.545 5.242,46.557 5.196,46.559 5.237,46.572 5.254,46.633 5.335,46.712 5.293,46.788 
						5.224,46.736 5.173,46.667 5.149,46.581 5.16,46.525 5.206,46.529 5.166,46.512 5.191,46.473 5.204,46.46 5.243,46.484 
						5.217,46.45 5.239,46.438 5.365,46.393 5.569,46.298 5.86,46.189 6.001,46.148 6.061,46.166 6.084,46.186 6.157,46.277 
						6.171,46.35 6.169,46.366 6.299,46.316 6.321,46.355 6.314,46.313 6.358,46.305 6.382,46.307 6.387,46.354 6.395,46.309 
						6.424,46.316 6.419,46.361 6.439,46.322 6.488,46.357 6.615,46.523 6.644,46.637 6.646,46.661 6.625,46.744 6.597,46.782 
						6.549,46.818 6.267,46.936 6.426,46.982 6.692,47.01 					"/>
				</g>
			</g>
		</g>
	</g>
</g>
<g id="Rock" enable-background="new    ">
	<g id="rocksFillSymbol_2_">
		<g>
			<g id="rockFillSymbol_2_">
				<g>
					<polygon fill="#BABABA" points="34.223,22.237 33.18,22.237 33.18,22.15 34.209,22.15 34.414,22.088 34.593,21.842 
						34.663,21.893 34.467,22.163 					"/>
				</g>
				<g>
					<polygon fill="#BABABA" points="36.848,22.237 36.295,22.183 35.783,22.034 35.706,22.042 35.667,22.059 35.49,22.181 
						35.441,22.109 35.443,22.107 35.675,21.96 36.137,21.757 36.559,21.576 36.609,21.511 36.635,21.432 36.634,21.421 
						36.637,21.4 36.619,21.279 36.572,21.168 36.541,21.115 36.309,20.857 36.2,20.83 36.113,20.845 36.098,20.851 35.029,21.264 
						34.997,21.183 35.23,21.084 35.635,20.894 35.68,20.83 35.688,20.756 35.659,20.68 35.525,20.53 35.523,20.481 35.514,20.523 
						35.48,20.517 35.466,20.474 35.469,20.518 35.45,20.522 35.434,20.481 35.438,20.525 35.238,20.589 34.665,20.801 
						34.253,20.992 33.977,21.1 33.925,21.165 33.906,21.223 33.902,21.24 33.922,21.329 33.979,21.424 34.048,21.5 34.125,21.548 
						34.084,21.625 33.992,21.566 33.93,21.502 33.857,21.397 33.83,21.332 33.816,21.231 33.837,21.145 33.891,21.06 
						33.963,21.005 34.221,20.911 34.632,20.72 35.211,20.507 35.432,20.438 35.451,20.478 35.445,20.434 35.499,20.43 
						35.505,20.432 35.508,20.478 35.52,20.436 35.572,20.455 35.613,20.49 35.755,20.676 35.775,20.794 35.757,20.869 
						35.746,20.893 36.139,20.748 36.215,20.743 36.271,20.751 36.365,20.79 36.426,20.841 36.633,21.097 36.691,21.226 
						36.703,21.259 36.723,21.402 36.721,21.426 36.723,21.437 36.702,21.523 36.648,21.608 36.561,21.681 36.523,21.697 
						36.17,21.838 35.889,21.962 36.313,22.098 36.855,22.15 					"/>
				</g>
			</g>
		</g>
		<g>
			<g id="smallRockFillSymbol_2_">
				<g>
					<polygon fill="#BABABA" points="37.379,23.12 36.854,23.12 36.854,23.033 37.365,23.033 37.456,23.004 37.543,22.886 
						37.613,22.938 37.509,23.078 					"/>
				</g>
				<g>
					<polygon fill="#BABABA" points="38.686,23.12 38.409,23.092 38.17,23.02 38.165,23.002 38.157,23.005 38.157,23.018 
						38.145,23.018 38.143,23.012 38.131,23.017 38.132,23.019 38.107,23.027 38.021,23.087 37.973,23.016 38.093,22.938 
						38.322,22.838 38.501,22.767 38.532,22.801 38.514,22.761 38.544,22.793 38.525,22.752 38.57,22.771 38.537,22.743 
						38.58,22.758 38.544,22.732 38.587,22.744 38.549,22.721 38.555,22.711 38.6,22.714 38.559,22.693 38.547,22.615 
						38.516,22.549 38.428,22.442 38.449,22.402 38.418,22.435 38.436,22.393 38.406,22.426 38.419,22.385 38.395,22.422 
						38.404,22.378 38.396,22.394 38.391,22.419 38.378,22.418 38.371,22.372 38.357,22.417 38.333,22.42 38.305,22.384 
						38.32,22.424 37.785,22.631 37.752,22.551 38.07,22.403 38.081,22.388 38.085,22.374 38.129,22.357 38.086,22.363 
						38.127,22.344 38.084,22.352 38.08,22.34 38.012,22.261 38,22.26 37.986,22.263 37.889,22.295 37.604,22.401 37.398,22.495 
						37.27,22.543 37.229,22.518 37.255,22.553 37.212,22.539 37.246,22.567 37.238,22.591 37.191,22.595 37.236,22.603 
						37.27,22.677 37.335,22.734 37.294,22.811 37.225,22.758 37.173,22.689 37.156,22.644 37.195,22.623 37.152,22.631 
						37.148,22.604 37.15,22.583 37.195,22.58 37.154,22.569 37.16,22.548 37.206,22.553 37.166,22.534 37.204,22.482 
						37.243,22.508 37.218,22.472 37.238,22.459 37.365,22.414 37.568,22.32 38.002,22.173 38.063,22.189 38.08,22.204 
						38.158,22.302 38.173,22.373 38.171,22.389 38.303,22.339 38.322,22.378 38.314,22.335 38.357,22.328 38.382,22.33 
						38.389,22.375 38.396,22.332 38.422,22.339 38.488,22.38 38.615,22.548 38.645,22.659 38.646,22.683 38.607,22.794 
						38.549,22.841 38.532,22.848 38.266,22.958 38.426,23.007 38.691,23.033 					"/>
				</g>
			</g>
		</g>
	</g>
</g>
</svg>
