<?xml version="1.0" encoding="utf-8"?>
<!-- Generator: Adobe Illustrator 16.0.3, SVG Export Plug-In . SVG Version: 6.00 Build 0)  -->
<!DOCTYPE svg PUBLIC "-//W3C//DTD SVG 1.1//EN" "http://www.w3.org/Graphics/SVG/1.1/DTD/svg11.dtd">
<svg version="1.1" id="Layer_2" xmlns="http://www.w3.org/2000/svg" xmlns:xlink="http://www.w3.org/1999/xlink" x="0px" y="0px"
	 width="50px" height="50px" viewBox="0 0 50 50" enable-background="new 0 0 50 50" xml:space="preserve">
<g>
	<path fill="#99AA99" d="M7.274,13.851h0.012c0.03,0,0.066,0.131,0.108,0.394l-0.036,0.024H7.346c-0.029,0-0.065-0.132-0.107-0.395
		L7.274,13.851z M7.621,13.492h0.013c0.033,0,0.069,0.203,0.107,0.609l0.012,0.059l-0.036,0.025H7.705
		c-0.034,0-0.07-0.203-0.108-0.61l-0.012-0.059L7.621,13.492z M8.051,13.337h0.012c0.036,0,0.06,0.18,0.072,0.538
		c0.01,0,0.018,0.076,0.024,0.227l-0.036,0.024H8.11c-0.036,0-0.059-0.179-0.071-0.538c-0.01,0-0.019-0.076-0.024-0.227
		L8.051,13.337z M8.493,13.277h0.012l0.036,0.036v0.777l-0.036,0.036H8.493L8.457,14.09v-0.777L8.493,13.277z M8.947,13.337
		l0.035,0.036c-0.035,0.502-0.063,0.753-0.083,0.753H8.875L8.839,14.09c0.037-0.502,0.064-0.753,0.084-0.753H8.947z M9.376,13.492
		l0.037,0.036c-0.046,0.438-0.078,0.657-0.096,0.657H9.293L9.257,14.15c0.046-0.438,0.078-0.658,0.095-0.658H9.376z M9.723,13.851
		h0.012l0.036,0.036c-0.046,0.254-0.082,0.382-0.107,0.382H9.652l-0.036-0.036C9.661,13.979,9.697,13.851,9.723,13.851z"/>
</g>
<g>
	<path fill="#99AA99" d="M22.337,3.789h0.012c0.03,0,0.065,0.131,0.108,0.393L22.42,4.207h-0.012c-0.029,0-0.065-0.133-0.107-0.395
		L22.337,3.789z M22.684,3.43h0.012c0.033,0,0.069,0.203,0.107,0.609l0.012,0.059L22.78,4.123h-0.012
		c-0.035,0-0.07-0.203-0.108-0.609l-0.012-0.06L22.684,3.43z M23.113,3.274h0.012c0.036,0,0.06,0.18,0.072,0.538
		c0.01,0,0.018,0.076,0.023,0.227l-0.036,0.023h-0.013c-0.035,0-0.059-0.179-0.07-0.537c-0.01,0-0.019-0.076-0.023-0.227
		L23.113,3.274z M23.555,3.215h0.013l0.036,0.036v0.777l-0.036,0.035h-0.013L23.52,4.027V3.25L23.555,3.215z M24.01,3.274
		l0.035,0.036c-0.035,0.502-0.063,0.752-0.083,0.752h-0.024l-0.036-0.035c0.036-0.502,0.064-0.753,0.084-0.753H24.01z M24.439,3.43
		l0.036,0.036c-0.046,0.438-0.078,0.657-0.097,0.657h-0.023L24.32,4.088c0.045-0.438,0.077-0.658,0.095-0.658H24.439z M24.785,3.789
		h0.013l0.036,0.035c-0.047,0.254-0.082,0.383-0.107,0.383h-0.012l-0.037-0.036C24.724,3.916,24.76,3.789,24.785,3.789z"/>
</g>
<g>
	<path fill="#99AA99" d="M39.212,3.727h0.013c0.029,0,0.064,0.131,0.107,0.393l-0.037,0.025h-0.012
		c-0.029,0-0.065-0.133-0.107-0.395L39.212,3.727z M39.559,3.367h0.012c0.033,0,0.07,0.203,0.107,0.609l0.012,0.059L39.654,4.06
		h-0.012c-0.035,0-0.07-0.203-0.107-0.609l-0.012-0.06L39.559,3.367z M39.988,3.212H40c0.036,0,0.061,0.18,0.072,0.538
		c0.01,0,0.018,0.076,0.023,0.227L40.061,4h-0.014c-0.035,0-0.059-0.179-0.07-0.537c-0.01,0-0.019-0.076-0.021-0.227L39.988,3.212z
		 M40.43,3.152h0.014l0.035,0.036v0.777L40.441,4H40.43l-0.035-0.035V3.188L40.43,3.152z M40.885,3.212l0.035,0.036
		C40.885,3.75,40.855,4,40.837,4h-0.024l-0.035-0.035c0.035-0.502,0.063-0.753,0.084-0.753H40.885z M41.314,3.367l0.035,0.036
		c-0.045,0.438-0.078,0.657-0.098,0.657H41.23l-0.035-0.035c0.045-0.438,0.076-0.658,0.095-0.658H41.314z M41.66,3.727h0.013
		l0.036,0.035c-0.047,0.254-0.082,0.383-0.107,0.383H41.59l-0.037-0.036C41.6,3.854,41.635,3.727,41.66,3.727z"/>
</g>
<g>
	<path fill="#99AA99" d="M33.229,11.758h0.013c0.028,0,0.063,0.131,0.106,0.393l-0.037,0.025h-0.012
		c-0.029,0-0.064-0.133-0.107-0.395L33.229,11.758z M33.574,11.398h0.012c0.033,0,0.068,0.203,0.107,0.609l0.012,0.059l-0.035,0.025
		h-0.012c-0.035,0-0.07-0.203-0.108-0.609l-0.012-0.06L33.574,11.398z M34.004,11.243h0.012c0.037,0,0.062,0.18,0.072,0.538
		c0.01,0,0.018,0.076,0.023,0.227l-0.036,0.023h-0.013c-0.035,0-0.061-0.179-0.07-0.537c-0.01,0-0.02-0.076-0.023-0.227
		L34.004,11.243z M34.445,11.184h0.013l0.036,0.036v0.777l-0.036,0.035h-0.013l-0.035-0.035V11.22L34.445,11.184z M34.9,11.243
		l0.035,0.036c-0.035,0.502-0.063,0.752-0.084,0.752h-0.023l-0.036-0.035c0.036-0.502,0.063-0.753,0.084-0.753H34.9z M35.33,11.398
		l0.036,0.036c-0.046,0.438-0.078,0.657-0.097,0.657h-0.023l-0.035-0.035c0.045-0.438,0.077-0.658,0.096-0.658H35.33z
		 M35.676,11.758h0.014l0.035,0.035c-0.047,0.254-0.082,0.383-0.105,0.383h-0.014l-0.037-0.036
		C35.613,11.885,35.65,11.758,35.676,11.758z"/>
</g>
<g>
	<path fill="#99AA99" d="M34.212,21.727h0.013c0.029,0,0.064,0.131,0.107,0.393l-0.037,0.025h-0.012
		c-0.029,0-0.065-0.133-0.107-0.395L34.212,21.727z M34.559,21.367h0.012c0.033,0,0.07,0.203,0.107,0.609l0.012,0.059l-0.035,0.025
		h-0.012c-0.035,0-0.069-0.203-0.106-0.609l-0.013-0.06L34.559,21.367z M34.988,21.212H35c0.036,0,0.061,0.18,0.072,0.538
		c0.01,0,0.018,0.076,0.023,0.227L35.061,22h-0.014c-0.035,0-0.059-0.179-0.07-0.537c-0.01,0-0.019-0.076-0.021-0.227L34.988,21.212
		z M35.43,21.152h0.014l0.035,0.036v0.777L35.441,22H35.43l-0.035-0.035v-0.777L35.43,21.152z M35.885,21.212l0.035,0.036
		C35.885,21.75,35.855,22,35.837,22h-0.024l-0.035-0.035c0.035-0.502,0.063-0.753,0.084-0.753H35.885z M36.314,21.367l0.035,0.036
		c-0.045,0.438-0.078,0.657-0.098,0.657H36.23l-0.035-0.035c0.045-0.438,0.076-0.658,0.095-0.658H36.314z M36.66,21.727h0.013
		l0.036,0.035c-0.047,0.254-0.082,0.383-0.107,0.383H36.59l-0.037-0.036C36.6,21.854,36.635,21.727,36.66,21.727z"/>
</g>
<g>
	<path fill="#99AA99" d="M2.274,23.664h0.012c0.03,0,0.065,0.131,0.108,0.393l-0.037,0.025H2.346c-0.029,0-0.065-0.133-0.107-0.395
		L2.274,23.664z M2.621,23.305h0.012c0.033,0,0.069,0.203,0.107,0.609l0.012,0.059l-0.035,0.025H2.705
		c-0.035,0-0.07-0.203-0.108-0.609l-0.012-0.06L2.621,23.305z M3.051,23.149h0.012c0.036,0,0.06,0.18,0.072,0.538
		c0.01,0,0.018,0.076,0.023,0.227l-0.036,0.023H3.109c-0.035,0-0.059-0.179-0.07-0.537c-0.01,0-0.019-0.076-0.023-0.227
		L3.051,23.149z M3.492,23.09h0.013l0.036,0.036v0.777l-0.036,0.035H3.492l-0.035-0.035v-0.777L3.492,23.09z M3.947,23.149
		l0.035,0.036c-0.035,0.502-0.063,0.752-0.083,0.752H3.875l-0.036-0.035c0.036-0.502,0.064-0.753,0.084-0.753H3.947z M4.377,23.305
		l0.036,0.036c-0.046,0.438-0.078,0.657-0.097,0.657H4.293l-0.035-0.035c0.045-0.438,0.077-0.658,0.095-0.658H4.377z M4.723,23.664
		h0.013l0.036,0.035c-0.047,0.254-0.082,0.383-0.107,0.383H4.652l-0.037-0.036C4.661,23.791,4.697,23.664,4.723,23.664z"/>
</g>
<g>
	<path fill="#99AA99" d="M24.337,34.789h0.012c0.03,0,0.065,0.131,0.108,0.393l-0.037,0.025h-0.012
		c-0.029,0-0.065-0.133-0.107-0.395L24.337,34.789z M24.684,34.43h0.012c0.033,0,0.069,0.203,0.107,0.609l0.012,0.059l-0.035,0.025
		h-0.012c-0.035,0-0.07-0.203-0.108-0.609l-0.012-0.06L24.684,34.43z M25.113,34.273h0.012c0.036,0,0.06,0.181,0.072,0.539
		c0.01,0,0.018,0.076,0.023,0.227l-0.036,0.023h-0.013c-0.035,0-0.059-0.181-0.07-0.537c-0.01,0-0.019-0.076-0.023-0.229
		L25.113,34.273z M25.555,34.215h0.014l0.035,0.035v0.777l-0.035,0.035h-0.014l-0.035-0.035V34.25L25.555,34.215z M26.01,34.273
		l0.035,0.037c-0.035,0.502-0.063,0.752-0.083,0.752h-0.024l-0.035-0.035c0.035-0.502,0.063-0.754,0.084-0.754H26.01z M26.439,34.43
		l0.035,0.036c-0.045,0.438-0.078,0.657-0.098,0.657h-0.021l-0.035-0.035c0.045-0.438,0.076-0.658,0.095-0.658H26.439z
		 M26.785,34.789h0.013l0.036,0.035c-0.047,0.254-0.082,0.383-0.107,0.383h-0.012l-0.037-0.036
		C26.725,34.916,26.76,34.789,26.785,34.789z"/>
</g>
<g>
	<path fill="#99AA99" d="M39.287,33.792h0.012c0.03,0,0.064,0.131,0.108,0.394L39.37,34.21h-0.013c-0.028,0-0.064-0.133-0.106-0.396
		L39.287,33.792z M39.634,33.434h0.013c0.033,0,0.068,0.203,0.106,0.608l0.013,0.06l-0.035,0.024h-0.013
		c-0.034,0-0.069-0.203-0.108-0.608l-0.012-0.061L39.634,33.434z M40.063,33.277h0.014c0.035,0,0.061,0.18,0.07,0.537
		c0.012,0,0.02,0.076,0.023,0.228l-0.036,0.022h-0.013c-0.035,0-0.059-0.179-0.07-0.537c-0.01,0-0.019-0.075-0.023-0.229
		L40.063,33.277z M40.505,33.218h0.013l0.037,0.036v0.775l-0.037,0.035h-0.013l-0.034-0.035v-0.775L40.505,33.218z M40.96,33.277
		l0.035,0.035c-0.035,0.502-0.063,0.752-0.083,0.752h-0.023l-0.037-0.035c0.037-0.502,0.064-0.752,0.084-0.752H40.96z
		 M41.391,33.434l0.035,0.035c-0.046,0.438-0.078,0.657-0.097,0.657h-0.022l-0.035-0.035c0.045-0.438,0.076-0.657,0.096-0.657
		H41.391z M41.734,33.792h0.014l0.036,0.035c-0.048,0.254-0.082,0.383-0.106,0.383h-0.013l-0.037-0.036
		C41.674,33.919,41.71,33.792,41.734,33.792z"/>
</g>
<g>
	<path fill="#99AA99" d="M7.337,36.727h0.012c0.03,0,0.065,0.131,0.108,0.395L7.42,37.145H7.408c-0.029,0-0.065-0.133-0.107-0.395
		L7.337,36.727z M7.684,36.367h0.012c0.033,0,0.069,0.203,0.107,0.609l0.012,0.059L7.78,37.061H7.768
		c-0.035,0-0.07-0.203-0.108-0.608l-0.012-0.062L7.684,36.367z M8.113,36.212h0.012c0.036,0,0.06,0.181,0.072,0.538
		c0.01,0,0.018,0.076,0.023,0.227L8.185,37H8.172c-0.035,0-0.059-0.18-0.07-0.537c-0.01,0-0.019-0.076-0.023-0.227L8.113,36.212z
		 M8.555,36.152h0.013l0.036,0.035v0.775L8.567,37H8.555L8.52,36.965v-0.777L8.555,36.152z M9.01,36.212l0.035,0.036
		C9.01,36.75,8.981,37,8.962,37H8.938l-0.036-0.035c0.036-0.502,0.064-0.753,0.084-0.753H9.01z M9.439,36.367l0.036,0.035
		c-0.046,0.438-0.078,0.658-0.097,0.658H9.355L9.32,37.025c0.045-0.438,0.077-0.658,0.095-0.658H9.439z M9.785,36.727h0.013
		l0.036,0.035c-0.047,0.254-0.082,0.383-0.107,0.383H9.715l-0.037-0.035C9.724,36.854,9.76,36.727,9.785,36.727z"/>
</g>
<g>
	<path fill="#99AA99" d="M2.274,45.727h0.012c0.03,0,0.065,0.131,0.108,0.395l-0.037,0.023H2.346c-0.029,0-0.065-0.133-0.107-0.395
		L2.274,45.727z M2.621,45.367h0.012c0.033,0,0.069,0.203,0.107,0.609l0.012,0.059l-0.035,0.025H2.705
		c-0.035,0-0.07-0.203-0.108-0.609l-0.012-0.061L2.621,45.367z M3.051,45.212h0.012c0.036,0,0.06,0.181,0.072,0.538
		c0.01,0,0.018,0.076,0.023,0.227L3.122,46H3.109c-0.035,0-0.059-0.18-0.07-0.537c-0.01,0-0.019-0.076-0.023-0.227L3.051,45.212z
		 M3.492,45.152h0.013l0.036,0.035v0.775L3.505,46H3.492l-0.035-0.035v-0.777L3.492,45.152z M3.947,45.212l0.035,0.036
		C3.947,45.75,3.919,46,3.899,46H3.875l-0.036-0.035c0.036-0.502,0.064-0.753,0.084-0.753H3.947z M4.377,45.367l0.036,0.035
		c-0.046,0.438-0.078,0.658-0.097,0.658H4.293l-0.035-0.035c0.045-0.438,0.077-0.658,0.095-0.658H4.377z M4.723,45.727h0.013
		l0.036,0.035c-0.047,0.254-0.082,0.383-0.107,0.383H4.652l-0.037-0.035C4.661,45.854,4.697,45.727,4.723,45.727z"/>
</g>
<g>
	<path fill="#99AA99" d="M36.273,45.789h0.013c0.03,0,0.065,0.131,0.108,0.393l-0.037,0.025h-0.012
		c-0.029,0-0.066-0.133-0.107-0.395L36.273,45.789z M36.621,45.43h0.012c0.033,0,0.069,0.203,0.107,0.609l0.012,0.059l-0.035,0.025
		h-0.012c-0.035,0-0.07-0.203-0.107-0.609l-0.013-0.06L36.621,45.43z M37.051,45.273h0.012c0.037,0,0.062,0.181,0.072,0.539
		c0.01,0,0.018,0.076,0.023,0.227l-0.036,0.023h-0.013c-0.035,0-0.061-0.181-0.07-0.537c-0.01,0-0.02-0.076-0.023-0.229
		L37.051,45.273z M37.492,45.215h0.013l0.036,0.035v0.777l-0.036,0.035h-0.013l-0.035-0.035V45.25L37.492,45.215z M37.947,45.273
		l0.035,0.037c-0.035,0.502-0.063,0.752-0.084,0.752h-0.023l-0.036-0.035c0.036-0.502,0.063-0.754,0.084-0.754H37.947z
		 M38.377,45.43l0.036,0.036c-0.046,0.438-0.078,0.657-0.097,0.657h-0.023l-0.035-0.035c0.045-0.438,0.077-0.658,0.096-0.658H38.377
		z M38.723,45.789h0.014l0.035,0.035c-0.047,0.254-0.082,0.383-0.105,0.383h-0.014l-0.035-0.036
		C38.661,45.916,38.697,45.789,38.723,45.789z"/>
</g>
</svg>
