<?xml version="1.0" encoding="utf-8"?>
<!-- Generator: Adobe Illustrator 16.0.3, SVG Export Plug-In . SVG Version: 6.00 Build 0)  -->
<!DOCTYPE svg PUBLIC "-//W3C//DTD SVG 1.0//EN" "http://www.w3.org/TR/2001/REC-SVG-20010904/DTD/svg10.dtd">
<svg version="1.0" id="Layer_2" xmlns="http://www.w3.org/2000/svg" xmlns:xlink="http://www.w3.org/1999/xlink" x="0px" y="0px"
	 width="50px" height="50px" viewBox="0 0 50 50" style="enable-background:new 0 0 50 50;" xml:space="preserve">
<g id="ConiferousTrees_10_">
	<g id="roughGrassAndConiferousTreesFillSymbol_12_">
		<g id="coniferousTreesFillSymbol_12_">
			<g id="coniferousTreeFillSymbol_12_">
				<g>
					<g id="coniferousTreeGeometry_12_">
						<g>
							<rect x="23.255" y="1.603" style="fill:#669966;" width="0.087" height="2.998"/>
						</g>
						<g>
							<path style="fill:#669966;" d="M22.01,4.044L21.989,3.96c0.554-0.141,1.017-0.515,1.271-1.027l0.039-0.078l0.039,0.078
								c0.254,0.512,0.717,0.886,1.271,1.027l-0.021,0.084c-0.551-0.14-1.016-0.501-1.288-0.998
								C23.026,3.543,22.561,3.904,22.01,4.044z"/>
						</g>
						<g>
							<path style="fill:#669966;" d="M24.181,2.792c-0.37-0.176-0.673-0.452-0.881-0.803c-0.208,0.35-0.51,0.626-0.88,0.803
								l-0.037-0.078c0.376-0.18,0.681-0.468,0.879-0.833L23.3,1.81l0.038,0.07c0.199,0.366,0.503,0.654,0.88,0.833L24.181,2.792z"
								/>
						</g>
					</g>
				</g>
			</g>
			<g>
				<g id="smallConiferousTreeFillSymbol_12_">
					<g>
						<rect x="25.254" y="4.525" style="fill:#669966;" width="0.087" height="1.499"/>
					</g>
					<g>
						<path style="fill:#669966;" d="M25.938,5.768c-0.267-0.064-0.497-0.23-0.641-0.458c-0.145,0.229-0.374,0.394-0.639,0.458
							l-0.021-0.085c0.266-0.064,0.492-0.239,0.621-0.48l0.039-0.072l0.039,0.072c0.128,0.241,0.355,0.416,0.622,0.48L25.938,5.768z
							"/>
					</g>
					<g>
						<path style="fill:#669966;" d="M25.729,5.14c-0.179-0.084-0.327-0.214-0.431-0.378c-0.105,0.164-0.252,0.293-0.431,0.378
							L24.83,5.062c0.185-0.088,0.333-0.229,0.43-0.406l0.038-0.07l0.038,0.07c0.096,0.177,0.246,0.318,0.43,0.406L25.729,5.14z"/>
					</g>
				</g>
			</g>
		</g>
	</g>
</g>
<g id="ConiferousTrees_9_" style="enable-background:new    ;">
	<g id="roughGrassAndConiferousTreesFillSymbol_11_">
		<g id="coniferousTreesFillSymbol_11_">
			<g id="coniferousTreeFillSymbol_11_">
				<g>
					<g id="coniferousTreeGeometry_11_">
						<g>
							<rect x="40.217" y="1.564" style="fill:#669966;" width="0.088" height="2.998"/>
						</g>
						<g>
							<path style="fill:#669966;" d="M41.55,4.005c-0.551-0.14-1.017-0.501-1.288-0.998c-0.271,0.497-0.738,0.858-1.289,0.998
								l-0.021-0.084c0.554-0.141,1.017-0.515,1.271-1.027l0.039-0.078L40.3,2.895c0.255,0.512,0.718,0.886,1.271,1.027L41.55,4.005
								z"/>
						</g>
						<g>
							<path style="fill:#669966;" d="M41.143,2.753c-0.369-0.176-0.672-0.452-0.881-0.803c-0.203,0.345-0.515,0.628-0.88,0.803
								l-0.036-0.078c0.371-0.178,0.684-0.474,0.879-0.833l0.037-0.07l0.038,0.07c0.199,0.366,0.505,0.654,0.88,0.833L41.143,2.753z
								"/>
						</g>
					</g>
				</g>
			</g>
			<g>
				<g id="smallConiferousTreeFillSymbol_11_">
					<g>
						<rect x="42.216" y="4.486" style="fill:#669966;" width="0.089" height="1.499"/>
					</g>
					<g>
						<path style="fill:#669966;" d="M42.9,5.729C42.634,5.665,42.404,5.5,42.26,5.271c-0.145,0.229-0.373,0.394-0.638,0.458
							l-0.021-0.085c0.267-0.064,0.491-0.24,0.621-0.48l0.037-0.072l0.038,0.072c0.13,0.241,0.354,0.417,0.622,0.48L42.9,5.729z"/>
					</g>
					<g>
						<path style="fill:#669966;" d="M41.828,5.101l-0.037-0.078c0.186-0.088,0.334-0.229,0.432-0.406l0.037-0.071l0.038,0.071
							c0.095,0.174,0.247,0.318,0.431,0.406l-0.039,0.078c-0.178-0.085-0.326-0.215-0.431-0.378
							C42.154,4.886,42.008,5.016,41.828,5.101z"/>
					</g>
				</g>
			</g>
		</g>
	</g>
</g>
<g id="ConiferousTrees_8_" style="enable-background:new    ;">
	<g id="roughGrassAndConiferousTreesFillSymbol_10_">
		<g id="coniferousTreesFillSymbol_10_">
			<g id="coniferousTreeFillSymbol_10_">
				<g>
					<g id="coniferousTreeGeometry_10_">
						<g>
							<rect x="34.217" y="9.564" style="fill:#669966;" width="0.088" height="2.998"/>
						</g>
						<g>
							<path style="fill:#669966;" d="M35.55,12.005c-0.551-0.14-1.017-0.501-1.288-0.998c-0.271,0.497-0.738,0.858-1.289,0.998
								l-0.021-0.084c0.554-0.141,1.017-0.515,1.271-1.027l0.039-0.078l0.039,0.078c0.254,0.512,0.719,0.886,1.271,1.027
								L35.55,12.005z"/>
						</g>
						<g>
							<path style="fill:#669966;" d="M35.143,10.753c-0.369-0.176-0.672-0.452-0.881-0.803c-0.203,0.345-0.515,0.628-0.88,0.803
								l-0.036-0.078c0.371-0.178,0.684-0.474,0.879-0.833l0.037-0.07l0.038,0.07c0.199,0.366,0.505,0.654,0.88,0.833L35.143,10.753
								z"/>
						</g>
					</g>
				</g>
			</g>
			<g>
				<g id="smallConiferousTreeFillSymbol_10_">
					<g>
						<rect x="36.216" y="12.486" style="fill:#669966;" width="0.089" height="1.499"/>
					</g>
					<g>
						<path style="fill:#669966;" d="M36.9,13.729c-0.268-0.064-0.496-0.229-0.642-0.458c-0.146,0.229-0.372,0.394-0.638,0.458
							L35.6,13.644c0.268-0.064,0.492-0.24,0.621-0.48l0.038-0.072l0.038,0.072c0.129,0.241,0.355,0.417,0.622,0.48L36.9,13.729z"/>
					</g>
					<g>
						<path style="fill:#669966;" d="M35.828,13.101l-0.037-0.078c0.186-0.088,0.334-0.229,0.432-0.406l0.037-0.071l0.038,0.071
							c0.095,0.174,0.247,0.318,0.431,0.406l-0.037,0.078c-0.18-0.085-0.326-0.215-0.432-0.378
							C36.154,12.886,36.008,13.016,35.828,13.101z"/>
					</g>
				</g>
			</g>
		</g>
	</g>
</g>
<g id="ConiferousTrees_7_" style="enable-background:new    ;">
	<g id="roughGrassAndConiferousTreesFillSymbol_9_">
		<g id="coniferousTreesFillSymbol_9_">
			<g id="coniferousTreeFillSymbol_9_">
				<g>
					<g id="coniferousTreeGeometry_9_">
						<g>
							<rect x="8.218" y="11.593" style="fill:#669966;" width="0.087" height="2.998"/>
						</g>
						<g>
							<path style="fill:#669966;" d="M6.973,14.034L6.951,13.95c0.554-0.141,1.017-0.515,1.271-1.027l0.039-0.078L8.3,12.923
								c0.254,0.512,0.717,0.886,1.271,1.027L9.55,14.034c-0.551-0.14-1.016-0.501-1.288-0.998
								C7.989,13.533,7.523,13.894,6.973,14.034z"/>
						</g>
						<g>
							<path style="fill:#669966;" d="M9.143,12.781c-0.37-0.176-0.673-0.452-0.881-0.803c-0.208,0.35-0.51,0.626-0.88,0.803
								l-0.037-0.078c0.376-0.18,0.681-0.468,0.879-0.833l0.038-0.07L8.3,11.87c0.199,0.366,0.503,0.654,0.88,0.833L9.143,12.781z"
								/>
						</g>
					</g>
				</g>
			</g>
			<g>
				<g id="smallConiferousTreeFillSymbol_9_">
					<g>
						<rect x="10.216" y="14.515" style="fill:#669966;" width="0.087" height="1.499"/>
					</g>
					<g>
						<path style="fill:#669966;" d="M10.9,15.757c-0.266-0.064-0.496-0.23-0.64-0.458c-0.146,0.229-0.374,0.394-0.639,0.458
							L9.6,15.672c0.266-0.064,0.492-0.239,0.621-0.48l0.039-0.072l0.039,0.072c0.128,0.241,0.355,0.416,0.622,0.48L10.9,15.757z"/>
					</g>
					<g>
						<path style="fill:#669966;" d="M10.691,15.129c-0.179-0.085-0.327-0.215-0.431-0.378c-0.105,0.164-0.252,0.293-0.431,0.378
							l-0.037-0.078c0.185-0.088,0.333-0.229,0.43-0.406l0.038-0.07l0.038,0.07c0.096,0.177,0.245,0.317,0.43,0.406L10.691,15.129z"
							/>
					</g>
				</g>
			</g>
		</g>
	</g>
</g>
<g id="ConiferousTrees_6_" style="enable-background:new    ;">
	<g id="roughGrassAndConiferousTreesFillSymbol_8_">
		<g id="coniferousTreesFillSymbol_8_">
			<g id="coniferousTreeFillSymbol_8_">
				<g>
					<g id="coniferousTreeGeometry_8_">
						<g>
							<rect x="3.218" y="21.466" style="fill:#669966;" width="0.087" height="2.998"/>
						</g>
						<g>
							<path style="fill:#669966;" d="M1.973,23.907l-0.021-0.084c0.554-0.141,1.017-0.515,1.271-1.027l0.039-0.078L3.3,22.796
								c0.254,0.512,0.717,0.886,1.271,1.027L4.55,23.907c-0.551-0.14-1.016-0.501-1.288-0.998
								C2.989,23.406,2.523,23.767,1.973,23.907z"/>
						</g>
						<g>
							<path style="fill:#669966;" d="M4.143,22.654c-0.37-0.176-0.673-0.452-0.881-0.803c-0.208,0.35-0.51,0.626-0.88,0.803
								l-0.037-0.078c0.376-0.18,0.681-0.468,0.879-0.833l0.038-0.07l0.038,0.07c0.199,0.366,0.503,0.654,0.88,0.833L4.143,22.654z"
								/>
						</g>
					</g>
				</g>
			</g>
			<g>
				<g id="smallConiferousTreeFillSymbol_8_">
					<g>
						<rect x="5.216" y="24.388" style="fill:#669966;" width="0.087" height="1.499"/>
					</g>
					<g>
						<path style="fill:#669966;" d="M5.9,25.63c-0.266-0.063-0.496-0.229-0.64-0.458c-0.146,0.229-0.374,0.395-0.639,0.458
							L4.6,25.546c0.266-0.064,0.492-0.24,0.621-0.481l0.039-0.072l0.039,0.072c0.128,0.241,0.355,0.416,0.622,0.481L5.9,25.63z"/>
					</g>
					<g>
						<path style="fill:#669966;" d="M5.691,25.002c-0.179-0.085-0.327-0.215-0.431-0.378c-0.105,0.164-0.252,0.293-0.431,0.378
							l-0.037-0.078c0.185-0.088,0.333-0.229,0.43-0.406l0.038-0.07l0.038,0.07c0.096,0.177,0.245,0.317,0.43,0.406L5.691,25.002z"
							/>
					</g>
				</g>
			</g>
		</g>
	</g>
</g>
<g id="ConiferousTrees_5_" style="enable-background:new    ;">
	<g id="roughGrassAndConiferousTreesFillSymbol_7_">
		<g id="coniferousTreesFillSymbol_7_">
			<g id="coniferousTreeFillSymbol_7_">
				<g>
					<g id="coniferousTreeGeometry_7_">
						<g>
							<rect x="8.218" y="34.598" style="fill:#669966;" width="0.087" height="2.996"/>
						</g>
						<g>
							<path style="fill:#669966;" d="M6.973,37.037l-0.021-0.084c0.554-0.141,1.017-0.516,1.271-1.025l0.039-0.078L8.3,35.928
								c0.254,0.512,0.717,0.885,1.271,1.025L9.55,37.037c-0.551-0.141-1.016-0.501-1.288-0.997
								C7.989,36.536,7.523,36.896,6.973,37.037z"/>
						</g>
						<g>
							<path style="fill:#669966;" d="M9.143,35.785c-0.37-0.176-0.673-0.453-0.881-0.805c-0.207,0.351-0.51,0.627-0.88,0.805
								l-0.037-0.078c0.377-0.182,0.681-0.469,0.879-0.834l0.038-0.07l0.038,0.07c0.199,0.365,0.503,0.654,0.88,0.834L9.143,35.785z
								"/>
						</g>
					</g>
				</g>
			</g>
			<g>
				<g id="smallConiferousTreeFillSymbol_7_">
					<g>
						<rect x="10.216" y="37.52" style="fill:#669966;" width="0.087" height="1.498"/>
					</g>
					<g>
						<path style="fill:#669966;" d="M10.9,38.762c-0.266-0.064-0.496-0.229-0.64-0.459c-0.146,0.229-0.374,0.395-0.639,0.459
							L9.6,38.678c0.266-0.064,0.492-0.24,0.621-0.482l0.039-0.071l0.039,0.071c0.128,0.242,0.355,0.418,0.622,0.482L10.9,38.762z"
							/>
					</g>
					<g>
						<path style="fill:#669966;" d="M10.691,38.133c-0.176-0.084-0.327-0.217-0.431-0.379c-0.105,0.164-0.253,0.294-0.431,0.379
							l-0.037-0.078c0.184-0.088,0.333-0.229,0.43-0.406l0.038-0.069l0.038,0.069c0.095,0.176,0.248,0.32,0.43,0.406L10.691,38.133z
							"/>
					</g>
				</g>
			</g>
		</g>
	</g>
</g>
<g id="ConiferousTrees_4_" style="enable-background:new    ;">
	<g id="roughGrassAndConiferousTreesFillSymbol_6_">
		<g id="coniferousTreesFillSymbol_6_">
			<g id="coniferousTreeFillSymbol_6_">
				<g>
					<g id="coniferousTreeGeometry_6_">
						<g>
							<rect x="25.218" y="32.564" style="fill:#669966;" width="0.087" height="2.998"/>
						</g>
						<g>
							<path style="fill:#669966;" d="M26.55,35.006c-0.552-0.14-1.017-0.501-1.289-0.997c-0.272,0.496-0.738,0.857-1.289,0.997
								l-0.021-0.084c0.554-0.141,1.017-0.515,1.271-1.025l0.039-0.078l0.039,0.078c0.253,0.512,0.718,0.886,1.271,1.025
								L26.55,35.006z"/>
						</g>
						<g>
							<path style="fill:#669966;" d="M26.143,33.754c-0.369-0.176-0.672-0.453-0.879-0.804c-0.207,0.35-0.51,0.627-0.88,0.804
								l-0.037-0.078c0.377-0.181,0.681-0.469,0.879-0.834l0.038-0.07l0.038,0.07c0.199,0.366,0.504,0.654,0.879,0.834
								L26.143,33.754z"/>
						</g>
					</g>
				</g>
			</g>
			<g>
				<g id="smallConiferousTreeFillSymbol_6_">
					<g>
						<rect x="27.216" y="35.486" style="fill:#669966;" width="0.089" height="1.498"/>
					</g>
					<g>
						<path style="fill:#669966;" d="M27.9,36.729c-0.268-0.063-0.496-0.229-0.642-0.457c-0.146,0.229-0.372,0.394-0.638,0.457
							L26.6,36.645c0.268-0.063,0.492-0.24,0.621-0.48l0.038-0.072l0.038,0.072c0.129,0.24,0.355,0.417,0.622,0.48L27.9,36.729z"/>
					</g>
					<g>
						<path style="fill:#669966;" d="M26.828,36.102l-0.037-0.078c0.186-0.088,0.334-0.229,0.432-0.405l0.037-0.07l0.038,0.07
							c0.095,0.175,0.248,0.319,0.431,0.405l-0.037,0.078c-0.176-0.084-0.326-0.217-0.432-0.379
							C27.154,35.887,27.007,36.018,26.828,36.102z"/>
					</g>
				</g>
			</g>
		</g>
	</g>
</g>
<g id="ConiferousTrees_3_" style="enable-background:new    ;">
	<g id="roughGrassAndConiferousTreesFillSymbol_5_">
		<g id="coniferousTreesFillSymbol_5_">
			<g id="coniferousTreeFillSymbol_5_">
				<g>
					<g id="coniferousTreeGeometry_5_">
						<g>
							<rect x="40.217" y="31.564" style="fill:#669966;" width="0.088" height="2.998"/>
						</g>
						<g>
							<path style="fill:#669966;" d="M41.55,34.006c-0.551-0.14-1.017-0.501-1.288-0.997c-0.271,0.496-0.738,0.857-1.289,0.997
								l-0.021-0.084c0.554-0.141,1.017-0.515,1.271-1.025l0.039-0.078l0.039,0.078c0.254,0.512,0.719,0.886,1.271,1.025
								L41.55,34.006z"/>
						</g>
						<g>
							<path style="fill:#669966;" d="M41.143,32.754c-0.369-0.176-0.672-0.453-0.881-0.804c-0.203,0.345-0.514,0.629-0.88,0.804
								l-0.036-0.078c0.371-0.179,0.684-0.475,0.879-0.834l0.037-0.07l0.038,0.07c0.199,0.366,0.505,0.654,0.88,0.834L41.143,32.754
								z"/>
						</g>
					</g>
				</g>
			</g>
			<g>
				<g id="smallConiferousTreeFillSymbol_5_">
					<g>
						<rect x="42.216" y="34.486" style="fill:#669966;" width="0.089" height="1.498"/>
					</g>
					<g>
						<path style="fill:#669966;" d="M42.9,35.729c-0.268-0.063-0.496-0.229-0.642-0.457c-0.146,0.229-0.372,0.394-0.638,0.457
							L41.6,35.645c0.268-0.063,0.492-0.24,0.621-0.48l0.038-0.072l0.038,0.072c0.129,0.24,0.355,0.417,0.622,0.48L42.9,35.729z"/>
					</g>
					<g>
						<path style="fill:#669966;" d="M41.828,35.102l-0.037-0.078c0.186-0.088,0.334-0.229,0.432-0.405l0.037-0.07l0.038,0.07
							c0.095,0.175,0.248,0.319,0.431,0.405l-0.037,0.078c-0.176-0.084-0.326-0.217-0.432-0.379
							C42.154,34.887,42.007,35.018,41.828,35.102z"/>
					</g>
				</g>
			</g>
		</g>
	</g>
</g>
<g id="ConiferousTrees_2_" style="enable-background:new    ;">
	<g id="roughGrassAndConiferousTreesFillSymbol_4_">
		<g id="coniferousTreesFillSymbol_4_">
			<g id="coniferousTreeFillSymbol_4_">
				<g>
					<g id="coniferousTreeGeometry_4_">
						<g>
							<rect x="37.217" y="43.564" style="fill:#669966;" width="0.088" height="2.998"/>
						</g>
						<g>
							<path style="fill:#669966;" d="M38.55,46.006c-0.551-0.14-1.017-0.501-1.288-0.997c-0.271,0.496-0.738,0.857-1.289,0.997
								l-0.021-0.084c0.554-0.141,1.017-0.515,1.271-1.025l0.039-0.078l0.039,0.078c0.254,0.512,0.719,0.886,1.271,1.025
								L38.55,46.006z"/>
						</g>
						<g>
							<path style="fill:#669966;" d="M38.143,44.754c-0.369-0.176-0.672-0.453-0.881-0.804c-0.203,0.345-0.514,0.629-0.88,0.804
								l-0.036-0.078c0.371-0.179,0.684-0.475,0.879-0.834l0.037-0.07l0.038,0.07c0.199,0.366,0.505,0.654,0.88,0.834L38.143,44.754
								z"/>
						</g>
					</g>
				</g>
			</g>
			<g>
				<g id="smallConiferousTreeFillSymbol_4_">
					<g>
						<rect x="39.216" y="46.486" style="fill:#669966;" width="0.089" height="1.498"/>
					</g>
					<g>
						<path style="fill:#669966;" d="M39.9,47.729c-0.268-0.063-0.496-0.229-0.642-0.457c-0.146,0.229-0.372,0.394-0.638,0.457
							L38.6,47.645c0.268-0.063,0.492-0.24,0.621-0.48l0.038-0.072l0.038,0.072c0.129,0.24,0.355,0.417,0.622,0.48L39.9,47.729z"/>
					</g>
					<g>
						<path style="fill:#669966;" d="M38.828,47.102l-0.037-0.078c0.186-0.088,0.334-0.229,0.432-0.405l0.037-0.07l0.038,0.07
							c0.095,0.175,0.248,0.319,0.431,0.405l-0.037,0.078c-0.176-0.084-0.326-0.217-0.432-0.379
							C39.154,46.887,39.007,47.018,38.828,47.102z"/>
					</g>
				</g>
			</g>
		</g>
	</g>
</g>
<g id="ConiferousTrees_1_" style="enable-background:new    ;">
	<g id="roughGrassAndConiferousTreesFillSymbol_3_">
		<g id="coniferousTreesFillSymbol_3_">
			<g id="coniferousTreeFillSymbol_3_">
				<g>
					<g id="coniferousTreeGeometry_3_">
						<g>
							<rect x="3.218" y="43.542" style="fill:#669966;" width="0.087" height="2.997"/>
						</g>
						<g>
							<path style="fill:#669966;" d="M1.973,45.982l-0.021-0.084c0.554-0.142,1.017-0.516,1.271-1.026l0.039-0.078L3.3,44.872
								c0.254,0.512,0.717,0.886,1.271,1.026L4.55,45.982c-0.551-0.141-1.016-0.502-1.288-0.998
								C2.989,45.48,2.523,45.843,1.973,45.982z"/>
						</g>
						<g>
							<path style="fill:#669966;" d="M4.143,44.73c-0.37-0.176-0.673-0.453-0.881-0.805c-0.207,0.35-0.51,0.627-0.88,0.805
								l-0.037-0.078c0.377-0.182,0.681-0.469,0.879-0.834l0.038-0.07l0.038,0.07c0.199,0.365,0.503,0.654,0.88,0.834L4.143,44.73z"
								/>
						</g>
					</g>
				</g>
			</g>
			<g>
				<g id="smallConiferousTreeFillSymbol_3_">
					<g>
						<rect x="5.216" y="46.464" style="fill:#669966;" width="0.087" height="1.498"/>
					</g>
					<g>
						<path style="fill:#669966;" d="M5.9,47.706c-0.266-0.063-0.496-0.229-0.64-0.459c-0.146,0.229-0.374,0.396-0.639,0.459
							L4.6,47.622c0.266-0.063,0.492-0.24,0.621-0.481l0.039-0.072l0.039,0.072c0.128,0.241,0.355,0.418,0.622,0.481L5.9,47.706z"/>
					</g>
					<g>
						<path style="fill:#669966;" d="M5.691,47.078c-0.176-0.084-0.327-0.217-0.431-0.379c-0.105,0.164-0.253,0.294-0.431,0.379
							L4.792,47c0.184-0.088,0.333-0.229,0.43-0.406l0.038-0.07l0.038,0.07C5.393,46.77,5.546,46.913,5.728,47L5.691,47.078z"/>
					</g>
				</g>
			</g>
		</g>
	</g>
</g>
<g id="ConiferousTrees" style="enable-background:new    ;">
	<g id="roughGrassAndConiferousTreesFillSymbol_2_">
		<g id="coniferousTreesFillSymbol_2_">
			<g id="coniferousTreeFillSymbol_2_">
				<g>
					<g id="coniferousTreeGeometry_2_">
						<g>
							<rect x="35.217" y="19.564" style="fill:#669966;" width="0.088" height="2.998"/>
						</g>
						<g>
							<path style="fill:#669966;" d="M36.55,22.005c-0.551-0.14-1.017-0.501-1.288-0.998c-0.271,0.497-0.738,0.858-1.289,0.998
								l-0.021-0.084c0.554-0.141,1.017-0.515,1.271-1.027l0.039-0.078l0.039,0.078c0.254,0.512,0.719,0.886,1.271,1.027
								L36.55,22.005z"/>
						</g>
						<g>
							<path style="fill:#669966;" d="M36.143,20.753c-0.369-0.176-0.672-0.452-0.881-0.803c-0.203,0.345-0.515,0.628-0.88,0.803
								l-0.036-0.078c0.371-0.178,0.684-0.474,0.879-0.833l0.037-0.07l0.038,0.07c0.199,0.366,0.505,0.654,0.88,0.833L36.143,20.753
								z"/>
						</g>
					</g>
				</g>
			</g>
			<g>
				<g id="smallConiferousTreeFillSymbol_2_">
					<g>
						<rect x="37.216" y="22.486" style="fill:#669966;" width="0.089" height="1.499"/>
					</g>
					<g>
						<path style="fill:#669966;" d="M37.9,23.729c-0.268-0.064-0.496-0.229-0.642-0.458c-0.146,0.229-0.372,0.394-0.638,0.458
							L36.6,23.644c0.268-0.064,0.492-0.24,0.621-0.48l0.038-0.072l0.038,0.072c0.129,0.241,0.355,0.417,0.622,0.48L37.9,23.729z"/>
					</g>
					<g>
						<path style="fill:#669966;" d="M36.828,23.101l-0.037-0.078c0.186-0.088,0.334-0.229,0.432-0.406l0.037-0.071l0.038,0.071
							c0.095,0.174,0.247,0.318,0.431,0.406l-0.037,0.078c-0.18-0.085-0.326-0.215-0.432-0.378
							C37.154,22.886,37.008,23.016,36.828,23.101z"/>
					</g>
				</g>
			</g>
		</g>
	</g>
</g>
</svg>
