<?xml version="1.0" encoding="UTF-8"?>
<svg id="Layer_2" xmlns="http://www.w3.org/2000/svg" viewBox="0 0 40.61 46.53">
  <g id="Scrub">
    <g id="bushFillSymbol">
      <polygon points="22.15 3.12 20.98 3.12 21.57 2.45 21.7 2.24 21.78 2.02 21.8 1.79 21.78 1.69 21.72 1.61 21.63 1.57 21.44 1.55 21.24 1.58 21.06 1.67 20.78 1.89 20.73 1.82 20.97 1.58 21.17 1.31 21.33 1.01 21.44 .7 21.46 .56 21.42 .43 21.34 .31 21.15 .18 20.92 .13 20.77 .14 20.64 .2 20.52 .3 20.32 .58 20.19 .9 20.12 1.24 20.14 1.58 20.21 1.96 20.34 2.33 20.52 2.68 20.75 2.99 20.79 3.06 20.72 3.11 20.68 3.04 20.45 2.72 20.26 2.36 20.13 1.98 20.05 1.59 20.04 1.23 20.1 .87 20.24 .54 20.45 .24 20.59 .12 20.75 .06 20.92 .04 20.93 .04 21.19 .1 21.41 .26 21.5 .4 21.54 .55 21.53 .73 21.41 1.05 21.24 1.36 21.1 1.55 21.22 1.5 21.43 1.46 21.44 1.46 21.66 1.49 21.78 1.55 21.86 1.66 21.89 1.78 21.89 1.79 21.86 2.04 21.78 2.28 21.64 2.5 21.17 3.03 22.15 3.03 22.15 3.12" fill="#acbaab"/>
    </g>
    <g id="smallBushFillSymbol">
      <polygon points="23.65 4.57 23.02 4.57 23.34 4.2 23.41 4.1 23.44 3.99 23.45 3.89 23.44 3.85 23.42 3.82 23.38 3.8 23.29 3.79 23.2 3.8 23.12 3.85 22.98 3.95 22.92 3.89 23.05 3.77 23.14 3.63 23.22 3.49 23.27 3.34 23.28 3.27 23.27 3.21 23.23 3.16 23.14 3.1 23.03 3.08 22.97 3.08 22.9 3.11 22.85 3.16 22.75 3.29 22.69 3.45 22.66 3.61 22.66 3.78 22.7 3.97 22.77 4.15 22.86 4.32 22.99 4.51 22.91 4.55 22.9 4.52 22.78 4.36 22.69 4.18 22.62 3.99 22.58 3.79 22.57 3.61 22.61 3.42 22.68 3.25 22.79 3.1 22.86 3.03 22.95 3 23.04 2.99 23.18 3.02 23.3 3.11 23.35 3.18 23.37 3.27 23.36 3.36 23.3 3.52 23.22 3.68 23.19 3.72 23.29 3.7 23.41 3.72 23.48 3.75 23.53 3.82 23.54 3.88 23.54 3.89 23.53 4.01 23.48 4.14 23.41 4.25 23.21 4.49 23.65 4.49 23.65 4.57" fill="#acbaab"/>
    </g>
  </g>
  <g id="Scrub-2" data-name="Scrub" isolation="isolate">
    <g id="bushFillSymbol-2" data-name="bushFillSymbol">
      <polygon points="39.12 3.08 37.94 3.08 38.53 2.41 38.66 2.21 38.74 1.98 38.77 1.75 38.74 1.65 38.68 1.57 38.59 1.53 38.4 1.51 38.21 1.54 38.02 1.63 37.75 1.85 37.69 1.78 37.93 1.54 38.13 1.27 38.29 .98 38.41 .66 38.42 .52 38.39 .39 38.31 .28 38.11 .14 37.88 .09 37.73 .11 37.6 .16 37.48 .26 37.28 .54 37.15 .86 37.09 1.2 37.1 1.54 37.18 1.92 37.31 2.29 37.49 2.64 37.72 2.95 37.76 3.02 37.68 3.07 37.64 3 37.41 2.68 37.23 2.32 37.09 1.94 37.01 1.55 37 1.19 37.07 .83 37.21 .5 37.42 .21 37.56 .09 37.72 .02 37.89 0 37.89 0 38.15 .06 38.37 .22 38.47 .36 38.51 .51 38.51 .52 38.49 .69 38.37 1.01 38.21 1.32 38.06 1.52 38.18 1.46 38.4 1.42 38.4 1.42 38.63 1.45 38.74 1.51 38.83 1.62 38.85 1.74 38.85 1.75 38.82 2 38.74 2.24 38.6 2.46 38.14 2.99 39.12 2.99 39.12 3.08" fill="#acbaab"/>
    </g>
    <g id="smallBushFillSymbol-2" data-name="smallBushFillSymbol">
      <polygon points="40.61 4.53 39.98 4.53 40.31 4.16 40.37 4.06 40.41 3.96 40.41 3.85 40.41 3.81 40.38 3.78 40.35 3.76 40.26 3.75 40.17 3.76 40.08 3.81 39.94 3.91 39.89 3.85 40.01 3.73 40.1 3.6 40.18 3.45 40.24 3.3 40.24 3.24 40.23 3.18 40.19 3.12 40.1 3.06 40 3.04 39.93 3.05 39.87 3.07 39.81 3.12 39.72 3.26 39.65 3.41 39.62 3.58 39.63 3.74 39.67 3.93 39.73 4.11 39.82 4.28 39.95 4.47 39.88 4.52 39.86 4.48 39.75 4.32 39.65 4.14 39.58 3.95 39.54 3.75 39.53 3.57 39.57 3.39 39.64 3.21 39.75 3.06 39.83 3 39.91 2.96 40 2.95 40.14 2.99 40.26 3.07 40.31 3.15 40.33 3.23 40.32 3.32 40.27 3.49 40.18 3.64 40.15 3.68 40.25 3.66 40.26 3.66 40.38 3.68 40.44 3.72 40.49 3.78 40.5 3.84 40.5 3.85 40.49 3.97 40.45 4.1 40.38 4.22 40.17 4.45 40.61 4.45 40.61 4.53" fill="#acbaab"/>
    </g>
  </g>
  <g id="Scrub-3" data-name="Scrub" isolation="isolate">
    <g id="bushFillSymbol-3" data-name="bushFillSymbol">
      <polygon points="33.12 11.08 31.94 11.08 32.53 10.41 32.66 10.21 32.74 9.98 32.77 9.75 32.74 9.65 32.68 9.57 32.59 9.53 32.4 9.51 32.21 9.54 32.02 9.63 31.75 9.85 31.69 9.78 31.93 9.54 32.13 9.27 32.29 8.98 32.41 8.66 32.42 8.52 32.39 8.39 32.31 8.28 32.11 8.14 31.88 8.09 31.73 8.11 31.6 8.16 31.48 8.26 31.28 8.54 31.15 8.86 31.09 9.2 31.1 9.54 31.18 9.92 31.31 10.29 31.49 10.64 31.72 10.95 31.76 11.02 31.68 11.07 31.64 11 31.41 10.68 31.23 10.32 31.09 9.94 31.01 9.55 31 9.19 31.07 8.83 31.21 8.5 31.42 8.2 31.56 8.08 31.72 8.02 31.89 8 31.89 8 32.15 8.06 32.37 8.22 32.47 8.36 32.51 8.52 32.51 8.52 32.49 8.69 32.37 9.01 32.21 9.32 32.06 9.52 32.18 9.46 32.4 9.42 32.4 9.42 32.63 9.45 32.74 9.51 32.83 9.62 32.85 9.74 32.85 9.75 32.82 10 32.74 10.24 32.6 10.46 32.14 10.99 33.12 10.99 33.12 11.08" fill="#acbaab"/>
    </g>
    <g id="smallBushFillSymbol-3" data-name="smallBushFillSymbol">
      <polygon points="34.61 12.53 33.98 12.53 34.31 12.16 34.37 12.06 34.41 11.95 34.41 11.85 34.41 11.81 34.38 11.78 34.35 11.76 34.26 11.75 34.17 11.76 34.08 11.81 33.94 11.91 33.89 11.85 34.01 11.73 34.1 11.6 34.18 11.45 34.24 11.3 34.24 11.24 34.23 11.18 34.19 11.12 34.1 11.06 34 11.04 33.93 11.05 33.87 11.07 33.81 11.12 33.72 11.26 33.65 11.41 33.62 11.57 33.63 11.74 33.67 11.93 33.73 12.11 33.82 12.28 33.95 12.47 33.88 12.52 33.86 12.48 33.75 12.32 33.65 12.14 33.58 11.95 33.54 11.75 33.53 11.57 33.57 11.39 33.64 11.21 33.75 11.06 33.83 10.99 33.91 10.96 34 10.95 34.14 10.99 34.26 11.07 34.31 11.15 34.33 11.23 34.32 11.32 34.27 11.49 34.18 11.64 34.15 11.68 34.25 11.66 34.26 11.66 34.38 11.68 34.44 11.72 34.49 11.78 34.5 11.84 34.5 11.85 34.49 11.97 34.45 12.1 34.38 12.22 34.17 12.45 34.61 12.45 34.61 12.53" fill="#acbaab"/>
    </g>
  </g>
  <g id="Scrub-4" data-name="Scrub" isolation="isolate">
    <g id="bushFillSymbol-4" data-name="bushFillSymbol">
      <polygon points="7.12 13.11 5.94 13.11 6.53 12.44 6.66 12.23 6.74 12.01 6.76 11.78 6.74 11.68 6.68 11.6 6.59 11.56 6.4 11.54 6.21 11.57 6.02 11.66 5.75 11.88 5.69 11.81 5.93 11.57 6.13 11.3 6.29 11 6.41 10.69 6.42 10.55 6.39 10.42 6.31 10.3 6.11 10.17 5.88 10.12 5.73 10.13 5.6 10.19 5.48 10.29 5.28 10.57 5.15 10.89 5.09 11.23 5.1 11.57 5.17 11.95 5.31 12.32 5.49 12.66 5.71 12.98 5.76 13.05 5.68 13.1 5.64 13.03 5.41 12.71 5.23 12.35 5.09 11.97 5.01 11.58 5 11.22 5.07 10.86 5.21 10.53 5.42 10.23 5.56 10.11 5.72 10.05 5.89 10.03 5.89 10.03 6.15 10.09 6.37 10.25 6.47 10.39 6.51 10.54 6.49 10.72 6.37 11.04 6.21 11.35 6.06 11.54 6.18 11.49 6.4 11.45 6.4 11.45 6.63 11.48 6.74 11.54 6.83 11.65 6.85 11.77 6.85 11.78 6.82 12.03 6.74 12.27 6.6 12.49 6.13 13.02 7.12 13.02 7.12 13.11" fill="#acbaab"/>
    </g>
    <g id="smallBushFillSymbol-4" data-name="smallBushFillSymbol">
      <polygon points="8.61 14.56 7.98 14.56 8.31 14.19 8.37 14.09 8.41 13.98 8.42 13.88 8.41 13.84 8.38 13.81 8.35 13.79 8.26 13.78 8.17 13.79 8.08 13.83 7.94 13.94 7.88 13.88 8.01 13.76 8.1 13.62 8.18 13.48 8.24 13.33 8.24 13.26 8.23 13.2 8.19 13.15 8.1 13.09 8 13.07 7.93 13.07 7.87 13.1 7.81 13.15 7.72 13.28 7.65 13.44 7.62 13.6 7.63 13.77 7.66 13.95 7.73 14.14 7.82 14.31 7.95 14.5 7.88 14.54 7.86 14.51 7.75 14.35 7.65 14.17 7.58 13.98 7.54 13.78 7.54 13.6 7.57 13.41 7.64 13.24 7.75 13.09 7.83 13.02 7.91 12.99 8 12.98 8.14 13.01 8.26 13.1 8.31 13.17 8.33 13.26 8.32 13.35 8.26 13.51 8.18 13.67 8.15 13.71 8.25 13.69 8.38 13.71 8.44 13.74 8.49 13.81 8.5 13.87 8.49 14 8.45 14.13 8.38 14.24 8.17 14.48 8.61 14.48 8.61 14.56" fill="#acbaab"/>
    </g>
  </g>
  <g id="Scrub-5" data-name="Scrub" isolation="isolate">
    <g id="bushFillSymbol-5" data-name="bushFillSymbol">
      <polygon points="2.12 22.98 .94 22.98 1.53 22.31 1.66 22.11 1.74 21.88 1.76 21.65 1.74 21.55 1.68 21.48 1.59 21.43 1.4 21.41 1.2 21.44 1.02 21.53 .75 21.75 .69 21.68 .93 21.45 1.13 21.17 1.29 20.88 1.41 20.56 1.42 20.42 1.39 20.29 1.31 20.18 1.11 20.04 .88 19.99 .73 20.01 .6 20.06 .48 20.16 .28 20.44 .15 20.76 .09 21.1 .1 21.44 .17 21.82 .31 22.19 .49 22.54 .71 22.86 .76 22.93 .68 22.97 .64 22.9 .41 22.58 .23 22.22 .09 21.85 .01 21.45 0 21.09 .07 20.74 .21 20.4 .42 20.11 .56 19.99 .72 19.92 .89 19.9 .89 19.9 1.15 19.97 1.37 20.12 1.47 20.26 1.51 20.42 1.49 20.59 1.37 20.91 1.21 21.22 1.06 21.42 1.18 21.36 1.4 21.32 1.4 21.32 1.62 21.35 1.74 21.41 1.83 21.53 1.85 21.65 1.85 21.65 1.82 21.9 1.74 22.14 1.6 22.36 1.13 22.9 2.12 22.9 2.12 22.98" fill="#acbaab"/>
    </g>
    <g id="smallBushFillSymbol-5" data-name="smallBushFillSymbol">
      <polygon points="3.61 24.44 2.98 24.44 3.31 24.06 3.37 23.97 3.41 23.86 3.42 23.75 3.41 23.71 3.38 23.68 3.35 23.66 3.26 23.65 3.17 23.67 3.08 23.71 2.94 23.82 2.88 23.75 3.01 23.63 3.1 23.5 3.18 23.35 3.24 23.2 3.24 23.14 3.23 23.08 3.19 23.03 3.1 22.96 3 22.94 2.93 22.95 2.87 22.97 2.81 23.02 2.72 23.16 2.65 23.31 2.62 23.48 2.63 23.64 2.66 23.83 2.73 24.01 2.82 24.18 2.95 24.37 2.88 24.42 2.86 24.39 2.75 24.23 2.65 24.05 2.58 23.85 2.54 23.65 2.54 23.47 2.57 23.29 2.64 23.12 2.75 22.96 2.83 22.9 2.91 22.86 3 22.85 3.14 22.89 3.26 22.97 3.31 23.05 3.33 23.13 3.32 23.23 3.26 23.39 3.18 23.54 3.15 23.58 3.25 23.56 3.38 23.58 3.44 23.62 3.49 23.68 3.5 23.75 3.49 23.88 3.45 24 3.38 24.12 3.17 24.35 3.61 24.35 3.61 24.44" fill="#acbaab"/>
    </g>
  </g>
  <g id="Scrub-6" data-name="Scrub" isolation="isolate">
    <g id="bushFillSymbol-6" data-name="bushFillSymbol">
      <polygon points="7.12 36.11 5.94 36.11 6.53 35.44 6.66 35.24 6.74 35.01 6.76 34.78 6.74 34.68 6.68 34.61 6.59 34.56 6.4 34.54 6.21 34.57 6.02 34.66 5.75 34.88 5.69 34.81 5.93 34.57 6.13 34.3 6.29 34.01 6.41 33.7 6.42 33.55 6.39 33.42 6.31 33.31 6.11 33.17 5.88 33.12 5.73 33.14 5.6 33.19 5.48 33.3 5.28 33.57 5.15 33.89 5.09 34.23 5.1 34.57 5.17 34.95 5.31 35.32 5.49 35.67 5.71 35.99 5.76 36.05 5.68 36.1 5.64 36.03 5.41 35.72 5.23 35.35 5.09 34.98 5.01 34.58 5 34.22 5.07 33.87 5.21 33.53 5.42 33.24 5.56 33.12 5.72 33.05 5.89 33.03 5.89 33.03 6.15 33.1 6.37 33.25 6.47 33.39 6.51 33.55 6.49 33.72 6.37 34.04 6.21 34.35 6.06 34.55 6.18 34.49 6.4 34.45 6.4 34.45 6.63 34.48 6.74 34.55 6.83 34.66 6.85 34.78 6.85 34.78 6.82 35.03 6.74 35.28 6.6 35.49 6.13 36.03 7.12 36.03 7.12 36.11" fill="#acbaab"/>
    </g>
    <g id="smallBushFillSymbol-6" data-name="smallBushFillSymbol">
      <polygon points="8.61 37.57 7.98 37.57 8.31 37.19 8.37 37.1 8.41 36.99 8.42 36.88 8.41 36.84 8.38 36.81 8.35 36.79 8.26 36.78 8.17 36.8 8.08 36.84 7.94 36.94 7.88 36.88 8.01 36.76 8.1 36.63 8.18 36.48 8.24 36.33 8.24 36.27 8.23 36.21 8.19 36.16 8.1 36.1 8 36.07 7.93 36.08 7.87 36.1 7.81 36.15 7.72 36.29 7.65 36.44 7.62 36.61 7.63 36.77 7.66 36.96 7.73 37.14 7.82 37.31 7.95 37.5 7.88 37.55 7.86 37.52 7.75 37.36 7.65 37.18 7.58 36.98 7.54 36.78 7.54 36.6 7.57 36.42 7.64 36.25 7.75 36.1 7.83 36.03 7.91 35.99 8 35.98 8.01 35.98 8.14 36.02 8.26 36.1 8.31 36.18 8.33 36.26 8.32 36.36 8.26 36.52 8.18 36.67 8.15 36.71 8.25 36.69 8.38 36.71 8.44 36.75 8.49 36.81 8.5 36.88 8.49 37 8.45 37.13 8.38 37.25 8.17 37.48 8.61 37.48 8.61 37.57" fill="#acbaab"/>
    </g>
  </g>
  <g id="Scrub-7" data-name="Scrub" isolation="isolate">
    <g id="bushFillSymbol-7" data-name="bushFillSymbol">
      <polygon points="24.12 34.08 22.94 34.08 23.54 33.41 23.66 33.21 23.74 32.98 23.76 32.75 23.74 32.65 23.68 32.57 23.59 32.53 23.4 32.51 23.21 32.54 23.02 32.63 22.75 32.85 22.69 32.78 22.93 32.54 23.13 32.27 23.29 31.97 23.41 31.66 23.42 31.52 23.39 31.39 23.31 31.28 23.11 31.14 22.88 31.09 22.74 31.1 22.6 31.16 22.48 31.26 22.28 31.54 22.15 31.86 22.09 32.2 22.1 32.54 22.17 32.92 22.31 33.29 22.49 33.64 22.72 33.95 22.76 34.02 22.68 34.07 22.64 34 22.41 33.68 22.23 33.32 22.09 32.94 22.01 32.55 22 32.19 22.07 31.84 22.21 31.5 22.42 31.21 22.56 31.09 22.72 31.02 22.89 31 22.9 31 23.16 31.06 23.37 31.22 23.47 31.36 23.51 31.51 23.51 31.52 23.49 31.69 23.37 32.01 23.21 32.32 23.06 32.52 23.18 32.46 23.4 32.42 23.4 32.42 23.63 32.45 23.74 32.51 23.83 32.62 23.85 32.75 23.85 32.75 23.82 33 23.74 33.24 23.6 33.46 23.14 33.99 24.12 33.99 24.12 34.08" fill="#acbaab"/>
    </g>
    <g id="smallBushFillSymbol-7" data-name="smallBushFillSymbol">
      <polygon points="25.61 35.53 24.98 35.53 25.31 35.16 25.37 35.06 25.41 34.95 25.41 34.85 25.41 34.81 25.38 34.78 25.35 34.76 25.26 34.75 25.17 34.76 25.08 34.8 24.94 34.91 24.89 34.85 25.01 34.73 25.1 34.6 25.18 34.45 25.24 34.3 25.24 34.24 25.23 34.17 25.19 34.13 25.1 34.06 25 34.04 24.93 34.05 24.87 34.07 24.81 34.12 24.72 34.26 24.65 34.41 24.62 34.58 24.63 34.74 24.67 34.93 24.73 35.11 24.82 35.28 24.95 35.47 24.88 35.52 24.86 35.48 24.75 35.32 24.65 35.14 24.58 34.95 24.54 34.75 24.54 34.57 24.57 34.39 24.64 34.22 24.75 34.06 24.83 34 24.91 33.96 25 33.95 25.01 33.95 25.15 33.99 25.26 34.07 25.31 34.14 25.33 34.23 25.32 34.32 25.26 34.48 25.18 34.64 25.15 34.68 25.25 34.66 25.26 34.66 25.38 34.68 25.44 34.72 25.49 34.78 25.5 34.85 25.5 34.85 25.49 34.97 25.45 35.1 25.38 35.22 25.17 35.45 25.61 35.45 25.61 35.53" fill="#acbaab"/>
    </g>
  </g>
  <g id="Scrub-8" data-name="Scrub" isolation="isolate">
    <g id="bushFillSymbol-8" data-name="bushFillSymbol">
      <polygon points="39.12 33.08 37.94 33.08 38.53 32.41 38.66 32.21 38.74 31.98 38.77 31.75 38.74 31.65 38.68 31.57 38.59 31.53 38.4 31.51 38.21 31.54 38.02 31.63 37.75 31.85 37.69 31.78 37.93 31.54 38.13 31.27 38.29 30.97 38.41 30.66 38.42 30.52 38.39 30.39 38.31 30.28 38.11 30.14 37.88 30.09 37.73 30.1 37.6 30.16 37.48 30.26 37.28 30.54 37.15 30.86 37.09 31.2 37.1 31.54 37.18 31.92 37.31 32.29 37.49 32.64 37.72 32.95 37.76 33.02 37.68 33.07 37.64 33 37.41 32.68 37.23 32.32 37.09 31.94 37.01 31.55 37 31.19 37.07 30.84 37.21 30.5 37.42 30.21 37.56 30.08 37.72 30.02 37.89 30 38.15 30.06 38.37 30.22 38.47 30.36 38.51 30.51 38.51 30.52 38.49 30.69 38.37 31.01 38.21 31.32 38.06 31.52 38.18 31.46 38.4 31.42 38.4 31.42 38.63 31.45 38.74 31.51 38.83 31.62 38.85 31.75 38.85 31.75 38.82 32 38.74 32.24 38.6 32.46 38.14 32.99 39.12 32.99 39.12 33.08" fill="#acbaab"/>
    </g>
    <g id="smallBushFillSymbol-8" data-name="smallBushFillSymbol">
      <polygon points="40.61 34.53 39.98 34.53 40.31 34.16 40.37 34.06 40.41 33.95 40.41 33.85 40.41 33.81 40.38 33.78 40.35 33.76 40.26 33.75 40.17 33.76 40.08 33.8 39.94 33.91 39.89 33.85 40.01 33.73 40.1 33.6 40.18 33.45 40.24 33.3 40.24 33.24 40.23 33.17 40.19 33.13 40.1 33.06 40 33.04 39.93 33.05 39.87 33.07 39.81 33.12 39.72 33.26 39.65 33.41 39.62 33.58 39.63 33.74 39.67 33.93 39.73 34.11 39.82 34.28 39.95 34.47 39.88 34.52 39.86 34.48 39.75 34.32 39.65 34.14 39.58 33.95 39.54 33.75 39.53 33.57 39.57 33.39 39.64 33.22 39.75 33.06 39.83 33 39.91 32.96 40 32.95 40.01 32.95 40.14 32.99 40.26 33.07 40.31 33.14 40.33 33.23 40.32 33.32 40.27 33.48 40.18 33.64 40.15 33.68 40.25 33.66 40.26 33.66 40.38 33.68 40.44 33.72 40.49 33.78 40.5 33.85 40.5 33.85 40.49 33.97 40.45 34.1 40.38 34.22 40.17 34.45 40.61 34.45 40.61 34.53" fill="#acbaab"/>
    </g>
  </g>
  <g id="Scrub-9" data-name="Scrub" isolation="isolate">
    <g id="bushFillSymbol-9" data-name="bushFillSymbol">
      <polygon points="36.12 45.08 34.94 45.08 35.53 44.41 35.66 44.21 35.74 43.98 35.77 43.75 35.74 43.65 35.68 43.57 35.59 43.53 35.4 43.51 35.21 43.54 35.02 43.63 34.75 43.85 34.69 43.78 34.93 43.54 35.13 43.27 35.29 42.97 35.41 42.66 35.42 42.52 35.39 42.39 35.31 42.28 35.11 42.14 34.88 42.09 34.73 42.1 34.6 42.16 34.48 42.26 34.28 42.54 34.15 42.86 34.09 43.2 34.1 43.54 34.18 43.92 34.31 44.29 34.49 44.64 34.72 44.95 34.76 45.02 34.68 45.07 34.64 45 34.41 44.68 34.23 44.32 34.09 43.94 34.01 43.55 34 43.19 34.07 42.84 34.21 42.5 34.42 42.21 34.56 42.09 34.72 42.02 34.89 42 35.15 42.06 35.37 42.22 35.47 42.36 35.51 42.51 35.51 42.52 35.49 42.69 35.37 43.01 35.21 43.32 35.06 43.52 35.18 43.46 35.4 43.42 35.4 43.42 35.63 43.45 35.74 43.51 35.83 43.62 35.85 43.75 35.85 43.75 35.82 44 35.74 44.24 35.6 44.46 35.14 44.99 36.12 44.99 36.12 45.08" fill="#acbaab"/>
    </g>
    <g id="smallBushFillSymbol-9" data-name="smallBushFillSymbol">
      <polygon points="37.61 46.53 36.98 46.53 37.31 46.16 37.37 46.06 37.41 45.95 37.41 45.85 37.41 45.81 37.38 45.78 37.35 45.76 37.26 45.75 37.17 45.76 37.08 45.8 36.94 45.91 36.89 45.85 37.01 45.73 37.1 45.6 37.18 45.45 37.24 45.3 37.24 45.24 37.23 45.17 37.19 45.13 37.1 45.06 37 45.04 36.93 45.05 36.87 45.07 36.81 45.12 36.72 45.26 36.65 45.41 36.62 45.58 36.63 45.74 36.67 45.93 36.73 46.11 36.82 46.28 36.95 46.47 36.88 46.52 36.86 46.48 36.75 46.32 36.65 46.14 36.58 45.95 36.54 45.75 36.53 45.57 36.57 45.39 36.64 45.22 36.75 45.06 36.83 45 36.91 44.96 37 44.95 37.01 44.95 37.14 44.99 37.26 45.07 37.31 45.14 37.33 45.23 37.32 45.32 37.27 45.48 37.18 45.64 37.15 45.68 37.25 45.66 37.26 45.66 37.38 45.68 37.44 45.72 37.49 45.78 37.5 45.85 37.5 45.85 37.49 45.97 37.45 46.1 37.38 46.22 37.17 46.45 37.61 46.45 37.61 46.53" fill="#acbaab"/>
    </g>
  </g>
  <g id="Scrub-10" data-name="Scrub" isolation="isolate">
    <g id="bushFillSymbol-10" data-name="bushFillSymbol">
      <polygon points="2.12 45.06 .94 45.06 1.53 44.39 1.66 44.18 1.74 43.96 1.76 43.73 1.74 43.63 1.68 43.55 1.59 43.51 1.4 43.48 1.2 43.52 1.02 43.61 .75 43.82 .69 43.76 .93 43.52 1.13 43.25 1.29 42.95 1.41 42.64 1.42 42.5 1.39 42.37 1.31 42.25 1.11 42.12 .88 42.07 .73 42.08 .6 42.14 .48 42.24 .28 42.52 .15 42.84 .09 43.17 .1 43.52 .17 43.9 .31 44.27 .49 44.62 .71 44.93 .76 45 .68 45.05 .64 44.98 .41 44.66 .23 44.3 .09 43.92 .01 43.53 0 43.17 .07 42.81 .21 42.48 .42 42.18 .56 42.06 .72 42 .89 41.98 .89 41.98 1.15 42.04 1.37 42.2 1.47 42.34 1.51 42.49 1.49 42.67 1.37 42.99 1.21 43.3 1.06 43.49 1.18 43.43 1.4 43.4 1.4 43.4 1.62 43.43 1.74 43.49 1.83 43.6 1.85 43.72 1.85 43.73 1.82 43.98 1.74 44.22 1.6 44.44 1.13 44.97 2.12 44.97 2.12 45.06" fill="#acbaab"/>
    </g>
    <g id="smallBushFillSymbol-10" data-name="smallBushFillSymbol">
      <polygon points="3.61 46.51 2.98 46.51 3.31 46.14 3.37 46.04 3.41 45.93 3.42 45.82 3.41 45.78 3.38 45.75 3.35 45.73 3.26 45.73 3.17 45.74 3.08 45.78 2.94 45.89 2.88 45.82 3.01 45.7 3.1 45.57 3.18 45.43 3.24 45.28 3.24 45.21 3.23 45.15 3.19 45.1 3.1 45.04 3 45.02 2.93 45.02 2.87 45.05 2.81 45.1 2.72 45.23 2.65 45.39 2.62 45.55 2.63 45.72 2.66 45.9 2.73 46.09 2.82 46.26 2.95 46.45 2.88 46.49 2.86 46.46 2.75 46.3 2.65 46.12 2.58 45.93 2.54 45.73 2.54 45.55 2.57 45.36 2.64 45.19 2.75 45.04 2.83 44.97 2.91 44.94 3 44.93 3.01 44.93 3.14 44.96 3.26 45.05 3.31 45.12 3.33 45.21 3.32 45.3 3.26 45.46 3.18 45.62 3.15 45.66 3.25 45.64 3.38 45.65 3.44 45.69 3.49 45.76 3.5 45.82 3.49 45.95 3.45 46.08 3.38 46.19 3.17 46.42 3.61 46.42 3.61 46.51" fill="#acbaab"/>
    </g>
  </g>
  <g id="Scrub-11" data-name="Scrub" isolation="isolate">
    <g id="bushFillSymbol-11" data-name="bushFillSymbol">
      <polygon points="34.12 21.08 32.94 21.08 33.53 20.41 33.66 20.21 33.74 19.98 33.77 19.75 33.74 19.65 33.68 19.57 33.59 19.53 33.4 19.51 33.21 19.54 33.02 19.63 32.75 19.85 32.69 19.78 32.93 19.54 33.13 19.27 33.29 18.97 33.41 18.66 33.42 18.52 33.39 18.39 33.31 18.28 33.11 18.14 32.88 18.09 32.73 18.11 32.6 18.16 32.48 18.26 32.28 18.54 32.15 18.86 32.09 19.2 32.1 19.54 32.18 19.92 32.31 20.29 32.49 20.64 32.72 20.95 32.76 21.02 32.68 21.07 32.64 21 32.41 20.68 32.23 20.32 32.09 19.94 32.01 19.55 32 19.19 32.07 18.83 32.21 18.5 32.42 18.21 32.56 18.08 32.72 18.02 32.89 18 32.89 18 33.15 18.06 33.37 18.22 33.47 18.36 33.51 18.52 33.51 18.52 33.49 18.69 33.37 19.01 33.21 19.32 33.06 19.52 33.18 19.46 33.4 19.42 33.4 19.42 33.63 19.45 33.74 19.51 33.83 19.62 33.85 19.74 33.85 19.75 33.82 20 33.74 20.24 33.6 20.46 33.14 20.99 34.12 20.99 34.12 21.08" fill="#acbaab"/>
    </g>
    <g id="smallBushFillSymbol-11" data-name="smallBushFillSymbol">
      <polygon points="35.61 22.53 34.98 22.53 35.31 22.16 35.37 22.06 35.41 21.96 35.41 21.85 35.41 21.81 35.38 21.78 35.35 21.76 35.26 21.75 35.17 21.76 35.08 21.81 34.94 21.91 34.89 21.85 35.01 21.73 35.1 21.6 35.18 21.45 35.24 21.3 35.24 21.24 35.23 21.18 35.19 21.13 35.1 21.06 35 21.04 34.93 21.05 34.87 21.07 34.81 21.12 34.72 21.26 34.65 21.41 34.62 21.57 34.63 21.74 34.67 21.93 34.73 22.11 34.82 22.28 34.95 22.47 34.88 22.52 34.86 22.48 34.75 22.32 34.65 22.14 34.58 21.95 34.54 21.75 34.53 21.57 34.57 21.38 34.64 21.21 34.75 21.06 34.83 20.99 34.91 20.96 35 20.95 35.14 20.99 35.26 21.07 35.31 21.15 35.33 21.23 35.32 21.32 35.27 21.48 35.18 21.64 35.15 21.68 35.25 21.66 35.26 21.66 35.38 21.68 35.44 21.72 35.49 21.78 35.5 21.84 35.5 21.85 35.49 21.97 35.45 22.1 35.38 22.22 35.17 22.45 35.61 22.45 35.61 22.53" fill="#acbaab"/>
    </g>
  </g>
</svg>