<?xml version="1.0" encoding="UTF-8"?>
<svg id="Layer_2" xmlns="http://www.w3.org/2000/svg" viewBox="0 0 41.02 46.46">
  <g id="NonConTrees">
    <g id="roughGrassAndNonconiferousTreesFillSymbol">
      <g id="nonconiferousTreesFillSymbol">
        <g id="nonconiferousTreeFillSymbol">
          <g id="nonconiferousTreeGeometry">
            <path d="M21.41,3.09h-.08l-.18-.72c-.12.13-.29.2-.47.2-.13,0-.26-.04-.37-.12-.14-.1-.23-.25-.26-.42-.03-.17,0-.34.11-.48.04-.06.09-.11.15-.15-.08-.12-.11-.26-.09-.4.02-.16.1-.3.22-.4.1-.08.22-.12.35-.13.07-.26.31-.45.58-.45.04,0,.08,0,.12.01.23.04.41.22.47.44.32,0,.57.26.58.57,0,.12-.03.24-.1.35.27.19.35.57.18.86-.12.19-.33.31-.55.31-.12,0-.23-.03-.33-.09-.05-.03-.1-.07-.14-.11l-.18.71ZM21.19,2.18l.18.72.18-.72.06.08c.04.06.1.12.17.15.09.05.19.08.29.08.19,0,.38-.1.48-.27.16-.26.07-.61-.19-.76l-.04-.03.03-.04c.07-.09.11-.21.11-.33,0-.27-.24-.49-.51-.49h-.05s0-.04,0-.04c-.04-.21-.2-.37-.41-.41-.03,0-.07,0-.1,0-.25,0-.46.18-.5.42v.04s-.06,0-.06,0c-.11,0-.22.04-.31.11-.11.08-.17.2-.19.34s.02.27.1.37l.03.04-.04.03c-.07.04-.12.09-.17.16-.09.12-.12.27-.09.41s.11.27.23.36c.09.07.21.1.32.1.18,0,.35-.09.45-.24l.06-.08Z" fill="#b4cab4"/>
          </g>
        </g>
        <g id="smallNonconiferousTreeFillSymbol">
          <path d="M23.33,4.49l-.08-.32c-.11.1-.3.11-.42.02-.08-.05-.12-.13-.14-.22-.02-.09,0-.18.06-.26.02-.03.04-.05.07-.07-.08-.13-.05-.31.08-.41.05-.04.11-.06.17-.07.05-.15.2-.25.37-.22.12.03.22.11.25.22.16.02.28.15.29.31,0,.06-.01.12-.04.17.13.11.17.3.08.45-.06.1-.17.17-.29.17-.06,0-.12-.02-.18-.05-.02-.01-.03-.02-.05-.03l-.08.32h-.08ZM23.29,3.98l.08.32.08-.32.06.08s.05.05.08.07c.04.02.08.04.13.04.09,0,.17-.05.22-.12.07-.12.03-.28-.09-.35l-.04-.03.03-.04s.05-.1.05-.15c0-.12-.11-.22-.23-.22h-.03v-.03c-.03-.09-.11-.17-.2-.19-.01,0-.03,0-.04,0-.12,0-.22.08-.24.19v.04s-.05,0-.05,0h0c-.06,0-.11.02-.15.05-.1.08-.12.22-.04.32l.03.04-.04.03s-.06.04-.08.07c-.04.05-.05.12-.04.19.01.07.05.13.1.17.11.08.28.05.36-.06l.05-.08Z" fill="#b4cab4"/>
        </g>
      </g>
    </g>
  </g>
  <g id="NonConTrees-2" data-name="NonConTrees" isolation="isolate">
    <g id="roughGrassAndNonconiferousTreesFillSymbol-2" data-name="roughGrassAndNonconiferousTreesFillSymbol">
      <g id="nonconiferousTreesFillSymbol-2" data-name="nonconiferousTreesFillSymbol">
        <g id="nonconiferousTreeFillSymbol-2" data-name="nonconiferousTreeFillSymbol">
          <g id="nonconiferousTreeGeometry-2" data-name="nonconiferousTreeGeometry">
            <path d="M38.37,3.06h-.08l-.18-.72c-.12.13-.29.2-.47.2-.13,0-.26-.04-.37-.12-.29-.2-.36-.61-.15-.9.04-.06.09-.11.15-.15-.17-.25-.12-.6.13-.79.1-.08.22-.12.35-.13.08-.3.38-.51.7-.44.23.04.41.22.47.44.31,0,.56.26.58.57,0,.12-.03.24-.1.35.27.19.35.57.18.86-.12.19-.33.31-.55.31-.12,0-.23-.03-.33-.09-.05-.03-.1-.07-.14-.11l-.18.71ZM38.15,2.14l.18.72.18-.72.06.08c.05.07.1.12.17.15.09.05.19.08.29.08.19,0,.38-.1.48-.27.16-.26.07-.61-.19-.76l-.04-.03.03-.04c.07-.09.11-.21.11-.33,0-.28-.23-.49-.51-.49h-.06s0-.04,0-.04c-.04-.21-.2-.37-.41-.41-.28-.05-.55.13-.6.41v.04s-.06,0-.06,0c-.11,0-.23.04-.31.11-.22.17-.26.49-.09.71l.03.04-.04.03c-.06.04-.12.1-.17.16-.18.25-.12.6.14.77.09.07.21.1.32.1.18,0,.35-.09.45-.24l.06-.08Z" fill="#b4cab4"/>
          </g>
        </g>
        <g id="smallNonconiferousTreeFillSymbol-2" data-name="smallNonconiferousTreeFillSymbol">
          <path d="M40.29,4.45l-.08-.32c-.12.1-.3.11-.42.02-.15-.11-.19-.32-.08-.48.02-.03.04-.05.06-.07-.08-.14-.05-.31.08-.41.05-.04.11-.06.17-.07.05-.15.19-.25.37-.22.12.03.22.11.25.22.16.02.29.15.29.31,0,.06-.01.12-.04.17.13.11.17.3.08.45-.06.1-.17.17-.29.17-.06,0-.12-.02-.18-.05-.02-.01-.03-.02-.05-.03l-.08.32h-.08ZM40.25,3.94l.08.32.08-.32.06.08s.05.05.08.07c.04.02.09.04.13.04.09,0,.17-.05.22-.12.07-.12.03-.28-.09-.35l-.04-.03.03-.04s.05-.1.05-.15c0-.12-.11-.23-.23-.23h-.03v-.04c-.03-.09-.11-.17-.2-.19-.01,0-.03,0-.04,0-.12,0-.22.08-.24.19v.04s-.04,0-.04,0h0c-.06,0-.11.02-.15.05-.1.08-.12.22-.04.32l.03.04-.05.02s-.06.04-.08.07c-.08.11-.05.27.06.36.11.08.28.05.35-.06l.06-.08Z" fill="#b4cab4"/>
        </g>
      </g>
    </g>
  </g>
  <g id="NonConTrees-3" data-name="NonConTrees" isolation="isolate">
    <g id="roughGrassAndNonconiferousTreesFillSymbol-3" data-name="roughGrassAndNonconiferousTreesFillSymbol">
      <g id="nonconiferousTreesFillSymbol-3" data-name="nonconiferousTreesFillSymbol">
        <g id="nonconiferousTreeFillSymbol-3" data-name="nonconiferousTreeFillSymbol">
          <g id="nonconiferousTreeGeometry-3" data-name="nonconiferousTreeGeometry">
            <path d="M32.37,11.06h-.08l-.18-.72c-.12.13-.29.2-.47.2-.13,0-.26-.04-.37-.12-.29-.2-.36-.61-.15-.9.04-.06.09-.11.15-.15-.17-.26-.12-.6.13-.79.1-.08.22-.12.35-.13.08-.3.38-.51.7-.44.23.04.41.22.47.44.31,0,.56.26.58.57,0,.12-.03.24-.1.35.27.19.35.57.18.86-.12.19-.33.31-.55.31-.12,0-.23-.03-.33-.09-.05-.03-.1-.07-.14-.11l-.18.71ZM32.15,10.14l.18.72.18-.72.06.08c.05.06.1.12.17.15.09.05.19.08.29.08.19,0,.38-.1.48-.27.16-.26.07-.61-.19-.76l-.04-.02.03-.04c.07-.09.11-.21.11-.33,0-.27-.23-.49-.51-.49h-.06s0-.03,0-.03c-.04-.21-.2-.37-.41-.41-.28-.06-.55.13-.6.41v.04s-.06,0-.06,0c-.11,0-.23.04-.31.11-.22.17-.26.49-.09.71l.03.04-.04.03c-.07.04-.12.1-.17.16-.18.25-.11.6.14.77.09.07.21.1.32.1.18,0,.35-.09.45-.24l.06-.08Z" fill="#b4cab4"/>
          </g>
        </g>
        <g id="smallNonconiferousTreeFillSymbol-3" data-name="smallNonconiferousTreeFillSymbol">
          <path d="M34.29,12.45l-.08-.32c-.12.1-.3.11-.42.02-.15-.11-.19-.32-.08-.48.02-.03.04-.05.06-.07-.08-.14-.05-.31.08-.41.05-.04.11-.06.17-.07.05-.15.2-.25.37-.23.12.02.22.11.25.23.16.02.29.15.29.31,0,.06-.01.12-.04.17.13.1.17.3.08.44-.06.1-.17.17-.29.17-.06,0-.12-.02-.18-.05-.02-.01-.03-.02-.05-.03l-.08.32h-.08ZM34.25,11.94l.08.32.08-.32.06.08s.05.05.08.07c.04.02.09.04.13.04.09,0,.17-.05.22-.12.07-.12.03-.28-.09-.35l-.04-.02.03-.04s.05-.1.05-.15c0-.12-.11-.22-.23-.22h-.03v-.03c-.03-.1-.11-.17-.2-.19-.01,0-.03,0-.04,0-.12,0-.22.08-.23.19v.04s-.04,0-.04,0h0c-.06,0-.11.02-.15.05-.1.08-.12.23-.04.32l.03.04-.05.02s-.06.04-.08.07c-.08.11-.05.27.06.36.11.08.27.05.35-.06l.06-.08Z" fill="#b4cab4"/>
        </g>
      </g>
    </g>
  </g>
  <g id="NonConTrees-4" data-name="NonConTrees" isolation="isolate">
    <g id="roughGrassAndNonconiferousTreesFillSymbol-4" data-name="roughGrassAndNonconiferousTreesFillSymbol">
      <g id="nonconiferousTreesFillSymbol-4" data-name="nonconiferousTreesFillSymbol">
        <g id="nonconiferousTreeFillSymbol-4" data-name="nonconiferousTreeFillSymbol">
          <g id="nonconiferousTreeGeometry-4" data-name="nonconiferousTreeGeometry">
            <path d="M6.37,13.08h-.08l-.18-.72c-.12.13-.29.2-.47.2-.13,0-.26-.04-.37-.12-.14-.1-.23-.25-.26-.42s0-.34.11-.48c.04-.06.09-.11.15-.15-.08-.12-.11-.26-.09-.4.02-.16.1-.3.22-.4.1-.08.22-.12.35-.13.07-.27.31-.45.58-.45.04,0,.08,0,.12.01.23.04.41.22.47.44.31,0,.57.26.58.57,0,.12-.03.24-.1.35.27.19.35.57.18.86-.12.19-.33.31-.55.31-.12,0-.23-.03-.33-.09-.05-.03-.1-.07-.14-.11l-.18.72ZM6.15,12.17l.18.72.18-.72.06.08c.04.06.1.12.17.15.09.05.19.08.29.08.19,0,.38-.1.48-.27.16-.26.07-.61-.19-.76l-.04-.02.03-.04c.07-.09.11-.21.11-.33,0-.27-.24-.49-.51-.49h-.05s0-.03,0-.03c-.04-.21-.2-.37-.41-.41-.03,0-.07,0-.1,0-.25,0-.46.18-.51.42v.04s-.06,0-.06,0c-.11,0-.22.04-.31.11-.11.08-.17.2-.19.34-.02.13.02.27.1.37l.03.04-.04.02c-.07.04-.12.09-.17.16-.09.12-.12.27-.09.41s.11.27.23.36c.09.07.21.1.32.1.18,0,.35-.09.45-.24l.06-.08Z" fill="#b4cab4"/>
          </g>
        </g>
        <g id="smallNonconiferousTreeFillSymbol-4" data-name="smallNonconiferousTreeFillSymbol">
          <path d="M8.29,14.48l-.08-.32c-.12.1-.3.11-.42.02-.07-.05-.12-.13-.14-.22-.02-.09,0-.18.06-.26.02-.03.04-.05.07-.07-.08-.13-.05-.31.08-.41.05-.04.11-.06.17-.07.05-.15.2-.25.37-.23.12.02.22.11.25.23.16.02.29.15.29.31,0,.06-.01.12-.04.17.13.1.17.3.08.44-.06.1-.17.17-.29.17-.06,0-.12-.02-.18-.05-.02-.01-.03-.02-.05-.03l-.08.32h-.08ZM8.25,13.97l.08.32.08-.32.06.08s.05.05.08.07c.04.02.09.04.13.04.09,0,.17-.05.22-.12.07-.12.03-.28-.09-.35l-.04-.02.03-.04s.05-.1.05-.15c0-.12-.11-.22-.23-.22h-.04v-.04c-.03-.1-.11-.17-.2-.19-.01,0-.03,0-.04,0-.12,0-.22.08-.23.19v.04s-.05,0-.05,0h0c-.06,0-.11.02-.15.05-.1.08-.12.23-.04.32l.03.04-.04.02s-.06.04-.08.07c-.04.06-.05.12-.04.19.01.07.05.13.1.17.11.08.28.05.36-.06l.06-.08Z" fill="#b4cab4"/>
        </g>
      </g>
    </g>
  </g>
  <g id="NonConTrees-5" data-name="NonConTrees" isolation="isolate">
    <g id="roughGrassAndNonconiferousTreesFillSymbol-5" data-name="roughGrassAndNonconiferousTreesFillSymbol">
      <g id="nonconiferousTreesFillSymbol-5" data-name="nonconiferousTreesFillSymbol">
        <g id="nonconiferousTreeFillSymbol-5" data-name="nonconiferousTreeFillSymbol">
          <g id="nonconiferousTreeGeometry-5" data-name="nonconiferousTreeGeometry">
            <path d="M1.37,22.96h-.08l-.18-.72c-.12.13-.29.2-.47.2-.13,0-.26-.04-.37-.12-.14-.1-.23-.25-.26-.42-.03-.17,0-.34.11-.48.04-.06.09-.11.15-.15-.08-.12-.11-.26-.1-.4.02-.16.1-.3.22-.4.1-.08.22-.12.35-.13.07-.26.31-.45.58-.45.04,0,.08,0,.12.01.23.04.41.22.47.44.31,0,.57.26.58.57,0,.12-.03.25-.1.35.27.19.35.57.18.86-.12.19-.33.31-.55.31-.12,0-.23-.03-.33-.09-.05-.03-.1-.07-.14-.11l-.18.72ZM1.15,22.04l.18.72.18-.72.06.08c.04.06.1.12.17.15.09.05.19.08.29.08.19,0,.38-.1.48-.27.16-.26.07-.6-.19-.76l-.04-.02.03-.04c.07-.09.11-.21.11-.33,0-.27-.24-.49-.51-.49h-.05s0-.03,0-.03c-.04-.21-.2-.37-.41-.41-.03,0-.07,0-.1,0-.25,0-.46.18-.5.42v.04h-.06c-.11,0-.22.04-.31.11-.11.08-.17.2-.19.34s.02.27.1.37l.03.04-.04.03c-.07.04-.12.09-.17.16-.09.12-.12.27-.09.42s.11.27.23.36c.1.07.21.1.32.1.18,0,.35-.09.45-.24l.06-.08Z" fill="#b4cab4"/>
          </g>
        </g>
        <g id="smallNonconiferousTreeFillSymbol-5" data-name="smallNonconiferousTreeFillSymbol">
          <path d="M3.29,24.36l-.08-.32c-.11.1-.3.11-.42.02-.07-.05-.12-.13-.14-.22-.02-.09,0-.18.06-.26.02-.03.04-.05.07-.07-.08-.13-.05-.31.08-.41.05-.04.11-.06.17-.07.05-.15.2-.25.37-.23.12.02.22.11.25.23.16.02.29.15.29.31,0,.06-.01.12-.04.17.13.1.17.3.08.44-.06.1-.17.17-.29.17-.06,0-.12-.02-.18-.05-.02-.01-.03-.02-.05-.03l-.08.32h-.08ZM3.25,23.84l.08.32.08-.33.05.08s.05.05.08.07c.04.02.09.04.13.04.09,0,.17-.05.22-.12.07-.12.03-.28-.09-.35l-.04-.02.03-.04s.05-.1.05-.15c0-.12-.11-.22-.23-.22h-.04v-.04c-.03-.09-.11-.17-.2-.19-.01,0-.03,0-.04,0-.12,0-.22.08-.24.19v.04s-.04,0-.04,0h0c-.06,0-.11.02-.15.05-.1.08-.12.23-.04.33l.03.04-.04.02s-.05.04-.08.07c-.04.06-.05.12-.04.19.01.07.05.13.11.17.11.08.28.05.36-.06l.05-.08Z" fill="#b4cab4"/>
        </g>
      </g>
    </g>
  </g>
  <g id="NonConTrees-6" data-name="NonConTrees" isolation="isolate">
    <g id="roughGrassAndNonconiferousTreesFillSymbol-6" data-name="roughGrassAndNonconiferousTreesFillSymbol">
      <g id="nonconiferousTreesFillSymbol-6" data-name="nonconiferousTreesFillSymbol">
        <g id="nonconiferousTreeFillSymbol-6" data-name="nonconiferousTreeFillSymbol">
          <g id="nonconiferousTreeGeometry-6" data-name="nonconiferousTreeGeometry">
            <path d="M6.37,36.09h-.08l-.18-.72c-.12.13-.29.2-.47.2-.13,0-.26-.04-.37-.12-.29-.2-.36-.6-.16-.9.04-.06.09-.11.15-.15-.08-.12-.11-.26-.09-.4.02-.16.1-.3.22-.4.1-.08.22-.12.35-.13.07-.27.31-.45.58-.45.04,0,.08,0,.12.01.23.05.41.22.47.44.31,0,.57.26.58.57,0,.12-.03.25-.1.35.27.19.35.57.18.86-.11.19-.33.31-.55.31-.12,0-.23-.03-.33-.1-.05-.03-.1-.07-.14-.11l-.18.72ZM6.15,35.17l.18.72.18-.72.06.08c.04.06.1.12.17.15.09.05.19.08.29.08.19,0,.38-.1.48-.27.16-.26.07-.6-.19-.77l-.04-.02.03-.04c.07-.09.11-.21.11-.33,0-.27-.24-.49-.51-.49h-.05s0-.03,0-.03c-.04-.21-.2-.37-.41-.41-.03,0-.07,0-.1,0-.25,0-.46.18-.51.42v.04s-.06,0-.06,0c-.11,0-.22.04-.31.11-.11.08-.17.2-.19.34-.02.13.02.27.1.37l.03.04-.04.02c-.07.04-.12.1-.17.15-.18.25-.12.6.13.78.1.07.21.1.32.1.18,0,.35-.09.45-.24l.05-.08Z" fill="#b4cab4"/>
          </g>
        </g>
        <g id="smallNonconiferousTreeFillSymbol-6" data-name="smallNonconiferousTreeFillSymbol">
          <path d="M8.29,37.49l-.08-.32c-.12.1-.3.11-.42.02-.07-.05-.12-.13-.14-.22-.02-.09,0-.18.06-.26.02-.03.04-.05.07-.07-.08-.13-.05-.31.08-.41.05-.04.11-.06.17-.06.05-.15.2-.25.37-.23.12.03.22.11.25.23.16.02.29.15.29.31,0,.06-.01.12-.04.17.13.1.17.3.08.44-.06.1-.17.17-.29.17-.06,0-.12-.02-.18-.05-.02-.01-.03-.02-.05-.03l-.08.32h-.08ZM8.25,36.97l.08.32.08-.32.06.08s.05.05.08.07c.04.02.09.04.13.04.09,0,.17-.05.22-.12.07-.12.03-.28-.09-.35l-.04-.02.03-.04s.05-.1.05-.15c0-.12-.11-.22-.23-.22h-.04v-.03c-.03-.09-.11-.17-.2-.19-.01,0-.03,0-.04,0-.11,0-.22.08-.23.19v.04s-.04,0-.04,0h0c-.06,0-.11.02-.15.05-.1.08-.12.23-.04.33l.03.04-.04.03s-.06.04-.08.07c-.04.06-.05.12-.04.19.01.07.05.13.1.17.11.08.28.05.36-.06l.06-.07Z" fill="#b4cab4"/>
        </g>
      </g>
    </g>
  </g>
  <g id="NonConTrees-7" data-name="NonConTrees" isolation="isolate">
    <g id="roughGrassAndNonconiferousTreesFillSymbol-7" data-name="roughGrassAndNonconiferousTreesFillSymbol">
      <g id="nonconiferousTreesFillSymbol-7" data-name="nonconiferousTreesFillSymbol">
        <g id="nonconiferousTreeFillSymbol-7" data-name="nonconiferousTreeFillSymbol">
          <g id="nonconiferousTreeGeometry-7" data-name="nonconiferousTreeGeometry">
            <path d="M23.37,34.06h-.08l-.18-.72c-.12.13-.29.2-.47.2-.13,0-.26-.04-.37-.12-.29-.21-.36-.6-.16-.9.04-.06.09-.11.15-.15-.08-.12-.11-.26-.09-.4.02-.16.1-.3.22-.4.1-.08.22-.12.35-.13.07-.26.31-.45.58-.45.04,0,.08,0,.12.01.23.04.41.22.47.44.31,0,.57.26.58.58,0,.12-.03.24-.1.35.27.19.35.57.18.86-.12.19-.33.31-.55.31-.12,0-.23-.03-.33-.09-.05-.03-.1-.07-.14-.11l-.18.71ZM23.15,33.14l.18.72.18-.72.06.08c.05.06.1.12.17.15.09.06.19.08.29.08.19,0,.38-.1.48-.27.16-.26.07-.6-.19-.76l-.04-.03.03-.04c.07-.09.11-.21.11-.33-.01-.27-.23-.49-.51-.49h-.06s0-.03,0-.03c-.04-.21-.2-.37-.41-.41-.03,0-.07-.01-.1-.01-.25,0-.46.18-.5.42v.04s-.06,0-.06,0c-.11,0-.22.04-.31.11-.11.08-.17.2-.19.34-.02.13.02.27.1.37l.03.04-.04.03c-.07.04-.12.09-.17.16-.18.25-.12.6.13.78.1.07.21.1.32.1.18,0,.35-.09.45-.24l.06-.08Z" fill="#b4cab4"/>
          </g>
        </g>
        <g id="smallNonconiferousTreeFillSymbol-7" data-name="smallNonconiferousTreeFillSymbol">
          <path d="M25.29,35.46l-.08-.32c-.12.1-.3.11-.42.02-.15-.11-.19-.32-.08-.48.02-.03.04-.05.07-.07-.08-.13-.05-.31.08-.41.05-.04.11-.06.17-.07.05-.15.19-.25.37-.22.12.02.22.11.25.22.16.02.29.15.29.31,0,.06-.01.12-.04.17.13.1.17.3.08.44-.06.1-.17.17-.3.17-.06,0-.12-.02-.18-.05-.02,0-.03-.02-.05-.03l-.08.32h-.08ZM25.25,34.94l.08.32.08-.32.06.08s.05.06.08.07c.04.02.09.04.13.04.09,0,.17-.05.22-.12.07-.12.03-.28-.09-.35l-.04-.02.03-.04s.05-.1.05-.15c0-.12-.11-.22-.23-.22h-.03v-.03c-.03-.1-.11-.17-.2-.19-.01,0-.03,0-.04,0-.11,0-.22.08-.23.19v.04s-.05,0-.05,0h0c-.06,0-.11.02-.15.05-.1.08-.12.23-.04.33l.03.04-.05.03s-.06.04-.08.07c-.08.11-.05.27.06.35.11.08.27.05.35-.06l.06-.07Z" fill="#b4cab4"/>
        </g>
      </g>
    </g>
  </g>
  <g id="NonConTrees-8" data-name="NonConTrees" isolation="isolate">
    <g id="roughGrassAndNonconiferousTreesFillSymbol-8" data-name="roughGrassAndNonconiferousTreesFillSymbol">
      <g id="nonconiferousTreesFillSymbol-8" data-name="nonconiferousTreesFillSymbol">
        <g id="nonconiferousTreeFillSymbol-8" data-name="nonconiferousTreeFillSymbol">
          <g id="nonconiferousTreeGeometry-8" data-name="nonconiferousTreeGeometry">
            <path d="M38.37,33.06h-.08l-.18-.72c-.12.13-.29.2-.47.2-.13,0-.26-.04-.37-.12-.29-.21-.36-.6-.15-.9.04-.06.09-.11.15-.15-.08-.12-.11-.26-.09-.4.02-.16.1-.3.22-.4.1-.08.22-.12.35-.13.08-.3.38-.5.7-.44.23.05.41.22.47.44.31,0,.56.26.58.58,0,.12-.03.24-.1.35.27.19.35.57.18.86-.12.19-.33.31-.55.31-.12,0-.23-.03-.33-.09-.05-.03-.1-.07-.14-.11l-.18.71ZM38.15,32.14l.18.73.18-.72.06.08c.05.06.1.12.17.15.09.06.19.08.29.08.19,0,.38-.1.48-.27.16-.26.07-.6-.19-.76l-.04-.03.03-.04c.07-.1.11-.21.11-.33,0-.27-.23-.49-.51-.49h-.06s0-.03,0-.03c-.04-.21-.2-.37-.41-.41-.28-.06-.55.13-.6.41v.04s-.06,0-.06,0c-.11,0-.23.04-.31.11-.1.08-.17.2-.19.34-.02.13.02.27.1.37l.03.04-.04.03c-.07.04-.12.1-.17.16-.18.25-.12.6.13.78.1.07.21.1.32.1.18,0,.35-.09.45-.23l.05-.08Z" fill="#b4cab4"/>
          </g>
        </g>
        <g id="smallNonconiferousTreeFillSymbol-8" data-name="smallNonconiferousTreeFillSymbol">
          <path d="M40.29,34.46l-.08-.32c-.12.1-.3.11-.42.02-.15-.11-.19-.32-.08-.48.02-.03.04-.05.06-.07-.08-.13-.05-.31.08-.41.05-.04.11-.06.17-.07.05-.15.19-.25.37-.22.12.02.22.11.25.22.16.02.29.15.29.31,0,.06-.01.12-.04.17.13.1.17.3.08.44-.06.1-.17.17-.29.17-.06,0-.12-.02-.18-.05-.02,0-.03-.02-.05-.03l-.08.32h-.08ZM40.25,33.94l.08.32.08-.32.06.08s.05.06.08.07c.12.07.28.03.35-.09.07-.12.03-.28-.09-.35l-.04-.02.03-.04s.05-.1.05-.15c0-.12-.11-.22-.23-.22h-.03v-.03c-.03-.1-.11-.17-.2-.19-.01,0-.03,0-.04,0-.12,0-.22.08-.23.19v.04s-.04,0-.04,0h0c-.06,0-.11.02-.15.05-.1.08-.12.23-.04.33l.03.04-.05.03s-.06.04-.08.07c-.08.11-.05.27.06.35.11.08.28.05.35-.06l.06-.07Z" fill="#b4cab4"/>
        </g>
      </g>
    </g>
  </g>
  <g id="NonConTrees-9" data-name="NonConTrees" isolation="isolate">
    <g id="roughGrassAndNonconiferousTreesFillSymbol-9" data-name="roughGrassAndNonconiferousTreesFillSymbol">
      <g id="nonconiferousTreesFillSymbol-9" data-name="nonconiferousTreesFillSymbol">
        <g id="nonconiferousTreeFillSymbol-9" data-name="nonconiferousTreeFillSymbol">
          <g id="nonconiferousTreeGeometry-9" data-name="nonconiferousTreeGeometry">
            <path d="M35.37,45.06h-.08l-.18-.72c-.12.13-.29.2-.47.2-.13,0-.26-.04-.37-.12-.29-.21-.36-.6-.15-.9.04-.06.09-.11.15-.15-.08-.12-.11-.26-.09-.4.02-.16.1-.3.22-.4.1-.08.22-.12.35-.13.08-.3.38-.5.7-.44.23.04.41.22.47.44.31,0,.56.26.58.58,0,.12-.03.24-.1.35.27.19.35.57.18.86-.12.19-.33.31-.55.31-.12,0-.23-.03-.33-.09-.05-.03-.1-.07-.14-.11l-.18.71ZM35.15,44.14l.18.73.18-.72.06.08c.05.06.1.12.17.15.09.06.19.08.29.08.19,0,.38-.1.48-.27.16-.26.07-.6-.19-.76l-.04-.03.03-.04c.07-.1.11-.21.11-.33,0-.27-.23-.49-.51-.49h-.06s0-.03,0-.03c-.04-.21-.2-.37-.41-.41-.28-.06-.55.13-.6.41v.04s-.06,0-.06,0c-.11,0-.23.04-.31.11-.1.08-.17.2-.19.34-.02.13.02.27.1.37l.03.04-.04.03c-.07.04-.12.1-.17.16-.18.25-.12.6.13.78.1.07.21.1.32.1.18,0,.35-.09.45-.23l.05-.08Z" fill="#b4cab4"/>
          </g>
        </g>
        <g id="smallNonconiferousTreeFillSymbol-9" data-name="smallNonconiferousTreeFillSymbol">
          <path d="M37.29,46.46l-.08-.32c-.12.1-.3.11-.42.02-.15-.11-.19-.32-.08-.48.02-.03.04-.05.06-.07-.08-.13-.05-.31.08-.41.05-.04.11-.06.17-.07.04-.13.17-.23.31-.23.02,0,.03,0,.06,0,.12.02.22.11.25.22.16.02.28.15.29.31,0,.06-.01.12-.04.17.13.1.17.3.08.44-.06.1-.17.17-.29.17-.06,0-.12-.02-.18-.05-.02,0-.03-.02-.05-.03l-.08.32h-.08ZM37.25,45.94l.08.32.08-.32.06.08s.05.06.08.07c.04.02.09.04.13.04.09,0,.17-.05.22-.12.07-.12.03-.28-.09-.35l-.04-.02.03-.04s.05-.1.05-.15c0-.12-.11-.22-.23-.22h-.03v-.03c-.03-.1-.11-.17-.2-.19-.01,0-.03,0-.04,0-.12,0-.22.08-.23.19v.04s-.04,0-.04,0h0c-.06,0-.11.02-.15.05-.1.08-.12.23-.04.33l.03.04-.05.03s-.06.04-.08.07c-.08.11-.05.27.06.35.11.08.28.05.35-.06l.06-.07Z" fill="#b4cab4"/>
        </g>
      </g>
    </g>
  </g>
  <g id="NonConTrees-10" data-name="NonConTrees" isolation="isolate">
    <g id="roughGrassAndNonconiferousTreesFillSymbol-10" data-name="roughGrassAndNonconiferousTreesFillSymbol">
      <g id="nonconiferousTreesFillSymbol-10" data-name="nonconiferousTreesFillSymbol">
        <g id="nonconiferousTreeFillSymbol-10" data-name="nonconiferousTreeFillSymbol">
          <g id="nonconiferousTreeGeometry-10" data-name="nonconiferousTreeGeometry">
            <path d="M1.37,45.03h-.08l-.18-.72c-.12.13-.29.2-.47.2-.13,0-.26-.04-.37-.12-.29-.2-.36-.6-.15-.9.04-.06.09-.11.15-.15-.08-.12-.11-.26-.09-.4.02-.15.1-.3.22-.4.1-.08.22-.12.35-.13.07-.27.31-.45.58-.45.04,0,.08,0,.12.01.23.04.41.22.47.44.32,0,.57.26.58.57,0,.12-.03.24-.1.35.27.19.35.57.18.86-.11.19-.33.31-.55.31-.12,0-.23-.03-.33-.09-.05-.03-.1-.06-.14-.11l-.18.71ZM1.15,44.12l.18.72.18-.72.06.08c.04.06.1.12.17.15.09.05.19.08.29.08.19,0,.38-.1.48-.27.16-.26.07-.6-.19-.77l-.04-.02.03-.04c.07-.09.11-.21.11-.33,0-.27-.24-.49-.51-.49h-.05s0-.03,0-.03c-.04-.21-.2-.37-.41-.41-.03,0-.07,0-.1,0-.25,0-.46.18-.51.42v.04s-.06,0-.06,0c-.11,0-.22.04-.31.11-.11.08-.17.2-.19.34-.02.13.02.27.1.37l.03.04-.04.03c-.07.04-.12.1-.17.16-.18.25-.12.6.13.77.1.06.21.1.32.1.18,0,.35-.09.45-.24l.06-.08Z" fill="#b4cab4"/>
          </g>
        </g>
        <g id="smallNonconiferousTreeFillSymbol-10" data-name="smallNonconiferousTreeFillSymbol">
          <path d="M3.29,46.43l-.08-.32c-.11.1-.3.11-.42.02-.07-.05-.12-.13-.14-.22-.02-.09,0-.18.06-.26.02-.03.04-.05.07-.07-.08-.13-.05-.31.08-.41.05-.04.11-.06.17-.07.05-.15.2-.25.37-.22.12.03.22.11.25.22.16.02.29.15.29.31,0,.06-.01.12-.04.17.13.1.17.3.08.44-.06.1-.17.17-.29.17-.06,0-.12-.02-.18-.05-.02,0-.03-.02-.05-.03l-.08.32h-.08ZM3.25,45.92l.08.32.08-.33.05.08s.05.05.08.07c.04.02.09.04.13.04.09,0,.17-.05.22-.12.07-.12.03-.28-.09-.35l-.04-.02.03-.04s.05-.1.05-.15c0-.12-.11-.22-.23-.22h-.04v-.03c-.03-.09-.11-.17-.2-.19-.01,0-.03,0-.04,0-.11,0-.22.08-.24.19v.04s-.04,0-.04,0h0c-.06,0-.11.02-.15.05-.1.08-.12.23-.04.32l.03.04-.04.03s-.05.04-.08.07c-.04.06-.05.12-.04.19.01.07.05.13.11.17.11.08.28.05.36-.06l.05-.07Z" fill="#b4cab4"/>
        </g>
      </g>
    </g>
  </g>
  <g id="NonConTrees-11" data-name="NonConTrees" isolation="isolate">
    <g id="roughGrassAndNonconiferousTreesFillSymbol-11" data-name="roughGrassAndNonconiferousTreesFillSymbol">
      <g id="nonconiferousTreesFillSymbol-11" data-name="nonconiferousTreesFillSymbol">
        <g id="nonconiferousTreeFillSymbol-11" data-name="nonconiferousTreeFillSymbol">
          <g id="nonconiferousTreeGeometry-11" data-name="nonconiferousTreeGeometry">
            <path d="M33.37,21.06h-.08l-.18-.72c-.12.13-.29.2-.47.2-.13,0-.26-.04-.37-.12-.29-.2-.36-.61-.15-.9.04-.06.09-.11.15-.15-.17-.25-.12-.6.13-.79.1-.08.22-.12.35-.13.08-.3.38-.51.7-.44.23.04.41.22.47.44.31,0,.56.26.58.57,0,.12-.03.25-.1.35.27.19.35.57.18.86-.12.19-.33.31-.55.31-.12,0-.23-.03-.33-.09-.05-.03-.1-.07-.14-.11l-.18.71ZM33.15,20.14l.18.72.18-.72.06.08c.05.07.1.12.17.16.09.05.19.08.29.08.19,0,.38-.1.48-.27.16-.26.07-.6-.19-.76l-.04-.02.03-.04c.07-.09.11-.21.11-.33,0-.27-.23-.49-.51-.49h-.06s0-.03,0-.03c-.04-.21-.2-.37-.41-.41-.28-.06-.55.13-.6.41v.04s-.06,0-.06,0c-.11,0-.23.04-.31.11-.22.17-.26.49-.09.71l.03.04-.04.03c-.07.04-.12.09-.17.16-.18.25-.11.6.14.77.09.07.21.1.32.1.18,0,.35-.09.45-.24l.06-.08Z" fill="#b4cab4"/>
          </g>
        </g>
        <g id="smallNonconiferousTreeFillSymbol-11" data-name="smallNonconiferousTreeFillSymbol">
          <path d="M35.29,22.45l-.08-.32c-.12.1-.3.11-.42.02-.15-.11-.19-.32-.08-.48.02-.03.04-.05.06-.07-.08-.14-.05-.31.08-.41.05-.04.11-.06.17-.07.04-.14.17-.23.31-.23.02,0,.03,0,.06,0,.12.02.22.11.25.23.16.02.28.15.29.31,0,.06-.01.12-.04.17.13.1.17.3.08.44-.06.1-.17.17-.29.17-.06,0-.12-.02-.18-.05-.02-.01-.03-.02-.05-.03l-.08.32h-.08ZM35.25,21.94l.08.32.08-.32.06.08s.05.05.08.07c.12.07.28.03.35-.09.07-.12.03-.28-.09-.35l-.04-.02.03-.04s.05-.1.05-.15c0-.12-.11-.22-.23-.22h-.03v-.03c-.03-.09-.11-.17-.2-.19-.01,0-.03,0-.04,0-.12,0-.22.08-.23.19v.04s-.04,0-.04,0h0c-.06,0-.11.02-.15.05-.1.08-.12.23-.04.33l.03.04-.05.02s-.06.04-.08.07c-.08.11-.05.27.06.36.11.08.28.05.35-.06l.06-.08Z" fill="#b4cab4"/>
        </g>
      </g>
    </g>
  </g>
</svg>