<?xml version="1.0" encoding="UTF-8"?><svg id="Layer_1" xmlns="http://www.w3.org/2000/svg" width="48" height="48" viewBox="0 0 48 48"><path d="M11.6933,32.5879c.5918-9.1732,8.8773-18.9382,14.3516-22.3359,.3699,3.7676,1.5536,5.0305,3.3977,5.9869,1.041,.518,3.6302,.9617,4.3699,.2272l7.5458-7.5456c.6605-1.1098,1.0357-2.5153,0-4.0742-2.4466-3.5509-6.584-5.4689-14.2777-1.3315C17.0197,8.9205,2.742,27.045,6.6628,41.6925c.5179,2.0714,3.1757,4.4386,5.5483,4.9511,3.5509,.7452,7.0966-.9564,7.9843-2.0607l2.2986-7.403c.074-.8877-.6658-3.4769-2.7372-4.3646-3.033-1.2577-5.0357-1.1151-8.0635-.2274" fill="#727171" fill-rule="evenodd"/></svg>