<?xml version="1.0" encoding="UTF-8"?><svg id="Layer_2" xmlns="http://www.w3.org/2000/svg" width="350" height="350" viewBox="0 0 350 350"><g id="Rock"><g id="rocksFillSymbol"><g id="rockFillSymbol"><polygon points="173.7631 30.5116 166.4114 30.5116 166.4114 29.8984 173.6784 29.8984 175.1162 29.4613 176.3779 27.7274 176.8714 28.0868 175.4827 29.9831 173.7631 30.5116" fill="#bababa"/><polygon points="192.2655 30.5116 188.3746 30.1238 184.7657 29.0808 184.2302 29.1302 183.9481 29.2569 182.7007 30.1098 182.3553 29.6093 183.7013 28.679 187.2609 27.1285 190.2285 25.8524 190.588 25.3943 190.764 24.8374 190.764 24.7601 190.7783 24.605 190.6583 23.7591 190.2285 22.7864 190.1085 22.596 188.4732 20.7848 187.712 20.5874 187.0988 20.6931 186.9861 20.7354 179.4583 23.6464 179.2255 23.0825 180.8677 22.3846 183.7227 21.0385 184.0538 20.5097 183.9271 19.5724 183.8848 19.53 182.8837 18.4447 182.9401 18.1342 182.8064 18.4163 182.644 18.388 182.5243 18.0779 182.5453 18.388 182.4186 18.4233 182.3059 18.1342 182.3269 18.4447 180.9314 18.8955 176.8855 20.383 173.9745 21.7291 172.0362 22.4903 171.6694 22.9485 171.5144 23.4843 171.6554 24.1115 171.9445 24.633 172.5364 25.3099 173.0792 25.648 172.7901 26.1979 172.1489 25.7821 171.6977 25.3239 171.2043 24.598 171.0069 24.1255 170.9081 23.421 171.0562 22.8148 171.43 22.2086 171.9375 21.8208 173.7417 21.1652 176.6531 19.8191 180.7341 18.3106 182.2845 17.8241 182.4256 18.1062 182.3902 17.7961 182.7641 17.7748 182.8064 17.7821 182.8204 18.1062 182.8908 17.8101 183.2785 17.9512 183.5747 18.1909 184.667 19.7838 184.7094 20.3406 184.5753 20.8761 184.5049 21.0385 187.2609 20.0092 187.8107 19.9742 188.2055 20.0375 188.875 20.3053 189.2978 20.6717 190.75 22.4763 191.0884 23.1529 191.2505 23.611 191.3916 24.626 191.3702 24.7954 191.3772 24.8728 191.2435 25.479 190.8697 26.0782 190.2565 26.5857 189.9888 26.6984 187.5006 27.6924 185.4989 28.5733 185.9641 28.7354 188.4946 29.525 192.3288 29.8984 192.2655 30.5116" fill="#bababa"/></g><g id="smallRockFillSymbol"><polygon points="196.0154 36.7283 192.3009 36.7283 192.3009 36.1151 195.9167 36.1151 196.5579 35.9107 197.1711 35.0861 197.6646 35.4526 196.9317 36.4396 196.0154 36.7283" fill="#bababa"/><polygon points="205.2278 36.7283 203.2681 36.5383 201.5906 36.0238 201.5555 35.9037 201.4918 35.9251 201.4918 36.0164 201.4145 36.0164 201.4005 35.9745 201.3158 36.0024 201.3228 36.0238 201.1538 36.0731 200.5476 36.503 200.1951 36.0024 200.2445 35.9745 201.048 35.4526 202.6619 34.7407 203.9237 34.2475 204.135 34.4799 204.0154 34.1982 204.2267 34.4306 204.1001 34.1418 204.4102 34.2685 204.1774 34.0711 204.4805 34.1768 204.2267 34.0008 204.5298 34.0851 204.2621 33.9231 204.3044 33.8527 204.6215 33.8667 204.3324 33.7187 204.2481 33.1688 204.0294 32.7037 203.4021 31.9494 203.5572 31.6747 203.3388 31.9001 203.4655 31.6043 203.2541 31.8437 203.3458 31.5476 203.1767 31.8087 203.2401 31.5056 203.1908 31.6113 203.1484 31.7944 203.0567 31.7874 203.0074 31.4563 202.923 31.7734 202.7396 31.8014 202.5422 31.5406 202.6479 31.8297 198.877 33.2889 198.6443 32.718 200.8857 31.6817 200.9633 31.576 200.9917 31.4773 201.3018 31.3576 200.9987 31.3999 201.2875 31.2659 200.9843 31.3222 200.9563 31.2305 200.4698 30.6807 200.3925 30.6737 200.2938 30.695 199.6099 30.9134 197.6013 31.6607 196.1491 32.3232 195.2468 32.6613 194.9651 32.4853 195.1484 32.739 194.838 32.6403 195.0777 32.8377 195.0498 32.9151 194.7253 32.9294 195.0214 33.0351 195.1411 33.4509 195.7123 34.0148 195.4162 34.5506 194.9227 34.1912 194.5633 33.7047 194.4012 33.0915 194.4716 32.7037 194.796 32.732 194.5139 32.605 194.7887 32.2385 195.0567 32.4149 194.8734 32.1682 195.0284 32.0765 195.9167 31.7594 197.3475 31.0968 200.4065 30.0535 200.8367 30.1732 200.9563 30.2792 201.5062 30.9628 201.6119 31.4703 201.5976 31.576 202.5212 31.2235 202.6619 31.5056 202.6126 31.2025 202.923 31.1532 203.085 31.1602 203.1274 31.4843 203.1908 31.1812 203.3668 31.2235 203.832 31.5196 204.7272 32.6967 204.9387 33.4863 204.953 33.6553 204.6779 34.4376 204.2621 34.762 204.135 34.8184 202.2674 35.5866 203.3951 35.9391 205.2701 36.1151 205.2278 36.7283" fill="#bababa"/></g></g></g><g id="Rock-2"><g id="rocksFillSymbol-2"><g id="rockFillSymbol-2"><polygon points="293.3346 30.2369 285.9829 30.2369 285.9829 29.6237 293.236 29.6237 294.6811 29.1865 295.9425 27.4526 296.436 27.8121 295.0546 29.715 293.3346 30.2369" fill="#bababa"/><polygon points="311.837 30.2369 307.9394 29.8561 304.3306 28.8061 303.7878 28.8624 303.5127 28.9821 302.2653 29.8421 301.9198 29.3346 301.9338 29.3206 303.5694 28.2842 306.8257 26.8534 309.8 25.5777 310.1525 25.1195 310.3359 24.5627 310.3289 24.485 310.3499 24.3373 310.2232 23.4843 309.8917 22.7017 309.6734 22.3283 308.0378 20.5097 307.2695 20.3193 306.6563 20.4253 306.5506 20.4673 299.0158 23.3786 298.7904 22.8074 300.4326 22.1099 303.2873 20.7704 303.6044 20.3193 303.6607 19.7978 303.4563 19.2623 302.512 18.2049 302.4977 17.8595 302.4343 18.1556 302.1946 18.1132 302.0962 17.8101 302.1172 18.1202 301.9831 18.1486 301.8705 17.8595 301.8988 18.1696 300.489 18.6207 296.45 20.1149 293.5461 21.4613 291.6007 22.2226 291.2343 22.6807 291.1003 23.0895 291.0722 23.2092 291.2129 23.8368 291.6147 24.5063 292.1012 25.0418 292.6441 25.3803 292.355 25.9231 291.7065 25.5073 291.2693 25.0562 290.7548 24.3159 290.5648 23.8578 290.4661 23.1459 290.6141 22.5397 290.9945 21.9405 291.5021 21.553 293.3207 20.8905 296.2176 19.544 300.2986 18.0429 301.8564 17.5564 301.9901 17.8385 301.9481 17.5284 302.3286 17.5 302.371 17.514 302.3919 17.8385 302.4766 17.5424 302.8431 17.6761 303.1322 17.9228 304.1332 19.2339 304.2739 20.0655 304.1472 20.5944 304.0695 20.7634 306.8398 19.7414 307.3753 19.7061 307.7701 19.7628 308.4326 20.0375 308.8627 20.397 310.3215 22.2016 310.7307 23.1105 310.815 23.3433 310.9561 24.3513 310.9421 24.5203 310.9561 24.598 310.808 25.2042 310.4276 25.8031 309.8141 26.3179 309.5463 26.4306 307.0582 27.4243 305.0775 28.2986 308.0661 29.2569 311.8864 29.6237 311.837 30.2369" fill="#bababa"/></g><g id="smallRockFillSymbol-2"><polygon points="315.58 36.4606 311.8794 36.4606 311.8794 35.8474 315.4812 35.8474 316.1228 35.643 316.736 34.8114 317.2292 35.1778 316.4962 36.1645 315.58 36.4606" fill="#bababa"/><polygon points="324.7923 36.4606 322.84 36.2632 321.1554 35.7557 321.1201 35.629 321.0637 35.65 321.0637 35.7417 320.979 35.7417 320.9651 35.6993 320.8803 35.7347 320.8873 35.7487 320.7113 35.805 320.1051 36.2282 319.7667 35.7277 320.6126 35.1778 322.2268 34.4729 323.4886 33.9724 323.707 34.2122 323.5799 33.9301 323.7917 34.1558 323.6576 33.8667 323.9747 34.0008 323.7423 33.8034 324.0454 33.9091 323.7917 33.7257 324.0948 33.8104 323.8266 33.6483 323.869 33.5776 324.1861 33.599 323.8973 33.4509 323.8126 32.9011 323.5942 32.4359 322.974 31.6817 323.1218 31.3999 322.9034 31.6323 323.0304 31.3362 322.8187 31.569 322.9104 31.2799 322.7413 31.5406 322.8046 31.2305 322.7483 31.3432 322.7129 31.5196 322.6216 31.5126 322.5722 31.1882 322.4735 31.5056 322.3041 31.5266 322.1068 31.2729 322.2128 31.555 318.4415 33.0138 318.2092 32.4499 320.4505 31.4069 320.5279 31.3012 320.5563 31.2025 320.8664 31.0825 320.5633 31.1248 320.8523 30.9911 320.5493 31.0475 320.5209 30.9628 320.0417 30.4059 319.957 30.3989 319.8583 30.4199 319.1748 30.6457 317.1658 31.3926 315.714 32.0551 314.8117 32.3936 314.5226 32.2175 314.706 32.4643 314.4029 32.3656 314.6423 32.5626 314.5859 32.732 314.2549 32.76 314.572 32.8164 314.8117 33.3382 315.2699 33.74 314.9807 34.2825 314.4946 33.9091 314.1278 33.4226 314.0081 33.1055 314.2828 32.9574 313.9798 33.0138 313.9518 32.8237 313.9657 32.6757 314.2828 32.6543 313.9941 32.577 314.0365 32.4289 314.3605 32.4643 314.0785 32.3302 314.3466 31.9638 314.6213 32.1468 314.4452 31.8931 314.5859 31.8014 315.4812 31.4843 316.9121 30.8217 319.9711 29.7857 320.4012 29.8984 320.5209 30.0041 321.0707 30.695 321.1765 31.1955 321.1624 31.3082 322.0927 30.9558 322.2268 31.2305 322.1704 30.9274 322.4735 30.8781 322.6496 30.8924 322.6989 31.2095 322.7483 30.9064 322.9317 30.9558 323.3969 31.2449 324.2918 32.4289 324.5036 33.2112 324.5106 33.3806 324.2355 34.1628 323.8266 34.4939 323.707 34.5433 321.832 35.3189 322.9597 35.6643 324.8276 35.8474 324.7923 36.4606" fill="#bababa"/></g></g></g><g id="Rock-3"><g id="rocksFillSymbol-3"><g id="rockFillSymbol-3"><polygon points="251.0434 86.6254 243.6917 86.6254 243.6917 86.0119 250.9448 86.0119 252.3895 85.5751 253.6513 83.8411 254.1448 84.2006 252.7634 86.1035 251.0434 86.6254" fill="#bababa"/><polygon points="269.5458 86.6254 265.6479 86.2446 262.0391 85.1942 261.4962 85.251 261.2214 85.3706 259.974 86.2306 259.6286 85.7231 259.6426 85.7091 261.2778 84.6727 264.5342 83.2419 267.5088 81.9662 267.8613 81.508 268.0443 80.9512 268.0374 80.8735 268.0587 80.7254 267.9317 79.8729 267.6005 79.0903 267.3818 78.7168 265.7466 76.8982 264.9783 76.7078 264.3651 76.8135 264.2595 76.8558 256.7246 79.7671 256.4989 79.1959 258.1411 78.4984 260.996 77.159 261.3131 76.7078 261.3695 76.1863 261.1651 75.6508 260.2205 74.5935 260.2065 74.248 260.1431 74.5441 259.9034 74.5017 259.8046 74.1986 259.826 74.5088 259.692 74.5371 259.5792 74.248 259.6073 74.5581 258.1978 75.0092 254.1588 76.5034 251.2549 77.8498 249.3096 78.6111 248.9428 79.0692 248.8091 79.478 248.7807 79.5978 248.9217 80.2253 249.3235 80.8949 249.8097 81.4304 250.3525 81.7688 250.0635 82.3116 249.4152 81.8955 248.9781 81.4447 248.4636 80.7044 248.2732 80.2463 248.1745 79.5344 248.3226 78.9282 248.7033 78.329 249.2109 77.9415 251.0291 77.279 253.9261 75.9325 258.0074 74.4314 259.5649 73.9449 259.6989 74.227 259.6566 73.9165 260.0374 73.8885 260.0798 73.9025 260.1007 74.227 260.1854 73.9309 260.5519 74.0646 260.841 74.3113 261.8416 75.6224 261.9827 76.454 261.856 76.9829 261.7783 77.1519 264.5485 76.1299 265.084 76.0946 265.4788 76.151 266.1414 76.4261 266.5712 76.7855 268.0304 78.5898 268.4391 79.4991 268.5239 79.7318 268.6649 80.7398 268.6506 80.9088 268.6649 80.9865 268.5169 81.5928 268.136 82.1916 267.5228 82.7061 267.2551 82.8191 264.7669 83.8128 262.7863 84.6867 265.7749 85.6454 269.5952 86.0119 269.5458 86.6254" fill="#bababa"/></g><g id="smallRockFillSymbol-3"><polygon points="273.2887 92.8491 269.5882 92.8491 269.5882 92.2359 273.19 92.2359 273.8313 92.0315 274.4444 91.1999 274.938 91.5664 274.205 92.553 273.2887 92.8491" fill="#bababa"/><polygon points="282.5011 92.8491 280.5485 92.6517 278.8639 92.1442 278.8289 92.0175 278.7725 92.0385 278.7725 92.1302 278.6878 92.1302 278.6739 92.0879 278.5892 92.1232 278.5962 92.1372 278.4201 92.1935 277.8139 92.6163 277.4755 92.1162 278.3214 91.5664 279.9352 90.8614 281.197 90.3609 281.4158 90.6007 281.2887 90.3186 281.5001 90.5444 281.3664 90.2553 281.6835 90.3893 281.4507 90.1919 281.7538 90.2976 281.5001 90.1142 281.8032 90.1989 281.5354 90.0368 281.5778 89.9661 281.8949 89.9875 281.6058 89.8394 281.5215 89.2896 281.3027 88.8245 280.6825 88.0702 280.8305 87.7881 280.6121 88.0208 280.7388 87.7247 280.5275 87.9575 280.6192 87.6684 280.4501 87.9292 280.5134 87.6191 280.4571 87.7317 280.4217 87.9081 280.33 87.9011 280.2807 87.5767 280.182 87.8941 280.013 87.9152 279.8156 87.6614 279.9213 87.9435 276.1504 89.4023 275.9176 88.8385 278.159 87.7954 278.2367 87.6897 278.2647 87.591 278.5752 87.471 278.2721 87.5133 278.5608 87.3793 278.2577 87.436 278.2297 87.3513 277.7502 86.7945 277.6658 86.7874 277.5672 86.8085 276.8832 87.0342 274.8746 87.7811 273.4224 88.4436 272.5201 88.7821 272.2314 88.606 272.4145 88.8524 272.1114 88.7537 272.3511 88.9512 272.2948 89.1205 271.9637 89.1486 272.2808 89.2049 272.5201 89.7267 272.9783 90.1285 272.6896 90.671 272.2031 90.2976 271.8366 89.8111 271.7169 89.494 271.9916 89.3459 271.6885 89.4023 271.6602 89.2119 271.6745 89.0642 271.9916 89.0428 271.7026 88.9655 271.7449 88.8174 272.0694 88.8524 271.7873 88.7187 272.055 88.3523 272.3301 88.5353 272.1537 88.2816 272.2948 88.1899 273.19 87.8728 274.6208 87.2102 277.6798 86.1743 278.1097 86.287 278.2297 86.3926 278.7795 87.0836 278.8853 87.5837 278.8709 87.6967 279.8015 87.3443 279.9352 87.6191 279.8789 87.3159 280.182 87.2666 280.3584 87.2806 280.4078 87.598 280.4571 87.295 280.6401 87.3443 281.1053 87.633 282.0006 88.8174 282.212 89.5997 282.219 89.7687 281.9442 90.5513 281.5354 90.8824 281.4158 90.9318 279.5408 91.7074 280.6685 92.0525 282.5365 92.2359 282.5011 92.8491" fill="#bababa"/></g></g></g><g id="Rock-4"><g id="rocksFillSymbol-4"><g id="rockFillSymbol-4"><polygon points="67.7736 100.9268 60.4153 100.9268 60.4153 100.3135 67.6823 100.3135 69.1201 99.8764 70.3819 98.1425 70.8824 98.4949 69.4936 100.3982 67.7736 100.9268" fill="#bababa"/><polygon points="86.2694 100.9268 82.3784 100.539 78.7696 99.496 78.2411 99.5453 77.959 99.665 76.7043 100.5249 76.3588 100.0244 76.3661 100.0175 77.7053 99.0941 81.2718 97.5433 84.2394 96.2605 84.5989 95.8094 84.7749 95.2455 84.7679 95.1752 84.7889 95.0201 84.6692 94.1742 84.232 93.2015 84.1193 93.0111 82.4771 91.1925 81.7159 91.0025 81.1027 91.1082 80.997 91.1505 73.4618 94.0615 73.2364 93.4906 74.8716 92.7927 77.7263 91.4537 78.0647 90.9248 77.938 89.9875 77.8887 89.9452 76.8876 88.8598 76.944 88.5494 76.8099 88.8314 76.6479 88.7961 76.5352 88.493 76.5562 88.8031 76.4295 88.8314 76.3095 88.5494 76.3308 88.8598 74.9424 89.3106 70.8963 90.7981 67.9784 92.1442 66.0471 92.9054 65.6733 93.3636 65.5182 93.8994 65.6593 94.5196 65.9554 95.0482 66.5402 95.7251 67.0901 96.0631 66.794 96.606 66.1528 96.1972 65.7086 95.739 65.2081 95.0061 65.0107 94.5407 64.9121 93.8288 65.0601 93.2225 65.4335 92.6237 65.941 92.2359 67.7456 91.5733 70.6566 90.2343 74.738 88.7258 76.2884 88.2393 76.4295 88.5213 76.3942 88.2112 76.768 88.1829 76.8099 88.1972 76.8313 88.5213 76.9017 88.2182 77.2895 88.3593 77.5855 88.606 78.6709 90.1989 78.7133 90.7487 78.5792 91.2913 78.5089 91.4463 81.2718 90.4243 81.8216 90.3893 82.2164 90.4457 82.879 90.7204 83.3087 91.0868 84.7609 92.8914 85.092 93.568 85.2614 94.0261 85.3951 95.0411 85.3811 95.2105 85.3811 95.2809 85.2471 95.8871 84.8736 96.4933 84.2604 96.9938 83.9927 97.1135 81.5045 98.1075 79.5095 98.9884 79.975 99.1505 82.5052 99.9401 86.3328 100.3135 86.2694 100.9268" fill="#bababa"/></g><g id="smallRockFillSymbol-4"><polygon points="90.019 107.1434 86.3114 107.1434 86.3114 106.5303 89.9276 106.5303 90.5688 106.3258 91.175 105.5012 91.6755 105.8607 90.9426 106.8477 90.019 107.1434" fill="#bababa"/><polygon points="99.2246 107.1434 97.286 106.9534 95.4184 106.4245 95.2914 106.4389 95.2844 106.4316 95.1503 106.4952 94.5515 106.9181 94.199 106.4105 95.0516 105.8677 96.6658 105.1558 97.9275 104.6553 98.1529 104.895 98.0262 104.6133 98.2376 104.8387 98.0966 104.5569 98.1603 104.5076 98.4211 104.6836 98.2237 104.4439 98.5407 104.4932 98.273 104.3382 98.5901 104.3945 98.308 104.2608 98.6185 104.2818 98.3364 104.1338 98.3364 104.0704 98.146 103.3092 98.0333 103.1188 97.3354 102.3012 97.4624 102.0194 97.265 102.2589 97.3567 101.9627 97.1873 102.2239 97.251 101.9207 97.1873 102.0334 97.1523 102.2025 97.0606 102.1955 97.0182 101.8714 96.9266 102.1885 96.7505 102.2165 96.5461 101.9557 96.6588 102.2448 92.8879 103.704 92.6552 103.1328 94.8895 102.1038 94.9603 102.0264 95.2773 102.0334 94.9813 101.9417 95.2983 101.9417 95.0022 101.8501 95.3054 101.7657 94.9882 101.7374 94.9603 101.6456 94.4598 101.0958 94.2903 101.1171 93.6138 101.3285 91.6051 102.0758 90.153 102.7383 89.2507 103.0764 88.969 102.9004 89.152 103.1542 88.8419 103.0484 89.0817 103.2528 89.0603 103.3232 88.7362 103.3372 89.0253 103.4502 89.145 103.8661 89.7159 104.4299 89.4201 104.9657 88.9336 104.6059 88.5742 104.1128 88.4051 103.5066 88.4825 103.1188 88.8066 103.1471 88.5248 103.0201 88.7926 102.6536 89.0677 102.83 88.8843 102.5763 89.0393 102.4846 89.9276 102.1671 91.3654 101.512 94.4104 100.4686 94.8332 100.5883 94.9953 100.7223 95.5098 101.3779 95.6085 101.8784 95.5945 101.9911 96.5248 101.6387 96.6658 101.9207 96.6165 101.6107 96.9266 101.5613 97.0959 101.5753 97.1309 101.8994 97.1873 101.5893 97.3777 101.6387 97.8428 101.9348 98.7381 103.1048 98.9426 103.9014 98.9566 104.0635 98.8085 104.6553 98.6111 104.9234 98.273 105.1771 98.1529 105.2265 96.271 106.0017 97.406 106.3542 99.281 106.5303 99.2246 107.1434" fill="#bababa"/></g></g></g><g id="Rock-5"><g id="rocksFillSymbol-5"><g id="rockFillSymbol-5"><polygon points="32.5311 170.5172 25.1724 170.5172 25.1724 169.904 32.4394 169.904 33.8772 169.4669 35.1389 167.733 35.6395 168.0854 34.251 169.9884 32.5311 170.5172" fill="#bababa"/><polygon points="51.0265 170.5172 47.1356 170.1294 43.5267 169.0864 42.9982 169.1358 42.7161 169.2555 41.4617 170.1155 41.1163 169.6149 41.1233 169.6079 42.4624 168.6846 46.0289 167.1338 48.9965 165.8581 49.3559 165.3999 49.532 164.8361 49.525 164.7657 49.5464 164.6107 49.4263 163.7647 48.9895 162.7921 48.8768 162.6016 47.2342 160.783 46.473 160.5926 45.8598 160.6987 45.7541 160.7407 38.2193 163.652 37.9936 163.0808 39.6291 162.3832 42.4837 161.0438 42.8218 160.5153 42.6951 159.5777 42.6457 159.5356 41.6448 158.45 41.7011 158.1398 41.5674 158.422 41.405 158.3866 41.2923 158.0835 41.3136 158.3936 41.1866 158.422 41.0669 158.1398 41.0879 158.45 39.6995 158.9011 35.6535 160.3882 32.7355 161.7347 30.8042 162.4959 30.4304 162.9541 30.2754 163.4896 30.4164 164.1101 30.7125 164.6387 31.2977 165.3152 31.8472 165.6537 31.5515 166.1965 30.9099 165.7877 30.4658 165.3295 29.9653 164.5963 29.7678 164.1311 29.6692 163.4192 29.8172 162.8131 30.191 162.2139 30.6985 161.8264 32.5028 161.1709 35.4141 159.8244 39.4951 158.3162 41.0455 157.8297 41.1866 158.1119 41.1512 157.8014 41.525 157.7804 41.5674 157.7874 41.5884 158.1119 41.6588 157.8087 42.0466 157.9494 42.3427 158.1962 43.428 159.7894 43.4704 160.3389 43.3367 160.8818 43.266 161.0368 46.0289 160.0148 46.5787 159.9795 46.9735 160.0358 47.6361 160.3109 48.0662 160.6773 49.518 162.482 49.8494 163.1585 50.0185 163.6167 50.1526 164.6317 50.1382 164.8007 50.1382 164.8714 50.0045 165.4776 49.6307 166.0838 49.0175 166.5913 48.7498 166.704 46.2616 167.6977 44.267 168.579 44.7321 168.741 47.2626 169.5302 51.0899 169.904 51.0265 170.5172" fill="#bababa"/></g><g id="smallRockFillSymbol-5"><polygon points="54.7764 176.7339 51.0688 176.7339 51.0688 176.1208 54.6847 176.1208 55.3259 175.9163 55.9321 175.0917 56.4326 175.4512 55.6997 176.4379 54.7764 176.7339" fill="#bababa"/><polygon points="63.9818 176.7339 62.0434 176.5436 60.1755 176.0151 60.0485 176.029 60.0415 176.022 59.9078 176.0854 59.3086 176.5085 58.9561 176.001 59.809 175.4582 61.4229 174.7463 62.6846 174.2458 62.9104 174.4856 62.7834 174.2034 62.9948 174.4292 62.854 174.1471 62.9174 174.0977 63.1781 174.2741 62.9808 174.0344 63.2979 174.0907 63.0301 173.9287 63.3472 173.985 63.0654 173.851 63.3755 173.8723 63.0934 173.7243 63.0934 173.661 62.9034 172.8997 62.7903 172.7093 62.0928 171.8917 62.2195 171.6096 62.0221 171.8493 62.1138 171.5533 61.9447 171.814 62.0081 171.5109 61.9447 171.624 61.9094 171.793 61.8177 171.786 61.7753 171.4615 61.684 171.779 61.5076 171.807 61.3032 171.5462 61.4159 171.8353 57.645 173.2941 57.4126 172.7233 59.647 171.6943 59.7174 171.6166 60.0345 171.624 59.7384 171.5323 60.0558 171.5323 59.7597 171.4406 60.0628 171.3559 59.7454 171.3279 59.7174 171.2361 59.2168 170.6863 59.0478 170.7077 58.3709 170.919 56.3623 171.666 54.9101 172.3285 54.0081 172.667 53.7261 172.4909 53.9095 172.7446 53.599 172.639 53.8387 172.8434 53.8178 172.9137 53.4933 172.9277 53.7824 173.0404 53.9021 173.4565 54.4733 174.0204 54.1772 174.5559 53.6907 174.1965 53.3313 173.7029 53.1622 173.0971 53.2396 172.7093 53.564 172.7373 53.2819 172.6106 53.55 172.2442 53.8248 172.4202 53.6414 172.1735 53.7964 172.0747 54.6847 171.7577 56.1225 171.1021 59.1675 170.0591 59.5903 170.1788 59.7527 170.3129 60.2672 170.9684 60.3659 171.4689 60.3516 171.5816 61.2822 171.2291 61.4229 171.5109 61.3739 171.2008 61.684 171.1514 61.8531 171.1658 61.8884 171.4899 61.9447 171.1798 62.1352 171.2291 62.6003 171.5252 63.4953 172.6953 63.6996 173.4915 63.714 173.6539 63.5659 174.2458 63.3686 174.5135 63.0301 174.7673 62.9104 174.824 61.0285 175.5923 62.1631 175.9447 64.0381 176.1208 63.9818 176.7339" fill="#bababa"/></g></g></g><g id="Rock-6"><g id="rocksFillSymbol-6"><g id="rockFillSymbol-6"><polygon points="67.7736 263.0719 60.4153 263.0719 60.4153 262.4514 67.6823 262.4514 69.1201 262.0146 70.3819 260.2807 70.8824 260.6401 69.4936 262.5291 69.3949 262.5715 67.7736 263.0719" fill="#bababa"/><polygon points="86.2694 263.0719 82.3784 262.6771 78.7696 261.6198 78.2411 261.6762 77.959 261.8102 76.7043 262.6701 76.3588 262.1627 77.7053 261.232 81.2718 259.6815 84.2394 258.3984 84.5989 257.9476 84.7749 257.3907 84.7679 257.313 84.7889 257.165 84.6692 256.3264 84.232 255.3394 84.1193 255.1494 82.4771 253.3378 81.7863 253.1263 80.997 253.2884 73.4618 256.1993 73.2364 255.6355 74.8716 254.9306 77.7263 253.5915 78.0647 253.0626 77.938 252.1253 77.8887 252.083 76.8876 251.0116 76.944 250.6945 76.8099 250.9837 76.6479 250.9483 76.5352 250.6382 76.5562 250.9483 76.4295 250.9837 76.3095 250.6945 76.3308 251.0116 74.9424 251.4488 70.8963 252.936 67.9784 254.2681 66.0471 255.0433 65.8144 255.276 65.5536 255.8399 65.5182 256.0303 65.6593 256.6505 65.9554 257.1934 66.5402 257.8629 67.0901 258.2084 66.794 258.7439 66.1528 258.3494 65.7086 257.8769 65.2081 257.151 65.0107 256.6788 64.9121 255.9809 65.0601 255.3748 65.4335 254.7616 65.941 254.3737 67.7456 253.7042 70.6566 252.3721 74.738 250.8706 76.2884 250.3914 76.4295 250.6662 76.3942 250.3561 76.768 250.3281 76.8099 250.3421 76.8313 250.6662 76.9017 250.3701 77.2895 250.4972 77.5782 250.7439 78.6709 252.3367 78.7133 252.8866 78.5792 253.4295 78.5089 253.5845 81.2718 252.5625 81.8216 252.5201 82.6182 252.7315 83.1044 253.0207 83.3087 253.225 84.7609 255.0293 85.092 255.7058 85.2614 256.1643 85.3951 257.179 85.3811 257.3484 85.3811 257.4258 85.2471 258.0319 84.8736 258.6381 84.2604 259.1386 83.9927 259.2583 81.5045 260.2453 79.5095 261.1263 79.975 261.2957 82.5052 262.078 86.3328 262.4657 86.2694 263.0719" fill="#bababa"/></g><g id="smallRockFillSymbol-6"><polygon points="90.019 269.2746 86.3114 269.2746 86.3114 268.6614 89.9276 268.6614 90.5688 268.4641 91.182 267.6391 91.6685 268.0129 90.9426 268.9855 90.019 269.2746" fill="#bababa"/><polygon points="99.2246 269.2746 97.286 269.0843 95.4184 268.5767 95.2914 268.5907 95.2844 268.5767 95.2844 268.5907 95.1293 268.6471 94.5515 269.0559 94.199 268.5554 95.059 268.0129 96.6658 267.301 97.9275 266.8075 98.1529 267.0403 98.0262 266.7581 98.2376 266.9839 98.0966 266.7018 98.0966 266.7018 98.1603 266.6455 98.4211 266.8285 98.2237 266.5961 98.5407 266.6314 98.273 266.4761 98.5901 266.5397 98.308 266.4057 98.6185 266.4267 98.3364 266.293 98.3364 266.2153 98.146 265.4471 98.0333 265.264 97.3354 264.4464 97.4624 264.1643 97.265 264.404 97.3567 264.1079 97.1873 264.3687 97.251 264.0586 97.1873 264.1713 97.1523 264.3477 97.0606 264.3334 97.0182 264.0022 96.9266 264.3193 96.7575 264.3477 96.5461 264.1009 96.6588 264.3897 92.8879 265.8419 92.6552 265.278 94.8895 264.256 94.9603 264.1713 95.2773 264.1853 94.9813 264.0866 95.2983 264.0866 95.0022 263.9883 95.3054 263.9105 94.9882 263.8822 94.9603 263.7835 94.4598 263.234 94.2903 263.255 93.6138 263.4664 91.6051 264.2276 90.153 264.8692 89.2507 265.2146 88.969 265.0453 89.152 265.292 88.8419 265.1863 89.0817 265.3977 89.0603 265.4614 88.7362 265.4754 89.0253 265.5951 89.145 266.0179 89.7159 266.5821 89.4201 267.1106 88.9336 266.7442 88.5742 266.2646 88.4051 265.6584 88.4825 265.257 88.8066 265.292 88.5248 265.1583 88.7008 264.8692 88.7926 264.8058 89.0677 264.9749 88.8843 264.7281 89.0393 264.6294 89.9276 264.3054 91.3654 263.6638 93.4164 262.8885 94.4104 262.6065 94.8332 262.7265 94.9953 262.8602 95.5098 263.5157 95.6085 264.0162 95.5945 264.1359 96.5107 263.7908 96.6658 264.0586 96.6165 263.7485 96.9266 263.6991 97.0959 263.7132 97.1309 264.0376 97.1873 263.7272 97.3917 263.7835 97.3567 264.1079 97.4978 263.8328 97.8428 264.0726 98.7381 265.2496 98.9426 266.0392 98.9566 266.2153 98.8085 266.8005 98.6111 267.0682 98.273 267.322 96.2853 268.1326 97.406 268.485 99.281 268.6684 99.2246 269.2746" fill="#bababa"/></g></g></g><g id="Rock-7"><g id="rocksFillSymbol-7"><g id="rockFillSymbol-7"><polygon points="187.5993 248.7492 180.2475 248.7492 180.2475 248.1287 187.5076 248.1287 188.9527 247.6989 190.2142 245.965 190.7076 246.3315 189.3192 248.2204 189.2275 248.2557 187.5993 248.7492" fill="#bababa"/><polygon points="206.1087 248.7349 202.2111 248.3685 198.6022 247.3111 198.0594 247.3674 197.7843 247.5015 196.5369 248.3544 196.1914 247.84 197.8336 246.7966 201.0974 245.3658 204.0717 244.09 204.4241 243.6319 204.6076 243.0821 204.6005 242.9974 204.6215 242.8423 204.4949 241.9897 204.1634 241.2071 203.945 240.8193 202.3098 239.0151 201.6119 238.8176 200.8223 238.9797 193.2945 241.8836 193.0617 241.3198 194.7043 240.6149 197.5589 239.2828 197.876 238.8247 197.9324 238.3032 197.7279 237.7673 196.7837 236.7173 196.7693 236.3718 196.7059 236.661 196.6636 236.3509 196.5932 236.6466 196.4735 236.6396 196.3605 236.3225 196.3819 236.6396 196.2548 236.661 196.1421 236.3718 196.1634 236.6749 194.7676 237.1331 190.7217 238.6202 187.8107 239.9597 185.8724 240.728 185.647 240.9604 185.3859 241.5242 185.3509 241.7146 185.4916 242.3418 185.7807 242.8707 186.3729 243.5472 186.9157 243.8927 186.6266 244.4285 185.9851 244.0123 185.534 243.5612 185.0334 242.8283 184.8434 242.3631 184.7447 241.6442 184.8858 241.0521 185.2662 240.4528 185.7737 240.0584 187.5783 239.3955 190.4892 238.0564 194.5702 236.5552 196.1211 236.0617 196.2618 236.3509 196.2268 236.0477 196.6003 236.0194 196.6426 236.0334 196.6636 236.3509 196.7483 236.0617 197.1148 236.1884 197.4039 236.4352 198.4048 237.7393 198.5455 238.5709 198.4189 239.0998 198.3411 239.2688 201.3861 238.2115 201.6469 238.2045 202.4435 238.4088 202.923 238.705 203.1344 238.9094 204.5932 240.7136 205.0024 241.6229 205.1784 242.3418 205.2278 242.8567 205.2137 243.0397 205.2278 243.1104 205.0797 243.7093 204.6993 244.3154 204.0857 244.83 203.8179 244.936 201.3298 245.9297 199.3492 246.8106 199.8003 246.973 202.3378 247.7622 206.1581 248.1287 206.1087 248.7349" fill="#bababa"/></g><g id="smallRockFillSymbol-7"><polygon points="209.8516 254.9659 206.151 254.9659 206.151 254.3457 209.7529 254.3457 210.3945 254.1483 211.0076 253.3237 211.5008 253.6902 210.7679 254.6699 209.8516 254.9659" fill="#bababa"/><polygon points="219.0639 254.9589 217.1116 254.7686 215.4271 254.2681 215.3918 254.1414 215.3354 254.1623 215.3354 254.2611 215.2507 254.2611 215.2367 254.2187 215.152 254.247 215.159 254.2681 215.0747 254.2681 214.3767 254.7405 214.0383 254.247 214.8702 253.6902 216.4985 252.9853 217.7602 252.4988 217.9786 252.7315 217.8516 252.4425 218.0633 252.6682 217.9292 252.3791 218.2463 252.5061 218.0139 252.3088 218.3171 252.4214 218.0633 252.2311 218.3664 252.3228 218.0983 252.1677 218.1407 252.09 218.4578 252.1113 218.169 251.9563 218.0843 251.4134 217.8659 250.9483 217.2453 250.1801 217.3934 249.9049 217.175 250.1447 217.3021 249.8556 217.0903 250.0883 217.182 249.7993 217.013 250.053 217.0763 249.7429 217.0199 249.8556 216.9846 250.032 216.8933 250.018 216.8439 249.6936 216.7452 250.0107 216.5902 250.039 216.3784 249.7853 216.4841 250.0743 212.7132 251.5262 212.4808 250.9693 214.7222 249.9193 214.7995 249.8276 214.8279 249.7149 215.138 249.5878 214.8349 249.6302 215.124 249.5105 214.8209 249.5669 214.7926 249.4682 214.3134 248.9183 214.2287 248.9183 214.13 248.9323 213.4464 249.1507 211.4375 249.8909 209.9856 250.5605 209.0833 250.906 208.7942 250.7369 208.9777 250.9837 208.6745 250.8779 208.9143 251.075 208.8576 251.2444 208.5265 251.2724 208.8436 251.3287 209.0833 251.8506 209.5415 252.245 209.2524 252.8019 208.7662 252.4214 208.3995 251.928 208.2797 251.6179 208.5545 251.4698 208.2514 251.5262 208.2234 251.3287 208.2374 251.188 208.5545 251.1667 208.2658 251.0893 208.3081 250.9413 208.6322 250.9837 208.3501 250.8426 208.5265 250.5605 208.6182 250.4688 208.893 250.6592 208.7169 250.4195 208.8576 250.3138 209.7529 249.9966 211.1837 249.3271 213.249 248.5728 214.2427 248.2911 214.6728 248.4038 214.7926 248.5165 215.3424 249.2074 215.4481 249.7006 215.4341 249.8276 216.3434 249.4682 216.4985 249.7429 216.4421 249.4328 216.7452 249.3835 216.9213 249.3975 216.9706 249.7219 217.0199 249.4118 217.2173 249.4682 217.182 249.7993 217.3161 249.5105 217.6685 249.7569 218.5635 250.9413 218.7752 251.7235 218.7822 251.9069 218.5071 252.6752 218.0983 253.0063 216.1176 253.8239 217.2314 254.1693 219.0993 254.3528 219.0639 254.9589" fill="#bababa"/></g></g></g><g id="Rock-8"><g id="rocksFillSymbol-8"><g id="rockFillSymbol-8"><polygon points="293.3346 241.7006 285.9829 241.7006 285.9829 241.0804 293.236 241.0804 294.6811 240.6503 295.9425 238.9164 296.436 239.2828 295.0546 241.1717 294.9559 241.2071 293.3346 241.7006" fill="#bababa"/><polygon points="311.837 241.6866 307.9394 241.3198 304.3306 240.2628 303.7878 240.3191 303.5127 240.4528 302.2653 241.3058 301.9198 240.7913 303.562 239.7479 306.8257 238.3171 309.8 237.0414 310.1525 236.5832 310.3359 236.0334 310.3289 235.9491 310.3499 235.794 310.2232 234.941 309.8917 234.1584 309.6734 233.771 308.0378 231.9664 307.3403 231.769 306.5506 231.9314 299.0158 234.8354 298.7904 234.2715 300.4326 233.5666 303.2873 232.2345 303.6044 231.7764 303.6607 231.2545 303.4563 230.719 302.512 229.6686 302.4977 229.3232 302.4343 229.6123 302.1946 229.5913 302.0962 229.2739 302.1172 229.5913 301.9831 229.6123 301.8705 229.3232 301.8988 229.6263 300.489 230.0844 296.45 231.5716 293.5461 232.911 291.6007 233.6793 291.361 233.9121 291.1003 234.5602 291.0722 234.666 291.2129 235.2935 291.6147 235.97 292.214 236.5972 292.6441 236.844 292.355 237.3798 291.8755 237.0978 291.4174 236.6889 291.0086 236.1534 290.5648 235.3145 290.4661 234.5956 290.6141 234.0034 290.9945 233.4045 291.5021 233.0098 293.3207 232.3472 296.2176 231.0077 300.2986 229.5066 301.8564 229.0131 301.9901 229.3022 301.9481 228.9991 302.3286 228.9708 302.371 228.9851 302.3919 229.3022 302.4766 229.0131 302.8431 229.1402 303.1322 229.3869 304.1332 230.6906 304.2739 231.5223 304.1472 232.0511 304.0695 232.2202 307.1145 231.1628 307.3753 231.1558 308.1719 231.3602 308.6513 231.6563 308.8627 231.8607 310.3215 233.6653 310.7307 234.5746 310.9067 235.2935 310.9561 235.808 310.9421 235.9914 310.9561 236.0617 310.808 236.661 310.4276 237.2672 309.8141 237.7816 309.5463 237.8873 307.0582 238.881 305.0775 239.7623 305.5286 239.9243 308.0661 240.7136 311.8864 241.0804 311.837 241.6866" fill="#bababa"/></g><g id="smallRockFillSymbol-8"><polygon points="315.58 247.9173 311.8794 247.9173 311.8794 247.2971 315.4812 247.2971 316.1228 247.0997 316.736 246.2751 317.2292 246.6416 316.4962 247.6212 315.58 247.9173" fill="#bababa"/><polygon points="324.7923 247.9103 322.84 247.7199 321.1554 247.2194 321.1201 247.0927 321.0637 247.1137 321.0637 247.2124 320.979 247.2124 320.9651 247.1704 320.8803 247.1984 320.8873 247.2194 320.803 247.2194 320.1051 247.6919 319.7667 247.1984 320.5986 246.6416 322.2268 245.9367 323.4886 245.4505 323.707 245.6829 323.5799 245.3942 323.7917 245.6196 323.6576 245.3304 323.9747 245.4575 323.7423 245.2601 324.0454 245.3728 323.7917 245.1824 324.0948 245.2741 323.8266 245.119 323.869 245.0417 324.1861 245.0627 323.8973 244.9077 323.8126 244.3648 323.5942 243.8996 322.974 243.1314 323.1218 242.8567 322.9034 243.0961 323.0304 242.8073 322.8187 243.0397 322.9104 242.7509 322.7413 243.0047 322.8046 242.6943 322.7483 242.8073 322.7129 242.9833 322.6216 242.9693 322.5722 242.6449 322.4735 242.9624 322.3185 242.9903 322.1068 242.7366 322.2128 243.0257 318.4415 244.4778 318.2092 243.921 320.4505 242.8707 320.5279 242.779 320.5563 242.6662 320.8664 242.5392 320.5633 242.5815 320.8523 242.4619 320.5493 242.5182 320.5209 242.4195 320.0417 241.8696 319.957 241.8696 319.8583 241.8836 319.1748 242.1024 317.1658 242.8423 315.714 243.5118 314.8117 243.8573 314.5226 243.6882 314.706 243.935 314.4029 243.8293 314.6423 244.0267 314.5859 244.1958 314.2549 244.2241 314.572 244.2805 314.8117 244.8019 315.2699 245.1967 314.9807 245.7536 314.4946 245.3728 314.1278 244.8793 314.0081 244.5692 314.2828 244.4212 313.9798 244.4778 313.9518 244.2805 313.9657 244.1394 314.2828 244.1181 313.9941 244.0407 314.0365 243.8927 314.3605 243.935 314.0785 243.794 314.2549 243.5118 314.3466 243.4205 314.6213 243.6105 314.4452 243.3711 314.5859 243.2655 315.4812 242.948 316.9121 242.2784 318.9774 241.5242 319.9711 241.2424 320.4012 241.3552 320.5209 241.4678 321.0707 242.1588 321.1765 242.6523 321.1624 242.779 322.0718 242.4195 322.2268 242.6943 322.1704 242.3842 322.4735 242.3348 322.6496 242.3491 322.6989 242.6732 322.7483 242.3631 322.9457 242.4195 322.9104 242.7509 323.0444 242.4619 323.3969 242.7086 324.2918 243.8927 324.5036 244.6749 324.5106 244.8583 324.2355 245.6266 323.8266 245.958 321.846 246.7756 322.9597 247.1211 324.8276 247.3041 324.7923 247.9103" fill="#bababa"/></g></g></g><g id="Rock-9"><g id="rocksFillSymbol-9"><g id="rockFillSymbol-9"><polygon points="272.1891 326.2834 264.8373 326.2834 264.8373 325.6628 272.0903 325.6628 273.5352 325.233 274.7969 323.4991 275.2904 323.8655 273.9089 325.7545 273.8102 325.7899 272.1891 326.2834" fill="#bababa"/><polygon points="290.6915 326.269 286.7935 325.9025 283.1846 324.8452 282.6421 324.9016 282.3671 325.0356 281.1197 325.8885 280.7742 325.374 282.4164 324.3307 285.6798 322.8999 288.6545 321.6242 289.0069 321.166 289.1903 320.6161 289.183 320.5314 289.2043 320.3764 289.0772 319.5238 288.7462 318.7412 288.5278 318.3537 286.8922 316.5491 286.1946 316.3517 285.405 316.5138 277.8703 319.4181 277.6445 318.8539 279.2871 318.1494 282.1417 316.8169 282.4587 316.3587 282.5151 315.8372 282.3107 315.3017 281.3664 314.2514 281.352 313.906 281.2887 314.195 281.0489 314.1737 280.9502 313.8566 280.9716 314.1737 280.8376 314.195 280.7249 313.906 280.7529 314.2091 279.3434 314.6672 275.3044 316.1544 272.4004 317.4938 270.4552 318.262 270.2154 318.4944 269.9546 319.143 269.9263 319.2487 270.0674 319.8763 270.4692 320.5528 271.0683 321.18 271.4982 321.4267 271.2094 321.9626 270.7299 321.6805 270.2717 321.2717 269.8629 320.7359 269.4188 319.8973 269.3201 319.1784 269.4681 318.5861 269.849 317.987 270.3564 317.5925 272.175 316.9299 275.072 315.5905 279.153 314.0893 280.7109 313.5959 280.8446 313.8849 280.8022 313.5819 281.183 313.5535 281.2253 313.5675 281.2464 313.8849 281.3311 313.5959 281.6975 313.7226 281.9866 313.9693 282.9873 315.2734 283.1283 316.105 283.0016 316.6338 282.9239 316.8029 285.9689 315.7455 286.2296 315.7385 287.0262 315.943 287.5054 316.239 287.7172 316.4434 289.1759 318.2477 289.5848 319.157 289.7612 319.8763 289.8105 320.3907 289.7961 320.5738 289.8105 320.6445 289.6624 321.2433 289.2817 321.8496 288.6684 322.3644 288.4007 322.4701 285.9126 323.4637 283.9319 324.345 284.383 324.5071 286.9206 325.2964 290.7408 325.6628 290.6915 326.269" fill="#bababa"/></g><g id="smallRockFillSymbol-9"><polygon points="294.4343 332.5 290.7338 332.5 290.7338 331.8798 294.3357 331.8798 294.9768 331.6825 295.5901 330.8578 296.0835 331.2243 295.3507 332.2039 294.4343 332.5" fill="#bababa"/><polygon points="303.6467 332.4931 301.6944 332.3027 300.0095 331.8021 299.9745 331.6754 299.9182 331.6965 299.9182 331.7951 299.8335 331.7951 299.8194 331.7528 299.7347 331.7812 299.7418 331.8021 299.6574 331.8021 298.9595 332.2746 298.621 331.7812 299.453 331.2243 301.0812 330.5194 302.3426 330.0329 302.5613 330.2657 302.4343 329.9765 302.6457 330.2023 302.512 329.9132 302.8291 330.0403 302.5964 329.8428 302.8995 329.9556 302.6457 329.7651 302.9488 329.8568 302.6811 329.7018 302.7234 329.6241 303.0405 329.6455 302.7514 329.4904 302.6671 328.9476 302.4483 328.4824 301.8281 327.7141 301.9762 327.4391 301.7577 327.6788 301.8845 327.3897 301.673 327.6224 301.7647 327.3334 301.5957 327.5871 301.6591 327.277 301.6027 327.3897 301.5674 327.5661 301.4757 327.5521 301.4263 327.2276 301.3276 327.5447 301.1726 327.5731 300.9611 327.3193 301.0668 327.6085 297.296 329.0602 297.0632 328.5034 299.305 327.4534 299.3823 327.3617 299.4106 327.249 299.7207 327.122 299.4176 327.1643 299.7068 327.0446 299.4036 327.1009 299.3753 327.0022 298.8962 326.4524 298.8115 326.4524 298.7127 326.4664 298.0292 326.6851 296.0202 327.4251 294.5681 328.0946 293.6661 328.44 293.377 328.271 293.5604 328.5177 293.2573 328.4121 293.4967 328.6091 293.4404 328.7785 293.1092 328.8065 293.4263 328.8628 293.6661 329.3847 294.1242 329.7792 293.8352 330.336 293.3487 329.9556 292.9822 329.4621 292.8625 329.152 293.1373 329.0039 292.8342 329.0602 292.8061 328.8628 292.8202 328.7222 293.1373 328.7008 292.8485 328.6235 292.8905 328.4754 293.215 328.5177 292.9328 328.3767 293.1092 328.0946 293.2006 328.0029 293.4757 328.1933 293.2993 327.9539 293.4404 327.8478 294.3357 327.5307 295.7664 326.8612 297.8318 326.107 298.8255 325.8252 299.2556 325.9379 299.3753 326.0506 299.9252 326.7415 300.0308 327.2346 300.0169 327.3617 300.9261 327.0022 301.0812 327.277 301.0245 326.9669 301.3276 326.9175 301.504 326.9315 301.5533 327.256 301.6027 326.9459 301.8001 327.0022 301.7647 327.3334 301.8988 327.0446 302.2512 327.2914 303.1462 328.4754 303.3576 329.2577 303.3649 329.441 303.0898 330.2093 302.6811 330.5404 300.7004 331.3583 301.8141 331.7034 303.682 331.8868 303.6467 332.4931" fill="#bababa"/></g></g></g><g id="Rock-10"><g id="rocksFillSymbol-10"><g id="rockFillSymbol-10"><polygon points="32.5311 326.1209 25.1724 326.1209 25.1724 325.5007 32.4394 325.5007 33.8772 325.0569 35.1389 323.3227 35.6395 323.6895 34.251 325.5994 34.1523 325.6278 32.5311 326.1209" fill="#bababa"/><polygon points="51.0265 326.1139 47.1356 325.7265 43.5267 324.6902 42.9982 324.7465 42.7161 324.8596 41.4617 325.7195 41.1163 325.212 42.4624 324.2814 46.0289 322.7309 48.9965 321.4691 49.3559 320.997 49.532 320.4401 49.525 320.3624 49.5464 320.2143 49.4263 319.3687 48.9895 318.3888 48.8768 318.1987 47.2342 316.3801 46.5437 316.1967 45.7541 316.3378 38.2193 319.2487 37.9936 318.6849 39.6291 317.987 42.4837 316.6409 42.8218 316.112 42.6951 315.1747 42.6457 315.1324 41.6448 314.054 41.7011 313.7439 41.5674 314.0257 41.405 313.9976 41.2923 313.6875 41.3136 313.9976 41.1866 314.033 41.0669 313.7439 41.0879 314.054 39.6995 314.4981 35.6535 315.9853 32.7355 317.3314 30.8042 318.0926 30.5715 318.3254 30.3107 318.8892 30.2754 319.0867 30.4164 319.7209 30.7125 320.2427 31.2977 320.9192 31.8472 321.2577 31.5515 321.8002 30.9099 321.3914 30.4658 320.9332 29.9653 320.2004 29.7678 319.7352 29.6692 319.0233 29.8172 318.4171 30.191 317.8109 30.6985 317.4161 32.5028 316.7749 35.4141 315.4214 39.4951 313.9199 41.0455 313.4338 41.1866 313.7156 41.1512 313.4055 41.525 313.3774 41.5674 313.3914 41.5884 313.7156 41.6588 313.4195 42.0466 313.5675 42.3356 313.8073 43.428 315.3791 43.4704 315.943 43.3367 316.4858 43.266 316.6338 46.0289 315.6189 46.5787 315.5765 47.3753 315.7739 47.8618 316.07 48.0662 316.2744 49.518 318.0787 49.8494 318.7552 50.0185 319.2063 50.1526 320.2287 50.1382 320.3907 50.1382 320.4751 50.0045 321.0813 49.6307 321.6875 49.0175 322.188 48.7498 322.3077 46.2616 323.2947 44.267 324.1756 44.7321 324.345 47.2626 325.1273 51.0899 325.5077 51.0265 326.1139" fill="#bababa"/></g><g id="smallRockFillSymbol-10"><polygon points="54.7764 332.345 51.0688 332.345 51.0688 331.7178 54.6847 331.7178 55.3259 331.5134 55.9395 330.6884 56.4256 331.0623 55.6997 332.0419 54.7764 332.345" fill="#bababa"/><polygon points="63.9818 332.331 62.0434 332.1336 60.1755 331.6261 60.0485 331.6331 60.0415 331.6261 60.0415 331.6331 59.8864 331.6895 59.3086 332.1052 58.9561 331.6048 59.816 331.0623 61.4229 330.3433 62.6846 329.8568 62.9104 330.0822 62.7834 329.8075 62.9948 330.0403 62.854 329.7511 62.854 329.7511 62.9174 329.7018 63.1781 329.8779 62.9808 329.6385 63.2979 329.7018 63.0301 329.5184 63.3472 329.5891 63.0654 329.455 63.3755 329.4764 63.0934 329.3354 63.0934 329.2646 62.9034 328.5034 62.7903 328.3064 62.0928 327.4957 62.2195 327.2137 62.0221 327.4534 62.1138 327.1503 61.9447 327.411 62.0081 327.1079 61.9447 327.2206 61.9094 327.397 61.8177 327.3897 61.7753 327.0726 61.684 327.3897 61.5146 327.397 61.3032 327.1503 61.4159 327.4391 57.645 328.8842 57.4126 328.3204 59.647 327.2984 59.7174 327.2206 60.0345 327.2276 59.7384 327.1359 60.0558 327.1359 59.7597 327.0586 60.0628 326.9599 59.7454 326.9315 59.7174 326.8332 59.2168 326.2834 59.0478 326.3043 58.3709 326.5157 56.3623 327.27 54.9101 327.9395 54.0081 328.271 53.7261 328.0946 53.9095 328.3343 53.599 328.257 53.8387 328.4471 53.8178 328.5318 53.4933 328.5458 53.7824 328.6375 53.9021 329.0673 54.4733 329.6241 54.1772 330.1599 53.6907 329.7935 53.3313 329.307 53.1622 328.7008 53.2396 328.3064 53.564 328.3343 53.2819 328.2146 53.4583 327.9395 53.55 327.8478 53.8248 328.0172 53.6414 327.7775 53.7964 327.6928 54.6847 327.3757 56.1225 326.7061 58.1739 325.9379 59.1675 325.6488 59.5903 325.7758 59.7527 325.9166 60.2672 326.5581 60.3659 327.0726 60.3516 327.1853 61.2679 326.8332 61.4229 327.1079 61.3739 326.8119 61.684 326.7555 61.8531 326.7695 61.8884 327.1009 61.9447 326.7835 62.1492 326.8332 62.1138 327.1503 62.2549 326.8752 62.6003 327.122 63.4953 328.292 63.6996 329.0956 63.714 329.2646 63.5659 329.8498 63.3686 330.1176 63.0301 330.3713 61.0424 331.2033 62.1631 331.5274 64.0381 331.7248 63.9818 332.331" fill="#bababa"/></g></g></g><g id="Rock-11"><g id="rocksFillSymbol-11"><g id="rockFillSymbol-11"><polygon points="258.0918 157.1109 250.7403 157.1109 250.7403 156.4976 257.9931 156.4976 259.4382 156.0605 260.7 154.3266 261.1931 154.686 259.8117 156.5893 258.0918 157.1109" fill="#bababa"/><polygon points="276.5945 157.1109 272.6965 156.73 269.0877 155.68 268.5448 155.7364 268.2701 155.8561 267.0223 156.7161 266.6769 156.2086 266.6913 156.1945 268.3265 155.1582 271.5829 153.7274 274.5572 152.4516 274.9096 151.9935 275.093 151.4367 275.086 151.3593 275.107 151.2113 274.9803 150.3583 274.6489 149.576 274.4304 149.2022 272.7952 147.3836 272.027 147.1936 271.4138 147.2993 271.3081 147.3416 263.773 150.2526 263.5476 149.6818 265.1898 148.9838 268.0443 147.6447 268.3618 147.1936 268.4182 146.6718 268.2137 146.1363 267.2691 145.0789 267.2551 144.7335 267.1918 145.0295 266.952 144.9872 266.8533 144.6841 266.8743 144.9942 266.7406 145.0226 266.6275 144.7335 266.6559 145.0436 265.2461 145.4947 261.2074 146.9892 258.3035 148.3353 256.3579 149.0965 255.9914 149.5547 255.8573 149.9635 255.8294 150.0836 255.9704 150.7107 256.3722 151.3803 256.8583 151.9161 257.4012 152.2543 257.1121 152.7971 256.4635 152.3813 256.0267 151.9301 255.5123 151.1899 255.3218 150.7317 255.2231 150.0199 255.3712 149.4137 255.7516 148.8148 256.2592 148.427 258.0778 147.7644 260.9747 146.418 265.0557 144.9169 266.6136 144.4304 266.7476 144.7125 266.7053 144.4024 267.0857 144.374 267.1281 144.388 267.1494 144.7125 267.2338 144.4163 267.6005 144.5504 267.8893 144.7972 268.8903 146.1079 269.0313 146.9398 268.9043 147.4684 268.827 147.6374 271.5968 146.6154 272.1327 146.5804 272.5275 146.6367 273.19 146.9115 273.6199 147.2709 275.079 149.0755 275.4878 149.9848 275.5722 150.2173 275.7132 151.2252 275.6992 151.3943 275.7132 151.472 275.5652 152.0782 275.1847 152.6774 274.5715 153.1919 274.3037 153.3046 271.8156 154.2986 269.835 155.1725 272.8233 156.1312 276.6438 156.4976 276.5945 157.1109" fill="#bababa"/></g><g id="smallRockFillSymbol-11"><polygon points="280.337 163.3345 276.6365 163.3345 276.6365 162.7213 280.2384 162.7213 280.8799 162.5169 281.4931 161.6854 281.9866 162.0518 281.2534 163.0388 280.337 163.3345" fill="#bababa"/><polygon points="289.5498 163.3345 287.5971 163.1375 285.9126 162.63 285.8772 162.503 285.8209 162.5239 285.8209 162.6157 285.7365 162.6157 285.7222 162.5733 285.6378 162.6086 285.6448 162.6226 285.4684 162.6794 284.8622 163.1022 284.5241 162.6016 285.3697 162.0518 286.9839 161.3469 288.2457 160.8464 288.464 161.0862 288.3374 160.8044 288.5487 161.0298 288.4147 160.7407 288.7322 160.8747 288.4994 160.6773 288.8025 160.783 288.5487 160.6 288.8518 160.6844 288.5841 160.5223 288.6261 160.4519 288.9435 160.4729 288.6545 160.3249 288.5698 159.7751 288.3514 159.3099 287.7312 158.5557 287.8792 158.2739 287.6604 158.5063 287.7875 158.2105 287.5761 158.443 287.6678 158.1538 287.4984 158.4149 287.5617 158.1045 287.5054 158.2176 287.4704 158.3936 287.3787 158.3866 287.3294 158.0625 287.2307 158.3796 287.0616 158.4006 286.8642 158.1468 286.9699 158.4289 283.199 159.8881 282.9663 159.3239 285.2076 158.2809 285.2854 158.1752 285.3133 158.0765 285.6234 157.9568 285.3204 157.9988 285.6094 157.8651 285.3063 157.9214 285.2784 157.8367 284.7989 157.2799 284.7142 157.2729 284.6158 157.2942 283.9319 157.5196 281.9232 158.2669 280.4711 158.9295 279.5688 159.2676 279.2797 159.0915 279.4631 159.3382 279.16 159.2396 279.3997 159.4369 279.3434 159.606 279.0119 159.6343 279.329 159.6907 279.5688 160.2122 280.0269 160.614 279.7379 161.1568 279.2517 160.783 278.8853 160.2969 278.7652 159.9795 279.0403 159.8314 278.7372 159.8881 278.7089 159.6977 278.7232 159.5497 279.0403 159.5283 278.7512 159.4509 278.7935 159.3029 279.1177 159.3382 278.8359 159.2042 279.1036 158.8377 279.3784 159.0208 279.2024 158.7674 279.3434 158.6757 280.2384 158.3583 281.6695 157.6957 284.7285 156.6597 285.1583 156.7724 285.2784 156.8781 285.8279 157.569 285.9335 158.0695 285.9195 158.1822 286.8502 157.8297 286.9839 158.1045 286.9276 157.8014 287.2307 157.7524 287.4067 157.7664 287.4561 158.0835 287.5054 157.7804 287.6888 157.8297 288.1539 158.1188 289.0493 159.3029 289.2606 160.0852 289.2677 160.2545 288.9929 161.0368 288.5841 161.3683 288.464 161.4176 286.5891 162.1929 287.7172 162.5383 289.5848 162.7213 289.5498 163.3345" fill="#bababa"/></g></g></g></svg>