<?xml version="1.0" encoding="UTF-8"?><svg id="Layer_1" xmlns="http://www.w3.org/2000/svg" width="350" height="350" viewBox="0 0 350 350"><path d="M38.5796,17.5006c5.6263,1.3286,8.4525,2.9957,8.4525,5.0274,.5862,.1302,1.1981,1.6278,1.8623,4.4933l-.7945,4.7666c3.5294,0,6.3819,2.5658,8.4137,7.6713l.2866,2.1227c-.6514,4.7667-1.5369,7.1242-2.631,7.1242-2.149,2.3051-4.4411,3.4643-6.8768,3.4643h-.7945c-2.7741,0-5.1055-.8204-6.8638-2.4356h-.2604v9.26l-.7945,.8337h-.2734l-.7945-.7945v-9.5074c-1.9015,1.7584-4.2717,2.6439-7.1372,2.6439h-.5341c-5.5612,0-8.9086-3.5035-10.0415-10.3282,0-3.4384,1.7714-6.3948,5.2486-8.9866,1.68-.7164,2.9435-1.0678,3.6988-1.0678l-.7815-2.3835v-1.3153c0-4.4152,2.1228-7.5929,6.3168-9.4944l4.298-1.0941h.0004Zm-8.7392,10.5886v1.3545l1.0678,3.4255c-.4039,.3255-1.9016,.7815-4.5062,1.3023-3.178,2.1098-4.7537,4.6756-4.7537,7.6713,0,3.3604,1.7584,5.991,5.2878,7.8925,.7032,.3906,1.6671,.56,2.9043,.56h.5341c2.9823,0,5.5094-1.3286,7.6713-3.9725h.8204c1.9667,2.6568,4.5192,3.9854,7.6451,3.9854h.7815c2.5526,0,4.8451-1.4588,6.8768-4.5063l.7945-4.2329c0-3.5686-2.0709-6.2384-6.2906-7.8925-1.8235-.1694-2.6831-.5208-2.6831-1.0941,.56-1.9016,.9117-3.829,1.0419-5.8219-.5341-2.0188-1.3937-3.6988-2.6439-5.0274-2.0188-1.589-4.0635-2.3705-6.0823-2.3705-3.5686,0-6.2384,1.9408-7.9317,5.8086-.3518,.7032-.5341,1.68-.5341,2.9172v.0007Z" fill="#fff"/><path d="M127.3907,17.5006c5.6396,1.3286,8.4266,2.9823,8.4266,5.0274,.6251,.1302,1.2373,1.6278,1.9016,4.4933l-.8204,4.7666c3.5556,0,6.3819,2.5658,8.4396,7.6713l.2733,2.1227c-.6643,4.7667-1.511,7.1372-2.6047,7.1372-2.1619,2.3443-4.4933,3.5035-6.8897,3.5035h-.8204c-2.7741,0-5.0662-.8204-6.8376-2.4356h-.2867v9.2599l-.7816,.7815h-.2604l-.7945-.8204v-9.4944c-1.9016,1.7713-4.2718,2.6568-7.1502,2.6568h-.5208c-5.5611,0-8.9474-3.5035-10.0544-10.3282,0-3.4384,1.8102-6.3948,5.2878-8.9866,1.68-.7164,2.9043-1.0678,3.6988-1.0678l-.7945-2.3835v-1.3153c0-4.4152,2.1228-7.5929,6.3557-9.4944l4.2329-1.0941h-.0003Zm-8.7262,10.5886v1.3545l1.0679,3.4255c-.4039,.3255-1.9016,.7815-4.5063,1.3023-3.178,2.1098-4.7537,4.6756-4.7537,7.6713,0,3.3604,1.7584,5.991,5.2486,7.8925,.7423,.3906,1.7062,.56,2.9435,.56h.5208c2.9564,0,5.5094-1.3286,7.6713-3.9725h.8075c1.9796,2.6439,4.5713,3.9725,7.658,3.9725h.7945c2.5659,0,4.858-1.4588,6.8897-4.5063l.7945-4.2329c0-3.5686-2.1098-6.2384-6.3297-7.8925-1.7843-.1565-2.6569-.5079-2.6569-1.0811,.5862-1.9016,.8988-3.829,1.029-5.8219-.5341-2.0188-1.3545-3.6988-2.6047-5.0274-2.0318-1.589-4.0764-2.4224-6.1212-2.4224-3.5294,0-6.2255,1.9408-7.8925,5.8086-.3777,.7553-.56,1.7321-.56,2.9694l-.0003,.0004Z" fill="#fff"/><path d="M219.6923,17.5006c5.6396,1.3286,8.4525,2.9823,8.4525,5.0274,.5862,.1302,1.1981,1.6278,1.8624,4.4933l-.8204,4.7666c3.5557,0,6.3819,2.5658,8.4395,7.6713l.2734,2.1227c-.7031,4.7667-1.5498,7.1372-2.6439,7.1372-2.1619,2.3443-4.4933,3.5035-6.8897,3.5035h-.8204c-2.787,0-5.0925-.8204-6.8505-2.4356h-.2733v9.2599l-.7294,.7815h-.2733l-.7945-.8204v-9.4944c-1.9016,1.7713-4.2718,2.6568-7.1502,2.6568h-.5208c-5.5612,0-8.9474-3.5035-10.0544-10.3282,0-3.4384,1.8235-6.3948,5.2878-8.9866,1.68-.7164,2.9172-1.0678,3.7118-1.0678l-.8204-2.3835v-1.3153c0-4.4152,2.1227-7.5929,6.3427-9.4944l4.2718-1.0941h-.0003Zm-8.7391,10.5886v1.3545l1.0549,3.4255c-.3906,.3518-1.9016,.8204-4.5454,1.3545-3.1259,2.0839-4.7148,4.6235-4.7148,7.6713,0,3.3604,1.7584,5.991,5.2486,7.8925,.7553,.3518,1.7192,.5341,2.9564,.5341h.5208c2.9564,0,5.5223-1.3286,7.6842-3.9725h.7945c1.9796,2.6439,4.5843,3.9725,7.7101,3.9725h.7945c2.5658,0,4.858-1.4588,6.8898-4.5063l.7945-4.2329c0-3.5686-2.1098-6.2384-6.2905-7.8925-1.8235-.1694-2.6698-.4949-2.6698-1.0678,.5862-1.9016,.8988-3.829,1.0678-5.8219-.5341-2.0188-1.3937-3.6988-2.6439-5.0274-2.0188-1.589-4.0764-2.4224-6.1212-2.4224-3.5294,0-6.2255,1.9408-7.9055,5.8086-.4427,.7164-.6251,1.6933-.6251,2.9305v-.0004Z" fill="#fff"/><path d="M311.9936,17.5006c5.6395,1.3286,8.4525,2.9823,8.4525,5.0274,.5863,.1302,1.1981,1.6278,1.8623,4.4933l-.7945,4.7666c3.5294,0,6.3427,2.5658,8.4137,7.6713l.2734,2.1227c-.6643,4.7667-1.5369,7.1372-2.631,7.1372-2.1619,2.3443-4.4541,3.5035-6.8897,3.5035h-.7945c-2.8133,0-5.1055-.8204-6.8638-2.4356h-.2734v9.2599l-.7815,.8204h-.2734l-.8074-.8204v-9.5207c-1.9015,1.7713-4.2717,2.6568-7.1502,2.6568h-.5341c-5.5482,0-8.9474-3.5035-10.0415-10.3282,0-3.4384,1.8102-6.3948,5.2878-8.9866,1.68-.7164,2.9043-1.0678,3.6988-1.0678l-.7553-2.3965v-1.3153c0-4.4152,2.1227-7.5929,6.3427-9.4944l4.2588-1.0941,.0003,.0004Zm-8.7392,10.5886v1.3545l1.0678,3.4255c-.4039,.3255-1.9145,.7815-4.5062,1.3023-3.178,2.071-4.7537,4.6235-4.7537,7.6713,0,3.3604,1.7584,5.991,5.2878,7.8925,.7031,.3518,1.68,.5341,2.9043,.5341h.5341c2.9565,0,5.5093-1.3286,7.6713-3.9725h.8204c1.9407,2.6439,4.5325,3.9725,7.658,3.9725h.7945c2.5659,0,4.858-1.4588,6.8897-4.5063l.7945-4.2329c0-3.5686-2.1098-6.2384-6.2906-7.8925-1.8235-.1694-2.6698-.4949-2.6698-1.0678,.5863-1.9016,.8988-3.829,1.0678-5.8219-.5341-2.0188-1.3937-3.6988-2.6439-5.0274-2.0188-1.589-4.0765-2.4224-6.0823-2.4224-3.5556,0-6.2384,1.9408-7.9317,5.8086-.4428,.7683-.6121,1.7451-.6122,2.9823Z" fill="#fff"/><path d="M38.5796,109.3073c5.6263,1.3286,8.4525,2.9956,8.4525,5.0274,.5862,.1302,1.1981,1.6278,1.8623,4.4933l-.7945,4.7278c3.5294,0,6.3819,2.5659,8.4137,7.6713l.2734,2.1227c-.6643,4.7667-1.5498,7.1764-2.6439,7.1764-2.1619,2.3051-4.4541,3.4643-6.8768,3.4643h-.7815c-2.7741,0-5.1055-.8204-6.8638-2.4356h-.2604v9.2991l-.7945,.7945h-.2604l-.8204-.7945v-9.5207c-1.8753,1.7713-4.2588,2.6569-7.1243,2.6569h-.5208c-5.5612,0-8.9086-3.4643-10.0415-10.3282,0-3.3992,1.7714-6.3948,5.2486-8.9866,1.68-.7165,2.9435-1.0678,3.6988-1.0678l-.7815-2.3965v-1.3153c0-4.4541,2.1228-7.5929,6.3168-9.5207l4.298-1.0678h.0003Zm-8.7392,10.5886v1.3153l1.0678,3.4513c-.4039,.3517-1.9016,.8204-4.5062,1.3545-3.178,2.1098-4.7537,4.6235-4.7537,7.6713,0,3.3603,1.7584,5.991,5.2878,7.9055,.7032,.3388,1.6671,.5341,2.9043,.5341h.5341c2.9823,0,5.5094-1.3416,7.6713-3.9854h.8204c1.9407,2.6439,4.5325,3.9854,7.658,3.9854h.7815c2.5525,0,4.8451-1.4718,6.8768-4.5192l.7945-4.2329c0-3.5686-2.0709-6.2384-6.2906-7.8925-1.8235-.1302-2.6568-.4949-2.6568-1.0678,.5208-1.9275,.8726-3.8553,1.0027-5.8478-.5341-2.0317-1.3937-3.6988-2.6439-5.0274-2.0188-1.589-4.0635-2.3835-6.0823-2.3835-3.5686,0-6.2384,1.9408-7.9317,5.8086-.3518,.7165-.5341,1.6933-.5341,2.9305Z" fill="#fff"/><path d="M127.3907,109.3073c5.6396,1.3286,8.4266,2.9956,8.4266,5.0274,.6251,.1431,1.2373,1.6278,1.9016,4.5325l-.8204,4.7278c3.5556,0,6.3819,2.5659,8.4396,7.6842l.2733,2.1098c-.6643,4.7667-1.511,7.1764-2.6047,7.1764-2.1619,2.3051-4.4933,3.4643-6.8897,3.4643h-.8204c-2.7741,0-5.0662-.8204-6.8376-2.4224h-.2867v9.2862l-.8075,.7945h-.2345l-.7945-.7945v-9.5336c-1.9016,1.7713-4.2851,2.6569-7.1502,2.6569h-.5208c-5.5611,0-8.9474-3.4643-10.0544-10.3282,0-3.3992,1.8102-6.3948,5.2878-8.9866,1.68-.7165,2.9043-1.0678,3.6988-1.0678l-.7945-2.4224v-1.3153c0-4.4541,2.1228-7.5929,6.3557-9.5207l4.2329-1.0678-.0003-.0007Zm-8.7262,10.5885v1.3153l1.0679,3.4513c-.4039,.3517-1.9016,.8204-4.5455,1.3545-3.1388,2.1098-4.7148,4.6235-4.7148,7.6713,0,3.3603,1.7584,5.991,5.2486,7.9055,.7423,.3388,1.667,.5341,2.9435,.5341h.5208c2.9564,0,5.5094-1.3416,7.6713-3.9854h.8075c1.9796,2.6439,4.5713,3.9854,7.658,3.9854h.7945c2.5659,0,4.858-1.4718,6.8897-4.5192l.7945-4.2329c0-3.5686-2.1098-6.2384-6.3297-7.8925-1.7843-.1302-2.631-.4949-2.631-1.0678,.5862-1.9016,.8988-3.829,1.029-5.8219-.5208-2.0188-1.3545-3.6988-2.6047-5.0274-2.0318-1.589-4.0764-2.4224-6.1212-2.4224-3.5294,0-6.2255,1.9408-7.8925,5.8086-.4039,.7294-.5862,1.7062-.5862,2.9435h.0004Z" fill="#fff"/><path d="M219.6923,109.3073c5.6525,1.3286,8.4658,2.9956,8.4658,5.0274,.5862,.1431,1.1981,1.6278,1.8624,4.5325l-.7945,4.7278c3.5294,0,6.3427,2.5659,8.4136,7.6842l.2734,2.1098c-.7031,4.7667-1.5498,7.1764-2.6439,7.1764-2.1619,2.3051-4.4933,3.4643-6.8897,3.4643h-.7945c-2.8133,0-5.1313-.8204-6.8897-2.4224h-.2733v9.2862l-.7945,.7945h-.2733l-.7945-.7945v-9.5336c-1.9016,1.7713-4.2718,2.6569-7.1502,2.6569h-.5078c-5.6004,0-8.9474-3.4643-10.0677-10.3282,0-3.3992,1.8235-6.3948,5.2878-8.9866,1.68-.7165,2.9305-1.0678,3.7118-1.0678l-.8204-2.3835v-1.3545c0-4.4541,2.1098-7.5929,6.3297-9.5207l4.3502-1.0678-.0003-.0003Zm-8.7262,10.5885v1.3153l1.0419,3.4513c-.3776,.3517-1.9016,.8204-4.5454,1.3545-3.1129,2.1098-4.7148,4.6235-4.7148,7.6713,0,3.3603,1.7584,5.991,5.2486,7.9055,.7553,.3388,1.7192,.5341,2.9694,.5341h.5078c2.9564,0,5.5223-1.3416,7.6842-3.9854h.7945c1.9796,2.6439,4.5976,3.9854,7.7231,3.9854h.7945c2.5658,0,4.858-1.4718,6.8898-4.5192l.7945-4.2329c0-3.5686-2.1098-6.2384-6.2905-7.8925-1.8235-.1302-2.6698-.4949-2.6698-1.0678,.5862-1.9016,.8988-3.829,1.0678-5.8219-.5341-2.0188-1.3937-3.6988-2.6439-5.0274-2.0318-1.589-4.0764-2.4224-6.1345-2.4224-3.5294,0-6.2255,1.9408-7.9055,5.8086-.4298,.7294-.6122,1.7062-.6122,2.9435h.0003Z" fill="#fff"/><path d="M312.0069,109.3073c5.6262,1.3286,8.4396,2.9956,8.4396,5.0274,.5863,.1431,1.1981,1.6278,1.8623,4.5325l-.7945,4.7278c3.5294,0,6.3427,2.5659,8.4137,7.6842l.2734,2.1098c-.7031,4.7667-1.5498,7.1764-2.6439,7.1764-2.1619,2.3051-4.4541,3.4643-6.8897,3.4643h-.7815c-2.8133,0-5.1055-.8204-6.8638-2.4224h-.2734v9.2862l-.7945,.7945h-.2734l-.8074-.7945v-9.5336c-1.9015,1.7713-4.2717,2.6569-7.1502,2.6569h-.5341c-5.5482,0-8.9474-3.4643-10.0415-10.3282,0-3.3992,1.8235-6.3948,5.2878-8.9866,1.68-.7165,2.9043-1.0678,3.7118-1.0678l-.7553-2.4224v-1.3153c0-4.4541,2.1227-7.5929,6.3427-9.5207l4.2717-1.0678,.0003-.0007Zm-8.7521,10.5885v1.3153l1.0678,3.4513c-.4039,.3517-1.9015,.8204-4.5062,1.3545-3.178,2.1098-4.7537,4.6235-4.7537,7.6713,0,3.3603,1.7584,5.991,5.2878,7.9055,.7164,.3388,1.68,.5341,2.9043,.5341h.5341c2.9565,0,5.5223-1.3416,7.6843-3.9854h.8204c1.9407,2.6439,4.5325,3.9854,7.658,3.9854h.7945c2.5659,0,4.858-1.4718,6.8897-4.5192l.7945-4.2329c0-3.5686-2.1098-6.2384-6.2906-7.8925-1.8235-.1302-2.6698-.4949-2.6698-1.0678,.5863-1.9016,.8988-3.829,1.0678-5.8219-.5341-2.0188-1.3937-3.6988-2.6439-5.0274-2.0058-1.589-4.0765-2.4224-6.0823-2.4224-3.5556,0-6.2384,1.9408-7.9317,5.8086-.4557,.7294-.6251,1.7062-.6251,2.9435Z" fill="#fff"/><path d="M38.5796,198.3137c5.6784,1.3416,8.4525,2.9956,8.4525,5.0404,.5862,.1694,1.1981,1.6278,1.8623,4.5325l-.7945,4.7148c3.5294,0,6.3819,2.5526,8.4137,7.658l.2734,2.1227c-.6514,4.7667-1.5369,7.1631-2.631,7.1631-2.1619,2.3051-4.4541,3.4643-6.8768,3.4643h-.7815c-2.7741,0-5.1055-.8204-6.8638-2.4224h-.2604v9.2862l-.8204,.7815h-.2474l-.8204-.7945v-9.5207c-1.8753,1.7584-4.2588,2.6439-7.1243,2.6439h-.5208c-5.5612,0-8.9086-3.4643-10.0415-10.3282,0-3.3992,1.7714-6.3948,5.2486-8.9866,1.6933-.7165,2.9435-1.0678,3.7251-1.0678l-.7945-2.3965v-1.3545c0-4.4019,2.1228-7.5411,6.3168-9.4944l4.285-1.0419Zm-8.7392,10.5756v1.3545l1.0678,3.4513c-.4039,.3384-1.9016,.8204-4.5062,1.3545-3.178,2.1098-4.7537,4.6235-4.7537,7.6713,0,3.3603,1.7584,5.991,5.2878,7.9188,.7032,.3255,1.6671,.5341,2.9043,.5341h.5341c2.9823,0,5.5094-1.3545,7.6713-3.9984h.8204c1.9407,2.6439,4.5325,3.9984,7.658,3.9984h.7815c2.5525,0,4.8451-1.4847,6.8768-4.5325l.7945-4.2329c0-3.5686-2.0709-6.2384-6.2906-7.8796-1.8235-.1432-2.6568-.4949-2.6568-1.0678,.573-1.9016,.9247-3.8419,1.0549-5.8219-.5341-2.0059-1.3937-3.6988-2.6439-5.0274-2.0188-1.589-4.0635-2.4094-6.0823-2.4094-3.5686,0-6.2384,1.9145-7.9317,5.7956-.4039,.6902-.5863,1.667-.5863,2.8913Z" fill="#fff"/><path d="M127.3907,198.3137c5.6396,1.3416,8.4266,2.9956,8.4266,5.0404,.6251,.1694,1.2373,1.6278,1.9016,4.5325l-.7945,4.7148c3.5556,0,6.3819,2.5526,8.4396,7.658l.2733,2.1227c-.6643,4.7667-1.511,7.1764-2.6047,7.1764-2.1619,2.3051-4.4933,3.4643-6.8897,3.4643h-.8204c-2.7741,0-5.0662-.8204-6.8376-2.4224h-.3125v9.2862l-.8075,.7945h-.2345l-.7945-.7945v-9.5207c-1.9016,1.7714-4.2851,2.6569-7.1502,2.6569h-.5208c-5.5611,0-8.9474-3.4643-10.0544-10.3282,0-3.3992,1.8102-6.3948,5.2878-8.9866,1.68-.7553,2.9043-1.107,3.6988-1.107l-.8204-2.3965v-1.3545c0-4.4019,2.1228-7.5411,6.3557-9.4944l4.2588-1.0419h-.0003Zm-8.7262,10.5756v1.3545l1.0679,3.4513c-.4039,.3384-1.9016,.8204-4.5455,1.3545-3.1388,2.1098-4.7148,4.6235-4.7148,7.6713,0,3.3603,1.7584,5.991,5.2486,7.9188,.7423,.3255,1.667,.5341,2.9435,.5341h.5208c2.9564,0,5.5094-1.3545,7.6713-3.9984h.8075c1.9796,2.6439,4.5713,3.9984,7.658,3.9984h.7945c2.5659,0,4.858-1.4847,6.8897-4.5325l.7945-4.2329c0-3.5686-2.1098-6.2384-6.3297-7.8796-1.7843-.1432-2.631-.4949-2.631-1.0678,.5862-1.9016,.8988-3.8419,1.029-5.8219-.5208-2.0059-1.3545-3.6988-2.6047-5.0274-2.0318-1.589-4.0764-2.4094-6.1212-2.4094-3.5294,0-6.2255,1.9145-7.8925,5.7956-.4039,.6902-.5862,1.667-.5862,2.8913h.0004Z" fill="#fff"/><path d="M219.6923,198.3137c5.6525,1.3416,8.4658,2.9956,8.4658,5.0404,.5862,.1694,1.1981,1.6278,1.8624,4.5325l-.7945,4.7148c3.5294,0,6.3427,2.5526,8.4136,7.658l.2734,2.1227c-.7031,4.7667-1.5498,7.1764-2.6439,7.1764-2.1619,2.3051-4.4933,3.4643-6.8897,3.4643h-.7945c-2.8133,0-5.1313-.8204-6.8897-2.4224h-.2733v9.2862l-.7945,.7945h-.2733l-.7945-.7945v-9.5207c-1.9016,1.7714-4.2718,2.6569-7.1502,2.6569h-.5078c-5.6004,0-8.9474-3.4643-10.0677-10.3282,0-3.3992,1.8235-6.3948,5.2878-8.9866,1.68-.7165,2.9305-1.0549,3.7118-1.0549l-.8204-2.3965v-1.3545c0-4.4153,2.1098-7.554,6.3297-9.4944l4.3502-1.0941h-.0003Zm-8.7262,10.5756v1.3545l1.0419,3.4513c-.3776,.3384-1.9016,.8204-4.5454,1.3545-3.1129,2.1098-4.7148,4.6235-4.7148,7.6713,0,3.3603,1.7584,5.991,5.2486,7.9188,.7553,.3255,1.7192,.5341,2.9694,.5341h.5078c2.9564,0,5.5223-1.3545,7.6842-3.9984h.7945c1.9796,2.6439,4.5976,3.9984,7.7231,3.9984h.7945c2.5658,0,4.858-1.4847,6.8898-4.5325l.7945-4.2329c0-3.5686-2.1098-6.2384-6.2905-7.8796-1.8235-.1432-2.6698-.4949-2.6698-1.0678,.5862-1.9016,.8988-3.8419,1.0678-5.8219-.5341-2.0059-1.3937-3.6988-2.6439-5.0274-2.0318-1.589-4.0764-2.4094-6.1345-2.4094-3.5294,0-6.2255,1.9145-7.9055,5.7956-.4298,.6902-.6122,1.667-.6122,2.8913h.0003Z" fill="#fff"/><path d="M312.0069,198.3137c5.6262,1.3416,8.4396,2.9956,8.4396,5.0404,.5863,.1694,1.1981,1.6278,1.8623,4.5325l-.7945,4.7148c3.5294,0,6.3427,2.5526,8.4137,7.658l.2734,2.1227c-.6643,4.7667-1.5369,7.1502-2.631,7.1502-2.1619,2.3051-4.4541,3.4643-6.8897,3.4643h-.7945c-2.8133,0-5.1055-.8204-6.8638-2.4224h-.2734v9.2862l-.7945,.7945h-.2734l-.8074-.7945v-9.5207c-1.9015,1.7714-4.2717,2.6569-7.1502,2.6569h-.5341c-5.5482,0-8.9474-3.4643-10.0415-10.3282,0-3.3992,1.8235-6.3948,5.2878-8.9866,1.68-.7165,2.9043-1.0549,3.7118-1.0549l-.8204-2.3965v-1.3545c0-4.4153,2.136-7.554,6.3557-9.4944l4.3239-1.0678h.0003Zm-8.7521,10.5756v1.3545l1.0678,3.4513c-.4039,.3384-1.9015,.8204-4.5062,1.3545-3.178,2.1098-4.7537,4.6235-4.7537,7.6713,0,3.3603,1.7584,5.991,5.2878,7.9188,.7164,.3255,1.68,.5341,2.9043,.5341h.5341c2.9565,0,5.5223-1.3545,7.6843-3.9984h.8204c1.9407,2.6439,4.5325,3.9984,7.658,3.9984h.7945c2.5659,0,4.858-1.4847,6.8897-4.5325l.7945-4.2329c0-3.5686-2.1098-6.2384-6.2906-7.8796-1.8235-.1432-2.6698-.4949-2.6698-1.0678,.5863-1.9016,.8988-3.8419,1.0678-5.8219-.5341-2.0059-1.3937-3.6988-2.6439-5.0274-2.0058-1.589-4.0765-2.4094-6.0823-2.4094-3.5556,0-6.2384,1.9145-7.9317,5.7956-.4557,.6902-.6251,1.667-.6251,2.8913Z" fill="#fff"/><path d="M38.5796,290.1201c5.6784,1.3545,8.4525,2.9957,8.4525,5.0533,.5862,.1565,1.1981,1.6279,1.8623,4.5192l-.7945,4.7278c3.5294,0,6.3819,2.5137,8.4137,7.658l.3126,2.1098c-.6643,4.7278-1.5498,7.1372-2.6439,7.1372-2.1619,2.3051-4.4541,3.4643-6.8768,3.4643h-.8074c-2.7741,0-5.1055-.8074-6.8638-2.3965h-.2604v9.2599l-.8074,.7945h-.2604l-.8204-.7945v-9.5207c-1.8753,1.7714-4.2588,2.6569-7.1243,2.6569h-.5208c-5.5612,0-8.9086-3.4643-10.0415-10.3281,0-3.3992,1.7714-6.3949,5.2486-8.9737,1.68-.7294,2.9435-1.029,3.6988-1.029l-.7945-2.4356v-1.3286c0-4.4019,2.1228-7.58,6.3168-9.5074l4.3109-1.0678v.001Zm-8.7392,10.5756v1.3286l1.0678,3.4643c-.4039,.3255-1.9016,.8204-4.5062,1.3545-3.178,2.1098-4.7537,4.6627-4.7537,7.6713,0,3.3603,1.7584,5.991,5.2878,7.9317,.7032,.3126,1.6671,.5341,2.9043,.5341h.5341c2.9823,0,5.5094-1.3545,7.6713-4.0114h.8204c1.9407,2.6439,4.5325,4.0114,7.658,4.0114h.7815c2.5525,0,4.8451-1.4977,6.8768-4.5454l.7815-4.22c0-3.6078-2.0709-6.2647-6.2906-7.9187-1.8235-.1565-2.6698-.5079-2.6698-1.0811,.573-1.9015,.9247-3.842,1.0549-5.8219-.5341-1.9796-1.3937-3.6988-2.6439-5.0274-2.0188-1.589-4.0764-2.3835-6.0823-2.3835-3.5686,0-6.2384,1.9015-7.9317,5.7697-.3777,.7423-.56,1.7063-.56,2.9435l-.0003,.0003Z" fill="#fff"/><path d="M127.3907,290.1201c5.6396,1.3545,8.4266,2.9957,8.4266,5.0533,.6251,.1565,1.2373,1.6279,1.9016,4.5192l-.8204,4.7667c3.5556,0,6.3819,2.5137,8.4396,7.658l.2733,2.1227c-.6643,4.7278-1.511,7.1372-2.6047,7.1372-2.1619,2.3051-4.4933,3.4643-6.8897,3.4643h-.8204c-2.7741,0-5.0662-.8074-6.8376-2.3965h-.2867v9.2599l-.8075,.7945h-.2345l-.7945-.7945v-9.5728c-1.9016,1.7714-4.2851,2.6569-7.1502,2.6569h-.5208c-5.5611,0-8.9474-3.4643-10.0544-10.3281,0-3.3992,1.8102-6.3949,5.2878-8.9736,1.68-.7294,2.9043-1.029,3.6988-1.029l-.8204-2.4356v-1.3286c0-4.4019,2.1228-7.58,6.3557-9.5074l4.2588-1.0678-.0003,.0014Zm-8.7262,10.5756v1.3286l1.0679,3.4643c-.4039,.3255-1.9016,.8204-4.5455,1.3545-3.1388,2.1098-4.7148,4.6627-4.7148,7.6713,0,3.3603,1.7584,5.991,5.2486,7.9317,.7423,.3126,1.667,.5341,2.9435,.5341h.5208c2.9564,0,5.5094-1.3545,7.6713-4.0114h.8075c1.9796,2.6439,4.5713,4.0114,7.658,4.0114h.7945c2.5659,0,4.858-1.4977,6.8897-4.5454l.7945-4.2458c0-3.6078-2.1098-6.2647-6.3297-7.9187-1.7843-.1432-2.631-.4949-2.631-1.0678,.5862-1.9015,.8988-3.842,1.029-5.8219-.5208-1.9796-1.3545-3.6988-2.6047-5.0274-2.0318-1.589-4.0764-2.3835-6.1212-2.3835-3.5294,0-6.2255,1.9015-7.8925,5.7697-.4039,.7553-.5862,1.7192-.5862,2.9565h.0004Z" fill="#fff"/><path d="M219.6923,290.1201c5.6525,1.3545,8.4658,2.9957,8.4658,5.0533,.5862,.1565,1.1981,1.6279,1.8624,4.5192l-.7945,4.7667c3.5294,0,6.3427,2.5137,8.4136,7.658l.2734,2.1227c-.7031,4.7278-1.5498,7.1372-2.6439,7.1372-2.1619,2.3051-4.4933,3.4643-6.8897,3.4643h-.7945c-2.8133,0-5.1313-.8074-6.8897-2.3965h-.2733v9.2599l-.7945,.7945h-.2733l-.7945-.7945v-9.5728c-1.9016,1.7714-4.2718,2.6569-7.1502,2.6569h-.5078c-5.6004,0-8.9474-3.4643-10.0677-10.3281,0-3.3992,1.8235-6.3949,5.2878-8.9736,1.68-.7294,2.9305-1.029,3.7118-1.029l-.8204-2.4356v-1.3286c0-4.4019,2.1098-7.58,6.3297-9.5074l4.3502-1.0678-.0003,.0014Zm-8.7262,10.5756v1.3286l1.0419,3.4643c-.3776,.3255-1.9016,.8204-4.5454,1.3545-3.1129,2.1098-4.7148,4.6627-4.7148,7.6713,0,3.3603,1.7584,5.991,5.2486,7.9317,.7553,.3126,1.7192,.5341,2.9694,.5341h.5078c2.9564,0,5.5223-1.3545,7.6842-4.0114h.7945c1.9796,2.6439,4.5976,4.0114,7.7231,4.0114h.7945c2.5658,0,4.858-1.4977,6.8898-4.5454l.7945-4.1937c0-3.6078-2.1098-6.2647-6.2905-7.9187-1.8235-.1432-2.6698-.4949-2.6698-1.0678,.5862-1.9015,.8988-3.842,1.0678-5.8219-.5341-1.9796-1.3937-3.6859-2.6439-5.0274-2.0318-1.589-4.0764-2.3835-6.1345-2.3835-3.5294,0-6.2255,1.9015-7.9055,5.7697-.4298,.7035-.6122,1.6671-.6122,2.9043h.0003Z" fill="#fff"/><path d="M312.0069,290.1201c5.6262,1.3545,8.4396,2.9957,8.4396,5.0533,.5863,.1565,1.1981,1.6279,1.8623,4.5192l-.7945,4.7667c3.5294,0,6.3427,2.5137,8.4137,7.658l.2734,2.1227c-.6643,4.7278-1.5369,7.1113-2.631,7.1113-2.1619,2.3051-4.4541,3.4643-6.8897,3.4643h-.7945c-2.8133,0-5.1055-.8074-6.8638-2.3965h-.2734v9.2599l-.7945,.7945h-.2734l-.8074-.7945v-9.5466c-1.9015,1.7714-4.2717,2.6569-7.1502,2.6569h-.5341c-5.5482,0-8.9474-3.4643-10.0415-10.3281,0-3.3992,1.8235-6.3949,5.2878-8.9737,1.68-.7294,2.9043-1.029,3.7118-1.029l-.8204-2.4356v-1.3286c0-4.4019,2.136-7.58,6.3557-9.5074l4.3239-1.0678,.0003,.001Zm-8.7521,10.5756v1.3286l1.0678,3.4643c-.4039,.3255-1.9015,.8204-4.5062,1.3545-3.178,2.1098-4.7537,4.6627-4.7537,7.6713,0,3.3603,1.7584,5.991,5.2878,7.9317,.7164,.3126,1.68,.5341,2.9043,.5341h.5341c2.9565,0,5.5223-1.3545,7.6843-4.0114h.8204c1.9407,2.6439,4.5325,4.0114,7.658,4.0114h.7945c2.5659,0,4.858-1.4977,6.8897-4.5454l.7945-4.1937c0-3.6078-2.1098-6.2647-6.2906-7.9187-1.8235-.1432-2.6698-.4949-2.6698-1.0678,.5863-1.9015,.8988-3.842,1.0678-5.8219-.5341-1.9796-1.3937-3.6859-2.6439-5.0274-2.0058-1.589-4.0765-2.3835-6.0823-2.3835-3.5556,0-6.2384,1.9015-7.9317,5.7697-.4557,.7035-.6251,1.6671-.6251,2.9043h0Z" fill="#fff"/></svg>