<?xml version="1.0" encoding="UTF-8"?><svg id="Layer_2" xmlns="http://www.w3.org/2000/svg" width="350" height="350" viewBox="0 0 350 350"><g id="NonConTrees"><g id="roughGrassAndNonconiferousTreesFillSymbol"><g id="nonconiferousTreesFillSymbol"><g id="nonconiferousTreeFillSymbol"><g id="nonconiferousTreeGeometry"><path d="M181.1177,38.483h-.5695l-1.2138-4.8545c-.8137,.868-1.9663,1.3762-3.1731,1.3762-.9016,0-1.7762-.2779-2.5155-.8001-.9559-.6713-1.5866-1.6747-1.7832-2.8273s.0609-2.2985,.7322-3.2476c.2849-.4067,.6307-.7525,1.0441-1.044-.5355-.7931-.7595-1.7427-.644-2.6985,.1288-1.0644,.6643-2.0206,1.512-2.6848,.6916-.5425,1.505-.8407,2.373-.861,.4543-1.7965,2.0814-3.0782,3.9459-3.0782,.2643,0,.5289,.0269,.7865,.0812,1.5729,.2982,2.8,1.4644,3.1867,2.9967,2.1357,.0609,3.8374,1.7427,3.9119,3.8916,.027,.834-.2104,1.6611-.6779,2.3663,1.8442,1.3086,2.4003,3.851,1.2138,5.8103-.7865,1.295-2.2172,2.1087-3.7289,2.1087-.7931,0-1.5729-.2236-2.2578-.6373-.3321-.1967-.651-.4477-.9223-.7392l-1.2205,4.8408,.0003,.0007Zm-1.512-6.1971l1.2271,4.9087,1.2271-4.9021,.3727,.5289c.2982,.427,.6916,.7931,1.1256,1.044,.5897,.3595,1.2677,.5558,1.9526,.5558,1.3087,0,2.5494-.6983,3.2274-1.8239,1.0713-1.7763,.4949-4.102-1.2814-5.18l-.2849-.1764,.2034-.2643c.5015-.6373,.7595-1.4374,.7389-2.2375-.0609-1.8305-1.6002-3.3222-3.4307-3.3222l-.3661,.0067-.0476-.244c-.2712-1.4101-1.3559-2.5018-2.7731-2.773-.2236-.0406-.4476-.0609-.6779-.0609-1.6678,0-3.1052,1.1931-3.424,2.834l-.0476,.244-.3525-.0067c-.7728,0-1.512,.2576-2.129,.7392-.7185,.5628-1.1799,1.3762-1.2883,2.2848s.1424,1.8102,.7052,2.5291l.2034,.2643-.2779,.1764c-.4543,.2849-.8407,.6373-1.1323,1.0577-.5831,.827-.8067,1.8239-.6373,2.8137s.7185,1.8578,1.539,2.4409c.644,.4477,1.3969,.6916,2.1763,.6916,1.2271,0,2.3797-.5967,3.0783-1.6002l.3727-.5289,.001,.0004Z" fill="#fff"/></g></g><g id="smallNonconiferousTreeFillSymbol"><path d="M194.1083,47.9684l-.5491-2.1833c-.7798,.6643-2.0002,.7392-2.8542,.1221-.5086-.3525-.8473-.8883-.9559-1.505-.1085-.6101,.027-1.2271,.3864-1.7357,.1424-.1831,.2849-.3391,.4476-.4746-.5222-.9086-.3118-2.1018,.5355-2.7797,.3392-.2642,.7459-.427,1.1662-.4543,.3118-1.0304,1.3762-1.7087,2.5018-1.5256,.8204,.1694,1.4578,.7595,1.695,1.5256,1.0846,.1151,1.9324,.9968,1.973,2.0748,.0136,.4137-.0948,.8068-.2779,1.1525,.8883,.7119,1.1389,2.0069,.5289,3.017-.427,.7052-1.1799,1.1322-1.9866,1.1322-.427,0-.8473-.1151-1.2138-.3391-.1085-.0679-.2104-.1424-.3052-.217l-.5425,2.1833-.5492,.0067Zm-.2576-3.4713l.5425,2.1833,.5491-2.2036,.3727,.5355c.1288,.1831,.3118,.3595,.5289,.4882,.2712,.1628,.5764,.251,.8949,.251,.6101,0,1.1799-.3185,1.4984-.8473,.4882-.8271,.2236-1.8917-.5968-2.3867l-.2982-.1694,.2104-.2642c.217-.2982,.3458-.651,.3458-1.0237-.0406-.8341-.7389-1.5186-1.5799-1.5186h-.2373l-.1018-.2373c-.1222-.644-.6237-1.1459-1.2814-1.2814-.0882-.0136-.1764-.0203-.2712-.0203-.7865,0-1.4578,.5558-1.5932,1.3087l-.0476,.251-.2646-.0136h0c-.3934,0-.7459,.1221-1.0237,.3391-.6713,.5355-.7931,1.5256-.2643,2.2036l.2034,.2642-.2849,.1694c-.1897,.1151-.3727,.2849-.5289,.4882-.2643,.3727-.3661,.8341-.2849,1.2884,.0812,.4543,.3321,.8543,.7119,1.1256,.7525,.5425,1.8848,.3391,2.4273-.4137l.3727-.5152,.0007-.0011Z" fill="#fff"/></g></g></g></g><g id="NonConTrees-2"><g id="roughGrassAndNonconiferousTreesFillSymbol-2"><g id="nonconiferousTreesFillSymbol-2"><g id="nonconiferousTreeFillSymbol-2"><g id="nonconiferousTreeGeometry-2"><path d="M296.1278,38.2184h-.5694l-1.2205-4.8545c-.8067,.868-1.9593,1.3762-3.1731,1.3762-.9016,0-1.7762-.2779-2.5154-.8001-1.9593-1.3898-2.4272-4.1156-1.0441-6.075,.2712-.3934,.6373-.7525,1.0304-1.044-1.1389-1.729-.7798-4.0817,.8813-5.3834,.678-.5355,1.512-.8407,2.3664-.861,.5289-2.0475,2.5697-3.4307,4.7394-2.9967,1.5593,.2982,2.7934,1.4644,3.1867,2.9967,2.129,.0609,3.8307,1.7426,3.8986,3.8917,.0273,.834-.21,1.6611-.678,2.3663,1.8375,1.3086,2.4003,3.8444,1.2205,5.8103-.7865,1.295-2.2172,2.1087-3.7359,2.1087-.7865,0-1.5663-.2236-2.2508-.6373-.3458-.1967-.644-.4477-.9222-.7389l-1.2138,4.8409h0Zm-1.5186-6.2038l1.2341,4.9088,1.2341-4.8951,.3797,.5222c.3119,.4406,.7052,.7931,1.1323,1.0511,.5898,.3595,1.2747,.5558,1.939,.5558,1.3017,0,2.5561-.6983,3.241-1.8239,1.0713-1.7763,.4949-4.102-1.2747-5.18l-.2915-.1694,.21-.2643c.4883-.6373,.7458-1.4374,.7185-2.2375-.0679-1.8645-1.5526-3.3222-3.4307-3.3222l-.3797,.0067-.0406-.244c-.2646-1.4101-1.3629-2.5018-2.7664-2.773-1.8917-.3594-3.7495,.9016-4.095,2.773l-.0476,.244-.3661-.0067c-.7595,0-1.5323,.2643-2.1221,.7392-1.4917,1.1662-1.756,3.3288-.5898,4.8139l.1897,.2576-.2915,.1764c-.434,.2779-.827,.644-1.1256,1.0577-1.1931,1.6951-.7798,4.0544,.9222,5.2545,.6373,.4543,1.3899,.6916,2.163,.6916,1.2341,0,2.3867-.5967,3.0713-1.6002l.3864-.5355v-.0007Z" fill="#fff"/></g></g><g id="smallNonconiferousTreeFillSymbol-2"><path d="M309.1184,47.7038l-.5355-2.1833c-.7931,.6643-2.0069,.7392-2.8612,.1288-1.0441-.7392-1.295-2.1899-.5628-3.241,.1425-.1831,.2849-.3391,.4407-.468-.5222-.9153-.3185-2.1087,.5289-2.7797,.3525-.2642,.7525-.4204,1.1662-.4543,.3185-1.0374,1.322-1.722,2.5018-1.5256,.8204,.1694,1.4714,.7525,1.695,1.5256,1.0983,.1151,1.946,.9968,1.9866,2.0748,.0136,.4137-.0948,.8068-.2915,1.1525,.8883,.7119,1.1389,2.0069,.5425,3.017-.427,.7052-1.1798,1.1322-2.0003,1.1322-.427,0-.834-.1151-1.2068-.3391-.1151-.0679-.1967-.1424-.3119-.2236l-.5222,2.1833h-.5694v.0003Zm-.2576-3.4646l.5425,2.1763,.5425-2.1899,.3727,.5289c.1425,.1831,.3322,.3595,.5289,.4882,.2779,.1628,.5831,.251,.9016,.251,.6101,0,1.1662-.3185,1.4917-.8473,.4812-.8271,.217-1.8917-.6034-2.3867l-.2779-.1694,.1967-.2642c.2307-.2982,.3594-.651,.3458-1.0237-.0273-.8407-.7458-1.5256-1.5866-1.5256h-.2373l-.1018-.2373c-.1221-.644-.6373-1.1459-1.2813-1.2814-.0882-.0136-.1694-.0203-.2646-.0203-.7798,0-1.4644,.5558-1.6002,1.3087l-.0406,.251-.251-.0066h-.0136c-.3934,0-.7185,.1221-1.0034,.3391-.6916,.5355-.7931,1.5256-.2646,2.2036l.2033,.2642-.3052,.1628c-.183,.1151-.3727,.2849-.5289,.4949-.5425,.7728-.3594,1.8578,.434,2.4136,.7255,.5425,1.8644,.3322,2.4069-.4137l.3934-.5152,.0003-.0007Z" fill="#fff"/></g></g></g></g><g id="NonConTrees-3"><g id="roughGrassAndNonconiferousTreesFillSymbol-3"><g id="nonconiferousTreesFillSymbol-3"><g id="nonconiferousTreeFillSymbol-3"><g id="nonconiferousTreeGeometry-3"><path d="M255.4473,92.459h-.5694l-1.2205-4.8545c-.8067,.868-1.9593,1.3762-3.1731,1.3762-.9016,0-1.7762-.2779-2.5154-.8001-1.9593-1.3899-2.4272-4.1156-1.0441-6.075,.2712-.3934,.6373-.7525,1.0304-1.044-1.1389-1.729-.7798-4.0817,.8813-5.3833,.678-.5355,1.512-.8407,2.3664-.861,.5289-2.0475,2.5697-3.451,4.7394-2.9967,1.5593,.2982,2.7934,1.4644,3.1867,2.9967,2.129,.0609,3.8307,1.7427,3.8986,3.8917,.0273,.8341-.21,1.6611-.678,2.3663,1.8375,1.3086,2.4003,3.8444,1.2205,5.8104-.7865,1.295-2.2172,2.1088-3.7359,2.1088-.7865,0-1.5663-.2236-2.2508-.6374-.3458-.1967-.651-.4476-.9289-.7392l-1.2068,4.8409-.0004,.0003Zm-1.5186-6.2038l1.2341,4.9088,1.2341-4.8951,.3797,.5222c.3119,.4407,.7052,.7931,1.1323,1.0511,.5898,.3594,1.2747,.5558,1.939,.5558,1.3017,0,2.5561-.6982,3.241-1.8238,1.0713-1.7762,.4949-4.102-1.2747-5.18l-.2915-.1694,.21-.2643c.4883-.6374,.7458-1.4374,.7185-2.2375-.0679-1.8644-1.5526-3.3222-3.4307-3.3222l-.3797,.0066-.0406-.244c-.2646-1.4102-1.3629-2.5018-2.7664-2.773-1.8984-.3797-3.7359,.9086-4.095,2.773l-.0476,.244-.3661-.0066c-.7595,0-1.5323,.2643-2.1221,.7392-1.4917,1.1662-1.756,3.3288-.5898,4.8139l.1897,.2576-.2712,.1764c-.4476,.2779-.8407,.644-1.1459,1.0577-1.1931,1.6951-.7728,4.0544,.9289,5.2546,.6373,.4543,1.3899,.6916,2.156,.6916,1.2407,0,2.3933-.5967,3.0713-1.6002l.3864-.5355,.0003-.0007Z" fill="#fff"/></g></g><g id="smallNonconiferousTreeFillSymbol-3"><path d="M268.4379,101.9443l-.5355-2.1833c-.7931,.6643-2.0069,.7322-2.8612,.1222-1.0441-.7392-1.295-2.1899-.5628-3.241,.1425-.183,.2849-.3392,.4407-.4679-.5222-.9152-.3185-2.1088,.5289-2.7797,.3525-.2643,.7525-.4204,1.1662-.4543,.3185-1.0374,1.3356-1.722,2.5018-1.5256,.8204,.1694,1.4714,.7525,1.695,1.5256,1.0983,.1151,1.946,.9968,1.9866,2.0748,.0136,.4137-.0948,.8067-.2915,1.1525,.8883,.7119,1.1389,2.0069,.5425,3.017-.427,.7052-1.1798,1.1322-2.0003,1.1322-.427,0-.834-.1151-1.2068-.3392-.1151-.0679-.1967-.1425-.3119-.2236l-.5425,2.1833-.5491,.0066v.0004Zm-.2576-3.4647l.5425,2.1763,.5425-2.1899,.3727,.5289c.1425,.183,.3322,.3594,.5289,.4882,.2779,.1627,.5831,.2509,.9016,.2509,.6101,0,1.1662-.3185,1.4917-.8473,.4812-.827,.217-1.8918-.6034-2.3867l-.2779-.1694,.1967-.2643c.2307-.2982,.3594-.651,.3458-1.0237-.0273-.8341-.7255-1.5187-1.5663-1.5187h-.2373l-.1018-.2373c-.1354-.644-.6373-1.1459-1.2747-1.2814-.1018-.0137-.183-.0203-.2779-.0203-.7798,0-1.4644,.5558-1.5866,1.3086l-.0543,.2509-.251-.0066h0c-.4067,0-.7322,.1222-1.0171,.3392-.678,.5355-.7931,1.5256-.2646,2.2036l.1967,.2643-.3119,.1561c-.183,.1151-.3727,.2849-.5289,.4949-.5425,.7728-.3594,1.8578,.434,2.4136,.7322,.5425,1.8578,.3322,2.4069-.4137l.3934-.5152v-.001Z" fill="#fff"/></g></g></g></g><g id="NonConTrees-4"><g id="roughGrassAndNonconiferousTreesFillSymbol-4"><g id="nonconiferousTreesFillSymbol-4"><g id="nonconiferousTreeFillSymbol-4"><g id="nonconiferousTreeGeometry-4"><path d="M79.1659,106.2091h-.5695l-1.2138-4.8545c-.8138,.868-1.9663,1.3762-3.1731,1.3762-.9016,0-1.7762-.2779-2.5155-.8001-.9558-.6713-1.5866-1.6748-1.7833-2.8273s.0609-2.2985,.7322-3.2477c.2849-.4067,.6307-.7525,1.044-1.044-.5355-.7931-.7595-1.7427-.644-2.6985,.1288-1.0644,.6643-2.0205,1.512-2.6848,.6916-.5425,1.505-.8407,2.373-.861,.4543-1.7965,2.0814-3.0782,3.9459-3.0782,.2643,0,.5289,.0269,.7865,.0812,1.5729,.2982,2.8,1.4644,3.1867,2.9967,2.1357,.0609,3.8374,1.7427,3.912,3.8917,.0269,.8341-.2104,1.6611-.678,2.3663,1.8441,1.3086,2.4003,3.851,1.2138,5.8103-.7931,1.2883-2.2239,2.1018-3.7359,2.1018-.7931,0-1.5729-.2236-2.2578-.6374-.3322-.1967-.651-.4476-.9223-.7392l-1.2138,4.8478,.0007,.0007Zm-1.512-6.1971l1.2271,4.9088,1.2271-4.9021,.3728,.5289c.2982,.427,.6916,.7931,1.1256,1.044,.5898,.3594,1.2677,.5558,1.9526,.5558,1.3086,0,2.5494-.6982,3.2274-1.8238,1.0714-1.7762,.4949-4.102-1.2814-5.18l-.2849-.1694,.2033-.2643c.5019-.6374,.7595-1.4374,.7392-2.2375-.0609-1.8305-1.6002-3.3222-3.4307-3.3222l-.3661,.0066-.0476-.244c-.2712-1.4102-1.3559-2.5018-2.773-2.773-.2236-.0406-.4476-.0609-.678-.0609-1.6677,0-3.1052,1.1932-3.4241,2.834l-.0476,.244-.3525-.0066c-.7728,0-1.512,.2576-2.129,.7392-.7185,.5628-1.1798,1.3762-1.2883,2.2848s.1425,1.8102,.7052,2.5291l.2033,.2643-.2849,.1694c-.4543,.2849-.8407,.6374-1.1322,1.0577-.5831,.827-.8067,1.8238-.6374,2.8136s.7185,1.8578,1.5389,2.4409c.644,.4476,1.3968,.6916,2.1763,.6916,1.2271,0,2.3796-.5967,3.0782-1.6002l.3797-.5289,.0007,.0003Z" fill="#fff"/></g></g><g id="smallNonconiferousTreeFillSymbol-4"><path d="M92.1565,115.7011l-.5492-2.1833c-.7865,.6643-2.0003,.7392-2.8543,.1222-.5085-.3525-.8473-.8883-.9558-1.505-.1085-.61,.0269-1.2271,.3864-1.7356,.1425-.183,.2849-.3392,.4476-.4746-.5222-.9086-.3118-2.1018,.5355-2.7797,.3392-.2643,.7459-.4204,1.1662-.4543,.3118-1.0374,1.3899-1.6951,2.5018-1.5256,.827,.1694,1.4644,.7595,1.6951,1.5256,1.1119,.1085,1.939,.9832,1.98,2.0748,.0137,.4137-.0882,.8001-.2915,1.1525,.8949,.7119,1.1459,2.0003,.5425,3.017-.427,.7052-1.1729,1.1322-1.9932,1.1322-.4204,0-.8407-.1151-1.2001-.3392-.1085-.0679-.2104-.1425-.3052-.217l-.5425,2.1833-.5628,.0066h-.0003Zm-.2576-3.4713l.5425,2.1833,.5492-2.2036,.3728,.5355c.1288,.183,.3118,.3594,.5222,.4882,.2712,.1627,.5764,.2509,.8949,.2509,.6171,0,1.1729-.3185,1.4917-.8473,.4882-.827,.2236-1.8918-.5967-2.3867l-.2849-.1694,.2104-.2643c.2373-.2982,.3525-.6577,.3458-1.0237-.034-.8341-.7392-1.5187-1.5799-1.5187h-.244l-.0948-.244c-.1222-.644-.6237-1.1459-1.2747-1.2814-.0882-.0137-.1764-.0203-.2712-.0203-.7865,0-1.4578,.5558-1.5932,1.3086l-.0476,.2509-.2779-.0066h0c-.3934,0-.7459,.1222-1.0237,.3392-.6713,.5355-.7931,1.5256-.2643,2.2036l.2033,.2643-.2849,.1694c-.1897,.1151-.3728,.2849-.5289,.4882-.2643,.3728-.3661,.8341-.2849,1.2883,.0812,.4543,.3322,.8544,.7119,1.1256,.7525,.5425,1.8847,.3392,2.4273-.4137l.3797-.5152v-.0014Z" fill="#fff"/></g></g></g></g><g id="NonConTrees-5"><g id="roughGrassAndNonconiferousTreesFillSymbol-5"><g id="nonconiferousTreesFillSymbol-5"><g id="nonconiferousTreeFillSymbol-5"><g id="nonconiferousTreeGeometry-5"><path d="M45.2656,173.1483h-.5694l-1.2138-4.8545c-.8138,.868-1.9663,1.3762-3.1731,1.3762-.9016,0-1.7762-.2779-2.5155-.8001-.9558-.6713-1.5865-1.6748-1.7832-2.8273-.1967-1.1459,.0609-2.2985,.7322-3.2476,.2849-.4067,.6307-.7525,1.044-1.0441-.5355-.7931-.7595-1.7427-.644-2.6985,.1288-1.0644,.6643-2.0206,1.512-2.6849,.6916-.5425,1.505-.8407,2.373-.861,.4543-1.7966,2.0814-3.0783,3.9459-3.0783,.2642,0,.5289,.027,.7864,.0812,1.5729,.2982,2.8,1.4644,3.1867,2.9967,2.1018,.0609,3.8444,1.7832,3.9119,3.8917,.0269,.8341-.2103,1.6611-.6779,2.3664,1.8442,1.3087,2.4003,3.851,1.2138,5.8103-.7864,1.295-2.2173,2.1088-3.7289,2.1088-.7931,0-1.5729-.2236-2.2578-.6373-.3391-.2034-.651-.4543-.9289-.7459l-1.2138,4.8479,.0003,.0003Zm-1.512-6.1971l1.2271,4.9088,1.2271-4.9021,.3727,.5289c.2982,.427,.6916,.7931,1.1256,1.0441,.5897,.3594,1.2677,.5558,1.9527,.5558,1.3087,0,2.5494-.7052,3.2274-1.8238,1.0713-1.7762,.4949-4.102-1.2814-5.18l-.2849-.1694,.2033-.2643c.5016-.6373,.7595-1.4375,.7392-2.2376-.0609-1.8305-1.6002-3.3222-3.4307-3.3222l-.3661,.0066-.0476-.2439c-.2713-1.4102-1.3559-2.5018-2.7731-2.7731-.2236-.0406-.4477-.0609-.6779-.0609-1.6677,0-3.1052,1.1932-3.4241,2.834l-.0476,.2439h-.3525c-.7728,0-1.512,.2576-2.1291,.7389-.7186,.5628-1.1799,1.3762-1.2884,2.2848s.1424,1.8102,.7052,2.5291l.2033,.2643-.2849,.1694c-.4543,.2849-.8407,.6373-1.1322,1.0577-.5831,.8271-.8068,1.8238-.6374,2.8137s.7186,1.8578,1.539,2.4409c.644,.4476,1.3969,.6916,2.1763,.6916,1.2271,0,2.3797-.5968,3.0783-1.6002l.3797-.5355,.0007,.0007Z" fill="#fff"/></g></g><g id="smallNonconiferousTreeFillSymbol-5"><path d="M58.2562,182.6337l-.5492-2.1763c-.7798,.6713-2.0002,.7322-2.8543,.1288-.5016-.3594-.8407-.8813-.9492-1.512-.1085-.6101,.0269-1.2271,.3864-1.7356,.1424-.183,.2849-.3392,.4477-.4746-.5222-.9086-.3118-2.1017,.5355-2.7797,.3391-.2643,.7459-.4203,1.1662-.4543,.3118-1.0374,1.3762-1.7154,2.5018-1.5257,.8271,.1694,1.4644,.7595,1.695,1.5257,1.112,.1085,1.939,.9831,1.9799,2.0748,.0136,.4137-.0882,.8001-.2915,1.1525,.8949,.7119,1.1459,2.0002,.5425,3.017-.427,.7052-1.1729,1.1323-1.9932,1.1323-.4204,0-.8407-.1222-1.2002-.3458-.1085-.0679-.2103-.1424-.3052-.2104l-.5425,2.1833h-.5698Zm-.2576-3.4646l.5425,2.1833,.5492-2.2036,.3727,.5355c.1288,.183,.3118,.3594,.5222,.4882,.2713,.1561,.5764,.251,.895,.251,.6171,0,1.1729-.3185,1.4917-.8473,.4882-.8271,.2236-1.8918-.5967-2.3867l-.2849-.1694,.2103-.2643c.2373-.2982,.3525-.6577,.3458-1.0237-.0339-.8341-.7392-1.5186-1.5799-1.5186h-.2576l-.0948-.2439c-.1221-.644-.6237-1.1459-1.2747-1.2814-.0882-.0136-.1764-.0203-.2713-.0203-.7864,0-1.4578,.5558-1.5932,1.3087l-.0476,.251-.2576-.0066h0c-.3934,0-.7459,.1222-1.0237,.3392-.6713,.5355-.7931,1.5257-.2642,2.2036l.2033,.2643-.2849,.1694c-.1897,.1152-.3727,.2849-.5289,.4882-.2642,.3727-.3661,.8341-.2849,1.2883s.3322,.8543,.7119,1.1323c.7525,.5425,1.8847,.3392,2.4272-.427l.3727-.5086,.0004-.0014Z" fill="#fff"/></g></g></g></g><g id="NonConTrees-6"><g id="roughGrassAndNonconiferousTreesFillSymbol-6"><g id="nonconiferousTreesFillSymbol-6"><g id="nonconiferousTreeFillSymbol-6"><g id="nonconiferousTreeGeometry-6"><path d="M79.1659,262.1841h-.5695l-1.2138-4.8681c-.8138,.8747-1.9663,1.3762-3.1731,1.3762-.9016,0-1.7762-.2779-2.5155-.8001-1.9663-1.3832-2.4339-4.102-1.0511-6.075,.2849-.4001,.6307-.7322,1.0374-1.0238-.5289-.7931-.7525-1.7493-.6374-2.6918,.1288-1.0713,.6643-2.0339,1.512-2.6918,.6916-.5425,1.505-.8407,2.373-.868,.4543-1.8035,2.0814-3.0713,3.9459-3.0713,.2643,0,.5289,.0273,.7865,.0746,1.5729,.3119,2.8,1.4781,3.1867,2.9967,2.1357,.0609,3.8374,1.7493,3.912,3.8917,.0269,.834-.2104,1.6678-.678,2.3594,1.8441,1.3087,2.4003,3.8511,1.2138,5.8104-.7798,1.2884-2.2172,2.1154-3.7289,2.1154-.7931,0-1.5729-.217-2.2578-.644-.3392-.2103-.651-.4609-.9289-.7525l-1.2138,4.8612,.0004,.001Zm-1.512-6.2104l1.2271,4.9154,1.2271-4.9021,.3728,.5222c.2982,.427,.6916,.7931,1.1256,1.0511,.5898,.3594,1.2677,.5491,1.9526,.5491,1.3086,0,2.5494-.7052,3.2274-1.8239,1.0714-1.7965,.5019-4.102-1.2814-5.2003l-.2849-.1628,.2033-.2646c.5019-.6307,.7595-1.4171,.7392-2.2239-.0609-1.8375-1.6002-3.3222-3.4307-3.3222l-.3661,.0136-.0476-.251c-.2712-1.4102-1.3559-2.4951-2.773-2.7664-.2236-.0476-.4476-.0679-.678-.0679-1.6677,0-3.1052,1.1931-3.4241,2.834l-.0476,.251-.3525-.0136c-.7728,0-1.512,.251-2.129,.7392-.7185,.5694-1.1798,1.3762-1.2883,2.2918-.1085,.9086,.1425,1.8035,.7052,2.5154l.2033,.2646-.2849,.1694c-.4543,.2779-.8407,.644-1.1322,1.0511-1.2001,1.695-.7931,4.0614,.9016,5.2545,.651,.4679,1.4102,.7052,2.1899,.7052,1.2271,0,2.3796-.5968,3.0782-1.6002l.3661-.5289h.0007Z" fill="#fff"/></g></g><g id="smallNonconiferousTreeFillSymbol-6"><path d="M92.1565,271.6628l-.5492-2.1833c-.7865,.678-2.0003,.7392-2.8543,.1354-.5015-.3594-.8407-.9016-.9492-1.512-.1085-.6171,.0269-1.2341,.3864-1.7427,.1425-.1764,.2849-.3392,.4476-.4679-.5222-.9152-.3118-2.1088,.5355-2.7797,.3392-.251,.7459-.4204,1.1662-.4407,.3118-1.0101,1.3899-1.6884,2.5018-1.5323,.8204,.1694,1.4644,.7525,1.6951,1.5323,1.1119,.1288,1.939,.9898,1.98,2.0881,.0137,.4137-.0882,.7931-.2915,1.1525,.8949,.7052,1.1459,2.0136,.5425,3.0103-.427,.7052-1.1729,1.1323-1.9932,1.1323-.4204,0-.8407-.1354-1.2001-.3392-.1085-.0746-.2104-.1425-.3052-.217l-.5425,2.1833-.5695-.0203h0l-.0003,.0007Zm-.2576-3.4713l.5425,2.163,.5492-2.19,.3728,.5425c.1288,.1694,.3118,.3594,.5222,.4679,.2712,.1491,.5764,.251,.8949,.251,.6171,0,1.1729-.3185,1.4917-.8474,.4882-.8204,.2236-1.8917-.5967-2.4003l-.2849-.1561,.2104-.2646c.2373-.2982,.3525-.6643,.3458-1.0171-.034-.834-.7392-1.5256-1.5799-1.5256h-.244l-.0948-.2373c-.1222-.6373-.6237-1.1389-1.2814-1.2747-.0882-.0136-.1764-.0273-.2712-.0273-.7798,0-1.4578,.5558-1.5932,1.295l-.0476,.251h-.2509c-.3934,0-.7459,.1288-1.0237,.3392-.6713,.5355-.7931,1.5389-.2643,2.2103l.2033,.2576-.2982,.1764c-.1967,.1288-.3728,.2915-.5289,.5019-.2643,.3727-.3661,.8137-.2849,1.2747,.0812,.4476,.3322,.861,.7119,1.1323,.7525,.5222,1.8847,.3392,2.4273-.427l.3728-.4949v-.0003Z" fill="#fff"/></g></g></g></g><g id="NonConTrees-7"><g id="roughGrassAndNonconiferousTreesFillSymbol-7"><g id="nonconiferousTreesFillSymbol-7"><g id="nonconiferousTreeFillSymbol-7"><g id="nonconiferousTreeGeometry-7"><path d="M194.4268,248.4004h-.5695l-1.2138-4.8612c-.8137,.8747-1.9663,1.3762-3.1731,1.3762-.9016,0-1.7762-.2779-2.5155-.7931-1.9663-1.3899-2.4339-4.102-1.0511-6.075,.2849-.4067,.6307-.7458,1.0374-1.0374-.5289-.7798-.7525-1.7427-.6373-2.6848,.1288-1.0644,.6643-2.0272,1.512-2.6848,.6916-.5425,1.505-.8407,2.373-.868,.4543-1.7966,2.0814-3.0712,3.9459-3.0712,.2643,0,.5289,.034,.7865,.0746,1.5729,.3052,2.8,1.4714,3.1867,2.9967,2.1221,.0609,3.8308,1.7493,3.8986,3.8987,.027,.834-.2104,1.6545-.6779,2.3527,1.8375,1.3087,2.4003,3.8511,1.2205,5.8174-.7865,1.295-2.2172,2.1088-3.7359,2.1088-.7865,0-1.5662-.21-2.2509-.6373-.3458-.1967-.651-.4476-.9223-.7392l-1.2134,4.8272h0Zm-1.512-6.2038l1.2271,4.9154,1.2271-4.9021,.3727,.5152c.3052,.434,.6916,.7865,1.1323,1.0441,.5897,.3727,1.2677,.5491,1.939,.5491,1.3087,0,2.5561-.7052,3.241-1.8375,1.0713-1.7762,.4949-4.095-1.2747-5.18l-.2916-.1694,.2104-.2646c.4949-.6373,.7525-1.4304,.7255-2.2239-.0679-1.8578-1.5592-3.3222-3.4307-3.3222l-.3727,.0136-.0406-.244c-.2643-1.4171-1.3629-2.4951-2.7867-2.7594-.2236-.0609-.4476-.0812-.6779-.0812-1.6678,0-3.1052,1.2068-3.424,2.8409l-.0476,.244-.3525-.0136c-.7728,0-1.512,.2576-2.129,.7255-.7185,.5694-1.1799,1.3762-1.2883,2.3051-.1085,.9086,.1424,1.8035,.7052,2.5018l.2034,.2646-.2849,.1694c-.4543,.2779-.8407,.6373-1.1323,1.0577-1.2001,1.695-.7931,4.0544,.9016,5.2545,.651,.4543,1.4035,.7052,2.1833,.7052,1.2271,0,2.3797-.5968,3.0783-1.6002l.3864-.5086,.0003,.0004Z" fill="#fff"/></g></g><g id="smallNonconiferousTreeFillSymbol-7"><path d="M207.4175,257.8924l-.5355-2.1833c-.7931,.685-2.0069,.7322-2.8613,.1425-1.0441-.7185-1.295-2.19-.5628-3.2477,.1424-.183,.2849-.3458,.4407-.4746-.5222-.9152-.3185-2.1088,.5289-2.7664,.3525-.2576,.7525-.427,1.1662-.4543,.3185-1.0101,1.322-1.695,2.5018-1.5186,.8204,.1561,1.4714,.7392,1.695,1.5186,1.0983,.1288,1.946,.9898,1.9866,2.0881,.0136,.4204-.0948,.8067-.2916,1.1525,.8883,.7052,1.1389,2.0136,.5425,3.017-.427,.7052-1.1799,1.1389-2.0002,1.1389-.427,0-.8341-.1354-1.2068-.3525-.1152-.0679-.1967-.1425-.3118-.217l-.5425,2.1833-.5491-.0269h0v.0003Zm-.2576-3.4713l.5425,2.1697,.5425-2.1833,.3727,.5152c.1424,.1897,.3321,.3727,.5289,.4883,.2779,.1561,.5831,.244,.9016,.244,.6101,0,1.1662-.3185,1.4917-.8474,.4813-.8137,.217-1.8847-.6034-2.4003l-.2779-.1561,.1967-.2646c.2306-.2915,.3594-.651,.3458-1.0171-.027-.834-.7255-1.5256-1.5662-1.5256h-.2373l-.1018-.2237c-.1355-.651-.6373-1.1389-1.2747-1.2747-.1018-.0203-.183-.0339-.2779-.0339-.7798,0-1.4644,.5558-1.5866,1.3087l-.0542,.244-.251-.0203h0c-.4067,0-.7322,.1354-1.0171,.3458-.6779,.5425-.7931,1.5389-.2643,2.2036l.1967,.2576-.3118,.1897c-.183,.1288-.3727,.2849-.5289,.4949-.5425,.7595-.3594,1.8442,.434,2.4003,.7322,.5355,1.8644,.3525,2.4069-.427l.3934-.4883-.0003,.0007Z" fill="#fff"/></g></g></g></g><g id="NonConTrees-8"><g id="roughGrassAndNonconiferousTreesFillSymbol-8"><g id="nonconiferousTreesFillSymbol-8"><g id="nonconiferousTreeFillSymbol-8"><g id="nonconiferousTreeGeometry-8"><path d="M296.1278,241.6202h-.5694l-1.2205-4.8612c-.8067,.8747-1.9593,1.3762-3.1731,1.3762-.9016,0-1.7762-.2779-2.5154-.7931-1.9593-1.3899-2.4272-4.102-1.0441-6.075,.2712-.4067,.6373-.7459,1.0304-1.0374-.5222-.7798-.7458-1.7426-.6373-2.6849,.1354-1.0644,.6713-2.0272,1.5186-2.6849,.678-.5289,1.512-.8341,2.3664-.861,.5289-2.0545,2.5697-3.3764,4.7394-3.0037,1.5593,.3052,2.7934,1.4714,3.1867,2.9967,2.129,.0609,3.8307,1.7493,3.8986,3.8986,.0273,.8341-.21,1.6544-.678,2.3527,1.8375,1.3086,2.4003,3.851,1.2205,5.8173-.7865,1.295-2.2172,2.1088-3.7359,2.1088-.7865,0-1.5663-.21-2.2508-.6373-.3458-.1967-.651-.4476-.9289-.7392l-1.2068,4.8276-.0004-.0004Zm-1.5186-6.2037l1.2341,4.9224,1.2341-4.9087,.3797,.5152c.3119,.434,.7052,.7865,1.1323,1.0441,.5898,.3727,1.2747,.5491,1.939,.5491,1.3017,0,2.5561-.7052,3.241-1.8375,1.0713-1.7762,.4949-4.095-1.2747-5.18l-.2915-.1694,.21-.2576c.4883-.644,.7458-1.4375,.7185-2.2305-.0679-1.8578-1.5526-3.3222-3.4307-3.3222l-.3797,.0136-.0406-.2439c-.2646-1.4171-1.3629-2.4951-2.7664-2.7594-1.8917-.4137-3.7495,.9016-4.095,2.7594l-.0476,.2439-.3661-.0136c-.7595,0-1.5323,.2646-2.1221,.7255-.7119,.5695-1.1865,1.3762-1.2813,2.3051-.1221,.9086,.1425,1.8036,.7052,2.5018l.2033,.2646-.2849,.1694c-.4476,.2779-.8407,.651-1.1323,1.0577-1.2002,1.695-.7865,4.0544,.9152,5.2545,.651,.4543,1.3969,.7052,2.1697,.7052,1.2341,0,2.3867-.5968,3.0713-1.5866l.3594-.5222h0Z" fill="#fff"/></g></g><g id="smallNonconiferousTreeFillSymbol-8"><path d="M309.1184,251.1122l-.5355-2.1833c-.7931,.685-2.0069,.7322-2.8612,.1425-1.0441-.7185-1.295-2.19-.5628-3.2477,.1425-.183,.2849-.3458,.4407-.4746-.5222-.9152-.3185-2.1088,.5289-2.7664,.3525-.2576,.7525-.427,1.1662-.4543,.3185-1.0101,1.322-1.7087,2.5018-1.5186,.8204,.1561,1.4714,.7392,1.695,1.5186,1.0983,.1288,1.946,.9898,1.9866,2.0881,.0136,.4204-.0948,.8067-.2915,1.1525,.8883,.7052,1.1389,2.0136,.5425,3.017-.427,.7052-1.1798,1.1389-2.0003,1.1389-.427,0-.834-.1354-1.2068-.3525-.1151-.0679-.1967-.1425-.3119-.217l-.5425,2.1833-.5491-.0269h0v.0003Zm-.2576-3.4713l.5425,2.1697,.5425-2.1833,.3727,.5152c.1425,.1897,.3322,.3727,.5289,.4883,.8067,.4812,1.905,.1897,2.3933-.6034,.4812-.8137,.217-1.8847-.6034-2.4003l-.2779-.1561,.1967-.2646c.2307-.2915,.3594-.651,.3458-1.0171-.0273-.834-.7255-1.5256-1.5663-1.5256h-.2373l-.1018-.2237c-.1354-.651-.6373-1.1389-1.2747-1.2747-.1018-.0203-.183-.0339-.2779-.0339-.7798,0-1.4644,.5558-1.5866,1.3087l-.0543,.244-.251-.0203h0c-.4067,0-.7322,.1354-1.0171,.3458-.678,.5425-.7931,1.5389-.2646,2.2036l.1967,.2576-.3119,.1897c-.183,.1288-.3727,.2849-.5289,.4949-.5425,.7595-.3594,1.8442,.434,2.4003,.7255,.5425,1.8644,.3525,2.4069-.427l.3934-.4883v.0007Z" fill="#fff"/></g></g></g></g><g id="NonConTrees-9"><g id="roughGrassAndNonconiferousTreesFillSymbol-9"><g id="nonconiferousTreesFillSymbol-9"><g id="nonconiferousTreeFillSymbol-9"><g id="nonconiferousTreeGeometry-9"><path d="M275.7875,322.9809h-.5694l-1.2205-4.8612c-.8067,.8747-1.9593,1.3762-3.1731,1.3762-.9016,0-1.7762-.2779-2.5154-.7931-1.9593-1.3899-2.4272-4.102-1.0441-6.075,.2712-.4067,.6373-.7458,1.0304-1.0374-.5222-.7798-.7458-1.7427-.6373-2.6848,.1354-1.0644,.6713-2.0272,1.5186-2.6848,.678-.5289,1.512-.834,2.3664-.861,.5289-2.0545,2.5494-3.4038,4.7394-3.0037,1.5593,.3052,2.7934,1.4714,3.1867,2.9967,2.129,.0609,3.8307,1.7493,3.8986,3.8986,.0273,.834-.21,1.6545-.678,2.3527,1.8375,1.3087,2.4003,3.8511,1.2205,5.8174-.7865,1.295-2.2172,2.1088-3.7359,2.1088-.7865,0-1.5663-.21-2.2508-.6373-.3458-.1967-.651-.4476-.9289-.7392l-1.2068,4.8276-.0004-.0004Zm-1.5186-6.2037l1.2341,4.9224,1.2341-4.9087,.3797,.5152c.3119,.434,.7052,.7865,1.1323,1.0441,.5898,.3727,1.2747,.5491,1.939,.5491,1.3017,0,2.5561-.7052,3.241-1.8375,1.0713-1.7762,.4949-4.095-1.2747-5.18l-.2915-.1694,.21-.2576c.4883-.644,.7458-1.4374,.7185-2.2305-.0679-1.8578-1.5526-3.3222-3.4307-3.3222l-.3797,.0136-.0406-.244c-.2646-1.4171-1.3629-2.4951-2.7664-2.7594-1.8847-.4001-3.7495,.9016-4.095,2.7594l-.0476,.244-.3661-.0136c-.7595,0-1.5323,.2646-2.1221,.7255-.7119,.5694-1.1865,1.3762-1.2813,2.3051-.1221,.9086,.1425,1.8035,.7052,2.5018l.2033,.2646-.2849,.1694c-.4476,.2779-.8407,.651-1.1323,1.0577-1.2002,1.695-.7865,4.0544,.9152,5.2545,.651,.4543,1.3969,.7052,2.1697,.7052,1.2341,0,2.3867-.5968,3.0713-1.5866l.3594-.5222h0Z" fill="#fff"/></g></g><g id="smallNonconiferousTreeFillSymbol-9"><path d="M288.7781,332.4732l-.5355-2.1833c-.7931,.685-2.0069,.7322-2.8612,.1425-1.0441-.7185-1.295-2.19-.5628-3.2477,.1425-.183,.2849-.3458,.4407-.4746-.5222-.9152-.3185-2.1088,.5289-2.7664,.3525-.2576,.7525-.427,1.1662-.4543,.2779-.9086,1.1389-1.5526,2.129-1.5526,.1221,0,.2373,.0136,.3864,.0339,.8204,.1561,1.4644,.7392,1.695,1.5186,1.0846,.1288,1.9324,.9898,1.9729,2.0881,.0136,.4204-.0812,.8067-.2915,1.1525,.9016,.7052,1.1525,2.0136,.5425,3.017-.427,.7052-1.1662,1.1389-1.9866,1.1389-.427,0-.834-.1354-1.2138-.3525-.1151-.0679-.2033-.1425-.3119-.217l-.5425,2.1833-.5558-.0269h0v.0003Zm-.2576-3.4713l.5425,2.1697,.5425-2.1833,.3727,.5152c.1425,.1897,.3322,.3727,.5289,.4883,.2779,.1561,.5831,.244,.9016,.244,.6101,0,1.1662-.3185,1.4917-.8474,.4812-.8137,.217-1.8847-.6034-2.4003l-.2779-.1561,.1967-.2646c.2307-.2915,.3594-.651,.3458-1.0171-.0273-.834-.7255-1.5256-1.5663-1.5256h-.2373l-.1018-.2237c-.1354-.651-.6373-1.1389-1.2747-1.2747-.1018-.0203-.183-.0339-.2779-.0339-.7798,0-1.4644,.5558-1.5866,1.3087l-.0543,.244-.251-.0203h0c-.4067,0-.7322,.1354-1.0171,.3458-.678,.5425-.7931,1.5389-.2646,2.2036l.1967,.2576-.3119,.1897c-.183,.1288-.3727,.2849-.5289,.4949-.5425,.7595-.3594,1.8442,.434,2.4003,.7255,.5425,1.8644,.3525,2.4069-.427l.3934-.4883v.0007Z" fill="#fff"/></g></g></g></g><g id="NonConTrees-10"><g id="roughGrassAndNonconiferousTreesFillSymbol-10"><g id="nonconiferousTreesFillSymbol-10"><g id="nonconiferousTreeFillSymbol-10"><g id="nonconiferousTreeGeometry-10"><path d="M45.2656,322.8251h-.5694l-1.2138-4.8681c-.8138,.8813-1.9663,1.3762-3.1731,1.3762-.9016,0-1.7762-.2779-2.5155-.7931-1.9663-1.3832-2.4339-4.102-1.051-6.075,.2849-.4001,.6307-.7392,1.0374-1.0304-.5289-.7865-.7525-1.7493-.6374-2.6918,.1288-1.0511,.6643-2.0206,1.512-2.6848,.6916-.5425,1.505-.834,2.373-.861,.4543-1.8102,2.0814-3.0713,3.9459-3.0713,.2642,0,.5289,.0273,.7864,.0746,1.5729,.3052,2.8,1.4714,3.1867,2.9967,2.1357,.0543,3.8374,1.7493,3.9119,3.8917,.0269,.827-.2103,1.6545-.6779,2.3594,1.8442,1.3087,2.4003,3.8511,1.2138,5.8037-.7798,1.295-2.2173,2.1154-3.7289,2.1154-.7931,0-1.5729-.21-2.2578-.6373-.3322-.1967-.651-.4407-.9223-.7322l-1.2204,4.8276h.0003Zm-1.512-6.2038l1.2271,4.9154,1.2271-4.9021,.3727,.5222c.2982,.427,.6916,.7865,1.1256,1.0511,.5897,.3594,1.2677,.5425,1.9527,.5425,1.3087,0,2.5494-.7052,3.2274-1.8305,1.0713-1.7832,.5016-4.095-1.2814-5.1937l-.2849-.1628,.2033-.2646c.5016-.6307,.7595-1.4238,.7392-2.2172-.0609-1.8375-1.6002-3.3222-3.4307-3.3222l-.3661,.0136-.0476-.251c-.2713-1.4171-1.3559-2.4951-2.7731-2.7664-.2236-.0543-.4477-.0679-.6779-.0679-1.6677,0-3.1052,1.1931-3.4241,2.834l-.0476,.251-.3525-.0136c-.7728,0-1.512,.251-2.1291,.7255-.7186,.5694-1.1799,1.3762-1.2884,2.2985-.1085,.9086,.1424,1.8102,.7052,2.5084l.2033,.2646-.2849,.1764c-.4543,.2779-.8407,.644-1.1322,1.0577-1.2002,1.695-.7931,4.0614,.9016,5.2479,.644,.4407,1.3969,.6983,2.1763,.6983,1.2271,0,2.3797-.5968,3.0783-1.5932l.3797-.5222,.0007,.0004Z" fill="#fff"/></g></g><g id="smallNonconiferousTreeFillSymbol-10"><path d="M58.2562,332.3105l-.5492-2.1833c-.7798,.6713-2.0002,.7392-2.8543,.1354-.5085-.3661-.8473-.9016-.9558-1.512-.1085-.6237,.0269-1.2341,.3864-1.7493,.1424-.1694,.2849-.3322,.4477-.4609-.5222-.9152-.3118-2.1088,.5355-2.7797,.3391-.251,.7459-.4204,1.1662-.4476,.3118-1.0171,1.3762-1.695,2.5018-1.5256,.8204,.1694,1.4644,.7525,1.695,1.5256,1.112,.1221,1.939,.9898,1.9799,2.0815,.0136,.427-.0882,.8067-.2915,1.1595,.8949,.7052,1.1459,2.0069,.5425,3.017-.427,.7052-1.1729,1.1323-1.9932,1.1323-.4204,0-.8407-.1354-1.2002-.3458-.1085-.0679-.2103-.1425-.3052-.21l-.5355,2.1626h-.5694l-.0007,.0003Zm-.2576-3.4646l.5425,2.1763,.5492-2.2036,.3727,.5425c.1288,.183,.3118,.3594,.5222,.4812,.2713,.1628,.5764,.244,.895,.244,.6171,0,1.1729-.3185,1.4917-.8474,.4882-.8137,.2236-1.8847-.5967-2.4003l-.2982-.1561,.2103-.2646c.2373-.3052,.3525-.651,.3458-1.0238-.0339-.834-.7392-1.5186-1.5799-1.5186h-.244l-.0948-.2373c-.1221-.6373-.6237-1.1389-1.2814-1.2747-.0882-.0339-.1764-.0406-.2713-.0406-.7798,0-1.4578,.5491-1.5932,1.3017l-.0476,.244-.251-.0136h0c-.3934,0-.7459,.1354-1.0237,.3458-.6713,.5355-.7931,1.5323-.2642,2.1966l.2033,.2646-.2849,.21c-.1967,.1221-.3727,.2779-.5289,.4883-.2642,.3727-.3661,.827-.2849,1.2813,.0812,.4476,.3322,.861,.7119,1.1256,.7525,.5425,1.8847,.3458,2.4272-.427l.3727-.4949v.0007Z" fill="#fff"/></g></g></g></g><g id="NonConTrees-11"><g id="roughGrassAndNonconiferousTreesFillSymbol-11"><g id="nonconiferousTreesFillSymbol-11"><g id="nonconiferousTreeFillSymbol-11"><g id="nonconiferousTreeGeometry-11"><path d="M262.2274,160.2596h-.5694l-1.2205-4.8545c-.8067,.868-1.9593,1.3762-3.1731,1.3762-.9016,0-1.7762-.2779-2.5154-.8001-1.9593-1.3898-2.4272-4.1156-1.0441-6.0749,.2712-.3934,.6373-.7525,1.0304-1.0441-1.1389-1.729-.7798-4.0817,.8813-5.3834,.678-.5355,1.512-.8407,2.3664-.861,.5222-2.0475,2.5697-3.4307,4.7394-2.9967,1.5593,.2982,2.7934,1.4644,3.1867,2.9967,2.129,.0609,3.8307,1.7426,3.8986,3.8917,.0273,.8341-.21,1.6611-.678,2.3664,1.8375,1.3087,2.4003,3.8444,1.2205,5.8103-.7865,1.295-2.2172,2.1088-3.7359,2.1088-.7865,0-1.5663-.2236-2.2508-.6373-.3458-.1967-.651-.4476-.9289-.7389l-1.2068,4.8408h-.0004Zm-1.5186-6.2037l1.2341,4.9088,1.2341-4.8951,.3797,.5222c.3119,.4407,.7052,.7931,1.1323,1.0511,.5898,.3594,1.2747,.5558,1.939,.5558,1.3017,0,2.5561-.6983,3.241-1.8238,1.0713-1.7762,.4949-4.102-1.2747-5.18l-.2915-.1694,.21-.2643c.4883-.6373,.7458-1.4375,.7185-2.2376-.0679-1.8644-1.5526-3.3222-3.4307-3.3222l-.3797,.0066-.0406-.2439c-.2646-1.4102-1.3629-2.5018-2.7664-2.7731-1.8847-.3727-3.7495,.9086-4.095,2.7731l-.0476,.2439-.3661-.0066c-.7595,0-1.5323,.2643-2.1221,.7389-1.4917,1.1662-1.756,3.3288-.5898,4.8139l.1897,.2576-.2712,.1764c-.4476,.2779-.8407,.644-1.1459,1.0577-1.1931,1.695-.7728,4.0544,.9289,5.2546,.6373,.4543,1.3899,.6916,2.156,.6916,1.2407,0,2.3933-.5968,3.0713-1.6002l.3864-.5355,.0003-.0004Z" fill="#fff"/></g></g><g id="smallNonconiferousTreeFillSymbol-11"><path d="M275.218,169.7449l-.5355-2.1833c-.7931,.6643-2.0069,.7389-2.8612,.1222-1.0441-.7389-1.295-2.1899-.5628-3.241,.1425-.183,.2849-.3392,.4407-.468-.5222-.9153-.3185-2.1088,.5289-2.7797,.3525-.2643,.7525-.4203,1.1662-.4543,.2779-.9153,1.1389-1.5592,2.129-1.5592,.1221,0,.2373,.0136,.3864,.034,.8204,.1694,1.4644,.7525,1.695,1.5257,1.0846,.1152,1.9324,.9968,1.9729,2.0748,.0136,.4137-.0812,.8067-.2779,1.1525,.8883,.7119,1.1389,2.0069,.5289,3.017-.427,.7052-1.1662,1.1323-1.9866,1.1323-.427,0-.834-.1152-1.2138-.3392-.1151-.0679-.2033-.1424-.3119-.2236l-.5425,2.1833-.5558,.0066Zm-.2576-3.4646l.5425,2.1763,.5425-2.19,.3727,.5289c.1425,.183,.3322,.3594,.5289,.4882,.8067,.4882,1.905,.2034,2.3933-.5968,.4812-.8271,.217-1.8918-.6034-2.3867l-.2779-.1694,.1967-.2643c.2307-.2982,.3594-.651,.3458-1.0237-.0273-.8341-.7255-1.5186-1.5663-1.5186h-.2373l-.1018-.2373c-.1354-.644-.6373-1.1459-1.2747-1.2814-.1018-.0136-.183-.0203-.2779-.0203-.7798,0-1.4644,.5558-1.5866,1.3087l-.0543,.251-.251-.0066h0c-.4067,0-.7322,.1222-1.0171,.3392-.678,.5355-.7931,1.5257-.2646,2.2036l.1967,.2643-.3119,.1557c-.183,.1152-.3727,.2849-.5289,.4949-.5425,.7728-.3594,1.8578,.434,2.4136,.7255,.5425,1.8644,.3392,2.4069-.4137l.3934-.5152v-.0003Z" fill="#fff"/></g></g></g></g></svg>