<?xml version="1.0" encoding="UTF-8"?><svg id="Layer_2" xmlns="http://www.w3.org/2000/svg" width="350" height="350" viewBox="0 0 350 350"><g id="Temporary_coppicepair"><path d="M175.4293,36.6495l-.5957,.2562-.8519-2.6663,.5957-.2426,.8519,2.6526Zm10.998-9.1144l-.7133,1.0528-1.1844,2.8325-.0207,1.4476-1.1634,4.3841h-.104l-1.3713-3.8853-1.7244-.9348-.1593,4.2385-.6303-.0623,.1939-4.3771,.0207-.1522-2.3965-1.3713-1.1568-.0416-.8519-.5747,.3672-.5194,.651,.4571,.0207-1.0458-.4641-3.3729-.0417-4.0376,.658,.0206,.0417,3.9683,.4641,3.3866-.0487,1.1081,.7133,.0416,2.1192,1.288,.4154-2.597,.0417-.6926-.8102-1.2467v-9.0863h.6303v7.4659l2.2022-1.8561-.0207-.6787,1.5306-4.1416,.5401,.3115-1.4336,3.9683,.0417,.8936-2.8602,2.3754v.5401l.8519,1.288-.0693,.8726-.4778,2.9088,2.1609,1.2467,.8102,2.4031,.6926-2.6387,.0207-1.4682,1.2673-3.0817,.741-1.0734,.5058,.4365h.0003Zm-9.793,7.3482l-.0623,1.6275h-.6093l.0487-1.6205,.6234-.007h-.0004Z" fill="#696"/><path d="M191.8293,41.6149l-.2978,.1316-.4294-1.3366,.2978-.1246,.4294,1.3296Zm5.4852-4.557l-.3531,.5264-.5817,1.4196-.0207,.7203-.5817,2.1886h-.0487l-.6926-1.9394-.8655-.4641-.083,2.1193-.3115-.0277,.0969-2.1886,.007-.0763-1.1981-.6856-.5747-.0207-.4294-.2909,.1799-.2562,.3255,.2285,.007-.5194-.2285-1.6898-.0207-2.0153,.3325,.007,.0207,1.9806,.2355,1.6968-.0277,.5541,.3531,.0207,1.0598,.644,.2079-1.302,.0207-.3461-.4084-.6233v-4.5433h.3115v3.7331l1.1011-.9282-.007-.3395,.7549-2.0706,.2702,.1592-.7203,1.9806,.0207,.4431-1.4336,1.1844v.2702l.4294,.644-.0346,.4364-.2426,1.4542,1.0735,.6233,.4225,1.1981,.3461-1.316,.007-.7339,.637-1.5446,.3808-.54,.2632,.2285-.0003,.0004Zm-4.8825,3.6775l-.0277,.8102h-.3049l.0277-.8102h.3049Z" fill="#696"/><path d="M191.8293,41.6149l-.2978,.1316-.4294-1.3366,.2978-.1246,.4294,1.3296Zm5.4852-4.557l-.3531,.5264-.5817,1.4196-.0207,.7203-.5817,2.1886h-.0487l-.6926-1.9394-.8655-.4641-.083,2.1193-.3115-.0277,.0969-2.1886,.007-.0763-1.1981-.6856-.5747-.0207-.4294-.2909,.1799-.2562,.3255,.2285,.007-.5194-.2285-1.6898-.0207-2.0153,.3325,.007,.0207,1.9806,.2355,1.6968-.0277,.5541,.3531,.0207,1.0598,.644,.2079-1.302,.0207-.3461-.4084-.6233v-4.5433h.3115v3.7331l1.1011-.9282-.007-.3395,.7549-2.0706,.2702,.1592-.7203,1.9806,.0207,.4431-1.4336,1.1844v.2702l.4294,.644-.0346,.4364-.2426,1.4542,1.0735,.6233,.4225,1.1981,.3461-1.316,.007-.7339,.637-1.5446,.3808-.54,.2632,.2285-.0003,.0004Zm-4.8825,3.6775l-.0277,.8102h-.3049l.0277-.8102h.3049Z" fill="none" stroke="#696" stroke-width=".04"/></g><g id="Temporary_coppicepair-2"><path d="M292.9023,36.3863l-.6027,.2492-.8519-2.6663,.6027-.2426,.8519,2.6593v.0003Zm10.991-9.121l-.7203,1.0528-1.1774,2.8325-.0276,1.4476-1.1704,4.3841h-.104l-1.3643-3.8853-1.7108-.9348-.1593,4.2385-.6234-.0623,.1869-4.3841,.0206-.1522-2.3965-1.3713-1.1567-.0416-.8519-.5747,.3671-.5194,.651,.4571,.0276-1.0458-.4571-3.3729-.0417-4.0376,.665,.0206,.0417,3.9683,.4641,3.3866-.0623,1.1081,.7203,.0416,2.1262,1.288,.4224-2.597,.0417-.6926-.8102-1.2467v-9.0727h.637v7.4659l2.1885-1.8561-.0487-.6787,1.5376-4.1416,.5334,.3115-1.4266,3.9683,.0417,.8936-2.8532,2.3754v.5401l.8519,1.288-.0763,.8726-.4777,2.9088,2.1679,1.2467,.8102,2.4031,.6926-2.6387,.007-1.4753,1.2743-3.0817,.7343-1.0735,.5054,.4365-.0003,.0004Zm-9.786,7.3549l-.0623,1.6205h-.6094l.0553-1.6205h.6164Z" fill="#696"/><path d="M309.3022,41.3451l-.2978,.1316-.4295-1.3366,.2978-.1246,.4295,1.3296Zm5.4922-4.557l-.3531,.5264-.5957,1.4196-.007,.7203-.5681,2.1956h-.0553l-.6926-1.9394-.8589-.4641-.09,2.1193-.2978-.0347,.097-2.1886,.007-.0763-1.1981-.6856-.5817-.0207-.4295-.2909,.1799-.2562,.3255,.2285,.007-.5194-.2146-1.6898-.0206-2.0153,.3255,.007,.0206,1.9806,.2355,1.6898-.0276,.5541,.3601,.0207,1.0528,.644,.2009-1.302,.0276-.3461-.4084-.6233v-4.5364h.3115v3.7331l1.0941-.9282-.007-.3395,.7619-2.0706,.2702,.1592-.7203,1.9806,.014,.4431-1.406,1.1844v.2702l.4295,.644-.0417,.4431-.2355,1.4542,1.0735,.6233,.4154,1.1981,.3461-1.316,.014-.7339,.637-1.5446,.3742-.54,.2285,.2216v.0007Zm-4.8825,3.6775l-.0417,.8102h-.2978l.0276-.8102h.3119Z" fill="#696"/><path d="M309.3022,41.3451l-.2978,.1316-.4295-1.3366,.2978-.1246,.4295,1.3296Zm5.4922-4.557l-.3531,.5264-.5957,1.4196-.007,.7203-.5681,2.1956h-.0553l-.6926-1.9394-.8589-.4641-.09,2.1193-.2978-.0347,.097-2.1886,.007-.0763-1.1981-.6856-.5817-.0207-.4295-.2909,.1799-.2562,.3255,.2285,.007-.5194-.2146-1.6898-.0206-2.0153,.3255,.007,.0206,1.9806,.2355,1.6898-.0276,.5541,.3601,.0207,1.0528,.644,.2009-1.302,.0276-.3461-.4084-.6233v-4.5364h.3115v3.7331l1.0941-.9282-.007-.3395,.7619-2.0706,.2702,.1592-.7203,1.9806,.014,.4431-1.406,1.1844v.2702l.4295,.644-.0417,.4431-.2355,1.4542,1.0735,.6233,.4154,1.1981,.3461-1.316,.014-.7339,.637-1.5446,.3742-.54,.2285,.2216v.0007Zm-4.8825,3.6775l-.0417,.8102h-.2978l.0276-.8102h.3119Z" fill="none" stroke="#696" stroke-width=".04"/></g><g id="Temporary_coppicepair-3"><path d="M251.3485,91.7916l-.6027,.2562-.8519-2.6663,.6027-.2425,.8519,2.6527Zm10.991-9.121l-.7203,1.0528-1.1774,2.8325-.0276,1.4476-1.1704,4.3841h-.104l-1.3643-3.8853-1.7244-.9348-.1523,4.2385-.637-.0623,.1939-4.3841,.0206-.1523-2.3965-1.3713-1.1567-.0416-.8519-.5747,.3671-.5194,.658,.4571,.014-1.0458-.4501-3.3729-.0487-4.0376,.6717,.0206,.0417,3.9683,.4641,3.3866-.0553,1.1081,.7133,.0416,2.1332,1.288,.4154-2.597,.0417-.6927-.8102-1.2467v-9.0727h.6303v7.4659l2.1955-1.8561-.0206-.6786,1.5376-4.1416,.5334,.3115-1.4266,3.9683,.0487,.8936-2.8672,2.3754v.5401l.8519,1.288-.0693,.8726-.4711,2.9089,2.1609,1.2467,.8032,2.4031,.6996-2.6387,.0206-1.4683,1.2743-3.0818,.734-1.0734,.4777,.4294-.0006,.0003Zm-9.786,7.3549l-.0623,1.6205h-.6094l.0553-1.6205h.6164Z" fill="#696"/><path d="M267.7485,96.7504l-.2978,.1316-.4365-1.3367,.2978-.1246,.4365,1.3297Zm5.4922-4.557l-.3531,.5264-.5957,1.4196-.014,.7203-.5817,2.1885h-.0347l-.6926-1.9394-.8589-.4641-.09,2.1192-.3115-.0277,.097-2.1885,.014-.0763-1.205-.6856-.5681-.0206-.4365-.2908,.1799-.2562,.3255,.2285,.007-.5194-.2146-1.6898-.0206-2.0153,.3255,.007,.0276,1.9807,.2285,1.6968-.0276,.5541,.3671,.0206,1.0458,.644,.2079-1.302,.014-.3461-.4084-.6234v-4.5364h.3255v3.7331l1.0874-.9282-.007-.3395,.7619-2.0706,.2632,.1592-.7066,1.9807,.0276,.4431-1.4336,1.1844v.2702l.4365,.644-.0417,.4365-.2355,1.4543,1.0735,.6234,.4154,1.1981,.3461-1.316,.014-.7339,.637-1.5445,.3742-.5401,.2355,.2215-.0004,.0003Zm-4.8825,3.6774l-.0417,.8103h-.2978l.0276-.8103h.3119Z" fill="#696"/><path d="M267.7485,96.7504l-.2978,.1316-.4365-1.3367,.2978-.1246,.4365,1.3297Zm5.4922-4.557l-.3531,.5264-.5957,1.4196-.014,.7203-.5817,2.1885h-.0347l-.6926-1.9394-.8589-.4641-.09,2.1192-.3115-.0277,.097-2.1885,.014-.0763-1.205-.6856-.5681-.0206-.4365-.2908,.1799-.2562,.3255,.2285,.007-.5194-.2146-1.6898-.0206-2.0153,.3255,.007,.0276,1.9807,.2285,1.6968-.0276,.5541,.3671,.0206,1.0458,.644,.2079-1.302,.014-.3461-.4084-.6234v-4.5364h.3255v3.7331l1.0874-.9282-.007-.3395,.7619-2.0706,.2632,.1592-.7066,1.9807,.0276,.4431-1.4336,1.1844v.2702l.4365,.644-.0417,.4365-.2355,1.4543,1.0735,.6234,.4154,1.1981,.3461-1.316,.014-.7339,.637-1.5445,.3742-.5401,.2355,.2215-.0004,.0003Zm-4.8825,3.6774l-.0417,.8103h-.2978l.0276-.8103h.3119Z" fill="none" stroke="#696" stroke-width=".04"/></g><g id="Temporary_coppicepair-4"><path d="M71.2812,105.8368l-.5957,.2562-.8519-2.6663,.5957-.2425,.8519,2.6527Zm10.998-9.1143l-.7133,1.0528-1.1844,2.8325-.0206,1.4476-1.1634,4.3771h-.1039l-1.3713-3.8853-1.7245-.9348-.1592,4.2385-.6303-.0623,.1939-4.3841,.0206-.1523-2.3965-1.3573-1.1567-.0416-.8519-.5817,.3672-.5194,.651,.4571,.0206-1.0458-.4571-3.3729-.0416-4.0376,.658,.0206,.0416,3.9683,.4641,3.3866-.0487,1.1081,.7063,.0346,2.1192,1.288,.4155-2.597,.0416-.6927-.8103-1.2467v-9.0797h.6303v7.4659l2.2022-1.8561-.0206-.6786,1.5305-4.1416,.5401,.3115-1.4336,3.9683,.0416,.8936-2.8602,2.3754v.5401l.8519,1.288-.0693,.8726-.4777,2.9089,2.1609,1.2467,.8103,2.4031,.6927-2.6387,.0206-1.4683,1.2674-3.0818,.741-1.0734,.5058,.4431,.0003,.0007Zm-9.786,7.3483l-.0623,1.6205h-.6094l.0487-1.6205h.623Z" fill="#696"/><path d="M87.6812,110.8026l-.2979,.1316-.4294-1.3436,.2979-.1246,.4294,1.3367Zm5.4989-4.557l-.3532,.5264-.5887,1.4196-.007,.7203-.5817,2.1885h-.0487l-.6856-1.9394-.8655-.4641-.083,2.1192-.3115-.0277,.097-2.1885,.007-.0763-1.1981-.6856-.5747-.0206-.4294-.2908,.1799-.2562,.3255,.2285,.007-.5194-.2285-1.6898-.0206-2.0153,.3325,.007,.0206,1.9807,.2356,1.6968-.0277,.5541,.3532,.0206,1.0598,.644,.2079-1.302,.0206-.3461-.4084-.6234v-4.5364h.3115v3.7331l1.1011-.9282-.007-.3395,.7686-2.0706,.2702,.1592-.7133,1.9807,.0206,.4431-1.4336,1.1844v.2702l.4294,.644-.0346,.4365-.2425,1.4543,1.0805,.6234,.4084,1.1981,.3461-1.316,.007-.7339,.637-1.5445,.3672-.5401,.2492,.2215v.0003Zm-4.8965,3.6705l-.0277,.8103h-.3048l.0277-.8103h.3048Z" fill="#696"/><path d="M87.6812,110.8026l-.2979,.1316-.4294-1.3436,.2979-.1246,.4294,1.3367Zm5.4989-4.557l-.3532,.5264-.5887,1.4196-.007,.7203-.5817,2.1885h-.0487l-.6856-1.9394-.8655-.4641-.083,2.1192-.3115-.0277,.097-2.1885,.007-.0763-1.1981-.6856-.5747-.0206-.4294-.2908,.1799-.2562,.3255,.2285,.007-.5194-.2285-1.6898-.0206-2.0153,.3325,.007,.0206,1.9807,.2356,1.6968-.0277,.5541,.3532,.0206,1.0598,.644,.2079-1.302,.0206-.3461-.4084-.6234v-4.5364h.3115v3.7331l1.1011-.9282-.007-.3395,.7686-2.0706,.2702,.1592-.7133,1.9807,.0206,.4431-1.4336,1.1844v.2702l.4294,.644-.0346,.4365-.2425,1.4543,1.0805,.6234,.4084,1.1981,.3461-1.316,.007-.7339,.637-1.5445,.3672-.5401,.2492,.2215v.0003Zm-4.8965,3.6705l-.0277,.8103h-.3048l.0277-.8103h.3048Z" fill="none" stroke="#696" stroke-width=".04"/></g><g id="Temporary_coppicepair-5"><path d="M36.6529,174.2138l-.5957,.2562-.8519-2.6663,.5957-.2426,.8519,2.6527Zm10.998-9.1143l-.7133,1.0528-1.1844,2.8325-.0207,1.4476-1.1634,4.3771h-.104l-1.3713-3.8853-1.7244-.9349-.1592,4.2385-.6304-.0623,.1939-4.3841,.0207-.1522-2.3965-1.3713-1.1567-.0417-.8519-.5747,.3672-.5194,.651,.4571,.0207-1.0458-.4571-3.3729-.0416-4.0376,.658,.0207,.0416,3.9683,.4641,3.3866-.0486,1.1081,.7133,.0417,2.1193,1.2883,.4155-2.597,.0416-.6926-.8102-1.2467v-9.0797h.6304v7.4658l2.2022-1.8561-.0207-.6787,1.5305-4.1416,.54,.3115-1.4336,3.9683,.0416,.8935-2.8602,2.3754v.5401l.8519,1.2883-.0693,.8725-.4778,2.9089,2.1609,1.2467,.8102,2.4031,.6926-2.6386,.0207-1.4682,1.2673-3.0818,.741-1.0735,.4987,.4431h.0004Zm-9.786,7.3483l-.0623,1.6205h-.6093l.0486-1.6205h.623Z" fill="#696"/><path d="M53.0529,179.1796l-.2979,.1316-.4294-1.3367,.2979-.1246,.4294,1.3296Zm5.4989-4.557l-.3531,.5264-.5957,1.413-.007,.7203-.5817,2.1886h-.0553l-.6856-1.9394-.8656-.4641-.0829,2.1192-.3115-.0277,.097-2.1886,.007-.0763-1.1981-.6856-.5747-.0207-.4294-.2908,.1799-.2562,.3395,.2285,.007-.5194-.2285-1.6968-.0207-2.0153,.3325,.007,.0207,1.9806,.2355,1.6968-.0277,.554,.3531,.0207,1.0598,.644,.2079-1.302,.0207-.3461-.4085-.6234v-4.5364h.3185v3.7331l1.1011-.9282-.007-.3395,.7686-2.0706,.2702,.1593-.7133,1.9806,.0207,.4431-1.4406,1.1981v.2702l.4294,.644-.0347,.4364-.2425,1.4543,1.0804,.6234,.4085,1.1981,.3461-1.316,.007-.7343,.637-1.5445,.3672-.5401,.2492,.2216-.0004,.0007Zm-4.8965,3.6704l-.0277,.8102h-.3049l.0277-.8102h.3049Z" fill="#696"/><path d="M53.0529,179.1796l-.2979,.1316-.4294-1.3367,.2979-.1246,.4294,1.3296Zm5.4989-4.557l-.3531,.5264-.5957,1.413-.007,.7203-.5817,2.1886h-.0553l-.6856-1.9394-.8656-.4641-.0829,2.1192-.3115-.0277,.097-2.1886,.007-.0763-1.1981-.6856-.5747-.0207-.4294-.2908,.1799-.2562,.3395,.2285,.007-.5194-.2285-1.6968-.0207-2.0153,.3325,.007,.0207,1.9806,.2355,1.6968-.0277,.554,.3531,.0207,1.0598,.644,.2079-1.302,.0207-.3461-.4085-.6234v-4.5364h.3185v3.7331l1.1011-.9282-.007-.3395,.7686-2.0706,.2702,.1593-.7133,1.9806,.0207,.4431-1.4406,1.1981v.2702l.4294,.644-.0347,.4364-.2425,1.4543,1.0804,.6234,.4085,1.1981,.3461-1.316,.007-.7343,.637-1.5445,.3672-.5401,.2492,.2216-.0004,.0007Zm-4.8965,3.6704l-.0277,.8102h-.3049l.0277-.8102h.3049Z" fill="none" stroke="#696" stroke-width=".04"/></g><g id="Temporary_coppicepair-6"><path d="M71.2812,265.1547l-.5957,.2562-.8519-2.6733,.5957-.2425,.8519,2.6593v.0003Zm10.998-9.1144l-.7133,1.0458-1.1844,2.8326-.0206,1.4476-1.1634,4.3908h-.1039l-1.3713-3.8853-1.7245-.9348-.1592,4.2245-.6303-.0623,.1939-4.3841,.0206-.1456-2.3965-1.3643-1.1567-.0417-.8519-.5817,.3672-.5124,.651,.4501,.0206-1.0318-.4571-3.3796-.0416-4.0306,.658,.0206,.0416,3.9546,.4641,3.3936-.0487,1.1011,.7133,.0487,2.1192,1.295,.4155-2.597,.0416-.6996-.8103-1.2537v-9.0863h.6303v7.4659l2.2022-1.8631-.0206-.6856,1.5236-4.1275,.5401,.3255-1.4336,3.9546,.0416,.9002-2.8602,2.3684v.54l.8519,1.295-.0693,.8725-.4777,2.9225,2.1609,1.2603,.8103,2.3965,.6927-2.6386,.0206-1.4613,1.2674-3.0818,.741-1.0735,.5054,.4154,.0007,.0004Zm-9.786,7.3483l-.0623,1.6205h-.6094l.0487-1.6205h.623Z" fill="#696"/><path d="M87.6812,270.1275l-.2979,.1246-.4294-1.3366,.2979-.1316,.4294,1.3436Zm5.4989-4.564l-.3532,.5264-.5887,1.406-.007,.7203-.5817,2.1885h-.0487l-.6856-1.9324-.8655-.4641-.083,2.1192-.3115-.0276,.097-2.1885,.007-.0693-1.205-.6926-.5747-.0206-.4294-.2839,.1799-.2632,.3255,.2285,.007-.5194-.2285-1.6898-.0206-2.0153,.3325,.007,.0206,1.9807,.2356,1.6968-.0277,.5541,.3532,.0206,1.0598,.644,.2079-1.302,.0206-.3531-.4084-.6234v-4.5293h.3115v3.7191l1.1011-.9212-.007-.3461,.7686-2.0706,.2702,.1523-.7133,1.9736,.0206,.4431-1.4336,1.1911v.2702l.4294,.644-.0346,.4365-.2425,1.4613,1.0805,.6234,.4084,1.1981,.3461-1.302,.007-.734,.637-1.5512,.3672-.54,.2562,.2355v-.0004Zm-4.8965,3.6844l-.0277,.8032h-.3048l.0277-.8032h.3048Z" fill="#696"/><path d="M87.6812,270.1275l-.2979,.1246-.4294-1.3366,.2979-.1316,.4294,1.3436Zm5.4989-4.564l-.3532,.5264-.5887,1.406-.007,.7203-.5817,2.1885h-.0487l-.6856-1.9324-.8655-.4641-.083,2.1192-.3115-.0276,.097-2.1885,.007-.0693-1.205-.6926-.5747-.0206-.4294-.2839,.1799-.2632,.3255,.2285,.007-.5194-.2285-1.6898-.0206-2.0153,.3325,.007,.0206,1.9807,.2356,1.6968-.0277,.5541,.3532,.0206,1.0598,.644,.2079-1.302,.0206-.3531-.4084-.6234v-4.5293h.3115v3.7191l1.1011-.9212-.007-.3461,.7686-2.0706,.2702,.1523-.7133,1.9736,.0206,.4431-1.4336,1.1911v.2702l.4294,.644-.0346,.4365-.2425,1.4613,1.0805,.6234,.4084,1.1981,.3461-1.302,.007-.734,.637-1.5512,.3672-.54,.2562,.2355v-.0004Zm-4.8965,3.6844l-.0277,.8032h-.3048l.0277-.8032h.3048Z" fill="none" stroke="#696" stroke-width=".04"/></g><g id="Temporary_coppicepair-7"><path d="M189.0174,251.0819l-.5957,.2492-.8519-2.6733,.5957-.2425,.8519,2.6663v.0003Zm10.9911-9.135l-.7063,1.0528-1.1911,2.8326-.0207,1.4476-1.1774,4.3908h-.0969l-1.3643-3.8923-1.7315-.9418-.1593,4.2315-.6303-.0623,.1939-4.3771,.0207-.1456-2.3965-1.3643-1.1568-.0417-.8519-.5817,.3672-.5124,.651,.4431,.0207-1.0388-.4571-3.3729-.0417-4.0306,.658,.0206,.0417,3.9613,.4641,3.3796-.0487,1.1081,.7133,.0417,2.1192,1.295,.4154-2.597,.0417-.6996-.8102-1.2467v-9.0727h.6303v7.4589l2.2022-1.8631-.0207-.6787,1.5306-4.1486,.5401,.3255-1.4336,3.9613,.0417,.8936-2.8602,2.3684v.54l.8519,1.295-.0693,.8725-.4778,2.9089,2.1609,1.2603,.8102,2.4031,.6926-2.6456,.014-1.4613,1.2744-3.0818,.741-1.0735,.5058,.4365-.0004,.0014Zm-9.779,7.3619l-.0623,1.6205h-.6093l.0487-1.6205h.623Z" fill="#696"/><path d="M205.4173,256.0407l-.2978,.1246-.4364-1.3226,.2978-.1316,.4364,1.3296Zm5.4922-4.557l-.3531,.5264-.5957,1.406-.014,.7203-.5817,2.1815h-.0346l-.6926-1.9324-.8589-.4641-.0899,2.1192-.3115-.0276,.0969-2.1815,.014-.0763-1.205-.6996-.5681-.0206-.4364-.2839,.1732-.2632,.3325,.2285,.007-.5194-.2216-1.6898-.0207-2.0153,.3255,.014,.0277,1.9737,.2285,1.6968-.0277,.5541,.3672,.0206,1.0458,.651,.2079-1.302,.014-.3461-.4084-.6234v-4.5434h.3255v3.7331l1.0874-.9348-.007-.3395,.762-2.0706,.2632,.1456-.7203,1.9877,.0277,.4365-1.4336,1.1911v.2702l.4364,.644-.0417,.4365-.2355,1.4613,1.0735,.6234,.4154,1.1981,.3461-1.309,.014-.7273,.637-1.5445,.3741-.54,.2562,.2355-.0007-.0004Zm-4.8825,3.6844l-.0417,.8102h-.2978l.0277-.8102h.3118Z" fill="#696"/><path d="M205.4173,256.0407l-.2978,.1246-.4364-1.3226,.2978-.1316,.4364,1.3296Zm5.4922-4.557l-.3531,.5264-.5957,1.406-.014,.7203-.5817,2.1815h-.0346l-.6926-1.9324-.8589-.4641-.0899,2.1192-.3115-.0276,.0969-2.1815,.014-.0763-1.205-.6996-.5681-.0206-.4364-.2839,.1732-.2632,.3325,.2285,.007-.5194-.2216-1.6898-.0207-2.0153,.3255,.014,.0277,1.9737,.2285,1.6968-.0277,.5541,.3672,.0206,1.0458,.651,.2079-1.302,.014-.3461-.4084-.6234v-4.5434h.3255v3.7331l1.0874-.9348-.007-.3395,.762-2.0706,.2632,.1456-.7203,1.9877,.0277,.4365-1.4336,1.1911v.2702l.4364,.644-.0417,.4365-.2355,1.4613,1.0735,.6234,.4154,1.1981,.3461-1.309,.014-.7273,.637-1.5445,.3741-.54,.2562,.2355-.0007-.0004Zm-4.8825,3.6844l-.0417,.8102h-.2978l.0277-.8102h.3118Z" fill="none" stroke="#696" stroke-width=".04"/></g><g id="Temporary_coppicepair-8"><path d="M292.9023,244.1561l-.6027,.2492-.8519-2.6733,.6027-.2425,.8519,2.6663v.0003Zm10.991-9.135l-.7203,1.0528-1.1774,2.8326-.0276,1.4476-1.1704,4.3908h-.104l-1.3643-3.8923-1.7244-.9418-.1523,4.2315-.637-.0623,.1939-4.3771,.0206-.1456-2.3965-1.3643-1.1567-.0417-.8519-.5817,.3671-.5124,.658,.4431,.014-1.0388-.4501-3.3729-.0487-4.0306,.6717,.0207,.0417,3.9613,.4641,3.3796-.0553,1.1081,.7133,.0417,2.1332,1.295,.4154-2.597,.0417-.6996-.8102-1.2467v-9.0727h.6303v7.4589l2.1955-1.863-.0206-.6787,1.5376-4.1485,.5334,.3255-1.4266,3.9613,.0487,.8936-2.8672,2.3684v.54l.8519,1.295-.0693,.8725-.4711,2.9089,2.1609,1.2603,.8032,2.4031,.6996-2.6456,.0206-1.4613,1.2743-3.0818,.734-1.0735,.4777,.4365-.0006,.0014Zm-9.786,7.3619l-.0623,1.6205h-.6094l.0553-1.6205h.6164Z" fill="#696"/><path d="M309.3022,249.1149l-.2978,.1246-.4365-1.3226,.2978-.1316,.4365,1.3296Zm5.4922-4.557l-.3531,.5264-.5957,1.406-.014,.7203-.5817,2.1815h-.0347l-.6926-1.9324-.8589-.4641-.09,2.1192-.3115-.0276,.097-2.1815,.014-.0763-1.205-.6996-.5681-.0206-.4365-.2839,.1799-.2632,.3255,.2285,.007-.5194-.2216-1.6898-.0206-2.0153,.3255,.014,.0276,1.9737,.2285,1.6968-.0276,.5541,.3671,.0206,1.0458,.651,.2079-1.302,.014-.3461-.4084-.6234v-4.5434h.3255v3.7331l1.0874-.9348-.007-.3395,.7619-2.0706,.2632,.1456-.7203,1.9877,.0276,.4365-1.4336,1.1911v.2702l.4365,.644-.0417,.4365-.2355,1.4613,1.0735,.6234,.4154,1.1981,.3461-1.309,.014-.7273,.637-1.5445,.3742-.54,.2562,.2355-.0003-.0004Zm-4.8825,3.6844l-.0417,.8102h-.2978l.0276-.8102h.3119Z" fill="#696"/><path d="M309.3022,249.1149l-.2978,.1246-.4365-1.3226,.2978-.1316,.4365,1.3296Zm5.4922-4.557l-.3531,.5264-.5957,1.406-.014,.7203-.5817,2.1815h-.0347l-.6926-1.9324-.8589-.4641-.09,2.1192-.3115-.0276,.097-2.1815,.014-.0763-1.205-.6996-.5681-.0206-.4365-.2839,.1799-.2632,.3255,.2285,.007-.5194-.2216-1.6898-.0206-2.0153,.3255,.014,.0276,1.9737,.2285,1.6968-.0276,.5541,.3671,.0206,1.0458,.651,.2079-1.302,.014-.3461-.4084-.6234v-4.5434h.3255v3.7331l1.0874-.9348-.007-.3395,.7619-2.0706,.2632,.1456-.7203,1.9877,.0276,.4365-1.4336,1.1911v.2702l.4365,.644-.0417,.4365-.2355,1.4613,1.0735,.6234,.4154,1.1981,.3461-1.309,.014-.7273,.637-1.5445,.3742-.54,.2562,.2355-.0003-.0004Zm-4.8825,3.6844l-.0417,.8102h-.2978l.0276-.8102h.3119Z" fill="none" stroke="#696" stroke-width=".04"/></g><g id="Temporary_coppicepair-9"><path d="M272.1256,327.2643l-.6027,.2492-.8519-2.6733,.6027-.2425,.8519,2.6663v.0003Zm10.991-9.135l-.7203,1.0528-1.1774,2.8326-.0276,1.4476-1.1704,4.3908h-.104l-1.3643-3.8923-1.7244-.9418-.1523,4.2315-.637-.0623,.1939-4.3771,.0206-.1456-2.3965-1.3643-1.1567-.0417-.8519-.5817,.3671-.5124,.658,.4431,.014-1.0388-.4501-3.3729-.0487-4.0306,.6717,.0206,.0417,3.9613,.4641,3.3796-.0553,1.1081,.7133,.0417,2.1332,1.295,.4154-2.597,.0417-.6996-.8102-1.2467v-9.0727h.6303v7.4589l2.1955-1.8631-.0206-.6787,1.5376-4.1486,.5334,.3255-1.4266,3.9613,.0487,.8936-2.8672,2.3684v.54l.8519,1.295-.0693,.8725-.4711,2.9089,2.1609,1.2603,.8032,2.4031,.6996-2.6456,.0206-1.4613,1.2743-3.0818,.734-1.0735,.4777,.4365-.0006,.0014Zm-9.786,7.3619l-.0623,1.6205h-.6094l.0553-1.6205h.6164Z" fill="#696"/><path d="M288.5255,332.2231l-.2978,.1246-.4365-1.3226,.2978-.1316,.4365,1.3296Zm5.4922-4.557l-.3531,.5264-.5957,1.406-.014,.7203-.5817,2.1815h-.0347l-.6926-1.9324-.8589-.4641-.09,2.1192-.3115-.0276,.097-2.1815,.014-.0763-1.205-.6996-.5681-.0206-.4365-.2839,.1799-.2632,.3255,.2285,.007-.5194-.2216-1.6898-.0206-2.0153,.3255,.014,.0276,1.9736,.2285,1.6968-.0276,.5541,.3671,.0206,1.0458,.651,.2079-1.302,.014-.3461-.4084-.6234v-4.5434h.3255v3.7331l1.0874-.9348-.007-.3395,.7619-2.0706,.2632,.1456-.7203,1.9877,.0276,.4365-1.4336,1.1911v.2702l.4365,.644-.0417,.4365-.2355,1.4613,1.0735,.6234,.4154,1.1981,.3461-1.309,.014-.7273,.637-1.5445,.3742-.54,.2562,.2355-.0003-.0004Zm-4.8825,3.6845l-.0417,.8102h-.2978l.0276-.8102h.3119Z" fill="#696"/><path d="M288.5255,332.2231l-.2978,.1246-.4365-1.3226,.2978-.1316,.4365,1.3296Zm5.4922-4.557l-.3531,.5264-.5957,1.406-.014,.7203-.5817,2.1815h-.0347l-.6926-1.9324-.8589-.4641-.09,2.1192-.3115-.0276,.097-2.1815,.014-.0763-1.205-.6996-.5681-.0206-.4365-.2839,.1799-.2632,.3255,.2285,.007-.5194-.2216-1.6898-.0206-2.0153,.3255,.014,.0276,1.9736,.2285,1.6968-.0276,.5541,.3671,.0206,1.0458,.651,.2079-1.302,.014-.3461-.4084-.6234v-4.5434h.3255v3.7331l1.0874-.9348-.007-.3395,.7619-2.0706,.2632,.1456-.7203,1.9877,.0276,.4365-1.4336,1.1911v.2702l.4365,.644-.0417,.4365-.2355,1.4613,1.0735,.6234,.4154,1.1981,.3461-1.309,.014-.7273,.637-1.5445,.3742-.54,.2562,.2355-.0003-.0004Zm-4.8825,3.6845l-.0417,.8102h-.2978l.0276-.8102h.3119Z" fill="none" stroke="#696" stroke-width=".04"/></g><g id="Temporary_coppicepair-10"><path d="M36.6529,327.105l-.5957,.2492-.8519-2.6663,.5957-.2425,.8519,2.6593v.0003Zm10.998-9.1144l-.7133,1.0528-1.1844,2.8326-.0207,1.4476-1.1634,4.3841h-.104l-1.3713-3.8853-1.7244-.9418-.1592,4.2455-.6304-.0693,.1939-4.3701,.0207-.1523-2.3965-1.3643-1.1567-.0417-.8519-.5817,.3672-.5058,.651,.4431,.0207-1.0388-.4571-3.3796-.0416-4.0376,.658,.014,.0416,3.9613,.4641,3.3866-.0486,1.1011,.7063,.0553,2.1193,1.295,.4155-2.597,.0416-.6926-.8102-1.2537v-9.0797h.6304v7.4659l2.2022-1.8701-.0207-.6787,1.5305-4.1415,.54,.3185-1.4336,3.9613,.0416,.8936-2.8602,2.3755v.5334l.8519,1.295-.0693,.8795-.4778,2.9089,2.1609,1.2537,.8102,2.4031,.6926-2.6386,.0207-1.4683,1.2673-3.0751,.741-1.0805,.5054,.4365,.0007,.0003Zm-9.786,7.3483l-.0623,1.6205h-.6093l.0486-1.6205h.623Z" fill="#696"/><path d="M53.0529,332.0775l-.2979,.1246-.4294-1.3366,.2979-.1316,.4294,1.3436Zm5.4989-4.557l-.3531,.5264-.5887,1.413-.007,.7203-.5817,2.1815h-.0623l-.6856-1.9394-.8589-.4571-.0829,2.1192-.3115-.0276,.097-2.1815,.007-.0829-1.1981-.6926-.5747-.0276-.4294-.2839,.1799-.2562,.3255,.2285,.007-.5264-.2285-1.6828-.0207-2.0153,.3325,.007,.0207,1.9737,.2355,1.7038-.0277,.5541,.3531,.014,1.0598,.651,.2079-1.302,.0207-.3531-.4085-.6234v-4.5293h.3255v3.7191l1.1011-.9282-.007-.3395,.7686-2.0776,.2702,.1523-.7133,1.9807,.0207,.4431-1.4406,1.219v.2702l.4294,.644-.0347,.4365-.2425,1.4683,1.0804,.6234,.4085,1.1911,.3461-1.302,.007-.734,.637-1.5445,.3672-.54,.2492,.2079v-.0009Zm-4.8965,3.6704l-.0277,.8032h-.3049l.0277-.8032h.3049Z" fill="#696"/><path d="M53.0529,332.0775l-.2979,.1246-.4294-1.3366,.2979-.1316,.4294,1.3436Zm5.4989-4.557l-.3531,.5264-.5887,1.413-.007,.7203-.5817,2.1815h-.0623l-.6856-1.9394-.8589-.4571-.0829,2.1192-.3115-.0276,.097-2.1815,.007-.0829-1.1981-.6926-.5747-.0276-.4294-.2839,.1799-.2562,.3255,.2285,.007-.5264-.2285-1.6828-.0207-2.0153,.3325,.007,.0207,1.9737,.2355,1.7038-.0277,.5541,.3531,.014,1.0598,.651,.2079-1.302,.0207-.3531-.4085-.6234v-4.5293h.3255v3.7191l1.1011-.9282-.007-.3395,.7686-2.0776,.2702,.1523-.7133,1.9807,.0207,.4431-1.4406,1.219v.2702l.4294,.644-.0347,.4365-.2425,1.4683,1.0804,.6234,.4085,1.1911,.3461-1.302,.007-.734,.637-1.5445,.3672-.54,.2492,.2079v-.0009Zm-4.8965,3.6704l-.0277,.8032h-.3049l.0277-.8032h.3049Z" fill="none" stroke="#696" stroke-width=".04"/></g><g id="Temporary_coppicepair-11"><path d="M258.274,161.0482l-.6027,.2562-.8519-2.6663,.6027-.2426,.8519,2.6527Zm10.991-9.121l-.7203,1.0528-1.1774,2.8325-.0276,1.4476-1.1704,4.3841h-.104l-1.3643-3.8853-1.7244-.9349-.1523,4.2385-.637-.0623,.1939-4.3841,.0206-.1522-2.3965-1.3713-1.1567-.0417-.8519-.5747,.3671-.5194,.658,.4571,.014-1.0458-.4501-3.3729-.0487-4.0376,.6717,.0207,.0417,3.9683,.4641,3.3866-.0553,1.1081,.7133,.0417,2.1332,1.2883,.4154-2.597,.0417-.6926-.8102-1.2467v-9.0797h.6303v7.4658l2.1955-1.8561-.0206-.6787,1.5376-4.1416,.5334,.3115-1.4266,3.9683,.0487,.8935-2.8672,2.3754v.5401l.8519,1.2883-.0693,.8726-.4711,2.9089,2.1609,1.2467,.8032,2.4031,.6996-2.6386,.0206-1.4682,1.2743-3.0818,.734-1.0735,.4777,.4364-.0006-.0004Zm-9.786,7.3549l-.0623,1.6205h-.6094l.0553-1.6205h.6164Z" fill="#696"/><path d="M274.6603,166.007l-.2978,.1316-.4295-1.3367,.2978-.1246,.4295,1.3296Zm5.5058-4.557l-.3531,.5264-.5957,1.4196-.014,.7203-.5817,2.1886h-.0553l-.6926-1.9394-.8655-.4641-.0829,2.1192-.3115-.0277,.097-2.1886,.014-.0763-1.205-.6856-.5681-.0207-.4365-.2908,.1732-.2562,.3325,.2285,.007-.5194-.2079-1.6898-.0206-2.0153,.3255,.007,.0206,1.9806,.2355,1.6968-.0276,.554,.3601,.0207,1.0528,.644,.2079-1.302,.014-.3461-.4084-.6234v-4.5364h.3255v3.7331l1.0874-.9282-.007-.3395,.7549-2.0706,.2702,.1593-.7063,1.9806,.0276,.4431-1.4336,1.1844v.2702l.4365,.644-.0417,.4364-.2355,1.4543,1.0735,.6234,.4154,1.1981,.3461-1.316,.007-.7343,.644-1.5445,.3671-.5401,.2562,.2216-.0011,.0007Zm-4.8965,3.6775l-.0276,.8102h-.3115l.0276-.8102h.3115Z" fill="#696"/><path d="M274.6603,166.007l-.2978,.1316-.4295-1.3367,.2978-.1246,.4295,1.3296Zm5.5058-4.557l-.3531,.5264-.5957,1.4196-.014,.7203-.5817,2.1886h-.0553l-.6926-1.9394-.8655-.4641-.0829,2.1192-.3115-.0277,.097-2.1886,.014-.0763-1.205-.6856-.5681-.0207-.4365-.2908,.1732-.2562,.3325,.2285,.007-.5194-.2079-1.6898-.0206-2.0153,.3255,.007,.0206,1.9806,.2355,1.6968-.0276,.554,.3601,.0207,1.0528,.644,.2079-1.302,.014-.3461-.4084-.6234v-4.5364h.3255v3.7331l1.0874-.9282-.007-.3395,.7549-2.0706,.2702,.1593-.7063,1.9806,.0276,.4431-1.4336,1.1844v.2702l.4365,.644-.0417,.4364-.2355,1.4543,1.0735,.6234,.4154,1.1981,.3461-1.316,.007-.7343,.644-1.5445,.3671-.5401,.2562,.2216-.0011,.0007Zm-4.8965,3.6775l-.0276,.8102h-.3115l.0276-.8102h.3115Z" fill="none" stroke="#696" stroke-width=".04"/></g></svg>