<?xml version="1.0" encoding="UTF-8"?><svg id="Layer_2" xmlns="http://www.w3.org/2000/svg" width="350" height="350" viewBox="0 0 350 350"><g id="Heath"><rect x="174.7956" y="24.549" width=".63" height="4.0128" transform="translate(-1.7031 36.8419) rotate(-11.9527)" fill="#9a9"/><rect x="178.2917" y="20.1202" width=".63" height="7.4168" transform="translate(-1.5729 21.9688) rotate(-7.0078)" fill="#9a9"/><rect x="182.1757" y="18.0453" width=".63" height="8.974" transform="translate(-.7824 7.6479) rotate(-2.3957)" fill="#9a9"/><rect x="185.9642" y="17.7824" width=".63" height="9.177" fill="#9a9"/><rect x="189.7669" y="18.0431" width=".63" height="8.9744" fill="#9a9"/><rect x="190.24" y="23.5163" width="7.4172" height=".6303" transform="translate(145.3171 213.0905) rotate(-82.5943)" fill="#9a9"/><line x1="197.8719" y1="24.5839" x2="197.0462" y2="28.5025" fill="none"/></g><g id="Heath-2"><rect x="297.6242" y="24.2669" width=".6447" height="4.0128" transform="translate(1.0554 62.5782) rotate(-12.0111)" fill="#9a9"/><rect x="301.1857" y="19.8457" width=".63" height="7.4168" transform="translate(-.6201 36.9899) rotate(-7.0134)" fill="#9a9"/><rect x="305.0554" y="17.7585" width=".623" height="8.974" transform="translate(-.663 12.784) rotate(-2.3957)" fill="#9a9"/><rect x="308.8453" y="17.4999" width=".6373" height="9.177" fill="#9a9"/><rect x="312.6334" y="17.768" width=".623" height="8.9744" fill="#9a9"/><rect x="313.0919" y="23.2251" width="7.4169" height=".6447" transform="translate(253.3026 334.811) rotate(-82.7208)" fill="#9a9"/><line x1="320.7457" y1="24.3011" x2="319.9127" y2="28.2271" fill="none"/></g><g id="Heath-3"><rect x="254.1866" y="82.2042" width=".6373" height="4.0127" transform="translate(-11.9496 54.7804) rotate(-12.0055)" fill="#9a9"/><rect x="257.7095" y="77.7887" width=".63" height="7.4169" transform="translate(-8.0203 32.115) rotate(-7.0134)" fill="#9a9"/><rect x="261.5917" y="75.7253" width=".623" height="8.9747" transform="translate(-3.0684 10.8051) rotate(-2.3497)" fill="#9a9"/><rect x="265.3858" y="75.4456" width=".6373" height="9.177" fill="#9a9"/><rect x="269.1742" y="75.7137" width=".623" height="8.9744" fill="#9a9"/><rect x="269.6576" y="81.186" width="7.4172" height=".6303" transform="translate(158.5971 342.6516) rotate(-82.8771)" fill="#9a9"/><line x1="277.2865" y1="82.2468" x2="276.4536" y2="86.1727" fill="none"/></g><g id="Heath-4"><rect x="65.8709" y="96.9047" width=".63" height="4.0127" transform="translate(-19.0661 15.8685) rotate(-11.9639)" fill="#9a9"/><rect x="69.3941" y="92.4895" width=".63" height="7.4169" transform="translate(-11.2158 9.2235) rotate(-7.0078)" fill="#9a9"/><rect x="73.2618" y="90.3998" width=".63" height="8.974" transform="translate(-3.902 3.1585) rotate(-2.3957)" fill="#9a9"/><rect x="77.048" y="90.1421" width=".63" height="9.177" fill="#9a9"/><rect x="80.8434" y="90.4028" width=".63" height="8.9744" fill="#9a9"/><rect x="81.3226" y="95.8822" width="7.4172" height=".63" transform="translate(-20.9673 168.6439) rotate(-82.8771)" fill="#9a9"/><line x1="88.9561" y1="96.9433" x2="88.1231" y2="100.8619" fill="none"/></g><g id="Heath-5"><rect x="29.6629" y="168.4144" width=".63" height="4.0127" transform="translate(-34.6449 9.9035) rotate(-11.9527)" fill="#9a9"/><rect x="33.1806" y="163.997" width=".63" height="7.4168" transform="translate(-20.2265 5.3447) rotate(-7.0134)" fill="#9a9"/><rect x="37.0467" y="161.9144" width=".63" height="8.974" transform="translate(-6.923 1.7072) rotate(-2.3957)" fill="#9a9"/><rect x="40.8321" y="161.6541" width=".63" height="9.177" fill="#9a9"/><rect x="44.6275" y="161.9148" width=".63" height="8.9743" fill="#9a9"/><rect x="45.1108" y="167.399" width="7.4172" height=".6303" transform="translate(-123.6343 195.4825) rotate(-82.9176)" fill="#9a9"/><line x1="52.7398" y1="168.4556" x2="51.9068" y2="172.3742" fill="none"/></g><g id="Heath-6"><rect x="65.8847" y="263.5237" width=".63" height="4.0054" transform="translate(-53.6577 19.5165) rotate(-11.9763)" fill="#9a9"/><rect x="69.4092" y="259.1011" width=".623" height="7.4239" transform="translate(-31.5184 10.4595) rotate(-7.0021)" fill="#9a9"/><rect x="73.2704" y="257.0357" width=".63" height="8.9596" transform="translate(-10.8672 3.3045) rotate(-2.3957)" fill="#9a9"/><rect x="77.048" y="256.7648" width=".63" height="9.177" fill="#9a9"/><rect x="80.8434" y="257.0399" width=".63" height="8.967" fill="#9a9"/><rect x="81.318" y="262.5109" width="7.4169" height=".623" transform="translate(-185.7484 317.4677) rotate(-83.4826)" fill="#9a9"/><line x1="88.9561" y1="263.566" x2="88.1231" y2="267.4846" fill="none"/></g><g id="Heath-7"><rect x="189.0426" y="248.8074" width=".6303" height="3.991" transform="translate(-48.067 44.9195) rotate(-12.0167)" fill="#9a9"/><rect x="192.5427" y="244.372" width=".623" height="7.4242" transform="translate(-28.7131 25.2694) rotate(-6.9786)" fill="#9a9"/><rect x="196.4098" y="242.3169" width=".63" height="8.967" transform="translate(-10.1445 8.4389) rotate(-2.3957)" fill="#9a9"/><rect x="200.1973" y="242.0393" width=".6373" height="9.177" fill="#9a9"/><rect x="203.9854" y="242.3074" width=".623" height="8.967" fill="#9a9"/><rect x="204.4612" y="247.7837" width="7.4098" height=".623" transform="translate(-61.8451 426.9201) rotate(-83.5174)" fill="#9a9"/><line x1="212.0976" y1="248.8478" x2="211.2646" y2="252.7664" fill="none"/></g><g id="Heath-8"><rect x="297.6508" y="241.5568" width=".6373" height="4.0058" transform="translate(-44.1961 67.4068) rotate(-12.0223)" fill="#9a9"/><rect x="301.1757" y="237.1608" width=".623" height="7.4176" transform="translate(-26.7654 37.9832) rotate(-6.9033)" fill="#9a9"/><rect x="305.0687" y="235.0647" width=".623" height="8.974" transform="translate(-9.7465 12.9745) rotate(-2.3957)" fill="#9a9"/><rect x="308.8453" y="234.796" width=".6373" height="9.177" fill="#9a9"/><rect x="312.6334" y="235.0641" width=".623" height="8.967" fill="#9a9"/><rect x="313.089" y="240.5724" width="7.4242" height=".6157" transform="translate(47.9149 534.285) rotate(-84.7444)" fill="#9a9"/><line x1="320.7457" y1="241.6046" x2="319.9127" y2="245.5232" fill="none"/></g><g id="Heath-9"><rect x="275.9038" y="328.4721" width=".6373" height="4.0058" transform="translate(-62.7769 64.7835) rotate(-12.0223)" fill="#9a9"/><rect x="279.4458" y="324.0375" width=".6373" height="7.4239" transform="translate(-37.868 36.5493) rotate(-7.0021)" fill="#9a9"/><rect x="283.3311" y="321.9763" width=".623" height="8.96" transform="translate(-13.6493 12.3793) rotate(-2.4415)" fill="#9a9"/><rect x="287.1156" y="321.7147" width=".6373" height="9.177" fill="#9a9"/><rect x="290.9037" y="321.9824" width=".623" height="8.967" fill="#9a9"/><rect x="291.3775" y="327.4689" width="7.4242" height=".623" transform="translate(-58.0515 591.9949) rotate(-84.8076)" fill="#9a9"/><line x1="299.0163" y1="328.5232" x2="298.1833" y2="332.4418" fill="none"/></g><g id="Heath-10"><rect x="29.6696" y="328.3228" width=".63" height="4.0054" transform="translate(-67.8922 13.412) rotate(-11.9763)" fill="#9a9"/><rect x="33.198" y="323.8852" width=".623" height="7.4169" transform="translate(-39.7176 6.5356) rotate(-7.0078)" fill="#9a9"/><rect x="37.0594" y="321.8301" width=".63" height="8.9593" transform="translate(-13.4776 1.8271) rotate(-2.3728)" fill="#9a9"/><rect x="40.8321" y="321.5624" width=".63" height="9.1843" fill="#9a9"/><rect x="44.6275" y="321.8232" width=".63" height="8.9744" fill="#9a9"/><rect x="45.0909" y="327.3012" width="7.4312" height=".623" transform="translate(-282.2288 338.9181) rotate(-83.4826)" fill="#9a9"/><line x1="52.7398" y1="328.3493" x2="51.9068" y2="332.2679" fill="none"/></g><g id="Heath-11"><rect x="261.4334" y="154.6321" width=".6373" height="4.0127" transform="translate(-26.8565 57.8719) rotate(-12.0055)" fill="#9a9"/><rect x="264.9579" y="150.217" width=".63" height="7.4168" transform="translate(-16.8096 33.5419) rotate(-7.0134)" fill="#9a9"/><rect x="268.8511" y="148.1391" width=".623" height="8.9747" transform="translate(-6.0311 11.1636) rotate(-2.3497)" fill="#9a9"/><rect x="272.6291" y="147.8777" width=".6373" height="9.177" fill="#9a9"/><rect x="276.4175" y="148.1455" width=".623" height="8.9743" fill="#9a9"/><rect x="276.9027" y="153.6266" width="7.4172" height=".6303" transform="translate(93.0624 413.299) rotate(-82.8771)" fill="#9a9"/><line x1="284.5298" y1="154.6789" x2="283.6968" y2="158.6049" fill="none"/></g></svg>