<?xml version="1.0" encoding="UTF-8"?><svg id="Layer_2" xmlns="http://www.w3.org/2000/svg" width="123.4722mm" height="123.4722mm" viewBox="0 0 350 350"><g id="Scrub"><g id="bushFillSymbol"><polygon points="187.84 34.72 179.68 34.72 183.76 30.04 184.72 28.6 185.2 27.04 185.44 25.4801 185.2 24.76 184.84 24.2801 184.24 23.92 182.92 23.8 181.48 24.04 180.28 24.64 178.36 26.0801 177.88 25.72 179.56 24.04 181 22.12 182.08 20.0801 182.92 17.92 183.04 16.96 182.8 16 182.2 15.16 180.88 14.2 179.32 13.84 178.24 13.96 177.28 14.44 176.44 15.16 175.12 17.0801 174.16 19.24 173.68 21.64 173.8 24.04 174.28 26.6801 175.24 29.2 176.56 31.6 178.12 33.8801 178.36 34.36 177.88 34.6 177.64 34.12 175.96 31.96 174.76 29.44 173.8 26.8 173.2 24.04 173.08 21.52 173.56 19.12 174.52 16.72 176.08 14.6801 177.04 13.84 178.12 13.36 179.32 13.24 179.32 13.24 181.12 13.72 182.68 14.8 183.4 15.76 183.64 16.84 183.52 18.04 182.68 20.32 181.48 22.4801 180.52 23.8 181.36 23.44 182.8 23.2 182.92 23.2 184.48 23.32 185.32 23.8 185.8 24.52 186.04 25.36 186.04 25.4801 185.8 27.16 185.2 28.84 184.24 30.4 181 34.12 187.84 34.12 187.84 34.72" fill="#9a9"/></g><g id="smallBushFillSymbol"><polygon points="198.28 44.8 193.84 44.8 196.12 42.2801 196.6 41.56 196.84 40.84 196.84 40.12 196.84 39.76 196.72 39.52 196.48 39.4 195.76 39.4 195.16 39.52 194.56 39.76 193.6 40.4801 193.24 40.12 194.08 39.2801 194.8 38.32 195.28 37.24 195.64 36.2801 195.76 35.8 195.64 35.32 195.4 35.0801 194.68 34.6 193.96 34.4801 193.48 34.4801 193.12 34.72 192.64 34.96 192.04 35.92 191.56 37 191.32 38.2 191.44 39.2801 191.68 40.6 192.16 41.92 192.76 43.12 193.72 44.44 193.12 44.6801 193 44.44 192.28 43.3601 191.56 42.1601 191.08 40.72 190.84 39.4 190.72 38.0801 190.96 36.8801 191.56 35.6801 192.28 34.6 192.76 34.12 193.36 33.8801 193.96 33.76 195.04 34.12 195.88 34.6 196.12 35.2 196.36 35.8 196.24 36.4 195.88 37.4801 195.28 38.6801 195.04 38.92 195.76 38.8 196.6 38.92 197.08 39.16 197.44 39.64 197.56 40 197.56 40.12 197.44 40.96 197.08 41.8 196.6 42.64 195.16 44.2 198.28 44.2 198.28 44.8" fill="#9a9"/></g></g><g id="Scrub-2"><g id="bushFillSymbol-2"><polygon points="305.92 34.4801 297.76 34.4801 301.96 29.8 302.8 28.36 303.4 26.8 303.52 25.12 303.4 24.52 302.92 23.92 302.32 23.6801 301 23.44 299.68 23.6801 298.36 24.4 296.44 25.84 295.96 25.36 297.76 23.8 299.08 21.8801 300.28 19.84 301 17.56 301.12 16.6 300.88 15.76 300.28 14.92 298.96 13.96 297.4 13.6 296.32 13.72 295.36 14.0801 294.52 14.8 293.2 16.72 292.24 19 291.88 21.2801 291.88 23.6801 292.48 26.32 293.32 28.96 294.64 31.36 296.2 33.52 296.44 34 295.96 34.36 295.72 33.8801 294.16 31.72 292.84 29.2 291.88 26.56 291.28 23.8 291.28 21.2801 291.64 18.76 292.72 16.4801 294.16 14.44 295.12 13.6 296.2 13.12 297.4 13 297.4 13 299.32 13.4801 300.76 14.56 301.48 15.52 301.72 16.6 301.72 16.6 301.6 17.8 300.76 20.0801 299.68 22.24 298.6 23.56 299.44 23.0801 301 22.84 301 22.84 302.56 23.0801 303.4 23.56 304 24.2801 304.12 25.12 304.12 25.24 303.88 26.92 303.4 28.6 302.44 30.16 299.08 33.8801 305.92 33.8801 305.92 34.4801" fill="#9a9"/></g><g id="smallBushFillSymbol-2"><polygon points="316.36 44.5601 311.92 44.5601 314.2 42.04 314.68 41.32 314.92 40.4801 315.04 39.76 314.92 39.52 314.8 39.2801 314.56 39.16 313.96 39.04 313.24 39.16 312.64 39.52 311.68 40.24 311.32 39.76 312.16 38.92 312.88 38.0801 313.36 37 313.72 35.92 313.84 35.56 313.72 35.0801 313.48 34.72 312.88 34.36 312.04 34.12 311.68 34.24 311.2 34.36 310.84 34.72 310.12 35.6801 309.64 36.76 309.52 37.84 309.52 39.04 309.76 40.36 310.24 41.56 310.84 42.7601 311.8 44.0801 311.32 44.44 311.08 44.2 310.36 43.12 309.64 41.8 309.16 40.4801 308.92 39.16 308.92 37.84 309.16 36.52 309.64 35.32 310.36 34.36 310.96 33.8801 311.56 33.64 312.16 33.52 313.12 33.76 313.96 34.36 314.32 34.96 314.44 35.44 314.32 36.16 313.96 37.24 313.36 38.32 313.12 38.56 313.84 38.44 313.96 38.44 314.8 38.56 315.16 38.92 315.52 39.2801 315.64 39.76 315.64 39.76 315.52 40.72 315.28 41.56 314.8 42.4 313.36 43.9601 316.36 43.9601 316.36 44.5601" fill="#9a9"/></g></g><g id="Scrub-3"><g id="bushFillSymbol-3"><polygon points="264.16 90.1601 256 90.1601 260.08 85.4801 261.04 84.04 261.52 82.4801 261.76 80.92 261.64 80.2 261.16 79.72 260.56 79.3601 259.24 79.24 257.8 79.4801 256.6 80.0801 254.68 81.52 254.2 81.1601 256 79.4801 257.32 77.5601 258.52 75.52 259.24 73.3601 259.36 72.2801 259.12 71.44 258.52 70.6 257.2 69.64 255.64 69.2801 254.56 69.4 253.6 69.8801 252.76 70.4801 251.44 72.52 250.48 74.6801 250.12 77.0801 250.12 79.3601 250.72 82.12 251.56 84.64 252.88 87.04 254.44 89.32 254.68 89.8 254.2 90.04 253.96 89.5601 252.4 87.4 251.08 84.8801 250.12 82.24 249.52 79.4801 249.4 76.9601 249.88 74.5601 250.96 72.1601 252.4 70.12 253.36 69.2801 254.44 68.8 255.64 68.6801 255.64 68.6801 257.44 69.1601 259 70.24 259.72 71.2 259.96 72.2801 259.96 72.4 259.84 73.4801 259 75.7601 257.8 77.92 256.84 79.24 257.68 78.8801 259.12 78.64 259.24 78.64 260.8 78.7601 261.64 79.24 262.12 79.9601 262.36 80.8 262.36 80.92 262.12 82.6 261.52 84.2801 260.56 85.84 257.32 89.5601 264.16 89.5601 264.16 90.1601" fill="#9a9"/></g><g id="smallBushFillSymbol-3"><polygon points="274.6 100.24 270.16 100.24 272.44 97.72 272.92 97 273.16 96.2801 273.28 95.44 273.16 95.2 273.04 94.9601 272.8 94.84 272.08 94.84 271.48 94.9601 270.88 95.2 269.92 95.92 269.56 95.44 270.4 94.6 271.12 93.7601 271.6 92.6801 271.96 91.72 272.08 91.24 271.96 90.7601 271.72 90.4 271 90.04 270.28 89.8 269.8 89.92 269.44 90.04 269.08 90.4 268.36 91.3601 267.88 92.44 267.76 93.64 267.76 94.72 268 96.04 268.48 97.3601 269.08 98.5601 270.04 99.8801 269.44 100.12 269.32 99.8801 268.6 98.8 267.88 97.6 267.4 96.1601 267.16 94.84 267.16 93.52 267.28 92.32 267.88 91.12 268.6 90.04 269.08 89.5601 269.8 89.32 270.4 89.2 271.36 89.44 272.2 90.04 272.56 90.64 272.68 91.24 272.56 91.84 272.2 92.92 271.6 94 271.36 94.3601 272.08 94.24 272.2 94.24 272.92 94.3601 273.4 94.6 273.76 95.0801 273.88 95.44 273.88 95.5601 273.76 96.4 273.4 97.24 272.92 98.0801 271.6 99.64 274.6 99.64 274.6 100.24" fill="#9a9"/></g></g><g id="Scrub-4"><g id="bushFillSymbol-4"><polygon points="83.2 104.32 75.04 104.32 79.12 99.64 79.96 98.2 80.56 96.64 80.68 94.9601 80.56 94.3601 80.08 93.7601 79.48 93.52 78.16 93.2801 76.84 93.52 75.52 94.12 73.6 95.6801 73.24 95.2 74.92 93.52 76.36 91.72 77.44 89.5601 78.16 87.4 78.28 86.44 78.04 85.4801 77.56 84.7601 76.12 83.8 74.56 83.44 73.48 83.5601 72.64 83.92 71.8 84.64 70.36 86.5601 69.52 88.84 69.04 91.12 69.16 93.52 69.64 96.1601 70.6 98.8 71.8 101.2 73.36 103.3601 73.72 103.84 73.12 104.2 72.88 103.72 71.32 101.5601 70 99.04 69.04 96.4 68.56 93.64 68.44 91.12 68.92 88.6 69.88 86.32 71.32 84.2801 72.28 83.44 73.48 82.9601 74.56 82.84 74.68 82.84 76.48 83.32 78.04 84.4 78.64 85.3601 78.88 86.44 78.76 87.64 77.92 89.92 76.84 91.9601 75.76 93.4 76.72 92.92 78.16 92.6801 78.16 92.6801 79.72 92.92 80.56 93.4 81.16 94.12 81.28 94.9601 81.28 94.9601 81.16 96.7601 80.56 98.44 79.6 100 76.36 103.72 83.2 103.72 83.2 104.32" fill="#9a9"/></g><g id="smallBushFillSymbol-4"><polygon points="93.64 114.4 89.2 114.4 91.48 111.7601 91.84 111.1601 92.08 110.32 92.2 109.6 92.2 109.3601 91.96 109.12 91.72 109 91.12 108.8801 90.52 109 89.92 109.3601 88.84 110.0801 88.48 109.6 89.32 108.7601 90.04 107.8 90.64 106.84 91 105.7601 91 105.4 90.88 104.92 90.64 104.5601 90.04 104.2 89.32 103.9601 88.84 104.0801 88.36 104.2 88 104.5601 87.4 105.52 86.92 106.6 86.68 107.6801 86.68 108.8801 86.92 110.2 87.4 111.4 88 112.6 88.96 113.92 88.48 114.2801 88.36 114.04 87.52 112.9601 86.92 111.64 86.44 110.32 86.08 109 86.08 107.6801 86.32 106.3601 86.8 105.1601 87.52 104.2 88.12 103.72 88.72 103.4801 89.32 103.3601 90.28 103.6 91.12 104.2 91.48 104.6801 91.6 105.2801 91.6 106 91.12 107.0801 90.52 108.1601 90.4 108.4 91.12 108.2801 91.96 108.4 92.44 108.64 92.68 109.12 92.8 109.6 92.68 110.44 92.44 111.4 91.96 112.12 90.52 113.8 93.64 113.8 93.64 114.4" fill="#9a9"/></g></g><g id="Scrub-5"><g id="bushFillSymbol-5"><polygon points="48.28 173.08 40.12 173.08 44.32 168.4 45.16 166.9601 45.76 165.4 45.88 163.7201 45.76 163.1201 45.28 162.5201 44.68 162.28 43.36 162.04 42.04 162.28 40.72 162.88 38.8 164.44 38.44 163.9601 40.12 162.28 41.56 160.48 42.64 158.3201 43.36 156.1601 43.48 155.2 43.24 154.24 42.76 153.5201 41.32 152.5601 39.76 152.2 38.68 152.3201 37.72 152.68 37 153.4 35.56 155.3201 34.6 157.6 34.24 159.88 34.24 162.28 34.84 164.9201 35.8 167.5601 37 169.9601 38.56 172.1201 38.92 172.6 38.32 172.9601 38.08 172.48 36.52 170.2 35.2 167.8 34.24 165.04 33.64 162.4 33.64 159.88 34.12 157.3601 35.08 155.08 36.52 153.04 37.48 152.2 38.56 151.7201 39.76 151.6 39.88 151.6 41.68 151.9601 43.12 153.04 43.84 154.1201 44.08 155.2 43.96 156.4 43.12 158.5601 42.04 160.7201 40.96 162.1601 41.8 161.68 43.36 161.44 43.36 161.44 44.92 161.68 45.76 162.1601 46.36 162.88 46.48 163.7201 46.48 163.7201 46.36 165.5201 45.76 167.2 44.8 168.7601 41.56 172.3601 48.28 172.3601 48.28 173.08" fill="#9a9"/></g><g id="smallBushFillSymbol-5"><polygon points="58.72 183.1601 54.4 183.1601 56.68 180.5201 57.04 179.9201 57.28 179.08 57.4 178.3601 57.28 178.1201 57.16 177.88 56.92 177.7601 56.32 177.64 55.6 177.7601 55 178.1201 54.04 178.84 53.68 178.3601 54.52 177.5201 55.24 176.5601 55.72 175.6 56.2 174.5201 56.2 174.1601 56.08 173.68 55.84 173.3201 55.24 172.84 54.52 172.7201 54.04 172.7201 53.56 172.9601 53.2 173.3201 52.48 174.28 52.12 175.3601 51.88 176.44 51.88 177.64 52.12 178.9601 52.6 180.1601 53.2 181.3601 54.16 182.68 53.68 183.04 53.56 182.8 52.72 181.7201 52.12 180.4 51.64 179.08 51.28 177.64 51.28 176.44 51.52 175.1201 52 173.9201 52.72 172.84 53.32 172.48 53.92 172.24 54.52 172.1201 55.48 172.3601 56.32 172.9601 56.68 173.44 56.8 174.04 56.68 174.7601 56.32 175.84 55.72 176.9201 55.6 177.1601 56.32 177.04 57.16 177.1601 57.64 177.4 57.88 177.88 58 178.3601 57.88 179.2 57.64 180.1601 57.16 180.88 55.72 182.5601 58.72 182.5601 58.72 183.1601" fill="#9a9"/></g></g><g id="Scrub-6"><g id="bushFillSymbol-6"><polygon points="83.2 264.4 75.04 264.4 79.12 259.7201 79.96 258.4 80.56 256.7201 80.68 255.1601 80.56 254.44 80.08 253.9601 79.48 253.6 78.16 253.48 76.84 253.7201 75.52 254.3201 73.6 255.88 73.24 255.4 74.92 253.7201 76.36 251.8 77.44 249.7601 78.16 247.6 78.28 246.64 78.04 245.68 77.56 244.9601 76.12 244 74.56 243.64 73.48 243.7601 72.64 244.1201 71.8 244.84 70.36 246.7601 69.52 248.9201 69.04 251.3201 69.16 253.7201 69.64 256.3601 70.6 258.88 71.8 261.4 73.36 263.5601 73.72 264.04 73.12 264.4 72.88 263.9201 71.32 261.64 70 259.1201 69.04 256.48 68.56 253.7201 68.44 251.3201 68.92 248.8 69.88 246.5201 71.32 244.3601 72.28 243.64 73.48 243.1601 74.56 243.04 74.68 243.04 76.48 243.4 78.04 244.48 78.64 245.44 78.88 246.64 78.76 247.84 77.92 250 76.84 252.1601 75.76 253.6 76.72 253.1201 78.16 252.88 78.16 252.88 79.72 253.1201 80.56 253.48 81.16 254.3201 81.28 255.1601 81.28 255.1601 81.16 256.9601 80.56 258.64 79.6 260.08 76.36 263.8 83.2 263.8 83.2 264.4" fill="#9a9"/></g><g id="smallBushFillSymbol-6"><polygon points="93.64 274.6 89.2 274.6 91.48 271.9601 91.84 271.24 92.08 270.5201 92.2 269.8 92.2 269.5601 91.96 269.3201 91.72 269.2 91.12 269.08 90.52 269.2 89.92 269.44 88.84 270.28 88.48 269.8 89.32 268.9601 90.04 268 90.64 267.04 91 265.9601 91 265.48 90.88 265.1201 90.64 264.7601 90.04 264.28 89.32 264.1601 88.84 264.1601 88.36 264.4 88 264.7601 87.4 265.7201 86.92 266.68 86.68 267.88 86.68 269.08 86.92 270.28 87.4 271.6 88 272.8 88.96 274.1201 88.48 274.48 88.36 274.2401 87.52 273.16 86.92 271.84 86.44 270.5201 86.08 269.08 86.08 267.88 86.32 266.5601 86.8 265.3601 87.52 264.28 88.12 263.8 88.72 263.5601 89.32 263.5601 89.32 263.5601 90.28 263.8 91.12 264.4 91.48 264.88 91.6 265.48 91.6 266.08 91.12 267.28 90.52 268.3601 90.4 268.6 91.12 268.48 91.96 268.6 92.44 268.84 92.68 269.3201 92.8 269.8 92.68 270.64 92.44 271.6 91.96 272.3201 90.52 273.88 93.64 273.88 93.64 274.6" fill="#9a9"/></g></g><g id="Scrub-7"><g id="bushFillSymbol-7"><polygon points="201.52 250.3601 193.36 250.3601 197.44 245.68 198.4 244.24 198.88 242.68 199.12 241 198.88 240.4 198.52 239.8 197.92 239.44 196.48 239.3201 195.16 239.5601 193.96 240.1601 192.04 241.7201 191.56 241.24 193.24 239.5601 194.68 237.64 195.76 235.6 196.6 233.44 196.72 232.48 196.48 231.5201 195.88 230.8 194.56 229.84 192.88 229.48 191.92 229.6 190.96 229.9601 190.12 230.68 188.8 232.6 187.84 234.88 187.36 237.1601 187.48 239.5601 187.96 242.2 188.92 244.7201 190.24 247.24 191.8 249.4 192.04 249.88 191.56 250.24 191.32 249.7601 189.64 247.48 188.32 244.9601 187.48 242.3201 186.88 239.68 186.76 237.1601 187.24 234.64 188.2 232.3601 189.64 230.3201 190.72 229.48 191.8 229 193 228.88 193 228.88 194.8 229.24 196.36 230.3201 197.08 231.4 197.32 232.48 197.32 232.48 197.2 233.68 196.36 235.84 195.16 238 194.2 239.44 195.04 238.9601 196.48 238.7201 196.6 238.7201 198.16 238.9601 198.88 239.3201 199.48 240.1601 199.72 241 199.72 241 199.48 242.8 198.88 244.48 197.92 246.04 194.68 249.64 201.52 249.64 201.52 250.3601" fill="#9a9"/></g><g id="smallBushFillSymbol-7"><polygon points="211.96 260.44 207.52 260.44 209.8 257.8 210.28 257.08 210.52 256.3601 210.52 255.64 210.52 255.4 210.4 255.1601 210.04 255.04 209.44 254.9201 208.84 255.04 208.24 255.28 207.28 256.1201 206.92 255.64 207.76 254.8 208.36 253.84 208.96 252.88 209.32 251.8 209.32 251.3201 209.32 250.9601 209.08 250.6 208.36 250.1201 207.64 250 207.16 250.1201 206.8 250.24 206.32 250.6 205.72 251.5601 205.24 252.64 205 253.7201 205.12 254.9201 205.36 256.24 205.84 257.44 206.44 258.64 207.4 259.9601 206.8 260.3201 206.68 260.08 205.96 259 205.24 257.68 204.76 256.3601 204.52 254.9201 204.4 253.7201 204.64 252.4 205.24 251.2 205.96 250.1201 206.44 249.7601 207.04 249.5201 207.64 249.4 207.76 249.4 208.72 249.64 209.56 250.24 209.8 250.7201 210.04 251.3201 209.92 252.04 209.56 253.1201 208.96 254.2 208.72 254.44 209.44 254.3201 209.44 254.3201 210.28 254.44 210.76 254.68 211.12 255.1601 211.12 255.64 211.12 255.64 211.12 256.48 210.76 257.44 210.28 258.1601 208.84 259.84 211.96 259.84 211.96 260.44" fill="#9a9"/></g></g><g id="Scrub-8"><g id="bushFillSymbol-8"><polygon points="305.92 243.28 297.76 243.28 301.96 238.6 302.8 237.28 303.4 235.6 303.52 234.04 303.4 233.44 302.92 232.84 302.32 232.48 301 232.3601 299.68 232.6 298.36 233.2 296.44 234.7601 295.96 234.28 297.76 232.6 299.08 230.68 300.28 228.64 301 226.48 301.12 225.5201 300.88 224.5601 300.28 223.84 298.96 222.88 297.4 222.5201 296.32 222.64 295.36 223 294.52 223.7201 293.2 225.64 292.24 227.9201 291.88 230.2 291.88 232.6 292.48 235.24 293.32 237.7601 294.64 240.28 296.2 242.44 296.44 242.9201 295.96 243.28 295.72 242.8 294.16 240.5201 292.84 238.1201 291.88 235.3601 291.28 232.7201 291.28 230.2 291.64 227.68 292.72 225.4 294.16 223.3601 295.12 222.5201 296.2 222.04 297.4 221.9201 299.32 222.28 300.76 223.3601 301.48 224.44 301.72 225.4 301.72 225.5201 301.6 226.7201 300.76 228.88 299.68 231.04 298.6 232.48 299.44 232 301 231.7601 301 231.7601 302.56 232 303.4 232.3601 304 233.2 304.12 234.04 304.12 234.04 303.88 235.84 303.4 237.5201 302.44 239.08 299.08 242.68 305.92 242.68 305.92 243.28" fill="#9a9"/></g><g id="smallBushFillSymbol-8"><polygon points="316.36 253.48 312.04 253.48 314.2 250.84 314.68 250.1201 314.92 249.4 315.04 248.68 314.92 248.44 314.8 248.2 314.56 248.08 313.96 247.9601 313.24 248.08 312.64 248.3201 311.68 249.1601 311.32 248.68 312.16 247.84 312.88 246.88 313.36 245.9201 313.72 244.84 313.84 244.3601 313.72 244 313.48 243.64 312.88 243.1601 312.04 243.04 311.68 243.1601 311.2 243.28 310.84 243.64 310.12 244.6 309.64 245.68 309.52 246.7601 309.52 247.9601 309.76 249.28 310.24 250.48 310.84 251.68 311.8 253 311.32 253.3601 311.08 253.1201 310.36 252.04 309.64 250.7201 309.16 249.4 308.92 247.9601 308.92 246.7601 309.16 245.44 309.64 244.24 310.36 243.1601 310.96 242.68 311.56 242.5601 312.16 242.44 312.16 242.44 313.12 242.68 313.96 243.28 314.32 243.7601 314.44 244.3601 314.32 245.08 313.96 246.1601 313.36 247.24 313.12 247.48 313.84 247.3601 313.96 247.3601 314.8 247.48 315.16 247.7201 315.52 248.2 315.64 248.68 315.64 248.68 315.52 249.5201 315.28 250.48 314.8 251.2 313.36 252.88 316.36 252.88 316.36 253.48" fill="#9a9"/></g></g><g id="Scrub-9"><g id="bushFillSymbol-9"><polygon points="285.04 326.9201 276.88 326.9201 281.08 322.2401 281.92 320.8 282.4 319.2401 282.64 317.56 282.52 316.96 282.04 316.36 281.44 316.1201 280.12 315.88 278.68 316.1201 277.48 316.8401 275.56 318.28 275.08 317.8 276.88 316.1201 278.2 314.3201 279.4 312.16 280.12 310 280.24 309.0401 280 308.08 279.4 307.36 278.08 306.4 276.52 306.0401 275.44 306.16 274.48 306.5201 273.64 307.2401 272.32 309.16 271.36 311.4401 271 313.7201 271 316.1201 271.6 318.76 272.44 321.4 273.76 323.8 275.32 325.96 275.56 326.4401 275.08 326.8 274.84 326.3201 273.28 324.16 271.96 321.6401 271 319 270.4 316.2401 270.4 313.7201 270.76 311.2 271.84 308.9201 273.28 306.88 274.24 306.0401 275.32 305.56 276.52 305.4401 278.32 305.9201 279.88 307 280.6 307.96 280.84 309.0401 280.84 309.0401 280.72 310.2401 279.88 312.5201 278.8 314.56 277.72 316 278.56 315.5201 280.12 315.28 280.12 315.28 281.68 315.5201 282.52 316 283 316.7201 283.24 317.56 283.24 317.68 283 319.36 282.4 321.0401 281.56 322.6 278.2 326.3201 285.04 326.3201 285.04 326.9201" fill="#9a9"/></g><g id="smallBushFillSymbol-9"><polygon points="295.48 337 291.04 337 293.32 334.36 293.8 333.76 294.04 332.9201 294.16 332.2 294.04 331.96 293.92 331.7201 293.68 331.6 292.96 331.48 292.36 331.6 291.76 331.96 290.8 332.68 290.44 332.2 291.28 331.36 292 330.5201 292.48 329.4401 292.84 328.36 292.96 328 292.84 327.5201 292.6 327.16 291.88 326.8 291.16 326.56 290.8 326.68 290.32 326.8 289.96 327.16 289.24 328.1201 288.76 329.2 288.64 330.28 288.64 331.48 288.88 332.8 289.36 334 289.96 335.2 290.92 336.5201 290.44 336.88 290.2 336.6401 289.48 335.56 288.76 334.2401 288.28 332.9201 288.04 331.6 288.04 330.28 288.28 328.96 288.76 327.88 289.48 326.8 289.96 326.3201 290.68 326.08 291.28 325.96 291.28 325.96 292.24 326.2 293.08 326.8 293.44 327.28 293.56 327.88 293.44 328.6 293.08 329.68 292.48 330.76 292.24 331 292.96 330.88 293.08 330.88 293.92 331 294.28 331.36 294.64 331.7201 294.76 332.2 294.76 332.2 294.64 333.0401 294.4 334 293.8 334.8401 292.48 336.4 295.48 336.4 295.48 337" fill="#9a9"/></g></g><g id="Scrub-10"><g id="bushFillSymbol-10"><polygon points="48.28 326.68 40.12 326.68 44.32 322 45.16 320.68 45.76 319.1201 45.88 317.4401 45.76 316.8401 45.28 316.2401 44.68 315.88 43.36 315.76 42.04 316 40.72 316.6 38.8 318.16 38.44 317.68 40.12 316 41.56 314.08 42.64 312.0401 43.36 309.88 43.48 308.9201 43.24 307.96 42.76 307.2401 41.32 306.28 39.76 305.9201 38.68 306.0401 37.72 306.4 37 307.1201 35.56 309.0401 34.6 311.2 34.24 313.6 34.24 316 34.84 318.6401 35.8 321.16 37 323.68 38.56 325.8401 38.92 326.3201 38.32 326.68 38.08 326.2 36.52 323.9201 35.2 321.4 34.24 318.76 33.64 316 33.64 313.6 34.12 311.08 35.08 308.8 36.52 306.6401 37.48 305.8 38.56 305.4401 39.76 305.3201 39.88 305.3201 41.68 305.68 43.12 306.76 43.84 307.8401 44.08 308.9201 43.96 310.1201 43.12 312.28 42.04 314.4401 40.96 315.88 41.8 315.4 43.36 315.16 43.36 315.16 44.92 315.4 45.76 315.76 46.36 316.6 46.48 317.4401 46.48 317.4401 46.36 319.2401 45.76 320.9201 44.8 322.36 41.56 326.08 48.28 326.08 48.28 326.68" fill="#9a9"/></g><g id="smallBushFillSymbol-10"><polygon points="58.72 336.88 54.4 336.88 56.68 334.2401 57.04 333.5201 57.28 332.8 57.4 332.08 57.28 331.8401 57.16 331.6 56.92 331.48 56.32 331.36 55.6 331.48 55 331.7201 54.04 332.56 53.68 332.08 54.52 331.2401 55.24 330.28 55.72 329.3201 56.2 328.2401 56.2 327.76 56.08 327.4 55.84 327.0401 55.24 326.56 54.52 326.4401 54.04 326.4401 53.56 326.68 53.2 327.0401 52.48 328 52.12 328.96 51.88 330.16 51.88 331.36 52.12 332.56 52.6 333.88 53.2 335.08 54.16 336.4 53.68 336.76 53.56 336.5201 52.72 335.4401 52.12 334.1201 51.64 332.8 51.28 331.36 51.28 330.16 51.52 328.8401 52 327.6401 52.72 326.56 53.32 326.08 53.92 325.8401 54.52 325.8401 54.52 325.8401 55.48 326.08 56.32 326.68 56.68 327.16 56.8 327.76 56.68 328.48 56.32 329.56 55.72 330.6401 55.6 330.88 56.32 330.76 57.16 330.88 57.64 331.1201 57.88 331.6 58 332.08 57.88 332.9201 57.64 333.88 57.16 334.6 55.72 336.28 58.72 336.28 58.72 336.88" fill="#9a9"/></g></g><g id="Scrub-11"><g id="bushFillSymbol-11"><polygon points="271.12 159.7601 262.96 159.7601 267.16 155.08 268 153.64 268.48 152.08 268.72 150.5201 268.6 149.8 268.12 149.3201 267.52 148.9601 266.2 148.84 264.76 149.08 263.56 149.68 261.64 151.24 261.16 150.7601 262.96 149.08 264.28 147.1601 265.48 145.1201 266.2 142.9601 266.32 142 266.08 141.04 265.48 140.2 264.16 139.3601 262.6 139 261.52 139 260.56 139.48 259.72 140.2 258.4 142.1201 257.44 144.28 257.08 146.68 257.08 149.08 257.68 151.7201 258.52 154.24 259.84 156.64 261.4 158.9201 261.64 159.4 261.16 159.64 260.92 159.28 259.36 157 258.04 154.48 257.08 151.84 256.48 149.08 256.48 146.5601 256.84 144.1601 257.92 141.7601 259.36 139.7201 260.32 138.88 261.4 138.5201 262.6 138.28 262.6 138.28 264.4 138.7601 265.96 139.84 266.68 140.8 266.92 141.88 266.92 142 266.8 143.08 265.96 145.3601 264.76 147.5201 263.8 148.84 264.64 148.48 266.2 148.24 266.2 148.24 267.76 148.3601 268.6 148.84 269.08 149.68 269.32 150.5201 269.32 150.5201 269.08 152.2 268.48 154 267.64 155.44 264.28 159.1601 271.12 159.1601 271.12 159.7601" fill="#9a9"/></g><g id="smallBushFillSymbol-11"><polygon points="281.56 169.84 277.12 169.84 279.4 167.3201 279.88 166.6 280.12 165.88 280.24 165.1601 280.12 164.8 280 164.68 279.76 164.5601 279.04 164.44 278.44 164.5601 277.84 164.8 276.88 165.5201 276.52 165.1601 277.36 164.3201 278.08 163.3601 278.56 162.4 278.92 161.3201 279.04 160.84 278.92 160.48 278.68 160.1201 277.96 159.64 277.24 159.5201 276.88 159.5201 276.4 159.7601 276.04 160 275.32 160.9601 274.84 162.04 274.72 163.24 274.72 164.3201 274.96 165.64 275.44 166.9601 276.04 168.1601 277 169.48 276.4 169.7201 276.28 169.6 275.56 168.4 274.84 167.2 274.36 165.88 274.12 164.44 274.12 163.1201 274.36 161.9201 274.84 160.7201 275.56 159.64 276.04 159.1601 276.76 158.9201 277.36 158.9201 278.32 159.1601 279.16 159.7601 279.52 160.24 279.64 160.84 279.52 161.44 279.16 162.64 278.56 163.7201 278.32 163.9601 279.04 163.84 279.16 163.84 280 163.9601 280.36 164.2 280.72 164.68 280.84 165.04 280.84 165.1601 280.72 166 280.36 166.84 279.88 167.68 278.56 169.24 281.56 169.24 281.56 169.84" fill="#9a9"/></g></g></svg>