<?xml version="1.0" encoding="UTF-8"?><svg id="Layer_2" xmlns="http://www.w3.org/2000/svg" width="350" height="350" viewBox="0 0 350 350"><g id="Scrub"><g id="bushFillSymbol"><polygon points="187.4894 38.6134 179.549 38.6134 183.5564 34.0711 184.4227 32.6904 184.9509 31.1672 185.1066 29.6034 184.9642 28.9468 184.5515 28.4256 183.9558 28.1211 182.6426 27.972 181.3294 28.1953 180.1041 28.8047 178.2221 30.267 177.8364 29.8267 179.488 28.2023 180.8485 26.3746 181.9251 24.3572 182.6965 22.252 182.7777 21.2975 182.5544 20.3973 182.013 19.6256 180.6998 18.7117 179.1496 18.353 178.1409 18.4681 177.2204 18.8605 176.4284 19.5444 175.0948 21.433 174.1876 23.5788 173.7544 25.8668 173.8356 28.175 174.357 30.7542 175.2506 33.2521 176.4756 35.6146 178.0124 37.7535 178.2966 38.2274 177.7888 38.5252 177.5249 38.0716 175.9747 35.9191 174.7158 33.4891 173.7883 30.9166 173.2535 28.2496 173.1789 25.8195 173.6259 23.4028 174.5804 21.1418 175.9951 19.145 176.9495 18.3327 178.0328 17.8927 179.1836 17.7573 179.2308 17.7709 180.991 18.1906 182.4666 19.2465 183.1095 20.1943 183.3734 21.2503 183.2652 22.4214 182.4666 24.6008 181.3427 26.6858 180.341 28.0263 181.187 27.6199 182.6356 27.3763 182.6695 27.383 184.1725 27.5727 184.9778 28.006 185.5262 28.7574 185.7023 29.5694 185.6953 29.617 185.5193 31.2956 184.9509 32.9473 184.0233 34.4232 180.8485 38.031 187.4894 38.031 187.4894 38.6134" fill="#696"/></g><g id="smallBushFillSymbol"><polygon points="197.6362 48.4491 193.3445 48.4491 195.5513 45.9375 195.9779 45.2606 196.2216 44.5295 196.2891 43.812 196.2352 43.5344 196.0728 43.3314 195.8288 43.203 195.2198 43.1351 194.6039 43.2436 194.0148 43.5278 193.0807 44.2519 192.7016 43.812 193.5343 42.993 194.1975 42.0995 194.7256 41.111 195.091 40.0957 195.1316 39.6694 195.0302 39.2497 194.8002 38.9179 194.1842 38.4916 193.4531 38.3289 192.9995 38.3765 192.5798 38.5592 192.2074 38.8773 191.5645 39.8048 191.1245 40.8471 190.9145 41.964 190.9551 43.0878 191.2123 44.3468 191.6523 45.5721 192.2617 46.7296 193.1618 48.0361 192.6473 48.3273 192.5189 48.1107 191.7608 47.0341 191.1108 45.8091 190.6436 44.5025 190.373 43.1554 190.3324 41.9101 190.5694 40.6711 191.05 39.5137 191.7741 38.4846 192.3023 38.038 192.8909 37.7941 193.4866 37.7332 194.4684 37.9771 195.2535 38.5389 195.5853 39.0534 195.7274 39.6218 195.6598 40.2651 195.2605 41.355 194.685 42.4109 194.5024 42.6682 195.1996 42.5394 196.0389 42.6545 196.4854 42.9118 196.8036 43.3584 196.8848 43.785 196.8782 43.819 196.7903 44.6583 196.4991 45.5179 196.0252 46.2963 194.6445 47.8601 197.6362 47.8601 197.6362 48.4491" fill="#696"/></g></g><g id="Scrub-2"><g id="bushFillSymbol-2"><polygon points="302.316 38.3562 294.3623 38.3562 298.3897 33.8072 299.2497 32.4331 299.7775 30.9099 299.9468 29.3395 299.7978 28.6895 299.3917 28.1547 298.7961 27.8569 297.4692 27.7081 296.1626 27.9314 294.9306 28.5408 293.0487 30.0027 292.6563 29.5694 294.3146 27.9451 295.6754 26.1104 296.7584 24.1 297.5234 21.9881 297.6113 21.0336 297.3947 20.1334 296.8532 19.3617 295.5263 18.4478 293.9829 18.0957 292.9609 18.2109 292.0537 18.5966 291.2549 19.2805 289.9215 21.1691 289.0076 23.3149 288.5946 25.6029 288.6691 27.9178 289.1973 30.4969 290.0839 32.9949 291.3092 35.3504 292.8457 37.4896 293.1232 37.9635 292.6224 38.2613 292.3515 37.8144 290.8083 35.6552 289.5358 33.2318 288.6286 30.6527 288.0871 27.9857 288.0059 25.5553 288.4525 23.1455 289.4136 20.8845 290.8287 18.8878 291.7897 18.0754 292.873 17.6285 294.0101 17.5 294.0574 17.5067 295.8106 17.9333 297.2932 18.9826 297.9498 19.9371 298.2137 20.986 298.2004 21.0403 298.0918 22.1571 297.2932 24.3436 296.1693 26.4285 295.1743 27.769 296.0206 27.356 297.4555 27.1124 297.5032 27.1191 299.0057 27.3088 299.8044 27.7417 300.3595 28.4932 300.5289 29.3055 300.5289 29.3531 300.3462 31.0317 299.7775 32.6834 298.857 34.166 295.6887 37.7671 302.316 37.7671 302.316 38.3562" fill="#696"/></g><g id="smallBushFillSymbol-2"><polygon points="312.4632 48.1849 308.1645 48.1849 310.3915 45.6803 310.8046 45.0034 311.0552 44.2723 311.116 43.5481 311.0618 43.2772 310.906 43.0675 310.6558 42.9457 310.0465 42.8712 309.4304 42.9794 308.8484 43.2705 307.9143 43.9947 307.5352 43.5481 308.3675 42.7291 309.0108 41.8355 309.5589 40.8471 309.9176 39.8384 309.9586 39.4051 309.8568 38.9925 309.6198 38.654 308.9971 38.2274 308.2797 38.065 307.8397 38.1192 307.4064 38.302 307.0273 38.6201 306.3977 39.5406 305.9577 40.5832 305.7481 41.7001 305.7887 42.8239 306.046 44.0829 306.4722 45.3149 307.0816 46.4723 307.9884 47.7652 307.4876 48.0701 307.3455 47.8535 306.594 46.7702 305.9441 45.5452 305.4772 44.2386 305.1996 42.8915 305.1591 41.6528 305.389 40.4138 305.8832 39.2564 306.6077 38.2274 307.1288 37.7738 307.7246 37.5368 308.3202 37.4693 309.2884 37.7129 310.087 38.2816 310.4119 38.7962 310.5539 39.3579 310.4864 40.0008 310.1007 41.0907 309.5183 42.1537 309.3289 42.4039 310.0328 42.2755 310.0734 42.2821 310.8721 42.3973 311.3124 42.6545 311.6306 43.0945 311.7118 43.5211 311.7048 43.5618 311.6236 44.3944 311.3327 45.254 310.8588 46.0324 309.4777 47.6028 312.4632 47.6028 312.4632 48.1849" fill="#696"/></g></g><g id="Scrub-3"><g id="bushFillSymbol-3"><polygon points="261.7006 92.5099 253.7465 92.5099 257.7743 87.961 258.6339 86.5869 259.1621 85.0637 259.3311 83.4932 259.1824 82.8436 258.776 82.3088 258.1803 82.011 256.8538 81.8619 255.5472 82.0855 254.3152 82.6946 252.4333 84.1568 252.041 83.7235 253.6992 82.0989 255.0597 80.2645 256.143 78.2541 256.9077 76.1419 256.9959 75.1874 256.7793 74.2872 256.2378 73.5154 254.911 72.6016 253.3675 72.2498 252.3455 72.3646 251.4383 72.7507 250.6395 73.4342 249.3061 75.3228 248.3922 77.4687 247.9792 79.7566 248.0537 82.0719 248.5816 84.6511 249.4685 87.1486 250.6938 89.5045 252.2303 91.6437 252.5079 92.1176 252.007 92.4154 251.7361 91.9685 250.1926 89.809 248.92 87.3856 248.0132 84.8068 247.4714 82.1394 247.3901 79.7094 247.8371 77.2996 248.7982 75.0386 250.2133 73.0415 251.1743 72.2295 252.2573 71.7826 253.3947 71.6542 253.442 71.6608 255.1952 72.0871 256.6778 73.1364 257.3344 74.0909 257.5983 75.1401 257.5846 75.1944 257.4764 76.3112 256.6778 78.4977 255.5539 80.5826 254.5589 81.9228 255.4052 81.5102 256.8401 81.2662 256.8874 81.2732 258.3903 81.4625 259.189 81.8958 259.7441 82.6473 259.9135 83.4596 259.9135 83.5069 259.7305 85.1859 259.1621 86.8375 258.2416 88.3197 255.0733 91.9213 261.7006 91.9213 261.7006 92.5099" fill="#696"/></g><g id="smallBushFillSymbol-3"><polygon points="271.8475 102.339 267.5491 102.339 269.7762 99.8344 270.1891 99.1575 270.4394 98.4263 270.5006 97.7022 270.4464 97.4313 270.2906 97.2213 270.04 97.0995 269.4311 97.0253 268.815 97.1334 268.2327 97.4246 267.2985 98.1488 266.9195 97.7022 267.7521 96.8828 268.3954 95.9893 268.9435 95.0012 269.3022 93.9925 269.3429 93.5592 269.2414 93.1462 269.0044 92.8078 268.3817 92.3815 267.6643 92.2191 267.2243 92.273 266.791 92.4561 266.4119 92.7742 265.7823 93.6947 265.3424 94.737 265.1323 95.8542 265.173 96.9777 265.4302 98.2366 265.8568 99.469 266.4659 100.6265 267.3731 101.9194 266.8722 102.2239 266.7301 102.0072 265.9786 100.9243 265.3287 99.6989 264.8618 98.3924 264.5842 97.0456 264.5437 95.8066 264.7736 94.5679 265.2678 93.4105 265.9923 92.3815 266.5134 91.9279 267.1092 91.6909 267.7048 91.6234 268.673 91.867 269.4716 92.4357 269.7965 92.9499 269.9385 93.512 269.871 94.1549 269.4849 95.2448 268.9029 96.3074 268.7135 96.558 269.4174 96.4296 269.458 96.4362 270.2567 96.5514 270.6967 96.8086 271.0148 97.2486 271.0964 97.6749 271.0894 97.7155 271.0082 98.5482 270.717 99.4078 270.2434 100.1865 268.8623 101.757 271.8475 101.757 271.8475 102.339" fill="#696"/></g></g><g id="Scrub-4"><g id="bushFillSymbol-4"><polygon points="85.7003 106.238 77.7599 106.238 81.7674 101.696 82.6336 100.3149 83.1617 98.7917 83.3175 97.2283 83.175 96.5717 82.7624 96.0435 82.1667 95.739 80.8535 95.5899 79.54 95.8202 78.3149 96.4226 76.433 97.8915 76.0473 97.4516 77.6989 95.8269 79.0594 93.9992 80.1357 91.9821 80.9074 89.8769 80.9886 88.9225 80.7653 88.0152 80.2239 87.2505 78.9107 86.3296 77.3605 85.9776 76.3518 86.0927 75.4313 86.4854 74.6322 87.1689 73.3057 89.0579 72.3986 91.1967 71.9653 93.4847 72.0464 95.8 72.5679 98.3791 73.4615 100.8767 74.6865 103.2326 76.2233 105.3784 76.5076 105.8523 75.9997 106.1431 75.7358 105.6965 74.1856 103.544 72.9197 101.1137 71.9992 98.5345 71.4644 95.8675 71.3832 93.4441 71.8368 91.0277 72.7913 88.7667 74.1993 86.7696 75.1604 85.9572 76.2436 85.5173 77.3941 85.3822 77.4417 85.3955 79.2015 85.8152 80.6774 86.8644 81.3204 87.8189 81.5843 88.8748 81.4762 90.0459 80.6705 92.2258 79.5469 94.3107 78.5519 95.6508 79.3979 95.2448 80.8398 95.0012 80.8804 95.0012 82.3833 95.1906 83.1887 95.6305 83.7372 96.382 83.9132 97.1943 83.9062 97.2416 83.7301 98.9206 83.1617 100.5722 82.2343 102.0478 79.0594 105.6493 85.7003 105.6493 85.7003 106.238" fill="#696"/></g><g id="smallBushFillSymbol-4"><polygon points="95.8471 116.0737 91.5555 116.0737 93.7692 113.5624 94.1955 112.8855 94.4391 112.1544 94.5 111.4369 94.4527 111.1593 94.2837 110.9494 94.0331 110.8276 93.4307 110.76 92.8147 110.8681 92.2257 111.1527 91.2915 111.8768 90.9125 111.4369 91.7452 110.6179 92.4017 109.7243 92.9366 108.7359 93.3019 107.7136 93.3426 107.2873 93.2411 106.8743 93.0107 106.5428 92.3881 106.1162 91.6639 105.9538 91.2104 106.001 90.7907 106.1837 90.4116 106.5019 89.7754 107.4227 89.335 108.465 89.1254 109.5822 89.1594 110.7124 89.4166 111.9647 89.8632 113.1967 90.4726 114.3545 91.3728 115.6541 90.8582 115.9519 90.7298 115.7352 89.9714 114.659 89.3218 113.4336 88.8545 112.1274 88.5769 110.7803 88.5433 109.5347 88.7803 108.296 89.2608 107.1385 89.9783 106.1095 90.5132 105.6626 91.1019 105.419 91.6909 105.3581 92.6723 105.595 93.4643 106.1634 93.7962 106.678 93.9383 107.2467 93.8707 107.883 93.4714 108.9729 92.896 110.0355 92.7129 110.2861 93.4104 110.1643 94.2497 110.2794 94.7033 110.5367 95.0145 110.9766 95.0957 111.4029 95.0145 112.2762 94.7166 113.1428 94.2361 113.9146 92.8553 115.485 95.8471 115.485 95.8471 116.0737" fill="#696"/></g></g><g id="Scrub-5"><g id="bushFillSymbol-5"><polygon points="51.8539 173.0775 43.9134 173.0775 47.9209 168.5286 48.7875 167.1544 49.3154 165.6312 49.4711 164.0608 49.329 163.4042 48.916 162.883 48.3203 162.5785 47.0071 162.4295 45.6939 162.6531 44.4686 163.2621 42.5869 164.7244 42.2009 164.2844 43.8525 162.6664 45.2134 160.832 46.2896 158.8217 47.0614 156.7094 47.1426 155.7549 46.9193 154.8548 46.3774 154.083 45.0642 153.1691 43.5141 152.8174 42.5057 152.9322 41.5849 153.3182 40.7862 154.0018 39.4594 155.8904 38.5525 158.0362 38.1192 160.3242 38.2004 162.6394 38.7216 165.2186 39.6151 167.7162 40.8405 170.072 42.377 172.2113 42.6611 172.6848 42.1536 172.9826 41.8898 172.5361 40.3396 170.3766 39.0737 167.9465 38.1528 165.3744 37.6184 162.707 37.5368 160.2769 37.9904 157.8672 38.9448 155.6062 40.3529 153.6091 41.3144 152.7971 42.3972 152.3501 43.548 152.2217 43.5953 152.2284 45.3555 152.6547 46.831 153.704 47.4744 154.6584 47.7382 155.7077 47.6297 156.8788 46.8244 159.0586 45.7005 161.1436 44.7055 162.4903 45.5518 162.0777 46.9934 161.8338 47.0341 161.8407 48.5369 162.0301 49.3427 162.4634 49.8908 163.2215 50.0668 164.0272 50.0602 164.0744 49.8841 165.7534 49.3154 167.4051 48.3882 168.8873 45.2134 172.4888 51.8539 172.4888 51.8539 173.0775" fill="#696"/></g><g id="smallBushFillSymbol-5"><polygon points="62.0011 182.9132 57.7094 182.9132 59.9228 180.4019 60.3494 179.725 60.593 178.9939 60.654 178.2697 60.6067 177.9988 60.4373 177.7888 60.1867 177.6604 59.5844 177.5928 58.9683 177.701 58.3793 177.9922 57.4451 178.7163 57.0661 178.2697 57.8987 177.4504 58.5553 176.5569 59.0902 175.5688 59.4559 174.5534 59.4965 174.1268 59.395 173.7071 59.1647 173.3754 58.5421 172.9491 57.8176 172.7866 57.3639 172.8405 56.9443 173.0166 56.5652 173.3417 55.929 174.2622 55.489 175.3046 55.279 176.4218 55.313 177.5452 55.5702 178.8042 56.0171 180.0362 56.6261 181.1804 57.5267 182.4935 57.0122 182.7981 56.8834 182.5817 56.1253 181.4985 55.4753 180.2731 55.0084 178.96 54.7309 177.6132 54.6969 176.3742 54.9339 175.1285 55.4144 173.978 56.1319 172.9491 56.6668 172.4955 57.2558 172.2585 57.8448 172.1909 58.8262 172.4345 59.6183 172.9963 59.9501 173.5175 60.0922 174.0795 60.0243 174.7225 59.6249 175.8124 59.0495 176.875 58.8669 177.1256 59.5641 176.9968 60.4033 177.112 60.857 177.3692 61.1684 177.8161 61.2496 178.2424 61.1684 179.1157 60.8706 179.9823 60.3901 180.7541 59.009 182.3175 62.0011 182.3175 62.0011 182.9132" fill="#696"/></g></g><g id="Scrub-6"><g id="bushFillSymbol-6"><polygon points="85.7003 261.9645 77.7599 261.9645 81.7674 257.4156 82.6336 256.0349 83.1617 254.5046 83.3175 252.9412 83.175 252.2846 82.7624 251.7564 82.1667 251.4519 80.8601 251.3099 79.54 251.5331 78.3149 252.1425 76.433 253.6115 76.0403 253.1579 77.692 251.5398 79.0594 249.7121 80.1357 247.7017 80.9074 245.5965 80.9886 244.642 80.7653 243.7485 80.2239 242.9634 78.9107 242.0562 77.3605 241.6974 76.3518 241.8126 75.4313 242.1983 74.6322 242.8888 73.3057 244.7775 72.3986 246.9166 71.9653 249.191 72.0464 251.5195 72.5679 254.0987 73.4615 256.5966 74.6865 258.9657 76.2233 261.098 76.5076 261.5652 75.9997 261.8697 75.7358 261.4231 74.1856 259.2703 72.9197 256.8199 71.9992 254.2544 71.4644 251.5874 71.3832 249.1503 71.8368 246.7539 72.7913 244.4933 74.1993 242.4895 75.1604 241.6771 76.2436 241.2372 77.3941 241.1017 77.4417 241.1154 79.2015 241.5281 80.6774 242.5976 81.3204 243.5318 81.5843 244.5948 81.4762 245.7588 80.6705 247.9386 79.5469 250.0236 78.5519 251.3774 79.3979 250.9578 80.8398 250.7141 80.8804 250.7208 82.3833 250.8968 83.1887 251.3504 83.7372 252.1019 83.9132 252.9139 83.9062 252.9615 83.7301 254.6401 83.1617 256.2917 82.2343 257.7677 79.0594 261.3689 85.7003 261.3689 85.7003 261.9645" fill="#696"/></g><g id="smallBushFillSymbol-6"><polygon points="95.8471 271.7936 91.5555 271.7936 93.7692 269.282 94.1955 268.6051 94.4391 267.8673 94.5 267.1498 94.4527 266.8859 94.2837 266.6556 94.0331 266.5405 93.4307 266.4729 92.8147 266.5947 92.2257 266.8722 91.2915 267.5898 90.9125 267.1498 91.7452 266.3308 92.4017 265.4439 92.9366 264.4555 93.3019 263.4402 93.3426 263.0068 93.2411 262.6009 93.0107 262.2624 92.3881 261.8358 91.6639 261.6734 91.2104 261.7276 90.7907 261.897 90.4116 262.2285 89.7754 263.1493 89.335 264.1849 89.1254 265.3084 89.1594 266.4253 89.4166 267.6846 89.8632 268.9029 90.4726 270.0674 91.3728 271.3806 90.8582 271.6851 90.7298 271.4552 89.9714 270.3785 89.3218 269.1602 88.8545 267.8404 88.5769 266.4932 88.5433 265.2546 88.7803 264.0155 89.2608 262.8648 89.9783 261.8358 90.5132 261.3825 91.1019 261.1455 91.6909 261.0776 91.7381 261.0913 92.6723 261.3146 93.4643 261.8833 93.7962 262.4045 93.9383 262.9663 93.8707 263.6026 93.4714 264.6858 92.896 265.762 92.7129 266.0127 93.4104 265.8772 94.2497 265.9924 94.7033 266.2496 95.0145 266.6962 95.0957 267.1229 95.0145 267.9961 94.7166 268.869 94.2361 269.6341 92.8553 271.1909 95.8471 271.1909 95.8471 271.7936" fill="#696"/></g></g><g id="Scrub-7"><g id="bushFillSymbol-7"><polygon points="200.7771 248.2095 192.837 248.2095 196.8512 243.6606 197.7108 242.2795 198.239 240.743 198.408 239.1928 198.2593 238.5292 197.8529 238.0014 197.2572 237.6969 195.9303 237.5615 194.6172 237.7781 193.3988 238.3942 191.5169 239.8428 191.1245 239.4095 192.7761 237.7848 194.1366 235.9434 195.2198 233.933 195.9846 231.8415 196.0728 230.887 195.8562 229.9798 195.3077 229.208 193.9878 228.2875 192.4377 227.9491 191.4356 228.0506 190.5151 228.4433 189.7165 229.1202 188.3829 231.0291 187.4757 233.1613 187.0491 235.4426 187.1237 237.7645 187.6448 240.3503 188.5453 242.8413 189.7637 245.1971 191.3072 247.343 191.5847 247.8102 191.0769 248.1147 190.813 247.6747 189.2628 245.5016 188.0036 243.0715 187.0831 240.4994 186.5416 237.8391 186.467 235.3883 186.9206 232.9989 187.8685 230.7379 189.2831 228.7341 190.2442 227.9222 191.3275 227.4686 192.4713 227.3467 192.5189 227.3671 194.2787 227.773 195.7547 228.836 196.4113 229.7835 196.6752 230.8261 196.6615 230.887 196.5534 232.0038 195.7547 234.1903 194.6308 236.2686 193.6358 237.6087 194.482 237.2028 195.917 236.9658 195.9643 236.9658 197.4672 237.1485 198.2659 237.5818 198.821 238.3465 198.9901 239.1589 198.9901 239.2132 198.8074 240.8851 198.239 242.5368 197.3181 244.0123 194.1433 247.6139 200.7771 247.6139 200.7771 248.2095" fill="#696"/></g><g id="smallBushFillSymbol-7"><polygon points="210.9243 258.0382 206.6393 258.0382 208.853 255.527 209.266 254.8365 209.5163 254.1123 209.5772 253.3811 209.5233 253.1172 209.3676 252.9073 209.1169 252.7921 208.5076 252.7179 207.8916 252.826 207.3096 253.1036 206.3754 253.8348 205.9963 253.3811 206.829 252.5621 207.4719 251.6819 208.0204 250.7005 208.3791 249.6851 208.4198 249.2518 208.3183 248.8389 208.0813 248.5074 207.4586 248.0808 206.7412 247.9184 206.3008 247.9792 205.8679 248.1486 205.4885 248.4735 204.8592 249.394 204.4192 250.4296 204.2093 251.5534 204.2499 252.6703 204.5071 253.9296 204.9338 255.1546 205.5428 256.3121 206.4499 257.612 205.9491 257.9164 205.807 257.6998 205.0555 256.6235 204.4056 255.3916 203.9384 254.085 203.6611 252.7382 203.6202 251.4992 203.8505 250.2672 204.3447 249.1164 205.0688 248.0671 205.5904 247.6272 206.1861 247.3972 206.7818 247.3226 206.829 247.3363 207.7495 247.5596 208.5486 248.1283 208.8734 248.6359 209.0155 249.2046 208.9479 249.8476 208.5618 250.9375 207.9798 251.9934 207.7901 252.2507 208.4943 252.1222 208.5349 252.1288 209.3336 252.237 209.7735 252.5013 210.0917 252.9412 210.1729 253.3745 210.1663 253.3948 210.085 254.2274 209.7939 255.1007 209.3199 255.8857 207.9392 257.4425 210.9243 257.4425 210.9243 258.0382" fill="#696"/></g></g><g id="Scrub-8"><g id="bushFillSymbol-8"><polygon points="302.316 241.4402 294.3623 241.4402 298.3897 236.8912 299.2497 235.5105 299.7775 233.9737 299.9468 232.4235 299.7978 231.7603 299.3917 231.2321 298.7961 230.9276 297.4692 230.7922 296.1626 231.0088 294.9306 231.6248 293.0487 233.0734 292.6563 232.6401 294.3146 231.0155 295.6754 229.1745 296.7584 227.1637 297.5234 225.0721 297.6113 224.1176 297.3947 223.2104 296.8532 222.4391 295.5263 221.5182 293.9829 221.1797 292.9609 221.2813 292.0537 221.6739 291.2549 222.3509 289.9215 224.2597 289.0076 226.3923 288.5946 228.6733 288.6691 230.9951 289.1973 233.5809 290.0839 236.0723 291.3092 238.4277 292.8457 240.5736 293.1232 241.0408 292.6224 241.3454 292.3515 240.9054 290.8083 238.7326 289.5358 236.3092 288.6286 233.73 288.0871 231.0697 288.0059 228.6194 288.4525 226.2296 289.4136 223.9689 290.8287 221.9651 291.7897 221.1528 292.873 220.6992 294.0101 220.5774 295.8106 221.0037 297.2932 222.0667 297.9498 223.0144 298.2137 224.0568 298.2004 224.1176 298.0918 225.2345 297.2932 227.421 296.1693 229.4993 295.1743 230.8394 296.0206 230.4334 297.4555 230.1965 297.5032 230.1965 299.0057 230.3792 299.8044 230.8124 300.3595 231.5776 300.5289 232.3896 300.5289 232.4438 300.3462 234.1157 299.7775 235.7674 298.857 237.2433 295.6887 240.8445 302.316 240.8445 302.316 241.4402" fill="#696"/></g><g id="smallBushFillSymbol-8"><polygon points="312.4632 251.2692 308.1782 251.2692 310.3915 248.7577 310.8046 248.0671 311.0552 247.343 311.116 246.6118 311.0618 246.3479 310.906 246.1379 310.6558 246.0231 310.0465 245.9486 309.4304 246.0567 308.8484 246.3343 307.9143 247.0654 307.5352 246.6118 308.3675 245.7928 309.0108 244.9129 309.5589 243.9312 309.9176 242.9158 309.9586 242.4825 309.8568 242.0699 309.6198 241.7381 308.9971 241.3114 308.2797 241.149 307.8397 241.2099 307.4064 241.3793 307.0273 241.7041 306.3977 242.625 305.9577 243.6606 305.7481 244.7841 305.7887 245.901 306.046 247.1603 306.4722 248.3856 307.0816 249.543 307.9884 250.8426 307.4876 251.1475 307.3455 250.9308 306.594 249.8542 305.9441 248.6222 305.4772 247.316 305.1996 245.9689 305.1591 244.7302 305.389 243.4982 305.8832 242.3474 306.6077 241.2981 307.1288 240.8581 307.7246 240.6279 308.3202 240.5533 308.3675 240.5669 309.2884 240.7903 310.087 241.359 310.4119 241.8665 310.5539 242.4352 310.4864 243.0782 310.1007 244.1681 309.5183 245.2241 309.3289 245.4813 310.0328 245.3528 310.0734 245.3595 310.8721 245.468 311.3124 245.7319 311.6306 246.1719 311.7118 246.6052 311.7048 246.6255 311.6236 247.4581 311.3327 248.3313 310.8588 249.1164 309.4777 250.6736 312.4632 250.6736 312.4632 251.2692" fill="#696"/></g></g><g id="Scrub-9"><g id="bushFillSymbol-9"><polygon points="282.0083 322.671 274.0542 322.671 278.082 318.122 278.9416 316.7413 279.4698 315.2048 279.6391 313.6543 279.4901 312.9911 279.084 312.4632 278.4883 312.1584 277.1615 312.0229 275.8549 312.2396 274.6229 312.8556 272.741 314.3043 272.3487 313.8709 274.0069 312.2466 275.3677 310.4053 276.4507 308.3949 277.2157 306.3032 277.3036 305.3488 277.087 304.4416 276.5455 303.6699 275.2187 302.7494 273.6752 302.4109 272.6532 302.5124 271.746 302.9051 270.9472 303.582 269.6138 305.4909 268.6999 307.6231 268.2869 309.9044 268.3614 312.2263 268.8893 314.8121 269.7762 317.303 271.0015 319.6589 272.538 321.8047 272.8156 322.2716 272.3147 322.5765 272.0438 322.1362 270.5006 319.9634 269.2277 317.54 268.3209 314.9608 267.7794 312.3005 267.6982 309.8502 268.1448 307.4607 269.1059 305.1997 270.521 303.196 271.482 302.3836 272.565 301.93 273.7024 301.8082 275.5029 302.2348 276.9855 303.2975 277.6421 304.2452 277.906 305.2875 277.8927 305.3488 277.7841 306.4656 276.9855 308.6521 275.8616 310.73 274.8666 312.0706 275.7129 311.6642 277.1478 311.4273 277.1954 311.4273 278.698 311.6103 279.4967 312.0432 280.0518 312.8084 280.2212 313.6207 280.2212 313.6749 280.0385 315.3469 279.4698 316.9985 278.5493 318.4741 275.381 322.0753 282.0083 322.0753 282.0083 322.671" fill="#696"/></g><g id="smallBushFillSymbol-9"><polygon points="292.1552 332.5 287.8705 332.5 290.0839 329.9888 290.4968 329.2982 290.7475 328.5737 290.8083 327.843 290.7541 327.5787 290.5983 327.369 290.3477 327.2539 289.7388 327.1793 289.1227 327.2879 288.5407 327.5654 287.6062 328.2962 287.2272 327.843 288.0598 327.0236 288.7031 326.1437 289.2512 325.1623 289.6099 324.147 289.6506 323.7137 289.5491 323.3006 289.3121 322.9689 288.6894 322.5425 287.972 322.3801 287.532 322.441 287.0987 322.6101 286.7196 322.9352 286.09 323.8557 285.6501 324.8914 285.44 326.0153 285.481 327.1321 285.7379 328.391 286.1645 329.6164 286.7739 330.7738 287.6808 332.0737 287.1799 332.3783 287.0378 332.1616 286.2863 331.0854 285.6364 329.8533 285.1695 328.5468 284.8919 327.1997 284.8514 325.961 285.0813 324.729 285.5755 323.5782 286.3 322.5289 286.8211 322.0889 287.4169 321.8587 288.0125 321.7844 288.0598 321.7977 288.9807 322.0214 289.7793 322.5898 290.1042 323.0976 290.2462 323.666 290.1787 324.3093 289.793 325.3992 289.2106 326.4552 289.0212 326.7124 289.7251 326.5837 289.7657 326.5906 290.5644 326.6988 291.0043 326.9627 291.3228 327.4027 291.4041 327.8359 291.3971 327.8563 291.3159 328.6889 291.025 329.5621 290.5511 330.3476 289.17 331.9044 292.1552 331.9044 292.1552 332.5" fill="#696"/></g></g><g id="Scrub-10"><g id="bushFillSymbol-10"><polygon points="51.8539 322.5156 43.9134 322.5156 47.9209 317.9667 48.7875 316.5789 49.3154 315.0623 49.4711 313.4852 49.329 312.8423 48.916 312.3141 48.3203 312.0096 47.0137 311.8605 45.6939 312.0839 44.4686 312.6932 42.5869 314.1621 42.1943 313.7289 43.8459 312.0839 45.2134 310.2631 46.2896 308.2527 47.0614 306.1475 47.1426 305.1997 46.9193 304.2925 46.3774 303.5211 45.0642 302.6002 43.5141 302.2481 42.5057 302.3703 41.5849 302.7494 40.7862 303.4395 39.4594 305.3282 38.5525 307.474 38.1192 309.7623 38.2004 312.0706 38.7216 314.6497 39.6151 317.1473 40.8405 319.5098 42.377 321.6423 42.6611 322.1229 42.1536 322.4274 41.8898 321.9738 40.3396 319.8147 39.0737 317.3912 38.1528 314.8121 37.6184 312.1381 37.5368 309.708 37.9904 307.2983 38.9448 305.0373 40.3529 303.0402 41.3144 302.2212 42.3972 301.7879 43.548 301.6525 43.5953 301.6661 45.3555 302.0858 46.831 303.1417 47.4744 304.1031 47.7382 305.1455 47.6297 306.3165 46.8244 308.4897 45.7005 310.5813 44.7055 311.9214 45.5518 311.5018 46.9934 311.2648 47.0341 311.2718 48.5369 311.4678 49.3427 311.9012 49.8908 312.6526 50.0668 313.4583 50.0602 313.5122 49.8841 315.1912 49.3154 316.8428 48.3882 318.3117 45.2134 321.9195 51.8539 321.9195 51.8539 322.5156" fill="#696"/></g><g id="smallBushFillSymbol-10"><polygon points="62.0011 332.3513 57.7094 332.3513 59.9228 329.826 60.3494 329.1562 60.593 328.4114 60.654 327.7005 60.6067 327.4299 60.4373 327.227 60.1867 327.0915 59.5844 327.0236 58.9683 327.1388 58.3793 327.4229 57.4451 328.1338 57.0661 327.7005 57.8987 326.8815 58.5553 325.9879 59.0902 325.0202 59.4559 323.9912 59.4965 323.5645 59.395 323.1516 59.1647 322.8064 58.5421 322.3934 57.8176 322.2244 57.3639 322.2786 56.9443 322.468 56.5652 322.7795 55.929 323.7 55.489 324.7357 55.279 325.8661 55.313 326.99 55.5702 328.2353 56.0171 329.4743 56.6261 330.6251 57.5267 331.9247 57.0122 332.2291 56.8834 332.0125 56.1253 330.9432 55.4753 329.7043 55.0084 328.4047 54.7309 327.0373 54.6969 325.8119 54.9339 324.5666 55.4144 323.4158 56.1319 322.3868 56.6668 321.9332 57.2558 321.6963 57.8448 321.6353 57.8921 321.6423 58.8262 321.8723 59.6183 322.441 59.9501 322.9556 60.0922 323.5173 60.0243 324.1603 59.6249 325.2568 59.0495 326.3061 58.8669 326.5567 59.5641 326.4279 60.4033 326.543 60.857 326.8003 61.1684 327.2539 61.2496 327.6736 61.1684 328.5468 60.8706 329.4134 60.3901 330.1848 59.009 331.7622 62.0011 331.7622 62.0011 332.3513" fill="#696"/></g></g><g id="Scrub-11"><g id="bushFillSymbol-11"><polygon points="268.4696 160.2024 260.5158 160.2024 264.5437 155.6535 265.4032 154.2793 265.9314 152.7561 266.1005 151.1857 265.9517 150.5361 265.5454 150.0013 264.9496 149.7034 263.6228 149.5544 262.3166 149.778 261.0846 150.387 259.2026 151.8493 258.81 151.416 260.4686 149.7913 261.829 147.9569 262.9123 145.9466 263.6771 143.8343 263.7653 142.8798 263.5486 141.9797 263.0068 141.2079 261.6803 140.294 260.1368 139.9423 259.1148 140.0571 258.2076 140.4431 257.4089 141.1267 256.0754 143.0153 255.1615 145.1612 254.7486 147.4491 254.8231 149.7643 255.3509 152.3435 256.2378 154.8411 257.4628 157.1969 258.9997 159.3362 259.2772 159.8097 258.776 160.1075 258.5055 159.661 256.962 157.5015 255.6894 155.078 254.7821 152.4993 254.2407 149.8319 254.1595 147.4018 254.6064 144.9921 255.5676 142.7311 256.9823 140.734 257.9437 139.922 259.0266 139.475 260.1637 139.3466 260.2113 139.3533 261.9645 139.7795 263.4471 140.8289 264.1037 141.7833 264.3676 142.8326 264.354 142.8868 264.2458 144.0037 263.4471 146.1902 262.3233 148.2751 261.3282 149.6152 262.1741 149.2026 263.6095 148.9587 263.6567 148.9656 265.1597 149.155 265.9583 149.5883 266.5134 150.3398 266.6825 151.1521 266.6825 151.1993 266.4998 152.8783 265.9314 154.53 265.0106 156.0122 261.8427 159.6137 268.4696 159.6137 268.4696 160.2024" fill="#696"/></g><g id="smallBushFillSymbol-11"><polygon points="278.6168 170.0314 274.3185 170.0314 276.5455 167.5268 276.9585 166.8499 277.2087 166.1188 277.2697 165.3946 277.2157 165.1237 277.06 164.9137 276.8094 164.792 276.2 164.7174 275.584 164.8259 275.002 165.1171 274.0678 165.8413 273.6888 165.3946 274.5215 164.5753 275.1644 163.6818 275.7129 162.6937 276.0716 161.685 276.1122 161.2517 276.0107 160.8387 275.7738 160.5003 275.1511 160.074 274.4336 159.9115 273.9933 159.9654 273.5604 160.1485 273.1809 160.4666 272.5517 161.3871 272.1117 162.4295 271.9017 163.5466 271.9423 164.6701 272.1996 165.9291 272.6262 167.1611 273.2352 168.3189 274.1424 169.6118 273.6415 169.9163 273.4991 169.6996 272.748 168.6168 272.0981 167.3914 271.6308 166.0849 271.3533 164.7381 271.3126 163.4991 271.543 162.2604 272.0371 161.1029 272.7613 160.074 273.2828 159.6204 273.8785 159.3834 274.4742 159.3158 275.442 159.5595 276.2407 160.1282 276.5658 160.6424 276.7079 161.2044 276.6404 161.8474 276.2543 162.9373 275.6722 163.9999 275.4825 164.2505 276.1867 164.122 276.2273 164.1287 277.026 164.2438 277.466 164.5011 277.7841 164.941 277.8653 165.3673 277.8587 165.4079 277.7775 166.2406 277.4863 167.1002 277.0124 167.879 275.6316 169.4494 278.6168 169.4494 278.6168 170.0314" fill="#696"/></g></g></svg>