<?xml version="1.0" encoding="UTF-8"?><svg id="Layer_2" xmlns="http://www.w3.org/2000/svg" width="123.4722mm" height="123.4722mm" viewBox="0 0 350 350"><rect x="-5.1777" y="11.7501" width="35.3553" height="1.4998" transform="translate(-5.1777 12.5) rotate(-45)" fill="#666"/><rect x="-10.3553" y="24.2501" width="70.7107" height="1.4998" transform="translate(-10.3553 25) rotate(-45)" fill="#666"/><rect x="-15.533" y="36.7501" width="106.066" height="1.4998" transform="translate(-15.533 37.5) rotate(-45)" fill="#666"/><rect x="-20.7107" y="49.2501" width="141.4214" height="1.4998" transform="translate(-20.7107 50) rotate(-45)" fill="#666"/><rect x="-25.8883" y="61.7501" width="176.7767" height="1.4998" transform="translate(-25.8883 62.5) rotate(-45)" fill="#666"/><rect x="-31.066" y="74.2501" width="212.132" height="1.4998" transform="translate(-31.066 75) rotate(-45)" fill="#666"/><rect x="-36.2437" y="86.7501" width="247.4874" height="1.4998" transform="translate(-36.2437 87.5) rotate(-45)" fill="#666"/><rect x="-41.4214" y="99.2501" width="282.8427" height="1.4998" transform="translate(-41.4214 100) rotate(-45)" fill="#666"/><rect x="-46.599" y="111.7501" width="318.1981" height="1.4998" transform="translate(-46.599 112.5) rotate(-45)" fill="#666"/><rect x="-51.7767" y="124.2501" width="353.5534" height="1.4998" transform="translate(-51.7767 125) rotate(-45)" fill="#666"/><rect x="-56.9544" y="136.7501" width="388.9087" height="1.4998" transform="translate(-56.9544 137.5) rotate(-45)" fill="#666"/><rect x="-62.132" y="149.2501" width="424.2641" height="1.4998" transform="translate(-62.132 150) rotate(-45)" fill="#666"/><rect x="-67.3097" y="161.7501" width="459.6194" height="1.4998" transform="translate(-67.3097 162.5) rotate(-45)" fill="#666"/><rect x="-72.4874" y="174.2501" width="494.9747" height="1.4998" transform="translate(-72.4874 175) rotate(-45)" fill="#666"/><rect x="319.8223" y="336.7501" width="35.3553" height="1.4998" transform="translate(-139.7971 337.5) rotate(-45)" fill="#666"/><rect x="289.6447" y="324.2501" width="70.7107" height="1.4998" transform="translate(-134.6194 325) rotate(-45)" fill="#666"/><rect x="259.467" y="311.7501" width="106.066" height="1.4998" transform="translate(-129.4417 312.5) rotate(-45)" fill="#666"/><rect x="229.2893" y="299.2501" width="141.4214" height="1.4998" transform="translate(-124.2641 300) rotate(-45)" fill="#666"/><rect x="199.1117" y="286.7501" width="176.7767" height="1.4998" transform="translate(-119.0864 287.5) rotate(-45)" fill="#666"/><rect x="168.934" y="274.2501" width="212.132" height="1.4998" transform="translate(-113.9087 275) rotate(-45)" fill="#666"/><rect x="138.7563" y="261.7501" width="247.4874" height="1.4998" transform="translate(-108.7311 262.5) rotate(-45)" fill="#666"/><rect x="108.5786" y="249.2501" width="282.8427" height="1.4998" transform="translate(-103.5534 250) rotate(-45)" fill="#666"/><rect x="78.401" y="236.7501" width="318.1981" height="1.4998" transform="translate(-98.3757 237.5) rotate(-45)" fill="#666"/><rect x="48.2233" y="224.2501" width="353.5534" height="1.4998" transform="translate(-93.1981 225) rotate(-45)" fill="#666"/><rect x="18.0456" y="211.7501" width="388.9087" height="1.4998" transform="translate(-88.0204 212.5) rotate(-45)" fill="#666"/><rect x="-12.132" y="199.2501" width="424.2641" height="1.4998" transform="translate(-82.8427 200) rotate(-45)" fill="#666"/><rect x="-42.3097" y="186.7501" width="459.6194" height="1.4998" transform="translate(-77.665 187.5) rotate(-45)" fill="#666"/></svg>