<?xml version="1.0" encoding="UTF-8"?><svg id="Layer_2" xmlns="http://www.w3.org/2000/svg" width="350" height="350" viewBox="0 0 350 350"><path d="M67.1771,95.776h.0879c.2195,0,.483,.9583,.7903,2.8826l-.2636,.1757h-.0879c-.2121,0-.4757-.9656-.7829-2.89l.2562-.1683Zm2.5389-2.6264h.0952c.2415,0,.5047,1.485,.7829,4.4555l.0879,.4316-.2636,.183h-.0879c-.2489,0-.512-1.485-.7903-4.4629l-.0879-.4316,.2636-.1757Zm3.1458-1.134h.0879c.2636,0,.4389,1.3171,.5267,3.9361,.0732,0,.1316,.5561,.1757,1.6608l-.2636,.1757h-.0952c-.2636,0-.4316-1.3097-.5194-3.9361-.0732,0-.1389-.5561-.1757-1.6608l.2636-.1757Zm3.2337-.4389h.0879l.2636,.2636v5.6847l-.2636,.2636h-.0879l-.2636-.2636v-5.6847l.2636-.2636Zm3.3215,.4389l.2562,.2636c-.2562,3.6729-.461,5.509-.6073,5.509h-.1757l-.2636-.2636c.2705-3.6729,.4683-5.509,.6146-5.509h.1757Zm3.1388,1.134l.2705,.2636c-.3367,3.2046-.5705,4.8069-.7025,4.8069h-.1757l-.2636-.2562c.3367-3.2046,.5705-4.8139,.6951-4.8139h.1757l.0004-.0003Zm2.5385,2.6264h.0879l.2636,.2636c-.3367,1.8581-.5999,2.7948-.7829,2.7948h-.0879l-.2636-.2636c.3293-1.8582,.5926-2.7948,.7829-2.7948Z" fill="#9a9"/><path d="M177.3813,22.1605h.0879c.2194,0,.4756,.9583,.7903,2.8752l-.2706,.183h-.0879c-.2121,0-.4756-.973-.783-2.8899l.2635-.1683h-.0003Zm2.5389-2.6264h.0879c.2415,0,.5047,1.4851,.783,4.4555l.0879,.4316-.2562,.183h-.0879c-.2562,0-.5121-1.4851-.7903-4.4555l-.0879-.4389,.2632-.1757h.0003Zm3.1388-1.1414h.0879c.2635,0,.4389,1.3171,.5268,3.9361,.0732,0,.1316,.5561,.1683,1.6608l-.2635,.1683h-.0952c-.2562,0-.4315-1.3097-.5121-3.9287-.0732,0-.1389-.5562-.1683-1.6607l.2562-.1757Zm3.2337-.4316h.0952l.2635,.2635v5.6847l-.2635,.2562h-.0952l-.2562-.2636v-5.6847l.2562-.2562Zm3.3288,.4316l.2562,.2635c-.2562,3.6729-.4609,5.5017-.6073,5.5017h-.1757l-.2635-.2562c.2635-3.6729,.4683-5.509,.6146-5.509h.1757Zm3.1388,1.1413l.2635,.2635c-.3367,3.2046-.5705,4.8069-.7098,4.8069h-.1683l-.2562-.2562c.3294-3.2046,.5635-4.8139,.6951-4.8139h.1757v-.0003Zm2.5316,2.6264h.0952l.2635,.2562c-.3437,1.8582-.5999,2.8021-.783,2.8021h-.0879l-.2706-.2636c.3367-1.8655,.5999-2.7948,.783-2.7948h-.0003Z" fill="#9a9"/><path d="M300.8427,21.7069h.0952c.2121,0,.4683,.9583,.783,2.8752l-.2706,.183h-.0879c-.2121,0-.4757-.973-.783-2.8899l.2636-.1683h-.0003Zm2.5386-2.6338h.0879c.2415,0,.5121,1.485,.783,4.4555l.0879,.4316-.2636,.183h-.0879c-.2562,0-.5121-1.4851-.783-4.4555l-.0879-.4389,.2636-.1757Zm3.1388-1.134h.0879c.2636,0,.4463,1.3171,.5267,3.9361,.0731,0,.1316,.5561,.1684,1.6608l-.2488,.1683h-.1025c-.2562,0-.4315-1.3097-.5121-3.9287-.0731,0-.139-.5562-.1536-1.6607l.2341-.1757Zm3.2336-.4389h.1025l.2562,.2635v5.6847l-.2779,.2562h-.0805l-.2562-.2562v-5.6847l.2562-.2635h-.0003Zm3.3289,.4389l.2562,.2635c-.2562,3.6729-.4757,5.5017-.6073,5.5017h-.1757l-.2562-.2562c.2562-3.6729,.4609-5.509,.6146-5.509h.1684Zm3.1388,1.134l.2562,.2635c-.3294,3.2046-.5705,4.8069-.7172,4.8069h-.1536l-.2562-.2562c.3294-3.2046,.5561-4.8139,.6951-4.8139h.1757v-.0003Zm2.5315,2.6338h.0952l.2636,.2562c-.3437,1.8582-.5999,2.8021-.783,2.8021h-.0879l-.2706-.2636c.3437-1.8655,.5999-2.7948,.783-2.7948h-.0003Z" fill="#9a9"/><path d="M257.0696,80.4632h.0952c.2048,0,.4609,.9583,.7756,2.8753l-.2706,.183h-.0879c-.2121,0-.4683-.973-.783-2.89l.2706-.1683Zm2.5242-2.6338h.0879c.2415,0,.4973,1.485,.783,4.4555l.0879,.4316-.2562,.183h-.0879c-.2562,0-.5121-1.485-.7903-4.4555l-.0879-.4389,.2635-.1757Zm3.1462-1.134h.0879c.2706,0,.4536,1.3171,.5267,3.9361,.0731,0,.1316,.5561,.1684,1.6608l-.2636,.1683h-.0952c-.2562,0-.4463-1.3097-.5121-3.9287-.0731,0-.1463-.5561-.1684-1.6608l.2562-.1757Zm3.2263-.4316h.0952l.2636,.2636v5.6847l-.2636,.2562h-.0952l-.2562-.2562v-5.6847l.2562-.2636Zm3.3289,.4316l.2562,.2636c-.2562,3.6729-.4609,5.5016-.6146,5.5016h-.1684l-.2636-.2562c.2636-3.6729,.4609-5.509,.6146-5.509h.1757Zm3.1462,1.134l.2636,.2636c-.3367,3.2046-.5705,4.8069-.7098,4.8069h-.1684l-.2562-.2562c.3294-3.2046,.5635-4.8139,.7024-4.8139h.1684v-.0003Zm2.5315,2.6338h.1025l.2562,.2562c-.3437,1.8582-.5999,2.8021-.7682,2.8021h-.1025l-.2706-.2636c.322-1.8655,.5925-2.7948,.783-2.7948h-.0003Z" fill="#9a9"/><path d="M264.2614,153.3986h.0952c.2121,0,.4683,.9583,.783,2.8752l-.2706,.183h-.0879c-.2121,0-.4757-.973-.783-2.8899l.2636-.1683h-.0003Zm2.5386-2.6337h.0879c.2415,0,.5121,1.4851,.783,4.4555l.0879,.4315-.2562,.183h-.0879c-.2562,0-.5047-1.4851-.7756-4.4555l-.0952-.4389,.2562-.1757Zm3.1388-1.134h.0879c.2636,0,.4463,1.3171,.5267,3.9361,.0731,0,.1316,.5562,.1684,1.6607l-.2488,.1683h-.1025c-.2562,0-.4315-1.3097-.5121-3.9288-.0731,0-.139-.5562-.1536-1.6607l.2341-.1757Zm3.2336-.4389h.1025l.2562,.2635v5.6847l-.2779,.2562h-.0805l-.2562-.2562v-5.6847l.2562-.2635h-.0003Zm3.3289,.4389l.2562,.2635c-.2562,3.6729-.4757,5.5016-.6073,5.5016h-.1757l-.2562-.2562c.2562-3.6729,.4609-5.509,.6146-5.509h.1684Zm3.1388,1.134l.2562,.2635c-.3294,3.2046-.5705,4.8069-.7172,4.8069h-.1536l-.2562-.2562c.3294-3.2046,.5561-4.8139,.6951-4.8139h.1757v-.0003Zm2.5315,2.6337h.0952l.2636,.2562c-.3437,1.8581-.5999,2.8021-.783,2.8021h-.0879l-.2706-.2635c.3437-1.8655,.5999-2.7948,.783-2.7948h-.0003Z" fill="#9a9"/><path d="M30.5958,167.5701h.0879c.2194,0,.4757,.9583,.7903,2.8752l-.2706,.183h-.0805c-.2121,0-.4757-.973-.783-2.8899l.2562-.1683h-.0004Zm2.5389-2.6264h.0879c.2415,0,.5047,1.4851,.783,4.4555l.0879,.4315-.2562,.183h-.0879c-.2562,0-.512-1.4851-.7903-4.4555l-.0879-.4389,.2636-.1757Zm3.1462-1.1413h.0878c.2636,0,.4389,1.3171,.5268,3.9361,.0731,0,.1316,.5562,.1684,1.6607l-.2636,.1683h-.0952c-.2562,0-.4315-1.3097-.5121-3.9288-.0731,0-.1389-.5562-.1684-1.6607l.2562-.1757Zm3.2263-.4315h.0952l.2636,.2635v5.6847l-.2636,.2562h-.0952l-.2562-.2562v-5.6847l.2562-.2635Zm3.3289,.4315l.2562,.2635c-.2562,3.6729-.4609,5.5016-.6073,5.5016h-.1757l-.2636-.2562c.2636-3.6729,.4683-5.509,.6146-5.509h.1757Zm3.1458,1.1414l.2636,.2635c-.3367,3.2046-.5705,4.8069-.7098,4.8069h-.1684l-.2562-.2562c.3293-3.2046,.5635-4.8139,.6951-4.8139h.1757v-.0003Zm2.5315,2.6264h.0952l.2636,.2562c-.3437,1.8581-.5999,2.8021-.7829,2.8021h-.0952l-.2706-.2635c.3367-1.8655,.5999-2.7948,.7903-2.7948h-.0004Z" fill="#9a9"/><path d="M192.0137,248.9633h.0879c.2194,0,.4756,.9583,.7903,2.8753l-.2706,.183h-.0879c-.2121,0-.4756-.973-.783-2.8899l.2635-.1684h-.0003Zm2.5389-2.6264h.0879c.2415,0,.5047,1.4851,.783,4.4555l.0879,.4315-.2562,.183h-.0879c-.2562,0-.5121-1.4851-.7903-4.4555l-.0879-.4389,.2635-.1757Zm3.1388-1.1487h.0879c.2635,0,.4389,1.3244,.5268,3.9435,.0732,0,.1316,.5561,.1683,1.6608l-.2635,.1684h-.0952c-.2562,0-.4315-1.3244-.5121-3.9287-.0732,0-.1389-.5561-.1683-1.6754l.2562-.1684Zm3.2337-.4242h.1026l.2562,.2562v5.6847l-.2562,.2562h-.1026l-.2562-.2562v-5.6847l.2562-.2562Zm3.3288,.4242l.2562,.2706c-.2562,3.6729-.4609,5.5016-.6073,5.5016h-.1757l-.2562-.2562c.2562-3.6729,.4609-5.5164,.6146-5.5164h.1683v.0003Zm3.1388,1.1487l.2562,.2636c-.3294,3.2046-.5705,4.8069-.7171,4.8069h-.1536l-.2562-.2562c.3294-3.2046,.5562-4.8143,.6951-4.8143h.1757Zm2.5316,2.6264h.0952l.2635,.2562c-.3437,1.8585-.5999,2.8021-.783,2.8021h-.0879l-.2706-.2636c.3437-1.8655,.5999-2.7948,.783-2.7948h-.0003Z" fill="#9a9"/><path d="M301.3912,241.669h.0879c.2194,0,.4683,.9583,.7903,2.8826l-.2706,.1757h-.0952c-.2048,0-.4683-.973-.7756-2.8973l.2636-.161h-.0003Zm2.5389-2.6191h.0952c.2415,0,.4973,1.4851,.7756,4.4481l.0952,.4389-.2562,.1757h-.0952c-.2488,0-.5047-1.4851-.7903-4.4481l-.0879-.4463,.2635-.1683Zm3.1388-1.1487h.1025c.2562,0,.4463,1.317,.5121,3.9287,.0879,0,.1463,.5561,.1684,1.6681l-.2636,.161h-.0952c-.2562,0-.4315-1.3097-.5121-3.9287-.0731,0-.139-.5488-.1684-1.6754l.2562-.1536Zm3.2336-.4315h.0952l.2706,.2636v5.67l-.2706,.2562h-.0952l-.2488-.2562v-5.67l.2488-.2636Zm3.3289,.4315l.2562,.2562c-.2562,3.6729-.4609,5.5016-.6073,5.5016h-.1684l-.2706-.2562c.2706-3.6729,.4683-5.5016,.6146-5.5016h.1754Zm3.1532,1.1487l.2562,.2562c-.3367,3.2046-.5705,4.8069-.7098,4.8069h-.161l-.2562-.2562c.3294-3.2046,.5561-4.8069,.7024-4.8069h.1683Zm2.5095,2.619h.1025l.2636,.2562c-.3511,1.8585-.5999,2.8021-.7756,2.8021h-.0952l-.2706-.2636c.3367-1.8655,.5999-2.7948,.7756-2.7948h-.0003Z" fill="#9a9"/><path d="M67.6381,263.1422h.0879c.2195,0,.4757,.9583,.7903,2.8899l-.2705,.1684h-.0879c-.2121,0-.4757-.973-.7829-2.8899l.2636-.1684h-.0004Zm2.5389-2.6338h.0879c.2415,0,.5047,1.4851,.7829,4.4555l.0879,.4315-.2562,.1904h-.0879c-.2562,0-.512-1.4851-.7903-4.4481l-.0879-.4536,.2636-.1757Zm3.1388-1.134h.0879c.2636,0,.4389,1.3244,.5267,3.9361,.0732,0,.1316,.5561,.1683,1.6608l-.2562,.1684h-.0952c-.2562,0-.4316-1.317-.512-3.9287-.0732,0-.1389-.5561-.1683-1.6608l.2489-.1757Zm3.2337-.4389h.0952l.2636,.2562v5.67l-.2705,.2779h-.0879l-.2562-.2562v-5.6847l.2562-.2636-.0004,.0003Zm3.3288,.4389l.2562,.2636c-.2562,3.6729-.4683,5.5016-.6073,5.5016h-.1757l-.2636-.2562c.2636-3.6729,.4683-5.509,.6146-5.509h.1757Zm3.1388,1.134l.2636,.2562c-.3367,3.2046-.5705,4.8143-.7098,4.8143h-.1683l-.2562-.2562c.3293-3.2046,.5635-4.8143,.6951-4.8143h.1757Zm2.5316,2.6338h.0952l.2636,.2562c-.3437,1.8585-.5999,2.8021-.7829,2.8021h-.0879l-.2705-.2562c.3367-1.8729,.5999-2.8021,.7829-2.8021h-.0004Z" fill="#9a9"/><path d="M30.5958,328.988h.0879c.2194,0,.4757,.9583,.7903,2.8899l-.2706,.1684h-.0805c-.2121,0-.4757-.973-.783-2.8899l.2562-.1684h-.0004Zm2.5389-2.6338h.0879c.2415,0,.5047,1.4851,.783,4.4555l.0879,.4315-.2562,.183h-.0879c-.2562,0-.512-1.4851-.7903-4.4555l-.0879-.4463,.2636-.1683Zm3.1462-1.134h.0878c.2636,0,.4389,1.3244,.5268,3.9361,.0731,0,.1316,.5561,.1684,1.6608l-.2636,.1684h-.0952c-.2562,0-.4315-1.317-.5121-3.9287-.0731,0-.1389-.5561-.1684-1.6608l.2562-.1757Zm3.2263-.4389h.0952l.2636,.2562v5.67l-.2636,.2779h-.0952l-.2562-.2562v-5.6847l.2562-.2636v.0003Zm3.3289,.4389l.2562,.2636c-.2562,3.6729-.4609,5.5016-.6073,5.5016h-.1757l-.2636-.2562c.2636-3.6729,.4683-5.509,.6146-5.509h.1757Zm3.1458,1.134l.2636,.2562c-.3367,3.2046-.5705,4.8143-.7098,4.8143h-.1684l-.2562-.2562c.3293-3.2046,.5635-4.8143,.6951-4.8143h.1757Zm2.5315,2.6338h.0952l.2636,.2562c-.3437,1.8585-.5999,2.8021-.7829,2.8021h-.0952l-.2706-.2562c.3367-1.8729,.5999-2.8021,.7903-2.8021h-.0004Z" fill="#9a9"/><path d="M279.3401,329.4416h.0952c.2194,0,.4757,.9583,.7903,2.8753l-.2706,.183h-.0879c-.2121,0-.483-.973-.783-2.8899l.2562-.1684h-.0003Zm2.5459-2.6264h.0879c.2415,0,.5047,1.4851,.783,4.4555l.0879,.4315-.2562,.183h-.0879c-.2562,0-.5121-1.4851-.783-4.4555l-.0952-.4389,.2635-.1757Zm3.1462-1.1487h.0879c.2706,0,.4536,1.3244,.5267,3.9435,.0731,0,.1316,.5561,.1684,1.6608l-.2636,.1684h-.0952c-.2562,0-.4463-1.3244-.5121-3.9287-.0731,0-.1463-.5561-.1684-1.6754l.2562-.1684Zm3.2263-.4242h.0952l.2636,.2562v5.6847l-.2636,.2562h-.0952l-.2562-.2562v-5.6847l.2562-.2562Zm3.3289,.4242l.2562,.2706c-.2562,3.6729-.4609,5.5016-.6146,5.5016h-.1684l-.2636-.2562c.2636-3.6729,.4609-5.5164,.6146-5.5164h.1757v.0003Zm3.1462,1.1487l.2636,.2636c-.3367,3.2046-.5705,4.8069-.7098,4.8069h-.1684l-.2562-.2562c.3294-3.2046,.5635-4.8143,.7024-4.8143h.1683Zm2.5315,2.6264h.1025l.2562,.2562c-.3437,1.8585-.5999,2.8021-.7682,2.8021h-.1025l-.2562-.2636c.3146-1.8655,.5779-2.7948,.7682-2.7947Z" fill="#9a9"/></svg>