<?xml version="1.0" encoding="UTF-8"?><svg id="Layer_2" xmlns="http://www.w3.org/2000/svg" width="350" height="350" viewBox="0 0 350 350"><g id="BouldersScat"><polygon points="181.5874 24.4356 180.935 23.6733 180.4289 22.7934 180.1212 21.7522 180.0404 20.6892 180.2164 19.5164 180.6637 18.8416 181.2794 18.2991 182.0273 17.94 182.8337 17.786 183.6548 17.8301 184.366 18.0719 185.3264 18.5266 185.759 19.0176 185.9571 19.5454 185.9865 20.0953 185.8031 20.6304 185.2018 20.4327 185.3411 20.0074 185.3264 19.6263 185.1945 19.3109 184.9085 19.0103 184.1389 18.6659 183.5008 18.4531 182.8411 18.4163 182.196 18.5556 181.6094 18.8489 181.1254 19.2889 180.7957 19.7946 180.6711 20.7039 180.7516 21.6349 181.0155 22.5442 181.4481 23.3139 182.0714 24.0177 181.5874 24.4356" fill="#bababa"/><polygon points="189.1463 24.8535 186.529 24.7289 184.3881 24.5455 182.2839 24.5308 180.187 24.7142 180.1286 24.0765 182.2545 23.8931 184.4175 23.9078 186.5728 24.0912 189.139 24.2158 191.6611 24.0177 192.5042 24.0765 192.4601 24.7142 191.6611 24.6558 189.1463 24.8535" fill="#bababa"/><polyline points="190.1725 22.3094 191.155 22.8155 191.9981 23.5557 192.0716 24.3404" fill="none"/><polygon points="187.951 23.82 187.1226 23.6366 187.2619 23.0132 187.9951 23.1746 188.6623 23.1161 189.3003 22.8449 189.8355 22.3535 189.7767 22.2803 189.7108 22.2289 188.1859 20.909 187.2987 20.2272 186.3456 19.7362 185.3632 19.4429 185.4436 18.8125 185.5025 18.8199 186.5875 19.1496 187.6434 19.6921 188.5891 20.4106 190.3706 21.9723 190.4731 22.4123 190.3045 22.8375 189.5936 23.4164 188.7652 23.7465 187.951 23.82" fill="#bababa"/></g><g id="BouldersScat-2"><polygon points="305.9525 24.1497 305.2928 23.3947 304.794 22.5148 304.4934 21.4662 304.4055 20.3959 304.5742 19.2304 305.0289 18.563 305.6445 18.0131 306.3778 17.654 307.1989 17.5 308.02 17.5515 308.7458 17.786 309.6916 18.2406 310.1242 18.7317 310.3222 19.2595 310.344 19.8093 310.1683 20.3518 309.567 20.1467 309.7063 19.7288 309.6916 19.3403 309.5596 19.025 309.2737 18.7243 308.5114 18.3799 307.8733 18.1671 307.2062 18.1377 306.5611 18.2697 305.9672 18.563 305.4758 19.0029 305.1535 19.5164 305.0362 20.418 305.1094 21.3563 305.3806 22.2656 305.8059 23.0279 306.4362 23.7391 305.9525 24.1497" fill="#bababa"/><polygon points="313.5041 24.5749 310.8938 24.443 308.7606 24.2596 306.6563 24.2449 304.5448 24.4283 304.508 23.7906 306.6269 23.6072 308.7896 23.6219 310.9379 23.8053 313.4968 23.9372 316.0258 23.7391 316.869 23.7906 316.8179 24.4283 316.0258 24.3698 313.5041 24.5749" fill="#bababa"/><polyline points="314.545 22.0234 315.5348 22.5295 316.3706 23.2701 316.4511 24.0545" fill="none"/><polygon points="312.3089 23.534 311.4951 23.3506 311.6197 22.7273 312.3529 22.8886 313.0274 22.8302 313.6724 22.5663 314.2006 22.0455 314.083 21.9503 312.5507 20.6234 311.6638 19.9413 310.7034 19.4502 309.7357 19.1569 309.8015 18.5339 309.8676 18.5413 310.9526 18.8636 312.0082 19.4061 312.9542 20.132 314.7358 21.6864 314.8457 22.1337 314.6549 22.5516 313.9584 23.1378 313.1226 23.4605 312.3089 23.534" fill="#bababa"/></g><g id="BouldersScat-3"><polygon points="261.9631 82.802 261.3033 82.047 260.805 81.1671 260.5043 80.1189 260.4161 79.0482 260.5848 77.8827 261.0395 77.2156 261.6551 76.6658 262.3884 76.3063 263.2094 76.1523 264.0306 76.2038 264.7565 76.4383 265.7022 76.893 266.1347 77.384 266.3329 77.9121 266.3549 78.462 266.1789 79.0045 265.5776 78.799 265.7168 78.3811 265.7022 77.9926 265.5702 77.6773 265.2843 77.3766 264.5219 77.0322 263.8839 76.8195 263.2168 76.7904 262.5718 76.9224 261.9778 77.2156 261.4868 77.6553 261.1641 78.1687 261.0468 79.0703 261.1199 80.009 261.3912 80.9179 261.8165 81.6806 262.4472 82.3914 261.9631 82.802" fill="#bababa"/><polygon points="269.5147 83.2272 266.9048 83.0953 264.7712 82.9122 262.667 82.8975 260.5554 83.0806 260.519 82.4429 262.6376 82.2595 264.8006 82.2742 266.9485 82.4576 269.5073 82.5895 272.0368 82.3914 272.8799 82.4429 272.8285 83.0806 272.0368 83.0221 269.5147 83.2272" fill="#bababa"/><polyline points="270.5556 80.6761 271.5454 81.1818 272.3812 81.9225 272.462 82.7068" fill="none"/><polygon points="268.3198 82.1863 267.5057 82.0029 267.6303 81.3799 268.3636 81.5413 269.038 81.4825 269.6834 81.2186 270.2112 80.6982 270.094 80.6026 268.5617 79.2757 267.6744 78.594 266.714 78.1026 265.7462 77.8092 265.812 77.1862 265.8782 77.1936 266.9632 77.5159 268.0191 78.0588 268.9649 78.7843 270.7464 80.3387 270.8562 80.786 270.6659 81.2039 269.9694 81.7905 269.1336 82.1128 268.3198 82.1863" fill="#bababa"/></g><g id="BouldersScat-4"><polygon points="71.343 97.6777 70.6832 96.9154 70.1845 96.0281 69.8765 94.9946 69.7886 93.9239 69.972 92.7584 70.412 92.084 71.035 91.5415 71.7756 91.182 72.582 91.0207 73.4104 91.0721 74.1216 91.314 75.082 91.7613 75.5073 92.2527 75.7124 92.7878 75.7344 93.3377 75.5514 93.8729 74.9501 93.6747 75.0894 93.2495 75.0747 92.8683 74.9427 92.5457 74.6568 92.2454 73.8945 91.9006 73.2491 91.6955 72.5967 91.6587 71.9443 91.7981 71.3577 92.0913 70.8736 92.5239 70.5439 93.0371 70.419 93.946 70.4998 94.8773 70.7711 95.7863 71.2037 96.5563 71.8193 97.2598 71.343 97.6777" fill="#bababa"/><polygon points="78.9016 98.0956 76.2769 97.971 74.1363 97.7879 72.0321 97.7732 69.9353 97.9563 69.8838 97.3186 72.0101 97.1352 74.1727 97.1499 76.321 97.3333 78.8872 97.4579 81.409 97.2598 82.2595 97.3186 82.2157 97.9563 81.409 97.8979 78.9016 98.0956" fill="#bababa"/><polyline points="79.9281 95.5445 80.9106 96.0575 81.7537 96.7908 81.8269 97.5751" fill="none"/><polygon points="77.6993 97.0621 76.8782 96.8786 77.0102 96.2556 77.7434 96.417 78.4105 96.3508 79.0556 96.0869 79.5911 95.5886 79.5323 95.5224 79.4661 95.4709 77.9412 94.1514 77.0543 93.4697 76.1012 92.9709 75.1188 92.6776 75.1993 92.0546 75.2507 92.0619 76.3431 92.3846 77.3913 92.9345 78.3374 93.6527 80.1262 95.2144 80.2288 95.6543 80.0527 96.0722 79.3415 96.6588 78.5204 96.9812 77.6993 97.0621" fill="#bababa"/></g><g id="BouldersScat-5"><polygon points="34.685 170.0622 34.0253 169.2996 33.5269 168.4127 33.2189 167.3788 33.131 166.3085 33.3141 165.1427 33.754 164.4682 34.3774 163.9257 35.1176 163.5666 35.9244 163.4052 36.7528 163.4567 37.4637 163.6985 38.4244 164.1458 38.8493 164.6369 39.0548 165.1721 39.0768 165.7219 38.8934 166.257 38.2921 166.0593 38.4314 165.6341 38.4171 165.2529 38.2851 164.9302 37.9992 164.6295 37.2365 164.2851 36.5915 164.0797 35.9387 164.0429 35.2863 164.1822 34.6997 164.4755 34.216 164.9081 33.886 165.4212 33.7614 166.3305 33.8419 167.2616 34.1135 168.1709 34.5457 168.9405 35.1617 169.6443 34.685 170.0622" fill="#bababa"/><polygon points="42.244 170.4801 39.6193 170.3556 37.4784 170.1722 35.3742 170.1575 33.2777 170.3409 33.2262 169.7031 35.3525 169.5197 37.5151 169.5344 39.6634 169.7175 42.2293 169.8425 44.7514 169.6443 45.6019 169.7031 45.5578 170.3409 44.7514 170.2821 42.244 170.4801" fill="#bababa"/><polyline points="43.2705 167.936 44.253 168.4421 45.0961 169.175 45.1693 169.9597" fill="none"/><polygon points="41.0417 169.4463 40.2206 169.2632 40.3526 168.6398 41.0855 168.8012 41.7529 168.7354 42.398 168.4712 42.9331 167.9727 42.8747 167.9069 42.8085 167.8555 41.2836 166.5356 40.3963 165.8538 39.4433 165.3554 38.4608 165.0621 38.5417 164.4388 38.5928 164.4461 39.6851 164.7689 40.7337 165.3187 41.6794 166.0373 43.4683 167.5989 43.5712 168.0389 43.3951 168.4568 42.6839 169.0431 41.8628 169.3658 41.0417 169.4463" fill="#bababa"/></g><g id="BouldersScat-6"><polygon points="71.343 266.3256 70.6832 265.5702 70.1845 264.6907 69.8765 263.6421 69.7886 262.5791 69.972 261.4206 70.412 260.7462 71.035 260.1963 71.7756 259.8299 72.5452 259.6686 72.582 259.6759 73.4104 259.727 74.1216 259.9545 75.082 260.4162 75.5073 260.9075 75.7124 261.428 75.7344 261.9926 75.5514 262.5277 74.9501 262.3373 75.0894 261.9047 75.0747 261.5232 74.9427 261.2008 74.6568 260.9002 73.8871 260.5554 73.2491 260.343 72.5967 260.3136 71.9443 260.4456 71.3577 260.7462 70.8736 261.1714 70.5439 261.7066 70.419 262.6085 70.4998 263.5395 70.7711 264.4558 71.2037 265.2038 71.8193 265.915 71.343 266.3256" fill="#bababa"/><polygon points="78.9016 266.7508 76.2769 266.6115 74.1363 266.4354 72.0321 266.4281 69.9353 266.6115 69.8838 265.9881 72.0101 265.7904 74.1727 265.7977 76.321 266.0029 78.8872 266.1201 81.409 265.9297 82.2595 265.9881 82.2157 266.6115 81.409 266.5601 78.9016 266.7508" fill="#bababa"/><polyline points="79.9281 264.1919 80.9106 264.7124 81.7537 265.4383 81.8269 266.2447" fill="none"/><polygon points="77.6993 265.7095 77.6552 265.6949 76.8782 265.5265 77.0102 264.9105 77.7434 265.0719 78.4105 265.0131 79.0556 264.7418 79.5911 264.2361 79.5323 264.1773 77.9412 262.8063 77.0543 262.1172 76.1012 261.6261 75.1188 261.3475 75.1993 260.7095 75.2507 260.7168 76.3431 261.0469 77.3913 261.5893 78.3374 262.3226 80.1262 263.8622 80.2288 264.3092 80.0527 264.7271 79.3415 265.3137 78.5204 265.6438 77.6993 265.7095" fill="#bababa"/></g><g id="BouldersScat-7"><polygon points="195.9793 251.4278 195.3266 250.6799 194.8209 249.7929 194.5129 248.7444 194.425 247.674 194.6084 246.5082 195.0553 245.8411 195.6714 245.2912 196.4119 244.9248 197.1816 244.7708 197.2257 244.7781 198.0468 244.8293 198.7727 245.0641 199.7184 245.5257 200.151 246.0098 200.3488 246.5376 200.3708 247.0801 200.1948 247.63 199.5938 247.4249 199.7331 247.0143 199.7184 246.6255 199.5865 246.3031 199.3005 246.0024 198.5379 245.6577 197.9002 245.4452 197.233 245.4158 196.5877 245.5331 196.0011 245.8411 195.5173 246.281 195.1873 246.7942 195.0627 247.6961 195.1435 248.6271 195.4075 249.5438 195.8401 250.306 196.4631 251.0246 195.9793 251.4278" fill="#bababa"/><polygon points="203.5306 251.853 200.9207 251.7211 198.7871 251.5377 196.6759 251.5303 194.579 251.7064 194.5202 251.0757 196.6465 250.8927 198.8165 250.9 200.9648 251.0904 203.5233 251.2224 206.0527 251.0246 206.8958 251.0757 206.8448 251.7064 206.0527 251.6476 203.5306 251.853" fill="#bababa"/><polyline points="204.5719 249.3015 205.5617 249.8076 206.3975 250.5479 206.4779 251.34" fill="none"/><polygon points="202.3357 250.8118 202.2843 250.7901 201.522 250.6287 201.6466 250.0127 202.3798 250.1594 203.0543 250.1079 203.6993 249.8293 204.2271 249.3236 204.1099 249.2137 202.5776 247.9159 201.6907 247.2194 200.7299 246.7283 199.7622 246.4424 199.8283 245.8117 199.8941 245.8264 200.9795 246.1418 202.0351 246.6989 202.9808 247.4101 204.7626 248.9571 204.8725 249.4114 204.6818 249.815 203.9853 250.4233 203.1495 250.7313 202.3357 250.8118" fill="#bababa"/></g><g id="BouldersScat-8"><polygon points="305.9525 244.0963 305.2928 243.3484 304.794 242.4611 304.4934 241.4129 304.4055 240.3426 304.5742 239.1767 305.0289 238.5096 305.6445 237.9598 306.3778 237.593 307.1621 237.4393 307.1989 237.4463 308.02 237.4978 308.7458 237.7323 309.6916 238.1943 310.1242 238.6784 310.3222 239.2061 310.344 239.7487 310.1683 240.2985 309.567 240.093 309.7063 239.6825 309.6916 239.294 309.5596 238.9717 309.2737 238.671 308.5114 238.3263 307.8733 238.1138 307.2062 238.0844 306.5611 238.2017 305.9672 238.5096 305.4758 238.9496 305.1535 239.4627 305.0362 240.3646 305.1094 241.2956 305.3806 242.2119 305.8059 242.9746 306.4362 243.6932 305.9525 244.0963" fill="#bababa"/><polygon points="313.5041 244.5216 310.8938 244.3896 308.7606 244.2063 306.6563 244.1989 304.5448 244.375 304.508 243.7442 306.6269 243.5608 308.7896 243.5682 310.9379 243.759 313.4968 243.8909 316.0258 243.6932 316.869 243.7442 316.8179 244.375 316.0258 244.3162 313.5041 244.5216" fill="#bababa"/><polyline points="314.545 241.9701 315.5348 242.4759 316.3706 243.2165 316.4511 244.0081" fill="none"/><polygon points="312.3089 243.4804 312.2578 243.4583 311.4951 243.2969 311.6197 242.6813 312.3529 242.828 313.0274 242.7765 313.6724 242.4979 314.2006 241.9922 314.083 241.8822 312.5507 240.5845 311.6638 239.8879 310.7034 239.3966 309.7357 239.1109 309.8015 238.4802 309.8676 238.495 310.9526 238.8103 312.0082 239.3675 312.9542 240.0787 314.7358 241.6253 314.8457 242.08 314.6549 242.4832 313.9584 243.0919 313.1226 243.3999 312.3089 243.4804" fill="#bababa"/></g><g id="BouldersScat-9"><polygon points="283.9578 332.0748 283.2981 331.3269 282.7993 330.4399 282.499 329.3914 282.4108 328.321 282.5795 327.1552 283.0341 326.4881 283.6498 325.9382 284.383 325.5718 285.1674 325.4178 285.2042 325.4251 286.0252 325.4763 286.7512 325.7111 287.6968 326.1731 288.1295 326.6568 288.3276 327.1846 288.3492 327.7271 288.1735 328.277 287.5722 328.0719 287.7116 327.6613 287.6968 327.2728 287.5649 326.9501 287.2789 326.6494 286.5167 326.3051 285.8786 326.0922 285.2115 326.0628 284.5665 326.1801 283.9725 326.4881 283.4811 326.928 283.1587 327.4412 283.0415 328.3431 283.1147 329.2741 283.3859 330.1908 283.8111 330.953 284.4418 331.6716 283.9578 332.0748" fill="#bababa"/><polygon points="291.5094 332.5 288.8995 332.3681 286.7658 332.1847 284.6617 332.1773 282.5501 332.3534 282.5134 331.723 284.6323 331.5397 286.7952 331.547 288.9432 331.7374 291.5021 331.8697 294.0315 331.6716 294.8747 331.723 294.8232 332.3534 294.0315 332.2946 291.5094 332.5" fill="#bababa"/><polyline points="292.5503 329.9486 293.5401 330.4547 294.3759 331.1949 294.4568 331.987" fill="none"/><polygon points="290.3142 331.4591 290.263 331.4371 289.5004 331.2757 289.625 330.6597 290.3583 330.8064 291.0327 330.7553 291.6781 330.4767 292.2059 329.9706 292.0887 329.8607 290.5563 328.5629 289.6691 327.8664 288.7087 327.3753 287.741 327.0894 287.8068 326.4587 287.8729 326.4734 288.9579 326.7888 290.0139 327.3459 290.9596 328.0571 292.741 329.6041 292.851 330.0588 292.6606 330.462 291.9637 331.0703 291.1282 331.3783 290.3142 331.4591" fill="#bababa"/></g><g id="BouldersScat-10"><polygon points="34.685 331.9134 34.0253 331.1512 33.5269 330.2712 33.2189 329.2374 33.131 328.1597 33.3141 326.9942 33.754 326.3194 34.3774 325.7769 35.1176 325.4105 35.8876 325.2564 35.9244 325.2638 36.7528 325.3079 37.4637 325.5571 38.4244 325.997 38.8493 326.4881 39.0548 327.0306 39.0768 327.5731 38.8934 328.1086 38.2921 327.9105 38.4314 327.4852 38.4171 327.0967 38.2851 326.7888 37.9992 326.4881 37.2292 326.1437 36.5915 325.9236 35.9387 325.8942 35.2863 326.0264 34.6997 326.3267 34.216 326.774 33.886 327.2801 33.7614 328.1817 33.8419 329.1201 34.1135 330.0294 34.5457 330.777 35.1617 331.4955 34.685 331.9134" fill="#bababa"/><polygon points="42.244 332.324 39.6193 332.2067 37.4784 332.009 35.3742 332.009 33.2777 332.1921 33.2262 331.5617 35.3525 331.3709 37.5151 331.3783 39.6634 331.5764 42.2293 331.6936 44.7514 331.5029 45.6019 331.5617 45.5578 332.1921 44.7514 332.1336 42.244 332.324" fill="#bababa"/><polyline points="43.2705 329.7945 44.253 330.2933 45.0961 331.0409 45.1693 331.8182" fill="none"/><polygon points="41.0417 331.2978 40.9976 331.2831 40.2206 331.107 40.3526 330.4911 41.0855 330.6524 41.7529 330.5866 42.398 330.3227 42.9331 329.8387 42.8747 329.7655 41.2836 328.3872 40.3963 327.705 39.4433 327.2067 38.4608 326.9207 38.5417 326.2903 38.5928 326.2977 39.6851 326.62 40.7337 327.1699 41.6794 327.8958 43.4683 329.4502 43.5712 329.8901 43.3951 330.308 42.6839 330.8946 41.8628 331.2169 41.0417 331.2978" fill="#bababa"/></g><g id="BouldersScat-11"><polygon points="269.2949 156.1175 268.6348 155.3626 268.1364 154.4827 267.8357 153.4345 267.7479 152.3638 267.9163 151.1983 268.3709 150.5309 268.9869 149.981 269.7198 149.6219 270.5413 149.4679 271.3623 149.5193 272.0879 149.7539 273.0339 150.2085 273.4666 150.6995 273.6643 151.2274 273.6863 151.7772 273.5103 152.3201 272.9093 152.1146 273.0483 151.6967 273.0339 151.3082 272.902 150.9929 272.616 150.6922 271.8534 150.3478 271.2157 150.135 270.5483 150.1056 269.9032 150.2379 269.3093 150.5309 268.8182 150.9708 268.4955 151.4843 268.3782 152.3858 268.4518 153.3242 268.723 154.2335 269.1482 154.9958 269.7786 155.707 269.2949 156.1175" fill="#bababa"/><polygon points="276.8462 156.5428 274.2362 156.4109 272.1026 156.2274 269.9984 156.2131 267.8872 156.3962 267.8505 155.7584 269.9694 155.5751 272.132 155.5898 274.2803 155.7731 276.8388 155.9051 279.3683 155.707 280.2114 155.7584 280.16 156.3962 279.3683 156.3377 276.8462 156.5428" fill="#bababa"/><polyline points="277.8874 153.9917 278.8772 154.4974 279.713 155.238 279.7935 156.0224" fill="none"/><polygon points="275.6513 155.5019 274.8375 155.3185 274.9621 154.6955 275.695 154.8565 276.3698 154.7981 277.0149 154.5341 277.5426 154.0133 277.4254 153.9182 275.8931 152.5913 275.0058 151.9095 274.0454 151.4181 273.0777 151.1248 273.1439 150.5018 273.2096 150.5092 274.295 150.8315 275.3506 151.374 276.2963 152.0999 278.0778 153.6542 278.1881 154.1015 277.9973 154.5194 277.3008 155.1061 276.465 155.4284 275.6513 155.5019" fill="#bababa"/></g></svg>