<?xml version="1.0" encoding="UTF-8"?><svg id="Layer_2" xmlns="http://www.w3.org/2000/svg" width="350" height="350" viewBox="0 0 350 350"><rect x="-350" y="-350" width="1050" height="1050" fill="none" stroke="#000" stroke-miterlimit="10"/><g><rect x="-5.1777" y="11.7499" width="35.3553" height="1.4998" transform="translate(-5.1775 12.4999) rotate(-45)" fill="#c2c9bf"/><rect x="-10.3553" y="24.2499" width="70.7107" height="1.4998" transform="translate(-10.3552 24.9999) rotate(-45)" fill="#c2c9bf"/><rect x="-15.533" y="36.7499" width="106.066" height="1.4998" transform="translate(-15.5329 37.4999) rotate(-45)" fill="#c2c9bf"/><rect x="-20.7107" y="49.2499" width="141.4214" height="1.4998" transform="translate(-20.7105 49.9999) rotate(-45)" fill="#c2c9bf"/><rect x="-25.8883" y="61.7499" width="176.7767" height="1.4998" transform="translate(-25.8882 62.4999) rotate(-45)" fill="#c2c9bf"/><rect x="-31.066" y="74.2499" width="212.132" height="1.4998" transform="translate(-31.0659 74.9999) rotate(-45)" fill="#c2c9bf"/><rect x="-36.2437" y="86.7499" width="247.4874" height="1.4998" transform="translate(-36.2435 87.4999) rotate(-45)" fill="#c2c9bf"/><rect x="-41.4214" y="99.2499" width="282.8427" height="1.4998" transform="translate(-41.4212 99.9999) rotate(-45)" fill="#c2c9bf"/><rect x="-46.599" y="111.7499" width="318.1981" height="1.4998" transform="translate(-46.5989 112.4999) rotate(-45)" fill="#c2c9bf"/><rect x="-51.7767" y="124.2499" width="353.5534" height="1.4998" transform="translate(-51.7766 124.9999) rotate(-45)" fill="#c2c9bf"/><rect x="-56.9544" y="136.7499" width="388.9087" height="1.4998" transform="translate(-56.9542 137.4999) rotate(-45)" fill="#c2c9bf"/><rect x="-62.132" y="149.2499" width="424.2641" height="1.4998" transform="translate(-62.1319 149.9999) rotate(-45)" fill="#c2c9bf"/><rect x="-67.3097" y="161.7499" width="459.6194" height="1.4998" transform="translate(-67.3096 162.4999) rotate(-45)" fill="#c2c9bf"/><rect x="-72.4874" y="174.2499" width="494.9747" height="1.4998" transform="translate(-72.4872 174.9999) rotate(-45)" fill="#c2c9bf"/><rect x="319.8223" y="336.7499" width="35.3553" height="1.4998" transform="translate(-139.7969 337.4999) rotate(-45)" fill="#c2c9bf"/><rect x="289.6447" y="324.2499" width="70.7107" height="1.4998" transform="translate(-134.6193 324.9999) rotate(-45)" fill="#c2c9bf"/><rect x="259.467" y="311.7499" width="106.066" height="1.4998" transform="translate(-129.4416 312.4999) rotate(-45)" fill="#c2c9bf"/><rect x="229.2893" y="299.2499" width="141.4214" height="1.4998" transform="translate(-124.2639 299.9999) rotate(-45)" fill="#c2c9bf"/><rect x="199.1117" y="286.7499" width="176.7767" height="1.4998" transform="translate(-119.0863 287.4999) rotate(-45)" fill="#c2c9bf"/><rect x="168.934" y="274.2499" width="212.132" height="1.4998" transform="translate(-113.9086 274.9999) rotate(-45)" fill="#c2c9bf"/><rect x="138.7563" y="261.7499" width="247.4874" height="1.4998" transform="translate(-108.7309 262.4999) rotate(-45)" fill="#c2c9bf"/><rect x="108.5786" y="249.2499" width="282.8427" height="1.4998" transform="translate(-103.5533 249.9999) rotate(-45)" fill="#c2c9bf"/><rect x="78.401" y="236.7499" width="318.1981" height="1.4998" transform="translate(-98.3756 237.4999) rotate(-45)" fill="#c2c9bf"/><rect x="48.2233" y="224.2499" width="353.5534" height="1.4998" transform="translate(-93.1979 224.9999) rotate(-45)" fill="#c2c9bf"/><rect x="18.0456" y="211.7499" width="388.9087" height="1.4998" transform="translate(-88.0202 212.4999) rotate(-45)" fill="#c2c9bf"/><rect x="-12.132" y="199.2499" width="424.2641" height="1.4998" transform="translate(-82.8426 199.9999) rotate(-45)" fill="#c2c9bf"/><rect x="-42.3097" y="186.7499" width="459.6194" height="1.4998" transform="translate(-77.6649 187.4999) rotate(-45)" fill="#c2c9bf"/></g></svg>