<?xml version="1.0" encoding="UTF-8"?><svg id="Layer_2" xmlns="http://www.w3.org/2000/svg" width="123.4722mm" height="123.4722mm" viewBox="0 0 350 350"><rect x="-4.6777" y="12.4501" width="35.3553" height="1.4998" transform="translate(-5.5262 13.0586) rotate(-45)" fill="#8d8d8d"/><rect x="-9.8553" y="24.9501" width="70.7107" height="1.4998" transform="translate(-10.7039 25.5586) rotate(-45)" fill="#8d8d8d"/><rect x="-15.033" y="37.4501" width="106.066" height="1.4998" transform="translate(-15.8815 38.0586) rotate(-45)" fill="#8d8d8d"/><rect x="-20.2107" y="49.9501" width="141.4214" height="1.4998" transform="translate(-21.0592 50.5586) rotate(-45)" fill="#8d8d8d"/><rect x="-25.3883" y="62.4501" width="176.7767" height="1.4998" transform="translate(-26.2369 63.0586) rotate(-45)" fill="#8d8d8d"/><rect x="-30.566" y="74.9501" width="212.132" height="1.4998" transform="translate(-31.4145 75.5586) rotate(-45)" fill="#8d8d8d"/><rect x="-35.7437" y="87.4501" width="247.4874" height="1.4998" transform="translate(-36.5922 88.0586) rotate(-45)" fill="#8d8d8d"/><rect x="-40.9214" y="99.9501" width="282.8427" height="1.4998" transform="translate(-41.7699 100.5586) rotate(-45)" fill="#8d8d8d"/><rect x="-46.099" y="112.4501" width="318.1981" height="1.4998" transform="translate(-46.9476 113.0586) rotate(-45)" fill="#8d8d8d"/><rect x="-51.2767" y="124.9501" width="353.5534" height="1.4998" transform="translate(-52.1252 125.5586) rotate(-45)" fill="#8d8d8d"/><rect x="-56.4544" y="137.4501" width="388.9087" height="1.4998" transform="translate(-57.3029 138.0586) rotate(-45)" fill="#8d8d8d"/><rect x="-61.632" y="149.9501" width="424.2641" height="1.4998" transform="translate(-62.4806 150.5586) rotate(-45)" fill="#8d8d8d"/><rect x="-66.8097" y="162.4501" width="459.6194" height="1.4998" transform="translate(-67.6582 163.0586) rotate(-45)" fill="#8d8d8d"/><rect x="-71.9874" y="174.9501" width="494.9747" height="1.4998" transform="translate(-72.8359 175.5586) rotate(-45)" fill="#8d8d8d"/><rect x="320.3223" y="337.4501" width="35.3553" height="1.4998" transform="translate(-140.1456 338.0586) rotate(-45)" fill="#8d8d8d"/><rect x="290.1447" y="324.9501" width="70.7107" height="1.4998" transform="translate(-134.9679 325.5586) rotate(-45)" fill="#8d8d8d"/><rect x="259.967" y="312.4501" width="106.066" height="1.4998" transform="translate(-129.7903 313.0586) rotate(-45)" fill="#8d8d8d"/><rect x="229.7893" y="299.9501" width="141.4214" height="1.4998" transform="translate(-124.6126 300.5586) rotate(-45)" fill="#8d8d8d"/><rect x="199.6117" y="287.4501" width="176.7767" height="1.4998" transform="translate(-119.4349 288.0586) rotate(-45)" fill="#8d8d8d"/><rect x="169.434" y="274.9501" width="212.132" height="1.4998" transform="translate(-114.2573 275.5586) rotate(-45)" fill="#8d8d8d"/><rect x="139.2563" y="262.4501" width="247.4874" height="1.4998" transform="translate(-109.0796 263.0586) rotate(-45)" fill="#8d8d8d"/><rect x="109.0786" y="249.9501" width="282.8427" height="1.4998" transform="translate(-103.9019 250.5586) rotate(-45)" fill="#8d8d8d"/><rect x="78.901" y="237.4501" width="318.1981" height="1.4998" transform="translate(-98.7242 238.0586) rotate(-45)" fill="#8d8d8d"/><rect x="48.7233" y="224.9501" width="353.5534" height="1.4998" transform="translate(-93.5466 225.5586) rotate(-45)" fill="#8d8d8d"/><rect x="18.5456" y="212.4501" width="388.9087" height="1.4998" transform="translate(-88.3689 213.0586) rotate(-45)" fill="#8d8d8d"/><rect x="-11.632" y="199.9501" width="424.2641" height="1.4998" transform="translate(-83.1912 200.5586) rotate(-45)" fill="#8d8d8d"/><rect x="-41.8097" y="187.4501" width="459.6194" height="1.4998" transform="translate(-78.0136 188.0586) rotate(-45)" fill="#8d8d8d"/></svg>