<?xml version="1.0" encoding="UTF-8"?><svg id="Layer_1" xmlns="http://www.w3.org/2000/svg" width="350" height="350" viewBox="0 0 350 350"><path d="M38.574,17.4999c5.6266,1.3286,8.4529,2.9957,8.4529,5.0274,.5862,.1302,1.1984,1.6282,1.8623,4.4936l-.7945,4.767c3.5298,0,6.3819,2.5658,8.427,7.6716l.2734,2.1231c-.6514,4.767-1.5369,7.1246-2.631,7.1246-2.149,2.3054-4.4415,3.4646-6.8772,3.4646h-.7945c-2.7741,0-5.0925-.8204-6.8638-2.4227h-.2604v9.2606l-.7945,.8204h-.2734l-.7945-.7945v-9.5081c-1.9015,1.7584-4.2721,2.6439-7.1375,2.6439h-.5341c-5.5615,0-8.9089-3.4906-10.0419-10.3285,0-3.4254,1.7714-6.3952,5.2619-8.9869,1.68-.7164,2.9305-1.0678,3.6992-1.0678l-.7815-2.3835v-1.3156c0-4.4152,2.1231-7.5933,6.3301-9.4948l4.2721-1.0941v-.0003Zm-8.7395,10.5889v1.3415l1.0678,3.4384c-.4039,.3255-1.9016,.7815-4.5066,1.3023-3.178,2.1102-4.7541,4.676-4.7541,7.6717,0,3.3604,1.7584,5.9913,5.2882,7.9058,.7035,.3906,1.667,.56,2.9047,.56h.5341c2.9827,0,5.5094-1.3286,7.6716-3.9725h.8204c1.9667,2.6439,4.5195,3.9725,7.6454,3.9725h.7815c2.5529,0,4.8451-1.4717,6.8772-4.5066l.7945-4.2329c0-3.5819-2.0839-6.2388-6.3038-7.9058-1.8105-.1565-2.6831-.5212-2.6831-1.0941,.573-1.8886,.9247-3.8161,1.0549-5.8089-.5341-2.0188-1.3937-3.6992-2.6439-5.0274-2.0188-1.589-4.0639-2.3705-6.0826-2.3705-3.5686,0-6.2388,1.9408-7.9321,5.8089-.3518,.7035-.5341,1.68-.5341,2.9176Z" fill="#696"/><path d="M127.3886,17.4999c5.6396,1.3286,8.4399,2.9827,8.4399,5.0274,.6122,.1302,1.2243,1.6282,1.8886,4.4936l-.8204,4.767c3.5556,0,6.3819,2.5658,8.4399,7.6716l.2733,2.1231c-.6643,4.767-1.5239,7.1375-2.618,7.1375-2.1619,2.3313-4.4804,3.4906-6.8901,3.4906h-.8204c-2.7741,0-5.0666-.8204-6.8509-2.4227h-.2604v9.2606l-.7816,.7815h-.2604l-.7945-.8204v-9.4948c-1.9016,1.7713-4.2721,2.6568-7.1505,2.6568h-.5211c-5.5615,0-8.9348-3.4906-10.0552-10.3285,0-3.4254,1.7973-6.3952,5.2882-8.9869,1.68-.7164,2.9047-1.0678,3.6992-1.0678l-.7945-2.3835v-1.3156c0-4.4152,2.1231-7.5933,6.356-9.4948l4.2329-1.0941v-.0007Zm-8.7265,10.5889v1.3415l1.0679,3.4384c-.4039,.3255-1.9016,.7815-4.5066,1.3023-3.178,2.1102-4.754,4.676-4.754,7.6717,0,3.3604,1.7584,5.9913,5.2619,7.9058,.7294,.3906,1.6933,.56,2.9305,.56h.5211c2.9564,0,5.5094-1.3286,7.6716-3.9725h.8075c1.9796,2.6439,4.5588,3.9725,7.6583,3.9725h.7945c2.5659,0,4.8583-1.4717,6.8901-4.5066l.7945-4.2329c0-3.5819-2.1102-6.2388-6.3301-7.9058-1.7843-.1565-2.6572-.5079-2.6572-1.0811,.5862-1.9016,.9118-3.8293,1.0419-5.8219-.5341-2.0188-1.3675-3.6992-2.618-5.0274-2.0318-1.589-4.0768-2.4094-6.1086-2.4094-3.5427,0-6.2258,1.9407-7.9058,5.809-.3777,.7424-.56,1.7192-.56,2.9564h.0004Z" fill="#696"/><path d="M219.6941,17.4999c5.6396,1.3286,8.4529,2.9827,8.4529,5.0274,.5862,.1302,1.1984,1.6282,1.8624,4.4936l-.8204,4.767c3.5556,0,6.3819,2.5658,8.4399,7.6716l.2734,2.1231c-.6902,4.767-1.5498,7.1375-2.6439,7.1375-2.1619,2.3313-4.4804,3.4906-6.8901,3.4906h-.8075c-2.7874,0-5.0925-.8204-6.8639-2.4227h-.2733v9.2606l-.7294,.7815h-.2733l-.7945-.8204v-9.4948c-1.9016,1.7713-4.2721,2.6568-7.1505,2.6568h-.5211c-5.5615,0-8.9348-3.4906-10.0552-10.3285,0-3.4254,1.8105-6.3952,5.2881-8.9869,1.68-.7164,2.9176-1.0678,3.7121-1.0678l-.8204-2.3835v-1.3156c0-4.4152,2.1231-7.5933,6.3431-9.4948l4.2721-1.0941-.0003-.0007Zm-8.7395,10.5889v1.3415l1.0549,3.4384c-.3906,.3518-1.9016,.8204-4.5325,1.3545-3.1388,2.0839-4.7278,4.6368-4.7278,7.6717,0,3.3604,1.7584,5.9913,5.2619,7.9058,.7424,.3518,1.7062,.5341,2.9435,.5341h.5211c2.9564,0,5.5223-1.3286,7.6846-3.9725h.7945c1.9796,2.6439,4.5717,3.9725,7.6975,3.9725h.7945c2.5658,0,4.858-1.4717,6.8901-4.5066l.7945-4.2329c0-3.5819-2.1101-6.2388-6.3039-7.9058-1.8105-.1565-2.6702-.4949-2.6702-1.0678,.5862-1.9016,.9118-3.8293,1.0682-5.8219-.5341-2.0188-1.3937-3.6992-2.6439-5.0274-2.0188-1.589-4.0768-2.4094-6.1215-2.4094-3.5297,0-6.2129,1.9407-7.9058,5.809-.4168,.7035-.5992,1.6804-.5992,2.9176l-.0007-.0007Z" fill="#696"/><path d="M311.9996,17.4999c5.6395,1.3286,8.4529,2.9827,8.4529,5.0274,.5863,.1302,1.1984,1.6282,1.8623,4.4936l-.7945,4.767c3.5297,0,6.356,2.5658,8.414,7.6716l.2734,2.1231c-.6643,4.767-1.5369,7.1375-2.631,7.1375-2.1619,2.3313-4.4544,3.4906-6.8901,3.4906h-.7945c-2.8004,0-5.0925-.8204-6.8638-2.4227h-.2734v9.2606l-.7815,.8074h-.2734l-.8074-.8204v-9.5081c-1.9015,1.7713-4.2721,2.6568-7.1505,2.6568h-.5341c-5.5485,0-8.9348-3.4906-10.0419-10.3285,0-3.4254,1.7972-6.3952,5.2882-8.9869,1.68-.7164,2.9047-1.0678,3.6992-1.0678l-.7553-2.3965v-1.3156c0-4.4152,2.136-7.5933,6.356-9.4948l4.2458-1.0941-.0004-.0003Zm-8.7395,10.5889v1.3415l1.0682,3.4384c-.4039,.3255-1.9145,.7815-4.5066,1.3023-3.178,2.0839-4.754,4.6368-4.754,7.6717,0,3.3604,1.7584,5.9913,5.2882,7.9058,.7035,.3518,1.68,.5341,2.9047,.5341h.5341c2.9565,0,5.5093-1.3286,7.6717-3.9725h.8204c1.9537,2.6439,4.5325,3.9725,7.6584,3.9725h.7945c2.5659,0,4.858-1.4717,6.8901-4.5066l.7945-4.2329c0-3.5819-2.1101-6.2388-6.3039-7.9058-1.8106-.1565-2.6702-.4949-2.6702-1.0678,.5863-1.9016,.9117-3.8293,1.0682-5.8219-.5341-2.0188-1.3937-3.6992-2.6439-5.0274-2.0188-1.589-4.0768-2.4094-6.0826-2.4094-3.5556,0-6.2388,1.9407-7.932,5.809-.4298,.7553-.5992,1.7321-.5992,2.9698l-.0003-.0007Z" fill="#696"/><path d="M38.574,109.3102c5.6266,1.3286,8.4529,2.9956,8.4529,5.0274,.5862,.1302,1.1984,1.6282,1.8623,4.4936l-.7945,4.7411c3.5298,0,6.3819,2.5659,8.427,7.6716l.2734,2.1231c-.6643,4.767-1.5498,7.1634-2.6439,7.1634-2.1619,2.3054-4.4545,3.4646-6.8772,3.4646h-.7815c-2.7741,0-5.0925-.8204-6.8638-2.4227h-.2604v9.2866l-.8074,.7945h-.2604l-.8204-.7945v-9.521c-1.8757,1.7713-4.2591,2.6569-7.1246,2.6569h-.5212c-5.5615,0-8.9089-3.4646-10.0419-10.3285,0-3.3995,1.7714-6.3952,5.2619-8.9869,1.68-.7165,2.9305-1.0678,3.6992-1.0678l-.7815-2.3965v-1.3157c0-4.4415,2.1231-7.5933,6.3301-9.5211l4.2721-1.0678v-.0004Zm-8.7395,10.5889v1.3157l1.0678,3.4513c-.4039,.3517-1.9016,.8204-4.5066,1.3545-3.178,2.1102-4.7541,4.6368-4.7541,7.6716,0,3.3603,1.7584,5.9913,5.2882,7.9058,.7035,.3517,1.667,.5341,2.9047,.5341h.5341c2.9827,0,5.5094-1.3286,7.6716-3.9725h.8204c1.9537,2.6439,4.5325,3.9725,7.6583,3.9725h.7815c2.5529,0,4.8451-1.4718,6.8772-4.5066l.7945-4.2329c0-3.5819-2.0839-6.2388-6.3038-7.9058-1.8105-.1302-2.6568-.4949-2.6568-1.0678,.5341-1.9278,.8859-3.8553,1.0161-5.8482-.5341-2.0317-1.3937-3.6992-2.6439-5.0274-2.0188-1.589-4.0639-2.3835-6.0826-2.3835-3.5686,0-6.2388,1.9408-7.9321,5.809-.3518,.7165-.5341,1.6933-.5341,2.9306l-.0004-.0003Z" fill="#696"/><path d="M127.3886,109.3102c5.6396,1.3286,8.4399,2.9956,8.4399,5.0274,.6122,.1302,1.2243,1.6282,1.8886,4.5195l-.8204,4.7411c3.5556,0,6.3819,2.5659,8.4399,7.6716l.2733,2.1231c-.6643,4.767-1.5239,7.1634-2.618,7.1634-2.1619,2.3054-4.4804,3.4646-6.8901,3.4646h-.8204c-2.7741,0-5.0666-.8204-6.8509-2.4227h-.2604v9.2866l-.8075,.7945h-.2345l-.7945-.7945v-9.521c-1.9016,1.7713-4.2851,2.6572-7.1505,2.6572h-.5211c-5.5615,0-8.9348-3.4646-10.0552-10.3285,0-3.3995,1.7973-6.3952,5.2882-8.9869,1.68-.7165,2.9047-1.0678,3.6992-1.0678l-.7945-2.4227v-1.3157c0-4.4415,2.1231-7.5933,6.356-9.5211l4.2329-1.0678v-.0004Zm-8.7265,10.5889v1.3157l1.0679,3.4513c-.4039,.3517-1.9016,.8204-4.5325,1.3545-3.1521,2.1102-4.7278,4.6368-4.7278,7.6716,0,3.3603,1.7584,5.9913,5.2619,7.9058,.7294,.3517,1.667,.5341,2.9305,.5341h.5208c2.9564,0,5.5094-1.3286,7.6716-3.9725h.8075c1.9796,2.6439,4.5588,3.9725,7.6583,3.9725h.7945c2.5659,0,4.8583-1.4718,6.8901-4.5066l.7945-4.2329c0-3.5819-2.1102-6.2388-6.3301-7.9058-1.7843-.1302-2.6439-.4949-2.6439-1.0678,.5862-1.9016,.9118-3.8294,1.0419-5.8219-.5341-2.0188-1.3675-3.6992-2.618-5.0274-2.0318-1.589-4.0768-2.4094-6.1086-2.4094-3.5427,0-6.2258,1.9408-7.9058,5.809-.3906,.7165-.573,1.6933-.573,2.9306v-.0007Z" fill="#696"/><path d="M219.6941,109.3102c5.6529,1.3286,8.4661,2.9956,8.4661,5.0274,.5862,.1302,1.1984,1.6282,1.8624,4.5195l-.7945,4.7411c3.5297,0,6.356,2.5659,8.414,7.6716l.2734,2.1231c-.6902,4.767-1.5498,7.1634-2.6439,7.1634-2.1619,2.3054-4.4804,3.4646-6.8901,3.4646h-.7945c-2.8003,0-5.1188-.8204-6.8901-2.4227h-.2733v9.2866l-.7945,.7945h-.2733l-.7945-.7945v-9.521c-1.9016,1.7713-4.2721,2.6572-7.1505,2.6572h-.5078c-5.5874,0-8.9348-3.4646-10.0681-10.3285,0-3.3995,1.8105-6.3952,5.2881-8.9869,1.68-.7165,2.9305-1.0678,3.7121-1.0678l-.8204-2.3835v-1.3545c0-4.4415,2.1102-7.5933,6.3301-9.5211l4.3502-1.0678-.0007-.0007Zm-8.7266,10.5889v1.3157l1.0419,3.4513c-.3776,.3517-1.9016,.8204-4.5325,1.3545-3.1259,2.1102-4.7278,4.6368-4.7278,7.6716,0,3.3603,1.7584,5.9913,5.2619,7.9058,.7424,.3517,1.7062,.5341,2.9564,.5341h.5078c2.9564,0,5.5223-1.3286,7.6846-3.9725h.7945c1.9796,2.6439,4.5846,3.9725,7.7105,3.9725h.7945c2.5658,0,4.858-1.4718,6.8901-4.5066l.7945-4.2329c0-3.5819-2.1101-6.2388-6.3039-7.9058-1.8105-.1302-2.6702-.4949-2.6702-1.0678,.5862-1.9016,.9118-3.8294,1.0682-5.8219-.5341-2.0188-1.3937-3.6992-2.6439-5.0274-2.0318-1.589-4.0768-2.4094-6.1345-2.4094-3.5297,0-6.2129,1.9408-7.9058,5.809-.4039,.7165-.5862,1.6933-.5862,2.9306l-.0003-.0007Z" fill="#696"/><path d="M312.0125,109.3102c5.6266,1.3286,8.4399,2.9956,8.4399,5.0274,.5863,.1302,1.1984,1.6282,1.8623,4.5195l-.7945,4.7411c3.5297,0,6.356,2.5659,8.414,7.6716l.2734,2.1231c-.6902,4.767-1.5498,7.1634-2.6439,7.1634-2.1619,2.3054-4.4544,3.4646-6.8901,3.4646h-.7815c-2.8004,0-5.0925-.8204-6.8638-2.4227h-.2734v9.2866l-.7945,.7945h-.2734l-.8074-.7945v-9.521c-1.9015,1.7713-4.2721,2.6572-7.1505,2.6572h-.5341c-5.5485,0-8.9348-3.4646-10.0419-10.3285,0-3.3995,1.8106-6.3952,5.2882-8.9869,1.68-.7165,2.9047-1.0678,3.7121-1.0678l-.7553-2.4227v-1.3157c0-4.4415,2.136-7.5933,6.356-9.5211l4.2592-1.0678-.0007-.0004Zm-8.7525,10.5889v1.3157l1.0682,3.4513c-.4039,.3517-1.9015,.8204-4.5066,1.3545-3.178,2.1102-4.754,4.6368-4.754,7.6716,0,3.3603,1.7584,5.9913,5.2882,7.9058,.7164,.3517,1.68,.5341,2.9047,.5341h.5341c2.9565,0,5.5223-1.3286,7.6846-3.9725h.8204c1.9537,2.6439,4.5325,3.9725,7.6584,3.9725h.7945c2.5659,0,4.858-1.4718,6.8901-4.5066l.7945-4.2329c0-3.5819-2.1101-6.2388-6.3039-7.9058-1.8106-.1302-2.6702-.4949-2.6702-1.0678,.5863-1.9016,.9117-3.8294,1.0682-5.8219-.5341-2.0188-1.3937-3.6992-2.6439-5.0274-2.0058-1.589-4.0768-2.4094-6.0826-2.4094-3.5556,0-6.2388,1.9408-7.932,5.809-.4428,.7165-.6121,1.6933-.6121,2.9306l-.0004-.0007Z" fill="#696"/><path d="M38.574,198.3204c5.6658,1.3286,8.4529,2.9956,8.4529,5.0404,.5862,.1565,1.1984,1.6282,1.8623,4.5196l-.7945,4.7278c3.5298,0,6.3819,2.5529,8.427,7.6583l.2734,2.1231c-.6514,4.767-1.5369,7.1505-2.631,7.1505-2.1619,2.3054-4.4545,3.4646-6.8772,3.4646h-.7945c-2.7741,0-5.0925-.8204-6.8638-2.4227h-.2604v9.2865l-.8204,.7815h-.2474l-.8204-.7945v-9.521c-1.8757,1.7714-4.2591,2.6572-7.1246,2.6572h-.5212c-5.5615,0-8.9089-3.4646-10.0419-10.3285,0-3.3995,1.7714-6.3952,5.2619-8.9869,1.6933-.7165,2.9305-1.0682,3.7251-1.0682l-.7945-2.3965v-1.3545c0-4.4023,2.1231-7.5544,6.3301-9.4948l4.2591-1.042Zm-8.7395,10.576v1.3545l1.0678,3.4513c-.4039,.3388-1.9016,.8204-4.5066,1.3545-3.178,2.1102-4.7541,4.6368-4.7541,7.6716,0,3.3603,1.7584,5.9913,5.2882,7.9191,.7035,.3388,1.667,.5341,2.9047,.5341h.5341c2.9827,0,5.5094-1.3416,7.6716-3.9854h.8204c1.9537,2.6439,4.5325,3.9854,7.6583,3.9854h.7815c2.5529,0,4.8451-1.4847,6.8772-4.5196l.7945-4.2329c0-3.5819-2.0839-6.2388-6.3038-7.8929-1.8105-.1432-2.6568-.4949-2.6568-1.0682,.573-1.9016,.9247-3.8423,1.0549-5.8219-.5341-2.0188-1.3937-3.6992-2.6439-5.0274-2.0188-1.589-4.0639-2.4094-6.0826-2.4094-3.5686,0-6.2388,1.9278-7.9321,5.8089-.3906,.6773-.573,1.6541-.573,2.8784l-.0004-.0003Z" fill="#696"/><path d="M127.3886,198.3204c5.6396,1.3286,8.4399,2.9956,8.4399,5.0404,.6122,.1565,1.2243,1.6282,1.8886,4.5196l-.7945,4.7278c3.5556,0,6.3819,2.5529,8.4399,7.6583l.2733,2.1231c-.6643,4.767-1.5239,7.1634-2.618,7.1634-2.1619,2.3054-4.4804,3.4646-6.8901,3.4646h-.8204c-2.7741,0-5.0666-.8204-6.8509-2.4227h-.2867v9.2865l-.8075,.7945h-.2345l-.7945-.7945v-9.521c-1.9016,1.7714-4.2851,2.6572-7.1505,2.6572h-.5211c-5.5615,0-8.9348-3.4646-10.0552-10.3285,0-3.3995,1.7973-6.3952,5.2882-8.9869,1.68-.7424,2.9047-1.0941,3.6992-1.0941l-.8204-2.3965v-1.3545c0-4.4023,2.1231-7.5544,6.356-9.4948l4.2591-1.0419h0Zm-8.7265,10.5759v1.3545l1.0679,3.4513c-.4039,.3388-1.9016,.8204-4.5325,1.3545-3.1521,2.1102-4.7278,4.6368-4.7278,7.6716,0,3.3603,1.7584,5.9913,5.2619,7.9191,.7294,.3388,1.667,.5341,2.9305,.5341h.5208c2.9564,0,5.5094-1.3416,7.6716-3.9854h.8075c1.9796,2.6439,4.5588,3.9854,7.6583,3.9854h.7945c2.5659,0,4.8583-1.4847,6.8901-4.5196l.7945-4.2329c0-3.5819-2.1102-6.2388-6.3301-7.8929-1.7843-.1432-2.6439-.4949-2.6439-1.0682,.5862-1.9016,.9118-3.8423,1.0419-5.8219-.5341-2.0188-1.3675-3.6992-2.618-5.0274-2.0318-1.589-4.0768-2.4094-6.1086-2.4094-3.5427,0-6.2258,1.9278-7.9058,5.8089-.3906,.6773-.573,1.6541-.573,2.8784v-.0003Z" fill="#696"/><path d="M219.6941,198.3204c5.6529,1.3286,8.4661,2.9956,8.4661,5.0404,.5862,.1565,1.1984,1.6282,1.8624,4.5196l-.7945,4.7278c3.5297,0,6.356,2.5529,8.414,7.6583l.2734,2.1231c-.6902,4.767-1.5498,7.1634-2.6439,7.1634-2.1619,2.3054-4.4804,3.4646-6.8901,3.4646h-.7945c-2.8003,0-5.1188-.8204-6.8901-2.4227h-.2733v9.2865l-.7945,.7945h-.2733l-.7945-.7945v-9.521c-1.9016,1.7714-4.2721,2.6572-7.1505,2.6572h-.5078c-5.5874,0-8.9348-3.4646-10.0681-10.3285,0-3.3995,1.8105-6.3952,5.2881-8.9869,1.68-.7165,2.9305-1.0549,3.7121-1.0549l-.8204-2.3965v-1.3545c0-4.4023,2.1102-7.5544,6.3301-9.4948l4.3502-1.0811h-.0007Zm-8.7266,10.5759v1.3545l1.0419,3.4513c-.3776,.3388-1.9016,.8204-4.5325,1.3545-3.1259,2.1102-4.7278,4.6368-4.7278,7.6716,0,3.3603,1.7584,5.9913,5.2619,7.9191,.7424,.3388,1.7062,.5341,2.9564,.5341h.5078c2.9564,0,5.5223-1.3416,7.6846-3.9854h.7945c1.9796,2.6439,4.5846,3.9854,7.7105,3.9854h.7945c2.5658,0,4.858-1.4847,6.8901-4.5196l.7945-4.2329c0-3.5819-2.1101-6.2388-6.3039-7.8929-1.8105-.1432-2.6702-.4949-2.6702-1.0682,.5862-1.9016,.9118-3.8423,1.0682-5.8219-.5341-2.0188-1.3937-3.6992-2.6439-5.0274-2.0318-1.589-4.0768-2.4094-6.1345-2.4094-3.5297,0-6.2129,1.9278-7.9058,5.8089-.4039,.6773-.5862,1.6541-.5862,2.8784l-.0003-.0003Z" fill="#696"/><path d="M312.0125,198.3204c5.6266,1.3286,8.4399,2.9956,8.4399,5.0404,.5863,.1565,1.1984,1.6282,1.8623,4.5196l-.7945,4.7278c3.5297,0,6.356,2.5529,8.414,7.6583l.2734,2.1231c-.6643,4.767-1.5369,7.1505-2.631,7.1505-2.1619,2.3054-4.4544,3.4646-6.8901,3.4646h-.7945c-2.8004,0-5.0925-.8204-6.8638-2.4227h-.2734v9.2865l-.7945,.7945h-.2734l-.8074-.7945v-9.521c-1.9015,1.7714-4.2721,2.6572-7.1505,2.6572h-.5341c-5.5485,0-8.9348-3.4646-10.0419-10.3285,0-3.3995,1.8106-6.3952,5.2882-8.9869,1.68-.7165,2.9047-1.0549,3.7121-1.0549l-.8204-2.3965v-1.3545c0-4.4023,2.136-7.5544,6.356-9.4948l4.3242-1.0678-.0007-.0004Zm-8.7525,10.576v1.3545l1.0682,3.4513c-.4039,.3388-1.9015,.8204-4.5066,1.3545-3.178,2.1102-4.754,4.6368-4.754,7.6716,0,3.3603,1.7584,5.9913,5.2882,7.9191,.7164,.3388,1.68,.5341,2.9047,.5341h.5341c2.9565,0,5.5223-1.3416,7.6846-3.9854h.8204c1.9537,2.6439,4.5325,3.9854,7.6584,3.9854h.7945c2.5659,0,4.858-1.4847,6.8901-4.5196l.7945-4.2329c0-3.5819-2.1101-6.2388-6.3039-7.8929-1.8106-.1432-2.6702-.4949-2.6702-1.0682,.5863-1.9016,.9117-3.8423,1.0682-5.8219-.5341-2.0188-1.3937-3.6992-2.6439-5.0274-2.0058-1.589-4.0768-2.4094-6.0826-2.4094-3.5556,0-6.2388,1.9278-7.932,5.8089-.4428,.6773-.6121,1.6541-.6121,2.8784l-.0004-.0003Z" fill="#696"/><path d="M38.574,290.131c5.6658,1.3545,8.4529,2.9957,8.4529,5.0404,.5862,.1565,1.1984,1.6282,1.8623,4.5195l-.7945,4.7411c3.5298,0,6.3819,2.5267,8.427,7.6584l.2996,2.1101c-.6643,4.7411-1.5498,7.1375-2.6439,7.1375-2.1619,2.3054-4.4545,3.4646-6.8772,3.4646h-.8074c-2.7741,0-5.0925-.8074-6.8638-2.3965h-.2604v9.2606l-.8074,.7945h-.2604l-.8204-.7945v-9.521c-1.8757,1.7714-4.2591,2.6572-7.1246,2.6572h-.5212c-5.5615,0-8.9089-3.4646-10.0419-10.3285,0-3.3995,1.7714-6.3952,5.2619-8.987,1.68-.7164,2.9305-1.029,3.6992-1.029l-.7945-2.4227v-1.3286c0-4.4023,2.1231-7.5803,6.3301-9.5081l4.285-1.0682h-.0004Zm-8.7395,10.5759v1.3286l1.0678,3.4513c-.4039,.3388-1.9016,.8204-4.5066,1.3545-3.178,2.1101-4.7541,4.6627-4.7541,7.6717,0,3.3603,1.7584,5.9913,5.2882,7.932,.7035,.3255,1.667,.5341,2.9047,.5341h.5341c2.9827,0,5.5094-1.3545,7.6716-3.9984h.8204c1.9537,2.6439,4.5325,3.9984,7.6583,3.9984h.7815c2.5529,0,4.8451-1.498,6.8772-4.5325l.7815-4.2329c0-3.6078-2.0839-6.265-6.3038-7.9191-1.8105-.1565-2.6702-.5079-2.6702-1.0811,.573-1.9015,.9247-3.8423,1.0549-5.8219-.5341-1.9929-1.3937-3.6992-2.6439-5.0274-2.0188-1.589-4.0639-2.3835-6.0826-2.3835-3.5686,0-6.2388,1.9015-7.9321,5.783-.3647,.7423-.5471,1.7063-.5471,2.9435v-.0004Z" fill="#696"/><path d="M127.3886,290.131c5.6396,1.3545,8.4399,2.9957,8.4399,5.0404,.6122,.1565,1.2243,1.6282,1.8886,4.5195l-.8204,4.767c3.5556,0,6.3819,2.5267,8.4399,7.6584l.2733,2.1231c-.6643,4.7411-1.5239,7.1375-2.618,7.1375-2.1619,2.3054-4.4804,3.4646-6.8901,3.4646h-.8204c-2.7741,0-5.0666-.8074-6.8509-2.3965h-.2604v9.2606l-.8075,.7945h-.2345l-.7945-.7945v-9.5599c-1.9016,1.7714-4.2851,2.6572-7.1505,2.6572h-.5211c-5.5615,0-8.9348-3.4646-10.0552-10.3285,0-3.3995,1.7973-6.3952,5.2882-8.987,1.68-.7164,2.9047-1.029,3.6992-1.029l-.8204-2.4227v-1.3286c0-4.4023,2.1231-7.5803,6.356-9.5081l4.2591-1.0682h-.0003Zm-8.7265,10.5759v1.3286l1.0679,3.4513c-.4039,.3388-1.9016,.8204-4.5325,1.3545-3.1521,2.1101-4.7278,4.6627-4.7278,7.6717,0,3.3603,1.7584,5.9913,5.2619,7.932,.7294,.3255,1.667,.5341,2.9305,.5341h.5208c2.9564,0,5.5094-1.3545,7.6716-3.9984h.8075c1.9796,2.6439,4.5588,3.9984,7.6583,3.9984h.7945c2.5659,0,4.8583-1.498,6.8901-4.5325l.7945-4.2458c0-3.6078-2.1102-6.265-6.3301-7.9191-1.7843-.1432-2.6439-.4949-2.6439-1.0682,.5862-1.9015,.9118-3.8423,1.0419-5.8219-.5341-1.9929-1.3675-3.6992-2.618-5.0274-2.0318-1.589-4.0768-2.3835-6.1086-2.3835-3.5427,0-6.2258,1.9015-7.9058,5.783-.3906,.7423-.573,1.7063-.573,2.9435v-.0004Z" fill="#696"/><path d="M219.6941,290.131c5.6529,1.3545,8.4661,2.9957,8.4661,5.0404,.5862,.1565,1.1984,1.6282,1.8624,4.5195l-.7945,4.767c3.5297,0,6.356,2.5267,8.414,7.6584l.2734,2.1231c-.6902,4.7411-1.5498,7.1375-2.6439,7.1375-2.1619,2.3054-4.4804,3.4646-6.8901,3.4646h-.7945c-2.8003,0-5.1188-.8074-6.8901-2.3965h-.2733v9.2606l-.7945,.7945h-.2733l-.7945-.7945v-9.5599c-1.9016,1.7714-4.2721,2.6572-7.1505,2.6572h-.5078c-5.5874,0-8.9348-3.4646-10.0681-10.3285,0-3.3995,1.8105-6.3952,5.2881-8.987,1.68-.7164,2.9305-1.029,3.7121-1.029l-.8204-2.4227v-1.3286c0-4.4023,2.1102-7.5803,6.3301-9.5081l4.3502-1.0682h-.0007Zm-8.7266,10.5759v1.3286l1.0419,3.4513c-.3776,.3388-1.9016,.8204-4.5325,1.3545-3.1259,2.1101-4.7278,4.6627-4.7278,7.6717,0,3.3603,1.7584,5.9913,5.2619,7.932,.7424,.3255,1.7062,.5341,2.9564,.5341h.5078c2.9564,0,5.5223-1.3545,7.6846-3.9984h.7945c1.9796,2.6439,4.5846,3.9984,7.7105,3.9984h.7945c2.5658,0,4.858-1.498,6.8901-4.5325l.7945-4.207c0-3.6078-2.1101-6.265-6.3039-7.9191-1.8105-.1432-2.6702-.4949-2.6702-1.0682,.5862-1.9015,.9118-3.8423,1.0682-5.8219-.5341-1.9929-1.3937-3.6992-2.6439-5.0274-2.0318-1.589-4.0768-2.3835-6.1345-2.3835-3.5297,0-6.2129,1.9015-7.9058,5.783-.4039,.7035-.5862,1.6671-.5862,2.9047l-.0003-.0004Z" fill="#696"/><path d="M312.0125,290.131c5.6266,1.3545,8.4399,2.9957,8.4399,5.0404,.5863,.1565,1.1984,1.6282,1.8623,4.5195l-.7945,4.767c3.5297,0,6.356,2.5267,8.414,7.6584l.2734,2.1231c-.6643,4.7411-1.5369,7.1246-2.631,7.1246-2.1619,2.3054-4.4544,3.4646-6.8901,3.4646h-.7945c-2.8004,0-5.0925-.8074-6.8638-2.3965h-.2734v9.2606l-.7945,.7945h-.2734l-.8074-.7945v-9.5469c-1.9015,1.7714-4.2721,2.6572-7.1505,2.6572h-.5341c-5.5485,0-8.9348-3.4646-10.0419-10.3285,0-3.3995,1.8106-6.3952,5.2882-8.987,1.68-.7164,2.9047-1.029,3.7121-1.029l-.8204-2.4227v-1.3286c0-4.4023,2.136-7.5803,6.356-9.5081l4.3242-1.0682h-.0007Zm-8.7525,10.5759v1.3286l1.0682,3.4513c-.4039,.3388-1.9015,.8204-4.5066,1.3545-3.178,2.1101-4.754,4.6627-4.754,7.6717,0,3.3603,1.7584,5.9913,5.2882,7.932,.7164,.3255,1.68,.5341,2.9047,.5341h.5341c2.9565,0,5.5223-1.3545,7.6846-3.9984h.8204c1.9537,2.6439,4.5325,3.9984,7.6584,3.9984h.7945c2.5659,0,4.858-1.498,6.8901-4.5325l.7945-4.207c0-3.6078-2.1101-6.265-6.3039-7.9191-1.8106-.1432-2.6702-.4949-2.6702-1.0682,.5863-1.9015,.9117-3.8423,1.0682-5.8219-.5341-1.9929-1.3937-3.6992-2.6439-5.0274-2.0058-1.589-4.0768-2.3835-6.0826-2.3835-3.5556,0-6.2388,1.9015-7.932,5.783-.4428,.7035-.6121,1.6671-.6121,2.9047l-.0004-.0004Z" fill="#696"/></svg>