<?xml version="1.0" encoding="UTF-8"?><svg id="Layer_2" xmlns="http://www.w3.org/2000/svg" width="350" height="350" viewBox="0 0 350 350"><g id="ConiferousTrees"><g id="roughGrassAndConiferousTreesFillSymbol"><g id="coniferousTreesFillSymbol"><g id="coniferousTreeFillSymbol"><g id="coniferousTreeGeometry"><rect x="180.5611" y="17.7646" width=".5905" height="20.3441" fill="#696"/><path d="M172.1125,34.3291l-.1424-.5701c3.7594-.9569,6.9013-3.4947,8.6247-6.9692l.2646-.5292,.2646,.5292c1.7238,3.4745,4.8653,6.0123,8.6247,6.9692l-.1424,.5701c-3.739-.9499-6.8943-3.3996-8.7402-6.7722-1.8592,3.3726-5.0148,5.8222-8.7538,6.7722h.0003Z" fill="#696"/><path d="M186.8447,25.8332c-2.5109-1.1942-4.5668-3.067-5.9783-5.4492-1.4116,2.3751-3.4608,4.2479-5.9717,5.4492l-.251-.5292c2.5515-1.2215,4.6211-3.1759,5.9647-5.6525l.2579-.482,.2579,.4749c1.3503,2.4836,3.4132,4.438,5.9717,5.6525l-.251,.5362h-.0003Z" fill="#696"/></g></g><g id="smallConiferousTreeFillSymbol"><rect x="194.1261" y="37.5928" width=".5905" height="10.1721" fill="#696"/><path d="M198.7674,46.0278c-1.812-.4343-3.3726-1.5606-4.3498-3.108-.9839,1.554-2.5379,2.6736-4.3361,3.108l-.1424-.5768c1.805-.4343,3.3386-1.6219,4.214-3.2571l.2646-.4886,.2646,.4886c.8687,1.6356,2.4091,2.8228,4.2206,3.2571l-.1358,.5768h.0004Z" fill="#696"/><path d="M197.3492,41.7662c-1.2148-.5701-2.219-1.4521-2.9246-2.5651-.7126,1.113-1.7101,1.9883-2.9246,2.5651l-.251-.5292c1.2554-.5971,2.2596-1.554,2.9179-2.7552l.2579-.475,.2579,.475c.6514,1.2012,1.6695,2.1577,2.9179,2.7552l-.251,.5292h-.0007Z" fill="#696"/></g></g></g></g><g id="ConiferousTrees-2"><g id="roughGrassAndConiferousTreesFillSymbol-2"><g id="coniferousTreesFillSymbol-2"><g id="coniferousTreeFillSymbol-2"><g id="coniferousTreeGeometry-2"><rect x="295.6628" y="17.5" width=".5971" height="20.3441" fill="#696"/><path d="M304.7086,34.0645c-3.739-.9499-6.9013-3.3996-8.7402-6.7721-1.8389,3.3726-5.0078,5.8222-8.7468,6.7722l-.1425-.5701c3.7593-.9569,6.9013-3.4947,8.6247-6.9692l.2646-.5292,.2579,.5362c1.7304,3.4745,4.8723,6.0123,8.6247,6.9692l-.1425,.5631Z" fill="#696"/><path d="M301.9467,25.5686c-2.5039-1.1942-4.5602-3.067-5.9783-5.4492-1.3776,2.3412-3.4947,4.2616-5.9717,5.4492l-.2443-.5292c2.5175-1.2078,4.6414-3.2165,5.9647-5.6525l.251-.4749,.2579,.4749c1.3503,2.4836,3.4269,4.438,5.9717,5.6525l-.251,.5292Z" fill="#696"/></g></g><g id="smallConiferousTreeFillSymbol-2"><rect x="309.2278" y="37.3282" width=".6041" height="10.1721" fill="#696"/><path d="M313.8695,45.7632c-1.805-.4343-3.366-1.554-4.3431-3.108-.9838,1.554-2.5312,2.6736-4.3295,3.108l-.1425-.5768c1.812-.4343,3.332-1.6285,4.214-3.2571l.251-.4886,.2579,.4886c.882,1.6356,2.4021,2.8298,4.2207,3.2571l-.1288,.5768h.0003Z" fill="#696"/><path d="M306.5951,41.5016l-.251-.5292c1.2621-.5971,2.2666-1.554,2.9316-2.7552l.251-.482,.2579,.482c.6447,1.1809,1.6761,2.1577,2.9246,2.7552l-.2646,.5292c-1.2079-.5768-2.2124-1.4588-2.9246-2.5651-.7126,1.106-1.7031,1.9883-2.9246,2.5651h-.0003Z" fill="#696"/></g></g></g></g><g id="ConiferousTrees-3"><g id="roughGrassAndConiferousTreesFillSymbol-3"><g id="coniferousTreesFillSymbol-3"><g id="coniferousTreeFillSymbol-3"><g id="coniferousTreeGeometry-3"><rect x="254.9477" y="71.7871" width=".5971" height="20.3441" fill="#696"/><path d="M263.9934,88.3512c-3.739-.9499-6.9013-3.3996-8.7402-6.7722-1.8389,3.3726-5.0078,5.8222-8.7468,6.7722l-.1425-.5702c3.7593-.9569,6.9013-3.4948,8.6247-6.9692l.2646-.5292,.2646,.5292c1.7238,3.4745,4.879,6.0123,8.6247,6.9692l-.1495,.5702h.0003Z" fill="#696"/><path d="M261.2316,79.8553c-2.5039-1.1942-4.5602-3.0671-5.9783-5.4492-1.3776,2.3411-3.4947,4.2616-5.9717,5.4492l-.2443-.5292c2.5175-1.2079,4.6414-3.2165,5.9647-5.6525l.251-.475,.2579,.475c1.3503,2.4836,3.4269,4.438,5.9717,5.6525l-.251,.5292Z" fill="#696"/></g></g><g id="smallConiferousTreeFillSymbol-3"><rect x="268.5127" y="91.6153" width=".6041" height="10.172" fill="#696"/><path d="M273.1543,100.05c-1.8186-.4343-3.366-1.554-4.3564-3.108-.9908,1.554-2.5242,2.6737-4.3295,3.108l-.1358-.5768c1.8186-.4343,3.3387-1.6285,4.214-3.2571l.2579-.4886,.2579,.4886c.8753,1.6356,2.4091,2.8298,4.2207,3.2571l-.1288,.5768Z" fill="#696"/><path d="M265.8796,95.7887l-.251-.5292c1.2621-.5971,2.2666-1.554,2.9316-2.7552l.251-.4819,.2579,.4819c.6447,1.1809,1.6761,2.1578,2.9246,2.7552l-.251,.5292c-1.2215-.5768-2.2124-1.4588-2.9316-2.5652-.7192,1.106-1.7101,1.9883-2.9316,2.5651Z" fill="#696"/></g></g></g></g><g id="ConiferousTrees-4"><g id="roughGrassAndConiferousTreesFillSymbol-4"><g id="coniferousTreesFillSymbol-4"><g id="coniferousTreeFillSymbol-4"><g id="coniferousTreeGeometry-4"><rect x="78.5218" y="85.5555" width=".5904" height="20.3441" fill="#696"/><path d="M70.0735,102.1199l-.1494-.5702c3.7594-.9569,6.9013-3.4948,8.6247-6.9692l.2646-.5292,.2646,.5292c1.7238,3.4745,4.8654,6.0123,8.6247,6.9692l-.1425,.5702c-3.7391-.9499-6.8943-3.3996-8.7402-6.7722-1.8526,3.3726-5.0148,5.8222-8.7468,6.7722h.0004Z" fill="#696"/><path d="M84.7987,93.617c-2.5109-1.1942-4.5668-3.0671-5.9783-5.4492-1.4115,2.3751-3.4608,4.2479-5.9717,5.4492l-.2509-.5292c2.5515-1.2215,4.621-3.1759,5.9647-5.6525l.2579-.475,.2579,.475c1.3503,2.4836,3.4132,4.438,5.9717,5.6525l-.2509,.5292h-.0004Z" fill="#696"/></g></g><g id="smallConiferousTreeFillSymbol-4"><rect x="92.0801" y="105.384" width=".5904" height="10.172" fill="#696"/><path d="M96.7218,113.812c-1.8049-.4343-3.366-1.5606-4.3428-3.108-.9909,1.554-2.5378,2.6737-4.3361,3.108l-.1425-.5768c1.8049-.4343,3.3386-1.6219,4.214-3.2571l.2646-.4886,.2646,.4886c.8687,1.6356,2.409,2.8227,4.2207,3.2571l-.1424,.5768Z" fill="#696"/><path d="M95.3032,109.5504c-1.2145-.5768-2.219-1.4588-2.9246-2.5652-.7126,1.113-1.7101,1.9883-2.9246,2.5652l-.2509-.5292c1.2554-.5971,2.2596-1.554,2.918-2.7552l.2579-.475,.2579,.475c.6514,1.2012,1.6625,2.1511,2.918,2.7552l-.2509,.5292h-.0007Z" fill="#696"/></g></g></g></g><g id="ConiferousTrees-5"><g id="roughGrassAndConiferousTreesFillSymbol-5"><g id="coniferousTreesFillSymbol-5"><g id="coniferousTreeFillSymbol-5"><g id="coniferousTreeGeometry-5"><rect x="44.5924" y="152.5524" width=".5905" height="20.3441" fill="#696"/><path d="M36.1441,169.1165l-.1424-.5701c3.7594-.9569,6.9013-3.4948,8.6247-6.9692l.2646-.5292,.2579,.5292c1.7238,3.4744,4.8653,6.0123,8.6247,6.9692l-.1424,.5701c-3.7391-.9499-6.8943-3.3995-8.7402-6.7721-1.8525,3.3726-5.0148,5.8223-8.7468,6.7721Z" fill="#696"/><path d="M50.8697,160.614c-2.5109-1.1942-4.5668-3.0671-5.9784-5.4492-1.4116,2.3751-3.4608,4.2479-5.9717,5.4492l-.251-.5292c2.5515-1.2215,4.6211-3.1759,5.9647-5.6525l.2579-.475,.2579,.475c1.3503,2.4836,3.4132,4.438,5.9717,5.6525l-.251,.5292h-.0003Z" fill="#696"/></g></g><g id="smallConiferousTreeFillSymbol-5"><rect x="58.1507" y="172.3806" width=".5905" height="10.172" fill="#696"/><path d="M62.7924,180.8086c-1.805-.4274-3.366-1.554-4.3428-3.108-.9909,1.554-2.5378,2.6803-4.3362,3.108l-.1424-.5701c1.805-.4343,3.3387-1.6286,4.214-3.2641l.2646-.4886,.2646,.4886c.8687,1.6356,2.4091,2.8227,4.2207,3.2641l-.1424,.5701Z" fill="#696"/><path d="M61.3739,176.5474c-1.2145-.5768-2.219-1.4588-2.9246-2.5651-.7126,1.113-1.7101,1.9883-2.9246,2.5651l-.251-.5292c1.2554-.5971,2.2596-1.554,2.918-2.7552l.2579-.475,.2579,.475c.6514,1.2012,1.6625,2.1511,2.918,2.7552l-.251,.5292h-.0007Z" fill="#696"/></g></g></g></g><g id="ConiferousTrees-6"><g id="roughGrassAndConiferousTreesFillSymbol-6"><g id="coniferousTreesFillSymbol-6"><g id="coniferousTreeFillSymbol-6"><g id="coniferousTreeGeometry-6"><rect x="78.5218" y="241.6645" width=".5904" height="20.3305" fill="#696"/><path d="M70.0735,258.215l-.1425-.5702c3.7594-.9569,6.9013-3.5014,8.6247-6.9555l.2646-.5292,.2579,.5292c1.7238,3.4744,4.8654,6.0056,8.6247,6.9555l-.1425,.5702c-3.7391-.9569-6.8943-3.3995-8.7402-6.7655-1.8526,3.366-5.0148,5.8086-8.7468,6.7655Z" fill="#696"/><path d="M84.7987,249.7191c-2.5109-1.1942-4.5668-3.0741-5.9783-5.4628-1.4046,2.3817-3.4608,4.2546-5.9717,5.4628l-.2509-.5292c2.5581-1.2351,4.621-3.1826,5.9647-5.6595l.2579-.4749,.2579,.4749c1.3503,2.477,3.4132,4.438,5.9717,5.6595l-.2509,.5292h-.0004Z" fill="#696"/></g></g><g id="smallConiferousTreeFillSymbol-6"><rect x="92.0801" y="261.4927" width=".5904" height="10.1654" fill="#696"/><path d="M96.7218,269.9208c-1.8049-.4343-3.366-1.554-4.3428-3.1147-.9909,1.554-2.5378,2.6803-4.3361,3.1147l-.1425-.5702c1.8049-.4343,3.3386-1.6286,4.214-3.2708l.2646-.482,.2646,.482c.8687,1.6422,2.409,2.8364,4.2207,3.2708l-.1424,.5702Z" fill="#696"/><path d="M95.3032,265.6525c-1.1942-.5702-2.219-1.4725-2.9246-2.5718-.7126,1.113-1.7167,1.995-2.9246,2.5718l-.2509-.5292c1.2485-.5971,2.2596-1.554,2.918-2.7552l.2579-.4683,.2579,.4683c.6447,1.1942,1.6828,2.1714,2.918,2.7552l-.2509,.5292h-.0007Z" fill="#696"/></g></g></g></g><g id="ConiferousTrees-7"><g id="roughGrassAndConiferousTreesFillSymbol-7"><g id="coniferousTreesFillSymbol-7"><g id="coniferousTreeFillSymbol-7"><g id="coniferousTreeGeometry-7"><rect x="193.8818" y="227.862" width=".5905" height="20.3441" fill="#696"/><path d="M202.9205,244.433c-3.7457-.9499-6.9013-3.3995-8.7468-6.7655-1.8459,3.366-5.0082,5.8156-8.7468,6.7655l-.1424-.5702c3.7594-.9569,6.9013-3.4947,8.6247-6.9555l.2646-.5292,.2646,.5292c1.7168,3.4744,4.8724,6.0123,8.6247,6.9555l-.1424,.5702Z" fill="#696"/><path d="M200.1587,235.9371c-2.5039-1.1942-4.5601-3.0741-5.9647-5.4558-1.4045,2.3751-3.4608,4.2546-5.9717,5.4558l-.251-.5292c2.5581-1.2281,4.6211-3.1826,5.9647-5.6595l.2579-.475,.2579,.475c1.3503,2.4836,3.4202,4.438,5.9647,5.6595l-.2579,.5292Z" fill="#696"/></g></g><g id="smallConiferousTreeFillSymbol-7"><rect x="207.4397" y="247.6902" width=".6041" height="10.1654" fill="#696"/><path d="M212.0814,256.1251c-1.8186-.4274-3.366-1.554-4.3565-3.101-.9909,1.554-2.5242,2.6737-4.3295,3.101l-.1358-.5702c1.8186-.4274,3.3386-1.6286,4.214-3.2571l.2579-.4886,.2579,.4886c.8753,1.6286,2.4091,2.8298,4.2206,3.2571l-.1288,.5702Z" fill="#696"/><path d="M204.807,251.8702l-.251-.5292c1.2621-.5971,2.2666-1.554,2.9316-2.7482l.251-.4749,.2579,.4749c.6447,1.1876,1.6828,2.1647,2.9246,2.7482l-.251,.5292c-1.1942-.5702-2.2123-1.4725-2.9316-2.5718-.7193,1.113-1.7168,2.002-2.9316,2.5718Z" fill="#696"/></g></g></g></g><g id="ConiferousTrees-8"><g id="roughGrassAndConiferousTreesFillSymbol-8"><g id="coniferousTreesFillSymbol-8"><g id="coniferousTreeFillSymbol-8"><g id="coniferousTreeGeometry-8"><rect x="295.6628" y="221.0762" width=".5971" height="20.3441" fill="#696"/><path d="M304.7086,237.6473c-3.739-.9499-6.9013-3.3995-8.7402-6.7655-1.8389,3.366-5.0078,5.8156-8.7468,6.7655l-.1425-.5702c3.7593-.9569,6.9013-3.4947,8.6247-6.9556l.2646-.5292,.2646,.5292c1.7238,3.4745,4.879,6.0123,8.6247,6.9556l-.1495,.5702h.0003Z" fill="#696"/><path d="M301.9467,229.1514c-2.5039-1.1942-4.5602-3.074-5.9783-5.4558-1.3776,2.3411-3.4881,4.2683-5.9717,5.4558l-.2443-.5292c2.5175-1.2148,4.6414-3.2231,5.9647-5.6595l.251-.475,.2579,.475c1.3503,2.4836,3.4269,4.438,5.9717,5.6595l-.251,.5292Z" fill="#696"/></g></g><g id="smallConiferousTreeFillSymbol-8"><rect x="309.2278" y="240.9044" width=".6041" height="10.1654" fill="#696"/><path d="M313.8695,249.3393c-1.8186-.4274-3.366-1.554-4.3564-3.101-.9908,1.554-2.5242,2.6737-4.3295,3.101l-.1358-.5702c1.8186-.4274,3.3387-1.6286,4.214-3.2571l.2579-.4886,.2579,.4886c.8753,1.6286,2.4091,2.8298,4.2207,3.2571l-.1288,.5702Z" fill="#696"/><path d="M306.5951,245.0844l-.251-.5292c1.2621-.5971,2.2666-1.554,2.9316-2.7482l.251-.4749,.2579,.4749c.6447,1.1876,1.6828,2.1647,2.9246,2.7482l-.251,.5292c-1.1942-.5702-2.2124-1.4725-2.9316-2.5718-.7192,1.113-1.7168,2.002-2.9316,2.5718Z" fill="#696"/></g></g></g></g><g id="ConiferousTrees-9"><g id="roughGrassAndConiferousTreesFillSymbol-9"><g id="coniferousTreesFillSymbol-9"><g id="coniferousTreeFillSymbol-9"><g id="coniferousTreeGeometry-9"><rect x="275.3054" y="302.5064" width=".5971" height="20.3441" fill="#696"/><path d="M284.3509,319.0776c-3.739-.9499-6.9013-3.3995-8.7402-6.7655-1.8389,3.366-5.0078,5.8156-8.7468,6.7655l-.1425-.5702c3.7593-.9569,6.9013-3.4947,8.6247-6.9555l.2646-.5292,.2646,.5292c1.7238,3.4744,4.879,6.0123,8.6247,6.9555l-.1495,.5702h.0003Z" fill="#696"/><path d="M281.589,310.5817c-2.5039-1.1942-4.5602-3.0741-5.9783-5.4558-1.3776,2.3411-3.4881,4.2682-5.9717,5.4558l-.2443-.5292c2.5175-1.2148,4.6414-3.2231,5.9647-5.6595l.251-.4749,.2579,.4749c1.3503,2.4836,3.4269,4.438,5.9717,5.6595l-.251,.5292Z" fill="#696"/></g></g><g id="smallConiferousTreeFillSymbol-9"><rect x="288.8704" y="322.3346" width=".6041" height="10.1654" fill="#696"/><path d="M293.5117,330.7696c-1.8186-.4274-3.366-1.554-4.3564-3.101-.9908,1.554-2.5242,2.6737-4.3295,3.101l-.1358-.5702c1.8186-.4274,3.3387-1.6286,4.214-3.2571l.2579-.4886,.2579,.4886c.8753,1.6286,2.4091,2.8298,4.2207,3.2571l-.1288,.5702Z" fill="#696"/><path d="M286.2373,326.5151l-.251-.5292c1.2621-.5971,2.2666-1.554,2.9316-2.7482l.251-.4749,.2579,.4749c.6447,1.1876,1.6828,2.1647,2.9246,2.7482l-.251,.5292c-1.1942-.5702-2.2124-1.4725-2.9316-2.5718-.7192,1.113-1.7168,2.002-2.9316,2.5718Z" fill="#696"/></g></g></g></g><g id="ConiferousTrees-10"><g id="roughGrassAndConiferousTreesFillSymbol-10"><g id="coniferousTreesFillSymbol-10"><g id="coniferousTreeFillSymbol-10"><g id="coniferousTreeGeometry-10"><rect x="44.5924" y="302.3574" width=".5905" height="20.3371" fill="#696"/><path d="M36.1441,318.9148l-.1424-.5702c3.7594-.9635,6.9013-3.5014,8.6247-6.9622l.2646-.5292,.2579,.5292c1.7238,3.4744,4.8653,6.0123,8.6247,6.9622l-.1424,.5702c-3.7391-.9569-6.8943-3.4065-8.7402-6.7721-1.8525,3.366-5.0148,5.8289-8.7468,6.7721Z" fill="#696"/><path d="M50.8697,310.4189c-2.5109-1.1942-4.5668-3.0741-5.9784-5.4628-1.4046,2.3751-3.4608,4.2546-5.9717,5.4628l-.251-.5292c2.5581-1.2351,4.6211-3.1826,5.9647-5.6595l.2579-.4749,.2579,.4749c1.3503,2.477,3.4132,4.438,5.9717,5.6595l-.251,.5292h-.0003Z" fill="#696"/></g></g><g id="smallConiferousTreeFillSymbol-10"><rect x="58.1507" y="322.1856" width=".5905" height="10.1654" fill="#696"/><path d="M62.7924,330.6135c-1.805-.4274-3.366-1.554-4.3428-3.1147-.9909,1.554-2.5378,2.6873-4.3362,3.1147l-.1424-.5702c1.805-.4274,3.3387-1.6286,4.214-3.2641l.2646-.4886,.2646,.4886c.8687,1.6356,2.4091,2.8364,4.2207,3.2641l-.1424,.5702Z" fill="#696"/><path d="M61.3739,326.352c-1.1942-.5702-2.219-1.4725-2.9246-2.5718-.7126,1.113-1.7168,1.995-2.9246,2.5718l-.251-.5292c1.2484-.5971,2.2596-1.554,2.918-2.7552l.2579-.4749,.2579,.4749c.6447,1.1942,1.6828,2.1647,2.918,2.7552l-.251,.5292h-.0007Z" fill="#696"/></g></g></g></g><g id="ConiferousTrees-11"><g id="roughGrassAndConiferousTreesFillSymbol-11"><g id="coniferousTreesFillSymbol-11"><g id="coniferousTreeFillSymbol-11"><g id="coniferousTreeGeometry-11"><rect x="261.7335" y="139.6455" width=".5971" height="20.3441" fill="#696"/><path d="M270.7792,156.21c-3.739-.9499-6.9013-3.3995-8.7402-6.7721-1.8389,3.3726-5.0078,5.8223-8.7468,6.7721l-.1425-.5701c3.7593-.9569,6.9013-3.4948,8.6247-6.9692l.2646-.5292,.2646,.5292c1.7238,3.4744,4.879,6.0123,8.6247,6.9692l-.1495,.5701h.0003Z" fill="#696"/><path d="M268.0174,147.714c-2.5039-1.1942-4.5602-3.0671-5.9783-5.4492-1.3776,2.3411-3.4947,4.2616-5.9717,5.4492l-.2443-.5292c2.5175-1.2079,4.6414-3.2165,5.9647-5.6525l.251-.475,.2579,.475c1.3503,2.4836,3.4269,4.438,5.9717,5.6525l-.251,.5292Z" fill="#696"/></g></g><g id="smallConiferousTreeFillSymbol-11"><rect x="275.2984" y="159.474" width=".6041" height="10.172" fill="#696"/><path d="M279.9402,167.9087c-1.8186-.4343-3.366-1.554-4.3564-3.108-.9908,1.554-2.5242,2.6737-4.3295,3.108l-.1358-.5768c1.8186-.4343,3.3387-1.6286,4.214-3.2571l.2579-.4886,.2579,.4886c.8753,1.6356,2.4091,2.8297,4.2207,3.2571l-.1288,.5768Z" fill="#696"/><path d="M272.6658,163.6475l-.251-.5292c1.2621-.5971,2.2666-1.554,2.9316-2.7552l.251-.4819,.2579,.4819c.6447,1.1809,1.6761,2.1578,2.9246,2.7552l-.251,.5292c-1.2215-.5768-2.2124-1.4588-2.9316-2.5651-.7192,1.106-1.7101,1.9883-2.9316,2.5651Z" fill="#696"/></g></g></g></g></svg>