<?xml version="1.0" encoding="UTF-8"?><svg id="Layer_2" xmlns="http://www.w3.org/2000/svg" width="350" height="350" viewBox="0 0 350 350"><g id="NonConTrees"><g id="roughGrassAndNonconiferousTreesFillSymbol"><g id="nonconiferousTreesFillSymbol"><g id="nonconiferousTreeFillSymbol"><g id="nonconiferousTreeGeometry"><path d="M181.1176,38.4836h-.5695l-1.2138-4.8549c-.8137,.868-1.9663,1.3766-3.1731,1.3766-.902,0-1.7766-.2779-2.5155-.8001-.9562-.6713-1.5866-1.6747-1.7832-2.8273s.0609-2.2985,.7322-3.2476c.2849-.4067,.6307-.7525,1.0441-1.044-.5355-.7934-.7595-1.7427-.644-2.6985,.1288-1.0644,.6643-2.0206,1.512-2.6848,.6916-.5425,1.5053-.8407,2.373-.861,.4543-1.7969,2.0814-3.0782,3.9462-3.0782,.2646,0,.5289,.0269,.7865,.0812,1.5729,.2982,2.8003,1.4644,3.1867,2.9971,2.1357,.0609,3.8378,1.7427,3.9123,3.892,.027,.834-.2104,1.6611-.6779,2.3663,1.8442,1.3086,2.4003,3.8514,1.2138,5.8107-.7865,1.295-2.2172,2.1087-3.7292,2.1087-.7934,0-1.5729-.2236-2.2578-.6373-.3321-.1967-.651-.4477-.9223-.7392l-1.2205,4.8412v-.0007Zm-1.512-6.1971l1.2271,4.9091,1.2271-4.9021,.3727,.5289c.2982,.427,.6916,.7934,1.1256,1.044,.5897,.3595,1.2681,.5561,1.9526,.5561,1.3087,0,2.5494-.6983,3.2274-1.8239,1.0713-1.7766,.4949-4.102-1.2814-5.1804l-.2849-.1764,.2034-.2646c.5019-.6373,.7595-1.4374,.7392-2.2375-.0609-1.8308-1.6002-3.3222-3.4307-3.3222l-.3661,.0067-.0476-.2439c-.2712-1.4101-1.3563-2.5018-2.7731-2.773-.2236-.0406-.4476-.0609-.6779-.0609-1.6681,0-3.1055,1.1935-3.424,2.8343l-.0476,.244-.3525-.0067c-.7728,0-1.512,.2576-2.129,.7392-.7185,.5628-1.1799,1.3766-1.2883,2.2851s.1424,1.8102,.7052,2.5291l.2034,.2646-.2779,.1764c-.4543,.2849-.8407,.6373-1.1323,1.0577-.5831,.827-.8067,1.8239-.6373,2.814s.7185,1.8578,1.5393,2.4409c.644,.4477,1.3969,.6916,2.1766,.6916,1.2271,0,2.38-.5967,3.0783-1.6002l.3727-.5289v-.001Z" fill="#696"/></g></g><g id="smallNonconiferousTreeFillSymbol"><path d="M194.1089,47.9693l-.5491-2.1833c-.7798,.6643-2.0002,.7392-2.8546,.1221-.5086-.3525-.8477-.8883-.9562-1.5054-.1085-.6104,.027-1.2271,.3864-1.7357,.1424-.1831,.2849-.3391,.4476-.4746-.5222-.9086-.3118-2.1018,.5355-2.7801,.3392-.2646,.7459-.4204,1.1662-.4543,.3118-1.0308,1.3765-1.7087,2.5018-1.5256,.8204,.1694,1.4578,.7595,1.695,1.5256,1.085,.1151,1.9324,.9968,1.973,2.0748,.0136,.4137-.0882,.8068-.2779,1.1525,.8883,.7119,1.1393,2.0069,.5289,3.0173-.427,.7052-1.1728,1.1322-1.9866,1.1322-.427,0-.8477-.1151-1.2068-.3391-.1085-.0679-.2104-.1424-.3052-.217l-.5425,2.1833-.5562,.0066,.0007,.0004Zm-.2576-3.4717l.5425,2.1833,.5491-2.2036,.3727,.5355c.1288,.1831,.3118,.3595,.5289,.4882,.2712,.1628,.5764,.251,.8949,.251,.6104,0,1.1799-.3188,1.4984-.8477,.4882-.8271,.2236-1.8917-.5968-2.3867l-.2982-.1694,.2104-.2646c.2236-.2982,.3458-.651,.3458-1.0237-.0406-.8341-.7392-1.5186-1.5799-1.5186h-.2373l-.1018-.2373c-.1222-.644-.6237-1.1459-1.2814-1.2814-.0882-.0136-.1764-.0203-.2712-.0203-.7865,0-1.4578,.5562-1.5935,1.3087l-.0476,.251-.2646-.0136h0c-.3934,0-.7459,.1221-1.0237,.3391-.6713,.5355-.7934,1.5256-.2646,2.2036l.2034,.2646-.2849,.1694c-.1897,.1151-.3727,.2849-.5289,.4882-.2646,.3727-.3661,.8341-.2849,1.2884,.0812,.4543,.3321,.8543,.7119,1.1256,.7525,.5425,1.8851,.3391,2.4273-.4137l.3727-.5152,.0014-.0007Z" fill="#696"/></g></g></g></g><g id="NonConTrees-2"><g id="roughGrassAndNonconiferousTreesFillSymbol-2"><g id="nonconiferousTreesFillSymbol-2"><g id="nonconiferousTreeFillSymbol-2"><g id="nonconiferousTreeGeometry-2"><path d="M296.1328,38.2193h-.5694l-1.2205-4.8549c-.8067,.868-1.9596,1.3766-3.1731,1.3766-.9019,0-1.7766-.2779-2.5154-.8001-1.9596-1.3898-2.4272-4.1156-1.0441-6.0753,.2712-.3934,.6373-.7525,1.0308-1.044-1.1393-1.729-.7798-4.0817,.8813-5.3837,.678-.5355,1.512-.8407,2.3664-.861,.5289-2.0475,2.5697-3.4307,4.7394-2.9971,1.5596,.2982,2.7934,1.4644,3.1867,2.997,2.129,.0609,3.8307,1.7427,3.8986,3.892,.0273,.834-.2103,1.6611-.678,2.3663,1.8375,1.3086,2.4003,3.8444,1.2205,5.8107-.7865,1.295-2.2172,2.1087-3.7359,2.1087-.7865,0-1.5663-.2236-2.2512-.6373-.3458-.1967-.6443-.4477-.9222-.7392l-1.2138,4.8412Zm-1.5186-6.2041l1.2341,4.9091,1.2341-4.8954,.3727,.5222c.3119,.4406,.7052,.7934,1.1323,1.0511,.5898,.3595,1.268,.5561,1.9394,.5561,1.3087,0,2.5561-.6983,3.241-1.8239,1.0713-1.7766,.4949-4.102-1.2747-5.1804l-.2915-.1694,.2103-.2646c.4949-.6373,.7525-1.4374,.7255-2.2375-.0679-1.8645-1.5596-3.3222-3.4307-3.3222l-.3727,.0067-.0406-.244c-.2646-1.4101-1.3629-2.5018-2.7664-2.773-1.8984-.3594-3.7495,.9019-4.0953,2.773l-.0476,.244-.3594-.0067c-.7662,0-1.5323,.2646-2.1224,.7392-1.4917,1.1662-1.756,3.3292-.5898,4.8139l.1967,.2576-.2915,.1764c-.4407,.2779-.834,.644-1.1256,1.0577-1.1935,1.6951-.7865,4.0547,.9152,5.2549,.6373,.4543,1.3899,.6916,2.1697,.6916,1.2271,0,2.38-.5967,3.0716-1.6002l.3661-.5355-.0004-.0007Z" fill="#696"/></g></g><g id="smallNonconiferousTreeFillSymbol-2"><path d="M309.1241,47.705l-.5355-2.1833c-.7934,.6643-2.0069,.7392-2.8612,.1288-1.0441-.7392-1.295-2.1899-.5628-3.241,.1425-.1831,.2849-.3391,.4407-.468-.5222-.9153-.3189-2.1087,.5289-2.7801,.3525-.2646,.7525-.4204,1.1662-.4543,.3189-1.0374,1.3223-1.7223,2.5018-1.5256,.8204,.1694,1.4714,.7525,1.695,1.5256,1.0983,.1151,1.946,.9968,1.9866,2.0748,.0136,.4137-.0948,.8068-.2915,1.1525,.8883,.7119,1.1393,2.0069,.5425,3.0173-.427,.7052-1.1798,1.1322-2.0003,1.1322-.427,0-.834-.1151-1.2002-.3391-.1151-.0679-.2033-.1424-.3119-.2236l-.5289,2.1833h-.5694v.0004Zm-.2576-3.4646l.5425,2.1766,.5425-2.1899,.3727,.5289c.1425,.1831,.3322,.3595,.5289,.4882,.2779,.1628,.5831,.251,.9019,.251,.6104,0,1.1662-.3188,1.4851-.8477,.4883-.8271,.2237-1.8917-.5968-2.3867l-.2779-.1694,.1967-.2646c.2307-.2982,.3594-.651,.3458-1.0237-.0273-.8407-.7458-1.5256-1.5866-1.5256h-.2373l-.1018-.2373c-.1221-.644-.6373-1.1459-1.2813-1.2814-.0882-.0136-.1694-.0203-.2646-.0203-.7798,0-1.4644,.5562-1.6002,1.3087l-.0406,.251-.251-.0066h-.0136c-.3934,0-.7255,.1221-1.0101,.3391-.685,.5355-.7934,1.5256-.2646,2.2036l.2033,.2646-.2982,.1628c-.183,.1151-.3727,.2849-.5289,.4949-.5425,.7728-.3594,1.8578,.434,2.414,.7322,.5425,1.8714,.3322,2.4139-.4137l.3864-.5152-.0003-.0011Z" fill="#696"/></g></g></g></g><g id="NonConTrees-3"><g id="roughGrassAndNonconiferousTreesFillSymbol-3"><g id="nonconiferousTreesFillSymbol-3"><g id="nonconiferousTreeFillSymbol-3"><g id="nonconiferousTreeGeometry-3"><path d="M255.4506,92.462h-.5694l-1.2205-4.8549c-.8067,.868-1.9596,1.3765-3.1731,1.3765-.9019,0-1.7766-.2779-2.5154-.8001-1.9596-1.3899-2.4272-4.1156-1.0441-6.0753,.2712-.3934,.6373-.7525,1.0308-1.044-1.1393-1.729-.7798-4.0817,.8813-5.3837,.678-.5355,1.512-.8407,2.3664-.861,.5289-2.0475,2.5697-3.4513,4.7394-2.9971,1.5596,.2982,2.7934,1.4644,3.1867,2.9971,2.129,.0609,3.8307,1.7427,3.8986,3.892,.0273,.8341-.2103,1.6611-.678,2.3663,1.8375,1.3086,2.4003,3.8444,1.2205,5.8107-.7865,1.295-2.2172,2.1088-3.7359,2.1088-.7865,0-1.5663-.2236-2.2512-.6374-.3458-.1967-.651-.4476-.9289-.7392l-1.2068,4.8412h-.0003Zm-1.5186-6.2041l1.2341,4.9091,1.2341-4.8955,.3727,.5222c.3119,.4407,.7052,.7934,1.1323,1.0511,.5898,.3594,1.268,.5561,1.9394,.5561,1.3087,0,2.5561-.6982,3.241-1.8238,1.0713-1.7766,.4949-4.102-1.2747-5.1804l-.2915-.1694,.2103-.2646c.4949-.6374,.7525-1.4374,.7255-2.2375-.0679-1.8644-1.5596-3.3222-3.4307-3.3222l-.3727,.0066-.0406-.244c-.2646-1.4102-1.3629-2.5018-2.7664-2.773-1.9054-.3797-3.7359,.9086-4.0953,2.773l-.0476,.244-.3594-.0066c-.7662,0-1.5323,.2646-2.1224,.7392-1.4917,1.1662-1.756,3.3292-.5898,4.8139l.1967,.2576-.2779,.1764c-.4476,.2779-.8407,.644-1.1393,1.0577-1.1935,1.6951-.7798,4.0548,.9222,5.2549,.6373,.4543,1.3899,.6916,2.163,.6916,1.2341,0,2.3867-.5967,3.0716-1.6002l.3661-.5355-.0007-.0007Z" fill="#696"/></g></g><g id="smallNonconiferousTreeFillSymbol-3"><path d="M268.4419,101.9477l-.5355-2.1833c-.7934,.6643-2.0069,.7322-2.8612,.1222-1.0441-.7392-1.295-2.1899-.5628-3.241,.1425-.183,.2849-.3392,.4407-.4679-.5222-.9152-.3189-2.1088,.5289-2.7801,.3525-.2646,.7525-.4204,1.1662-.4543,.3189-1.0374,1.3356-1.7223,2.5018-1.5256,.8204,.1694,1.4714,.7525,1.695,1.5256,1.0983,.1151,1.946,.9968,1.9866,2.0748,.0136,.4137-.0948,.8067-.2915,1.1525,.8883,.7119,1.1393,2.0069,.5425,3.0174-.427,.7052-1.1798,1.1322-2.0003,1.1322-.427,0-.834-.1151-1.2002-.3392-.1151-.0679-.2033-.1425-.3119-.2236l-.5425,2.1833-.5561,.0066,.0004,.0004Zm-.2576-3.4647l.5425,2.1767,.5425-2.1899,.3727,.5289c.1425,.183,.3322,.3594,.5289,.4882,.2779,.1627,.5831,.2509,.9019,.2509,.6104,0,1.1662-.3189,1.4851-.8477,.4883-.827,.2237-1.8918-.5968-2.3867l-.2779-.1694,.1967-.2646c.2307-.2982,.3594-.651,.3458-1.0237-.0273-.8341-.7322-1.5187-1.5729-1.5187h-.2373l-.1018-.2373c-.1288-.644-.6307-1.1459-1.2747-1.2814-.0948-.0137-.183-.0203-.2779-.0203-.7798,0-1.4577,.5561-1.5866,1.3086l-.0543,.2509-.251-.0066h0c-.4001,0-.7322,.1222-1.0171,.3392-.678,.5355-.7934,1.5256-.2646,2.2036l.1967,.2646-.3052,.1561c-.183,.1151-.3727,.2849-.5289,.4949-.5425,.7728-.3594,1.8578,.434,2.4139,.7392,.5425,1.8644,.3322,2.4139-.4137l.3864-.5152-.0003-.0014Z" fill="#696"/></g></g></g></g><g id="NonConTrees-4"><g id="roughGrassAndNonconiferousTreesFillSymbol-4"><g id="nonconiferousTreesFillSymbol-4"><g id="nonconiferousTreeFillSymbol-4"><g id="nonconiferousTreeGeometry-4"><path d="M79.1615,106.2124h-.5695l-1.2138-4.8549c-.8138,.868-1.9663,1.3765-3.1731,1.3765-.9019,0-1.7766-.2779-2.5155-.8001-.9562-.6713-1.5866-1.6748-1.7833-2.8273s.0609-2.2985,.7322-3.2477c.2849-.4067,.6307-.7525,1.044-1.044-.5355-.7934-.7595-1.7427-.644-2.6985,.1288-1.0644,.6643-2.0205,1.512-2.6848,.6916-.5425,1.5053-.8407,2.373-.861,.4543-1.7969,2.0814-3.0782,3.9463-3.0782,.2646,0,.5289,.0269,.7865,.0812,1.5729,.2982,2.8004,1.4644,3.1867,2.9971,2.1357,.0609,3.8378,1.7427,3.9123,3.892,.0269,.8341-.2104,1.6611-.678,2.3663,1.8441,1.3086,2.4003,3.8514,1.2138,5.8107-.7934,1.2883-2.2239,2.1018-3.7359,2.1018-.7934,0-1.5729-.2236-2.2578-.6374-.3322-.1967-.651-.4476-.9223-.7392l-1.2138,4.8478v-.0003Zm-1.512-6.1971l1.2271,4.9091,1.2271-4.9021,.3728,.5289c.2982,.427,.6916,.7934,1.1256,1.044,.5898,.3594,1.2681,.5561,1.9526,.5561,1.3086,0,2.5494-.6982,3.2274-1.8238,1.0714-1.7766,.4949-4.102-1.2814-5.1804l-.2849-.1694,.2033-.2646c.5019-.6374,.7595-1.4374,.7392-2.2375-.0609-1.8308-1.6002-3.3222-3.4307-3.3222l-.3661,.0066-.0476-.244c-.2712-1.4102-1.3559-2.5018-2.773-2.773-.2236-.0406-.4476-.0609-.678-.0609-1.6681,0-3.1056,1.1935-3.4241,2.8343l-.0476,.244-.3525-.0066c-.7728,0-1.512,.2576-2.129,.7392-.7185,.5628-1.1798,1.3765-1.2883,2.2852s.1425,1.8102,.7052,2.5291l.2033,.2646-.2849,.1694c-.4543,.2849-.8407,.6374-1.1322,1.0577-.5831,.827-.8067,1.8238-.6374,2.814s.7185,1.8578,1.5393,2.4409c.644,.4476,1.3968,.6916,2.1767,.6916,1.2271,0,2.38-.5967,3.0782-1.6002l.3797-.5289v-.0011Z" fill="#696"/></g></g><g id="smallNonconiferousTreeFillSymbol-4"><path d="M92.1528,115.7051l-.5492-2.1833c-.7865,.6643-2.0003,.7392-2.8546,.1222-.5085-.3525-.8477-.8883-.9562-1.5053-.1085-.6104,.0269-1.2271,.3864-1.7356,.1425-.183,.2849-.3392,.4476-.4746-.5222-.9086-.3118-2.1018,.5355-2.7801,.3392-.2646,.7459-.4204,1.1662-.4543,.3118-1.0374,1.3899-1.6951,2.5018-1.5256,.827,.1694,1.4644,.7595,1.6951,1.5256,1.1119,.1085,1.9394,.9831,1.98,2.0748,.0137,.4137-.0882,.8001-.2915,1.1525,.8949,.7119,1.1459,2.0003,.5425,3.0174-.427,.7052-1.1729,1.1322-1.9932,1.1322-.4204,0-.8407-.1151-1.2001-.3392-.1085-.0679-.2104-.1425-.3052-.217l-.5425,2.1833-.5628,.0066,.0003,.0003Zm-.2576-3.4716l.5425,2.1833,.5492-2.2036,.3728,.5355c.1288,.183,.3118,.3594,.5222,.4882,.2712,.1627,.5764,.2509,.8949,.2509,.6171,0,1.1729-.3189,1.4917-.8477,.4882-.827,.2236-1.8918-.5967-2.3867l-.2849-.1694,.2104-.2646c.2373-.2982,.3525-.6577,.3458-1.0237-.034-.8341-.7392-1.5187-1.5799-1.5187h-.244l-.0948-.244c-.1222-.644-.6237-1.1459-1.2747-1.2814-.0882-.0137-.1764-.0203-.2712-.0203-.7865,0-1.4578,.5561-1.5935,1.3086l-.0476,.2509-.2779-.0066h0c-.3934,0-.7459,.1222-1.0237,.3392-.6713,.5355-.7934,1.5256-.2646,2.2036l.2033,.2646-.2849,.1694c-.1897,.1151-.3728,.2849-.5289,.4882-.2646,.3728-.3661,.8341-.2849,1.2883,.0812,.4543,.3322,.8544,.7119,1.1256,.7525,.5425,1.8851,.3392,2.4273-.4137l.3797-.5152,.0007-.001Z" fill="#696"/></g></g></g></g><g id="NonConTrees-5"><g id="roughGrassAndNonconiferousTreesFillSymbol-5"><g id="nonconiferousTreesFillSymbol-5"><g id="nonconiferousTreeFillSymbol-5"><g id="nonconiferousTreeGeometry-5"><path d="M45.2598,173.1548h-.5694l-1.2138-4.8549c-.8138,.868-1.9663,1.3765-3.1731,1.3765-.9019,0-1.7766-.2779-2.5155-.8001-.9562-.6713-1.5866-1.6748-1.7833-2.8273-.1967-1.1459,.0609-2.2985,.7322-3.2476,.2849-.4067,.6307-.7525,1.044-1.0441-.5355-.7934-.7595-1.7427-.644-2.6985,.1288-1.0644,.6643-2.0206,1.512-2.6849,.6916-.5425,1.5054-.8407,2.373-.861,.4543-1.7969,2.0814-3.0783,3.9463-3.0783,.2646,0,.5289,.027,.7864,.0812,1.5729,.2982,2.8004,1.4644,3.1867,2.9971,2.1018,.0609,3.8444,1.7832,3.9123,3.892,.0269,.8341-.2103,1.6611-.6779,2.3664,1.8442,1.3087,2.4003,3.8514,1.2138,5.8107-.7864,1.295-2.2173,2.1088-3.7293,2.1088-.7934,0-1.5729-.2236-2.2578-.6373-.3391-.2034-.651-.4543-.9289-.7459l-1.2138,4.8479v-.0007Zm-1.512-6.1971l1.2271,4.9091,1.2271-4.9021,.3727,.5289c.2982,.427,.6916,.7934,1.1256,1.0441,.5897,.3594,1.268,.5562,1.9527,.5562,1.3087,0,2.5494-.6983,3.2274-1.8238,1.0713-1.7766,.4949-4.102-1.2814-5.1803l-.2849-.1694,.2033-.2646c.5019-.6373,.7595-1.4375,.7392-2.2376-.0609-1.8309-1.6002-3.3222-3.4307-3.3222l-.3661,.0066-.0476-.2439c-.2713-1.4102-1.3559-2.5018-2.7731-2.7731-.2236-.0406-.4477-.0609-.6779-.0609-1.6681,0-3.1056,1.1935-3.4241,2.8343l-.0476,.2439h-.3525c-.7728,0-1.512,.2576-2.1291,.7392-.7186,.5628-1.1799,1.3765-1.2884,2.2852s.1424,1.8102,.7052,2.5291l.2033,.2646-.2849,.1694c-.4543,.2849-.8407,.6373-1.1322,1.0577-.5831,.8271-.8068,1.8238-.6374,2.814s.7186,1.8578,1.5393,2.4409c.644,.4476,1.3969,.6916,2.1766,.6916,1.2271,0,2.38-.5968,3.0783-1.6002l.3797-.5355v-.0011Z" fill="#696"/></g></g><g id="smallNonconiferousTreeFillSymbol-5"><path d="M58.2511,182.6405l-.5492-2.1766c-.7798,.6713-2.0002,.7322-2.8546,.1288-.5019-.3594-.8407-.8883-.9492-1.512-.1085-.6104,.0269-1.2271,.3864-1.7356,.1424-.183,.2849-.3392,.4477-.4746-.5222-.9086-.3118-2.1017,.5355-2.7801,.3391-.2646,.7459-.4203,1.1662-.4543,.3118-1.0374,1.3766-1.7154,2.5018-1.5257,.8271,.1694,1.4644,.7595,1.695,1.5257,1.112,.1085,1.9394,.9831,1.9799,2.0748,.0136,.4137-.0882,.8001-.2915,1.1525,.895,.7119,1.1459,2.0002,.5425,3.0173-.427,.7052-1.1729,1.1323-1.9932,1.1323-.4204,0-.8407-.1222-1.2002-.3458-.1085-.0679-.2103-.1424-.3052-.2104l-.5425,2.1833h-.5694v.0003Zm-.2576-3.4646l.5425,2.1833,.5492-2.2036,.3727,.5355c.1288,.183,.3118,.3525,.5222,.4882,.2713,.1561,.5764,.251,.895,.251,.6171,0,1.1729-.3188,1.4917-.8477,.4882-.8271,.2236-1.8918-.5967-2.3867l-.2849-.1694,.2103-.2646c.2373-.2982,.3525-.6577,.3458-1.0237-.0339-.8341-.7392-1.5186-1.5799-1.5186h-.2576l-.0948-.2439c-.1221-.644-.6237-1.1459-1.2747-1.2814-.0882-.0136-.1764-.0203-.2713-.0203-.7864,0-1.4578,.5562-1.5936,1.3087l-.0476,.251-.2576-.0066h0c-.3934,0-.7459,.1222-1.0237,.3392-.6713,.5355-.7934,1.5257-.2646,2.2036l.2033,.2646-.2849,.1694c-.1897,.1152-.3727,.2849-.5289,.4882-.2646,.3727-.3661,.8341-.2849,1.2883s.3322,.8543,.7119,1.1323c.7525,.5425,1.8851,.3392,2.4272-.4203l.3727-.5152,.0011-.0011Z" fill="#696"/></g></g></g></g><g id="NonConTrees-6"><g id="roughGrassAndNonconiferousTreesFillSymbol-6"><g id="nonconiferousTreesFillSymbol-6"><g id="nonconiferousTreeFillSymbol-6"><g id="nonconiferousTreeGeometry-6"><path d="M79.1615,262.1945h-.5695l-1.2138-4.8681c-.8138,.8747-1.9663,1.3766-3.1731,1.3766-.9019,0-1.7766-.2779-2.5155-.8001-1.9663-1.3832-2.4342-4.102-1.0511-6.0753,.2849-.4001,.6307-.7392,1.0374-1.0308-.5289-.7934-.7525-1.7493-.6374-2.6985,.1288-1.0713,.6643-2.0272,1.512-2.6918,.6916-.5425,1.5053-.8407,2.373-.868,.4543-1.8035,2.0814-3.0716,3.9463-3.0716,.2646,0,.5289,.0273,.7865,.0746,1.5729,.3119,2.8004,1.4781,3.1867,2.9971,2.1357,.0609,3.8378,1.7493,3.9123,3.892,.0269,.834-.2104,1.6681-.678,2.3597,1.8441,1.3087,2.4003,3.8514,1.2138,5.8107-.7798,1.295-2.2172,2.1154-3.7293,2.1154-.7934,0-1.5729-.217-2.2578-.644-.3392-.1967-.651-.4476-.9289-.7392l-1.2138,4.8615Zm-1.512-6.2107l1.2271,4.9158,1.2271-4.9021,.3731,.5222c.2982,.427,.6916,.7934,1.1256,1.0511,.5898,.3594,1.2681,.5491,1.9526,.5491,1.3086,0,2.5494-.7052,3.2274-1.8239,1.0714-1.7899,.5019-4.102-1.2814-5.1937l-.2849-.1694,.2033-.2646c.5019-.6237,.7595-1.4171,.7392-2.2239-.0609-1.8375-1.6002-3.3226-3.4307-3.3226l-.3661,.0136-.0476-.251c-.2712-1.4102-1.3559-2.4951-2.773-2.7664-.2236-.0476-.4476-.0679-.678-.0679-1.6681,0-3.1056,1.1935-3.4241,2.8343l-.0476,.251-.3525-.0136c-.7728,0-1.512,.251-2.129,.7392-.7185,.5694-1.1798,1.3766-1.2883,2.2918-.1085,.9086,.1425,1.8035,.7052,2.5154l.2033,.2646-.2849,.1694c-.4543,.2779-.8407,.644-1.1322,1.0511-1.2001,1.695-.7934,4.0614,.9019,5.2549,.651,.4679,1.4102,.7052,2.1899,.7052,1.2271,0,2.38-.5968,3.0782-1.6002l.3661-.5289v-.0007Z" fill="#696"/></g></g><g id="smallNonconiferousTreeFillSymbol-6"><path d="M92.1528,271.6735l-.5492-2.1833c-.7865,.678-2.0003,.7392-2.8546,.1354-.5019-.3594-.8407-.9019-.9492-1.512-.1085-.6171,.0269-1.2341,.3864-1.7427,.1425-.1764,.2849-.3392,.4476-.4679-.5222-.9152-.3118-2.1088,.5355-2.78,.3392-.251,.7459-.4204,1.1662-.4476,.3118-1.0171,1.3899-1.6884,2.5018-1.5256,.8204,.1694,1.4644,.7525,1.6951,1.5256,1.1119,.1221,1.9394,.9831,1.98,2.0815,.0137,.4137-.0882,.8001-.2915,1.1525,.8949,.7119,1.1459,2.0139,.5425,3.0173-.427,.7052-1.1729,1.1323-1.9932,1.1323-.4204,0-.8407-.1288-1.2001-.3392-.1085-.0679-.2104-.1425-.3052-.217l-.5425,2.1833-.5695-.0136h0v.001Zm-.2576-3.4716l.5425,2.1697,.5492-2.197,.3728,.5425c.1288,.1764,.3118,.3594,.5222,.4746,.2712,.1561,.5764,.251,.8949,.251,.6171,0,1.1729-.3189,1.4917-.8477,.4882-.8204,.2236-1.8917-.5967-2.4003l-.2849-.1628,.2104-.2646c.2373-.2982,.3525-.6576,.3458-1.0238-.034-.834-.7392-1.5186-1.5799-1.5186h-.244l-.0948-.2373c-.1222-.6373-.6237-1.1393-1.2814-1.2747-.0882-.0136-.1764-.0273-.2712-.0273-.7798,0-1.4578,.5561-1.5935,1.302l-.0476,.251-.2509-.0066h0c-.3934,0-.7459,.1288-1.0237,.3392-.6713,.5355-.7934,1.5393-.2646,2.2103l.2033,.2576-.2982,.1764c-.1967,.1288-.3728,.2915-.5289,.5019-.2646,.3727-.3661,.8204-.2849,1.2747s.3322,.861,.7119,1.1323c.7525,.5289,1.8851,.3392,2.4273-.427l.3731-.4949,.0003-.0003Z" fill="#696"/></g></g></g></g><g id="NonConTrees-7"><g id="roughGrassAndNonconiferousTreesFillSymbol-7"><g id="nonconiferousTreesFillSymbol-7"><g id="nonconiferousTreeFillSymbol-7"><g id="nonconiferousTreeGeometry-7"><path d="M194.4274,248.4101h-.5695l-1.2138-4.8615c-.8137,.8747-1.9663,1.3766-3.1731,1.3766-.902,0-1.7766-.2779-2.5155-.7934-1.9663-1.3899-2.4342-4.109-1.0511-6.0753,.2849-.4001,.6307-.7458,1.0374-1.0374-.5289-.7865-.7525-1.7427-.6373-2.6918,.1288-1.0647,.6643-2.0272,1.512-2.6848,.6916-.5425,1.5053-.8407,2.373-.868,.4543-1.7969,2.0814-3.0716,3.9462-3.0716,.2646,0,.5289,.034,.7865,.0746,1.5729,.3052,2.8003,1.4714,3.1867,2.9971,2.1224,.0609,3.8308,1.7493,3.8986,3.8986,.027,.834-.2104,1.6545-.6779,2.3527,1.8442,1.3087,2.4003,3.8514,1.2205,5.8177-.7865,1.295-2.2172,2.1088-3.7359,2.1088-.7865,0-1.5662-.2103-2.2512-.6373-.3458-.1967-.651-.4476-.9223-.7392l-1.2138,4.8342,.0004,.0003Zm-1.512-6.2041l1.2271,4.9158,1.2271-4.9021,.3727,.5152c.3052,.4407,.6916,.7934,1.1323,1.0511,.5897,.3661,1.2681,.5491,1.9394,.5491,1.3087,0,2.5561-.7052,3.241-1.8309,1.0713-1.7766,.4949-4.0953-1.2747-5.1804l-.2916-.1694,.2104-.2646c.4949-.6373,.7525-1.4308,.7255-2.2309-.0679-1.8578-1.5596-3.3226-3.4307-3.3226l-.3727,.0136-.0406-.244c-.2646-1.4171-1.3629-2.5018-2.7801-2.7664-.2236-.0542-.4476-.0746-.6779-.0746-1.6681,0-3.1055,1.2001-3.424,2.841l-.0476,.244-.3525-.0136c-.7728,0-1.512,.2576-2.129,.7322-.7185,.5694-1.1799,1.3766-1.2883,2.2985-.1085,.9086,.1424,1.8035,.7052,2.5088l.2034,.2646-.2849,.1694c-.4543,.2779-.8407,.6373-1.1323,1.0577-1.2001,1.695-.7934,4.0548,.902,5.2549,.644,.4407,1.3969,.6916,2.1766,.6916,1.2271,0,2.38-.5968,3.0783-1.6002l.3864-.5086-.0004,.0007Z" fill="#696"/></g></g><g id="smallNonconiferousTreeFillSymbol-7"><path d="M207.4187,257.9028l-.5355-2.1833c-.7934,.678-2.0069,.7322-2.8613,.1354-1.0441-.7255-1.295-2.19-.5628-3.2477,.1424-.183,.2849-.3458,.4407-.4746-.5222-.9152-.3188-2.1088,.5289-2.773,.3525-.2576,.7525-.4204,1.1662-.4543,.3188-1.0171,1.3223-1.695,2.5018-1.5186,.8204,.1628,1.4714,.7458,1.695,1.5186,1.0983,.1221,1.946,.9898,1.9866,2.0815,.0136,.4204-.0948,.8067-.2916,1.1525,.8883,.7119,1.1393,2.0139,.5425,3.0173-.427,.7052-1.1799,1.1393-2.0002,1.1393-.427,0-.8341-.1288-1.2001-.3458-.1152-.0679-.2034-.1425-.3118-.2237l-.5425,2.19-.5562-.0136h.0004Zm-.2576-3.4716l.5425,2.1697,.5425-2.1833,.3727,.5152c.1424,.1967,.3321,.3727,.5289,.4883,.2779,.1628,.5831,.251,.902,.251,.6104,0,1.1662-.3189,1.4851-.8477,.4882-.8204,.2236-1.8917-.5968-2.4003l-.2779-.1628,.1967-.2646c.2306-.2915,.3594-.651,.3458-1.0238-.027-.834-.7322-1.5186-1.5729-1.5186h-.2373l-.1018-.2307c-.1288-.644-.6307-1.1393-1.2747-1.2747-.0948-.0203-.183-.0339-.2779-.0339-.7798,0-1.4578,.5561-1.5866,1.3087l-.0542,.251-.251-.0203h0c-.4,0-.7322,.1288-1.0171,.3392-.6779,.5425-.7934,1.5393-.2646,2.2103l.1967,.2576-.3052,.1897c-.183,.1288-.3727,.2849-.5289,.4949-.5425,.7662-.3594,1.8512,.434,2.4069,.7392,.5355,1.8714,.3458,2.414-.427l.3864-.4949-.0003,.0003Z" fill="#696"/></g></g></g></g><g id="NonConTrees-8"><g id="roughGrassAndNonconiferousTreesFillSymbol-8"><g id="nonconiferousTreesFillSymbol-8"><g id="nonconiferousTreeFillSymbol-8"><g id="nonconiferousTreeGeometry-8"><path d="M296.1328,241.6299h-.5694l-1.2205-4.8615c-.8067,.8747-1.9596,1.3766-3.1731,1.3766-.9019,0-1.7766-.2779-2.5154-.7934-1.9596-1.3899-2.4272-4.109-1.0441-6.0753,.2712-.4,.6373-.7459,1.0308-1.0374-.5222-.7865-.7458-1.7426-.6373-2.6919,.1354-1.0647,.6713-2.0272,1.5186-2.6849,.678-.5289,1.512-.8341,2.3664-.861,.5289-2.0545,2.5697-3.3764,4.7394-3.0037,1.5596,.3052,2.7934,1.4714,3.1867,2.9971,2.129,.0609,3.8307,1.7493,3.8986,3.8986,.0273,.8341-.2103,1.6544-.678,2.3527,1.8442,1.3086,2.4003,3.8514,1.2205,5.8177-.7865,1.295-2.2172,2.1088-3.7359,2.1088-.7865,0-1.5663-.2103-2.2512-.6373-.3458-.1967-.651-.4476-.9289-.7392l-1.2068,4.8342h-.0003Zm-1.5186-6.2041l1.2341,4.9224,1.2341-4.9091,.3727,.5152c.3119,.4407,.7052,.7934,1.1323,1.0511,.5898,.3661,1.268,.5491,1.9394,.5491,1.3087,0,2.5561-.7052,3.241-1.8309,1.0713-1.7766,.4949-4.0953-1.2747-5.1803l-.2915-.1694,.2103-.2646c.4949-.6373,.7525-1.4308,.7255-2.2309-.0679-1.8578-1.5596-3.3225-3.4307-3.3225l-.3727,.0136-.0406-.2439c-.2646-1.4171-1.3629-2.5018-2.7664-2.7664-1.8984-.4067-3.7495,.902-4.0953,2.7664l-.0476,.2439-.3594-.0136c-.7662,0-1.5323,.2646-2.1224,.7322-.7185,.5695-1.1865,1.3765-1.2884,2.2985-.1151,.9086,.1425,1.8036,.7052,2.5088l.2033,.2646-.2849,.1694c-.4476,.2779-.8407,.651-1.1323,1.0577-1.1935,1.695-.7865,4.0548,.9152,5.2549,.6373,.4407,1.3899,.6916,2.1697,.6916,1.2271,0,2.38-.5968,3.0716-1.5866l.3528-.5222-.0004,.0011Z" fill="#696"/></g></g><g id="smallNonconiferousTreeFillSymbol-8"><path d="M309.1241,251.1222l-.5355-2.1833c-.7934,.678-2.0069,.7322-2.8612,.1354-1.0441-.7255-1.295-2.19-.5628-3.2477,.1425-.183,.2849-.3458,.4407-.4746-.5222-.9152-.3189-2.1088,.5289-2.773,.3525-.2576,.7525-.4204,1.1662-.4543,.3189-1.0171,1.3223-1.7087,2.5018-1.5186,.8204,.1628,1.4714,.7458,1.695,1.5186,1.0983,.1221,1.946,.9898,1.9866,2.0815,.0136,.4204-.0948,.8067-.2915,1.1525,.8883,.7119,1.1393,2.0139,.5425,3.0173-.427,.7052-1.1798,1.1393-2.0003,1.1393-.427,0-.834-.1288-1.2002-.3458-.1151-.0679-.2033-.1425-.3119-.2237l-.5425,2.19-.5561-.0136h.0004Zm-.2576-3.4716l.5425,2.1697,.5425-2.1833,.3727,.5152c.1425,.1967,.3322,.3727,.5289,.4883,.8067,.4883,1.9054,.1967,2.3867-.5968,.4883-.8204,.2237-1.8917-.5968-2.4003l-.2779-.1628,.1967-.2646c.2307-.2915,.3594-.651,.3458-1.0238-.0273-.834-.7322-1.5186-1.5729-1.5186h-.2373l-.1018-.2307c-.1288-.644-.6307-1.1393-1.2747-1.2747-.0948-.0203-.183-.0339-.2779-.0339-.7798,0-1.4577,.5561-1.5866,1.3087l-.0543,.251-.251-.0203h0c-.4001,0-.7322,.1288-1.0171,.3392-.678,.5425-.7934,1.5393-.2646,2.2103l.1967,.2576-.3052,.1897c-.183,.1288-.3727,.2849-.5289,.4949-.5425,.7662-.3594,1.8512,.434,2.4069,.7322,.5425,1.8714,.3458,2.4139-.427l.3864-.4949v.0003Z" fill="#696"/></g></g></g></g><g id="NonConTrees-9"><g id="roughGrassAndNonconiferousTreesFillSymbol-9"><g id="nonconiferousTreesFillSymbol-9"><g id="nonconiferousTreeFillSymbol-9"><g id="nonconiferousTreeGeometry-9"><path d="M275.7919,322.994h-.5694l-1.2205-4.8615c-.8067,.8747-1.9596,1.3766-3.1731,1.3766-.9019,0-1.7766-.2779-2.5154-.7934-1.9596-1.3899-2.4272-4.109-1.0441-6.0753,.2712-.4001,.6373-.7458,1.0308-1.0374-.5222-.7865-.7458-1.7427-.6373-2.6918,.1354-1.0647,.6713-2.0272,1.5186-2.6848,.678-.5289,1.512-.834,2.3664-.861,.5289-2.0545,2.5494-3.4038,4.7394-3.0037,1.5596,.3052,2.7934,1.4714,3.1867,2.9971,2.129,.0609,3.8307,1.7493,3.8986,3.8986,.0273,.834-.2103,1.6545-.678,2.3527,1.8442,1.3087,2.4003,3.8514,1.2205,5.8177-.7865,1.295-2.2172,2.1088-3.7359,2.1088-.7865,0-1.5663-.2103-2.2512-.6373-.3458-.1967-.651-.4476-.9289-.7392l-1.2068,4.8342h-.0003Zm-1.5186-6.2041l1.2341,4.9224,1.2341-4.9091,.3727,.5152c.3119,.4407,.7052,.7934,1.1323,1.0511,.5898,.3661,1.268,.5491,1.9394,.5491,1.3087,0,2.5561-.7052,3.241-1.8309,1.0713-1.7766,.4949-4.0953-1.2747-5.1804l-.2915-.1694,.2103-.2646c.4949-.6373,.7525-1.4308,.7255-2.2309-.0679-1.8578-1.5596-3.3226-3.4307-3.3226l-.3727,.0136-.0406-.244c-.2646-1.4171-1.3629-2.5018-2.7664-2.7664-1.8917-.3934-3.7495,.9019-4.0953,2.7664l-.0476,.244-.3594-.0136c-.7662,0-1.5323,.2646-2.1224,.7322-.7185,.5694-1.1865,1.3766-1.2884,2.2985-.1151,.9086,.1425,1.8035,.7052,2.5088l.2033,.2646-.2849,.1694c-.4476,.2779-.8407,.651-1.1323,1.0577-1.1935,1.695-.7865,4.0548,.9152,5.2549,.6373,.4407,1.3899,.6916,2.1697,.6916,1.2271,0,2.38-.5968,3.0716-1.5866l.3528-.5222-.0004,.0011Z" fill="#696"/></g></g><g id="smallNonconiferousTreeFillSymbol-9"><path d="M288.7828,332.4864l-.5355-2.1833c-.7934,.678-2.0069,.7322-2.8612,.1354-1.0441-.7255-1.295-2.19-.5628-3.2477,.1425-.183,.2849-.3458,.4407-.4746-.5222-.9152-.3189-2.1088,.5289-2.773,.3525-.2576,.7525-.4204,1.1662-.4543,.2779-.9086,1.1393-1.5526,2.129-1.5526,.1221,0,.244,.0136,.3864,.0339,.8204,.1628,1.4644,.7458,1.695,1.5186,1.085,.1221,1.9324,.9898,1.9729,2.0815,.0136,.4204-.0812,.8067-.2915,1.1525,.9019,.7119,1.1525,2.0139,.5425,3.0173-.427,.7052-1.1662,1.1393-1.9866,1.1393-.427,0-.834-.1288-1.2068-.3458-.1151-.0679-.2103-.1425-.3119-.2237l-.5425,2.19-.5628-.0136h0Zm-.2576-3.4716l.5425,2.1697,.5425-2.1833,.3727,.5152c.1425,.1967,.3322,.3727,.5289,.4883,.2779,.1628,.5831,.251,.9019,.251,.6104,0,1.1662-.3189,1.4851-.8477,.4883-.8204,.2237-1.8917-.5968-2.4003l-.2779-.1628,.1967-.2646c.2307-.2915,.3594-.651,.3458-1.0238-.0273-.834-.7322-1.5186-1.5729-1.5186h-.2373l-.1018-.2307c-.1288-.644-.6307-1.1393-1.2747-1.2747-.0948-.0203-.183-.0339-.2779-.0339-.7798,0-1.4577,.5561-1.5866,1.3087l-.0543,.251-.251-.0203h0c-.4001,0-.7322,.1288-1.0171,.3392-.678,.5425-.7934,1.5393-.2646,2.2103l.1967,.2576-.3052,.1897c-.183,.1288-.3727,.2849-.5289,.4949-.5425,.7662-.3594,1.8512,.434,2.4069,.7322,.5425,1.8714,.3458,2.4139-.427l.3864-.4949-.0003,.0003Z" fill="#696"/></g></g></g></g><g id="NonConTrees-10"><g id="roughGrassAndNonconiferousTreesFillSymbol-10"><g id="nonconiferousTreesFillSymbol-10"><g id="nonconiferousTreeFillSymbol-10"><g id="nonconiferousTreeGeometry-10"><path d="M45.2598,322.8379h-.5694l-1.2138-4.8681c-.8138,.8813-1.9663,1.3766-3.1731,1.3766-.9019,0-1.7766-.2779-2.5155-.7934-1.9663-1.3832-2.4343-4.102-1.051-6.0753,.2849-.4001,.6307-.7392,1.0374-1.0308-.5289-.7934-.7525-1.7493-.6374-2.6985,.1288-1.0577,.6643-2.0206,1.512-2.6848,.6916-.5425,1.5054-.834,2.373-.861,.4543-1.8035,2.0814-3.0716,3.9463-3.0716,.2646,0,.5289,.0273,.7864,.0746,1.5729,.3052,2.8004,1.4714,3.1867,2.9971,2.1357,.0543,3.8378,1.7493,3.9123,3.892,.0269,.834-.2103,1.6611-.6779,2.3597,1.8442,1.3087,2.4003,3.8514,1.2138,5.8107-.7798,1.295-2.2173,2.1088-3.7293,2.1088-.7934,0-1.5729-.2103-2.2578-.6373-.3322-.1967-.651-.4407-.9223-.7322l-1.2204,4.8342v-.0004Zm-1.512-6.2041l1.2271,4.9158,1.2271-4.9021,.3727,.5222c.2982,.427,.6916,.7865,1.1256,1.0511,.5897,.3594,1.268,.5425,1.9527,.5425,1.3087,0,2.5494-.7052,3.2274-1.8239,1.0713-1.7832,.5019-4.0953-1.2814-5.187l-.2849-.1694,.2033-.2646c.5019-.6307,.7595-1.4238,.7392-2.2239-.0609-1.8375-1.6002-3.3226-3.4307-3.3226l-.3661,.0136-.0476-.251c-.2713-1.4171-1.3559-2.4951-2.7731-2.7664-.2236-.0543-.4477-.0679-.6779-.0679-1.6681,0-3.1056,1.1935-3.4241,2.8343l-.0476,.251-.3525-.0136c-.7728,0-1.512,.251-2.1291,.7322-.7186,.5694-1.1799,1.3766-1.2884,2.2985-.1085,.9019,.1424,1.8035,.7052,2.5088l.2033,.2646-.2849,.1694c-.4543,.2779-.8407,.644-1.1322,1.0577-1.2002,1.695-.7934,4.0614,.9019,5.2549,.644,.4476,1.3969,.6916,2.1766,.6916,1.2271,0,2.38-.5968,3.0783-1.5935l.3798-.5222Z" fill="#696"/></g></g><g id="smallNonconiferousTreeFillSymbol-10"><path d="M58.2511,332.3236l-.5492-2.1833c-.7798,.6713-2.0002,.7392-2.8546,.1354-.5085-.3661-.8477-.9019-.9562-1.512-.1085-.6237,.0269-1.2341,.3864-1.7493,.1424-.1694,.2849-.3322,.4477-.4609-.5222-.9152-.3118-2.1088,.5355-2.78,.3391-.251,.7459-.4204,1.1662-.4476,.3118-1.0238,1.3766-1.695,2.5018-1.5256,.8204,.1694,1.4644,.7525,1.695,1.5256,1.112,.1151,1.9394,.9831,1.9799,2.0748,.0136,.4204-.0882,.8067-.2915,1.1595,.8949,.7119,1.1459,2.0069,.5425,3.0173-.427,.7052-1.1729,1.1323-1.9932,1.1323-.4204,0-.8407-.1288-1.2002-.3392-.1085-.0679-.2103-.1425-.3052-.217l-.5355,2.1697h-.5694v.0003Zm-.2576-3.4646l.5425,2.1767,.5492-2.2036,.3727,.5425c.1288,.183,.3118,.3594,.5222,.4812,.2713,.1628,.5764,.244,.895,.244,.6171,0,1.1729-.3189,1.4917-.8477,.4882-.8137,.2236-1.8851-.5967-2.3933l-.2982-.1628,.2103-.2646c.2373-.3052,.3525-.651,.3458-1.0238-.0339-.834-.7392-1.5186-1.5799-1.5186h-.244l-.0948-.2373c-.1221-.6373-.6237-1.1393-1.2814-1.2747-.0882-.0273-.1764-.0339-.2713-.0339-.7798,0-1.4578,.5491-1.5936,1.302l-.0476,.251-.251-.0136h0c-.3934,0-.7459,.1288-1.0237,.3392-.6713,.5355-.7934,1.5323-.2646,2.2036l.2033,.2646-.2849,.1967c-.1967,.1221-.3727,.2779-.5289,.4883-.2646,.3727-.3661,.827-.2849,1.2813s.3322,.861,.7119,1.1256c.7525,.5425,1.8851,.3458,2.4272-.4204l.3727-.5019,.0007-.0003Z" fill="#696"/></g></g></g></g><g id="NonConTrees-11"><g id="roughGrassAndNonconiferousTreesFillSymbol-11"><g id="nonconiferousTreesFillSymbol-11"><g id="nonconiferousTreeFillSymbol-11"><g id="nonconiferousTreeGeometry-11"><path d="M262.2311,160.2654h-.5694l-1.2205-4.8549c-.8067,.868-1.9596,1.3765-3.1731,1.3765-.9019,0-1.7766-.2779-2.5154-.8001-1.9596-1.3898-2.4272-4.1156-1.0441-6.0753,.2712-.3934,.6373-.7525,1.0308-1.0441-1.1393-1.729-.7798-4.0817,.8813-5.3837,.678-.5355,1.512-.8407,2.3664-.861,.5222-2.0475,2.5697-3.4307,4.7394-2.9971,1.5596,.2982,2.7934,1.4644,3.1867,2.9971,2.129,.0609,3.8307,1.7427,3.8986,3.892,.0273,.8341-.2103,1.6611-.678,2.3664,1.8375,1.3087,2.4003,3.8444,1.2205,5.8107-.7865,1.295-2.2172,2.1088-3.7359,2.1088-.7865,0-1.5663-.2236-2.2512-.6373-.3458-.1967-.651-.4476-.9289-.7392l-1.2068,4.8412h-.0003Zm-1.5186-6.2041l1.2341,4.9091,1.2341-4.8955,.3727,.5222c.3119,.4407,.7052,.7934,1.1323,1.0511,.5898,.3594,1.268,.5562,1.9394,.5562,1.3087,0,2.5561-.6983,3.241-1.8238,1.0713-1.7766,.4949-4.102-1.2747-5.1803l-.2915-.1694,.2103-.2646c.4949-.6373,.7525-1.4375,.7255-2.2376-.0679-1.8644-1.5596-3.3222-3.4307-3.3222l-.3727,.0066-.0406-.2439c-.2646-1.4102-1.3629-2.5018-2.7664-2.7731-1.8917-.3727-3.7495,.9086-4.0953,2.7731l-.0476,.2439-.3594-.0066c-.7662,0-1.5323,.2646-2.1224,.7392-1.4917,1.1662-1.756,3.3292-.5898,4.8139l.1967,.2576-.2779,.1764c-.4476,.2779-.8407,.644-1.1393,1.0577-1.1935,1.695-.7798,4.0548,.9222,5.2549,.6373,.4543,1.3899,.6916,2.163,.6916,1.2341,0,2.3867-.5968,3.0716-1.6002l.3661-.5355-.0007-.0007Z" fill="#696"/></g></g><g id="smallNonconiferousTreeFillSymbol-11"><path d="M275.2221,169.7514l-.5355-2.1833c-.7934,.6643-2.0069,.7392-2.8612,.1222-1.0441-.7392-1.295-2.1899-.5628-3.241,.1425-.183,.2849-.3392,.4407-.468-.5222-.9153-.3189-2.1088,.5289-2.7801,.3525-.2646,.7525-.4203,1.1662-.4543,.2779-.9153,1.1393-1.5596,2.129-1.5596,.1221,0,.244,.0136,.3864,.034,.8204,.1694,1.4644,.7525,1.695,1.5257,1.085,.1152,1.9324,.9968,1.9729,2.0748,.0136,.4137-.0812,.8067-.2779,1.1525,.8883,.7119,1.1393,2.0069,.5289,3.0173-.427,.7052-1.1662,1.1323-1.9866,1.1323-.427,0-.834-.1152-1.2068-.3392-.1151-.0679-.2103-.1424-.3119-.2236l-.5425,2.1833-.5628,.0066v.0003Zm-.2576-3.4646l.5425,2.1766,.5425-2.19,.3727,.5289c.1425,.183,.3322,.3594,.5289,.4882,.8067,.4882,1.9054,.2034,2.3867-.5968,.4883-.8271,.2237-1.8918-.5968-2.3867l-.2779-.1694,.1967-.2646c.2307-.2982,.3594-.651,.3458-1.0237-.0273-.8341-.7322-1.5186-1.5729-1.5186h-.2373l-.1018-.2373c-.1288-.644-.6307-1.1459-1.2747-1.2814-.0948-.0136-.183-.0203-.2779-.0203-.7798,0-1.4577,.5562-1.5866,1.3087l-.0543,.251-.251-.0066h0c-.4001,0-.7322,.1222-1.0171,.3392-.678,.5355-.7934,1.5257-.2646,2.2036l.1967,.2646-.3052,.1561c-.183,.1152-.3727,.2849-.5289,.4949-.5425,.7728-.3594,1.8578,.434,2.414,.7322,.5425,1.8714,.3392,2.4139-.4137l.3864-.5152v-.0014Z" fill="#696"/></g></g></g></g></svg>