<?xml version="1.0" encoding="UTF-8"?><svg id="Layer_2" xmlns="http://www.w3.org/2000/svg" width="350" height="350" viewBox="0 0 350 350"><g id="Heath"><rect x="174.8013" y="24.5506" width=".63" height="4.0128" transform="translate(-1.7033 36.8431) rotate(-11.9527)" fill="#696"/><rect x="178.3042" y="20.128" width=".63" height="7.4168" transform="translate(-1.574 21.988) rotate(-7.0134)" fill="#696"/><rect x="182.1738" y="18.0513" width=".63" height="8.9743" transform="translate(-.7826 7.6479) rotate(-2.3957)" fill="#696"/><rect x="185.9673" y="17.7824" width=".63" height="9.1773" fill="#696"/><rect x="189.7697" y="18.0431" width=".63" height="8.9744" fill="#696"/><rect x="190.2382" y="23.5117" width="7.4176" height=".6303" transform="translate(145.3203 213.0849) rotate(-82.5943)" fill="#696"/><line x1="197.875" y1="24.5839" x2="197.0493" y2="28.5025" fill="none"/></g><g id="Heath-2"><rect x="297.6395" y="24.2691" width=".6447" height="4.0128" transform="translate(1.0517 62.5524) rotate(-12.0055)" fill="#696"/><rect x="301.1857" y="19.8506" width=".63" height="7.4169" transform="translate(-.622 36.9604) rotate(-7.0078)" fill="#696"/><rect x="305.0515" y="17.7667" width=".623" height="8.974" transform="translate(-.6633 12.7838) rotate(-2.3957)" fill="#696"/><rect x="308.8491" y="17.4999" width=".6373" height="9.1773" fill="#696"/><rect x="312.6375" y="17.768" width=".623" height="8.9744" fill="#696"/><rect x="313.102" y="23.2457" width="7.4176" height=".6373" transform="translate(252.8588 334.7468) rotate(-82.6405)" fill="#696"/><line x1="320.7498" y1="24.3015" x2="319.9168" y2="28.2271" fill="none"/></g><g id="Heath-3"><rect x="254.1832" y="82.2065" width=".6373" height="4.0127" transform="translate(-11.9502 54.7798) rotate(-12.0055)" fill="#696"/><rect x="257.7134" y="77.7927" width=".63" height="7.4169" transform="translate(-8.0207 32.1155) rotate(-7.0134)" fill="#696"/><rect x="261.5955" y="75.7135" width=".623" height="8.974" transform="translate(-3.1235 11.018) rotate(-2.3957)" fill="#696"/><rect x="265.3896" y="75.4459" width=".6373" height="9.1774" fill="#696"/><rect x="269.1776" y="75.714" width=".623" height="8.9744" fill="#696"/><rect x="269.6526" y="81.1923" width="7.4172" height=".6303" transform="translate(158.5865 342.6523) rotate(-82.8771)" fill="#696"/><line x1="277.2903" y1="82.2475" x2="276.4573" y2="86.1734" fill="none"/></g><g id="Heath-4"><rect x="65.8771" y="96.9041" width=".63" height="4.0127" transform="translate(-19.0497 15.8531) rotate(-11.9527)" fill="#696"/><rect x="69.3954" y="92.4928" width=".63" height="7.4169" transform="translate(-11.2162 9.2236) rotate(-7.0078)" fill="#696"/><rect x="73.2621" y="90.4011" width=".63" height="8.9744" transform="translate(-3.9021 3.1585) rotate(-2.3957)" fill="#696"/><rect x="77.0501" y="90.1428" width=".63" height="9.1774" fill="#696"/><rect x="80.8455" y="90.4035" width=".63" height="8.9744" fill="#696"/><rect x="81.3173" y="95.8834" width="7.4172" height=".63" transform="translate(-20.9731 168.6397) rotate(-82.8771)" fill="#696"/><line x1="88.9581" y1="96.944" x2="88.1251" y2="100.8626" fill="none"/></g><g id="Heath-5"><rect x="29.6589" y="168.4186" width=".63" height="4.0127" transform="translate(-34.6458 9.9027) rotate(-11.9527)" fill="#696"/><rect x="33.1807" y="163.9984" width=".63" height="7.4168" transform="translate(-20.2266 5.3447) rotate(-7.0134)" fill="#696"/><rect x="37.047" y="161.9144" width=".63" height="8.9743" transform="translate(-6.923 1.7072) rotate(-2.3957)" fill="#696"/><rect x="40.8338" y="161.6555" width=".63" height="9.1774" fill="#696"/><rect x="44.6292" y="161.9162" width=".63" height="8.9743" fill="#696"/><rect x="45.1007" y="167.3956" width="7.4172" height=".6303" transform="translate(-123.6398 195.4696) rotate(-82.9176)" fill="#696"/><line x1="52.7415" y1="168.457" x2="51.9089" y2="172.3756" fill="none"/></g><g id="Heath-6"><rect x="65.8758" y="263.5272" width=".63" height="4.0054" transform="translate(-53.6586 19.5147) rotate(-11.9763)" fill="#696"/><rect x="69.4011" y="259.109" width=".623" height="7.4242" transform="translate(-31.5195 10.4586) rotate(-7.0021)" fill="#696"/><rect x="73.265" y="257.0479" width=".63" height="8.967" transform="translate(-10.8679 3.3043) rotate(-2.3957)" fill="#696"/><rect x="77.0501" y="256.7669" width=".63" height="9.1774" fill="#696"/><rect x="80.8455" y="257.042" width=".63" height="8.967" fill="#696"/><rect x="81.3087" y="262.5286" width="7.4169" height=".623" transform="translate(-185.7743 317.4741) rotate(-83.4826)" fill="#696"/><line x1="88.9581" y1="263.5681" x2="88.1251" y2="267.4867" fill="none"/></g><g id="Heath-7"><rect x="189.0474" y="248.8059" width=".6303" height="3.9984" transform="translate(-47.9825 44.8228) rotate(-11.9931)" fill="#696"/><rect x="192.5399" y="244.3605" width=".623" height="7.4245" transform="translate(-28.7118 25.269) rotate(-6.9786)" fill="#696"/><rect x="196.401" y="242.3243" width=".63" height="8.967" transform="translate(-10.1448 8.4386) rotate(-2.3957)" fill="#696"/><rect x="200.2" y="242.0414" width=".6373" height="9.1774" fill="#696"/><rect x="203.9884" y="242.3091" width=".623" height="8.967" fill="#696"/><rect x="204.4601" y="247.7915" width="7.4172" height=".623" transform="translate(-61.8505 426.9295) rotate(-83.5174)" fill="#696"/><line x1="212.1007" y1="248.8499" x2="211.2677" y2="252.7685" fill="none"/></g><g id="Heath-8"><rect x="297.667" y="241.5528" width=".6373" height="4.0058" transform="translate(-44.195 67.4101) rotate(-12.0223)" fill="#696"/><rect x="301.1841" y="237.1394" width=".623" height="7.4169" transform="translate(-26.9489 38.2855) rotate(-6.9559)" fill="#696"/><rect x="305.0505" y="235.0654" width=".623" height="8.974" transform="translate(-9.7466 12.9737) rotate(-2.3957)" fill="#696"/><rect x="308.8491" y="234.7981" width=".6373" height="9.1774" fill="#696"/><rect x="312.6375" y="235.0659" width=".623" height="8.967" fill="#696"/><rect x="313.1005" y="240.5569" width="7.4242" height=".623" transform="translate(44.9726 531.5415) rotate(-84.1628)" fill="#696"/><line x1="320.7498" y1="241.6067" x2="319.9168" y2="245.5253" fill="none"/></g><g id="Heath-9"><rect x="275.9291" y="328.4721" width=".6373" height="4.0058" transform="translate(-62.7764 64.7887) rotate(-12.0223)" fill="#696"/><rect x="279.4507" y="324.0586" width=".63" height="7.4242" transform="translate(-37.8705 36.5497) rotate(-7.0021)" fill="#696"/><rect x="283.3435" y="321.9849" width=".623" height="8.9674" transform="translate(-13.6498 12.3799) rotate(-2.4415)" fill="#696"/><rect x="287.1194" y="321.7171" width=".6373" height="9.1774" fill="#696"/><rect x="290.9078" y="321.9852" width=".623" height="8.967" fill="#696"/><rect x="291.3669" y="327.4758" width="7.4242" height=".623" transform="translate(-61.0188 587.9996) rotate(-84.1628)" fill="#696"/><line x1="299.0201" y1="328.526" x2="298.187" y2="332.4446" fill="none"/></g><g id="Heath-10"><rect x="29.6606" y="328.3226" width=".63" height="4.0054" transform="translate(-67.8924 13.4102) rotate(-11.9763)" fill="#696"/><rect x="33.1897" y="323.8982" width=".623" height="7.4242" transform="translate(-39.6877 6.5274) rotate(-7.0021)" fill="#696"/><rect x="37.0444" y="321.8402" width=".63" height="8.967" transform="translate(-13.6079 1.8469) rotate(-2.3957)" fill="#696"/><rect x="40.8338" y="321.5652" width=".63" height="9.1843" fill="#696"/><rect x="44.6292" y="321.826" width=".63" height="8.9744" fill="#696"/><rect x="45.0848" y="327.3146" width="7.4242" height=".623" transform="translate(-282.2506 338.9204) rotate(-83.4826)" fill="#696"/><line x1="52.7415" y1="328.3521" x2="51.9089" y2="332.2707" fill="none"/></g><g id="Heath-11"><rect x="261.4273" y="154.633" width=".6373" height="4.0127" transform="translate(-26.8569 57.8707) rotate(-12.0055)" fill="#696"/><rect x="264.9587" y="150.2221" width=".63" height="7.4168" transform="translate(-16.8103 33.5421) rotate(-7.0134)" fill="#696"/><rect x="268.8541" y="148.1295" width=".623" height="8.9747" transform="translate(-6.0308 11.1637) rotate(-2.3497)" fill="#696"/><rect x="272.6329" y="147.8788" width=".6373" height="9.1774" fill="#696"/><rect x="276.4209" y="148.1469" width=".623" height="8.9743" fill="#696"/><rect x="276.8926" y="153.6309" width="7.4172" height=".6303" transform="translate(93.0492 413.2927) rotate(-82.8771)" fill="#696"/><line x1="284.5336" y1="154.6803" x2="283.7005" y2="158.6059" fill="none"/></g></svg>