<?xml version="1.0" encoding="UTF-8"?><svg id="svg2" xmlns="http://www.w3.org/2000/svg" width="48" height="48" viewBox="0 0 48 48"><path d="M43.0633,19.5666c-2.3431,0-4.2571,1.8334-4.4078,4.1449h-14.367V9.3307c2.3089-.1534,4.1449-2.0598,4.1449-4.4006,0-2.4405-1.9896-4.4301-4.4367-4.4301s-4.4301,1.9896-4.4301,4.4301c0,2.3431,1.8333,4.2512,4.1449,4.4013v14.3801H9.3314c-.1501-2.3115-2.0582-4.1449-4.4012-4.1449-2.4406,0-4.4301,1.9829-4.4301,4.4301s1.983,4.4367,4.4301,4.4367c2.3472,0,4.2477-1.836,4.4006-4.1449h14.3808v14.3669c-2.3116,.1506-4.1449,2.0647-4.1449,4.4078,0,2.4405,1.9829,4.4367,4.4301,4.4367s4.4367-1.9962,4.4367-4.4367c0-2.3409-1.836-4.2533-4.1449-4.4072v-14.3676h14.3676c.1539,2.3089,2.0663,4.1449,4.4072,4.1449,2.4406,0,4.4367-1.9896,4.4367-4.4367s-1.9962-4.4301-4.4367-4.4301ZM20.137,4.9301c0-2.1288,1.7309-3.8597,3.8597-3.8597s3.8531,1.731,3.8531,3.8597-1.7242,3.8597-3.8531,3.8597-3.8597-1.7309-3.8597-3.8597ZM4.9301,27.8498c-2.1288,0-3.8597-1.7243-3.8597-3.8531s1.7309-3.8597,3.8597-3.8597,3.8597,1.7309,3.8597,3.8597-1.7309,3.8531-3.8597,3.8531Zm22.9197,15.2135c0,2.1222-1.7242,3.8531-3.8531,3.8531s-3.8597-1.7309-3.8597-3.8531,1.7309-3.8531,3.8597-3.8531,3.8531,1.7309,3.8531,3.8531Zm15.2135-15.2135c-2.1222,0-3.8531-1.7243-3.8531-3.8531s1.7309-3.8597,3.8531-3.8597,3.8531,1.7309,3.8531,3.8597-1.7309,3.8531-3.8531,3.8531Z" fill="#717171"/></svg>