<?xml version="1.0" encoding="UTF-8"?><svg id="svg2" xmlns="http://www.w3.org/2000/svg" width="48" height="48" viewBox="0 0 48 48"><path d="M46.4174,35.037l-.2408-2.5884-.0278-.2507-3.4825-3.0228-3.5876-1.8876-.0203-.1462-6.8118-6.0735-3.4825-2.7164-3.9283-2.0059-3.8345-1.1529-1.236-1.3963-3.385-1.5741-2.6746-.8915-2.995-.1672-.0696-.0139-2.8417,.6129-2.6606,1.3094-2.2427,1.992-1.588,2.4099-.599,4.1094,.3065,3.8726,1.1005,3.7193,1.8666,3.3989,1.7816,2.0634-5.264,.4719,.1114,1.198,8.0237-.7104,8.0516,.0278,8.0933,.7523,9.8347,.4736,9.751-.7383,3.0367,.1951,.0975-1.198-1.0826-.0722Zm-11.8027,.6016l-9.751-.4736-8.1212-.7523-8.163-.0278-1.3376,.1199-2.2703-2.6134-1.7552-3.1761-1.0168-3.4686-.2925-3.6357,.5015-3.5939,1.3512-2.1174,1.992-1.783,2.3681-1.1841,2.6049-.5572,2.6746,.1393,2.5352,.8497,3.0507,1.3512,1.1423,1.1841,.6686,1.5462,.0557,1.6995-.5573,1.6855,1.1562,.3762,.6269-1.8945-.0696-2.0198-.2516-.6124,2.6196,.7795,3.7333,1.9084,3.385,2.6328,5.8228,5.0009,.404,.3065,.0139,.0279,.209,.3204,.0557,.4318-.1532,.3761-2.187,1.8945-2.6049,1.0587-2.7582,.2507-2.8278-.6268-.2508,1.184,2.995,.6686,3.0507-.2646,2.9393-1.198,2.4099-2.0059,.3482-.4597,.0803-.3313,2.9843,1.5432,2.9532,2.6189,.218,2.1588-.8309-.0554-9.751,.7383Z" fill="#666"/></svg>