<?xml version="1.0" encoding="UTF-8"?><svg id="svg2" xmlns="http://www.w3.org/2000/svg" width="21.0968" height="48" viewBox="0 0 21.0968 48"><path d="M10.8735,8.5394V1.8593c1.5574,2.4117,3.7227,4.3232,6.3457,5.5605l.2798-.6051c-2.8514-1.3463-5.1583-3.517-6.6634-6.2928l-.2874-.5219-.2874,.5294c-1.5051,2.7682-3.812,4.9465-6.6635,6.2852l.2798,.5975h.0002c2.6118-1.228,4.7804-3.1415,6.3381-5.5424v6.6837c-1.921,3.8369-5.4102,6.6404-9.5752,7.7004l.1588,.6353c3.9677-1.0063,7.3254-3.5409,9.4164-7.009v14.1199h.658V9.8672c2.091,3.4749,5.4586,6.0143,9.4242,7.0219l.1588-.6353c-4.1702-1.0613-7.6561-3.8702-9.583-7.7144Z" fill="#bababa"/></svg>