<?xml version="1.0" encoding="UTF-8"?><svg id="svg2" xmlns="http://www.w3.org/2000/svg" width="20.9419" height="48" viewBox="0 0 20.9419 48"><path d="M18.4622,10.8567c.8799-1.3312,.9928-3.0536,.2632-4.4902-.7446-1.4742-2.2113-2.4067-3.8585-2.4519-.4964-1.9931-2.309-3.4146-4.3924-3.4146s-3.8961,1.4215-4.3999,3.4222c-1.6472,.0452-3.1138,.9778-3.8585,2.4519-.7296,1.4366-.6168,3.159,.2632,4.4902C.9902,11.9173,.208,13.7299,.4938,15.5651c.3159,1.9554,1.76,3.5049,3.6855,3.9562,1.6848,.3836,3.4749-.1805,4.6331-1.399l1.3463,5.3777h.6318l1.3463-5.3853c1.1508,1.226,2.9483,1.775,4.6256,1.399,1.9255-.4513,3.377-2.0082,3.6854-3.9562,.2858-1.8352-.4888-3.6478-1.9855-4.7008h0Zm1.3389,4.603c-.2632,1.6923-1.5193,3.0311-3.1815,3.4222-1.6622,.3911-3.3996-.2933-4.3698-1.6622l-.4138-.5867h-.0002l-1.3613,5.4454-1.3613-5.4379-.4137,.5867c-.9628,1.3689-2.7302,2.0608-4.3698,1.6622-1.6622-.3911-2.9183-1.7299-3.1891-3.4222-.2557-1.6923,.5115-3.3544,1.9781-4.2344l.3159-.2031-.2256-.2933c-.9176-1.1582-1.0681-2.7528-.4061-4.0765,.6393-1.2711,1.9705-2.0909,3.4072-2.0909l.3987,.0074,.0526-.2707c.3459-1.8276,1.948-3.1514,3.8133-3.1514s3.4673,1.3238,3.8133,3.1514l.0526,.2707,.3987-.0074c1.4516,0,2.7528,.7972,3.3996,2.0909,.6694,1.3162,.5115,2.9182-.4061,4.0765l-.2256,.2933,.3159,.188c1.4666,.8875,2.2413,2.5497,1.9781,4.2419h-.0001Z" fill="#8c8c8c"/></svg>