<?xml version="1.0" encoding="UTF-8"?><svg id="svg2" xmlns="http://www.w3.org/2000/svg" width="21.0968" height="48" viewBox="0 0 21.0968 48"><path d="M10.2233,1.8593v6.6802c-1.9269,3.8441-5.4128,6.653-9.5829,7.7143l.1588,.6353c3.9656-1.0076,7.3331-3.5471,9.4242-7.0219v14.1328h.658V9.88c2.0911,3.4681,5.4486,6.0027,9.4164,7.0091l.1588-.6353c-4.165-1.06-7.6542-3.8635-9.5752-7.7004V1.8697c1.5577,2.4008,3.7263,4.3143,6.3381,5.5425h.0002l.2798-.5976c-2.8514-1.3387-5.1583-3.517-6.6634-6.2852l-.2874-.5294-.2874,.5219c-1.5051,2.7758-3.812,4.9465-6.6634,6.2928l.2798,.6051c2.623-1.2373,4.7883-3.1489,6.3457-5.5605Z" fill="#666"/></svg>