<?xml version="1.0" encoding="utf-8"?>
<!-- Generator: Adobe Illustrator 16.0.3, SVG Export Plug-In . SVG Version: 6.00 Build 0)  -->
<!DOCTYPE svg PUBLIC "-//W3C//DTD SVG 1.0//EN" "http://www.w3.org/TR/2001/REC-SVG-20010904/DTD/svg10.dtd">
<svg version="1.0" id="Layer_2" xmlns="http://www.w3.org/2000/svg" xmlns:xlink="http://www.w3.org/1999/xlink" x="0px" y="0px"
	 width="50px" height="50px" viewBox="0 0 50 50" style="enable-background:new 0 0 50 50;" xml:space="preserve">
<g id="Temporary_x5F_coppicepair_10_">
	<g style="enable-background:new    ;">
		<path style="fill:#669966;" d="M22.695,4.718l-0.086,0.037L22.486,4.37l0.086-0.035L22.695,4.718z M24.283,3.402L24.18,3.554
			l-0.171,0.409l-0.003,0.209l-0.168,0.633h-0.015l-0.198-0.561l-0.249-0.135l-0.023,0.612l-0.091-0.009L23.29,4.08l0.003-0.022
			L22.947,3.86L22.78,3.854l-0.123-0.083l0.053-0.075l0.094,0.066l0.003-0.151L22.74,3.124l-0.006-0.583l0.095,0.003l0.006,0.573
			l0.067,0.489l-0.007,0.16l0.103,0.006l0.306,0.186l0.06-0.375l0.006-0.1l-0.117-0.18V1.991h0.091v1.078l0.318-0.268l-0.003-0.098
			l0.221-0.598l0.078,0.045l-0.207,0.573l0.006,0.129l-0.413,0.343v0.078l0.123,0.186l-0.01,0.126l-0.069,0.42l0.312,0.18
			l0.117,0.347l0.1-0.381l0.003-0.212l0.183-0.445l0.107-0.155L24.283,3.402z M22.869,4.463L22.86,4.698h-0.088l0.007-0.234
			L22.869,4.463L22.869,4.463z"/>
	</g>
	<g style="enable-background:new    ;">
		<path style="fill:#669966;" d="M25.063,5.435L25.02,5.454l-0.062-0.193l0.043-0.018L25.063,5.435z M25.855,4.777l-0.051,0.076
			l-0.084,0.205l-0.003,0.104l-0.084,0.316h-0.007l-0.1-0.28l-0.125-0.067l-0.012,0.306l-0.045-0.004l0.014-0.316l0.001-0.011
			l-0.173-0.099l-0.083-0.003l-0.062-0.042l0.026-0.037l0.047,0.033l0.001-0.075l-0.033-0.244l-0.003-0.291l0.048,0.001l0.003,0.286
			l0.034,0.245l-0.004,0.08l0.051,0.003l0.153,0.093l0.03-0.188l0.003-0.05l-0.059-0.09V4.072h0.045v0.539l0.159-0.134l-0.001-0.049
			l0.109-0.299l0.039,0.023l-0.104,0.286l0.003,0.064l-0.207,0.171v0.039l0.062,0.093l-0.005,0.063l-0.035,0.21l0.155,0.09
			l0.061,0.173l0.05-0.19l0.001-0.106l0.092-0.223l0.055-0.078L25.855,4.777z M25.15,5.308l-0.004,0.117h-0.044l0.004-0.117H25.15z"
			/>
	</g>
	<g style="enable-background:new    ;">
		<path style="fill:none;stroke:#669966;stroke-width:0.04;" d="M25.063,5.435L25.02,5.454l-0.062-0.193l0.043-0.018L25.063,5.435z
			 M25.855,4.777l-0.051,0.076l-0.084,0.205l-0.003,0.104l-0.084,0.316h-0.007l-0.1-0.28l-0.125-0.067l-0.012,0.306l-0.045-0.004
			l0.014-0.316l0.001-0.011l-0.173-0.099l-0.083-0.003l-0.062-0.042l0.026-0.037l0.047,0.033l0.001-0.075l-0.033-0.244l-0.003-0.291
			l0.048,0.001l0.003,0.286l0.034,0.245l-0.004,0.08l0.051,0.003l0.153,0.093l0.03-0.188l0.003-0.05l-0.059-0.09V4.072h0.045v0.539
			l0.159-0.134l-0.001-0.049l0.109-0.299l0.039,0.023l-0.104,0.286l0.003,0.064l-0.207,0.171v0.039l0.062,0.093l-0.005,0.063
			l-0.035,0.21l0.155,0.09l0.061,0.173l0.05-0.19l0.001-0.106l0.092-0.223l0.055-0.078L25.855,4.777z M25.15,5.308l-0.004,0.117
			h-0.044l0.004-0.117H25.15z"/>
	</g>
</g>
<g id="Temporary_x5F_coppicepair_9_" style="enable-background:new    ;">
	<g style="enable-background:new    ;">
		<path style="fill:#669966;" d="M39.657,4.68L39.57,4.716l-0.123-0.385l0.087-0.035L39.657,4.68z M41.244,3.363l-0.104,0.152
			l-0.17,0.409l-0.004,0.209l-0.169,0.633h-0.015l-0.197-0.561L40.338,4.07l-0.023,0.612l-0.09-0.009l0.027-0.633l0.003-0.022
			L39.909,3.82l-0.167-0.006l-0.123-0.083l0.053-0.075l0.094,0.066l0.004-0.151l-0.066-0.487l-0.006-0.583l0.096,0.003l0.006,0.573
			l0.067,0.489l-0.009,0.16l0.104,0.006l0.307,0.186l0.061-0.375l0.006-0.1l-0.117-0.18v-1.31h0.092v1.078l0.316-0.268L40.62,2.665
			l0.222-0.598l0.077,0.045l-0.206,0.573l0.006,0.129l-0.412,0.343v0.078l0.123,0.186l-0.011,0.126l-0.069,0.42l0.313,0.18
			l0.117,0.347l0.1-0.381L40.881,3.9l0.184-0.445L41.171,3.3L41.244,3.363z M39.831,4.425l-0.009,0.234h-0.088l0.008-0.234H39.831z"
			/>
	</g>
	<g style="enable-background:new    ;">
		<path style="fill:#669966;" d="M42.025,5.396l-0.043,0.019L41.92,5.222l0.043-0.018L42.025,5.396z M42.818,4.738l-0.051,0.076
			l-0.086,0.205L42.68,5.123L42.598,5.44H42.59l-0.1-0.28l-0.124-0.067l-0.013,0.306l-0.043-0.005l0.014-0.316l0.001-0.011
			l-0.173-0.099l-0.084-0.003l-0.062-0.042l0.026-0.037l0.047,0.033l0.001-0.075L42.049,4.6l-0.003-0.291l0.047,0.001l0.003,0.286
			L42.13,4.84l-0.004,0.08l0.052,0.003l0.152,0.093l0.029-0.188l0.004-0.05l-0.059-0.09V4.033h0.045v0.539l0.158-0.134l-0.001-0.049
			l0.11-0.299l0.039,0.023l-0.104,0.286l0.002,0.064L42.35,4.634v0.039l0.062,0.093L42.406,4.83l-0.034,0.21l0.155,0.09l0.06,0.173
			l0.05-0.19l0.002-0.106l0.092-0.223l0.054-0.078L42.818,4.738z M42.113,5.269l-0.006,0.117h-0.043l0.004-0.117H42.113z"/>
	</g>
	<g style="enable-background:new    ;">
		<path style="fill:none;stroke:#669966;stroke-width:0.04;" d="M42.025,5.396l-0.043,0.019L41.92,5.222l0.043-0.018L42.025,5.396z
			 M42.818,4.738l-0.051,0.076l-0.086,0.205L42.68,5.123L42.598,5.44H42.59l-0.1-0.28l-0.124-0.067l-0.013,0.306l-0.043-0.005
			l0.014-0.316l0.001-0.011l-0.173-0.099l-0.084-0.003l-0.062-0.042l0.026-0.037l0.047,0.033l0.001-0.075L42.049,4.6l-0.003-0.291
			l0.047,0.001l0.003,0.286L42.13,4.84l-0.004,0.08l0.052,0.003l0.152,0.093l0.029-0.188l0.004-0.05l-0.059-0.09V4.033h0.045v0.539
			l0.158-0.134l-0.001-0.049l0.11-0.299l0.039,0.023l-0.104,0.286l0.002,0.064L42.35,4.634v0.039l0.062,0.093L42.406,4.83
			l-0.034,0.21l0.155,0.09l0.06,0.173l0.05-0.19l0.002-0.106l0.092-0.223l0.054-0.078L42.818,4.738z M42.113,5.269l-0.006,0.117
			h-0.043l0.004-0.117H42.113z"/>
	</g>
</g>
<g id="Temporary_x5F_coppicepair_8_" style="enable-background:new    ;">
	<g style="enable-background:new    ;">
		<path style="fill:#669966;" d="M33.657,12.68l-0.087,0.037l-0.123-0.385l0.087-0.035L33.657,12.68z M35.244,11.363l-0.104,0.152
			l-0.17,0.409l-0.004,0.209l-0.169,0.633h-0.015l-0.197-0.561l-0.249-0.135l-0.022,0.612l-0.092-0.009l0.028-0.633l0.003-0.022
			l-0.346-0.198l-0.167-0.006l-0.123-0.083l0.053-0.075l0.095,0.066l0.002-0.151l-0.065-0.487l-0.007-0.583l0.097,0.003l0.006,0.573
			l0.067,0.489l-0.008,0.16l0.103,0.006l0.308,0.186l0.06-0.375l0.006-0.1l-0.117-0.18v-1.31h0.091v1.078l0.317-0.268l-0.003-0.098
			l0.222-0.598l0.077,0.045l-0.206,0.573l0.007,0.129l-0.414,0.343v0.078l0.123,0.186l-0.01,0.126l-0.068,0.42l0.312,0.18
			l0.116,0.347l0.101-0.381l0.003-0.212l0.184-0.445l0.106-0.155L35.244,11.363z M33.831,12.425l-0.009,0.234h-0.088l0.008-0.234
			H33.831z"/>
	</g>
	<g style="enable-background:new    ;">
		<path style="fill:#669966;" d="M36.025,13.396l-0.043,0.019l-0.063-0.193l0.043-0.018L36.025,13.396z M36.818,12.738l-0.051,0.076
			l-0.086,0.205l-0.002,0.104l-0.084,0.316H36.59l-0.1-0.28l-0.124-0.067l-0.013,0.306l-0.045-0.004l0.014-0.316l0.002-0.011
			l-0.174-0.099l-0.082-0.003l-0.063-0.042l0.026-0.037l0.047,0.033l0.001-0.075L36.048,12.6l-0.003-0.291l0.047,0.001l0.004,0.286
			l0.033,0.245l-0.004,0.08l0.053,0.003l0.151,0.093l0.03-0.188l0.002-0.05l-0.059-0.09v-0.655h0.047v0.539l0.157-0.134
			l-0.001-0.049l0.11-0.299l0.038,0.023L36.551,12.4l0.004,0.064l-0.207,0.171v0.039l0.063,0.093l-0.006,0.063l-0.034,0.21
			l0.155,0.09l0.06,0.173l0.05-0.19l0.002-0.106l0.092-0.223l0.054-0.078L36.818,12.738z M36.113,13.269l-0.006,0.117h-0.043
			l0.004-0.117H36.113z"/>
	</g>
	<g style="enable-background:new    ;">
		<path style="fill:none;stroke:#669966;stroke-width:0.04;" d="M36.025,13.396l-0.043,0.019l-0.063-0.193l0.043-0.018
			L36.025,13.396z M36.818,12.738l-0.051,0.076l-0.086,0.205l-0.002,0.104l-0.084,0.316H36.59l-0.1-0.28l-0.124-0.067l-0.013,0.306
			l-0.045-0.004l0.014-0.316l0.002-0.011l-0.174-0.099l-0.082-0.003l-0.063-0.042l0.026-0.037l0.047,0.033l0.001-0.075L36.048,12.6
			l-0.003-0.291l0.047,0.001l0.004,0.286l0.033,0.245l-0.004,0.08l0.053,0.003l0.151,0.093l0.03-0.188l0.002-0.05l-0.059-0.09
			v-0.655h0.047v0.539l0.157-0.134l-0.001-0.049l0.11-0.299l0.038,0.023L36.551,12.4l0.004,0.064l-0.207,0.171v0.039l0.063,0.093
			l-0.006,0.063l-0.034,0.21l0.155,0.09l0.06,0.173l0.05-0.19l0.002-0.106l0.092-0.223l0.054-0.078L36.818,12.738z M36.113,13.269
			l-0.006,0.117h-0.043l0.004-0.117H36.113z"/>
	</g>
</g>
<g id="Temporary_x5F_coppicepair_7_" style="enable-background:new    ;">
	<g style="enable-background:new    ;">
		<path style="fill:#669966;" d="M7.657,14.708l-0.086,0.037L7.448,14.36l0.086-0.035L7.657,14.708z M9.245,13.392l-0.103,0.152
			l-0.171,0.409l-0.003,0.209L8.8,14.794H8.785l-0.198-0.561l-0.249-0.135L8.315,14.71l-0.091-0.009l0.028-0.633l0.003-0.022
			L7.909,13.85l-0.167-0.006L7.619,13.76l0.053-0.075l0.094,0.066L7.769,13.6l-0.066-0.487L7.697,12.53l0.095,0.003l0.006,0.573
			l0.067,0.489l-0.007,0.16L7.96,13.76l0.306,0.186l0.06-0.375l0.006-0.1l-0.117-0.18V11.98h0.091v1.078l0.318-0.268l-0.003-0.098
			l0.221-0.598l0.078,0.045l-0.207,0.573l0.006,0.129l-0.413,0.343v0.078l0.123,0.186l-0.01,0.126l-0.069,0.42l0.312,0.18
			l0.117,0.347l0.1-0.381l0.003-0.212l0.183-0.445l0.107-0.155L9.245,13.392z M7.832,14.453l-0.009,0.234H7.735l0.007-0.234H7.832z"
			/>
	</g>
	<g style="enable-background:new    ;">
		<path style="fill:#669966;" d="M10.025,15.425l-0.043,0.019L9.92,15.25l0.043-0.018L10.025,15.425z M10.819,14.767l-0.051,0.076
			l-0.085,0.205l-0.001,0.104l-0.084,0.316h-0.007l-0.099-0.28l-0.125-0.067l-0.012,0.306l-0.045-0.004l0.014-0.316l0.001-0.011
			l-0.173-0.099l-0.083-0.003l-0.062-0.042l0.026-0.037l0.047,0.033l0.001-0.075l-0.033-0.244l-0.003-0.291l0.048,0.001l0.003,0.286
			l0.034,0.245l-0.004,0.08l0.051,0.003l0.153,0.093l0.03-0.188l0.003-0.05l-0.059-0.09v-0.655h0.045v0.539l0.159-0.134
			l-0.001-0.049l0.111-0.299l0.039,0.023l-0.103,0.286l0.003,0.064l-0.207,0.171v0.039l0.062,0.093l-0.005,0.063l-0.035,0.21
			l0.156,0.09l0.059,0.173l0.05-0.19l0.001-0.106l0.092-0.223l0.053-0.078L10.819,14.767z M10.112,15.297l-0.004,0.117h-0.044
			l0.004-0.117H10.112z"/>
	</g>
	<g style="enable-background:new    ;">
		<path style="fill:none;stroke:#669966;stroke-width:0.04;" d="M10.025,15.425l-0.043,0.019L9.92,15.25l0.043-0.018L10.025,15.425z
			 M10.819,14.767l-0.051,0.076l-0.085,0.205l-0.001,0.104l-0.084,0.316h-0.007l-0.099-0.28l-0.125-0.067l-0.012,0.306l-0.045-0.004
			l0.014-0.316l0.001-0.011l-0.173-0.099l-0.083-0.003l-0.062-0.042l0.026-0.037l0.047,0.033l0.001-0.075l-0.033-0.244l-0.003-0.291
			l0.048,0.001l0.003,0.286l0.034,0.245l-0.004,0.08l0.051,0.003l0.153,0.093l0.03-0.188l0.003-0.05l-0.059-0.09v-0.655h0.045v0.539
			l0.159-0.134l-0.001-0.049l0.111-0.299l0.039,0.023l-0.103,0.286l0.003,0.064l-0.207,0.171v0.039l0.062,0.093l-0.005,0.063
			l-0.035,0.21l0.156,0.09l0.059,0.173l0.05-0.19l0.001-0.106l0.092-0.223l0.053-0.078L10.819,14.767z M10.112,15.297l-0.004,0.117
			h-0.044l0.004-0.117H10.112z"/>
	</g>
</g>
<g id="Temporary_x5F_coppicepair_6_" style="enable-background:new    ;">
	<g style="enable-background:new    ;">
		<path style="fill:#669966;" d="M2.657,24.581l-0.086,0.037l-0.123-0.385l0.086-0.035L2.657,24.581z M4.245,23.265l-0.103,0.152
			l-0.171,0.409l-0.003,0.209L3.8,24.667H3.785l-0.198-0.561l-0.249-0.135l-0.023,0.612l-0.091-0.009l0.028-0.633l0.003-0.022
			l-0.346-0.198l-0.167-0.006l-0.123-0.083l0.053-0.075l0.094,0.066l0.003-0.151l-0.066-0.487l-0.006-0.583l0.095,0.003l0.006,0.573
			l0.067,0.489l-0.007,0.16l0.103,0.006l0.306,0.186l0.06-0.375l0.006-0.1l-0.117-0.18v-1.311h0.091v1.078l0.318-0.268l-0.003-0.098
			l0.221-0.598l0.078,0.045l-0.207,0.573l0.006,0.129l-0.413,0.343v0.078l0.123,0.186l-0.01,0.126l-0.069,0.42l0.312,0.18
			l0.117,0.347l0.1-0.381l0.003-0.212l0.183-0.445l0.107-0.155L4.245,23.265z M2.832,24.326L2.823,24.56H2.735l0.007-0.234H2.832z"
			/>
	</g>
	<g style="enable-background:new    ;">
		<path style="fill:#669966;" d="M5.025,25.298l-0.043,0.019L4.92,25.124l0.043-0.018L5.025,25.298z M5.819,24.64l-0.051,0.076
			L5.682,24.92l-0.001,0.104L5.597,25.34H5.589L5.49,25.06l-0.125-0.067l-0.012,0.306l-0.045-0.004l0.014-0.316l0.001-0.011
			L5.15,24.869l-0.083-0.003l-0.062-0.042l0.026-0.037L5.08,24.82l0.001-0.075L5.048,24.5l-0.003-0.291l0.048,0.001l0.003,0.286
			l0.034,0.245l-0.004,0.08l0.051,0.003l0.153,0.093l0.03-0.188l0.003-0.05l-0.059-0.09v-0.655H5.35v0.539l0.159-0.134L5.508,24.29
			l0.111-0.299l0.039,0.023L5.555,24.3l0.003,0.064L5.35,24.537v0.039l0.062,0.093l-0.005,0.063l-0.035,0.21l0.156,0.09l0.059,0.173
			l0.05-0.19l0.001-0.106l0.092-0.223l0.053-0.078L5.819,24.64z M5.112,25.17l-0.004,0.117H5.064l0.004-0.117H5.112z"/>
	</g>
	<g style="enable-background:new    ;">
		<path style="fill:none;stroke:#669966;stroke-width:0.04;" d="M5.025,25.298l-0.043,0.019L4.92,25.124l0.043-0.018L5.025,25.298z
			 M5.819,24.64l-0.051,0.076L5.682,24.92l-0.001,0.104L5.597,25.34H5.589L5.49,25.06l-0.125-0.067l-0.012,0.306l-0.045-0.004
			l0.014-0.316l0.001-0.011L5.15,24.869l-0.083-0.003l-0.062-0.042l0.026-0.037L5.08,24.82l0.001-0.075L5.048,24.5l-0.003-0.291
			l0.048,0.001l0.003,0.286l0.034,0.245l-0.004,0.08l0.051,0.003l0.153,0.093l0.03-0.188l0.003-0.05l-0.059-0.09v-0.655H5.35v0.539
			l0.159-0.134L5.508,24.29l0.111-0.299l0.039,0.023L5.555,24.3l0.003,0.064L5.35,24.537v0.039l0.062,0.093l-0.005,0.063
			l-0.035,0.21l0.156,0.09l0.059,0.173l0.05-0.19l0.001-0.106l0.092-0.223l0.053-0.078L5.819,24.64z M5.112,25.17l-0.004,0.117
			H5.064l0.004-0.117H5.112z"/>
	</g>
</g>
<g id="Temporary_x5F_coppicepair_5_" style="enable-background:new    ;">
	<g style="enable-background:new    ;">
		<path style="fill:#669966;" d="M7.657,37.712l-0.086,0.037l-0.123-0.386l0.086-0.035L7.657,37.712z M9.245,36.396l-0.103,0.151
			l-0.171,0.409l-0.003,0.209L8.8,37.799H8.785l-0.198-0.561l-0.249-0.135l-0.023,0.61l-0.091-0.009l0.028-0.633l0.003-0.021
			l-0.346-0.197l-0.167-0.006l-0.123-0.084l0.053-0.074l0.094,0.065l0.003-0.149l-0.066-0.488l-0.006-0.582l0.095,0.003l0.006,0.571
			l0.067,0.49l-0.007,0.159l0.103,0.007l0.306,0.187l0.06-0.375l0.006-0.101l-0.117-0.181v-1.312h0.091v1.078l0.318-0.269
			l-0.003-0.099l0.22-0.596l0.078,0.047l-0.207,0.571l0.006,0.13l-0.413,0.342v0.078l0.123,0.187l-0.01,0.126L8.35,37l0.312,0.182
			l0.117,0.346l0.1-0.381l0.003-0.211l0.183-0.445l0.107-0.155L9.245,36.396z M7.832,37.457l-0.009,0.234H7.735l0.007-0.234H7.832z"
			/>
	</g>
	<g style="enable-background:new    ;">
		<path style="fill:#669966;" d="M10.025,38.43l-0.043,0.018L9.92,38.255l0.043-0.019L10.025,38.43z M10.819,37.771l-0.051,0.076
			l-0.085,0.203l-0.001,0.104l-0.084,0.316h-0.007l-0.099-0.279l-0.125-0.067l-0.012,0.306l-0.045-0.004l0.014-0.316l0.001-0.01
			L10.151,38l-0.083-0.003l-0.062-0.041l0.026-0.038l0.047,0.033l0.001-0.075l-0.033-0.244l-0.003-0.291l0.048,0.001l0.003,0.286
			l0.034,0.245l-0.004,0.08l0.051,0.003l0.153,0.093l0.03-0.188l0.003-0.051l-0.059-0.09v-0.654h0.045v0.537l0.159-0.133
			l-0.001-0.05l0.111-0.299l0.039,0.022l-0.103,0.285l0.003,0.064l-0.207,0.172v0.039l0.062,0.093l-0.005,0.063l-0.035,0.211
			l0.156,0.09l0.059,0.173l0.05-0.188l0.001-0.106l0.092-0.224l0.053-0.078L10.819,37.771z M10.112,38.303l-0.004,0.116h-0.044
			l0.004-0.116H10.112z"/>
	</g>
	<g style="enable-background:new    ;">
		<path style="fill:none;stroke:#669966;stroke-width:0.04;" d="M10.025,38.43l-0.043,0.018L9.92,38.255l0.043-0.019L10.025,38.43z
			 M10.819,37.771l-0.051,0.076l-0.085,0.203l-0.001,0.104l-0.084,0.316h-0.007l-0.099-0.279l-0.125-0.067l-0.012,0.306
			l-0.045-0.004l0.014-0.316l0.001-0.01L10.151,38l-0.083-0.003l-0.062-0.041l0.026-0.038l0.047,0.033l0.001-0.075l-0.033-0.244
			l-0.003-0.291l0.048,0.001l0.003,0.286l0.034,0.245l-0.004,0.08l0.051,0.003l0.153,0.093l0.03-0.188l0.003-0.051l-0.059-0.09
			v-0.654h0.045v0.537l0.159-0.133l-0.001-0.05l0.111-0.299l0.039,0.022l-0.103,0.285l0.003,0.064l-0.207,0.172v0.039l0.062,0.093
			l-0.005,0.063l-0.035,0.211l0.156,0.09l0.059,0.173l0.05-0.188l0.001-0.106l0.092-0.224l0.053-0.078L10.819,37.771z
			 M10.112,38.303l-0.004,0.116h-0.044l0.004-0.116H10.112z"/>
	</g>
</g>
<g id="Temporary_x5F_coppicepair_4_" style="enable-background:new    ;">
	<g style="enable-background:new    ;">
		<path style="fill:#669966;" d="M24.657,35.68l-0.086,0.036l-0.123-0.386l0.086-0.035L24.657,35.68z M26.244,34.361l-0.102,0.152
			l-0.172,0.409l-0.003,0.209l-0.17,0.634h-0.014l-0.197-0.562l-0.25-0.136l-0.023,0.611l-0.091-0.009l0.028-0.632l0.003-0.021
			l-0.346-0.197l-0.167-0.006l-0.123-0.084l0.053-0.074l0.094,0.064l0.003-0.15l-0.066-0.487l-0.006-0.582l0.095,0.003l0.006,0.572
			l0.067,0.488l-0.007,0.16l0.103,0.006l0.306,0.187l0.06-0.375l0.006-0.101l-0.117-0.18V32.95h0.091v1.077l0.318-0.269
			l-0.003-0.098l0.221-0.599l0.078,0.047l-0.207,0.572l0.006,0.129l-0.413,0.342v0.078l0.123,0.187l-0.01,0.126l-0.069,0.42
			l0.312,0.182l0.117,0.347l0.1-0.382l0.002-0.211l0.184-0.445l0.107-0.155L26.244,34.361z M24.832,35.424l-0.009,0.234h-0.088
			l0.007-0.234H24.832z"/>
	</g>
	<g style="enable-background:new    ;">
		<path style="fill:#669966;" d="M27.025,36.396l-0.043,0.018l-0.063-0.191l0.043-0.019L27.025,36.396z M27.818,35.738l-0.051,0.076
			l-0.086,0.203l-0.002,0.104l-0.084,0.315H27.59l-0.1-0.279l-0.124-0.067l-0.013,0.306l-0.045-0.004l0.014-0.315l0.002-0.011
			l-0.174-0.101l-0.082-0.003l-0.063-0.041l0.025-0.038l0.048,0.033l0.001-0.075l-0.032-0.244l-0.003-0.291l0.047,0.002l0.004,0.285
			l0.033,0.245l-0.004,0.08l0.053,0.003l0.151,0.094l0.03-0.188l0.002-0.05l-0.059-0.09v-0.656h0.047v0.539l0.157-0.135
			l-0.001-0.049l0.11-0.299l0.038,0.021l-0.104,0.287l0.004,0.063l-0.207,0.172v0.039l0.063,0.093l-0.006,0.063l-0.034,0.211
			l0.155,0.09l0.06,0.173l0.05-0.189l0.002-0.105l0.092-0.223l0.054-0.078L27.818,35.738z M27.113,36.27l-0.006,0.117h-0.043
			l0.004-0.117H27.113z"/>
	</g>
	<g style="enable-background:new    ;">
		<path style="fill:none;stroke:#669966;stroke-width:0.04;" d="M27.025,36.396l-0.043,0.018l-0.063-0.191l0.043-0.019
			L27.025,36.396z M27.818,35.738l-0.051,0.076l-0.086,0.203l-0.002,0.104l-0.084,0.315H27.59l-0.1-0.279l-0.124-0.067l-0.013,0.306
			l-0.045-0.004l0.014-0.315l0.002-0.011l-0.174-0.101l-0.082-0.003l-0.063-0.041l0.025-0.038l0.048,0.033l0.001-0.075l-0.032-0.244
			l-0.003-0.291l0.047,0.002l0.004,0.285l0.033,0.245l-0.004,0.08l0.053,0.003l0.151,0.094l0.03-0.188l0.002-0.05l-0.059-0.09
			v-0.656h0.047v0.539l0.157-0.135l-0.001-0.049l0.11-0.299l0.038,0.021l-0.104,0.287l0.004,0.063l-0.207,0.172v0.039l0.063,0.093
			l-0.006,0.063l-0.034,0.211l0.155,0.09l0.06,0.173l0.05-0.189l0.002-0.105l0.092-0.223l0.054-0.078L27.818,35.738z M27.113,36.27
			l-0.006,0.117h-0.043l0.004-0.117H27.113z"/>
	</g>
</g>
<g id="Temporary_x5F_coppicepair_3_" style="enable-background:new    ;">
	<g style="enable-background:new    ;">
		<path style="fill:#669966;" d="M39.657,34.68l-0.087,0.036l-0.123-0.386l0.087-0.035L39.657,34.68z M41.244,33.361l-0.104,0.152
			l-0.17,0.409l-0.004,0.209l-0.169,0.634h-0.015l-0.197-0.562l-0.249-0.136l-0.022,0.611l-0.092-0.009l0.028-0.632l0.003-0.021
			l-0.346-0.197l-0.167-0.006l-0.123-0.084l0.053-0.074l0.095,0.064l0.002-0.15l-0.065-0.487l-0.007-0.582l0.097,0.003l0.006,0.572
			l0.067,0.488l-0.008,0.16l0.103,0.006l0.308,0.187l0.06-0.375l0.006-0.101l-0.117-0.18V31.95h0.091v1.077l0.317-0.269
			l-0.003-0.098l0.222-0.599l0.077,0.047l-0.206,0.572l0.007,0.129l-0.414,0.342v0.078l0.123,0.187l-0.01,0.126l-0.068,0.42
			l0.312,0.182l0.116,0.347l0.101-0.382l0.003-0.211l0.184-0.445l0.106-0.155L41.244,33.361z M39.831,34.424l-0.009,0.234h-0.088
			l0.008-0.234H39.831z"/>
	</g>
	<g style="enable-background:new    ;">
		<path style="fill:#669966;" d="M42.025,35.396l-0.043,0.018l-0.063-0.191l0.043-0.019L42.025,35.396z M42.818,34.738l-0.051,0.076
			l-0.086,0.203l-0.002,0.104l-0.084,0.315H42.59l-0.1-0.279l-0.124-0.067l-0.013,0.306l-0.045-0.004l0.014-0.315l0.002-0.011
			l-0.174-0.101l-0.082-0.003l-0.063-0.041l0.026-0.038l0.047,0.033l0.001-0.075l-0.032-0.244l-0.003-0.291l0.047,0.002l0.004,0.285
			l0.033,0.245l-0.004,0.08l0.053,0.003l0.151,0.094l0.03-0.188l0.002-0.05l-0.059-0.09v-0.656h0.047v0.539l0.157-0.135
			l-0.001-0.049l0.11-0.299l0.038,0.021l-0.104,0.287l0.004,0.063l-0.207,0.172v0.039l0.063,0.093l-0.006,0.063l-0.034,0.211
			l0.155,0.09l0.06,0.173l0.05-0.189l0.002-0.105l0.092-0.223l0.054-0.078L42.818,34.738z M42.113,35.27l-0.006,0.117h-0.043
			l0.004-0.117H42.113z"/>
	</g>
	<g style="enable-background:new    ;">
		<path style="fill:none;stroke:#669966;stroke-width:0.04;" d="M42.025,35.396l-0.043,0.018l-0.063-0.191l0.043-0.019
			L42.025,35.396z M42.818,34.738l-0.051,0.076l-0.086,0.203l-0.002,0.104l-0.084,0.315H42.59l-0.1-0.279l-0.124-0.067l-0.013,0.306
			l-0.045-0.004l0.014-0.315l0.002-0.011l-0.174-0.101l-0.082-0.003l-0.063-0.041l0.026-0.038l0.047,0.033l0.001-0.075l-0.032-0.244
			l-0.003-0.291l0.047,0.002l0.004,0.285l0.033,0.245l-0.004,0.08l0.053,0.003l0.151,0.094l0.03-0.188l0.002-0.05l-0.059-0.09
			v-0.656h0.047v0.539l0.157-0.135l-0.001-0.049l0.11-0.299l0.038,0.021l-0.104,0.287l0.004,0.063l-0.207,0.172v0.039l0.063,0.093
			l-0.006,0.063l-0.034,0.211l0.155,0.09l0.06,0.173l0.05-0.189l0.002-0.105l0.092-0.223l0.054-0.078L42.818,34.738z M42.113,35.27
			l-0.006,0.117h-0.043l0.004-0.117H42.113z"/>
	</g>
</g>
<g id="Temporary_x5F_coppicepair_2_" style="enable-background:new    ;">
	<g style="enable-background:new    ;">
		<path style="fill:#669966;" d="M36.657,46.68l-0.087,0.036l-0.123-0.386l0.087-0.035L36.657,46.68z M38.244,45.361l-0.104,0.152
			l-0.17,0.409l-0.004,0.209l-0.169,0.634h-0.015l-0.197-0.562l-0.249-0.136l-0.022,0.611l-0.092-0.009l0.028-0.632l0.003-0.021
			l-0.346-0.197l-0.167-0.006l-0.123-0.084l0.053-0.074l0.095,0.064l0.002-0.15l-0.065-0.487l-0.007-0.582l0.097,0.003l0.006,0.572
			l0.067,0.488l-0.008,0.16l0.103,0.006l0.308,0.187l0.06-0.375l0.006-0.101l-0.117-0.18V43.95h0.091v1.077l0.317-0.269
			l-0.003-0.098l0.222-0.599l0.077,0.047l-0.206,0.572l0.007,0.129l-0.414,0.342v0.078l0.123,0.187l-0.01,0.126l-0.068,0.42
			l0.312,0.182l0.116,0.347l0.101-0.382l0.003-0.211l0.184-0.445l0.106-0.155L38.244,45.361z M36.831,46.424l-0.009,0.234h-0.088
			l0.008-0.234H36.831z"/>
	</g>
	<g style="enable-background:new    ;">
		<path style="fill:#669966;" d="M39.025,47.396l-0.043,0.018l-0.063-0.191l0.043-0.019L39.025,47.396z M39.818,46.738l-0.051,0.076
			l-0.086,0.203l-0.002,0.104l-0.084,0.315H39.59l-0.1-0.279l-0.124-0.067l-0.013,0.306l-0.045-0.004l0.014-0.315l0.002-0.011
			l-0.174-0.101l-0.082-0.003l-0.063-0.041l0.026-0.038l0.047,0.033l0.001-0.075l-0.032-0.244l-0.003-0.291l0.047,0.002l0.004,0.285
			l0.033,0.245l-0.004,0.08l0.053,0.003l0.151,0.094l0.03-0.188l0.002-0.05l-0.059-0.09v-0.656h0.047v0.539l0.157-0.135
			l-0.001-0.049l0.11-0.299l0.038,0.021l-0.104,0.287l0.004,0.063l-0.207,0.172v0.039l0.063,0.093l-0.006,0.063l-0.034,0.211
			l0.155,0.09l0.06,0.173l0.05-0.189l0.002-0.105l0.092-0.223l0.054-0.078L39.818,46.738z M39.113,47.27l-0.006,0.117h-0.043
			l0.004-0.117H39.113z"/>
	</g>
	<g style="enable-background:new    ;">
		<path style="fill:none;stroke:#669966;stroke-width:0.04;" d="M39.025,47.396l-0.043,0.018l-0.063-0.191l0.043-0.019
			L39.025,47.396z M39.818,46.738l-0.051,0.076l-0.086,0.203l-0.002,0.104l-0.084,0.315H39.59l-0.1-0.279l-0.124-0.067l-0.013,0.306
			l-0.045-0.004l0.014-0.315l0.002-0.011l-0.174-0.101l-0.082-0.003l-0.063-0.041l0.026-0.038l0.047,0.033l0.001-0.075l-0.032-0.244
			l-0.003-0.291l0.047,0.002l0.004,0.285l0.033,0.245l-0.004,0.08l0.053,0.003l0.151,0.094l0.03-0.188l0.002-0.05l-0.059-0.09
			v-0.656h0.047v0.539l0.157-0.135l-0.001-0.049l0.11-0.299l0.038,0.021l-0.104,0.287l0.004,0.063l-0.207,0.172v0.039l0.063,0.093
			l-0.006,0.063l-0.034,0.211l0.155,0.09l0.06,0.173l0.05-0.189l0.002-0.105l0.092-0.223l0.054-0.078L39.818,46.738z M39.113,47.27
			l-0.006,0.117h-0.043l0.004-0.117H39.113z"/>
	</g>
</g>
<g id="Temporary_x5F_coppicepair_1_" style="enable-background:new    ;">
	<g style="enable-background:new    ;">
		<path style="fill:#669966;" d="M2.657,46.657l-0.086,0.036l-0.123-0.385l0.086-0.035L2.657,46.657z M4.245,45.341l-0.103,0.152
			l-0.171,0.409l-0.003,0.209L3.8,46.744H3.785l-0.198-0.561l-0.249-0.136L3.315,46.66l-0.091-0.01l0.028-0.631l0.003-0.022
			L2.909,45.8l-0.167-0.006L2.619,45.71l0.053-0.073l0.094,0.064l0.003-0.15l-0.066-0.488L2.697,44.48l0.095,0.002l0.006,0.572
			l0.067,0.489l-0.007,0.159L2.96,45.71l0.306,0.187l0.06-0.375l0.006-0.1l-0.117-0.181V43.93h0.091v1.078l0.318-0.27l-0.003-0.098
			l0.221-0.598l0.078,0.046l-0.207,0.572l0.006,0.129l-0.413,0.343v0.077l0.123,0.187l-0.01,0.127l-0.069,0.42l0.312,0.181
			l0.117,0.347l0.1-0.381l0.003-0.212l0.183-0.444l0.107-0.156L4.245,45.341z M2.832,46.402l-0.009,0.234H2.735l0.007-0.234H2.832z"
			/>
	</g>
	<g style="enable-background:new    ;">
		<path style="fill:#669966;" d="M5.025,47.375l-0.043,0.018L4.92,47.2l0.043-0.019L5.025,47.375z M5.819,46.717l-0.051,0.076
			l-0.085,0.204l-0.001,0.104l-0.084,0.315H5.589l-0.099-0.28L5.366,47.07l-0.012,0.306l-0.045-0.004l0.014-0.315l0.001-0.012
			l-0.173-0.1l-0.083-0.004L5.006,46.9l0.026-0.037l0.047,0.033L5.08,46.82l-0.033-0.243l-0.003-0.291l0.048,0.001l0.003,0.285
			l0.034,0.246l-0.004,0.08L5.176,46.9l0.153,0.094l0.03-0.188l0.003-0.051l-0.059-0.09v-0.654H5.35v0.537l0.159-0.134l-0.001-0.049
			l0.111-0.3l0.039,0.022l-0.103,0.286l0.003,0.064L5.35,46.613v0.039l0.062,0.093l-0.005,0.063L5.372,47.02l0.156,0.09l0.059,0.172
			l0.05-0.188l0.001-0.106l0.092-0.223l0.053-0.078L5.819,46.717z M5.112,47.247l-0.004,0.116H5.064l0.004-0.116H5.112z"/>
	</g>
	<g style="enable-background:new    ;">
		<path style="fill:none;stroke:#669966;stroke-width:0.04;" d="M5.025,47.375l-0.043,0.018L4.92,47.2l0.043-0.019L5.025,47.375z
			 M5.819,46.717l-0.051,0.076l-0.085,0.204l-0.001,0.104l-0.084,0.315H5.589l-0.099-0.28L5.366,47.07l-0.012,0.306l-0.045-0.004
			l0.014-0.315l0.001-0.012l-0.173-0.1l-0.083-0.004L5.006,46.9l0.026-0.037l0.047,0.033L5.08,46.82l-0.033-0.243l-0.003-0.291
			l0.048,0.001l0.003,0.285l0.034,0.246l-0.004,0.08L5.176,46.9l0.153,0.094l0.03-0.188l0.003-0.051l-0.059-0.09v-0.654H5.35v0.537
			l0.159-0.134l-0.001-0.049l0.111-0.3l0.039,0.022l-0.103,0.286l0.003,0.064L5.35,46.613v0.039l0.062,0.093l-0.005,0.063
			L5.372,47.02l0.156,0.09l0.059,0.172l0.05-0.188l0.001-0.106l0.092-0.223l0.053-0.078L5.819,46.717z M5.112,47.247l-0.004,0.116
			H5.064l0.004-0.116H5.112z"/>
	</g>
</g>
<g id="Temporary_x5F_coppicepair" style="enable-background:new    ;">
	<g style="enable-background:new    ;">
		<path style="fill:#669966;" d="M34.657,22.68l-0.087,0.037l-0.123-0.385l0.087-0.035L34.657,22.68z M36.244,21.363l-0.104,0.152
			l-0.17,0.409l-0.004,0.209l-0.169,0.633h-0.015l-0.197-0.561l-0.249-0.135l-0.022,0.612l-0.092-0.009l0.028-0.633l0.003-0.022
			l-0.346-0.198l-0.167-0.006l-0.123-0.083l0.053-0.075l0.095,0.066l0.002-0.151l-0.065-0.487l-0.007-0.583l0.097,0.003l0.006,0.573
			l0.067,0.489l-0.008,0.16l0.103,0.006l0.308,0.186l0.06-0.375l0.006-0.1l-0.117-0.18v-1.311h0.091v1.078l0.317-0.268l-0.003-0.098
			l0.222-0.598l0.077,0.045l-0.206,0.573l0.007,0.129l-0.414,0.343v0.078l0.123,0.186l-0.01,0.126l-0.068,0.42l0.312,0.18
			l0.116,0.347l0.101-0.381l0.003-0.212l0.184-0.445l0.106-0.155L36.244,21.363z M34.831,22.425l-0.009,0.234h-0.088l0.008-0.234
			H34.831z"/>
	</g>
	<g style="enable-background:new    ;">
		<path style="fill:#669966;" d="M37.023,23.396l-0.043,0.019l-0.062-0.193l0.043-0.018L37.023,23.396z M37.818,22.738l-0.051,0.076
			l-0.086,0.205l-0.002,0.104l-0.084,0.316h-0.008l-0.1-0.28l-0.125-0.067l-0.012,0.306l-0.045-0.004l0.014-0.316l0.002-0.011
			l-0.174-0.099l-0.082-0.003l-0.063-0.042l0.025-0.037l0.048,0.033l0.001-0.075L37.046,22.6l-0.003-0.291l0.047,0.001l0.003,0.286
			l0.034,0.245l-0.004,0.08l0.052,0.003l0.152,0.093l0.03-0.188l0.002-0.05l-0.059-0.09v-0.655h0.047v0.539l0.157-0.134
			l-0.001-0.049l0.109-0.299l0.039,0.023L37.549,22.4l0.004,0.064l-0.207,0.171v0.039l0.063,0.093l-0.006,0.063l-0.034,0.21
			l0.155,0.09l0.06,0.173l0.05-0.19l0.001-0.106l0.093-0.223l0.053-0.078L37.818,22.738z M37.111,23.269l-0.004,0.117h-0.045
			l0.004-0.117H37.111z"/>
	</g>
	<g style="enable-background:new    ;">
		<path style="fill:none;stroke:#669966;stroke-width:0.04;" d="M37.023,23.396l-0.043,0.019l-0.062-0.193l0.043-0.018
			L37.023,23.396z M37.818,22.738l-0.051,0.076l-0.086,0.205l-0.002,0.104l-0.084,0.316h-0.008l-0.1-0.28l-0.125-0.067l-0.012,0.306
			l-0.045-0.004l0.014-0.316l0.002-0.011l-0.174-0.099l-0.082-0.003l-0.063-0.042l0.025-0.037l0.048,0.033l0.001-0.075L37.046,22.6
			l-0.003-0.291l0.047,0.001l0.003,0.286l0.034,0.245l-0.004,0.08l0.052,0.003l0.152,0.093l0.03-0.188l0.002-0.05l-0.059-0.09
			v-0.655h0.047v0.539l0.157-0.134l-0.001-0.049l0.109-0.299l0.039,0.023L37.549,22.4l0.004,0.064l-0.207,0.171v0.039l0.063,0.093
			l-0.006,0.063l-0.034,0.21l0.155,0.09l0.06,0.173l0.05-0.19l0.001-0.106l0.093-0.223l0.053-0.078L37.818,22.738z M37.111,23.269
			l-0.004,0.117h-0.045l0.004-0.117H37.111z"/>
	</g>
</g>
</svg>
