<?xml version="1.0" encoding="utf-8"?>
<!-- Generator: Adobe Illustrator 16.0.3, SVG Export Plug-In . SVG Version: 6.00 Build 0)  -->
<!DOCTYPE svg PUBLIC "-//W3C//DTD SVG 1.0//EN" "http://www.w3.org/TR/2001/REC-SVG-20010904/DTD/svg10.dtd">
<svg version="1.0" id="Layer_1" xmlns="http://www.w3.org/2000/svg" xmlns:xlink="http://www.w3.org/1999/xlink" x="0px" y="0px"
	 width="28.35px" height="28.35px" viewBox="0 0 28.35 28.35" style="enable-background:new 0 0 28.35 28.35;" xml:space="preserve"
	>
<g>
	<path style="fill:#669966;" d="M3.811,1.92C4.243,2.022,4.46,2.15,4.46,2.306c0.045,0.01,0.092,0.125,0.143,0.345L4.542,3.017
		c0.271,0,0.49,0.197,0.647,0.589l0.021,0.163c-0.05,0.366-0.118,0.547-0.202,0.547C4.843,4.493,4.667,4.582,4.48,4.582H4.419
		c-0.213,0-0.391-0.063-0.527-0.186h-0.02v0.711L3.811,5.17H3.79L3.729,5.109V4.379C3.583,4.514,3.401,4.582,3.181,4.582H3.14
		c-0.427,0-0.684-0.268-0.771-0.793c0-0.263,0.136-0.491,0.404-0.69c0.129-0.055,0.225-0.082,0.284-0.082l-0.06-0.183V2.733
		c0-0.339,0.163-0.583,0.486-0.729L3.811,1.92z M3.14,2.733v0.103L3.222,3.1C3.191,3.125,3.076,3.16,2.876,3.2
		C2.632,3.362,2.511,3.559,2.511,3.789c0,0.258,0.135,0.46,0.406,0.607C2.971,4.426,3.045,4.439,3.14,4.439h0.041
		c0.229,0,0.423-0.102,0.589-0.305h0.063C3.984,4.337,4.18,4.439,4.42,4.439h0.06c0.196,0,0.372-0.113,0.528-0.346l0.061-0.325
		c0-0.275-0.16-0.479-0.484-0.607C4.446,3.149,4.379,3.121,4.379,3.077C4.423,2.932,4.45,2.784,4.46,2.631
		C4.419,2.476,4.353,2.347,4.257,2.245C4.102,2.123,3.945,2.063,3.79,2.063c-0.274,0-0.479,0.149-0.609,0.446
		C3.154,2.563,3.14,2.638,3.14,2.733z"/>
</g>
<g>
	<path style="fill:#669966;" d="M10.63,1.92c0.433,0.102,0.648,0.229,0.648,0.386c0.047,0.01,0.094,0.125,0.145,0.345l-0.063,0.366
		c0.273,0,0.49,0.197,0.648,0.589l0.021,0.163c-0.051,0.366-0.117,0.548-0.201,0.548c-0.166,0.179-0.344,0.268-0.529,0.268h-0.063
		c-0.213,0-0.389-0.063-0.526-0.186H10.69V5.11L10.63,5.17H10.61l-0.061-0.063V4.378C10.403,4.514,10.221,4.582,10,4.582H9.96
		c-0.427,0-0.686-0.268-0.772-0.793c0-0.263,0.138-0.491,0.406-0.69c0.129-0.055,0.223-0.082,0.284-0.082L9.817,2.834V2.733
		c0-0.339,0.163-0.583,0.488-0.729L10.63,1.92z M9.96,2.733v0.103L10.042,3.1C10.011,3.125,9.896,3.16,9.696,3.2
		C9.452,3.362,9.331,3.559,9.331,3.789c0,0.258,0.135,0.46,0.404,0.607C9.791,4.426,9.865,4.439,9.96,4.439H10
		c0.227,0,0.423-0.102,0.589-0.305h0.062c0.152,0.203,0.35,0.305,0.588,0.305H11.3c0.197,0,0.373-0.113,0.529-0.346l0.061-0.325
		c0-0.275-0.162-0.479-0.486-0.607C11.267,3.149,11.2,3.122,11.2,3.078c0.045-0.146,0.07-0.294,0.08-0.447
		c-0.041-0.155-0.105-0.284-0.201-0.386c-0.156-0.122-0.313-0.185-0.469-0.185c-0.272,0-0.478,0.149-0.607,0.446
		C9.974,2.563,9.96,2.638,9.96,2.733z"/>
</g>
<g>
	<path style="fill:#669966;" d="M17.717,1.92c0.433,0.102,0.649,0.229,0.649,0.386c0.045,0.01,0.092,0.125,0.143,0.345l-0.063,0.366
		c0.273,0,0.49,0.197,0.648,0.589l0.021,0.163c-0.053,0.366-0.119,0.548-0.203,0.548c-0.166,0.179-0.344,0.268-0.529,0.268h-0.062
		c-0.214,0-0.391-0.063-0.527-0.186h-0.021V5.11L17.717,5.17h-0.021l-0.061-0.063V4.378c-0.146,0.136-0.328,0.204-0.549,0.204h-0.04
		c-0.427,0-0.686-0.268-0.772-0.793c0-0.263,0.139-0.491,0.406-0.69c0.129-0.055,0.224-0.082,0.285-0.082l-0.063-0.183V2.733
		c0-0.339,0.163-0.583,0.487-0.729L17.717,1.92z M17.046,2.733v0.103L17.127,3.1c-0.03,0.027-0.146,0.063-0.348,0.104
		c-0.241,0.16-0.363,0.356-0.363,0.589c0,0.258,0.135,0.46,0.404,0.607c0.057,0.027,0.131,0.041,0.226,0.041h0.04
		c0.227,0,0.424-0.102,0.59-0.305h0.061c0.152,0.203,0.351,0.305,0.591,0.305h0.061c0.197,0,0.373-0.113,0.529-0.346l0.061-0.325
		c0-0.275-0.162-0.479-0.484-0.607c-0.139-0.012-0.205-0.038-0.205-0.082c0.045-0.146,0.07-0.294,0.082-0.447
		c-0.041-0.155-0.107-0.284-0.203-0.386c-0.155-0.122-0.313-0.185-0.47-0.185c-0.271,0-0.477,0.149-0.607,0.446
		C17.06,2.563,17.046,2.638,17.046,2.733z"/>
</g>
<g>
	<path style="fill:#669966;" d="M24.804,1.92c0.433,0.102,0.649,0.229,0.649,0.386c0.045,0.01,0.092,0.125,0.143,0.345l-0.061,0.366
		c0.271,0,0.488,0.197,0.646,0.589l0.021,0.163C26.151,4.135,26.084,4.317,26,4.317c-0.166,0.179-0.342,0.268-0.529,0.268H25.41
		c-0.215,0-0.391-0.063-0.527-0.186h-0.021V5.11l-0.06,0.062h-0.021l-0.062-0.063V4.379c-0.146,0.136-0.328,0.204-0.549,0.204
		h-0.041c-0.426,0-0.686-0.268-0.771-0.793c0-0.263,0.138-0.491,0.406-0.69c0.129-0.055,0.223-0.082,0.284-0.082L23.99,2.834V2.733
		c0-0.339,0.164-0.583,0.488-0.729L24.804,1.92z M24.133,2.733v0.103L24.215,3.1C24.184,3.125,24.068,3.16,23.869,3.2
		c-0.244,0.16-0.365,0.356-0.365,0.589c0,0.258,0.135,0.46,0.406,0.607c0.054,0.027,0.129,0.041,0.223,0.041h0.041
		c0.227,0,0.423-0.102,0.589-0.305h0.063c0.15,0.203,0.348,0.305,0.588,0.305h0.061c0.197,0,0.373-0.113,0.529-0.346l0.061-0.325
		c0-0.275-0.162-0.479-0.484-0.607c-0.139-0.012-0.205-0.038-0.205-0.082c0.045-0.146,0.07-0.294,0.082-0.447
		c-0.041-0.155-0.107-0.284-0.203-0.386c-0.155-0.122-0.313-0.185-0.467-0.185c-0.273,0-0.479,0.149-0.609,0.446
		C24.146,2.563,24.133,2.638,24.133,2.733z"/>
</g>
<g>
	<path style="fill:#669966;" d="M3.811,8.969C4.243,9.071,4.46,9.199,4.46,9.355C4.505,9.365,4.552,9.48,4.603,9.7l-0.061,0.364
		c0.271,0,0.49,0.197,0.647,0.589l0.021,0.163c-0.051,0.366-0.119,0.55-0.203,0.55c-0.166,0.177-0.342,0.266-0.528,0.266H4.419
		c-0.213,0-0.391-0.063-0.527-0.186h-0.02v0.713L3.81,12.22H3.79l-0.063-0.061v-0.731C3.583,11.564,3.4,11.632,3.18,11.632H3.14
		c-0.427,0-0.684-0.266-0.771-0.793c0-0.261,0.136-0.491,0.404-0.69c0.129-0.055,0.225-0.082,0.284-0.082l-0.06-0.184V9.782
		c0-0.341,0.163-0.583,0.486-0.731L3.811,8.969z M3.14,9.782v0.101l0.082,0.265c-0.031,0.027-0.146,0.063-0.346,0.104
		c-0.244,0.162-0.365,0.356-0.365,0.589c0,0.258,0.135,0.46,0.406,0.607c0.054,0.027,0.128,0.041,0.223,0.041h0.041
		c0.229,0,0.423-0.102,0.589-0.305h0.063c0.15,0.203,0.348,0.305,0.588,0.305h0.06c0.196,0,0.372-0.113,0.528-0.346l0.061-0.325
		c0-0.275-0.16-0.479-0.484-0.607c-0.139-0.01-0.204-0.038-0.204-0.082C4.423,9.981,4.45,9.833,4.46,9.68
		C4.419,9.524,4.353,9.396,4.257,9.294C4.102,9.172,3.945,9.111,3.79,9.111c-0.274,0-0.479,0.149-0.609,0.446
		C3.154,9.612,3.14,9.687,3.14,9.782z"/>
</g>
<g>
	<path style="fill:#669966;" d="M10.63,8.969c0.433,0.102,0.648,0.23,0.648,0.386c0.047,0.01,0.094,0.125,0.145,0.347l-0.063,0.364
		c0.273,0,0.49,0.197,0.648,0.589l0.021,0.163c-0.051,0.366-0.117,0.55-0.201,0.55c-0.166,0.177-0.344,0.266-0.529,0.266h-0.063
		c-0.213,0-0.389-0.063-0.526-0.186H10.69v0.713l-0.062,0.061H10.61l-0.061-0.061v-0.731c-0.146,0.136-0.329,0.204-0.549,0.204H9.96
		c-0.427,0-0.686-0.266-0.772-0.793c0-0.261,0.138-0.491,0.406-0.69c0.129-0.055,0.223-0.082,0.284-0.082L9.817,9.883V9.782
		c0-0.341,0.163-0.583,0.488-0.731L10.63,8.969z M9.96,9.782v0.101l0.082,0.265c-0.031,0.027-0.146,0.063-0.348,0.104
		c-0.242,0.162-0.363,0.356-0.363,0.589c0,0.258,0.135,0.46,0.404,0.607c0.056,0.027,0.128,0.041,0.225,0.041H10
		c0.227,0,0.423-0.102,0.589-0.305h0.062c0.152,0.203,0.35,0.305,0.588,0.305H11.3c0.197,0,0.373-0.113,0.529-0.346l0.061-0.325
		c0-0.275-0.162-0.479-0.486-0.607c-0.137-0.01-0.203-0.038-0.203-0.082c0.045-0.146,0.07-0.294,0.08-0.447
		c-0.041-0.155-0.105-0.284-0.201-0.386c-0.156-0.122-0.313-0.185-0.469-0.185c-0.272,0-0.478,0.149-0.607,0.446
		C9.974,9.612,9.96,9.687,9.96,9.782z"/>
</g>
<g>
	<path style="fill:#669966;" d="M17.717,8.969c0.434,0.102,0.65,0.23,0.65,0.386c0.045,0.01,0.092,0.125,0.143,0.347l-0.061,0.364
		c0.271,0,0.488,0.197,0.646,0.589l0.021,0.163c-0.053,0.366-0.119,0.55-0.203,0.55c-0.166,0.177-0.344,0.266-0.529,0.266h-0.061
		c-0.215,0-0.393-0.063-0.529-0.186h-0.021v0.713l-0.061,0.061h-0.021l-0.061-0.061v-0.731c-0.146,0.136-0.328,0.204-0.549,0.204
		h-0.039c-0.429,0-0.686-0.266-0.773-0.793c0-0.261,0.139-0.491,0.406-0.69c0.129-0.055,0.225-0.082,0.285-0.082l-0.063-0.183V9.782
		c0-0.341,0.162-0.583,0.486-0.731L17.717,8.969z M17.047,9.782v0.101l0.08,0.265c-0.029,0.027-0.146,0.063-0.348,0.104
		c-0.24,0.162-0.363,0.356-0.363,0.589c0,0.258,0.135,0.46,0.404,0.607c0.057,0.027,0.131,0.041,0.227,0.041h0.039
		c0.227,0,0.424-0.102,0.59-0.305h0.061c0.152,0.203,0.352,0.305,0.592,0.305h0.061c0.197,0,0.373-0.113,0.529-0.346l0.061-0.325
		c0-0.275-0.162-0.479-0.484-0.607c-0.139-0.01-0.205-0.038-0.205-0.082c0.045-0.146,0.07-0.294,0.082-0.447
		c-0.041-0.155-0.107-0.284-0.203-0.386c-0.156-0.122-0.313-0.185-0.471-0.185c-0.271,0-0.477,0.149-0.607,0.446
		C17.061,9.612,17.047,9.687,17.047,9.782z"/>
</g>
<g>
	<path style="fill:#669966;" d="M24.805,8.969c0.432,0.102,0.648,0.23,0.648,0.386c0.045,0.01,0.092,0.125,0.143,0.347l-0.061,0.364
		c0.271,0,0.488,0.197,0.646,0.589l0.021,0.163c-0.053,0.366-0.119,0.55-0.203,0.55c-0.166,0.177-0.342,0.266-0.529,0.266H25.41
		c-0.215,0-0.391-0.063-0.527-0.186h-0.021v0.713l-0.061,0.061H24.78l-0.062-0.061v-0.731c-0.146,0.136-0.328,0.204-0.549,0.204
		h-0.041c-0.426,0-0.686-0.266-0.771-0.793c0-0.261,0.139-0.491,0.406-0.69c0.129-0.055,0.223-0.082,0.285-0.082L23.99,9.883V9.782
		c0-0.341,0.164-0.583,0.488-0.731L24.805,8.969z M24.133,9.782v0.101l0.082,0.265c-0.031,0.027-0.146,0.063-0.346,0.104
		c-0.244,0.162-0.365,0.356-0.365,0.589c0,0.258,0.135,0.46,0.406,0.607c0.055,0.027,0.129,0.041,0.223,0.041h0.041
		c0.227,0,0.424-0.102,0.59-0.305h0.063c0.15,0.203,0.348,0.305,0.588,0.305h0.061c0.197,0,0.373-0.113,0.529-0.346l0.061-0.325
		c0-0.275-0.162-0.479-0.484-0.607c-0.139-0.01-0.205-0.038-0.205-0.082c0.045-0.146,0.07-0.294,0.082-0.447
		c-0.041-0.155-0.107-0.284-0.203-0.386c-0.154-0.122-0.313-0.185-0.467-0.185c-0.273,0-0.479,0.149-0.609,0.446
		C24.146,9.612,24.133,9.687,24.133,9.782z"/>
</g>
<g>
	<path style="fill:#669966;" d="M3.811,15.803c0.435,0.102,0.649,0.23,0.649,0.387c0.045,0.012,0.092,0.125,0.143,0.347L4.542,16.9
		c0.271,0,0.49,0.196,0.647,0.588l0.021,0.163C5.16,18.017,5.092,18.2,5.008,18.2c-0.166,0.177-0.342,0.266-0.528,0.266H4.419
		c-0.213,0-0.391-0.063-0.527-0.186h-0.02v0.713l-0.063,0.06H3.79l-0.063-0.061v-0.731C3.583,18.397,3.4,18.465,3.18,18.465H3.14
		c-0.427,0-0.684-0.266-0.771-0.793c0-0.261,0.136-0.491,0.404-0.69C2.903,16.927,2.998,16.9,3.059,16.9l-0.061-0.184v-0.104
		c0-0.338,0.163-0.58,0.486-0.729L3.811,15.803z M3.14,16.615v0.104l0.082,0.265c-0.031,0.026-0.146,0.063-0.346,0.104
		c-0.244,0.162-0.365,0.356-0.365,0.589c0,0.258,0.135,0.46,0.406,0.608c0.054,0.026,0.128,0.041,0.223,0.041h0.041
		c0.229,0,0.423-0.103,0.589-0.306h0.063c0.15,0.203,0.348,0.306,0.588,0.306h0.06c0.196,0,0.372-0.114,0.528-0.347l0.061-0.325
		c0-0.275-0.16-0.479-0.484-0.606c-0.139-0.011-0.204-0.038-0.204-0.082c0.044-0.146,0.071-0.295,0.081-0.447
		c-0.041-0.155-0.107-0.284-0.203-0.386c-0.155-0.122-0.312-0.185-0.467-0.185c-0.274,0-0.479,0.148-0.609,0.446
		C3.154,16.446,3.14,16.521,3.14,16.615z"/>
</g>
<g>
	<path style="fill:#669966;" d="M10.63,15.803c0.433,0.102,0.648,0.23,0.648,0.387c0.047,0.012,0.094,0.125,0.145,0.347L11.362,16.9
		c0.273,0,0.49,0.196,0.648,0.588l0.021,0.163c-0.051,0.366-0.117,0.55-0.201,0.55c-0.166,0.177-0.344,0.266-0.529,0.266h-0.063
		c-0.213,0-0.389-0.063-0.526-0.186H10.69v0.713l-0.062,0.061H10.61l-0.061-0.061v-0.731c-0.146,0.136-0.329,0.204-0.549,0.204H9.96
		c-0.427,0-0.686-0.266-0.772-0.793c0-0.261,0.138-0.491,0.406-0.69C9.723,16.927,9.817,16.9,9.878,16.9l-0.063-0.184v-0.104
		c0-0.338,0.163-0.58,0.488-0.729L10.63,15.803z M9.96,16.615v0.104l0.082,0.265c-0.031,0.026-0.146,0.063-0.348,0.104
		c-0.242,0.162-0.363,0.356-0.363,0.589c0,0.258,0.135,0.46,0.404,0.608c0.056,0.026,0.128,0.041,0.225,0.041H10
		c0.227,0,0.423-0.103,0.589-0.306h0.062c0.152,0.203,0.35,0.306,0.588,0.306H11.3c0.197,0,0.373-0.114,0.529-0.347l0.061-0.325
		c0-0.275-0.162-0.479-0.486-0.606c-0.137-0.011-0.203-0.038-0.203-0.082c0.045-0.146,0.07-0.295,0.08-0.447
		c-0.041-0.155-0.105-0.284-0.201-0.386c-0.156-0.122-0.313-0.185-0.469-0.185c-0.272,0-0.478,0.148-0.607,0.446
		C9.974,16.446,9.96,16.521,9.96,16.615z"/>
</g>
<g>
	<path style="fill:#669966;" d="M17.717,15.803c0.434,0.102,0.65,0.23,0.65,0.387c0.045,0.012,0.092,0.125,0.143,0.347L18.449,16.9
		c0.271,0,0.488,0.196,0.646,0.588l0.021,0.163c-0.053,0.366-0.119,0.55-0.203,0.55c-0.166,0.177-0.344,0.266-0.529,0.266h-0.061
		c-0.215,0-0.393-0.063-0.529-0.186h-0.021v0.713l-0.061,0.061h-0.021l-0.061-0.061v-0.731c-0.146,0.136-0.328,0.204-0.549,0.204
		h-0.039c-0.429,0-0.686-0.266-0.773-0.793c0-0.261,0.139-0.491,0.406-0.69c0.129-0.055,0.225-0.081,0.285-0.081l-0.063-0.184
		v-0.104c0-0.338,0.162-0.58,0.486-0.729L17.717,15.803z M17.047,16.615v0.104l0.08,0.265c-0.029,0.026-0.146,0.063-0.348,0.104
		c-0.24,0.162-0.363,0.356-0.363,0.589c0,0.258,0.135,0.46,0.404,0.608c0.057,0.026,0.131,0.041,0.227,0.041h0.039
		c0.227,0,0.424-0.103,0.59-0.306h0.061c0.152,0.203,0.352,0.306,0.592,0.306h0.061c0.197,0,0.373-0.114,0.529-0.347l0.061-0.325
		c0-0.275-0.162-0.479-0.484-0.606c-0.139-0.011-0.205-0.038-0.205-0.082c0.045-0.146,0.07-0.295,0.082-0.447
		c-0.041-0.155-0.107-0.284-0.203-0.386c-0.156-0.122-0.313-0.185-0.471-0.185c-0.271,0-0.477,0.148-0.607,0.446
		C17.061,16.446,17.047,16.521,17.047,16.615z"/>
</g>
<g>
	<path style="fill:#669966;" d="M24.805,15.803c0.432,0.102,0.648,0.23,0.648,0.387c0.045,0.012,0.092,0.125,0.143,0.347
		L25.535,16.9c0.271,0,0.488,0.196,0.646,0.588l0.021,0.163C26.151,18.017,26.084,18.2,26,18.2
		c-0.166,0.177-0.342,0.266-0.529,0.266H25.41c-0.215,0-0.391-0.063-0.527-0.186h-0.021v0.713l-0.061,0.061H24.78l-0.062-0.061
		v-0.731c-0.146,0.136-0.328,0.204-0.549,0.204h-0.041c-0.426,0-0.686-0.266-0.771-0.793c0-0.261,0.139-0.491,0.406-0.69
		c0.129-0.055,0.223-0.081,0.285-0.081l-0.063-0.184v-0.104c0-0.338,0.164-0.58,0.488-0.729L24.805,15.803z M24.133,16.615v0.104
		l0.082,0.265c-0.031,0.026-0.146,0.063-0.346,0.104c-0.244,0.162-0.365,0.356-0.365,0.589c0,0.258,0.135,0.46,0.406,0.608
		c0.055,0.026,0.129,0.041,0.223,0.041h0.041c0.227,0,0.424-0.103,0.59-0.306h0.063c0.15,0.203,0.348,0.306,0.588,0.306h0.061
		c0.197,0,0.373-0.114,0.529-0.347l0.061-0.325c0-0.275-0.162-0.479-0.484-0.606c-0.139-0.011-0.205-0.038-0.205-0.082
		c0.045-0.146,0.07-0.295,0.082-0.447c-0.041-0.155-0.107-0.284-0.203-0.386c-0.154-0.122-0.313-0.185-0.467-0.185
		c-0.273,0-0.479,0.148-0.609,0.446C24.146,16.446,24.133,16.521,24.133,16.615z"/>
</g>
<g>
	<path style="fill:#669966;" d="M3.811,22.852c0.435,0.104,0.649,0.23,0.649,0.387c0.045,0.012,0.092,0.125,0.143,0.347L4.542,23.95
		c0.271,0,0.49,0.194,0.647,0.588L5.212,24.7c-0.051,0.364-0.119,0.548-0.203,0.548c-0.166,0.177-0.342,0.266-0.528,0.266H4.419
		c-0.213,0-0.391-0.062-0.527-0.184h-0.02v0.711L3.81,26.102H3.79l-0.063-0.061V25.31C3.583,25.446,3.4,25.514,3.18,25.514H3.14
		c-0.427,0-0.684-0.266-0.771-0.793c0-0.261,0.136-0.491,0.404-0.69c0.129-0.055,0.225-0.079,0.284-0.079l-0.061-0.186v-0.102
		c0-0.338,0.163-0.582,0.486-0.73L3.811,22.852z M3.14,23.664v0.102l0.082,0.265c-0.031,0.026-0.146,0.063-0.346,0.104
		c-0.244,0.162-0.365,0.358-0.365,0.589c0,0.258,0.135,0.46,0.406,0.609c0.054,0.025,0.128,0.041,0.223,0.041h0.041
		c0.229,0,0.423-0.104,0.589-0.307h0.063c0.15,0.203,0.348,0.307,0.588,0.307h0.06c0.196,0,0.372-0.115,0.528-0.348l0.06-0.325
		c0-0.277-0.16-0.481-0.484-0.608C4.446,24.081,4.38,24.054,4.38,24.01c0.044-0.146,0.071-0.295,0.081-0.447
		c-0.041-0.153-0.107-0.284-0.203-0.386c-0.155-0.122-0.312-0.183-0.467-0.183c-0.274,0-0.479,0.146-0.609,0.444
		C3.154,23.495,3.14,23.569,3.14,23.664z"/>
</g>
<g>
	<path style="fill:#669966;" d="M10.63,22.852c0.433,0.104,0.648,0.23,0.648,0.387c0.047,0.012,0.094,0.125,0.145,0.347
		l-0.063,0.366c0.273,0,0.49,0.194,0.648,0.588l0.021,0.163c-0.051,0.364-0.117,0.548-0.201,0.548
		c-0.166,0.177-0.344,0.266-0.529,0.266h-0.063c-0.213,0-0.389-0.062-0.526-0.184H10.69v0.711l-0.062,0.061H10.61l-0.061-0.061
		V25.31c-0.146,0.136-0.329,0.204-0.549,0.204H9.96c-0.427,0-0.686-0.266-0.772-0.793c0-0.261,0.138-0.491,0.406-0.69
		c0.129-0.055,0.223-0.079,0.284-0.079l-0.063-0.186v-0.102c0-0.338,0.163-0.582,0.488-0.73L10.63,22.852z M9.96,23.664v0.102
		l0.082,0.265c-0.031,0.026-0.146,0.063-0.348,0.104c-0.242,0.162-0.363,0.358-0.363,0.589c0,0.258,0.135,0.46,0.404,0.609
		c0.056,0.025,0.128,0.041,0.225,0.041H10c0.227,0,0.423-0.104,0.589-0.307h0.062c0.152,0.203,0.35,0.307,0.588,0.307H11.3
		c0.197,0,0.373-0.115,0.529-0.348L11.89,24.7c0-0.277-0.162-0.481-0.486-0.608c-0.137-0.011-0.203-0.038-0.203-0.082
		c0.045-0.146,0.07-0.295,0.08-0.447c-0.041-0.153-0.105-0.284-0.201-0.386c-0.156-0.122-0.313-0.183-0.469-0.183
		c-0.272,0-0.478,0.146-0.607,0.444C9.974,23.495,9.96,23.569,9.96,23.664z"/>
</g>
<g>
	<path style="fill:#669966;" d="M17.717,22.852c0.434,0.104,0.65,0.23,0.65,0.387c0.045,0.012,0.092,0.125,0.143,0.347l-0.061,0.366
		c0.271,0,0.488,0.194,0.646,0.588l0.021,0.163c-0.053,0.364-0.119,0.548-0.203,0.548c-0.166,0.177-0.344,0.266-0.529,0.266h-0.061
		c-0.215,0-0.393-0.062-0.529-0.184h-0.021v0.711l-0.061,0.061h-0.021l-0.061-0.061V25.31c-0.146,0.136-0.328,0.204-0.549,0.204
		h-0.039c-0.429,0-0.686-0.266-0.773-0.793c0-0.261,0.139-0.491,0.406-0.69c0.129-0.055,0.225-0.079,0.285-0.079l-0.063-0.186
		v-0.102c0-0.338,0.162-0.582,0.486-0.73L17.717,22.852z M17.047,23.664v0.102l0.08,0.265c-0.029,0.026-0.146,0.063-0.348,0.104
		c-0.24,0.162-0.363,0.358-0.363,0.589c0,0.258,0.135,0.46,0.404,0.609c0.057,0.025,0.131,0.041,0.227,0.041h0.039
		c0.227,0,0.424-0.104,0.59-0.307h0.061c0.152,0.203,0.352,0.307,0.592,0.307h0.061c0.197,0,0.373-0.115,0.529-0.348l0.061-0.323
		c0-0.277-0.162-0.481-0.484-0.608c-0.139-0.011-0.205-0.038-0.205-0.082c0.045-0.146,0.07-0.295,0.082-0.447
		c-0.041-0.153-0.107-0.284-0.203-0.386c-0.156-0.122-0.313-0.183-0.471-0.183c-0.271,0-0.477,0.146-0.607,0.444
		C17.061,23.495,17.047,23.569,17.047,23.664z"/>
</g>
<g>
	<path style="fill:#669966;" d="M24.805,22.852c0.432,0.104,0.648,0.23,0.648,0.387c0.045,0.012,0.092,0.125,0.143,0.347
		l-0.061,0.366c0.271,0,0.488,0.194,0.646,0.588l0.021,0.163C26.151,25.067,26.084,25.25,26,25.25
		c-0.166,0.177-0.342,0.266-0.529,0.266H25.41c-0.215,0-0.391-0.062-0.527-0.184h-0.021v0.711l-0.061,0.061H24.78l-0.062-0.061
		V25.31c-0.146,0.136-0.328,0.204-0.549,0.204h-0.041c-0.426,0-0.686-0.266-0.771-0.793c0-0.261,0.139-0.491,0.406-0.69
		c0.129-0.055,0.223-0.079,0.285-0.079l-0.063-0.186v-0.102c0-0.338,0.164-0.582,0.488-0.73L24.805,22.852z M24.133,23.664v0.102
		l0.082,0.265c-0.031,0.026-0.146,0.063-0.346,0.104c-0.244,0.162-0.365,0.358-0.365,0.589c0,0.258,0.135,0.46,0.406,0.609
		c0.055,0.025,0.129,0.041,0.223,0.041h0.041c0.227,0,0.424-0.104,0.59-0.307h0.063c0.15,0.203,0.348,0.307,0.588,0.307h0.061
		c0.197,0,0.373-0.115,0.529-0.348l0.061-0.323c0-0.277-0.162-0.481-0.484-0.608c-0.139-0.011-0.205-0.038-0.205-0.082
		c0.045-0.146,0.07-0.295,0.082-0.447c-0.041-0.153-0.107-0.284-0.203-0.386c-0.154-0.122-0.313-0.183-0.467-0.183
		c-0.273,0-0.479,0.146-0.609,0.444C24.146,23.495,24.133,23.569,24.133,23.664z"/>
</g>
</svg>
