<?xml version="1.0" encoding="UTF-8"?>
<svg id="Layer_1" xmlns="http://www.w3.org/2000/svg" viewBox="0 0 23.83 24.19">
  <path d="M1.44,0c.43.1.65.23.65.39.05,0,.09.12.14.35l-.06.37c.27,0,.49.2.65.59l.02.16c-.05.37-.12.55-.2.55-.16.18-.34.27-.53.27h-.06c-.21,0-.39-.06-.53-.19h-.02v.71l-.06.06h-.02l-.06-.06v-.73c-.15.13-.33.2-.55.2h-.04c-.43,0-.68-.27-.77-.79,0-.26.14-.49.4-.69.13-.06.23-.08.28-.08l-.06-.18v-.1C.63.47.79.23,1.11.08l.33-.08ZM.77.81v.1l.08.26s-.15.06-.35.1c-.24.16-.37.36-.37.59,0,.26.13.46.41.61.05.03.13.04.22.04h.04c.23,0,.42-.1.59-.3h.06c.15.2.35.31.59.31h.06c.2,0,.37-.11.53-.35l.06-.33c0-.27-.16-.48-.48-.61-.14-.01-.21-.04-.21-.08.04-.15.07-.29.08-.45-.04-.15-.11-.28-.2-.39-.15-.12-.31-.18-.47-.18-.27,0-.48.15-.61.45-.03.05-.04.13-.04.22Z" fill="#b4cab4"/>
  <path d="M8.26,0c.43.1.65.23.65.39.05,0,.1.12.15.35l-.06.37c.27,0,.49.2.65.59l.02.16c-.05.37-.12.55-.2.55-.17.18-.35.27-.53.27h-.06c-.21,0-.39-.06-.52-.19h-.02v.71l-.06.06h-.02l-.06-.06v-.73c-.15.14-.33.2-.55.2h-.04c-.43,0-.69-.27-.77-.79,0-.26.14-.49.41-.69.13-.06.22-.08.28-.08l-.06-.18v-.1c0-.34.16-.58.49-.73l.32-.08ZM7.59.81v.1l.08.26s-.15.06-.35.1c-.24.16-.36.36-.36.59,0,.26.14.46.4.61.06.03.13.04.23.04h.04c.23,0,.42-.1.59-.3h.06c.15.2.35.3.59.3h.06c.2,0,.37-.11.53-.35l.06-.33c0-.27-.16-.48-.49-.61-.14-.01-.2-.04-.2-.08.05-.15.07-.29.08-.45-.04-.15-.1-.28-.2-.39-.16-.12-.31-.19-.47-.19-.27,0-.48.15-.61.45-.03.06-.04.13-.04.23Z" fill="#b4cab4"/>
  <path d="M15.35,0c.43.1.65.23.65.39.05,0,.09.12.14.35l-.06.37c.27,0,.49.2.65.59l.02.16c-.05.37-.12.55-.2.55-.17.18-.34.27-.53.27h-.06c-.21,0-.39-.06-.53-.19h-.02v.71l-.06.06h-.02l-.06-.06v-.73c-.15.14-.33.2-.55.2h-.04c-.43,0-.69-.27-.77-.79,0-.26.14-.49.41-.69.13-.06.22-.08.28-.08l-.06-.18v-.1c0-.34.16-.58.49-.73l.33-.08ZM14.68.81v.1l.08.26s-.15.06-.35.1c-.24.16-.36.36-.36.59,0,.26.14.46.4.61.06.03.13.04.23.04h.04c.23,0,.42-.1.59-.3h.06c.15.2.35.3.59.3h.06c.2,0,.37-.11.53-.35l.06-.33c0-.27-.16-.48-.48-.61-.14-.01-.2-.04-.2-.08.05-.15.07-.29.08-.45-.04-.15-.11-.28-.2-.39-.16-.12-.31-.19-.47-.19-.27,0-.48.15-.61.45-.03.06-.05.13-.05.23Z" fill="#b4cab4"/>
  <path d="M22.44,0c.43.1.65.23.65.39.05,0,.09.12.14.35l-.06.37c.27,0,.49.2.65.59l.02.16c-.05.37-.12.55-.2.55-.17.18-.34.27-.53.27h-.06c-.22,0-.39-.06-.53-.19h-.02v.71l-.06.06h-.02l-.06-.06v-.73c-.15.14-.33.2-.55.2h-.04c-.43,0-.69-.27-.77-.79,0-.26.14-.49.41-.69.13-.06.22-.08.28-.08l-.06-.18v-.1c0-.34.16-.58.49-.73l.33-.08ZM21.76.81v.1l.08.26s-.15.06-.35.1c-.24.16-.36.36-.36.59,0,.26.14.46.41.61.05.03.13.04.22.04h.04c.23,0,.42-.1.59-.3h.06c.15.2.35.3.59.3h.06c.2,0,.37-.11.53-.35l.06-.33c0-.27-.16-.48-.48-.61-.14-.01-.2-.04-.2-.08.05-.15.07-.29.08-.45-.04-.15-.11-.28-.2-.39-.16-.12-.31-.19-.47-.19-.27,0-.48.15-.61.45-.03.06-.05.13-.05.23Z" fill="#b4cab4"/>
  <path d="M1.44,7.05c.43.1.65.23.65.39.05.01.09.12.14.35l-.06.36c.27,0,.49.2.65.59l.02.16c-.05.37-.12.55-.2.55-.17.18-.34.27-.53.27h-.06c-.21,0-.39-.06-.53-.19h-.02v.71l-.06.06h-.02l-.06-.06v-.73c-.14.14-.33.2-.55.2h-.04c-.43,0-.68-.27-.77-.79,0-.26.14-.49.4-.69.13-.06.23-.08.28-.08l-.06-.18v-.1c0-.34.16-.58.49-.73l.33-.08ZM.77,7.86v.1l.08.27s-.15.06-.35.1c-.24.16-.37.35-.37.59,0,.26.13.46.41.61.05.03.13.04.22.04h.04c.23,0,.42-.1.59-.31h.06c.15.2.35.31.59.31h.06c.2,0,.37-.11.53-.35l.06-.32c0-.27-.16-.48-.48-.61-.14-.01-.2-.04-.2-.08.04-.15.07-.3.08-.45-.04-.16-.11-.28-.2-.39-.15-.12-.31-.18-.47-.18-.27,0-.48.15-.61.45-.03.06-.04.13-.04.22Z" fill="#b4cab4"/>
  <path d="M8.26,7.05c.43.1.65.23.65.39.05.01.1.12.15.35l-.06.36c.27,0,.49.2.65.59l.02.16c-.05.37-.12.55-.2.55-.17.18-.35.27-.53.27h-.06c-.21,0-.39-.06-.52-.19h-.02v.71l-.06.06h-.02l-.06-.06v-.73c-.15.14-.33.2-.55.2h-.04c-.43,0-.69-.27-.77-.79,0-.26.14-.49.41-.69.13-.06.22-.08.28-.08l-.06-.19v-.1c0-.34.16-.58.49-.73l.32-.08ZM7.59,7.86v.1l.08.27s-.15.06-.35.1c-.24.16-.36.35-.36.59,0,.26.14.46.4.61.06.03.13.04.23.04h.04c.23,0,.42-.1.59-.31h.06c.15.2.35.31.59.31h.06c.2,0,.37-.11.53-.35l.06-.32c0-.27-.16-.48-.49-.61-.14-.01-.2-.04-.2-.08.05-.15.07-.29.08-.45-.04-.15-.1-.28-.2-.39-.16-.12-.31-.19-.47-.19-.27,0-.48.15-.61.45-.03.06-.05.13-.05.23Z" fill="#b4cab4"/>
  <path d="M15.35,7.05c.43.1.65.23.65.39.05.01.09.12.14.35l-.06.36c.27,0,.49.2.65.59l.02.16c-.05.37-.12.55-.2.55-.17.18-.34.27-.53.27h-.06c-.22,0-.39-.06-.53-.19h-.02v.71l-.06.06h-.02l-.06-.06v-.73c-.15.14-.33.2-.55.2h-.04c-.43,0-.69-.27-.77-.79,0-.26.14-.49.41-.69.13-.06.23-.08.28-.08l-.06-.18v-.1c0-.34.16-.58.49-.73l.33-.08ZM14.68,7.86v.1l.08.27s-.15.06-.35.1c-.24.16-.36.35-.36.59,0,.26.14.46.4.61.06.03.13.04.23.04h.04c.23,0,.42-.1.59-.31h.06c.15.2.35.31.59.31h.06c.2,0,.37-.11.53-.35l.06-.32c0-.27-.16-.48-.48-.61-.14-.01-.2-.04-.2-.08.05-.15.07-.29.08-.45-.04-.15-.11-.28-.2-.39-.16-.12-.31-.19-.47-.19-.27,0-.48.15-.61.45-.03.06-.05.13-.05.23Z" fill="#b4cab4"/>
  <path d="M22.44,7.05c.43.1.65.23.65.39.05.01.09.12.14.35l-.06.36c.27,0,.49.2.65.59l.02.16c-.05.37-.12.55-.2.55-.17.18-.34.27-.53.27h-.06c-.22,0-.39-.06-.53-.19h-.02v.71l-.06.06h-.02l-.06-.06v-.73c-.15.14-.33.2-.55.2h-.04c-.43,0-.69-.27-.77-.79,0-.26.14-.49.41-.69.13-.06.22-.08.28-.08l-.06-.19v-.1c0-.34.16-.58.49-.73l.33-.08ZM21.76,7.86v.1l.08.27s-.15.06-.35.1c-.24.16-.36.35-.36.59,0,.26.14.46.41.61.06.03.13.04.22.04h.04c.23,0,.42-.1.59-.31h.06c.15.2.35.31.59.31h.06c.2,0,.37-.11.53-.35l.06-.32c0-.27-.16-.48-.48-.61-.14-.01-.2-.04-.2-.08.05-.15.07-.29.08-.45-.04-.15-.11-.28-.2-.39-.15-.12-.31-.19-.47-.19-.27,0-.48.15-.61.45-.04.06-.05.13-.05.23Z" fill="#b4cab4"/>
  <path d="M1.44,13.88c.44.1.65.23.65.39.05.01.09.12.14.35l-.06.36c.27,0,.49.2.65.59l.02.16c-.05.37-.12.55-.2.55-.17.18-.34.27-.53.27h-.06c-.21,0-.39-.06-.53-.19h-.02v.71l-.06.06h-.02l-.06-.06v-.73c-.14.14-.33.2-.55.2h-.04c-.43,0-.68-.27-.77-.79,0-.26.14-.49.4-.69.13-.06.23-.08.29-.08l-.06-.18v-.1c0-.34.16-.58.49-.73l.33-.08ZM.77,14.69v.1l.08.26s-.15.06-.35.1c-.24.16-.37.35-.37.59,0,.26.13.46.41.61.05.02.13.04.22.04h.04c.23,0,.42-.1.59-.31h.06c.15.2.35.31.59.31h.06c.2,0,.37-.11.53-.35l.06-.33c0-.27-.16-.48-.48-.6-.14-.01-.2-.04-.2-.08.04-.15.07-.3.08-.45-.04-.15-.11-.28-.2-.39-.16-.12-.31-.19-.47-.19-.27,0-.48.15-.61.45-.03.05-.04.13-.04.22Z" fill="#b4cab4"/>
  <path d="M8.26,13.88c.43.1.65.23.65.39.05.01.1.12.15.35l-.06.36c.27,0,.49.2.65.59l.02.16c-.05.37-.12.55-.2.55-.17.18-.35.27-.53.27h-.06c-.21,0-.39-.06-.52-.19h-.02v.71l-.06.06h-.02l-.06-.06v-.73c-.15.14-.33.2-.55.2h-.04c-.43,0-.69-.27-.77-.79,0-.26.14-.49.41-.69.13-.06.22-.08.28-.08l-.06-.18v-.1c0-.34.16-.58.49-.73l.33-.08ZM7.59,14.69v.1l.08.26s-.15.06-.35.1c-.24.16-.36.35-.36.59,0,.26.14.46.4.61.06.02.13.04.23.04h.04c.23,0,.42-.1.59-.31h.06c.15.2.35.31.59.31h.06c.2,0,.37-.11.53-.35l.06-.33c0-.27-.16-.48-.49-.6-.14-.01-.2-.04-.2-.08.05-.15.07-.3.08-.45-.04-.15-.1-.28-.2-.39-.16-.12-.31-.19-.47-.19-.27,0-.48.15-.61.45-.03.05-.05.13-.05.22Z" fill="#b4cab4"/>
  <path d="M15.35,13.88c.43.1.65.23.65.39.05.01.09.12.14.35l-.06.36c.27,0,.49.2.65.59l.02.16c-.05.37-.12.55-.2.55-.17.18-.34.27-.53.27h-.06c-.22,0-.39-.06-.53-.19h-.02v.71l-.06.06h-.02l-.06-.06v-.73c-.15.14-.33.2-.55.2h-.04c-.43,0-.69-.27-.77-.79,0-.26.14-.49.41-.69.13-.06.23-.08.28-.08l-.06-.18v-.1c0-.34.16-.58.49-.73l.33-.08ZM14.68,14.69v.1l.08.26s-.15.06-.35.1c-.24.16-.36.35-.36.59,0,.26.14.46.4.61.06.02.13.04.23.04h.04c.23,0,.42-.1.59-.31h.06c.15.2.35.31.59.31h.06c.2,0,.37-.11.53-.35l.06-.33c0-.27-.16-.48-.48-.6-.14-.01-.2-.04-.2-.08.05-.15.07-.3.08-.45-.04-.15-.11-.28-.2-.39-.16-.12-.31-.19-.47-.19-.27,0-.48.15-.61.45-.03.05-.05.13-.05.22Z" fill="#b4cab4"/>
  <path d="M22.44,13.88c.43.1.65.23.65.39.05.01.09.12.14.35l-.06.36c.27,0,.49.2.65.59l.02.16c-.05.37-.12.55-.2.55-.17.18-.34.27-.53.27h-.06c-.22,0-.39-.06-.53-.19h-.02v.71l-.06.06h-.02l-.06-.06v-.73c-.15.14-.33.2-.55.2h-.04c-.43,0-.69-.27-.77-.79,0-.26.14-.49.41-.69.13-.06.22-.08.28-.08l-.06-.18v-.1c0-.34.16-.58.49-.73l.33-.08ZM21.76,14.69v.1l.08.26s-.15.06-.35.1c-.24.16-.36.35-.36.59,0,.26.14.46.41.61.06.02.13.04.22.04h.04c.23,0,.42-.1.59-.31h.06c.15.2.35.31.59.31h.06c.2,0,.37-.11.53-.35l.06-.33c0-.27-.16-.48-.48-.6-.14-.01-.2-.04-.2-.08.05-.15.07-.3.08-.45-.04-.15-.11-.28-.2-.39-.15-.12-.31-.19-.47-.19-.27,0-.48.15-.61.45-.04.05-.05.13-.05.22Z" fill="#b4cab4"/>
  <path d="M1.44,20.93c.44.1.65.23.65.39.05.01.09.12.14.35l-.06.36c.27,0,.49.19.65.59l.02.16c-.05.36-.12.55-.2.55-.17.18-.34.27-.53.27h-.06c-.21,0-.39-.06-.53-.18h-.02v.71l-.06.06h-.02l-.06-.06v-.73c-.14.14-.33.2-.55.2h-.04c-.43,0-.68-.27-.77-.79,0-.26.14-.49.4-.69.13-.06.23-.08.28-.08l-.06-.19v-.1c0-.34.16-.58.48-.73l.33-.08ZM.77,21.74v.1l.08.27s-.15.06-.35.1c-.24.16-.37.36-.37.59,0,.26.13.46.41.61.05.02.13.04.22.04h.04c.23,0,.42-.1.59-.31h.06c.15.2.35.31.59.31h.06c.2,0,.37-.11.53-.35l.06-.32c0-.28-.16-.48-.48-.61-.14-.01-.2-.04-.2-.08.04-.15.07-.3.08-.45-.04-.15-.11-.28-.2-.39-.16-.12-.31-.18-.47-.18-.27,0-.48.15-.61.44-.03.06-.04.13-.04.23Z" fill="#b4cab4"/>
  <path d="M8.26,20.93c.43.1.65.23.65.39.05.01.1.12.15.35l-.06.37c.27,0,.49.19.65.59l.02.16c-.05.36-.12.55-.2.55-.17.18-.35.27-.53.27h-.06c-.21,0-.39-.06-.52-.18h-.02v.71l-.06.06h-.02l-.06-.06v-.74c-.15.14-.33.2-.55.2h-.04c-.43,0-.69-.27-.77-.79,0-.26.14-.49.41-.69.13-.06.22-.08.28-.08l-.06-.19v-.1c0-.34.16-.58.49-.73l.33-.08ZM7.59,21.74v.1l.08.27s-.15.06-.35.1c-.24.16-.36.36-.36.59,0,.26.14.46.4.61.06.02.13.04.23.04h.04c.23,0,.42-.1.59-.31h.06c.15.2.35.31.59.31h.06c.2,0,.37-.11.53-.35l.06-.33c0-.28-.16-.48-.49-.61-.14-.01-.2-.04-.2-.08.05-.15.07-.3.08-.45-.04-.15-.1-.28-.2-.39-.16-.12-.31-.18-.47-.18-.27,0-.48.15-.61.44-.03.06-.05.13-.05.23Z" fill="#b4cab4"/>
  <path d="M15.35,20.93c.43.1.65.23.65.39.05.01.09.12.14.35l-.06.37c.27,0,.49.19.65.59l.02.16c-.05.36-.12.55-.2.55-.17.18-.34.27-.53.27h-.06c-.22,0-.39-.06-.53-.18h-.02v.71l-.06.06h-.02l-.06-.06v-.74c-.15.14-.33.2-.55.2h-.04c-.43,0-.69-.27-.77-.79,0-.26.14-.49.41-.69.13-.06.23-.08.28-.08l-.06-.19v-.1c0-.34.16-.58.49-.73l.33-.08ZM14.68,21.74v.1l.08.27s-.15.06-.35.1c-.24.16-.36.36-.36.59,0,.26.14.46.4.61.06.02.13.04.23.04h.04c.23,0,.42-.1.59-.31h.06c.15.2.35.31.59.31h.06c.2,0,.37-.11.53-.35l.06-.32c0-.28-.16-.48-.48-.61-.14-.01-.2-.04-.2-.08.05-.15.07-.3.08-.45-.04-.15-.11-.28-.2-.39-.16-.12-.31-.18-.47-.18-.27,0-.48.15-.61.44-.03.05-.05.13-.05.22Z" fill="#b4cab4"/>
  <path d="M22.44,20.93c.43.1.65.23.65.39.05.01.09.12.14.35l-.06.37c.27,0,.49.19.65.59l.02.16c-.05.36-.12.55-.2.55-.17.18-.34.27-.53.27h-.06c-.22,0-.39-.06-.53-.18h-.02v.71l-.06.06h-.02l-.06-.06v-.73c-.15.14-.33.2-.55.2h-.04c-.43,0-.69-.27-.77-.79,0-.26.14-.49.41-.69.13-.06.22-.08.28-.08l-.06-.19v-.1c0-.34.16-.58.49-.73l.33-.08ZM21.76,21.74v.1l.08.27s-.15.06-.35.1c-.24.16-.36.36-.36.59,0,.26.14.46.41.61.06.02.13.04.22.04h.04c.23,0,.42-.1.59-.31h.06c.15.2.35.31.59.31h.06c.2,0,.37-.11.53-.35l.06-.32c0-.28-.16-.48-.48-.61-.14-.01-.2-.04-.2-.08.05-.15.07-.3.08-.45-.04-.15-.11-.28-.2-.39-.15-.12-.31-.18-.47-.18-.27,0-.48.15-.61.44-.04.05-.05.13-.05.22Z" fill="#b4cab4"/>
</svg>