<?xml version="1.0" encoding="UTF-8"?>
<svg id="Layer_2" xmlns="http://www.w3.org/2000/svg" viewBox="0 0 42.51 44.69">
  <g id="Rock">
    <g id="rocksFillSymbol">
      <g id="rockFillSymbol">
        <polygon points="21.08 1.85 20.04 1.85 20.04 1.76 21.07 1.76 21.27 1.7 21.45 1.45 21.52 1.5 21.33 1.77 21.08 1.85" fill="#b0b0b0"/>
        <polygon points="23.71 1.85 23.15 1.79 22.64 1.64 22.57 1.65 22.53 1.67 22.35 1.79 22.3 1.72 22.49 1.59 23 1.37 23.42 1.18 23.47 1.12 23.49 1.04 23.49 1.03 23.5 1.01 23.48 .89 23.42 .75 23.4 .72 23.17 .47 23.06 .44 22.97 .45 22.96 .46 21.89 .87 21.86 .79 22.09 .69 22.49 .5 22.54 .43 22.52 .29 22.52 .29 22.37 .13 22.38 .09 22.36 .13 22.34 .13 22.32 .08 22.33 .13 22.31 .13 22.29 .09 22.3 .13 22.1 .2 21.52 .41 21.11 .6 20.84 .71 20.78 .77 20.76 .85 20.78 .94 20.82 1.01 20.91 1.11 20.98 1.16 20.94 1.23 20.85 1.17 20.79 1.11 20.72 1.01 20.69 .94 20.68 .84 20.7 .75 20.75 .67 20.82 .61 21.08 .52 21.49 .33 22.07 .12 22.29 .05 22.31 .09 22.3 .04 22.36 .04 22.36 .04 22.37 .09 22.38 .04 22.43 .06 22.47 .1 22.63 .32 22.63 .4 22.61 .48 22.61 .5 23 .36 23.07 .35 23.13 .36 23.22 .4 23.28 .45 23.49 .71 23.54 .8 23.56 .87 23.58 1.01 23.58 1.03 23.58 1.05 23.56 1.13 23.51 1.22 23.42 1.29 23.38 1.3 23.03 1.45 22.75 1.57 22.81 1.59 23.17 1.71 23.71 1.76 23.71 1.85" fill="#b0b0b0"/>
      </g>
      <g id="smallRockFillSymbol">
        <polygon points="24.24 2.73 23.71 2.73 23.71 2.64 24.22 2.64 24.32 2.61 24.4 2.5 24.47 2.55 24.37 2.69 24.24 2.73" fill="#b0b0b0"/>
        <polygon points="25.54 2.73 25.27 2.7 25.03 2.63 25.02 2.61 25.02 2.61 25.02 2.63 25 2.63 25 2.62 24.99 2.62 24.99 2.63 24.97 2.63 24.88 2.7 24.83 2.62 24.84 2.62 24.95 2.55 25.18 2.45 25.36 2.38 25.39 2.41 25.37 2.37 25.4 2.4 25.38 2.36 25.43 2.38 25.4 2.35 25.44 2.37 25.4 2.34 25.45 2.35 25.41 2.33 25.41 2.32 25.46 2.32 25.42 2.3 25.41 2.22 25.37 2.16 25.29 2.05 25.31 2.01 25.28 2.04 25.29 2 25.27 2.04 25.28 1.99 25.25 2.03 25.26 1.99 25.26 2 25.25 2.03 25.24 2.03 25.23 1.98 25.22 2.02 25.19 2.03 25.16 1.99 25.18 2.03 24.64 2.24 24.61 2.16 24.93 2.01 24.94 2 24.94 1.98 24.99 1.97 24.94 1.97 24.99 1.95 24.94 1.96 24.94 1.95 24.87 1.87 24.86 1.87 24.85 1.87 24.75 1.9 24.46 2.01 24.26 2.1 24.13 2.15 24.09 2.13 24.11 2.16 24.07 2.15 24.11 2.18 24.1 2.19 24.05 2.19 24.1 2.2 24.11 2.26 24.19 2.34 24.15 2.42 24.08 2.37 24.03 2.3 24.01 2.21 24.02 2.16 24.07 2.16 24.02 2.14 24.06 2.09 24.1 2.12 24.08 2.08 24.1 2.07 24.22 2.02 24.43 1.93 24.86 1.78 24.92 1.8 24.94 1.81 25.02 1.91 25.03 1.98 25.03 2 25.16 1.95 25.18 1.99 25.17 1.94 25.22 1.94 25.24 1.94 25.25 1.98 25.26 1.94 25.28 1.95 25.35 1.99 25.47 2.16 25.5 2.27 25.51 2.29 25.47 2.4 25.41 2.45 25.39 2.46 25.12 2.57 25.28 2.62 25.55 2.64 25.54 2.73" fill="#b0b0b0"/>
      </g>
    </g>
  </g>
  <g id="Rock-2" data-name="Rock" isolation="isolate">
    <g id="rocksFillSymbol-2" data-name="rocksFillSymbol">
      <g id="rockFillSymbol-2" data-name="rockFillSymbol">
        <polygon points="38.04 1.81 37 1.81 37 1.72 38.03 1.72 38.24 1.66 38.41 1.41 38.48 1.46 38.29 1.73 38.04 1.81" fill="#b0b0b0"/>
        <polygon points="40.67 1.81 40.12 1.75 39.61 1.6 39.53 1.61 39.49 1.63 39.31 1.75 39.26 1.68 39.27 1.68 39.5 1.53 39.96 1.33 40.38 1.15 40.43 1.08 40.46 1 40.46 .99 40.46 .97 40.44 .85 40.39 .74 40.36 .68 40.13 .43 40.02 .4 39.93 .41 39.92 .42 38.85 .83 38.82 .75 39.05 .65 39.46 .46 39.5 .4 39.51 .33 39.48 .25 39.35 .1 39.34 .05 39.34 .09 39.3 .09 39.29 .04 39.29 .09 39.27 .09 39.26 .05 39.26 .1 39.06 .16 38.49 .37 38.07 .56 37.8 .67 37.75 .73 37.73 .79 37.72 .81 37.74 .9 37.8 .99 37.87 1.07 37.95 1.12 37.91 1.19 37.81 1.14 37.75 1.07 37.68 .97 37.65 .9 37.64 .8 37.66 .71 37.71 .63 37.79 .58 38.04 .48 38.45 .29 39.03 .08 39.25 0 39.27 .05 39.27 0 39.32 0 39.33 0 39.33 .05 39.34 0 39.39 .02 39.43 .06 39.58 .25 39.6 .36 39.58 .44 39.57 .46 39.96 .32 40.04 .31 40.09 .32 40.19 .36 40.25 .41 40.45 .67 40.51 .8 40.52 .83 40.54 .97 40.54 1 40.54 1.01 40.52 1.09 40.47 1.18 40.38 1.25 40.34 1.27 39.99 1.41 39.71 1.53 40.13 1.67 40.68 1.72 40.67 1.81" fill="#b0b0b0"/>
      </g>
      <g id="smallRockFillSymbol-2" data-name="smallRockFillSymbol">
        <polygon points="41.2 2.69 40.68 2.69 40.68 2.6 41.19 2.6 41.28 2.57 41.36 2.46 41.43 2.51 41.33 2.65 41.2 2.69" fill="#b0b0b0"/>
        <polygon points="42.51 2.69 42.23 2.66 41.99 2.59 41.99 2.57 41.98 2.58 41.98 2.59 41.97 2.59 41.97 2.58 41.95 2.59 41.95 2.59 41.93 2.6 41.84 2.66 41.79 2.59 41.91 2.51 42.14 2.41 42.32 2.34 42.35 2.37 42.34 2.33 42.37 2.36 42.35 2.32 42.39 2.34 42.36 2.31 42.4 2.33 42.37 2.3 42.41 2.31 42.37 2.29 42.38 2.28 42.42 2.28 42.38 2.26 42.37 2.18 42.34 2.12 42.25 2.01 42.27 1.97 42.24 2 42.26 1.96 42.23 2 42.24 1.96 42.22 1.99 42.23 1.95 42.22 1.96 42.21 1.99 42.2 1.99 42.19 1.94 42.18 1.99 42.16 1.99 42.13 1.95 42.14 1.99 41.61 2.2 41.57 2.12 41.89 1.97 41.9 1.96 41.91 1.94 41.95 1.93 41.91 1.93 41.95 1.91 41.91 1.92 41.9 1.91 41.83 1.83 41.82 1.83 41.81 1.83 41.71 1.87 41.43 1.97 41.22 2.06 41.09 2.11 41.05 2.09 41.08 2.12 41.03 2.11 41.07 2.14 41.06 2.16 41.01 2.16 41.06 2.17 41.09 2.25 41.16 2.3 41.12 2.38 41.05 2.33 41 2.26 40.98 2.21 41.02 2.19 40.97 2.2 40.97 2.17 40.97 2.15 41.02 2.15 40.98 2.14 40.98 2.12 41.03 2.12 40.99 2.1 41.03 2.05 41.07 2.08 41.04 2.04 41.06 2.03 41.19 1.98 41.39 1.89 41.82 1.74 41.88 1.76 41.9 1.77 41.98 1.87 42 1.94 41.99 1.96 42.13 1.91 42.14 1.95 42.14 1.9 42.18 1.9 42.2 1.9 42.21 1.94 42.22 1.9 42.24 1.91 42.31 1.95 42.44 2.12 42.47 2.23 42.47 2.25 42.43 2.36 42.37 2.41 42.35 2.42 42.09 2.53 42.25 2.58 42.51 2.6 42.51 2.69" fill="#b0b0b0"/>
      </g>
    </g>
  </g>
  <g id="Rock-3" data-name="Rock" isolation="isolate">
    <g id="rocksFillSymbol-3" data-name="rocksFillSymbol">
      <g id="rockFillSymbol-3" data-name="rockFillSymbol">
        <polygon points="32.04 9.81 31 9.81 31 9.72 32.03 9.72 32.24 9.66 32.41 9.41 32.48 9.46 32.29 9.73 32.04 9.81" fill="#b0b0b0"/>
        <polygon points="34.67 9.81 34.12 9.75 33.61 9.6 33.53 9.61 33.49 9.63 33.31 9.75 33.26 9.68 33.27 9.68 33.5 9.53 33.96 9.33 34.38 9.15 34.43 9.08 34.46 9 34.46 8.99 34.46 8.97 34.44 8.85 34.39 8.74 34.36 8.68 34.13 8.43 34.02 8.4 33.93 8.42 33.92 8.42 32.85 8.83 32.82 8.75 33.05 8.65 33.46 8.46 33.5 8.4 33.51 8.33 33.48 8.25 33.35 8.1 33.34 8.05 33.34 8.09 33.3 8.09 33.29 8.04 33.29 8.09 33.27 8.09 33.26 8.05 33.26 8.09 33.06 8.16 32.49 8.37 32.07 8.56 31.8 8.67 31.75 8.73 31.73 8.79 31.72 8.81 31.74 8.9 31.8 8.99 31.87 9.07 31.95 9.12 31.91 9.19 31.81 9.14 31.75 9.07 31.68 8.97 31.65 8.9 31.64 8.8 31.66 8.72 31.71 8.63 31.79 8.58 32.04 8.48 32.45 8.29 33.03 8.08 33.25 8.01 33.27 8.05 33.27 8 33.32 8 33.33 8 33.33 8.05 33.34 8.01 33.39 8.02 33.43 8.06 33.58 8.25 33.6 8.36 33.58 8.44 33.57 8.46 33.96 8.32 34.04 8.31 34.09 8.32 34.19 8.36 34.25 8.41 34.45 8.67 34.51 8.8 34.52 8.83 34.54 8.97 34.54 9 34.54 9.01 34.52 9.09 34.47 9.18 34.38 9.25 34.34 9.27 33.99 9.41 33.71 9.53 34.13 9.67 34.68 9.72 34.67 9.81" fill="#b0b0b0"/>
      </g>
      <g id="smallRockFillSymbol-3" data-name="smallRockFillSymbol">
        <polygon points="35.2 10.69 34.68 10.69 34.68 10.6 35.19 10.6 35.28 10.57 35.36 10.46 35.43 10.51 35.33 10.65 35.2 10.69" fill="#b0b0b0"/>
        <polygon points="36.51 10.69 36.23 10.66 35.99 10.59 35.99 10.57 35.98 10.58 35.98 10.59 35.97 10.59 35.97 10.58 35.95 10.59 35.95 10.59 35.93 10.6 35.84 10.66 35.79 10.59 35.91 10.51 36.14 10.41 36.32 10.34 36.35 10.37 36.34 10.33 36.37 10.36 36.35 10.32 36.39 10.34 36.36 10.31 36.4 10.33 36.37 10.3 36.41 10.31 36.37 10.29 36.38 10.28 36.42 10.28 36.38 10.26 36.37 10.18 36.34 10.12 36.25 10.01 36.27 9.97 36.24 10.01 36.26 9.96 36.23 10 36.24 9.96 36.22 9.99 36.23 9.95 36.22 9.96 36.21 9.99 36.2 9.99 36.19 9.94 36.18 9.99 36.16 9.99 36.13 9.95 36.14 9.99 35.61 10.2 35.57 10.12 35.89 9.97 35.9 9.96 35.91 9.94 35.95 9.93 35.91 9.93 35.95 9.91 35.91 9.92 35.9 9.91 35.83 9.83 35.82 9.83 35.81 9.83 35.71 9.87 35.43 9.97 35.22 10.06 35.09 10.11 35.05 10.09 35.08 10.12 35.03 10.11 35.07 10.14 35.06 10.16 35.01 10.17 35.06 10.17 35.09 10.25 35.16 10.3 35.12 10.38 35.05 10.33 35 10.26 34.98 10.21 35.02 10.19 34.97 10.2 34.97 10.17 34.97 10.15 35.02 10.15 34.98 10.14 34.98 10.12 35.03 10.12 34.99 10.1 35.03 10.05 35.07 10.08 35.04 10.04 35.06 10.03 35.19 9.98 35.39 9.89 35.82 9.74 35.88 9.76 35.9 9.77 35.98 9.87 36 9.94 35.99 9.96 36.13 9.91 36.14 9.95 36.14 9.9 36.18 9.9 36.2 9.9 36.21 9.94 36.22 9.9 36.24 9.91 36.31 9.95 36.44 10.12 36.47 10.23 36.47 10.25 36.43 10.36 36.37 10.41 36.35 10.42 36.09 10.53 36.25 10.58 36.51 10.6 36.51 10.69" fill="#b0b0b0"/>
      </g>
    </g>
  </g>
  <g id="Rock-4" data-name="Rock" isolation="isolate">
    <g id="rocksFillSymbol-4" data-name="rocksFillSymbol">
      <g id="rockFillSymbol-4" data-name="rockFillSymbol">
        <polygon points="6.04 11.84 5 11.84 5 11.75 6.03 11.75 6.24 11.69 6.41 11.44 6.49 11.49 6.29 11.76 6.04 11.84" fill="#b0b0b0"/>
        <polygon points="8.67 11.84 8.12 11.78 7.6 11.63 7.53 11.64 7.49 11.66 7.31 11.78 7.26 11.71 7.26 11.71 7.45 11.58 7.96 11.36 8.38 11.17 8.43 11.11 8.46 11.03 8.46 11.02 8.46 11 8.44 10.88 8.38 10.74 8.36 10.71 8.13 10.46 8.02 10.43 7.93 10.44 7.92 10.45 6.85 10.86 6.82 10.78 7.05 10.68 7.46 10.49 7.5 10.42 7.49 10.28 7.48 10.28 7.34 10.12 7.34 10.08 7.33 10.12 7.3 10.12 7.29 10.07 7.29 10.12 7.27 10.12 7.25 10.08 7.26 10.12 7.06 10.19 6.49 10.4 6.07 10.59 5.8 10.7 5.75 10.76 5.72 10.84 5.74 10.93 5.79 11 5.87 11.1 5.95 11.15 5.91 11.22 5.81 11.17 5.75 11.1 5.68 11 5.65 10.93 5.64 10.83 5.66 10.74 5.71 10.66 5.78 10.6 6.04 10.51 6.45 10.32 7.03 10.1 7.25 10.04 7.27 10.08 7.27 10.03 7.32 10.03 7.33 10.03 7.33 10.08 7.34 10.03 7.39 10.05 7.44 10.09 7.59 10.31 7.6 10.39 7.58 10.47 7.57 10.49 7.96 10.35 8.04 10.34 8.09 10.35 8.19 10.39 8.25 10.44 8.45 10.7 8.5 10.79 8.53 10.86 8.54 11 8.54 11.02 8.54 11.04 8.52 11.12 8.47 11.21 8.38 11.28 8.34 11.3 7.99 11.44 7.71 11.56 7.78 11.58 8.13 11.7 8.68 11.75 8.67 11.84" fill="#b0b0b0"/>
      </g>
      <g id="smallRockFillSymbol-4" data-name="smallRockFillSymbol">
        <polygon points="9.2 12.72 8.67 12.72 8.67 12.63 9.19 12.63 9.28 12.6 9.36 12.48 9.43 12.54 9.33 12.68 9.2 12.72" fill="#b0b0b0"/>
        <polygon points="10.51 12.72 10.23 12.69 9.97 12.62 9.95 12.62 9.95 12.62 9.93 12.63 9.84 12.69 9.79 12.61 9.91 12.54 10.14 12.44 10.32 12.37 10.35 12.4 10.34 12.36 10.37 12.39 10.35 12.35 10.36 12.34 10.39 12.37 10.36 12.34 10.41 12.34 10.37 12.32 10.42 12.33 10.38 12.31 10.42 12.31 10.38 12.29 10.38 12.28 10.35 12.17 10.34 12.15 10.24 12.03 10.26 11.99 10.23 12.02 10.24 11.98 10.22 12.02 10.23 11.98 10.22 11.99 10.21 12.02 10.2 12.02 10.19 11.97 10.18 12.01 10.16 12.02 10.13 11.98 10.14 12.02 9.61 12.23 9.57 12.15 9.89 12 9.9 11.99 9.95 11.99 9.9 11.98 9.95 11.98 9.91 11.97 9.95 11.96 9.91 11.95 9.9 11.94 9.83 11.86 9.81 11.86 9.71 11.89 9.42 12 9.22 12.09 9.09 12.14 9.05 12.12 9.08 12.15 9.03 12.14 9.07 12.17 9.06 12.18 9.02 12.18 9.06 12.19 9.08 12.25 9.16 12.33 9.12 12.41 9.05 12.36 9 12.29 8.97 12.2 8.98 12.15 9.03 12.15 8.99 12.13 9.03 12.08 9.07 12.11 9.04 12.07 9.06 12.06 9.19 12.01 9.39 11.92 9.82 11.77 9.88 11.79 9.91 11.81 9.98 11.9 9.99 11.97 9.99 11.99 10.12 11.94 10.14 11.98 10.14 11.93 10.18 11.93 10.2 11.93 10.21 11.97 10.22 11.93 10.24 11.94 10.31 11.98 10.44 12.14 10.47 12.26 10.47 12.28 10.45 12.37 10.42 12.4 10.37 12.44 10.35 12.45 10.09 12.56 10.25 12.61 10.51 12.63 10.51 12.72" fill="#b0b0b0"/>
      </g>
    </g>
  </g>
  <g id="Rock-5" data-name="Rock" isolation="isolate">
    <g id="rocksFillSymbol-5" data-name="rocksFillSymbol">
      <g id="rockFillSymbol-5" data-name="rockFillSymbol">
        <polygon points="1.04 21.71 0 21.71 0 21.62 1.03 21.62 1.24 21.56 1.41 21.31 1.49 21.36 1.29 21.63 1.04 21.71" fill="#b0b0b0"/>
        <polygon points="3.67 21.71 3.12 21.65 2.6 21.51 2.53 21.51 2.49 21.53 2.31 21.65 2.26 21.58 2.26 21.58 2.45 21.45 2.96 21.23 3.38 21.05 3.43 20.98 3.46 20.9 3.45 20.89 3.46 20.87 3.44 20.75 3.38 20.61 3.36 20.59 3.13 20.33 3.02 20.3 2.93 20.32 2.92 20.32 1.85 20.74 1.82 20.65 2.05 20.56 2.46 20.37 2.5 20.29 2.49 20.16 2.48 20.15 2.34 20 2.35 19.95 2.33 19.99 2.3 19.99 2.29 19.94 2.29 19.99 2.27 19.99 2.26 19.95 2.26 20 2.06 20.06 1.49 20.27 1.07 20.46 .8 20.57 .75 20.64 .72 20.71 .74 20.8 .79 20.88 .87 20.97 .95 21.02 .9 21.1 .81 21.04 .75 20.97 .68 20.87 .65 20.8 .64 20.7 .66 20.62 .71 20.53 .78 20.48 1.04 20.38 1.45 20.19 2.03 19.98 2.25 19.91 2.27 19.95 2.27 19.9 2.32 19.9 2.33 19.9 2.33 19.95 2.34 19.91 2.39 19.93 2.44 19.96 2.59 20.19 2.6 20.26 2.58 20.34 2.57 20.36 2.96 20.22 3.04 20.21 3.09 20.22 3.19 20.26 3.25 20.31 3.45 20.57 3.5 20.66 3.53 20.73 3.54 20.87 3.54 20.9 3.54 20.91 3.52 20.99 3.47 21.08 3.38 21.15 3.34 21.17 2.99 21.31 2.71 21.43 2.78 21.46 3.13 21.57 3.68 21.62 3.67 21.71" fill="#b0b0b0"/>
      </g>
      <g id="smallRockFillSymbol-5" data-name="smallRockFillSymbol">
        <polygon points="4.2 22.59 3.67 22.59 3.67 22.5 4.19 22.5 4.28 22.48 4.36 22.36 4.43 22.41 4.33 22.55 4.2 22.59" fill="#b0b0b0"/>
        <polygon points="5.51 22.59 5.23 22.56 4.97 22.49 4.95 22.49 4.95 22.49 4.93 22.5 4.84 22.56 4.79 22.49 4.91 22.41 5.14 22.31 5.32 22.24 5.35 22.27 5.34 22.23 5.37 22.26 5.35 22.22 5.36 22.22 5.39 22.24 5.36 22.21 5.41 22.22 5.37 22.19 5.42 22.2 5.38 22.18 5.42 22.18 5.38 22.16 5.38 22.15 5.35 22.05 5.34 22.02 5.24 21.9 5.26 21.86 5.23 21.9 5.24 21.86 5.22 21.89 5.23 21.85 5.22 21.87 5.21 21.89 5.2 21.89 5.19 21.84 5.18 21.89 5.16 21.89 5.13 21.85 5.14 21.9 4.61 22.1 4.57 22.02 4.89 21.88 4.9 21.87 4.95 21.87 4.9 21.85 4.95 21.85 4.91 21.84 4.95 21.83 4.91 21.82 4.9 21.81 4.83 21.73 4.81 21.74 4.71 21.77 4.43 21.87 4.22 21.97 4.09 22.01 4.05 21.99 4.08 22.02 4.03 22.01 4.07 22.04 4.06 22.05 4.02 22.05 4.06 22.07 4.08 22.13 4.16 22.21 4.12 22.28 4.05 22.23 3.99 22.16 3.97 22.07 3.98 22.02 4.03 22.02 3.99 22.01 4.03 21.95 4.07 21.98 4.04 21.94 4.06 21.93 4.19 21.89 4.39 21.79 4.82 21.64 4.88 21.66 4.91 21.68 4.98 21.77 4.99 21.84 4.99 21.86 5.12 21.81 5.14 21.85 5.14 21.81 5.18 21.8 5.2 21.8 5.21 21.85 5.22 21.8 5.24 21.81 5.31 21.85 5.44 22.02 5.47 22.13 5.47 22.15 5.45 22.24 5.42 22.28 5.37 22.31 5.35 22.32 5.09 22.43 5.25 22.48 5.51 22.5 5.51 22.59" fill="#b0b0b0"/>
      </g>
    </g>
  </g>
  <g id="Rock-6" data-name="Rock" isolation="isolate">
    <g id="rocksFillSymbol-6" data-name="rocksFillSymbol">
      <g id="rockFillSymbol-6" data-name="rockFillSymbol">
        <polygon points="6.04 34.84 5 34.84 5 34.75 6.03 34.75 6.24 34.69 6.41 34.44 6.49 34.49 6.29 34.76 6.27 34.77 6.04 34.84" fill="#b0b0b0"/>
        <polygon points="8.67 34.84 8.12 34.78 7.6 34.63 7.53 34.64 7.49 34.66 7.31 34.78 7.26 34.71 7.45 34.58 7.96 34.36 8.38 34.18 8.43 34.11 8.46 34.03 8.46 34.02 8.46 34 8.44 33.88 8.38 33.74 8.36 33.72 8.13 33.46 8.03 33.43 7.92 33.45 6.85 33.86 6.82 33.79 7.05 33.69 7.46 33.49 7.5 33.42 7.49 33.29 7.48 33.28 7.34 33.13 7.34 33.08 7.33 33.13 7.3 33.12 7.29 33.08 7.29 33.12 7.27 33.13 7.25 33.08 7.26 33.13 7.06 33.19 6.49 33.4 6.07 33.59 5.8 33.7 5.77 33.73 5.73 33.81 5.72 33.84 5.74 33.93 5.79 34.01 5.87 34.1 5.95 34.15 5.91 34.23 5.81 34.17 5.75 34.1 5.68 34 5.65 33.93 5.64 33.83 5.66 33.75 5.71 33.66 5.78 33.61 6.04 33.51 6.45 33.32 7.03 33.11 7.25 33.04 7.27 33.08 7.27 33.04 7.32 33.03 7.33 33.03 7.33 33.08 7.34 33.04 7.39 33.06 7.43 33.09 7.59 33.32 7.6 33.4 7.58 33.47 7.57 33.49 7.96 33.35 8.04 33.34 8.15 33.37 8.22 33.41 8.25 33.44 8.45 33.7 8.5 33.79 8.53 33.86 8.54 34 8.54 34.03 8.54 34.04 8.52 34.13 8.47 34.21 8.38 34.28 8.34 34.3 7.99 34.44 7.71 34.56 7.78 34.59 8.13 34.7 8.68 34.75 8.67 34.84" fill="#b0b0b0"/>
      </g>
      <g id="smallRockFillSymbol-6" data-name="smallRockFillSymbol">
        <polygon points="9.2 35.72 8.67 35.72 8.67 35.63 9.19 35.63 9.28 35.6 9.37 35.49 9.43 35.54 9.33 35.68 9.2 35.72" fill="#b0b0b0"/>
        <polygon points="10.51 35.72 10.23 35.69 9.97 35.62 9.95 35.62 9.95 35.62 9.95 35.62 9.92 35.63 9.84 35.69 9.79 35.62 9.92 35.54 10.14 35.44 10.32 35.37 10.35 35.4 10.34 35.36 10.37 35.4 10.35 35.35 10.35 35.35 10.36 35.35 10.39 35.37 10.36 35.34 10.41 35.35 10.37 35.32 10.42 35.33 10.38 35.31 10.42 35.32 10.38 35.3 10.38 35.29 10.35 35.18 10.34 35.15 10.24 35.04 10.26 34.99 10.23 35.03 10.24 34.99 10.22 35.02 10.23 34.98 10.22 35 10.21 35.02 10.2 35.02 10.19 34.97 10.18 35.02 10.16 35.02 10.13 34.99 10.14 35.03 9.61 35.23 9.57 35.15 9.89 35.01 9.9 35 9.95 35 9.9 34.98 9.95 34.98 9.91 34.97 9.95 34.96 9.91 34.95 9.9 34.94 9.83 34.86 9.81 34.87 9.71 34.9 9.42 35 9.22 35.1 9.09 35.14 9.05 35.12 9.08 35.15 9.03 35.14 9.07 35.17 9.06 35.18 9.02 35.18 9.06 35.2 9.08 35.26 9.16 35.34 9.12 35.41 9.05 35.36 9 35.29 8.97 35.21 8.98 35.15 9.03 35.15 8.99 35.14 9.01 35.1 9.03 35.09 9.07 35.11 9.04 35.08 9.06 35.06 9.19 35.01 9.39 34.92 9.68 34.81 9.82 34.77 9.88 34.79 9.91 34.81 9.98 34.9 9.99 34.97 9.99 34.99 10.12 34.94 10.14 34.98 10.14 34.94 10.18 34.93 10.2 34.93 10.21 34.98 10.22 34.93 10.25 34.94 10.24 34.99 10.26 34.95 10.31 34.98 10.44 35.15 10.47 35.26 10.47 35.29 10.45 35.37 10.42 35.41 10.37 35.44 10.09 35.56 10.25 35.61 10.51 35.63 10.51 35.72" fill="#b0b0b0"/>
      </g>
    </g>
  </g>
  <g id="Rock-7" data-name="Rock" isolation="isolate">
    <g id="rocksFillSymbol-7" data-name="rocksFillSymbol">
      <g id="rockFillSymbol-7" data-name="rockFillSymbol">
        <polygon points="23.04 32.81 22 32.81 22 32.72 23.03 32.72 23.24 32.66 23.42 32.41 23.49 32.47 23.29 32.73 23.27 32.74 23.04 32.81" fill="#b0b0b0"/>
        <polygon points="25.67 32.81 25.12 32.75 24.61 32.6 24.53 32.61 24.49 32.63 24.31 32.75 24.26 32.68 24.5 32.53 24.96 32.33 25.38 32.15 25.43 32.08 25.46 32 25.46 31.99 25.46 31.97 25.44 31.85 25.39 31.74 25.36 31.68 25.13 31.43 25.03 31.4 24.92 31.42 23.85 31.83 23.82 31.75 24.05 31.65 24.46 31.47 24.5 31.4 24.51 31.33 24.48 31.25 24.35 31.1 24.35 31.05 24.34 31.09 24.33 31.05 24.32 31.09 24.3 31.09 24.29 31.04 24.29 31.09 24.27 31.09 24.26 31.05 24.26 31.1 24.06 31.16 23.49 31.37 23.07 31.56 22.8 31.67 22.77 31.7 22.73 31.78 22.72 31.81 22.75 31.9 22.79 31.97 22.87 32.07 22.95 32.12 22.91 32.19 22.82 32.14 22.75 32.07 22.68 31.97 22.65 31.9 22.64 31.8 22.66 31.72 22.71 31.63 22.78 31.58 23.04 31.48 23.45 31.29 24.03 31.08 24.25 31.01 24.27 31.05 24.27 31.01 24.32 31 24.33 31 24.33 31.05 24.34 31.01 24.39 31.03 24.44 31.06 24.58 31.25 24.6 31.36 24.58 31.44 24.57 31.46 25 31.31 25.04 31.31 25.15 31.34 25.22 31.38 25.25 31.41 25.45 31.67 25.51 31.8 25.54 31.9 25.54 31.97 25.54 32 25.54 32.01 25.52 32.09 25.47 32.18 25.38 32.25 25.35 32.27 24.99 32.41 24.71 32.53 24.77 32.56 25.13 32.67 25.68 32.72 25.67 32.81" fill="#b0b0b0"/>
      </g>
      <g id="smallRockFillSymbol-7" data-name="smallRockFillSymbol">
        <polygon points="26.2 33.69 25.68 33.69 25.68 33.6 26.19 33.6 26.28 33.57 26.36 33.46 26.44 33.51 26.33 33.65 26.2 33.69" fill="#b0b0b0"/>
        <polygon points="27.51 33.69 27.23 33.66 26.99 33.59 26.99 33.57 26.98 33.58 26.98 33.59 26.97 33.59 26.96 33.58 26.95 33.59 26.95 33.59 26.94 33.59 26.84 33.66 26.79 33.59 26.91 33.51 27.14 33.41 27.32 33.34 27.35 33.37 27.34 33.33 27.37 33.36 27.35 33.32 27.39 33.34 27.36 33.31 27.4 33.33 27.37 33.3 27.41 33.31 27.37 33.29 27.38 33.28 27.42 33.29 27.38 33.26 27.37 33.19 27.34 33.12 27.25 33.01 27.27 32.97 27.24 33.01 27.26 32.97 27.23 33 27.24 32.96 27.22 32.99 27.23 32.95 27.22 32.97 27.21 32.99 27.2 32.99 27.19 32.94 27.18 32.99 27.16 32.99 27.13 32.95 27.14 33 26.61 33.2 26.57 33.12 26.89 32.97 26.9 32.96 26.91 32.94 26.95 32.93 26.91 32.93 26.95 32.92 26.91 32.92 26.9 32.91 26.83 32.83 26.82 32.83 26.81 32.83 26.71 32.86 26.43 32.97 26.22 33.06 26.09 33.11 26.05 33.09 26.08 33.13 26.03 33.11 26.07 33.14 26.06 33.16 26.01 33.17 26.06 33.17 26.09 33.25 26.16 33.3 26.12 33.38 26.05 33.33 26 33.26 25.98 33.22 26.02 33.19 25.97 33.2 25.97 33.17 25.97 33.15 26.02 33.15 25.98 33.14 25.98 33.12 26.03 33.13 25.99 33.1 26.01 33.06 26.03 33.05 26.07 33.08 26.04 33.04 26.06 33.03 26.19 32.99 26.39 32.89 26.68 32.78 26.82 32.74 26.88 32.76 26.9 32.78 26.98 32.87 27 32.94 26.99 32.96 27.12 32.91 27.14 32.95 27.14 32.9 27.18 32.9 27.2 32.9 27.21 32.95 27.22 32.9 27.25 32.91 27.24 32.96 27.26 32.92 27.31 32.95 27.44 33.12 27.47 33.23 27.47 33.26 27.43 33.36 27.37 33.41 27.09 33.53 27.25 33.58 27.51 33.6 27.51 33.69" fill="#b0b0b0"/>
      </g>
    </g>
  </g>
  <g id="Rock-8" data-name="Rock" isolation="isolate">
    <g id="rocksFillSymbol-8" data-name="rocksFillSymbol">
      <g id="rockFillSymbol-8" data-name="rockFillSymbol">
        <polygon points="38.04 31.81 37 31.81 37 31.72 38.03 31.72 38.24 31.66 38.41 31.41 38.48 31.47 38.29 31.73 38.27 31.74 38.04 31.81" fill="#b0b0b0"/>
        <polygon points="40.67 31.81 40.12 31.75 39.61 31.6 39.53 31.61 39.49 31.63 39.31 31.75 39.26 31.68 39.5 31.53 39.96 31.33 40.38 31.15 40.43 31.08 40.46 31 40.46 30.99 40.46 30.97 40.44 30.85 40.39 30.74 40.36 30.68 40.13 30.43 40.03 30.4 39.92 30.42 38.85 30.83 38.82 30.75 39.05 30.65 39.46 30.47 39.5 30.4 39.51 30.33 39.48 30.25 39.35 30.1 39.34 30.05 39.34 30.09 39.3 30.09 39.29 30.04 39.29 30.09 39.27 30.09 39.26 30.05 39.26 30.1 39.06 30.16 38.49 30.37 38.07 30.56 37.8 30.67 37.77 30.7 37.73 30.79 37.72 30.81 37.74 30.9 37.8 30.99 37.89 31.08 37.95 31.12 37.91 31.19 37.84 31.15 37.77 31.1 37.72 31.02 37.65 30.9 37.64 30.8 37.66 30.72 37.71 30.63 37.79 30.58 38.04 30.48 38.45 30.29 39.03 30.08 39.25 30.01 39.27 30.05 39.27 30.01 39.32 30 39.33 30 39.33 30.05 39.34 30.01 39.39 30.03 39.43 30.06 39.58 30.25 39.6 30.36 39.58 30.44 39.57 30.46 40 30.31 40.04 30.31 40.15 30.34 40.22 30.38 40.25 30.41 40.45 30.67 40.51 30.8 40.54 30.9 40.54 30.97 40.54 31 40.54 31.01 40.52 31.09 40.47 31.18 40.38 31.25 40.34 31.27 39.99 31.41 39.71 31.53 39.77 31.56 40.13 31.67 40.68 31.72 40.67 31.81" fill="#b0b0b0"/>
      </g>
      <g id="smallRockFillSymbol-8" data-name="smallRockFillSymbol">
        <polygon points="41.2 32.69 40.68 32.69 40.68 32.6 41.19 32.6 41.28 32.57 41.36 32.46 41.43 32.51 41.33 32.65 41.2 32.69" fill="#b0b0b0"/>
        <polygon points="42.51 32.69 42.23 32.66 41.99 32.59 41.99 32.57 41.98 32.58 41.98 32.59 41.97 32.59 41.97 32.58 41.95 32.59 41.95 32.59 41.94 32.59 41.84 32.66 41.79 32.59 41.91 32.51 42.14 32.41 42.32 32.34 42.35 32.37 42.34 32.33 42.37 32.36 42.35 32.32 42.39 32.34 42.36 32.31 42.4 32.33 42.37 32.3 42.41 32.31 42.37 32.29 42.38 32.28 42.42 32.29 42.38 32.26 42.37 32.19 42.34 32.12 42.25 32.01 42.27 31.97 42.24 32.01 42.26 31.97 42.23 32 42.24 31.96 42.22 31.99 42.23 31.95 42.22 31.97 42.21 31.99 42.2 31.99 42.19 31.94 42.18 31.99 42.16 31.99 42.13 31.95 42.14 32 41.61 32.2 41.57 32.12 41.89 31.97 41.9 31.96 41.91 31.94 41.95 31.93 41.91 31.93 41.95 31.92 41.91 31.92 41.9 31.91 41.83 31.83 41.82 31.83 41.81 31.83 41.71 31.86 41.43 31.97 41.22 32.06 41.09 32.11 41.05 32.09 41.08 32.13 41.03 32.11 41.07 32.14 41.06 32.16 41.01 32.17 41.06 32.17 41.09 32.25 41.16 32.3 41.12 32.38 41.05 32.33 41 32.26 40.98 32.22 41.02 32.19 40.97 32.2 40.97 32.17 40.97 32.15 41.02 32.15 40.98 32.14 40.98 32.12 41.03 32.13 40.99 32.1 41.01 32.06 41.03 32.05 41.07 32.08 41.04 32.04 41.06 32.03 41.19 31.99 41.39 31.89 41.68 31.78 41.82 31.74 41.88 31.76 41.9 31.78 41.98 31.87 42 31.94 41.99 31.96 42.12 31.91 42.14 31.95 42.14 31.9 42.18 31.9 42.2 31.9 42.21 31.95 42.22 31.9 42.25 31.91 42.24 31.96 42.26 31.92 42.31 31.95 42.44 32.12 42.47 32.23 42.47 32.26 42.43 32.36 42.37 32.41 42.09 32.53 42.25 32.58 42.51 32.6 42.51 32.69" fill="#b0b0b0"/>
      </g>
    </g>
  </g>
  <g id="Rock-9" data-name="Rock" isolation="isolate">
    <g id="rocksFillSymbol-9" data-name="rocksFillSymbol">
      <g id="rockFillSymbol-9" data-name="rockFillSymbol">
        <polygon points="35.04 43.81 34 43.81 34 43.72 35.03 43.72 35.24 43.66 35.41 43.41 35.48 43.47 35.29 43.73 35.27 43.74 35.04 43.81" fill="#b0b0b0"/>
        <polygon points="37.67 43.81 37.12 43.75 36.61 43.6 36.53 43.61 36.49 43.63 36.31 43.75 36.26 43.68 36.5 43.53 36.96 43.33 37.38 43.15 37.43 43.08 37.46 43 37.46 42.99 37.46 42.97 37.44 42.85 37.39 42.74 37.36 42.68 37.13 42.43 37.03 42.4 36.92 42.42 35.85 42.83 35.82 42.75 36.05 42.65 36.46 42.47 36.5 42.4 36.51 42.33 36.48 42.25 36.35 42.1 36.34 42.05 36.34 42.09 36.3 42.09 36.29 42.04 36.29 42.09 36.27 42.09 36.26 42.05 36.26 42.1 36.06 42.16 35.49 42.37 35.07 42.56 34.8 42.67 34.77 42.7 34.73 42.79 34.72 42.81 34.74 42.9 34.8 42.99 34.89 43.08 34.95 43.12 34.91 43.19 34.84 43.15 34.77 43.1 34.72 43.02 34.65 42.9 34.64 42.8 34.66 42.72 34.71 42.63 34.79 42.58 35.04 42.48 35.45 42.29 36.03 42.08 36.25 42.01 36.27 42.05 36.27 42.01 36.32 42 36.33 42 36.33 42.05 36.34 42.01 36.39 42.03 36.43 42.06 36.58 42.25 36.6 42.36 36.58 42.44 36.57 42.46 37 42.31 37.04 42.31 37.15 42.34 37.22 42.38 37.25 42.41 37.45 42.67 37.51 42.8 37.54 42.9 37.54 42.97 37.54 43 37.54 43.01 37.52 43.09 37.47 43.18 37.38 43.25 37.34 43.27 36.99 43.41 36.71 43.53 36.77 43.56 37.13 43.67 37.68 43.72 37.67 43.81" fill="#b0b0b0"/>
      </g>
      <g id="smallRockFillSymbol-9" data-name="smallRockFillSymbol">
        <polygon points="38.2 44.69 37.68 44.69 37.68 44.6 38.19 44.6 38.28 44.57 38.36 44.46 38.43 44.51 38.33 44.65 38.2 44.69" fill="#b0b0b0"/>
        <polygon points="39.51 44.69 39.23 44.66 38.99 44.59 38.99 44.57 38.98 44.58 38.98 44.59 38.97 44.59 38.97 44.58 38.95 44.59 38.95 44.59 38.94 44.59 38.84 44.66 38.79 44.59 38.91 44.51 39.14 44.41 39.32 44.34 39.35 44.37 39.34 44.33 39.37 44.36 39.35 44.32 39.39 44.34 39.36 44.31 39.4 44.33 39.37 44.3 39.41 44.31 39.37 44.29 39.38 44.28 39.42 44.29 39.38 44.26 39.37 44.19 39.34 44.12 39.25 44.01 39.27 43.97 39.24 44.01 39.26 43.97 39.23 44 39.24 43.96 39.22 43.99 39.23 43.95 39.22 43.97 39.21 43.99 39.2 43.99 39.19 43.94 39.18 43.99 39.16 43.99 39.13 43.95 39.14 44 38.61 44.2 38.57 44.12 38.89 43.97 38.9 43.96 38.91 43.94 38.95 43.93 38.91 43.93 38.95 43.92 38.91 43.92 38.9 43.91 38.83 43.83 38.82 43.83 38.81 43.83 38.71 43.86 38.43 43.97 38.22 44.06 38.09 44.11 38.05 44.09 38.08 44.13 38.03 44.11 38.07 44.14 38.06 44.16 38.01 44.17 38.06 44.17 38.09 44.25 38.16 44.3 38.12 44.38 38.05 44.33 38 44.26 37.98 44.22 38.02 44.19 37.97 44.2 37.97 44.17 37.97 44.15 38.02 44.15 37.98 44.14 37.98 44.12 38.03 44.13 37.99 44.1 38.01 44.06 38.03 44.05 38.07 44.08 38.04 44.04 38.06 44.03 38.19 43.99 38.39 43.89 38.68 43.78 38.82 43.74 38.88 43.76 38.9 43.78 38.98 43.87 39 43.94 38.99 43.96 39.12 43.91 39.14 43.95 39.14 43.9 39.18 43.9 39.2 43.9 39.21 43.95 39.22 43.9 39.25 43.91 39.24 43.96 39.26 43.92 39.31 43.95 39.44 44.12 39.47 44.23 39.47 44.26 39.43 44.36 39.37 44.41 39.09 44.53 39.25 44.58 39.51 44.6 39.51 44.69" fill="#b0b0b0"/>
      </g>
    </g>
  </g>
  <g id="Rock-10" data-name="Rock" isolation="isolate">
    <g id="rocksFillSymbol-10" data-name="rocksFillSymbol">
      <g id="rockFillSymbol-10" data-name="rockFillSymbol">
        <polygon points="1.04 43.79 0 43.79 0 43.7 1.03 43.7 1.24 43.63 1.41 43.39 1.49 43.44 1.29 43.71 1.27 43.72 1.04 43.79" fill="#b0b0b0"/>
        <polygon points="3.67 43.78 3.12 43.73 2.6 43.58 2.53 43.59 2.49 43.61 2.31 43.73 2.26 43.66 2.45 43.52 2.96 43.3 3.38 43.13 3.43 43.06 3.46 42.98 3.45 42.97 3.46 42.95 3.44 42.83 3.38 42.69 3.36 42.66 3.13 42.4 3.03 42.38 2.92 42.4 1.85 42.81 1.82 42.73 2.05 42.63 2.46 42.44 2.5 42.36 2.49 42.23 2.48 42.23 2.34 42.07 2.35 42.03 2.33 42.07 2.3 42.06 2.29 42.02 2.29 42.06 2.27 42.07 2.26 42.03 2.26 42.07 2.06 42.14 1.49 42.35 1.07 42.54 .8 42.65 .77 42.68 .73 42.76 .72 42.79 .74 42.88 .79 42.95 .87 43.05 .95 43.1 .9 43.17 .81 43.11 .75 43.05 .68 42.94 .65 42.88 .64 42.78 .66 42.69 .71 42.61 .78 42.55 1.04 42.46 1.45 42.27 2.03 42.05 2.25 41.99 2.27 42.03 2.27 41.98 2.32 41.98 2.33 41.98 2.33 42.03 2.34 41.98 2.39 42 2.43 42.04 2.59 42.26 2.6 42.34 2.58 42.42 2.57 42.44 2.96 42.29 3.04 42.29 3.15 42.32 3.22 42.36 3.25 42.39 3.45 42.64 3.5 42.74 3.53 42.8 3.54 42.95 3.54 42.97 3.54 42.98 3.52 43.07 3.47 43.16 3.38 43.23 3.34 43.24 2.99 43.38 2.71 43.51 2.78 43.53 3.13 43.64 3.68 43.7 3.67 43.78" fill="#b0b0b0"/>
      </g>
      <g id="smallRockFillSymbol-10" data-name="smallRockFillSymbol">
        <polygon points="4.2 44.67 3.67 44.67 3.67 44.58 4.19 44.58 4.28 44.55 4.37 44.43 4.43 44.49 4.33 44.63 4.2 44.67" fill="#b0b0b0"/>
        <polygon points="5.51 44.67 5.23 44.64 4.97 44.57 4.95 44.57 4.95 44.57 4.95 44.57 4.93 44.58 4.84 44.63 4.79 44.56 4.91 44.49 5.14 44.38 5.32 44.31 5.35 44.35 5.34 44.31 5.37 44.34 5.35 44.3 5.35 44.3 5.36 44.29 5.39 44.32 5.36 44.28 5.41 44.29 5.37 44.27 5.42 44.28 5.38 44.26 5.42 44.26 5.38 44.24 5.38 44.23 5.35 44.12 5.34 44.1 5.24 43.98 5.26 43.94 5.23 43.97 5.24 43.93 5.22 43.97 5.23 43.92 5.22 43.94 5.21 43.97 5.2 43.97 5.19 43.92 5.18 43.97 5.16 43.97 5.13 43.93 5.14 43.97 4.61 44.18 4.57 44.1 4.89 43.95 4.9 43.94 4.95 43.94 4.9 43.93 4.95 43.93 4.91 43.92 4.95 43.9 4.91 43.9 4.9 43.89 4.83 43.81 4.81 43.81 4.71 43.84 4.43 43.95 4.22 44.04 4.09 44.09 4.05 44.06 4.08 44.1 4.03 44.09 4.07 44.11 4.06 44.13 4.02 44.13 4.06 44.14 4.08 44.2 4.16 44.28 4.12 44.36 4.05 44.31 3.99 44.24 3.97 44.15 3.98 44.1 4.03 44.1 3.99 44.08 4.01 44.04 4.03 44.03 4.07 44.05 4.04 44.02 4.06 44.01 4.19 43.96 4.39 43.87 4.68 43.76 4.82 43.72 4.88 43.74 4.91 43.76 4.98 43.85 4.99 43.92 4.99 43.94 5.12 43.89 5.14 43.92 5.14 43.88 5.18 43.88 5.2 43.88 5.21 43.92 5.22 43.88 5.25 43.89 5.24 43.93 5.26 43.89 5.31 43.93 5.44 44.09 5.47 44.21 5.47 44.23 5.45 44.31 5.42 44.35 5.37 44.39 5.09 44.51 5.25 44.55 5.51 44.58 5.51 44.67" fill="#b0b0b0"/>
      </g>
    </g>
  </g>
  <g id="Rock-11" data-name="Rock" isolation="isolate">
    <g id="rocksFillSymbol-11" data-name="rocksFillSymbol">
      <g id="rockFillSymbol-11" data-name="rockFillSymbol">
        <polygon points="33.04 19.81 32 19.81 32 19.72 33.03 19.72 33.24 19.66 33.41 19.41 33.48 19.46 33.29 19.73 33.04 19.81" fill="#b0b0b0"/>
        <polygon points="35.67 19.81 35.12 19.75 34.61 19.6 34.53 19.61 34.49 19.63 34.31 19.75 34.26 19.68 34.27 19.68 34.5 19.53 34.96 19.33 35.38 19.15 35.43 19.08 35.46 19 35.46 18.99 35.46 18.97 35.44 18.85 35.39 18.74 35.36 18.68 35.13 18.43 35.02 18.4 34.93 18.41 34.92 18.42 33.85 18.83 33.82 18.75 34.05 18.65 34.46 18.46 34.5 18.4 34.51 18.33 34.48 18.25 34.35 18.1 34.34 18.05 34.34 18.09 34.3 18.09 34.29 18.04 34.29 18.09 34.27 18.09 34.26 18.05 34.26 18.09 34.06 18.16 33.49 18.37 33.07 18.56 32.8 18.67 32.75 18.74 32.73 18.79 32.72 18.81 32.74 18.9 32.8 18.99 32.87 19.07 32.95 19.12 32.91 19.19 32.81 19.14 32.75 19.07 32.68 18.97 32.65 18.9 32.64 18.8 32.66 18.72 32.71 18.63 32.79 18.57 33.04 18.48 33.45 18.29 34.03 18.08 34.25 18.01 34.27 18.05 34.27 18 34.32 18 34.33 18 34.33 18.05 34.34 18.01 34.39 18.02 34.43 18.06 34.58 18.25 34.6 18.36 34.58 18.44 34.57 18.46 34.96 18.32 35.04 18.31 35.09 18.32 35.19 18.36 35.25 18.41 35.45 18.67 35.51 18.8 35.52 18.83 35.54 18.97 35.54 19 35.54 19.01 35.52 19.09 35.47 19.18 35.38 19.25 35.34 19.27 34.99 19.41 34.71 19.53 35.13 19.67 35.68 19.72 35.67 19.81" fill="#b0b0b0"/>
      </g>
      <g id="smallRockFillSymbol-11" data-name="smallRockFillSymbol">
        <polygon points="36.2 20.69 35.68 20.69 35.68 20.6 36.19 20.6 36.28 20.57 36.36 20.46 36.43 20.51 36.33 20.65 36.2 20.69" fill="#b0b0b0"/>
        <polygon points="37.51 20.69 37.23 20.66 36.99 20.59 36.99 20.57 36.98 20.57 36.98 20.59 36.97 20.59 36.97 20.58 36.95 20.59 36.95 20.59 36.93 20.6 36.84 20.66 36.79 20.59 36.91 20.51 37.14 20.41 37.32 20.34 37.35 20.37 37.34 20.33 37.37 20.36 37.35 20.32 37.39 20.34 37.36 20.31 37.4 20.33 37.37 20.3 37.41 20.31 37.37 20.29 37.38 20.28 37.42 20.28 37.38 20.26 37.37 20.18 37.34 20.12 37.25 20.01 37.27 19.97 37.24 20 37.26 19.96 37.23 20 37.24 19.96 37.22 19.99 37.23 19.95 37.22 19.96 37.21 19.99 37.2 19.99 37.19 19.94 37.18 19.99 37.16 19.99 37.13 19.95 37.14 19.99 36.61 20.2 36.57 20.12 36.89 19.97 36.9 19.96 36.91 19.94 36.95 19.93 36.91 19.93 36.95 19.91 36.91 19.92 36.9 19.91 36.83 19.83 36.82 19.83 36.81 19.83 36.71 19.87 36.43 19.97 36.22 20.07 36.09 20.11 36.05 20.09 36.08 20.12 36.03 20.11 36.07 20.14 36.06 20.16 36.01 20.16 36.06 20.17 36.09 20.25 36.16 20.3 36.12 20.38 36.05 20.33 36 20.26 35.98 20.21 36.02 20.19 35.97 20.2 35.97 20.17 35.97 20.15 36.02 20.15 35.98 20.14 35.98 20.12 36.03 20.12 35.99 20.1 36.03 20.05 36.07 20.08 36.04 20.04 36.06 20.03 36.19 19.98 36.39 19.89 36.82 19.74 36.88 19.76 36.9 19.77 36.98 19.87 37 19.94 36.99 19.96 37.13 19.91 37.14 19.95 37.14 19.9 37.18 19.9 37.2 19.9 37.21 19.94 37.22 19.9 37.24 19.91 37.31 19.95 37.44 20.12 37.47 20.23 37.47 20.25 37.43 20.36 37.37 20.41 37.35 20.42 37.09 20.53 37.25 20.58 37.51 20.6 37.51 20.69" fill="#b0b0b0"/>
      </g>
    </g>
  </g>
</svg>