<?xml version="1.0" encoding="utf-8"?>
<!-- Generator: Adobe Illustrator 16.0.3, SVG Export Plug-In . SVG Version: 6.00 Build 0)  -->
<!DOCTYPE svg PUBLIC "-//W3C//DTD SVG 1.1//EN" "http://www.w3.org/Graphics/SVG/1.1/DTD/svg11.dtd">
<svg version="1.1" id="Layer_2" xmlns="http://www.w3.org/2000/svg" xmlns:xlink="http://www.w3.org/1999/xlink" x="0px" y="0px"
	 width="50px" height="50px" viewBox="0 0 50 50" enable-background="new 0 0 50 50" xml:space="preserve">
<g id="BouldersScat_10_">
	<g>
		<polygon fill="#BABABA" points="23.334,4.239 23.245,4.135 23.176,4.015 23.134,3.873 23.123,3.728 23.147,3.568 23.208,3.476 
			23.292,3.402 23.394,3.353 23.504,3.332 23.616,3.338 23.713,3.371 23.844,3.433 23.903,3.5 23.93,3.572 23.934,3.647 
			23.909,3.72 23.827,3.693 23.846,3.635 23.844,3.583 23.826,3.54 23.787,3.499 23.682,3.452 23.595,3.423 23.505,3.418 
			23.417,3.437 23.337,3.477 23.271,3.537 23.226,3.606 23.209,3.73 23.22,3.857 23.256,3.981 23.315,4.086 23.4,4.182 		"/>
	</g>
	<g>
		<polygon fill="#BABABA" points="24.365,4.296 24.008,4.279 23.716,4.254 23.429,4.252 23.143,4.277 23.135,4.19 23.425,4.165 
			23.72,4.167 24.014,4.192 24.364,4.209 24.708,4.182 24.823,4.19 24.817,4.277 24.708,4.269 		"/>
	</g>
	<g>
		<polyline fill="none" points="24.505,3.949 24.639,4.018 24.754,4.119 24.764,4.226 		"/>
	</g>
	<g>
		<polygon fill="#BABABA" points="24.202,4.155 24.089,4.13 24.108,4.045 24.208,4.067 24.299,4.059 24.386,4.022 24.459,3.955 
			24.451,3.945 24.442,3.938 24.234,3.758 24.113,3.665 23.983,3.598 23.849,3.558 23.86,3.472 23.868,3.473 24.016,3.518 
			24.16,3.592 24.289,3.69 24.532,3.903 24.546,3.963 24.523,4.021 24.426,4.1 24.313,4.145 		"/>
	</g>
</g>
<g id="BouldersScat_9_" enable-background="new    ">
	<g>
		<polygon fill="#BABABA" points="40.297,4.2 40.207,4.097 40.139,3.977 40.098,3.834 40.086,3.688 40.109,3.529 40.171,3.438 
			40.255,3.363 40.355,3.314 40.467,3.293 40.579,3.3 40.678,3.332 40.807,3.394 40.866,3.461 40.893,3.533 40.896,3.608 
			40.872,3.682 40.79,3.654 40.809,3.597 40.807,3.544 40.789,3.501 40.75,3.46 40.646,3.413 40.559,3.384 40.468,3.38 40.38,3.398 
			40.299,3.438 40.232,3.498 40.188,3.568 40.172,3.691 40.182,3.819 40.219,3.943 40.277,4.047 40.363,4.144 		"/>
	</g>
	<g>
		<polygon fill="#BABABA" points="41.327,4.258 40.971,4.24 40.68,4.215 40.393,4.213 40.105,4.238 40.1,4.151 40.389,4.126 
			40.684,4.128 40.977,4.153 41.326,4.171 41.671,4.144 41.786,4.151 41.779,4.238 41.671,4.23 		"/>
	</g>
	<g>
		<polyline fill="none" points="41.469,3.91 41.604,3.979 41.718,4.08 41.729,4.187 		"/>
	</g>
	<g>
		<polygon fill="#BABABA" points="41.164,4.116 41.053,4.091 41.07,4.006 41.17,4.028 41.262,4.02 41.35,3.984 41.422,3.913 
			41.406,3.9 41.197,3.719 41.076,3.626 40.945,3.559 40.813,3.519 40.822,3.434 40.831,3.435 40.979,3.479 41.123,3.553 
			41.252,3.652 41.495,3.864 41.51,3.925 41.484,3.982 41.389,4.062 41.275,4.106 		"/>
	</g>
</g>
<g id="BouldersScat_8_" enable-background="new    ">
	<g>
		<polygon fill="#BABABA" points="34.297,12.2 34.207,12.097 34.139,11.977 34.098,11.834 34.086,11.688 34.109,11.529 
			34.171,11.438 34.255,11.363 34.355,11.314 34.467,11.293 34.579,11.3 34.678,11.332 34.807,11.394 34.866,11.461 34.893,11.533 
			34.896,11.608 34.872,11.682 34.79,11.654 34.809,11.597 34.807,11.544 34.789,11.501 34.75,11.46 34.646,11.413 34.559,11.384 
			34.468,11.38 34.38,11.398 34.299,11.438 34.232,11.498 34.188,11.568 34.172,11.691 34.182,11.819 34.219,11.943 34.277,12.047 
			34.363,12.144 		"/>
	</g>
	<g>
		<polygon fill="#BABABA" points="35.327,12.258 34.971,12.24 34.68,12.215 34.393,12.213 34.105,12.238 34.1,12.151 34.389,12.126 
			34.684,12.128 34.977,12.153 35.326,12.171 35.671,12.144 35.786,12.151 35.779,12.238 35.671,12.23 		"/>
	</g>
	<g>
		<polyline fill="none" points="35.469,11.91 35.604,11.979 35.718,12.08 35.729,12.187 		"/>
	</g>
	<g>
		<polygon fill="#BABABA" points="35.164,12.116 35.053,12.091 35.07,12.006 35.17,12.028 35.262,12.02 35.35,11.984 35.422,11.913 
			35.406,11.9 35.197,11.719 35.076,11.626 34.945,11.559 34.813,11.519 34.822,11.434 34.831,11.435 34.979,11.479 35.123,11.553 
			35.252,11.652 35.495,11.864 35.51,11.925 35.484,11.982 35.389,12.062 35.275,12.106 		"/>
	</g>
</g>
<g id="BouldersScat_7_" enable-background="new    ">
	<g>
		<polygon fill="#BABABA" points="8.297,14.229 8.207,14.125 8.139,14.004 8.097,13.863 8.085,13.717 8.11,13.558 8.17,13.466 
			8.255,13.392 8.356,13.343 8.466,13.321 8.579,13.328 8.676,13.361 8.807,13.422 8.865,13.489 8.893,13.562 8.896,13.637 
			8.871,13.71 8.789,13.683 8.808,13.625 8.806,13.573 8.788,13.529 8.749,13.488 8.645,13.441 8.557,13.413 8.468,13.408 
			8.379,13.427 8.299,13.467 8.233,13.526 8.188,13.596 8.171,13.72 8.182,13.847 8.219,13.971 8.278,14.076 8.362,14.172 		"/>
	</g>
	<g>
		<polygon fill="#BABABA" points="9.328,14.286 8.97,14.269 8.678,14.244 8.391,14.242 8.105,14.267 8.098,14.18 8.388,14.155 
			8.683,14.157 8.976,14.182 9.326,14.199 9.67,14.172 9.786,14.18 9.78,14.267 9.67,14.259 		"/>
	</g>
	<g>
		<polyline fill="none" points="9.468,13.938 9.602,14.008 9.717,14.108 9.727,14.215 		"/>
	</g>
	<g>
		<polygon fill="#BABABA" points="9.164,14.145 9.052,14.12 9.07,14.035 9.17,14.057 9.261,14.048 9.349,14.012 9.422,13.944 
			9.414,13.935 9.405,13.928 9.197,13.748 9.076,13.655 8.946,13.587 8.812,13.547 8.823,13.462 8.83,13.463 8.979,13.507 
			9.122,13.582 9.251,13.68 9.495,13.893 9.509,13.953 9.485,14.01 9.388,14.09 9.276,14.134 		"/>
	</g>
</g>
<g id="BouldersScat_6_" enable-background="new    ">
	<g>
		<polygon fill="#BABABA" points="3.297,24.102 3.207,23.998 3.139,23.877 3.097,23.736 3.085,23.59 3.11,23.431 3.17,23.339 
			3.255,23.265 3.356,23.216 3.466,23.194 3.579,23.201 3.676,23.234 3.807,23.295 3.865,23.362 3.893,23.435 3.896,23.51 
			3.871,23.583 3.789,23.556 3.808,23.498 3.806,23.446 3.788,23.402 3.749,23.361 3.645,23.314 3.557,23.286 3.468,23.281 
			3.379,23.3 3.299,23.34 3.233,23.399 3.188,23.469 3.171,23.593 3.182,23.72 3.219,23.844 3.278,23.949 3.362,24.045 		"/>
	</g>
	<g>
		<polygon fill="#BABABA" points="4.328,24.159 3.97,24.142 3.678,24.117 3.391,24.115 3.105,24.14 3.098,24.053 3.388,24.028 
			3.683,24.03 3.976,24.055 4.326,24.072 4.67,24.045 4.786,24.053 4.78,24.14 4.67,24.132 		"/>
	</g>
	<g>
		<polyline fill="none" points="4.468,23.812 4.602,23.881 4.717,23.981 4.727,24.088 		"/>
	</g>
	<g>
		<polygon fill="#BABABA" points="4.164,24.018 4.052,23.993 4.07,23.908 4.17,23.93 4.261,23.921 4.349,23.885 4.422,23.817 
			4.414,23.808 4.405,23.801 4.197,23.621 4.076,23.528 3.946,23.46 3.812,23.42 3.823,23.335 3.83,23.336 3.979,23.38 
			4.122,23.455 4.251,23.553 4.495,23.766 4.509,23.826 4.485,23.883 4.388,23.963 4.276,24.007 		"/>
	</g>
</g>
<g id="BouldersScat_5_" enable-background="new    ">
	<g>
		<polygon fill="#BABABA" points="8.297,37.232 8.207,37.129 8.139,37.009 8.097,36.866 8.085,36.721 8.11,36.563 8.17,36.471 
			8.255,36.396 8.356,36.346 8.461,36.324 8.466,36.325 8.579,36.332 8.676,36.363 8.807,36.426 8.865,36.493 8.893,36.564 
			8.896,36.641 8.871,36.714 8.789,36.688 8.808,36.629 8.806,36.577 8.788,36.533 8.749,36.492 8.644,36.445 8.557,36.416 
			8.468,36.412 8.379,36.43 8.299,36.471 8.233,36.529 8.188,36.602 8.171,36.725 8.182,36.852 8.219,36.977 8.278,37.079 
			8.362,37.176 		"/>
	</g>
	<g>
		<polygon fill="#BABABA" points="9.328,37.29 8.97,37.271 8.678,37.247 8.391,37.246 8.105,37.271 8.098,37.186 8.388,37.159 
			8.683,37.16 8.976,37.188 9.326,37.204 9.67,37.178 9.786,37.186 9.78,37.271 9.67,37.264 		"/>
	</g>
	<g>
		<polyline fill="none" points="9.468,36.941 9.602,37.012 9.717,37.111 9.727,37.221 		"/>
	</g>
	<g>
		<polygon fill="#BABABA" points="9.164,37.148 9.158,37.146 9.052,37.123 9.07,37.039 9.17,37.061 9.261,37.053 9.349,37.016 
			9.422,36.947 9.414,36.939 9.197,36.752 9.076,36.658 8.946,36.591 8.812,36.553 8.823,36.466 8.83,36.467 8.979,36.512 
			9.122,36.586 9.251,36.686 9.495,36.896 9.509,36.957 9.485,37.014 9.388,37.094 9.276,37.139 		"/>
	</g>
</g>
<g id="BouldersScat_4_" enable-background="new    ">
	<g>
		<polygon fill="#BABABA" points="25.297,35.2 25.208,35.098 25.139,34.977 25.097,34.834 25.085,34.688 25.11,34.529 
			25.171,34.438 25.255,34.363 25.356,34.313 25.461,34.292 25.467,34.293 25.579,34.3 25.678,34.332 25.807,34.395 25.866,34.461 
			25.893,34.533 25.896,34.607 25.872,34.682 25.79,34.654 25.809,34.598 25.807,34.545 25.789,34.501 25.75,34.46 25.646,34.413 
			25.559,34.384 25.468,34.38 25.38,34.396 25.3,34.438 25.234,34.498 25.189,34.568 25.172,34.691 25.183,34.818 25.219,34.943 
			25.278,35.047 25.363,35.145 		"/>
	</g>
	<g>
		<polygon fill="#BABABA" points="26.327,35.258 25.971,35.24 25.68,35.215 25.392,35.214 25.106,35.238 25.098,35.152 
			25.388,35.127 25.684,35.128 25.977,35.154 26.326,35.172 26.671,35.145 26.786,35.152 26.779,35.238 26.671,35.23 		"/>
	</g>
	<g>
		<polyline fill="none" points="26.469,34.91 26.604,34.979 26.718,35.08 26.729,35.188 		"/>
	</g>
	<g>
		<polygon fill="#BABABA" points="26.164,35.116 26.157,35.113 26.053,35.091 26.07,35.007 26.17,35.027 26.262,35.02 26.35,34.982 
			26.422,34.913 26.406,34.898 26.197,34.721 26.076,34.626 25.945,34.559 25.813,34.52 25.822,34.434 25.831,34.436 25.979,34.479 
			26.123,34.555 26.252,34.652 26.495,34.863 26.51,34.925 26.484,34.98 26.389,35.063 26.275,35.105 		"/>
	</g>
</g>
<g id="BouldersScat_3_" enable-background="new    ">
	<g>
		<polygon fill="#BABABA" points="40.297,34.2 40.207,34.098 40.139,33.977 40.098,33.834 40.086,33.688 40.109,33.529 
			40.171,33.438 40.255,33.363 40.355,33.313 40.462,33.292 40.467,33.293 40.579,33.3 40.678,33.332 40.807,33.395 40.866,33.461 
			40.893,33.533 40.896,33.607 40.872,33.682 40.79,33.654 40.809,33.598 40.807,33.545 40.789,33.501 40.75,33.46 40.646,33.413 
			40.559,33.384 40.468,33.38 40.38,33.396 40.299,33.438 40.232,33.498 40.188,33.568 40.172,33.691 40.182,33.818 40.219,33.943 
			40.277,34.047 40.363,34.145 		"/>
	</g>
	<g>
		<polygon fill="#BABABA" points="41.327,34.258 40.971,34.24 40.68,34.215 40.393,34.214 40.105,34.238 40.1,34.152 40.389,34.127 
			40.684,34.128 40.977,34.154 41.326,34.172 41.671,34.145 41.786,34.152 41.779,34.238 41.671,34.23 		"/>
	</g>
	<g>
		<polyline fill="none" points="41.469,33.91 41.604,33.979 41.718,34.08 41.729,34.188 		"/>
	</g>
	<g>
		<polygon fill="#BABABA" points="41.164,34.116 41.157,34.113 41.053,34.091 41.07,34.007 41.17,34.027 41.262,34.02 41.35,33.982 
			41.422,33.913 41.406,33.898 41.197,33.721 41.076,33.626 40.945,33.559 40.813,33.52 40.822,33.434 40.831,33.436 40.979,33.479 
			41.123,33.555 41.252,33.652 41.495,33.863 41.51,33.925 41.484,33.98 41.389,34.063 41.275,34.105 		"/>
	</g>
</g>
<g id="BouldersScat_2_" enable-background="new    ">
	<g>
		<polygon fill="#BABABA" points="37.297,46.2 37.207,46.098 37.139,45.977 37.098,45.834 37.086,45.688 37.109,45.529 
			37.171,45.438 37.255,45.363 37.355,45.313 37.462,45.292 37.467,45.293 37.579,45.3 37.678,45.332 37.807,45.395 37.866,45.461 
			37.893,45.533 37.896,45.607 37.872,45.682 37.79,45.654 37.809,45.598 37.807,45.545 37.789,45.501 37.75,45.46 37.646,45.413 
			37.559,45.384 37.468,45.38 37.38,45.396 37.299,45.438 37.232,45.498 37.188,45.568 37.172,45.691 37.182,45.818 37.219,45.943 
			37.277,46.047 37.363,46.145 		"/>
	</g>
	<g>
		<polygon fill="#BABABA" points="38.327,46.258 37.971,46.24 37.68,46.215 37.393,46.214 37.105,46.238 37.1,46.152 37.389,46.127 
			37.684,46.128 37.977,46.154 38.326,46.172 38.671,46.145 38.786,46.152 38.779,46.238 38.671,46.23 		"/>
	</g>
	<g>
		<polyline fill="none" points="38.469,45.91 38.604,45.979 38.718,46.08 38.729,46.188 		"/>
	</g>
	<g>
		<polygon fill="#BABABA" points="38.164,46.116 38.157,46.113 38.053,46.091 38.07,46.007 38.17,46.027 38.262,46.02 38.35,45.982 
			38.422,45.913 38.406,45.898 38.197,45.721 38.076,45.626 37.945,45.559 37.813,45.52 37.822,45.434 37.831,45.436 37.979,45.479 
			38.123,45.555 38.252,45.652 38.495,45.863 38.51,45.925 38.484,45.98 38.389,46.063 38.275,46.105 		"/>
	</g>
</g>
<g id="BouldersScat_1_" enable-background="new    ">
	<g>
		<polygon fill="#BABABA" points="3.297,46.178 3.207,46.074 3.139,45.954 3.097,45.813 3.085,45.666 3.11,45.507 3.17,45.415 
			3.255,45.341 3.356,45.291 3.461,45.27 3.466,45.271 3.579,45.277 3.676,45.311 3.807,45.371 3.865,45.438 3.893,45.512 
			3.896,45.586 3.871,45.659 3.789,45.632 3.808,45.574 3.806,45.521 3.788,45.479 3.749,45.438 3.644,45.391 3.557,45.361 
			3.468,45.357 3.379,45.375 3.299,45.416 3.233,45.477 3.188,45.546 3.171,45.669 3.182,45.797 3.219,45.921 3.278,46.023 
			3.362,46.121 		"/>
	</g>
	<g>
		<polygon fill="#BABABA" points="4.328,46.234 3.97,46.218 3.678,46.191 3.391,46.191 3.105,46.216 3.098,46.13 3.388,46.104 
			3.683,46.105 3.976,46.132 4.326,46.148 4.67,46.122 4.786,46.13 4.78,46.216 4.67,46.208 		"/>
	</g>
	<g>
		<polyline fill="none" points="4.468,45.889 4.602,45.957 4.717,46.059 4.727,46.165 		"/>
	</g>
	<g>
		<polygon fill="#BABABA" points="4.164,46.094 4.158,46.092 4.052,46.068 4.07,45.984 4.17,46.006 4.261,45.997 4.349,45.961 
			4.422,45.895 4.414,45.885 4.197,45.697 4.076,45.604 3.946,45.536 3.812,45.497 3.823,45.411 3.83,45.412 3.979,45.456 
			4.122,45.531 4.251,45.63 4.495,45.842 4.509,45.902 4.485,45.959 4.388,46.039 4.276,46.083 		"/>
	</g>
</g>
<g id="BouldersScat" enable-background="new    ">
	<g>
		<polygon fill="#BABABA" points="35.297,22.2 35.207,22.097 35.139,21.977 35.098,21.834 35.086,21.688 35.109,21.529 
			35.171,21.438 35.255,21.363 35.355,21.314 35.467,21.293 35.579,21.3 35.678,21.332 35.807,21.394 35.866,21.461 35.893,21.533 
			35.896,21.608 35.872,21.682 35.79,21.654 35.809,21.597 35.807,21.544 35.789,21.501 35.75,21.46 35.646,21.413 35.559,21.384 
			35.468,21.38 35.38,21.398 35.299,21.438 35.232,21.498 35.188,21.568 35.172,21.691 35.182,21.819 35.219,21.943 35.277,22.047 
			35.363,22.144 		"/>
	</g>
	<g>
		<polygon fill="#BABABA" points="36.327,22.258 35.971,22.24 35.68,22.215 35.393,22.213 35.105,22.238 35.1,22.151 35.389,22.126 
			35.684,22.128 35.977,22.153 36.326,22.171 36.671,22.144 36.786,22.151 36.779,22.238 36.671,22.23 		"/>
	</g>
	<g>
		<polyline fill="none" points="36.469,21.91 36.604,21.979 36.718,22.08 36.729,22.187 		"/>
	</g>
	<g>
		<polygon fill="#BABABA" points="36.164,22.116 36.053,22.091 36.07,22.006 36.17,22.028 36.262,22.02 36.35,21.984 36.422,21.913 
			36.406,21.9 36.197,21.719 36.076,21.626 35.945,21.559 35.813,21.519 35.822,21.434 35.831,21.435 35.979,21.479 36.123,21.553 
			36.252,21.652 36.495,21.864 36.51,21.925 36.484,21.982 36.389,22.062 36.275,22.106 		"/>
	</g>
</g>
</svg>
