<?xml version="1.0" encoding="utf-8"?>
<!-- Generator: Adobe Illustrator 16.0.3, SVG Export Plug-In . SVG Version: 6.00 Build 0)  -->
<!DOCTYPE svg PUBLIC "-//W3C//DTD SVG 1.0//EN" "http://www.w3.org/TR/2001/REC-SVG-20010904/DTD/svg10.dtd">
<svg version="1.0" id="Layer_2" xmlns="http://www.w3.org/2000/svg" xmlns:xlink="http://www.w3.org/1999/xlink" x="0px" y="0px"
	 width="50px" height="50px" viewBox="0 0 50 50" style="enable-background:new 0 0 50 50;" xml:space="preserve">
<g id="Scrub_10_">
	<g id="bushFillSymbol_12_">
		<polygon style="fill:#669966;" points="24.28,4.628 23.107,4.628 23.699,3.957 23.827,3.753 23.905,3.528 23.928,3.297 
			23.907,3.2 23.846,3.123 23.758,3.078 23.564,3.056 23.37,3.089 23.189,3.179 22.911,3.395 22.854,3.33 23.098,3.09 23.299,2.82 
			23.458,2.522 23.572,2.211 23.584,2.07 23.551,1.937 23.471,1.823 23.277,1.688 23.048,1.635 22.899,1.652 22.763,1.71 
			22.646,1.811 22.449,2.09 22.315,2.407 22.251,2.745 22.263,3.086 22.34,3.467 22.472,3.836 22.653,4.185 22.88,4.501 
			22.922,4.571 22.847,4.615 22.808,4.548 22.579,4.23 22.393,3.871 22.256,3.491 22.177,3.097 22.166,2.738 22.232,2.381 
			22.373,2.047 22.582,1.752 22.723,1.632 22.883,1.567 23.053,1.547 23.06,1.549 23.32,1.611 23.538,1.767 23.633,1.907 
			23.672,2.063 23.656,2.236 23.538,2.558 23.372,2.866 23.224,3.064 23.349,3.004 23.563,2.968 23.568,2.969 23.79,2.997 
			23.909,3.061 23.99,3.172 24.016,3.292 24.015,3.299 23.989,3.547 23.905,3.791 23.768,4.009 23.299,4.542 24.28,4.542 		"/>
	</g>
	<g id="smallBushFillSymbol_12_">
		<polygon style="fill:#669966;" points="25.779,6.081 25.145,6.081 25.471,5.71 25.534,5.61 25.57,5.502 25.58,5.396 25.572,5.355 
			25.548,5.325 25.512,5.306 25.422,5.296 25.331,5.312 25.244,5.354 25.106,5.461 25.05,5.396 25.173,5.275 25.271,5.143 
			25.349,4.997 25.403,4.847 25.409,4.784 25.394,4.722 25.36,4.673 25.269,4.61 25.161,4.586 25.094,4.593 25.032,4.62 
			24.977,4.667 24.882,4.804 24.817,4.958 24.786,5.123 24.792,5.289 24.83,5.475 24.895,5.656 24.985,5.827 25.118,6.02 
			25.042,6.063 25.023,6.031 24.911,5.872 24.815,5.691 24.746,5.498 24.706,5.299 24.7,5.115 24.735,4.932 24.806,4.761 
			24.913,4.609 24.991,4.543 25.078,4.507 25.166,4.498 25.311,4.534 25.427,4.617 25.476,4.693 25.497,4.777 25.487,4.872 
			25.428,5.033 25.343,5.189 25.316,5.227 25.419,5.208 25.543,5.225 25.609,5.263 25.656,5.329 25.668,5.392 25.667,5.397 
			25.654,5.521 25.611,5.648 25.541,5.763 25.337,5.994 25.779,5.994 		"/>
	</g>
</g>
<g id="Scrub_9_" style="enable-background:new    ;">
	<g id="bushFillSymbol_11_">
		<polygon style="fill:#669966;" points="41.243,4.59 40.068,4.59 40.663,3.918 40.79,3.715 40.868,3.49 40.893,3.258 40.871,3.162 
			40.811,3.083 40.723,3.039 40.527,3.017 40.334,3.05 40.152,3.14 39.874,3.356 39.816,3.292 40.061,3.052 40.262,2.781 
			40.422,2.484 40.535,2.172 40.548,2.031 40.516,1.898 40.436,1.784 40.24,1.649 40.012,1.597 39.861,1.614 39.727,1.671 
			39.609,1.772 39.412,2.051 39.277,2.368 39.216,2.706 39.227,3.048 39.305,3.429 39.436,3.798 39.617,4.146 39.844,4.462 
			39.885,4.532 39.811,4.576 39.771,4.51 39.543,4.191 39.355,3.833 39.221,3.452 39.141,3.058 39.129,2.699 39.195,2.343 
			39.337,2.009 39.546,1.714 39.688,1.594 39.848,1.528 40.016,1.509 40.023,1.51 40.282,1.573 40.501,1.728 40.598,1.869 
			40.637,2.024 40.635,2.032 40.619,2.197 40.501,2.52 40.335,2.828 40.188,3.026 40.313,2.965 40.525,2.929 40.532,2.93 
			40.754,2.958 40.872,3.022 40.954,3.133 40.979,3.253 40.979,3.26 40.952,3.508 40.868,3.752 40.732,3.971 40.264,4.503 
			41.243,4.503 		"/>
	</g>
	<g id="smallBushFillSymbol_11_">
		<polygon style="fill:#669966;" points="42.742,6.042 42.107,6.042 42.436,5.672 42.497,5.572 42.534,5.464 42.543,5.357 
			42.535,5.317 42.512,5.286 42.475,5.268 42.385,5.257 42.294,5.273 42.208,5.316 42.07,5.423 42.014,5.357 42.137,5.236 
			42.232,5.104 42.313,4.958 42.366,4.809 42.372,4.745 42.357,4.684 42.322,4.634 42.23,4.571 42.124,4.547 42.059,4.555 
			41.995,4.582 41.939,4.629 41.846,4.765 41.781,4.919 41.75,5.084 41.756,5.25 41.794,5.436 41.857,5.618 41.947,5.789 
			42.081,5.98 42.007,6.025 41.986,5.993 41.875,5.833 41.779,5.652 41.71,5.459 41.669,5.26 41.663,5.077 41.697,4.894 
			41.77,4.723 41.877,4.571 41.954,4.504 42.042,4.469 42.13,4.459 42.273,4.495 42.391,4.579 42.439,4.655 42.46,4.738 
			42.45,4.833 42.393,4.994 42.307,5.151 42.279,5.188 42.383,5.169 42.389,5.17 42.507,5.187 42.572,5.225 42.619,5.29 
			42.631,5.353 42.63,5.359 42.618,5.482 42.575,5.609 42.505,5.724 42.301,5.956 42.742,5.956 		"/>
	</g>
</g>
<g id="Scrub_8_" style="enable-background:new    ;">
	<g id="bushFillSymbol_10_">
		<polygon style="fill:#669966;" points="35.243,12.59 34.068,12.59 34.663,11.918 34.79,11.715 34.868,11.49 34.893,11.258 
			34.871,11.162 34.811,11.083 34.723,11.039 34.527,11.017 34.334,11.05 34.152,11.14 33.874,11.356 33.816,11.292 34.061,11.052 
			34.262,10.781 34.422,10.484 34.535,10.172 34.548,10.031 34.516,9.898 34.436,9.784 34.24,9.649 34.012,9.597 33.861,9.614 
			33.727,9.671 33.609,9.772 33.412,10.051 33.277,10.368 33.216,10.706 33.227,11.048 33.305,11.429 33.436,11.798 33.617,12.146 
			33.844,12.462 33.885,12.532 33.811,12.576 33.771,12.51 33.543,12.191 33.355,11.833 33.221,11.452 33.141,11.058 33.129,10.699 
			33.195,10.343 33.337,10.009 33.546,9.714 33.688,9.594 33.848,9.528 34.016,9.509 34.023,9.51 34.282,9.573 34.501,9.728 
			34.598,9.869 34.637,10.024 34.635,10.032 34.619,10.197 34.501,10.52 34.335,10.828 34.188,11.026 34.313,10.965 34.525,10.929 
			34.532,10.93 34.754,10.958 34.872,11.022 34.954,11.133 34.979,11.253 34.979,11.26 34.952,11.508 34.868,11.752 34.732,11.971 
			34.264,12.503 35.243,12.503 		"/>
	</g>
	<g id="smallBushFillSymbol_10_">
		<polygon style="fill:#669966;" points="36.742,14.042 36.107,14.042 36.436,13.672 36.497,13.572 36.534,13.464 36.543,13.357 
			36.535,13.317 36.512,13.286 36.475,13.268 36.385,13.257 36.294,13.273 36.208,13.316 36.07,13.423 36.014,13.357 36.137,13.236 
			36.232,13.104 36.313,12.958 36.366,12.809 36.372,12.745 36.357,12.684 36.322,12.634 36.23,12.571 36.124,12.547 36.059,12.555 
			35.995,12.582 35.939,12.629 35.846,12.765 35.781,12.919 35.75,13.084 35.756,13.25 35.794,13.436 35.857,13.618 35.947,13.789 
			36.081,13.98 36.007,14.025 35.986,13.993 35.875,13.833 35.779,13.652 35.71,13.459 35.669,13.26 35.663,13.077 35.697,12.894 
			35.77,12.723 35.877,12.571 35.954,12.504 36.042,12.469 36.13,12.459 36.273,12.495 36.391,12.579 36.439,12.655 36.46,12.738 
			36.45,12.833 36.393,12.994 36.307,13.151 36.279,13.188 36.383,13.169 36.389,13.17 36.507,13.187 36.572,13.225 36.619,13.29 
			36.631,13.353 36.63,13.359 36.618,13.482 36.575,13.609 36.505,13.724 36.301,13.956 36.742,13.956 		"/>
	</g>
</g>
<g id="Scrub_7_" style="enable-background:new    ;">
	<g id="bushFillSymbol_9_">
		<polygon style="fill:#669966;" points="9.243,14.618 8.07,14.618 8.662,13.947 8.79,13.743 8.868,13.518 8.891,13.287 8.87,13.19 
			8.809,13.112 8.721,13.067 8.527,13.045 8.333,13.079 8.152,13.168 7.874,13.385 7.817,13.32 8.061,13.08 8.262,12.81 
			8.421,12.512 8.535,12.201 8.547,12.06 8.514,11.926 8.434,11.813 8.24,11.677 8.011,11.625 7.862,11.642 7.726,11.7 
			7.608,11.801 7.412,12.08 7.278,12.396 7.214,12.734 7.226,13.076 7.303,13.457 7.435,13.826 7.616,14.174 7.843,14.491 
			7.885,14.561 7.81,14.604 7.771,14.538 7.542,14.22 7.355,13.861 7.219,13.48 7.14,13.086 7.128,12.728 7.195,12.371 
			7.336,12.037 7.544,11.742 7.686,11.622 7.846,11.557 8.016,11.537 8.023,11.539 8.283,11.601 8.501,11.756 8.596,11.897 
			8.635,12.053 8.619,12.226 8.5,12.548 8.334,12.856 8.187,13.054 8.312,12.994 8.525,12.958 8.531,12.958 8.753,12.986 
			8.872,13.051 8.953,13.162 8.979,13.282 8.978,13.289 8.952,13.537 8.868,13.781 8.731,13.999 8.262,14.531 9.243,14.531 		"/>
	</g>
	<g id="smallBushFillSymbol_9_">
		<polygon style="fill:#669966;" points="10.742,16.071 10.108,16.071 10.435,15.7 10.498,15.6 10.534,15.492 10.543,15.386 
			10.536,15.345 10.511,15.314 10.474,15.296 10.385,15.286 10.294,15.302 10.207,15.344 10.069,15.451 10.013,15.386 
			10.136,15.265 10.233,15.133 10.312,14.987 10.366,14.836 10.372,14.773 10.357,14.712 10.323,14.663 10.231,14.6 10.124,14.576 
			10.057,14.583 9.995,14.61 9.939,14.657 9.845,14.793 9.78,14.947 9.749,15.112 9.754,15.279 9.792,15.464 9.858,15.646 
			9.948,15.817 10.081,16.009 10.005,16.053 9.986,16.021 9.874,15.862 9.778,15.681 9.709,15.488 9.668,15.289 9.663,15.105 
			9.698,14.922 9.769,14.751 9.875,14.599 9.954,14.533 10.041,14.497 10.128,14.488 10.273,14.523 10.39,14.607 10.439,14.683 
			10.46,14.767 10.45,14.861 10.391,15.022 10.306,15.179 10.279,15.216 10.382,15.198 10.506,15.215 10.573,15.253 10.619,15.318 
			10.631,15.381 10.619,15.51 10.575,15.638 10.504,15.752 10.3,15.984 10.742,15.984 		"/>
	</g>
</g>
<g id="Scrub_6_" style="enable-background:new    ;">
	<g id="bushFillSymbol_8_">
		<polygon style="fill:#669966;" points="4.243,24.492 3.07,24.492 3.662,23.82 3.79,23.617 3.868,23.392 3.891,23.16 3.87,23.063 
			3.809,22.986 3.721,22.941 3.527,22.919 3.333,22.952 3.152,23.042 2.874,23.258 2.817,23.193 3.061,22.954 3.262,22.683 
			3.421,22.386 3.535,22.074 3.547,21.933 3.514,21.8 3.434,21.686 3.24,21.551 3.011,21.499 2.862,21.516 2.726,21.573 
			2.608,21.674 2.412,21.953 2.278,22.27 2.214,22.608 2.226,22.95 2.303,23.331 2.435,23.7 2.616,24.048 2.843,24.364 
			2.885,24.434 2.81,24.478 2.771,24.412 2.542,24.093 2.355,23.734 2.219,23.354 2.14,22.96 2.128,22.601 2.195,22.245 
			2.336,21.911 2.544,21.616 2.686,21.496 2.846,21.43 3.016,21.411 3.023,21.412 3.283,21.475 3.501,21.63 3.596,21.771 
			3.635,21.926 3.619,22.099 3.5,22.421 3.334,22.729 3.187,22.928 3.312,22.867 3.525,22.831 3.531,22.832 3.753,22.86 
			3.872,22.924 3.953,23.036 3.979,23.155 3.978,23.162 3.952,23.41 3.868,23.654 3.731,23.873 3.262,24.405 4.243,24.405 		"/>
	</g>
	<g id="smallBushFillSymbol_8_">
		<polygon style="fill:#669966;" points="5.742,25.945 5.108,25.945 5.435,25.574 5.498,25.474 5.534,25.366 5.543,25.259 
			5.536,25.219 5.511,25.188 5.474,25.169 5.385,25.159 5.294,25.175 5.207,25.218 5.069,25.325 5.013,25.259 5.136,25.138 
			5.233,25.006 5.312,24.86 5.366,24.71 5.372,24.647 5.357,24.585 5.323,24.536 5.231,24.473 5.124,24.449 5.057,24.457 
			4.995,24.483 4.939,24.531 4.845,24.667 4.78,24.821 4.749,24.986 4.754,25.152 4.792,25.338 4.858,25.52 4.948,25.689 
			5.081,25.883 5.005,25.928 4.986,25.896 4.874,25.736 4.778,25.555 4.709,25.361 4.668,25.162 4.663,24.979 4.698,24.795 
			4.769,24.625 4.875,24.473 4.954,24.406 5.041,24.371 5.128,24.361 5.273,24.397 5.39,24.48 5.439,24.557 5.46,24.64 5.45,24.735 
			5.391,24.896 5.306,25.053 5.279,25.09 5.382,25.071 5.506,25.088 5.573,25.126 5.619,25.192 5.631,25.255 5.619,25.384 
			5.575,25.512 5.504,25.626 5.3,25.857 5.742,25.857 		"/>
	</g>
</g>
<g id="Scrub_5_" style="enable-background:new    ;">
	<g id="bushFillSymbol_7_">
		<polygon style="fill:#669966;" points="9.243,37.623 8.07,37.623 8.662,36.951 8.79,36.747 8.868,36.521 8.891,36.29 8.87,36.193 
			8.809,36.115 8.721,36.07 8.528,36.049 8.333,36.082 8.152,36.172 7.874,36.389 7.816,36.322 8.06,36.083 8.262,35.813 
			8.421,35.516 8.535,35.205 8.547,35.064 8.514,34.932 8.434,34.816 8.24,34.682 8.011,34.629 7.862,34.646 7.726,34.703 
			7.608,34.805 7.412,35.084 7.278,35.4 7.214,35.736 7.226,36.08 7.303,36.461 7.435,36.83 7.616,37.18 7.843,37.495 7.885,37.564 
			7.81,37.609 7.771,37.543 7.542,37.225 7.355,36.863 7.219,36.484 7.14,36.09 7.128,35.73 7.195,35.376 7.336,35.042 
			7.544,34.746 7.686,34.626 7.846,34.561 8.016,34.541 8.023,34.543 8.283,34.604 8.501,34.762 8.596,34.9 8.635,35.057 
			8.619,35.229 8.5,35.551 8.334,35.859 8.187,36.059 8.312,35.997 8.525,35.961 8.531,35.962 8.753,35.988 8.872,36.055 
			8.953,36.166 8.979,36.286 8.978,36.293 8.952,36.541 8.868,36.785 8.731,37.003 8.262,37.535 9.243,37.535 		"/>
	</g>
	<g id="smallBushFillSymbol_7_">
		<polygon style="fill:#669966;" points="10.742,39.075 10.108,39.075 10.435,38.704 10.498,38.604 10.534,38.495 10.543,38.389 
			10.536,38.35 10.511,38.316 10.474,38.299 10.385,38.289 10.294,38.307 10.207,38.348 10.069,38.454 10.013,38.389 10.136,38.268 
			10.233,38.137 10.312,37.991 10.366,37.841 10.372,37.777 10.357,37.717 10.323,37.667 10.231,37.604 10.124,37.58 10.057,37.588 
			9.995,37.613 9.939,37.662 9.845,37.798 9.78,37.951 9.749,38.117 9.754,38.282 9.792,38.468 9.858,38.648 9.948,38.82 
			10.081,39.014 10.005,39.059 9.986,39.025 9.874,38.866 9.778,38.686 9.709,38.491 9.668,38.292 9.663,38.109 9.698,37.926 
			9.769,37.756 9.875,37.604 9.954,37.537 10.041,37.502 10.128,37.492 10.135,37.494 10.273,37.527 10.39,37.611 10.439,37.688 
			10.46,37.771 10.45,37.865 10.391,38.025 10.306,38.184 10.279,38.221 10.382,38.201 10.506,38.218 10.573,38.256 10.619,38.322 
			10.631,38.385 10.619,38.514 10.575,38.643 10.504,38.756 10.3,38.986 10.742,38.986 		"/>
	</g>
</g>
<g id="Scrub_4_" style="enable-background:new    ;">
	<g id="bushFillSymbol_6_">
		<polygon style="fill:#669966;" points="26.243,35.591 25.07,35.591 25.663,34.919 25.79,34.715 25.868,34.488 25.893,34.259 
			25.871,34.161 25.811,34.083 25.723,34.038 25.527,34.018 25.333,34.05 25.153,34.141 24.875,34.355 24.817,34.291 25.061,34.051 
			25.262,33.779 25.422,33.482 25.535,33.173 25.548,33.032 25.516,32.898 25.435,32.784 25.24,32.648 25.011,32.598 24.863,32.613 
			24.727,32.671 24.609,32.771 24.412,33.053 24.278,33.368 24.215,33.705 24.226,34.048 24.303,34.43 24.436,34.798 24.616,35.146 
			24.844,35.463 24.885,35.532 24.81,35.577 24.771,35.512 24.542,35.191 24.356,34.832 24.22,34.452 24.14,34.059 24.129,33.697 
			24.196,33.344 24.336,33.01 24.545,32.714 24.687,32.594 24.847,32.527 25.016,32.509 25.023,32.512 25.283,32.572 25.501,32.729 
			25.598,32.869 25.637,33.023 25.635,33.032 25.619,33.197 25.501,33.52 25.335,33.827 25.188,34.025 25.313,33.965 25.525,33.93 
			25.532,33.93 25.754,33.957 25.872,34.021 25.954,34.134 25.979,34.254 25.979,34.262 25.952,34.509 25.868,34.753 25.732,34.971 
			25.263,35.503 26.243,35.503 		"/>
	</g>
	<g id="smallBushFillSymbol_6_">
		<polygon style="fill:#669966;" points="27.742,37.043 27.109,37.043 27.436,36.672 27.497,36.57 27.534,36.463 27.543,36.355 
			27.535,36.316 27.512,36.285 27.475,36.268 27.385,36.257 27.294,36.273 27.208,36.314 27.07,36.422 27.014,36.355 27.137,36.234 
			27.232,36.104 27.313,35.959 27.366,35.809 27.372,35.745 27.357,35.684 27.322,35.635 27.23,35.572 27.124,35.548 27.059,35.557 
			26.995,35.582 26.939,35.63 26.846,35.766 26.781,35.919 26.75,36.085 26.756,36.25 26.794,36.436 26.857,36.617 26.947,36.788 
			27.081,36.98 27.007,37.025 26.986,36.993 26.875,36.834 26.779,36.652 26.71,36.459 26.669,36.26 26.663,36.077 26.697,35.895 
			26.77,35.725 26.877,35.57 26.954,35.505 27.042,35.471 27.13,35.46 27.137,35.462 27.273,35.495 27.391,35.579 27.439,35.654 
			27.46,35.738 27.45,35.833 27.393,35.994 27.307,36.15 27.279,36.188 27.383,36.169 27.389,36.17 27.507,36.186 27.572,36.225 
			27.619,36.29 27.631,36.354 27.63,36.357 27.618,36.48 27.575,36.609 27.505,36.725 27.301,36.955 27.742,36.955 		"/>
	</g>
</g>
<g id="Scrub_3_" style="enable-background:new    ;">
	<g id="bushFillSymbol_5_">
		<polygon style="fill:#669966;" points="41.243,34.591 40.068,34.591 40.663,33.919 40.79,33.715 40.868,33.488 40.893,33.259 
			40.871,33.161 40.811,33.083 40.723,33.038 40.527,33.018 40.334,33.05 40.152,33.141 39.874,33.355 39.816,33.291 40.061,33.051 
			40.262,32.779 40.422,32.482 40.535,32.173 40.548,32.032 40.516,31.898 40.436,31.784 40.24,31.648 40.012,31.598 39.861,31.613 
			39.727,31.671 39.609,31.771 39.412,32.053 39.277,32.368 39.216,32.705 39.227,33.048 39.305,33.43 39.436,33.798 39.617,34.146 
			39.844,34.463 39.885,34.532 39.811,34.577 39.771,34.512 39.543,34.191 39.355,33.833 39.221,33.452 39.141,33.059 
			39.129,32.697 39.195,32.344 39.337,32.01 39.546,31.714 39.688,31.594 39.848,31.527 40.016,31.509 40.282,31.572 40.501,31.729 
			40.598,31.869 40.637,32.023 40.635,32.032 40.619,32.197 40.501,32.52 40.335,32.827 40.188,33.025 40.313,32.965 40.525,32.93 
			40.532,32.93 40.754,32.957 40.872,33.021 40.954,33.134 40.979,33.254 40.979,33.262 40.952,33.509 40.868,33.753 40.732,33.971 
			40.264,34.503 41.243,34.503 		"/>
	</g>
	<g id="smallBushFillSymbol_5_">
		<polygon style="fill:#669966;" points="42.742,36.043 42.109,36.043 42.436,35.672 42.497,35.57 42.534,35.463 42.543,35.355 
			42.535,35.316 42.512,35.285 42.475,35.268 42.385,35.257 42.294,35.273 42.208,35.314 42.07,35.422 42.014,35.355 42.137,35.234 
			42.232,35.104 42.313,34.959 42.366,34.809 42.372,34.745 42.357,34.684 42.322,34.635 42.23,34.572 42.124,34.548 42.059,34.557 
			41.995,34.582 41.939,34.63 41.846,34.766 41.781,34.919 41.75,35.085 41.756,35.25 41.794,35.436 41.857,35.617 41.947,35.788 
			42.081,35.98 42.007,36.025 41.986,35.993 41.875,35.834 41.779,35.652 41.71,35.459 41.669,35.26 41.663,35.077 41.697,34.895 
			41.77,34.725 41.877,34.57 41.954,34.505 42.042,34.471 42.13,34.46 42.137,34.462 42.273,34.495 42.391,34.579 42.439,34.654 
			42.46,34.738 42.45,34.833 42.393,34.994 42.307,35.15 42.279,35.188 42.383,35.169 42.389,35.17 42.507,35.186 42.572,35.225 
			42.619,35.29 42.631,35.354 42.63,35.357 42.618,35.48 42.575,35.609 42.505,35.725 42.301,35.955 42.742,35.955 		"/>
	</g>
</g>
<g id="Scrub_2_" style="enable-background:new    ;">
	<g id="bushFillSymbol_4_">
		<polygon style="fill:#669966;" points="38.243,46.591 37.068,46.591 37.663,45.919 37.79,45.715 37.868,45.488 37.893,45.259 
			37.871,45.161 37.811,45.083 37.723,45.038 37.527,45.018 37.334,45.05 37.152,45.141 36.874,45.355 36.816,45.291 37.061,45.051 
			37.262,44.779 37.422,44.482 37.535,44.173 37.548,44.032 37.516,43.898 37.436,43.784 37.24,43.648 37.012,43.598 36.861,43.613 
			36.727,43.671 36.609,43.771 36.412,44.053 36.277,44.368 36.216,44.705 36.227,45.048 36.305,45.43 36.436,45.798 36.617,46.146 
			36.844,46.463 36.885,46.532 36.811,46.577 36.771,46.512 36.543,46.191 36.355,45.833 36.221,45.452 36.141,45.059 
			36.129,44.697 36.195,44.344 36.337,44.01 36.546,43.714 36.688,43.594 36.848,43.527 37.016,43.509 37.282,43.572 37.501,43.729 
			37.598,43.869 37.637,44.023 37.635,44.032 37.619,44.197 37.501,44.52 37.335,44.827 37.188,45.025 37.313,44.965 37.525,44.93 
			37.532,44.93 37.754,44.957 37.872,45.021 37.954,45.134 37.979,45.254 37.979,45.262 37.952,45.509 37.868,45.753 37.732,45.971 
			37.264,46.503 38.243,46.503 		"/>
	</g>
	<g id="smallBushFillSymbol_4_">
		<polygon style="fill:#669966;" points="39.742,48.043 39.109,48.043 39.436,47.672 39.497,47.57 39.534,47.463 39.543,47.355 
			39.535,47.316 39.512,47.285 39.475,47.268 39.385,47.257 39.294,47.273 39.208,47.314 39.07,47.422 39.014,47.355 39.137,47.234 
			39.232,47.104 39.313,46.959 39.366,46.809 39.372,46.745 39.357,46.684 39.322,46.635 39.23,46.572 39.124,46.548 39.059,46.557 
			38.995,46.582 38.939,46.63 38.846,46.766 38.781,46.919 38.75,47.085 38.756,47.25 38.794,47.436 38.857,47.617 38.947,47.788 
			39.081,47.98 39.007,48.025 38.986,47.993 38.875,47.834 38.779,47.652 38.71,47.459 38.669,47.26 38.663,47.077 38.697,46.895 
			38.77,46.725 38.877,46.57 38.954,46.505 39.042,46.471 39.13,46.46 39.137,46.462 39.273,46.495 39.391,46.579 39.439,46.654 
			39.46,46.738 39.45,46.833 39.393,46.994 39.307,47.15 39.279,47.188 39.383,47.169 39.389,47.17 39.507,47.186 39.572,47.225 
			39.619,47.29 39.631,47.354 39.63,47.357 39.618,47.48 39.575,47.609 39.505,47.725 39.301,47.955 39.742,47.955 		"/>
	</g>
</g>
<g id="Scrub_1_" style="enable-background:new    ;">
	<g id="bushFillSymbol_3_">
		<polygon style="fill:#669966;" points="4.243,46.568 3.07,46.568 3.662,45.896 3.79,45.691 3.868,45.467 3.891,45.234 
			3.87,45.139 3.809,45.061 3.721,45.016 3.528,44.994 3.333,45.027 3.152,45.117 2.874,45.334 2.816,45.27 3.06,45.027 
			3.262,44.758 3.421,44.461 3.535,44.15 3.547,44.01 3.514,43.876 3.434,43.762 3.24,43.626 3.011,43.574 2.862,43.592 
			2.726,43.648 2.608,43.75 2.412,44.029 2.278,44.346 2.214,44.684 2.226,45.025 2.303,45.406 2.435,45.775 2.616,46.124 
			2.843,46.439 2.885,46.51 2.81,46.555 2.771,46.488 2.542,46.169 2.355,45.811 2.219,45.43 2.14,45.035 2.128,44.676 2.195,44.32 
			2.336,43.986 2.544,43.691 2.686,43.57 2.846,43.506 3.016,43.486 3.023,43.488 3.283,43.55 3.501,43.706 3.596,43.848 
			3.635,44.002 3.619,44.175 3.5,44.496 3.334,44.805 3.187,45.003 3.312,44.941 3.525,44.906 3.531,44.907 3.753,44.936 3.872,45 
			3.953,45.111 3.979,45.23 3.978,45.238 3.952,45.486 3.868,45.73 3.731,45.947 3.262,46.48 4.243,46.48 		"/>
	</g>
	<g id="smallBushFillSymbol_3_">
		<polygon style="fill:#669966;" points="5.742,48.021 5.108,48.021 5.435,47.648 5.498,47.549 5.534,47.439 5.543,47.334 
			5.536,47.294 5.511,47.264 5.474,47.244 5.385,47.234 5.294,47.251 5.207,47.293 5.069,47.398 5.013,47.334 5.136,47.213 
			5.233,47.081 5.312,46.938 5.366,46.786 5.372,46.723 5.357,46.662 5.323,46.611 5.231,46.55 5.124,46.525 5.057,46.533 
			4.995,46.561 4.939,46.607 4.845,46.743 4.78,46.896 4.749,47.063 4.754,47.229 4.792,47.413 4.858,47.596 4.948,47.766 
			5.081,47.958 5.005,48.003 4.986,47.971 4.874,47.813 4.778,47.63 4.709,47.438 4.668,47.236 4.663,47.055 4.698,46.871 
			4.769,46.701 4.875,46.549 4.954,46.482 5.041,46.447 5.128,46.438 5.135,46.439 5.273,46.473 5.39,46.557 5.439,46.633 
			5.46,46.716 5.45,46.811 5.391,46.973 5.306,47.128 5.279,47.165 5.382,47.146 5.506,47.163 5.573,47.201 5.619,47.268 
			5.631,47.33 5.619,47.459 5.575,47.587 5.504,47.701 5.3,47.934 5.742,47.934 		"/>
	</g>
</g>
<g id="Scrub" style="enable-background:new    ;">
	<g id="bushFillSymbol_1_">
		<polygon style="fill:#669966;" points="36.243,22.59 35.068,22.59 35.663,21.918 35.79,21.715 35.868,21.49 35.893,21.258 
			35.871,21.162 35.811,21.083 35.723,21.039 35.527,21.017 35.334,21.05 35.152,21.14 34.874,21.356 34.816,21.292 35.061,21.052 
			35.262,20.781 35.422,20.484 35.535,20.172 35.548,20.031 35.516,19.898 35.436,19.784 35.24,19.649 35.012,19.597 34.861,19.614 
			34.727,19.671 34.609,19.772 34.412,20.051 34.277,20.368 34.216,20.706 34.227,21.048 34.305,21.429 34.436,21.798 
			34.617,22.146 34.844,22.462 34.885,22.532 34.811,22.576 34.771,22.51 34.543,22.191 34.355,21.833 34.221,21.452 34.141,21.058 
			34.129,20.699 34.195,20.343 34.337,20.009 34.546,19.714 34.688,19.594 34.848,19.528 35.016,19.509 35.023,19.51 35.282,19.573 
			35.501,19.728 35.598,19.869 35.637,20.024 35.635,20.032 35.619,20.197 35.501,20.52 35.335,20.828 35.188,21.026 35.313,20.965 
			35.525,20.929 35.532,20.93 35.754,20.958 35.872,21.022 35.954,21.133 35.979,21.253 35.979,21.26 35.952,21.508 35.868,21.752 
			35.732,21.971 35.264,22.503 36.243,22.503 		"/>
	</g>
	<g id="smallBushFillSymbol_1_">
		<polygon style="fill:#669966;" points="37.742,24.042 37.107,24.042 37.436,23.672 37.497,23.572 37.534,23.464 37.543,23.357 
			37.535,23.317 37.512,23.286 37.475,23.268 37.385,23.257 37.294,23.273 37.208,23.316 37.07,23.423 37.014,23.357 37.137,23.236 
			37.232,23.104 37.313,22.958 37.366,22.809 37.372,22.745 37.357,22.684 37.322,22.634 37.23,22.571 37.124,22.547 37.059,22.555 
			36.995,22.582 36.939,22.629 36.846,22.765 36.781,22.919 36.75,23.084 36.756,23.25 36.794,23.436 36.857,23.618 36.947,23.789 
			37.081,23.98 37.007,24.025 36.986,23.993 36.875,23.833 36.779,23.652 36.71,23.459 36.669,23.26 36.663,23.077 36.697,22.894 
			36.77,22.723 36.877,22.571 36.954,22.504 37.042,22.469 37.13,22.459 37.273,22.495 37.391,22.579 37.439,22.655 37.46,22.738 
			37.45,22.833 37.393,22.994 37.307,23.151 37.279,23.188 37.383,23.169 37.389,23.17 37.507,23.187 37.572,23.225 37.619,23.29 
			37.631,23.353 37.63,23.359 37.618,23.482 37.575,23.609 37.505,23.724 37.301,23.956 37.742,23.956 		"/>
	</g>
</g>
</svg>
