<?xml version="1.0" encoding="utf-8"?>
<!-- Generator: Adobe Illustrator 16.0.3, SVG Export Plug-In . SVG Version: 6.00 Build 0)  -->
<!DOCTYPE svg PUBLIC "-//W3C//DTD SVG 1.1//EN" "http://www.w3.org/Graphics/SVG/1.1/DTD/svg11.dtd">
<svg version="1.1"
	 id="svg2" xmlns:cc="http://creativecommons.org/ns#" xmlns:rdf="http://www.w3.org/1999/02/22-rdf-syntax-ns#" xmlns:svg="http://www.w3.org/2000/svg" xmlns:dc="http://purl.org/dc/elements/1.1/" xmlns:inkscape="http://www.inkscape.org/namespaces/inkscape" xmlns:sodipodi="http://sodipodi.sourceforge.net/DTD/sodipodi-0.dtd" sodipodi:docname="positionedNonconiferousTreeSymbol.svg" inkscape:output_extension="org.inkscape.output.svg.inkscape" sodipodi:version="0.32" inkscape:version="0.46"
	 xmlns="http://www.w3.org/2000/svg" xmlns:xlink="http://www.w3.org/1999/xlink" x="0px" y="0px" width="2.705px" height="6.2px"
	 viewBox="0 0 2.705 6.2" enable-background="new 0 0 2.705 6.2" xml:space="preserve">
<g id="positionedNonconiferousTreeSymbol" transform="matrix(1,0,0,-1,1.3524953,1.4671435)">
	<g id="path4">
		<path fill="#666666" d="M0.042-1.61h-0.084l-0.179,0.716c-0.153-0.163-0.392-0.236-0.615-0.186
			c-0.256,0.06-0.449,0.267-0.49,0.526C-1.364-0.31-1.261-0.069-1.062,0.071c-0.117,0.177-0.132,0.406-0.035,0.597
			c0.099,0.196,0.294,0.32,0.513,0.326C-0.518,1.259-0.277,1.448,0,1.448s0.518-0.189,0.585-0.455
			c0.219-0.006,0.414-0.13,0.513-0.326c0.097-0.191,0.082-0.42-0.035-0.597c0.198-0.14,0.302-0.381,0.264-0.625
			c-0.042-0.26-0.234-0.466-0.49-0.526C0.613-1.132,0.375-1.057,0.221-0.895L0.042-1.61z M-0.181-0.697L0-1.421l0.181,0.723
			l0.055-0.078c0.128-0.182,0.363-0.274,0.581-0.221c0.221,0.052,0.388,0.23,0.424,0.455c0.034,0.225-0.068,0.446-0.263,0.563
			L0.936,0.048l0.03,0.039C1.088,0.241,1.108,0.453,1.02,0.629C0.935,0.798,0.758,0.907,0.567,0.907L0.514,0.906L0.507,0.942
			C0.461,1.185,0.248,1.361,0,1.361s-0.461-0.176-0.507-0.419l-0.007-0.036l-0.053,0.001c-0.193,0-0.366-0.106-0.452-0.278
			c-0.089-0.175-0.068-0.388,0.054-0.542l0.03-0.039l-0.042-0.025C-1.172-0.095-1.275-0.316-1.24-0.541s0.202-0.403,0.423-0.455
			c0.221-0.052,0.452,0.039,0.581,0.221L-0.181-0.697z"/>
	</g>
</g>
</svg>
