<?xml version="1.0" encoding="UTF-8"?>
<svg id="Layer_2" xmlns="http://www.w3.org/2000/svg" viewBox="0 0 39.55 43.06">
  <path d="M5.04,10.7h.01s.07.13.11.39l-.04.02h-.01s-.07-.13-.11-.4l.03-.02ZM5.38,10.34h.01s.07.2.11.61v.06s-.02.02-.02.02h-.01s-.07-.2-.11-.61v-.06s.02-.02.02-.02ZM5.81,10.18h.01s.06.18.07.54c.01,0,.02.08.02.23l-.04.02h-.01s-.06-.18-.07-.54c-.01,0-.02-.08-.02-.23l.04-.02ZM6.25,10.13h.01l.04.04v.78l-.04.04h-.01l-.04-.04v-.78l.04-.04ZM6.71,10.18l.03.04c-.03.5-.06.75-.08.75h-.02l-.04-.04c.04-.5.06-.75.08-.75h.02ZM7.14,10.34l.04.04c-.05.44-.08.66-.1.66h-.02l-.04-.03c.05-.44.08-.66.1-.66h.02ZM7.48,10.7h.01l.04.04c-.05.25-.08.38-.11.38h-.01l-.04-.04c.05-.25.08-.38.11-.38Z" fill="#acbaab"/>
  <path d="M20.1.64h.01s.07.13.11.39l-.04.02h-.01s-.07-.13-.11-.39l.04-.02ZM20.45.28h.01s.07.2.11.61v.06s-.02.03-.02.03h-.01s-.07-.2-.11-.61v-.06s.02-.02.02-.02ZM20.87.12h.01s.06.18.07.54c.01,0,.02.08.02.23l-.04.02h-.01s-.06-.18-.07-.54c-.01,0-.02-.08-.02-.23l.03-.02ZM21.32.06h.01l.04.04v.78l-.04.03h-.01l-.03-.04V.1l.03-.04ZM21.77.12l.03.04c-.03.5-.06.75-.08.75h-.02l-.04-.03c.04-.5.06-.75.08-.75h.02ZM22.2.28l.04.04c-.05.44-.08.66-.1.66h-.02l-.03-.04c.05-.44.08-.66.09-.66,0,0,.02,0,.02,0ZM22.55.64h.01l.04.04c-.05.25-.08.38-.11.38h-.01l-.04-.04c.05-.26.08-.38.11-.38Z" fill="#acbaab"/>
  <path d="M36.97.58h.01s.06.13.11.39l-.04.03h-.01s-.06-.13-.11-.39l.04-.02ZM37.32.22h.01s.07.2.11.61v.06s-.02.03-.02.03h-.01s-.07-.2-.11-.61v-.06s.02-.02.02-.02ZM37.75.06h.01s.06.18.07.54c0,0,.02.08.02.23l-.03.02h-.01s-.06-.18-.07-.54c0,0-.02-.08-.02-.23l.03-.02ZM38.19,0h.01l.03.04v.78l-.04.04h-.01l-.03-.04V.04l.03-.04ZM38.65.06l.03.04c-.03.5-.06.75-.08.75h-.02l-.03-.04c.03-.5.06-.75.08-.75h.02ZM39.07.22l.03.04c-.04.44-.08.66-.1.66h-.02l-.03-.03c.04-.44.08-.66.1-.66h.02ZM39.42.58h.01l.04.04c-.05.25-.08.38-.11.38h-.01l-.04-.04c.05-.26.08-.38.11-.38Z" fill="#acbaab"/>
  <path d="M30.99,8.61h.01s.06.13.11.39l-.04.02h-.01s-.06-.13-.11-.4l.04-.02ZM31.34,8.25h.01s.07.2.11.61v.06s-.02.02-.02.02h-.01s-.07-.2-.11-.61v-.06s.02-.02.02-.02ZM31.77,8.09h.01s.06.18.07.54c0,0,.02.08.02.23l-.04.02h-.01s-.06-.18-.07-.54c0,0-.02-.08-.02-.23l.03-.02ZM32.21,8.03h.01l.04.04v.78l-.04.03h-.01l-.03-.03v-.78l.03-.04ZM32.66,8.09l.03.04c-.03.5-.06.75-.08.75h-.02l-.04-.03c.04-.5.06-.75.08-.75h.02ZM33.09,8.25l.04.04c-.05.44-.08.66-.1.66h-.02l-.03-.03c.04-.44.08-.66.1-.66h.02ZM33.44,8.61h.01l.03.03c-.05.25-.08.38-.1.38h-.01l-.04-.04c.04-.26.08-.38.11-.38Z" fill="#acbaab"/>
  <path d="M31.97,18.57h.01s.06.13.11.39l-.04.02h-.01s-.06-.13-.11-.4l.04-.02ZM32.32,18.22h.01s.07.2.11.61v.06s-.02.02-.02.02h-.01s-.07-.2-.11-.61v-.06s.02-.02.02-.02ZM32.75,18.06h.01s.06.18.07.54c0,0,.02.08.02.23l-.03.02h-.01s-.06-.18-.07-.54c0,0-.02-.08-.02-.23l.03-.02ZM33.19,18h.01l.03.04v.78l-.04.03h-.01l-.03-.03v-.78l.03-.04ZM33.65,18.06l.03.04c-.03.5-.06.75-.08.75h-.02l-.03-.03c.03-.5.06-.75.08-.75h.02ZM34.07,18.22l.03.04c-.04.44-.08.66-.1.66h-.02l-.03-.03c.04-.44.08-.66.1-.66h.02ZM34.42,18.57h.01l.04.03c-.05.25-.08.38-.11.38h-.01l-.04-.04c.05-.25.08-.38.11-.38Z" fill="#acbaab"/>
  <path d="M.04,20.51h.01s.07.13.11.39l-.04.02h-.01s-.07-.13-.11-.4l.04-.02ZM.38,20.15h.01s.07.2.11.61v.06s-.02.02-.02.02h-.01s-.07-.2-.11-.61v-.06s.02-.02.02-.02ZM.81,20h.01s.06.18.07.54c0,0,.02.08.02.23l-.04.02h-.01s-.06-.18-.07-.54c0,0-.02-.08-.02-.23l.04-.02ZM1.25,19.94h.01l.04.04v.78l-.04.03h-.01l-.04-.03v-.78l.04-.04ZM1.71,20l.04.04c-.04.5-.06.75-.08.75h-.02l-.04-.03c.04-.5.06-.75.08-.75h.02ZM2.14,20.15l.04.04c-.05.44-.08.66-.1.66h-.02l-.03-.03c.05-.44.08-.66.09-.66h.02ZM2.48,20.51h.01l.04.03c-.05.25-.08.38-.11.38h-.01l-.04-.04c.05-.25.08-.38.11-.38Z" fill="#acbaab"/>
  <path d="M22.1,31.64h.01s.07.13.11.39l-.04.03h-.01s-.07-.13-.11-.4l.04-.02ZM22.45,31.28h.01s.07.2.11.61v.06s-.02.03-.02.03h-.01s-.07-.2-.11-.61v-.06s.02-.02.02-.02ZM22.87,31.12h.01s.06.18.07.54c.01,0,.02.08.02.23l-.04.02h-.01s-.06-.18-.07-.54c-.01,0-.02-.08-.02-.23l.03-.02ZM23.32,31.06h.01l.03.03v.78l-.03.03h-.01l-.03-.03v-.78l.03-.03ZM23.77,31.12l.03.04c-.03.5-.06.75-.08.75h-.02l-.03-.03c.03-.5.06-.75.08-.75,0,0,.02,0,.02,0ZM24.2,31.28l.03.04c-.05.44-.08.66-.1.66h-.02l-.03-.03c.05-.44.08-.66.09-.66h.02ZM24.55,31.64h.01l.04.03c-.05.25-.08.38-.11.38h-.01l-.04-.04c.05-.26.08-.38.11-.38Z" fill="#acbaab"/>
  <path d="M37.05,30.64h.01s.06.13.11.39l-.04.02h-.01s-.06-.13-.11-.4l.04-.02ZM37.39,30.28h.01s.07.2.11.61v.06s-.02.02-.02.02h-.01s-.07-.2-.11-.61v-.06s.02-.02.02-.02ZM37.82,30.13h.01s.06.18.07.54c.01,0,.02.08.02.23l-.04.02h-.01s-.06-.18-.07-.54c0,0-.02-.08-.02-.23l.03-.02ZM38.27,30.07h.01l.04.04v.78l-.04.03h-.01l-.03-.03v-.78l.03-.04ZM38.72,30.13l.03.03c-.03.5-.06.75-.08.75h-.02l-.04-.03c.04-.5.06-.75.08-.75h.02ZM39.15,30.28l.03.03c-.05.44-.08.66-.1.66h-.02l-.03-.03c.04-.44.08-.66.1-.66h.02ZM39.5,30.64h.01l.04.03c-.05.25-.08.38-.11.38h-.01l-.04-.04c.05-.26.08-.38.11-.38Z" fill="#acbaab"/>
  <path d="M5.1,33.58h.01s.07.13.11.4l-.04.02h-.01s-.07-.13-.11-.4l.04-.02ZM5.45,33.22h.01s.07.2.11.61v.06s-.02.03-.02.03h-.01s-.07-.2-.11-.61v-.06s.02-.02.02-.02ZM5.87,33.06h.01s.06.18.07.54c.01,0,.02.08.02.23l-.03.02h-.01s-.06-.18-.07-.54c-.01,0-.02-.08-.02-.23l.03-.02ZM6.32,33h.01l.04.03v.78l-.04.04h-.01l-.03-.03v-.78l.03-.04ZM6.77,33.06l.03.04c-.03.5-.06.75-.08.75h-.02l-.04-.03c.04-.5.06-.75.08-.75h.02ZM7.2,33.22l.04.03c-.05.44-.08.66-.1.66h-.02l-.03-.03c.05-.44.08-.66.1-.66h.02ZM7.55,33.58h.01l.04.03c-.05.25-.08.38-.11.38h-.01l-.04-.03c.05-.26.08-.38.11-.38Z" fill="#acbaab"/>
  <path d="M.04,42.58h.01s.07.13.11.4l-.04.02h-.01s-.07-.13-.11-.4l.04-.02ZM.38,42.22h.01s.07.2.11.61v.06s-.02.03-.02.03h-.01s-.07-.2-.11-.61v-.06s.02-.02.02-.02ZM.81,42.06h.01s.06.18.07.54c0,0,.02.08.02.23l-.04.02h-.01s-.06-.18-.07-.54c0,0-.02-.08-.02-.23l.04-.02ZM1.25,42h.01l.04.03v.78l-.04.04h-.01l-.04-.03v-.78l.04-.04ZM1.71,42.06l.04.04c-.04.5-.06.75-.08.75h-.02l-.04-.03c.04-.5.06-.75.08-.75h.02ZM2.14,42.22l.04.03c-.05.44-.08.66-.1.66h-.02l-.03-.03c.05-.44.08-.66.09-.66h.02ZM2.48,42.58h.01l.04.03c-.05.25-.08.38-.11.38h-.01l-.04-.03c.05-.26.08-.38.11-.38Z" fill="#acbaab"/>
  <path d="M34.03,42.64h.01s.06.13.11.39l-.04.03h-.01s-.07-.13-.11-.4l.03-.02ZM34.38,42.28h.01s.07.2.11.61v.06s-.02.03-.02.03h-.01s-.07-.2-.11-.61v-.06s.02-.02.02-.02ZM34.81,42.12h.01s.06.18.07.54c0,0,.02.08.02.23l-.04.02h-.01s-.06-.18-.07-.54c0,0-.02-.08-.02-.23l.03-.02ZM35.25,42.06h.01l.04.03v.78l-.04.03h-.01l-.03-.03v-.78l.03-.03ZM35.71,42.12l.03.04c-.03.5-.06.75-.08.75h-.02l-.04-.03c.04-.5.06-.75.08-.75,0,0,.02,0,.02,0ZM36.14,42.28l.04.04c-.05.44-.08.66-.1.66h-.02l-.03-.03c.04-.44.08-.66.1-.66h.02ZM36.48,42.64h.01l.03.03c-.05.25-.08.38-.1.38h-.01l-.03-.04c.04-.26.08-.38.1-.38Z" fill="#acbaab"/>
</svg>