<?xml version="1.0" encoding="utf-8"?>
<!-- Generator: Adobe Illustrator 16.0.3, SVG Export Plug-In . SVG Version: 6.00 Build 0)  -->
<!DOCTYPE svg PUBLIC "-//W3C//DTD SVG 1.0//EN" "http://www.w3.org/TR/2001/REC-SVG-20010904/DTD/svg10.dtd">
<svg version="1.0" id="Layer_2" xmlns="http://www.w3.org/2000/svg" xmlns:xlink="http://www.w3.org/1999/xlink" x="0px" y="0px"
	 width="50px" height="50px" viewBox="0 0 50 50" style="enable-background:new 0 0 50 50;" xml:space="preserve">
<g id="Heath_10_">
	<g>
		
			<rect x="22.152" y="4.237" transform="matrix(-0.2071 -0.9783 0.9783 -0.2071 22.8874 27.1102)" style="fill:#669966;" width="0.554" height="0.087"/>
	</g>
	<g>
		
			<rect x="22.402" y="3.862" transform="matrix(-0.1221 -0.9925 0.9925 -0.1221 21.8352 27.1248)" style="fill:#669966;" width="1.024" height="0.087"/>
	</g>
	<g>
		
			<rect x="22.829" y="3.682" transform="matrix(-0.0418 -0.9991 0.9991 -0.0418 20.7058 27.3097)" style="fill:#669966;" width="1.239" height="0.087"/>
	</g>
	<g>
		<rect x="23.928" y="3.07" style="fill:#669966;" width="0.087" height="1.267"/>
	</g>
	<g>
		<rect x="24.453" y="3.106" style="fill:#669966;" width="0.087" height="1.239"/>
	</g>
	<g>
		
			<rect x="24.986" y="3.393" transform="matrix(-0.9917 -0.1289 0.1289 -0.9917 49.3481 11.0034)" style="fill:#669966;" width="0.087" height="1.024"/>
	</g>
	<g>
		<line style="fill:none;" x1="25.572" y1="4.009" x2="25.458" y2="4.55"/>
	</g>
</g>
<g id="Heath_9_" style="enable-background:new    ;">
	<g>
		
			<rect x="39.114" y="4.197" transform="matrix(-0.208 -0.9781 0.9781 -0.208 43.4346 43.6531)" style="fill:#669966;" width="0.554" height="0.089"/>
	</g>
	<g>
		
			<rect x="39.365" y="3.823" transform="matrix(-0.122 -0.9925 0.9925 -0.122 40.906 43.9172)" style="fill:#669966;" width="1.024" height="0.087"/>
	</g>
	<g>
		
			<rect x="39.794" y="3.643" transform="matrix(-0.0418 -0.9991 0.9991 -0.0418 38.4183 44.2185)" style="fill:#669966;" width="1.239" height="0.086"/>
	</g>
	<g>
		<rect x="40.893" y="3.031" style="fill:#669966;" width="0.088" height="1.267"/>
	</g>
	<g>
		<rect x="41.416" y="3.068" style="fill:#669966;" width="0.086" height="1.239"/>
	</g>
	<g>
		
			<rect x="41.951" y="3.355" transform="matrix(-0.9918 -0.1281 0.1281 -0.9918 83.1475 13.0831)" style="fill:#669966;" width="0.088" height="1.024"/>
	</g>
	<g>
		<line style="fill:none;" x1="42.536" y1="3.97" x2="42.421" y2="4.512"/>
	</g>
</g>
<g id="Heath_8_" style="enable-background:new    ;">
	<g>
		
			<rect x="33.115" y="12.197" transform="matrix(-0.208 -0.9781 0.9781 -0.208 28.3625 47.4482)" style="fill:#669966;" width="0.554" height="0.088"/>
	</g>
	<g>
		
			<rect x="33.365" y="11.823" transform="matrix(-0.1221 -0.9925 0.9925 -0.1221 26.2356 46.9388)" style="fill:#669966;" width="1.024" height="0.087"/>
	</g>
	<g>
		
			<rect x="33.794" y="11.644" transform="matrix(-0.0418 -0.9991 0.9991 -0.0418 24.1742 46.5584)" style="fill:#669966;" width="1.239" height="0.086"/>
	</g>
	<g>
		<rect x="34.893" y="11.031" style="fill:#669966;" width="0.088" height="1.267"/>
	</g>
	<g>
		<rect x="35.416" y="11.068" style="fill:#669966;" width="0.086" height="1.239"/>
	</g>
	<g>
		
			<rect x="35.952" y="11.355" transform="matrix(-0.9923 -0.124 0.124 -0.9923 70.2404 28.1069)" style="fill:#669966;" width="0.087" height="1.024"/>
	</g>
	<g>
		<line style="fill:none;" x1="36.536" y1="11.97" x2="36.421" y2="12.512"/>
	</g>
</g>
<g id="Heath_7_" style="enable-background:new    ;">
	<g>
		
			<rect x="7.115" y="14.227" transform="matrix(-0.2071 -0.9783 0.9783 -0.2071 -5.038 24.4575)" style="fill:#669966;" width="0.554" height="0.087"/>
	</g>
	<g>
		
			<rect x="7.365" y="13.852" transform="matrix(-0.122 -0.9925 0.9925 -0.122 -4.9526 23.4096)" style="fill:#669966;" width="1.024" height="0.087"/>
	</g>
	<g>
		
			<rect x="7.793" y="13.672" transform="matrix(-0.0418 -0.9991 0.9991 -0.0418 -4.94 22.6934)" style="fill:#669966;" width="1.239" height="0.087"/>
	</g>
	<g>
		<rect x="8.891" y="13.06" style="fill:#669966;" width="0.087" height="1.267"/>
	</g>
	<g>
		<rect x="9.415" y="13.096" style="fill:#669966;" width="0.087" height="1.239"/>
	</g>
	<g>
		
			<rect x="9.95" y="13.384" transform="matrix(-0.9923 -0.124 0.124 -0.9923 18.1856 28.9242)" style="fill:#669966;" width="0.087" height="1.024"/>
	</g>
	<g>
		<line style="fill:none;" x1="10.535" y1="13.999" x2="10.42" y2="14.54"/>
	</g>
</g>
<g id="Heath_6_" style="enable-background:new    ;">
	<g>
		
			<rect x="2.115" y="24.1" transform="matrix(-0.2071 -0.9783 0.9783 -0.2071 -20.7325 31.4839)" style="fill:#669966;" width="0.554" height="0.087"/>
	</g>
	<g>
		
			<rect x="2.366" y="23.725" transform="matrix(-0.1221 -0.9925 0.9925 -0.1221 -20.3609 29.527)" style="fill:#669966;" width="1.024" height="0.087"/>
	</g>
	<g>
		
			<rect x="2.793" y="23.546" transform="matrix(-0.0418 -0.9991 0.9991 -0.0418 -20.0139 27.9837)" style="fill:#669966;" width="1.239" height="0.087"/>
	</g>
	<g>
		<rect x="3.891" y="22.933" style="fill:#669966;" width="0.087" height="1.267"/>
	</g>
	<g>
		<rect x="4.415" y="22.969" style="fill:#669966;" width="0.087" height="1.239"/>
	</g>
	<g>
		
			<rect x="4.95" y="23.257" transform="matrix(-0.9924 -0.1233 0.1233 -0.9924 7.0169 47.973)" style="fill:#669966;" width="0.087" height="1.024"/>
	</g>
	<g>
		<line style="fill:none;" x1="5.535" y1="23.872" x2="5.42" y2="24.413"/>
	</g>
</g>
<g id="Heath_5_" style="enable-background:new    ;">
	<g>
		
			<rect x="7.117" y="37.23" transform="matrix(-0.2075 -0.9782 0.9782 -0.2075 -27.535 52.2404)" style="fill:#669966;" width="0.553" height="0.087"/>
	</g>
	<g>
		
			<rect x="7.367" y="36.855" transform="matrix(-0.1219 -0.9925 0.9925 -0.1219 -27.7828 49.2181)" style="fill:#669966;" width="1.025" height="0.086"/>
	</g>
	<g>
		
			<rect x="7.793" y="36.678" transform="matrix(-0.0418 -0.9991 0.9991 -0.0418 -27.9249 46.6612)" style="fill:#669966;" width="1.238" height="0.087"/>
	</g>
	<g>
		<rect x="8.891" y="36.064" style="fill:#669966;" width="0.087" height="1.267"/>
	</g>
	<g>
		<rect x="9.415" y="36.102" style="fill:#669966;" width="0.087" height="1.238"/>
	</g>
	<g>
		
			<rect x="9.949" y="36.388" transform="matrix(-0.9935 -0.1135 0.1135 -0.9935 15.7298 74.6967)" style="fill:#669966;" width="0.086" height="1.024"/>
	</g>
	<g>
		<line style="fill:none;" x1="10.535" y1="37.003" x2="10.42" y2="37.544"/>
	</g>
</g>
<g id="Heath_4_" style="enable-background:new    ;">
	<g>
		
			<rect x="24.118" y="35.197" transform="matrix(-0.2078 -0.9782 0.9782 -0.2078 -5.0064 66.4261)" style="fill:#669966;" width="0.552" height="0.087"/>
	</g>
	<g>
		
			<rect x="24.367" y="34.822" transform="matrix(-0.1215 -0.9926 0.9926 -0.1215 -6.7057 63.7952)" style="fill:#669966;" width="1.025" height="0.086"/>
	</g>
	<g>
		
			<rect x="24.794" y="34.644" transform="matrix(-0.0418 -0.9991 0.9991 -0.0418 -8.182 61.5291)" style="fill:#669966;" width="1.238" height="0.087"/>
	</g>
	<g>
		<rect x="25.893" y="34.031" style="fill:#669966;" width="0.088" height="1.267"/>
	</g>
	<g>
		<rect x="26.416" y="34.068" style="fill:#669966;" width="0.086" height="1.238"/>
	</g>
	<g>
		
			<rect x="26.95" y="34.355" transform="matrix(-0.9936 -0.1129 0.1129 -0.9936 49.8769 72.5592)" style="fill:#669966;" width="0.086" height="1.024"/>
	</g>
	<g>
		<line style="fill:none;" x1="27.536" y1="34.971" x2="27.421" y2="35.512"/>
	</g>
</g>
<g id="Heath_3_" style="enable-background:new    ;">
	<g>
		
			<rect x="39.114" y="34.197" transform="matrix(-0.2083 -0.9781 0.9781 -0.2083 14.1071 79.9003)" style="fill:#669966;" width="0.553" height="0.088"/>
	</g>
	<g>
		
			<rect x="39.367" y="33.822" transform="matrix(-0.1211 -0.9926 0.9926 -0.1211 11.0927 77.5512)" style="fill:#669966;" width="1.024" height="0.086"/>
	</g>
	<g>
		
			<rect x="39.795" y="33.644" transform="matrix(-0.0418 -0.9991 0.9991 -0.0418 8.4442 75.4736)" style="fill:#669966;" width="1.239" height="0.086"/>
	</g>
	<g>
		<rect x="40.893" y="33.031" style="fill:#669966;" width="0.088" height="1.267"/>
	</g>
	<g>
		<rect x="41.416" y="33.068" style="fill:#669966;" width="0.086" height="1.238"/>
	</g>
	<g>
		
			<rect x="41.95" y="33.355" transform="matrix(-0.9948 -0.1017 0.1017 -0.9948 80.3227 71.8311)" style="fill:#669966;" width="0.086" height="1.025"/>
	</g>
	<g>
		<line style="fill:none;" x1="42.536" y1="33.971" x2="42.421" y2="34.512"/>
	</g>
</g>
<g id="Heath_2_" style="enable-background:new    ;">
	<g>
		
			<rect x="36.113" y="46.196" transform="matrix(-0.2083 -0.9781 0.9781 -0.2083 -1.2553 91.4644)" style="fill:#669966;" width="0.553" height="0.088"/>
	</g>
	<g>
		
			<rect x="36.366" y="45.82" transform="matrix(-0.1219 -0.9925 0.9925 -0.1219 -4.1463 88.0594)" style="fill:#669966;" width="1.025" height="0.087"/>
	</g>
	<g>
		
			<rect x="36.796" y="45.645" transform="matrix(-0.0426 -0.9991 0.9991 -0.0426 -6.6383 85.0146)" style="fill:#669966;" width="1.238" height="0.086"/>
	</g>
	<g>
		<rect x="37.893" y="45.031" style="fill:#669966;" width="0.088" height="1.267"/>
	</g>
	<g>
		<rect x="38.416" y="45.068" style="fill:#669966;" width="0.086" height="1.238"/>
	</g>
	<g>
		
			<rect x="38.95" y="45.355" transform="matrix(-0.9948 -0.1017 0.1017 -0.9948 73.1174 95.4636)" style="fill:#669966;" width="0.086" height="1.025"/>
	</g>
	<g>
		<line style="fill:none;" x1="39.536" y1="45.971" x2="39.421" y2="46.512"/>
	</g>
</g>
<g id="Heath_1_" style="enable-background:new    ;">
	<g>
		
			<rect x="2.118" y="46.176" transform="matrix(-0.2075 -0.9782 0.9782 -0.2075 -42.3231 58.1523)" style="fill:#669966;" width="0.553" height="0.087"/>
	</g>
	<g>
		
			<rect x="2.368" y="45.801" transform="matrix(-0.1219 -0.9925 0.9925 -0.1219 -42.2704 54.2919)" style="fill:#669966;" width="1.025" height="0.086"/>
	</g>
	<g>
		
			<rect x="2.793" y="45.624" transform="matrix(-0.0418 -0.9991 0.9991 -0.0418 -42.0724 50.9848)" style="fill:#669966;" width="1.238" height="0.087"/>
	</g>
	<g>
		<rect x="3.891" y="45.01" style="fill:#669966;" width="0.087" height="1.268"/>
	</g>
	<g>
		<rect x="4.415" y="45.046" style="fill:#669966;" width="0.087" height="1.239"/>
	</g>
	<g>
		
			<rect x="4.949" y="45.333" transform="matrix(-0.9935 -0.1135 0.1135 -0.9935 4.7465 91.9608)" style="fill:#669966;" width="0.086" height="1.025"/>
	</g>
	<g>
		<line style="fill:none;" x1="5.535" y1="45.947" x2="5.42" y2="46.488"/>
	</g>
</g>
<g id="Heath" style="enable-background:new    ;">
	<g>
		
			<rect x="34.115" y="22.197" transform="matrix(-0.208 -0.9781 0.9781 -0.208 19.7896 60.5054)" style="fill:#669966;" width="0.554" height="0.088"/>
	</g>
	<g>
		
			<rect x="34.365" y="21.823" transform="matrix(-0.1221 -0.9925 0.9925 -0.1221 17.433 59.1518)" style="fill:#669966;" width="1.024" height="0.087"/>
	</g>
	<g>
		
			<rect x="34.795" y="21.644" transform="matrix(-0.041 -0.9992 0.9992 -0.041 15.1967 57.9605)" style="fill:#669966;" width="1.239" height="0.086"/>
	</g>
	<g>
		<rect x="35.893" y="21.031" style="fill:#669966;" width="0.088" height="1.267"/>
	</g>
	<g>
		<rect x="36.416" y="21.068" style="fill:#669966;" width="0.086" height="1.239"/>
	</g>
	<g>
		
			<rect x="36.952" y="21.355" transform="matrix(-0.9923 -0.124 0.124 -0.9923 70.9922 48.1547)" style="fill:#669966;" width="0.087" height="1.024"/>
	</g>
	<g>
		<line style="fill:none;" x1="37.536" y1="21.97" x2="37.421" y2="22.512"/>
	</g>
</g>
</svg>
