<?xml version="1.0" encoding="UTF-8"?>
<svg id="Layer_1" xmlns="http://www.w3.org/2000/svg" width="2.7" height="6.2" viewBox="0 0 2.7 6.2">
  <defs>
    <style>
      .cls-1 {
        fill: #628654;
      }
    </style>
  </defs>
  <g id="positionedNonconiferousTreeSymbol">
    <g id="path4">
      <path class="cls-1" d="M1.4,3.07h-.08l-.18-.72c-.15.16-.39.24-.62.19-.26-.06-.45-.27-.49-.53-.04-.24.06-.49.26-.63-.12-.18-.13-.41-.03-.6.1-.2.29-.32.51-.33C.84.2,1.09.01,1.36.01s.52.19.58.46c.22,0,.41.13.51.33.1.19.08.42-.04.6.2.14.3.38.27.63-.04.26-.23.47-.49.53-.23.05-.46-.02-.62-.19l-.18.72v-.02ZM1.18,2.15l.18.72.18-.72.06.08c.13.18.36.27.58.22.22-.05.39-.23.42-.46s-.07-.45-.26-.56l-.04-.03.03-.04c.12-.15.14-.37.05-.54-.08-.17-.26-.28-.45-.28h-.05v-.03c-.05-.24-.26-.42-.51-.42s-.46.18-.51.42v.04h-.06c-.19,0-.37.11-.45.28-.09.18-.07.39.05.54l.03.04-.04.03c-.19.12-.3.34-.26.56.03.23.2.4.42.46.22.05.45-.04.58-.22l.06-.08h0Z"/>
    </g>
  </g>
</svg>